<svg width="56" height="55" viewBox="0 0 56 55" fill="none" xmlns="http://www.w3.org/2000/svg">
<path d="M32.4414 17.3247V21.3247M24.4414 17.3247V21.3247M19.4414 25.3247H37.4414M54.4414 27.3247C54.4414 41.8222 42.6889 53.5747 28.1914 53.5747C13.6939 53.5747 1.94141 41.8222 1.94141 27.3247C1.94141 12.8272 13.6939 1.07471 28.1914 1.07471C42.6889 1.07471 54.4414 12.8272 54.4414 27.3247ZM21.4414 19.3247H35.4414C36.546 19.3247 37.4414 20.2201 37.4414 21.3247V35.3247C37.4414 36.4293 36.546 37.3247 35.4414 37.3247H21.4414C20.3368 37.3247 19.4414 36.4293 19.4414 35.3247V21.3247C19.4414 20.2201 20.3368 19.3247 21.4414 19.3247Z" stroke="#00B4FF" stroke-width="2" stroke-linecap="round" stroke-linejoin="round"/>
</svg>
