<svg width="56" height="55" viewBox="0 0 56 55" fill="none" xmlns="http://www.w3.org/2000/svg">
<path d="M24.4434 37.0647H32.4434M28.4434 33.0647V37.0647M54.4434 27.3894C54.4434 41.8869 42.6908 53.6394 28.1934 53.6394C13.6959 53.6394 1.94336 41.8869 1.94336 27.3894C1.94336 12.8919 13.6959 1.1394 28.1934 1.1394C42.6908 1.1394 54.4434 12.8919 54.4434 27.3894ZM20.4434 19.0647H36.4434C37.5479 19.0647 38.4434 19.9601 38.4434 21.0647V31.0647C38.4434 32.1693 37.5479 33.0647 36.4434 33.0647H20.4434C19.3388 33.0647 18.4434 32.1693 18.4434 31.0647V21.0647C18.4434 19.9601 19.3388 19.0647 20.4434 19.0647Z" stroke="#00B4FF" stroke-width="2" stroke-linecap="round" stroke-linejoin="round"/>
</svg>
