<svg width="56" height="56" viewBox="0 0 56 56" fill="none" xmlns="http://www.w3.org/2000/svg">
<path d="M36.499 36.25V34.25C36.499 33.1891 36.0776 32.1717 35.3274 31.4216C34.5773 30.6714 33.5599 30.25 32.499 30.25H24.499C23.4382 30.25 22.4207 30.6714 21.6706 31.4216C20.9205 32.1717 20.499 33.1891 20.499 34.25V36.25M54.4414 28.2041C54.4414 42.7016 42.6889 54.4541 28.1914 54.4541C13.6939 54.4541 1.94141 42.7016 1.94141 28.2041C1.94141 13.7066 13.6939 1.9541 28.1914 1.9541C42.6889 1.9541 54.4414 13.7066 54.4414 28.2041ZM32.499 22.25C32.499 24.4591 30.7082 26.25 28.499 26.25C26.2899 26.25 24.499 24.4591 24.499 22.25C24.499 20.0409 26.2899 18.25 28.499 18.25C30.7082 18.25 32.499 20.0409 32.499 22.25Z" stroke="#00B4FF" stroke-width="2" stroke-linecap="round" stroke-linejoin="round"/>
</svg>
