<svg width="187" height="233" viewBox="0 0 187 233" fill="none" xmlns="http://www.w3.org/2000/svg">
<path d="M58.9997 225.237C25.6223 207.318 14.1666 168.446 11.4077 132.672C10.9417 126.693 9.58686 120.5 11.8635 114.962C14.1536 109.423 20.4425 105.115 26.1213 107.025C30.8325 108.608 33.3548 113.535 36.3418 117.508C40.3101 122.799 45.7949 126.926 51.9761 129.263C56.0316 130.8 60.9129 131.471 64.4732 128.985C69.3556 125.571 69.1844 118.423 68.4803 112.507C67.1777 101.492 65.8738 90.4643 64.5712 79.4496C63.8671 73.5335 63.1782 67.4937 64.4103 61.6765C65.6424 55.8593 69.1803 50.1733 74.7084 47.9732C80.2353 45.7596 87.6497 48.2223 89.5093 53.8781C90.2783 56.233 90.0628 58.7911 90.5008 61.232C90.9389 63.673 92.4086 66.2591 94.8503 66.6758C97.3201 67.1033 99.5345 65.1538 101.126 63.2233C106.646 56.5599 109.987 48.3962 113.049 40.3C116.124 32.2026 119.05 23.9567 123.94 16.811C128.83 9.66535 136.013 3.64272 144.546 2.21225C153.089 0.753585 162.817 4.97503 165.926 13.0481C169.038 21.1481 165.047 30.1613 160.434 37.5109C153.598 48.4121 145.161 58.3273 135.503 66.8267C133.765 68.3641 131.875 70.0247 131.388 72.2968C130.532 76.3817 134.749 79.8843 138.848 80.7388C143.486 81.7043 148.276 80.7149 153.013 80.7346C157.75 80.7543 163.048 82.2263 165.294 86.3932C168.427 92.1709 164.003 99.0819 159.435 103.795C150.261 113.238 139.468 121.087 127.666 126.902C123.43 128.991 118.946 130.901 115.736 134.358C112.527 137.814 110.971 143.364 113.587 147.292C116.204 151.233 121.864 151.951 126.401 150.592C130.924 149.235 134.781 146.3 139 144.171C146.893 140.183 157.607 139.561 163.668 146.007C167.656 150.237 168.678 156.639 167.543 162.338C166.408 168.037 163.374 173.173 160.09 177.966C148.593 194.729 133.064 208.921 114.682 217.58C96.2744 226.242 78.7643 229.987 58.9997 225.237Z" fill="#ECF1FE"/>
<path d="M61.5258 225.701C64.8301 207.133 74.5611 163.24 80.8656 142.431C82.4568 137.244 84.0385 132.098 85.601 127.036C87.1647 121.988 88.7055 116.982 90.5371 112.179C94.1305 102.553 98.3423 93.573 102.596 85.1723C106.849 76.7582 111.199 68.9318 115.329 61.6421C119.472 54.3511 123.453 47.632 127.345 41.6678C135.096 29.7017 142.489 20.7824 147.821 14.856C150.481 11.8868 152.613 9.64665 154.083 8.14847C154.801 7.4282 155.357 6.85918 155.752 6.45484C156.137 6.07868 156.35 5.89538 156.35 5.89538C156.35 5.89538 156.181 6.11514 155.826 6.5156C155.433 6.94683 154.906 7.52672 154.217 8.27129C152.792 9.81937 150.703 12.0825 148.088 15.0882C142.842 21.074 135.547 30.0247 127.879 42.0099C124.03 47.9836 120.077 54.7136 115.975 62.0142C111.875 69.3282 107.552 77.152 103.326 85.5636C99.0988 93.9617 94.9261 102.924 91.3422 112.509C89.5362 117.296 88.005 122.26 86.4425 127.322C84.8935 132.383 83.3105 137.514 81.7194 142.701C75.4135 163.497 65.6773 207.337 62.3276 225.854" fill="#D6DFF5"/>
<path d="M90.7445 112.078C90.6785 112.098 90.3903 111.217 89.91 109.607C89.4298 107.998 88.7978 105.657 88.0578 102.757C86.5643 96.9571 84.7839 88.8784 82.8281 79.9618C80.8723 71.0452 78.948 63.021 77.3361 57.26C76.5435 54.3781 75.8725 52.0545 75.3801 50.46C74.9011 48.8643 74.6654 47.9642 74.7179 47.9456C74.7704 47.927 75.1245 48.7885 75.7097 50.3605C76.3084 51.9312 77.0723 54.2324 77.9442 57.093C79.7161 62.8251 81.7493 70.8523 83.7064 79.7824C85.6276 88.621 87.3733 96.6216 88.6819 102.615C89.3162 105.404 89.8515 107.727 90.2679 109.519C90.6284 111.153 90.7969 112.059 90.7445 112.078Z" fill="#D6DFF5"/>
<path d="M166.249 89.287C166.251 89.3139 165.988 89.3935 165.468 89.4977C164.843 89.6256 164.097 89.7652 163.205 89.9459C161.247 90.324 158.409 90.868 154.915 91.6515C147.937 93.1632 138.363 95.6165 127.933 98.776C117.507 101.962 108.189 105.246 101.518 107.841C98.18 109.111 95.5039 110.21 93.6491 110.958C92.7997 111.297 92.0944 111.582 91.5062 111.815C91.0082 111.998 90.7458 112.091 90.7284 112.052C90.7124 112.027 90.9562 111.881 91.4221 111.647C91.993 111.375 92.6798 111.037 93.4958 110.633C95.3 109.781 97.9535 108.59 101.27 107.24C107.886 104.501 117.194 101.11 127.66 97.9067C138.115 94.7312 147.74 92.3816 154.773 91.0139C158.287 90.3098 161.148 89.8586 163.128 89.5733C164.04 89.4586 164.792 89.3728 165.421 89.2852C165.963 89.2738 166.233 89.2614 166.249 89.287Z" fill="#D6DFF5"/>
<path d="M66.6075 200.355C66.5819 200.371 66.3761 200.065 65.994 199.477C65.576 198.798 65.0445 197.927 64.3861 196.864C63.0012 194.595 61.0654 191.253 58.7256 187.096C54.0459 178.78 47.9452 167.114 41.3658 154.136C34.7865 141.159 28.7773 129.457 24.2538 121.072C22.0146 116.972 20.1851 113.607 18.8519 111.17C18.2581 110.074 17.7643 109.172 17.3854 108.475C17.0545 107.856 16.8999 107.518 16.9255 107.502C16.9511 107.486 17.1568 107.792 17.5389 108.379C17.957 109.058 18.4885 109.93 19.1469 110.993C20.5318 113.261 22.4676 116.603 24.8074 120.761C29.4871 129.077 35.5877 140.743 42.1671 153.72C48.7452 166.684 54.7557 178.4 59.2778 186.771C61.5171 190.871 63.3466 194.236 64.6798 196.673C65.2749 197.783 65.7673 198.671 66.1463 199.368C66.4785 200.001 66.6331 200.339 66.6075 200.355Z" fill="#D6DFF5"/>
<path d="M165.409 156.383C165.425 156.409 165.09 156.59 164.428 156.898C163.686 157.227 162.737 157.658 161.553 158.192C158.951 159.351 155.359 160.945 150.959 162.887C142.02 166.867 129.74 172.511 116.19 178.779C102.64 185.047 90.3123 190.614 81.2903 194.439C76.7793 196.352 73.1259 197.869 70.5766 198.874C69.3732 199.343 68.392 199.722 67.6329 200.012C66.9519 200.267 66.5966 200.383 66.5806 200.357C66.5646 200.332 66.8999 200.15 67.5624 199.842C68.3041 199.513 69.2533 199.083 70.4367 198.548C73.0391 197.389 76.6309 195.796 81.0305 193.853C89.9698 189.874 102.25 184.23 115.8 177.962C129.35 171.694 141.679 166.14 150.686 162.303C155.197 160.39 158.851 158.872 161.4 157.868C162.603 157.399 163.584 157.02 164.344 156.73C165.038 156.473 165.393 156.358 165.409 156.383Z" fill="#D6DFF5"/>
</svg>
