<svg width="172" height="250" viewBox="0 0 172 250" fill="none" xmlns="http://www.w3.org/2000/svg">
<path d="M6.01719 2.11858C6.01719 2.11858 -8.39434 7.96297 8.23039 38.5623C24.8551 69.1616 36.2042 84.2359 36.2042 84.2359C36.2042 84.2359 39.2023 91.3676 33.1675 92.6421C27.1326 93.9165 13.7505 92.14 11.2414 99.6193C8.64214 107.382 14.4196 114.501 25.8974 120.564C37.388 126.64 62.0677 140.865 64.2938 142.152C66.4813 143.426 68.7202 146.722 64.757 148.241C60.7939 149.773 30.8642 153.673 33.5664 167.769C36.2685 181.865 71.0492 193.515 74.8322 194.867C78.6152 196.219 79.5417 197.776 79.2972 199.836C79.0399 201.896 68.8617 202.269 60.395 203.724C51.9282 205.178 42.3677 208.358 44.6066 216.365C46.8456 224.359 67.6908 240.76 117.385 244.325L140.52 244.48L152.59 224.617C175.829 180.539 172.959 154.175 167.349 148.035C161.752 141.894 153.993 148.331 148.28 154.755C142.566 161.165 136.866 169.623 134.987 168.748C133.109 167.872 132.272 166.25 133.135 162.324C133.984 158.398 142.502 122.714 131.977 112.956C121.451 103.211 102.304 126.55 98.9201 129.099C95.523 131.66 93.9146 128.017 93.9918 125.481C94.069 122.907 95.0598 94.4314 95.9863 81.4553C96.9127 68.4922 93.9275 59.8286 85.9754 57.9362C78.2936 56.1083 72.722 68.4149 68.4628 72.869C64.1909 77.3102 59.7258 71.0024 59.7258 71.0024C59.7258 71.0024 52.9447 53.392 35.7796 23.1017C18.6015 -7.18865 5.75984 2.24732 5.75984 2.24732" fill="#ECF1FE"/>
<path d="M141.862 249.899C129.342 227.603 107.75 187.594 89.0279 153.338C70.3187 119.096 53.3465 88.1106 40.9423 65.7501C34.7402 54.5891 29.7091 45.5651 26.222 39.2831C24.4978 36.1807 23.1467 33.7605 22.2202 32.087C21.7827 31.276 21.4353 30.6581 21.1908 30.2075C20.9592 29.7827 20.8691 29.551 20.8691 29.551C20.8691 29.551 21.0107 29.757 21.2552 30.1689C21.5125 30.6066 21.8728 31.2245 22.336 32.0098C23.2882 33.6704 24.6779 36.0648 26.4536 39.1415C30.0179 45.3463 35.1263 54.3446 41.3798 65.4926C53.8998 87.7888 70.9492 118.736 89.6584 152.978C108.381 187.233 129.895 227.269 142.312 249.629" fill="#D6DFF5"/>
<path d="M29.8752 102.863C29.8881 102.812 30.4671 102.966 31.4965 103.275C32.5259 103.571 34.0057 104.06 35.8328 104.666C39.4743 105.901 44.4669 107.729 49.9227 109.841C55.3013 111.952 60.178 113.857 63.8967 115.312C65.5823 115.955 66.9978 116.509 68.143 116.946C69.1466 117.333 69.6999 117.564 69.6742 117.603C69.6613 117.654 69.0823 117.513 68.0529 117.204C67.0235 116.895 65.5437 116.419 63.7294 115.788C60.1008 114.526 55.134 112.634 49.6782 110.51C44.2867 108.437 39.41 106.571 35.6656 105.142C33.9799 104.498 32.5516 103.97 31.4064 103.533C30.4028 103.146 29.8624 102.915 29.8752 102.863Z" fill="#D6DFF5"/>
<path d="M71.217 116.084C71.024 116.02 74.3438 105.567 78.6158 92.7451C82.8878 79.9106 86.5164 69.5735 86.6965 69.625C86.8895 69.6894 83.5697 80.1423 79.2977 92.9639C75.0257 105.798 71.41 116.135 71.217 116.084Z" fill="#D6DFF5"/>
<path d="M97.5832 169.971C97.5446 169.945 97.8663 169.43 98.4839 168.516C99.1916 167.486 100.079 166.212 101.122 164.693C103.348 161.462 106.397 156.995 109.588 151.935C112.792 146.889 115.533 142.216 117.476 138.818C118.403 137.222 119.175 135.87 119.792 134.801C120.346 133.849 120.667 133.347 120.719 133.36C120.757 133.385 120.526 133.939 120.037 134.93C119.561 135.921 118.84 137.337 117.914 139.062C116.074 142.525 113.397 147.25 110.18 152.322C106.976 157.394 103.85 161.822 101.521 164.989C100.35 166.559 99.3846 167.821 98.6898 168.683C98.0207 169.533 97.6218 169.996 97.5832 169.971Z" fill="#D6DFF5"/>
<path d="M57.5666 166.25C57.5666 166.199 58.1328 166.199 59.1493 166.238C60.3203 166.302 61.7485 166.379 63.4342 166.469C67.0499 166.688 72.0425 167.049 77.5498 167.499C83.057 167.937 88.0496 168.374 91.6525 168.735C93.3381 168.915 94.7535 169.07 95.9245 169.185C96.9281 169.314 97.4814 169.404 97.4814 169.456C97.4814 169.507 96.9152 169.507 95.8987 169.469C94.7278 169.404 93.2995 169.327 91.6139 169.237C87.9981 169.018 83.0056 168.658 77.4983 168.207C71.991 167.769 66.9985 167.332 63.3956 166.971C61.7099 166.791 60.2945 166.637 59.1236 166.521C58.1071 166.392 57.5538 166.289 57.5666 166.25Z" fill="#D6DFF5"/>
<path d="M74.7949 216.777C74.7949 216.725 75.5155 216.725 76.8151 216.777C78.2434 216.854 80.0963 216.944 82.3095 217.047C86.9418 217.305 93.3498 217.717 100.414 218.219C107.478 218.721 113.886 219.21 118.506 219.596C120.719 219.802 122.559 219.97 123.987 220.098C125.274 220.227 125.994 220.33 125.994 220.381C125.994 220.433 125.274 220.433 123.974 220.381C122.546 220.304 120.693 220.214 118.48 220.111C113.848 219.854 107.44 219.442 100.375 218.94C93.3112 218.438 86.916 217.948 82.2838 217.562C80.0706 217.356 78.2305 217.189 76.8022 217.06C75.5026 216.919 74.7949 216.828 74.7949 216.777Z" fill="#D6DFF5"/>
<path d="M124.784 219.957C124.745 219.931 125.131 219.262 125.878 218.09C126.701 216.816 127.769 215.142 129.056 213.121C131.732 208.925 135.4 203.119 139.273 196.605C143.159 190.091 146.517 184.092 148.923 179.741C150.081 177.656 151.033 175.918 151.767 174.579C152.449 173.369 152.835 172.7 152.886 172.725C152.925 172.751 152.616 173.459 152.011 174.708C151.407 175.969 150.506 177.772 149.361 179.973C147.07 184.388 143.776 190.439 139.89 196.965C136.017 203.505 132.26 209.272 129.481 213.391C128.078 215.451 126.933 217.112 126.109 218.232C125.299 219.365 124.835 219.982 124.784 219.957Z" fill="#D6DFF5"/>
</svg>
