<svg width="251" height="280" viewBox="0 0 251 280" fill="none" xmlns="http://www.w3.org/2000/svg">
<path d="M74.9245 264.719C36.6394 241.829 24.9966 195.108 23.3914 152.489C23.1252 145.377 21.8187 137.944 24.7401 131.485C27.6786 125.023 35.2457 120.199 41.808 122.736C47.2576 124.841 49.9833 130.807 53.2987 135.667C57.6946 142.139 63.9402 147.294 71.0747 150.376C75.7539 152.392 81.4502 153.435 85.7384 150.66C91.6104 146.845 91.7397 138.328 91.1877 131.285C90.1645 118.132 89.1412 104.979 88.118 91.8261C87.563 84.766 87.0344 77.5608 88.7443 70.7063C90.4541 63.8517 94.8642 57.2819 101.437 54.9198C108.01 52.5576 116.6 55.8333 118.497 62.6511C119.291 65.4914 118.923 68.5061 119.328 71.4339C119.731 74.3446 121.334 77.4949 124.164 78.1074C127.03 78.7307 129.72 76.5255 131.688 74.31C138.465 66.6637 142.744 57.1342 146.718 47.6598C150.694 38.2024 154.509 28.5285 160.563 20.2757C166.616 12.0229 175.317 5.2227 185.382 3.93272C195.446 2.64274 206.66 8.11237 209.928 17.8593C213.199 27.6231 208.115 38.1402 202.372 46.6529C193.863 59.28 183.528 70.6395 171.811 80.2655C169.703 81.9974 167.412 83.885 166.753 86.5487C165.552 91.3634 170.356 95.726 175.101 96.9404C180.49 98.3195 186.159 97.3664 191.698 97.6304C197.253 97.8914 203.385 99.8908 205.84 104.941C209.244 111.943 203.758 119.935 198.168 125.314C186.991 136.089 173.982 144.877 159.885 151.23C154.821 153.495 149.493 155.562 145.556 159.502C141.638 163.456 139.552 169.975 142.435 174.772C145.318 179.569 151.924 180.693 157.286 179.304C162.649 177.915 167.313 174.599 172.351 172.286C181.792 167.932 194.366 167.715 201.165 175.649C205.635 180.879 206.542 188.525 204.946 195.236C203.351 201.947 199.568 207.913 195.496 213.439C181.253 232.787 162.409 248.894 140.459 258.296C118.564 267.705 97.8644 271.301 74.9245 264.719Z" fill="#407BFF"/>
<path d="M84.006 237.282C88.7342 215.369 95.8979 191.788 104.245 167.379C106.354 161.278 108.444 155.267 110.496 149.334C112.568 143.414 114.611 137.535 116.968 131.932C121.636 120.665 126.975 110.207 132.35 100.427C137.724 90.6475 143.187 81.5535 148.361 73.091C153.554 64.6424 158.533 56.847 163.376 49.9534C173.032 36.1014 182.116 25.8802 188.646 19.1032C191.91 15.7063 194.521 13.1642 196.317 11.4536C197.189 10.6469 197.861 9.99899 198.371 9.52083C198.837 9.08586 199.081 8.88384 199.101 8.89777C199.121 8.9117 198.903 9.16166 198.458 9.61056C197.971 10.1196 197.318 10.7814 196.49 11.633C194.757 13.4024 192.209 16.0032 189.005 19.442C182.595 26.3025 173.646 36.5873 164.135 50.4658C159.349 57.3841 154.425 65.1874 149.285 73.6437C144.169 82.1311 138.739 91.2188 133.399 100.993C128.059 110.766 122.767 121.198 118.141 132.405C115.801 138.004 113.779 143.81 111.711 149.746C109.659 155.68 107.586 161.687 105.477 167.789C97.1435 192.178 89.9505 215.693 85.173 237.527" fill="white"/>
<path d="M117.324 131.85C117.239 131.866 116.927 130.817 116.421 128.89C115.915 126.963 115.267 124.149 114.516 120.669C113.015 113.71 111.269 104.039 109.394 93.3565C107.518 82.6739 105.64 73.0448 104.04 66.1208C103.241 62.6673 102.579 59.8736 102.09 57.9436C101.618 56.0105 101.388 54.9289 101.473 54.9136C101.555 54.8813 101.952 55.9152 102.573 57.8037C103.212 59.6891 104.01 62.4583 104.931 65.9073C106.769 72.7884 108.789 82.4269 110.685 93.1235C112.519 103.673 114.169 113.203 115.431 120.487C116.023 123.767 116.526 126.554 116.925 128.764C117.26 130.721 117.406 131.818 117.324 131.85Z" fill="white"/>
<path d="M206.835 108.412C206.851 108.497 205.563 108.747 203.243 109.113C200.923 109.479 197.581 110.012 193.459 110.791C185.22 112.278 173.894 114.743 161.518 117.995C149.147 121.28 138.085 124.716 130.157 127.446C126.187 128.776 122.996 129.949 120.787 130.734C118.581 131.536 117.338 131.936 117.305 131.854C117.273 131.772 118.452 131.208 120.596 130.259C122.76 129.325 125.893 128.022 129.859 126.569C137.729 123.622 148.795 120.01 161.2 116.718C173.61 113.461 184.994 111.125 193.311 109.87C197.454 109.21 200.841 108.827 203.188 108.614C205.535 108.401 206.82 108.327 206.835 108.412Z" fill="white"/>
<path d="M84.9865 235.525C84.9556 235.548 84.7152 235.188 84.2853 234.458C83.7968 233.599 83.2036 232.547 82.5026 231.288C80.9696 228.528 78.8344 224.473 76.2913 219.422C71.1741 209.342 64.5317 195.185 57.4311 179.461C50.3135 163.74 43.8209 149.539 38.9323 139.365C36.5296 134.411 34.5504 130.345 33.0934 127.327C32.4712 126.017 31.9429 124.937 31.5193 124.048C31.1713 123.286 31.0097 122.877 31.0406 122.854C31.0715 122.83 31.315 123.208 31.7419 123.92C32.2303 124.78 32.8204 125.814 33.5245 127.091C35.0575 129.85 37.1926 133.905 39.7358 138.957C44.8529 149.036 51.4954 163.193 58.596 178.917C65.7136 194.638 72.2062 208.84 77.0947 219.014C79.4944 223.951 81.4767 228.033 82.9337 231.052C83.5559 232.361 84.0842 233.441 84.5078 234.33C84.8728 235.089 85.0344 235.499 84.9865 235.525Z" fill="white"/>
<path d="M202.791 188.061C202.8 188.112 202.414 188.305 201.632 188.639C200.718 189.015 199.578 189.501 198.223 190.062C195.067 191.333 190.801 193.068 185.618 195.162C174.976 199.469 160.331 205.605 144.173 212.4C127.999 219.198 113.292 225.186 102.559 229.282C97.194 231.338 92.8362 232.95 89.7962 233.99C88.3921 234.472 87.2336 234.856 86.2928 235.184C85.4788 235.436 85.0633 235.564 85.0371 235.516C85.0279 235.465 85.4142 235.272 86.1959 234.938C87.1104 234.562 88.2366 234.096 89.6053 233.515C92.7614 232.244 97.0266 230.509 102.21 228.415C112.852 224.108 127.497 217.972 143.672 211.174C159.829 204.379 174.553 198.388 185.286 194.292C190.651 192.235 195.009 190.624 198.049 189.584C199.453 189.102 200.611 188.718 201.552 188.39C202.329 188.127 202.765 188.013 202.791 188.061Z" fill="white"/>
</svg>
