<svg width="473" height="387" viewBox="0 0 473 387" fill="none" xmlns="http://www.w3.org/2000/svg">
<path d="M462 386.15C462 386.221 364.758 386.363 244.819 386.363C124.809 386.292 27.5664 386.221 27.5664 386.15C27.5664 386.079 124.809 385.937 244.819 385.937C364.758 385.937 462 386.008 462 386.15Z" fill="#251A51"/>
<path d="M388.974 221.95C389.974 221.75 398.174 259.15 397.074 273.65C395.974 288.15 385.474 386.75 385.474 386.75H346.873L349.273 275.25L342.373 386.75H307.174C307.174 386.75 294.674 289.65 296.574 274.75C298.474 259.85 308.373 220.75 308.373 220.75L388.974 221.95Z" fill="#251A51"/>
<path d="M352.673 230.55C352.673 230.55 352.773 231.05 352.773 231.95C352.773 232.85 352.773 234.15 352.773 235.75C352.673 238.95 352.473 243.45 352.073 248.25C351.673 253.15 351.073 257.55 350.673 260.75C350.473 262.35 350.273 263.65 350.073 264.55C349.873 265.45 349.773 265.95 349.773 265.95C349.773 265.95 349.773 265.45 349.873 264.55C349.973 263.55 350.173 262.25 350.273 260.75C350.673 257.55 351.173 253.15 351.573 248.25C351.973 243.35 352.273 238.95 352.373 235.75C352.473 234.25 352.473 232.95 352.573 231.95C352.573 231.05 352.573 230.55 352.673 230.55Z" fill="#00B4FF"/>
<path d="M358.673 233.55C358.673 233.55 358.973 233.45 359.373 233.55C359.873 233.65 360.573 233.95 361.073 234.65C361.373 234.95 361.573 235.45 361.773 235.95C361.873 236.45 361.873 237.05 361.673 237.65C361.273 238.75 360.073 239.75 358.673 239.75C357.273 239.75 356.073 238.65 355.773 237.55C355.573 236.95 355.573 236.35 355.673 235.85C355.873 235.35 356.073 234.95 356.373 234.55C356.973 233.95 357.773 233.65 358.273 233.65C358.773 233.65 358.973 233.75 358.973 233.85C358.973 233.85 358.673 233.85 358.273 233.95C357.873 234.05 357.173 234.25 356.673 234.85C356.173 235.45 355.773 236.45 356.173 237.35C356.473 238.25 357.473 239.25 358.673 239.25C359.873 239.25 360.873 238.45 361.273 237.45C361.673 236.45 361.373 235.55 360.873 234.85C360.373 234.25 359.773 233.85 359.373 233.75C358.973 233.65 358.673 233.65 358.673 233.55Z" fill="#00B4FF"/>
<path d="M393.973 239.85C393.973 239.85 393.673 240.05 393.073 240.15C392.473 240.35 391.673 240.55 390.573 240.65C388.373 240.85 385.273 240.65 382.273 239.15C379.273 237.75 377.073 235.45 375.873 233.65C375.273 232.75 374.873 231.95 374.673 231.35C374.473 230.75 374.373 230.45 374.373 230.45C374.473 230.45 374.973 231.65 376.173 233.35C377.373 235.05 379.573 237.25 382.473 238.55C385.373 239.95 388.373 240.25 390.573 240.15C392.673 240.15 393.973 239.75 393.973 239.85Z" fill="#00B4FF"/>
<path d="M317.074 60.6499C314.574 69.9499 310.674 77.3499 306.874 81.1499C303.074 84.8499 299.074 89.2499 299.174 94.5499C299.274 96.6499 299.874 98.8499 298.974 100.75C297.774 103.15 294.674 103.75 292.274 105.05C288.774 107.05 286.874 111.15 286.974 115.15C287.074 119.15 289.174 122.95 291.974 125.75C294.874 128.65 299.574 130.75 303.174 128.75C305.374 127.55 306.574 125.15 307.774 122.95C313.474 111.25 318.674 99.3499 323.374 87.2499" fill="#251A51"/>
<path d="M340.474 20.95C346.974 13.75 357.974 11.15 366.974 14.65C375.974 18.15 382.274 27.55 382.174 37.15C382.074 43.35 379.674 49.85 382.174 55.55C383.874 59.55 387.974 62.65 388.474 67.05C389.074 72.15 384.774 76.65 384.974 81.75C385.074 85.05 387.174 88.05 389.574 90.35C391.974 92.65 394.774 94.55 396.974 97.05C403.074 103.95 403.474 114.95 398.874 122.95C394.274 130.95 385.374 135.95 376.174 137.05C366.974 138.15 357.574 135.65 349.474 131.15C344.174 128.25 339.174 124.45 336.074 119.35C332.874 114.25 331.874 107.55 334.374 102.05" fill="#251A51"/>
<path d="M360.073 98.3502C360.073 98.3502 380.773 104.45 382.873 107.75C384.873 111.05 391.373 149.55 391.373 149.55L378.673 194.95C378.673 194.95 389.173 211.95 389.773 220.45C366.273 235.65 339.673 231.35 311.873 219.25L309.873 174.85L307.273 103.95L324.373 97.9502L360.073 98.3502Z" fill="#00B4FF"/>
<path d="M383.073 204.15C383.073 204.15 382.773 204.15 382.273 204.15C381.773 204.15 380.973 204.05 380.073 204.05C378.173 203.85 375.373 203.65 372.073 203.45C365.273 202.85 355.973 202.05 345.673 201.15C335.373 200.15 326.073 199.35 319.273 198.65C315.973 198.35 313.273 198.05 311.273 197.85C310.373 197.75 309.673 197.65 309.073 197.65C308.573 197.55 308.273 197.55 308.273 197.55C308.273 197.55 308.573 197.55 309.073 197.55C309.573 197.55 310.373 197.65 311.273 197.65C313.173 197.85 315.973 198.05 319.273 198.25C326.073 198.85 335.373 199.65 345.673 200.55C355.973 201.55 365.273 202.35 372.073 203.05C375.373 203.35 378.073 203.65 380.073 203.85C380.973 203.95 381.673 204.05 382.273 204.05C382.873 204.05 383.073 204.15 383.073 204.15Z" fill="#E3707F"/>
<path d="M338.373 154.45C349.639 154.45 358.773 154.316 358.773 154.15C358.773 153.984 349.639 153.85 338.373 153.85C327.106 153.85 317.973 153.984 317.973 154.15C317.973 154.316 327.106 154.45 338.373 154.45Z" fill="#E3707F"/>
<path d="M386.174 123.65C386.174 123.65 385.574 123.75 384.574 123.85C383.474 123.95 381.974 123.95 380.174 124.15C376.474 124.35 371.274 124.65 365.674 125.05C359.974 125.45 354.874 125.95 351.174 126.35C349.374 126.55 347.874 126.65 346.774 126.75C345.774 126.85 345.174 126.85 345.174 126.85C345.174 126.85 345.774 126.75 346.774 126.55C347.774 126.35 349.274 126.15 351.174 125.95C354.874 125.45 359.974 124.95 365.674 124.55C371.374 124.15 376.474 123.85 380.274 123.75C382.174 123.65 383.674 123.65 384.674 123.65C385.574 123.65 386.174 123.65 386.174 123.65Z" fill="#E3707F"/>
<path d="M382.773 107.75L403.573 164.25L417.573 136.45L435.873 140.15L425.373 184.05C424.273 191.85 418.373 198.05 410.673 199.65C404.273 200.95 397.573 198.85 393.173 193.95L386.673 186.75L382.773 107.75Z" fill="#00B4FF"/>
<path d="M403.174 199.95C403.174 199.95 403.074 199.45 402.974 198.55C402.874 197.65 402.874 196.35 402.774 194.65C402.674 191.35 402.574 186.85 402.774 181.85C402.874 176.85 403.274 172.35 403.574 169.05C403.774 167.45 403.874 166.15 403.974 165.15C404.074 164.25 404.174 163.75 404.174 163.75C404.174 163.75 404.174 164.25 404.174 165.15C404.074 166.15 404.074 167.45 403.974 169.05C403.774 172.35 403.474 176.85 403.374 181.85C403.274 186.85 403.174 191.35 403.274 194.65C403.274 196.25 403.274 197.55 403.274 198.55C403.274 199.45 403.274 199.95 403.174 199.95Z" fill="#E3707F"/>
<path d="M430.039 165.463C430.098 165.308 425.082 163.259 418.835 160.886C412.588 158.513 407.476 156.715 407.417 156.87C407.358 157.025 412.375 159.074 418.622 161.447C424.869 163.82 429.98 165.618 430.039 165.463Z" fill="#E3707F"/>
<path d="M440.273 133.75L431.473 140.15L421.773 137.75L424.073 135.25L440.273 133.75Z" fill="#FFBE9D"/>
<path d="M471.875 55.1499L401.075 85.8499L401.375 106.35L393.375 114.75L420.475 138.95L428.375 130.15L449.375 127.15L471.875 55.1499Z" fill="#FAFAFA"/>
<path d="M471.875 55.1499C471.275 57.1499 462.675 84.8499 449.575 127.25V127.35H449.475C442.775 128.25 435.675 129.25 428.375 130.35L428.575 130.25C426.075 133.05 423.375 136.05 420.675 139.15L420.475 139.35L420.275 139.15C415.875 135.15 411.175 131.05 406.475 126.75C401.975 122.75 397.575 118.75 393.175 114.85L392.975 114.65L393.175 114.45C395.875 111.65 398.575 108.85 401.175 106.05L401.075 106.25C400.975 99.1499 400.875 92.2499 400.775 85.7499V85.5499L400.875 85.4499C442.475 67.7499 469.975 55.9499 471.875 55.1499C469.875 56.0499 442.575 67.9499 401.075 86.0499L401.175 85.8499C401.275 92.4499 401.375 99.2499 401.575 106.35V106.45L401.475 106.55C398.875 109.35 396.175 112.15 393.475 114.95V114.55C397.775 118.45 402.275 122.35 406.775 126.35C411.475 130.55 416.175 134.75 420.575 138.75H420.175C422.875 135.75 425.575 132.75 428.075 129.95L428.175 129.85H428.275C435.575 128.85 442.675 127.85 449.375 126.95L449.175 127.15C462.575 84.7499 471.275 57.1499 471.875 55.1499Z" fill="#251A51"/>
<path d="M443.152 105.421C447.238 100.85 446.844 93.8329 442.273 89.7476C437.703 85.6623 430.685 86.0559 426.6 90.6267C422.515 95.1975 422.908 102.215 427.479 106.3C432.05 110.385 439.067 109.992 443.152 105.421Z" fill="#251A51"/>
<path d="M453.58 76.7926C463.795 64.9641 471.975 55.2874 471.85 55.1791C471.724 55.0708 463.341 64.5719 453.126 76.4004C442.91 88.229 434.731 97.9057 434.856 98.014C434.981 98.1222 443.364 88.6211 453.58 76.7926Z" fill="#251A51"/>
<path d="M253.574 300.05C246.274 293.55 245.674 282.45 252.074 275.15L385.374 124.25L411.774 147.85L278.674 298.55C272.174 305.95 260.874 306.55 253.574 300.05Z" fill="#E3707F"/>
<path d="M392.909 111.585L383.246 122.396L414.338 150.185L424 139.374L392.909 111.585Z" fill="#E3707F"/>
<path opacity="0.3" d="M385.374 124.25L411.774 147.95L408.274 151.95L384.074 125.75L385.374 124.25Z" fill="black"/>
<path opacity="0.5" d="M401.373 119.25V138.15L405.273 142.05V122.65L401.373 119.25Z" fill="white"/>
<path d="M433.174 110.45L442.874 114.35L444.974 122.15L440.274 133.75L423.174 136.25L428.174 131.15L427.574 126.65C427.574 126.65 422.774 125.15 422.674 124.45C422.574 123.75 423.274 121.25 423.974 121.15C424.674 121.05 429.674 122.85 429.674 122.85C429.674 122.85 423.774 118.15 423.874 117.35C424.074 116.55 424.674 114.65 425.874 114.45C427.074 114.25 436.674 118.75 436.674 118.75L438.274 122.25L439.674 116.55C439.574 116.65 431.074 114.25 433.174 110.45Z" fill="#FFBE9D"/>
<path d="M431.874 128.75C431.974 128.75 432.074 128.45 432.174 127.75C432.274 127.15 432.174 126.25 431.874 125.35C431.574 124.45 430.974 123.75 430.474 123.35C429.974 122.95 429.674 122.75 429.574 122.85C429.474 122.95 430.774 123.85 431.374 125.55C432.174 127.15 431.774 128.75 431.874 128.75Z" fill="#EB996E"/>
<path d="M436.474 127.05C436.574 127.05 436.174 126.15 436.074 124.55C435.974 123.75 435.974 122.75 435.574 121.75C435.374 121.25 435.074 120.65 434.674 120.25C434.274 119.75 433.674 119.45 433.074 119.25C430.774 118.45 428.674 117.75 427.174 117.25C425.674 116.75 424.674 116.45 424.674 116.55C424.674 116.65 425.574 117.05 427.074 117.55C428.574 118.15 430.674 118.85 432.974 119.65C433.574 119.85 434.074 120.15 434.374 120.55C434.774 120.95 434.974 121.35 435.174 121.85C435.574 122.85 435.574 123.75 435.774 124.55C435.974 126.15 436.474 127.05 436.474 127.05Z" fill="#EB996E"/>
<path d="M438.769 125.295C438.932 125.268 438.926 124.407 438.755 123.372C438.584 122.336 438.313 121.519 438.149 121.546C437.986 121.573 437.992 122.434 438.163 123.469C438.334 124.505 438.605 125.322 438.769 125.295Z" fill="#EB996E"/>
<path d="M365.974 194.55C365.974 194.55 381.574 189.25 381.874 189.05C382.274 188.85 392.874 183.95 391.974 181.05C391.974 181.05 394.974 178.65 394.074 177.35L389.774 179.15C389.774 179.15 395.774 175.25 394.774 171.75C394.774 171.75 395.374 170.55 394.774 169.85C394.174 169.15 390.974 171.35 388.674 172.75L384.174 174.55C382.174 175.35 380.074 175.45 378.074 174.85C377.074 174.55 376.474 173.55 376.774 172.55C377.274 170.35 377.874 166.95 376.474 162.05C376.474 162.05 375.374 162.45 374.574 164.85C373.574 167.95 370.474 170.25 369.374 172.35C368.774 173.55 367.674 175.35 366.974 176.75C366.374 177.85 365.274 178.75 364.074 179.05L365.174 187.15L365.974 194.55Z" fill="#FFBE9D"/>
<path d="M382.875 179.95C382.875 179.95 383.075 179.95 383.375 179.75C383.675 179.65 384.175 179.45 384.775 179.15C385.975 178.65 387.575 177.85 389.175 176.75C390.875 175.65 392.275 174.55 393.175 173.65C393.675 173.25 394.075 172.85 394.275 172.55C394.575 172.25 394.675 172.15 394.675 172.15C394.675 172.15 394.475 172.25 394.275 172.55C393.975 172.75 393.575 173.15 393.075 173.55C392.075 174.35 390.675 175.45 389.075 176.55C387.475 177.65 385.875 178.45 384.675 179.05C384.075 179.35 383.575 179.55 383.275 179.75C382.975 179.75 382.875 179.85 382.875 179.95Z" fill="#EB996E"/>
<path d="M383.074 182.95C383.074 182.95 383.574 182.85 384.174 182.55C384.874 182.25 385.774 181.85 386.774 181.25C387.774 180.65 388.574 180.05 389.174 179.65C389.774 179.15 390.074 178.85 390.074 178.85C390.074 178.75 388.574 179.85 386.674 181.05C385.674 181.65 384.774 182.15 384.174 182.45C383.474 182.75 383.074 182.95 383.074 182.95Z" fill="#EB996E"/>
<path d="M382.975 186.75C382.975 186.75 383.575 186.55 384.475 186.15C385.375 185.75 386.575 185.15 387.775 184.35C388.975 183.55 390.075 182.75 390.875 182.15C391.575 181.55 392.075 181.15 392.075 181.05C392.075 181.05 391.575 181.35 390.775 181.95C389.975 182.55 388.975 183.35 387.675 184.05C386.475 184.85 385.275 185.45 384.375 185.95C383.475 186.45 382.975 186.65 382.975 186.75Z" fill="#EB996E"/>
<path d="M365.973 194.55L308.273 211.95C294.973 205.95 286.873 192.05 288.173 177.55C289.973 157.15 292.373 130.35 293.073 123.55C294.273 112.35 307.173 104.05 307.173 104.05C324.873 105.25 320.973 140.25 320.973 140.25L313.873 180.55L364.073 178.55L365.973 194.55Z" fill="#00B4FF"/>
<path d="M313.773 180.45C313.773 180.45 313.773 179.85 313.873 178.85C313.973 177.85 314.073 176.35 314.273 174.45C314.773 170.75 315.473 165.75 316.573 160.15C317.573 154.55 318.673 149.55 319.473 145.95C319.873 144.15 320.173 142.65 320.473 141.65C320.773 140.65 320.873 140.05 320.873 140.15C320.873 140.15 320.773 140.75 320.673 141.75C320.473 142.85 320.173 144.35 319.873 146.05C319.173 149.65 318.173 154.65 317.173 160.25C316.173 165.85 315.273 170.85 314.773 174.55C314.573 176.35 314.273 177.75 314.173 178.85C313.873 179.85 313.873 180.45 313.773 180.45Z" fill="#251A51"/>
<path d="M363.973 178.45C363.973 178.45 363.773 178.45 363.473 178.55C363.073 178.55 362.573 178.65 361.873 178.65C360.473 178.75 358.573 178.85 356.073 179.05C351.173 179.35 344.473 179.55 336.973 179.75C329.573 179.95 322.873 180.15 317.873 180.25C315.473 180.35 313.573 180.35 312.073 180.45C311.473 180.45 310.873 180.45 310.473 180.45C310.073 180.45 309.973 180.45 309.873 180.45C309.873 180.45 310.073 180.45 310.373 180.35C310.773 180.35 311.273 180.25 311.973 180.25C313.373 180.15 315.273 180.05 317.773 179.85C322.673 179.55 329.373 179.35 336.873 179.15C344.273 178.95 350.973 178.75 355.973 178.65C358.373 178.55 360.273 178.55 361.773 178.45C362.373 178.45 362.973 178.45 363.373 178.45C363.773 178.45 363.973 178.45 363.973 178.45Z" fill="#251A51"/>
<path d="M315.973 165.15C315.973 165.15 315.573 165.15 314.873 165.15C314.073 165.05 313.073 165.05 311.973 164.95C309.573 164.75 306.173 164.55 302.473 164.35C298.773 164.15 295.373 164.15 292.973 164.15C291.873 164.15 290.873 164.15 290.073 164.15C289.373 164.15 288.973 164.15 288.973 164.05C288.973 164.05 289.373 163.95 290.073 163.95C290.773 163.85 291.773 163.85 292.973 163.85C295.373 163.75 298.773 163.75 302.473 163.95C306.173 164.15 309.573 164.35 311.973 164.65C313.173 164.75 314.173 164.95 314.873 165.05C315.573 165.05 315.973 165.15 315.973 165.15Z" fill="#E3707F"/>
<path d="M320.864 137.454C320.871 137.289 314.346 136.881 306.29 136.543C298.234 136.205 291.697 136.066 291.69 136.232C291.683 136.397 298.208 136.805 306.265 137.143C314.321 137.48 320.857 137.62 320.864 137.454Z" fill="#E3707F"/>
<path d="M293.574 198.65C293.574 198.65 293.774 198.35 294.174 197.75C294.574 197.15 295.174 196.35 295.874 195.35C297.374 193.35 299.674 190.85 302.474 188.25C305.274 185.65 308.074 183.65 310.174 182.35C311.174 181.65 312.074 181.15 312.674 180.85C313.274 180.55 313.674 180.35 313.674 180.35C313.674 180.45 312.374 181.25 310.374 182.65C308.374 184.05 305.674 186.15 302.874 188.65C300.074 191.15 297.774 193.75 296.174 195.55C294.574 197.45 293.674 198.65 293.574 198.65Z" fill="#E3707F"/>
<path d="M334.994 204.081C335.158 204.055 334.433 198.595 333.374 191.885C332.316 185.174 331.325 179.756 331.162 179.781C330.998 179.807 331.723 185.268 332.782 191.978C333.84 198.688 334.831 204.107 334.994 204.081Z" fill="#E3707F"/>
<g opacity="0.3">
<path opacity="0.3" d="M307.874 211.95L372.474 192.35C367.674 198.75 358.174 204.65 351.074 208.35C343.974 212.05 336.374 214.65 328.774 217.15C324.674 218.55 320.474 219.95 316.074 219.95C311.674 219.95 307.474 218.65 305.174 214.95L307.874 211.95Z" fill="black"/>
</g>
<path d="M319.074 45.7501C320.274 42.9501 319.174 39.3501 316.674 37.6501C314.174 35.9501 310.474 36.1501 308.074 38.0501C305.674 39.9501 304.774 43.4501 305.574 46.3501C306.674 49.8501 310.274 52.3501 313.974 52.1501C317.674 51.8501 320.874 48.8501 321.474 45.2501" fill="#251A51"/>
<path d="M328.673 28.85V33.55L327.673 104.25C327.573 112.45 334.473 119.05 343.273 119.15C352.173 119.25 359.573 112.55 359.773 104.25C360.073 95.55 360.473 86.35 360.473 86.35C360.473 86.35 371.773 84.75 374.473 70.25C375.873 63.05 375.773 51.05 375.473 41.35C375.173 32.55 367.573 25.75 358.873 26.45L328.673 28.85Z" fill="#FFBE9D"/>
<path d="M370.573 49.9502C370.573 50.9502 369.773 51.7502 368.673 51.7502C367.673 51.7502 366.773 50.9502 366.773 50.0502C366.773 49.0502 367.573 48.2502 368.673 48.2502C369.673 48.1502 370.573 48.9502 370.573 49.9502Z" fill="#251A51"/>
<path d="M372.774 47.5501C372.574 47.7501 371.174 46.6501 369.074 46.6501C367.074 46.5501 365.574 47.5501 365.374 47.3501C365.274 47.2501 365.474 46.8501 366.174 46.3501C366.774 45.8501 367.874 45.4501 369.174 45.5501C370.474 45.5501 371.474 46.0501 372.074 46.5501C372.674 46.9501 372.874 47.4501 372.774 47.5501Z" fill="#251A51"/>
<path d="M350.773 49.75C350.773 50.75 349.973 51.55 348.873 51.55C347.873 51.55 346.973 50.75 346.973 49.85C346.973 48.85 347.773 48.05 348.873 48.05C349.973 47.95 350.773 48.75 350.773 49.75Z" fill="#251A51"/>
<path d="M352.873 47.3499C352.673 47.5499 351.273 46.4499 349.173 46.4499C347.173 46.3499 345.673 47.3499 345.473 47.1499C345.373 47.0499 345.573 46.6499 346.273 46.1499C346.873 45.6499 347.973 45.2499 349.273 45.3499C350.573 45.3499 351.573 45.8499 352.173 46.3499C352.773 46.8499 352.973 47.2499 352.873 47.3499Z" fill="#251A51"/>
<path d="M359.773 62.5501C359.773 62.4501 361.073 62.2501 363.073 62.0501C363.573 62.0501 364.073 61.9501 364.173 61.5501C364.273 61.1501 364.073 60.6501 363.873 60.0501C363.373 58.7501 362.973 57.4501 362.473 56.0501C360.473 50.4501 359.073 45.7501 359.373 45.6501C359.573 45.5501 361.373 50.0501 363.373 55.7501C363.873 57.1501 364.273 58.4501 364.773 59.7501C364.973 60.3501 365.273 61.0501 364.973 61.7501C364.873 62.1501 364.473 62.4501 364.073 62.4501C363.773 62.5501 363.473 62.5501 363.173 62.5501C361.073 62.6501 359.773 62.6501 359.773 62.5501Z" fill="#251A51"/>
<path d="M360.574 86.4499C360.574 86.4499 350.674 86.8499 341.174 80.6499C341.174 80.6499 345.674 90.8499 360.374 89.8499L360.574 86.4499Z" fill="#EB996E"/>
<path d="M358.874 67.3501C358.174 66.3501 356.874 65.8501 355.674 65.9501C354.774 66.0501 353.874 66.4501 353.374 67.1501C352.774 67.8501 352.674 68.8501 353.174 69.5501C353.674 70.3501 354.874 70.5501 355.774 70.2501C356.774 70.0501 357.574 69.3501 358.374 68.7501C358.574 68.5501 358.874 68.4501 358.974 68.1501C359.074 67.9501 359.074 67.6501 358.874 67.3501Z" fill="#EB996E"/>
<path d="M353.873 63.75C354.173 63.75 354.173 65.95 355.973 67.55C357.773 69.15 360.173 68.95 360.173 69.25C360.173 69.35 359.673 69.65 358.673 69.65C357.673 69.65 356.273 69.35 355.173 68.35C354.073 67.35 353.573 66.05 353.573 65.15C353.473 64.25 353.673 63.75 353.873 63.75Z" fill="#251A51"/>
<path d="M353.674 39.4501C353.474 39.9501 351.474 39.6501 349.074 39.8501C346.674 40.0501 344.774 40.6501 344.474 40.1501C344.374 39.9501 344.674 39.4501 345.474 38.8501C346.274 38.3501 347.474 37.8501 348.874 37.7501C350.274 37.6501 351.574 37.8501 352.474 38.2501C353.274 38.7501 353.774 39.2501 353.674 39.4501Z" fill="#251A51"/>
<path d="M372.172 41.6502C371.772 42.0502 370.472 41.5502 368.772 41.5502C367.072 41.4502 365.672 41.7502 365.372 41.2502C365.272 41.0502 365.472 40.5502 366.072 40.1502C366.672 39.7502 367.772 39.4502 368.872 39.4502C369.972 39.5502 370.972 39.9502 371.572 40.4502C372.172 40.9502 372.372 41.4502 372.172 41.6502Z" fill="#251A51"/>
<path d="M347.073 24.25C350.973 29.45 346.873 36.85 342.373 41.45C337.873 46.15 332.373 51.55 333.573 57.95C334.973 65.35 345.173 70.05 343.573 77.45C343.073 80.15 340.873 82.45 340.873 85.15C340.873 90.15 347.273 92.55 349.173 97.15C351.673 103.45 344.773 109.75 344.673 116.55C344.573 120.45 346.773 124.05 346.873 127.85C347.073 135.75 337.773 141.55 330.073 139.65C322.373 137.75 317.173 130.25 315.473 122.45C313.773 114.75 316.373 103.85 317.573 96.05L304.373 99.25C301.873 96.85 305.273 94.35 305.873 91.05C307.273 82.55 312.873 75.45 315.473 67.25C317.773 60.15 317.773 52.45 318.773 45.05C319.773 37.65 322.073 29.85 327.773 24.95C333.473 20.05 343.273 19.45 347.873 25.35" fill="#251A51"/>
<path d="M317.273 48.2498C317.273 48.1498 319.473 48.8498 323.173 48.4498C326.773 48.0498 331.673 46.2498 335.873 42.6498C340.173 39.0498 343.073 34.9498 345.173 31.9498C346.173 30.4498 346.973 29.2498 347.573 28.3498C348.173 27.5498 348.473 27.0498 348.473 27.0498C348.473 27.0498 348.273 27.5498 347.673 28.4498C347.173 29.3498 346.373 30.5498 345.373 32.1498C343.373 35.1498 340.473 39.4498 336.073 43.0498C331.773 46.6498 326.773 48.4498 323.073 48.7498C321.273 48.9498 319.773 48.7498 318.673 48.6498C318.173 48.5498 317.773 48.4498 317.473 48.3498C317.373 48.3498 317.273 48.2498 317.273 48.2498Z" fill="#00B4FF"/>
<path d="M334.673 50.2502C334.673 50.2502 333.973 50.9502 332.573 51.7502C331.173 52.5502 329.073 53.3502 326.573 53.7502C324.073 54.1502 321.873 53.9502 320.273 53.5502C318.673 53.2502 317.773 52.7502 317.773 52.7502C317.773 52.6502 318.773 52.9502 320.273 53.2502C321.873 53.4502 324.073 53.6502 326.373 53.2502C328.773 52.8502 330.873 52.1502 332.273 51.4502C333.773 50.7502 334.573 50.1502 334.673 50.2502Z" fill="#00B4FF"/>
<path d="M382.174 40.4502C382.174 40.5502 379.974 40.6502 377.574 39.2502C375.274 37.8502 374.174 35.8502 374.274 35.8502C374.374 35.7502 375.574 37.5502 377.774 38.8502C380.074 40.0502 382.174 40.2502 382.174 40.4502Z" fill="#00B4FF"/>
<path d="M381.273 45.3501C381.273 45.4501 380.073 45.8501 378.473 45.4501C376.973 45.0501 375.973 44.1501 376.073 44.0501C376.173 43.9501 377.173 44.5501 378.673 44.9501C379.973 45.2501 381.173 45.1501 381.273 45.3501Z" fill="#00B4FF"/>
<path d="M318.374 51.4497C318.274 51.4497 317.674 49.3497 317.974 46.6497C318.174 43.9497 319.074 41.8497 319.274 41.9497C319.374 42.0497 318.774 44.0497 318.574 46.6497C318.274 49.2497 318.574 51.4497 318.374 51.4497Z" fill="#E3707F"/>
<path d="M168.604 235.15C168.604 240.25 171.604 385.95 171.604 385.95L129.604 385.75L122.304 294.85L120.404 385.75H80.1035L84.5035 230.45L168.604 235.15Z" fill="#00B4FF"/>
<path d="M44.8047 194.25L23.3047 162.25L39.3047 149.25L66.2047 174.25C66.2047 174.25 77.8047 109.25 89.2047 105.35L88.3047 206.15C72.9047 213.55 54.3047 208.45 44.8047 194.25Z" fill="#251A51"/>
<path d="M0.904297 43.5498L5.4043 105.85L80.2043 249.15L123.404 224.15L49.7043 84.0498L0.904297 43.5498Z" fill="#E3707F"/>
<g opacity="0.7">
<path opacity="0.7" d="M50.5039 84.3498C49.3039 86.5498 46.0039 87.1498 44.1039 85.6498C45.2039 90.1498 43.2039 95.2498 39.3039 97.6498C35.4039 100.15 29.9039 99.8498 26.4039 96.9498C25.8039 101.45 22.6039 105.55 18.4039 107.25C14.2039 108.95 9.00391 108.25 5.50391 105.35L1.00391 43.5498L50.5039 84.3498Z" fill="white"/>
</g>
<path d="M2.7043 68.6498C2.7043 68.6498 12.8043 75.0498 20.9043 60.1498L0.904297 43.5498L2.7043 68.6498Z" fill="#E3707F"/>
<path d="M96.705 237.45C96.605 237.55 80.705 206.15 61.205 167.35C41.705 128.55 26.005 97.15 26.205 97.05C26.305 96.95 42.205 128.35 61.705 167.15C81.105 205.95 96.805 237.45 96.705 237.45Z" fill="white"/>
<path d="M114.603 226.75C114.503 226.85 98.6035 195.45 79.1035 156.65C59.6035 117.85 43.9035 86.4498 44.1035 86.3498C44.2035 86.2498 60.1035 117.65 79.6035 156.45C99.1035 195.15 114.803 226.65 114.603 226.75Z" fill="white"/>
<path d="M26.7043 127.05L17.0043 130.95L14.9043 138.75L18.2043 151.75L26.0043 160.05L31.3043 155.65L31.6043 147.65L32.2043 143.15C32.2043 143.15 37.0043 141.65 37.1043 140.95C37.2043 140.25 36.5043 137.75 35.8043 137.65C35.1043 137.55 30.1043 139.35 30.1043 139.35C30.1043 139.35 36.0043 134.65 35.9043 133.85C35.7043 133.05 35.1043 131.15 33.9043 130.95C32.7043 130.75 23.1043 135.25 23.1043 135.25L21.5043 138.75L20.1043 133.05C20.3043 133.25 28.8043 130.85 26.7043 127.05Z" fill="#B78876"/>
<path d="M27.9039 145.35C27.8039 145.35 27.7039 145.05 27.6039 144.35C27.5039 143.75 27.6039 142.85 27.9039 141.95C28.2039 141.05 28.8039 140.35 29.3039 139.95C29.8039 139.55 30.1039 139.35 30.2039 139.45C30.3039 139.55 29.0039 140.45 28.4039 142.15C27.7039 143.75 28.1039 145.35 27.9039 145.35Z" fill="#AA6550"/>
<path d="M23.305 143.65C23.205 143.65 23.605 142.75 23.705 141.15C23.805 140.35 23.805 139.35 24.205 138.35C24.405 137.85 24.705 137.25 25.105 136.85C25.505 136.35 26.105 136.05 26.705 135.85C29.005 135.05 31.105 134.35 32.605 133.85C34.105 133.35 35.105 133.05 35.105 133.15C35.105 133.25 34.205 133.65 32.705 134.15C31.205 134.75 29.105 135.45 26.805 136.25C26.205 136.45 25.705 136.75 25.405 137.15C25.005 137.55 24.805 137.95 24.605 138.45C24.205 139.45 24.205 140.35 24.005 141.15C23.905 142.75 23.405 143.65 23.305 143.65Z" fill="#AA6550"/>
<path d="M21.753 140.097C21.924 139.061 21.93 138.2 21.7666 138.173C21.6031 138.146 21.332 138.964 21.1611 139.999C20.9901 141.034 20.9841 141.895 21.1475 141.922C21.311 141.949 21.5821 141.132 21.753 140.097Z" fill="#AA6550"/>
<path d="M152.305 86.7496L143.805 83.8496L112.005 91.1496L109.205 93.4496L92.3047 249.15C99.5047 256.55 122.305 258.05 135.205 255.85L152.305 86.7496Z" fill="#E3707F"/>
<path d="M152.804 87.0498L148.704 85.0498C148.704 85.0498 139.704 124.65 139.704 150.85C139.704 177.05 134.004 271.95 134.004 271.95L176.904 270.85V165.95L152.804 87.0498Z" fill="#251A51"/>
<path d="M92.3035 273.45L76.1035 268.65L81.8035 191.95L80.7035 136.35L89.2035 105.35L109.304 92.8496C109.304 92.8496 93.4035 264.25 92.3035 273.45Z" fill="#251A51"/>
<path d="M126.205 105.85C118.105 105.15 111.905 98.3497 111.905 90.2497L112.005 76.3497C112.005 76.3497 99.1045 74.3497 99.0045 61.4497C98.8045 48.5497 101.105 19.0497 101.105 19.0497C116.005 12.6497 133.205 14.8497 146.005 24.6497L147.905 26.1497L143.205 91.3497C142.605 100.15 134.905 106.65 126.205 105.85Z" fill="#B78876"/>
<path d="M112.004 76.1496C112.004 76.1496 120.104 76.8496 128.804 71.3496C128.804 71.3496 124.804 80.6496 112.004 79.4496V76.1496Z" fill="#AA6550"/>
<path d="M146.305 39.4496C146.505 39.3496 155.105 36.8496 154.905 45.6496C154.605 54.4496 145.805 52.3496 145.805 52.0496C145.805 51.8496 146.305 39.4496 146.305 39.4496Z" fill="#B78876"/>
<path d="M148.605 48.8498C148.605 48.8498 148.705 48.9498 149.005 49.0498C149.205 49.1498 149.705 49.2498 150.105 49.1498C151.005 48.8498 151.905 47.3498 152.005 45.8498C152.005 45.0498 151.905 44.2498 151.605 43.6498C151.405 42.9498 151.005 42.5498 150.505 42.4498C150.005 42.3498 149.705 42.5498 149.605 42.8498C149.505 43.0498 149.505 43.2498 149.505 43.2498C149.505 43.2498 149.305 43.0498 149.405 42.7498C149.405 42.5498 149.605 42.3498 149.805 42.2498C150.005 42.0498 150.305 42.0498 150.705 42.0498C151.405 42.1498 152.005 42.7498 152.305 43.4498C152.605 44.1498 152.805 45.0498 152.805 45.9498C152.705 47.7498 151.705 49.3498 150.405 49.6498C149.805 49.7498 149.305 49.5498 149.005 49.3498C148.605 49.0498 148.605 48.8498 148.605 48.8498Z" fill="#AA6550"/>
<path d="M105.305 38.8499C105.305 39.8499 106.105 40.6499 107.105 40.7499C108.105 40.8499 109.005 40.0499 109.005 39.0499C109.005 38.0499 108.205 37.2499 107.205 37.1499C106.205 37.1499 105.305 37.8499 105.305 38.8499Z" fill="#251A51"/>
<path d="M103.505 37.15C103.705 37.35 105.105 36.35 107.105 36.35C109.105 36.35 110.505 37.35 110.705 37.15C110.805 37.05 110.605 36.65 109.905 36.15C109.305 35.65 108.205 35.25 107.005 35.25C105.805 35.25 104.705 35.75 104.105 36.15C103.605 36.65 103.405 37.05 103.505 37.15Z" fill="#251A51"/>
<path d="M124.705 39.6497C124.705 40.6497 125.505 41.4497 126.505 41.5497C127.505 41.6497 128.405 40.8497 128.405 39.8497C128.405 38.8497 127.605 38.0497 126.605 37.9497C125.605 37.9497 124.705 38.7497 124.705 39.6497Z" fill="#251A51"/>
<path d="M122.906 37.5499C123.106 37.7499 124.506 36.7499 126.506 36.7499C128.506 36.7499 129.906 37.7499 130.106 37.5499C130.206 37.4499 130.006 37.0499 129.306 36.5499C128.706 36.0499 127.606 35.6499 126.406 35.6499C125.206 35.6499 124.106 36.1499 123.506 36.5499C123.006 36.9499 122.806 37.4499 122.906 37.5499Z" fill="#251A51"/>
<path d="M115.705 52.1501C115.705 52.0501 114.505 51.8501 112.505 51.5501C112.005 51.4501 111.505 51.3501 111.405 51.0501C111.305 50.6501 111.505 50.1501 111.705 49.5501C112.205 48.3501 112.705 47.0501 113.205 45.7501C115.305 40.2501 116.805 35.7501 116.605 35.6501C116.405 35.5501 114.505 39.9501 112.405 45.4501C111.905 46.7501 111.405 48.0501 111.005 49.3501C110.805 49.9501 110.505 50.5501 110.705 51.3501C110.805 51.7501 111.205 52.0501 111.505 52.0501C111.805 52.1501 112.105 52.1501 112.405 52.1501C114.505 52.2501 115.705 52.2501 115.705 52.1501Z" fill="#251A51"/>
<path d="M122.406 29.7498C122.606 30.2498 124.606 30.0498 126.906 30.3498C129.206 30.5498 131.106 31.2498 131.406 30.7498C131.506 30.5498 131.206 30.0498 130.506 29.4498C129.806 28.9498 128.606 28.4498 127.206 28.2498C125.806 28.0498 124.506 28.3498 123.706 28.6498C122.706 29.0498 122.306 29.5498 122.406 29.7498Z" fill="#251A51"/>
<path d="M104.205 31.4496C104.505 31.8496 105.905 31.4496 107.505 31.4496C109.105 31.3496 110.505 31.7496 110.805 31.2496C110.905 31.0496 110.705 30.5496 110.105 30.1496C109.505 29.7496 108.505 29.3496 107.405 29.4496C106.305 29.4496 105.305 29.8496 104.705 30.3496C104.205 30.7496 104.105 31.2496 104.205 31.4496Z" fill="#251A51"/>
<path d="M94.8037 10.9497C94.7037 9.34974 95.3037 7.64975 96.6037 6.74975C97.9037 5.84975 99.9037 5.84975 101.004 7.04975C100.404 4.94975 102.204 2.44975 104.404 2.24975C106.504 2.14975 108.304 3.74975 110.304 4.24975C112.304 4.74975 114.404 4.34975 116.304 3.54975C118.204 2.74975 120.004 1.74975 121.904 1.04975C125.904 -0.450255 130.504 -0.250255 134.404 1.54975C138.304 3.34975 141.404 6.74975 142.904 10.7497C145.704 9.84975 148.904 11.2497 150.604 13.6497C152.304 16.0497 152.804 19.1497 152.404 22.0497C152.204 24.0497 151.604 25.9497 150.904 27.8497C150.904 28.0497 150.904 28.1497 150.904 28.3497C150.804 35.4497 150.004 43.7497 146.904 43.7497C141.604 43.8497 142.904 33.9497 142.904 33.9497C136.404 31.4497 138.804 21.7497 137.204 20.3497C135.604 18.8497 132.204 15.4497 118.704 22.3497C113.504 25.0497 106.504 24.9497 102.704 24.0497C102.604 24.0497 102.504 24.0497 102.404 23.9497H102.304H102.204C101.004 23.6497 99.8037 23.1497 98.7037 22.4497C97.5037 21.6497 96.4037 20.6497 95.8037 19.2497C95.3037 17.8497 95.5037 16.2497 96.5037 15.2497C95.7037 14.0497 94.9037 12.5497 94.8037 10.9497Z" fill="#251A51"/>
<path d="M114.103 58.2497C114.403 59.0497 114.703 59.8497 115.203 60.4497C115.703 61.1497 116.503 61.6497 117.303 61.6497C118.203 61.6497 119.103 61.1497 119.603 60.4497C120.103 59.7497 120.303 58.7497 120.203 57.8497C120.203 57.0497 119.803 56.0497 119.003 55.9497C118.703 55.9497 118.303 56.0497 118.003 56.1497C116.603 56.7497 115.203 57.2497 113.803 57.8497" fill="#AA6550"/>
<path d="M115.804 61.7499C115.804 61.6499 116.804 61.9499 118.104 61.4499C118.704 61.1499 119.404 60.6499 119.804 59.8499C120.204 59.0499 120.304 58.0499 119.904 57.0499C119.804 56.8499 119.704 56.6499 119.504 56.4499C119.304 56.2499 119.404 56.2499 119.204 56.3499C119.004 56.3499 118.704 56.5499 118.504 56.6499C118.304 56.7499 118.004 56.8499 117.804 56.9499C116.904 57.3499 116.104 57.6499 115.404 57.8499C114.004 58.3499 113.104 58.6499 113.104 58.5499C113.104 58.4499 113.904 58.0499 115.204 57.3499C115.904 57.0499 116.704 56.6499 117.604 56.2499C117.804 56.1499 118.104 56.0499 118.304 55.9499C118.504 55.8499 118.704 55.7499 119.104 55.6499C119.304 55.6499 119.504 55.5499 119.704 55.6499C119.904 55.7499 120.104 55.8499 120.204 56.0499C120.404 56.3499 120.604 56.5499 120.704 56.8499C121.204 58.0499 121.104 59.2499 120.604 60.2499C120.104 61.2499 119.204 61.7499 118.404 61.9499C117.604 62.1499 117.004 62.1499 116.604 62.0499C115.904 61.9499 115.704 61.7499 115.804 61.7499Z" fill="#251A51"/>
<path d="M137.803 19.0499C137.803 19.0499 137.903 18.4499 137.803 17.4499C137.703 16.4499 137.103 15.0499 135.803 13.8499C134.503 12.6499 132.403 11.8499 130.003 11.9499C127.603 11.9499 125.103 12.7499 122.503 13.6499C121.203 14.0499 119.903 14.4499 118.603 14.7499C117.303 15.0499 116.003 15.1499 114.803 15.2499C112.403 15.3499 110.203 14.9499 108.503 14.4499C106.803 13.9499 105.403 13.2499 104.503 12.7499C104.103 12.5499 103.703 12.2499 103.503 12.1499C103.303 11.9499 103.203 11.9499 103.203 11.9499C103.203 11.9499 103.703 12.2499 104.603 12.6499C105.503 13.1499 106.803 13.7499 108.603 14.2499C110.303 14.7499 112.503 15.0499 114.903 14.9499C116.103 14.9499 117.303 14.7499 118.603 14.4499C119.903 14.1499 121.103 13.7499 122.503 13.3499C125.103 12.4499 127.703 11.6499 130.103 11.6499C132.503 11.6499 134.803 12.4499 136.103 13.7499C137.503 15.0499 138.003 16.5499 138.103 17.5499C138.003 18.5499 137.803 19.0499 137.803 19.0499Z" fill="#00B4FF"/>
<path d="M147.803 40.8495C147.803 40.8495 147.703 40.7495 147.603 40.5495C147.503 40.3495 147.403 40.0495 147.203 39.7495C146.903 39.0495 146.503 37.9495 146.203 36.5495C145.903 35.1495 145.703 33.4495 145.903 31.5495C146.003 29.6495 146.603 27.6495 147.003 25.5495C147.503 23.4495 147.603 21.3495 147.003 19.6495C146.703 18.7495 146.303 18.0495 145.803 17.4495C145.303 16.8495 144.603 16.4495 144.003 16.2495C142.703 15.7495 141.503 15.9495 140.803 16.3495C140.103 16.7495 139.803 17.0495 139.803 17.0495C139.803 17.0495 140.003 16.6495 140.703 16.2495C141.403 15.8495 142.603 15.5495 144.003 16.0495C144.703 16.2495 145.403 16.6495 146.003 17.3495C146.603 17.9495 147.003 18.7495 147.303 19.6495C147.903 21.4495 147.803 23.6495 147.303 25.7495C146.903 27.8495 146.303 29.8495 146.103 31.6495C145.903 33.4495 146.103 35.1495 146.303 36.5495C146.603 37.9495 146.903 39.0495 147.203 39.7495C147.603 40.4495 147.803 40.8495 147.803 40.8495Z" fill="#00B4FF"/>
<path d="M139.004 18.0499C139.004 18.0499 139.004 17.8499 139.004 17.5499C139.004 17.1499 139.004 16.6499 139.104 16.0499C139.104 14.7499 139.204 12.8499 138.504 10.7499C138.204 9.6499 137.604 8.5499 136.804 7.5499C136.004 6.5499 134.804 5.6499 133.404 5.2499C132.004 4.8499 130.404 4.9499 128.804 5.4499C127.204 5.8499 125.704 6.6499 124.204 7.5499C122.704 8.4499 121.204 9.2499 119.604 9.8499C118.004 10.4499 116.404 10.7499 114.904 10.7499C113.404 10.7499 111.904 10.5499 110.604 10.2499C109.304 9.8499 108.104 9.3499 107.104 8.8499C105.104 7.6499 103.804 6.3499 103.004 5.3499C102.604 4.8499 102.304 4.4499 102.204 4.1499C102.004 3.8499 101.904 3.7499 102.004 3.6499C102.004 3.6499 102.104 3.7499 102.304 4.0499C102.504 4.3499 102.804 4.7499 103.204 5.2499C104.004 6.2499 105.404 7.5499 107.404 8.6499C108.404 9.1499 109.604 9.6499 110.804 10.0499C112.104 10.3499 113.504 10.5499 115.004 10.5499C116.504 10.5499 118.104 10.1499 119.604 9.6499C121.104 9.0499 122.604 8.1499 124.104 7.3499C125.604 6.4499 127.204 5.6499 128.804 5.2499C130.404 4.8499 132.104 4.6499 133.604 5.0499C135.104 5.4499 136.304 6.3499 137.204 7.4499C138.104 8.5499 138.604 9.7499 138.904 10.8499C139.504 13.0499 139.404 14.9499 139.404 16.2499C139.404 16.8499 139.304 17.3499 139.304 17.7499C139.104 17.8499 139.004 18.0499 139.004 18.0499Z" fill="#00B4FF"/>
<path d="M152.805 87.0498C152.805 87.0498 183.505 96.8498 185.505 102.15C187.005 106.15 203.105 154.55 206.605 186.05C208.005 198.85 198.505 210.35 185.605 211.55C164.805 213.45 134.705 215.95 134.705 214.25V188.05L173.805 182.25L159.305 139.75L152.805 87.0498Z" fill="#251A51"/>
<path d="M113.505 208.95C117.505 209.95 134.805 209.95 134.805 209.95V189.45C134.805 189.45 127.305 186.25 125.205 184.35C123.105 182.45 117.205 171.45 117.205 171.45C117.205 171.45 113.605 173.45 114.505 177.75C115.505 182.25 117.305 182.85 117.505 184.65L117.705 185.15C118.105 187.65 115.705 189.85 115.705 189.85C115.805 189.85 113.705 188.55 113.105 188.55C109.505 188.15 105.105 190.75 105.105 192.15C105.105 192.15 105.005 196.05 105.105 196.65C105.205 197.25 107.105 198.05 107.105 198.05C107.105 198.05 106.505 200.65 107.105 201.85C107.705 203.05 109.605 203.85 109.605 203.85C109.605 203.85 111.205 208.35 113.505 208.95Z" fill="#B78876"/>
<path d="M117.705 205.65C117.705 205.75 115.805 205.95 113.505 205.45C111.205 204.95 109.605 204.05 109.605 203.95C109.705 203.85 111.405 204.45 113.605 204.95C115.805 205.35 117.705 205.45 117.705 205.65Z" fill="#AA6550"/>
<path d="M116.706 199.45C116.706 199.55 114.606 200.05 112.006 199.65C109.406 199.35 107.406 198.25 107.506 198.15C107.606 198.05 109.506 198.75 112.106 199.15C114.606 199.55 116.606 199.35 116.706 199.45Z" fill="#AA6550"/>
<path d="M116.105 181.85C116.205 181.85 116.805 182.75 117.505 184.35C117.705 184.75 117.805 185.25 117.905 185.75C118.005 186.25 118.105 186.95 117.905 187.55C117.605 188.75 116.605 189.85 115.405 190.55C114.805 190.95 114.105 191.15 113.505 191.35C112.805 191.45 112.205 191.55 111.605 191.55C110.405 191.55 109.405 191.55 108.505 191.55C106.705 191.55 105.705 191.85 105.605 191.75C105.605 191.65 106.605 191.25 108.405 191.15C109.305 191.05 110.405 191.05 111.505 190.95C112.105 190.95 112.705 190.85 113.305 190.75C113.905 190.65 114.505 190.35 115.105 190.05C116.205 189.35 117.105 188.45 117.405 187.35C117.605 186.85 117.505 186.35 117.505 185.85C117.405 185.35 117.305 184.85 117.105 184.45C116.505 182.85 116.005 181.85 116.105 181.85Z" fill="#AA6550"/>
<path d="M174.404 182.25C174.404 182.25 173.904 182.35 172.904 182.55C171.804 182.75 170.404 182.95 168.704 183.25C165.104 183.85 160.204 184.65 154.704 185.45C149.204 186.25 144.304 186.95 140.704 187.45C137.104 187.95 134.904 188.15 134.904 188.05C135.304 187.95 135.804 187.95 136.404 187.75C137.504 187.55 138.904 187.35 140.604 187.05C144.304 186.45 149.204 185.75 154.604 184.85C160.104 184.05 165.004 183.35 168.604 182.85C170.304 182.65 171.804 182.45 172.804 182.25C173.804 182.25 174.304 182.15 174.404 182.25Z" fill="#00B4FF"/>
<path d="M190.904 178.35C190.904 178.45 189.704 178.45 187.804 178.35C185.904 178.25 183.304 178.15 180.404 177.95C179.004 177.85 177.604 177.75 176.404 177.95C175.204 178.25 174.304 178.85 173.804 179.65C173.304 180.45 173.304 181.25 173.404 181.65C173.504 182.15 173.704 182.35 173.704 182.45C173.704 182.45 173.404 182.25 173.204 181.75C173.004 181.25 173.004 180.35 173.404 179.45C173.904 178.55 174.904 177.85 176.204 177.55C177.504 177.25 178.904 177.35 180.304 177.45C183.204 177.65 185.804 177.85 187.704 178.05C189.804 178.15 190.904 178.25 190.904 178.35Z" fill="#00B4FF"/>
<path d="M184.528 185.557C184.575 185.398 182.166 184.545 179.148 183.652C176.129 182.759 173.644 182.164 173.597 182.323C173.55 182.482 175.959 183.334 178.977 184.227C181.996 185.121 184.481 185.716 184.528 185.557Z" fill="#00B4FF"/>
<path d="M173.897 178.915C174.056 178.867 171.145 168.848 167.395 156.539C163.645 144.229 160.477 134.289 160.318 134.337C160.16 134.386 163.071 144.404 166.821 156.714C170.571 169.023 173.739 178.963 173.897 178.915Z" fill="#00B4FF"/>
<path d="M183.205 102.85C183.205 102.95 181.405 103.25 178.705 104.25C176.005 105.25 172.405 107.25 169.205 110.45C166.105 113.65 164.105 117.25 163.105 119.95C162.105 122.65 161.805 124.55 161.705 124.45C161.705 124.45 161.705 123.95 161.805 123.15C161.905 122.35 162.205 121.15 162.705 119.75C163.605 116.95 165.605 113.25 168.805 109.95C172.005 106.75 175.705 104.75 178.505 103.75C179.905 103.25 181.105 102.95 181.905 102.85C182.705 102.95 183.205 102.85 183.205 102.85Z" fill="#00B4FF"/>
<path d="M81.1035 124.25C81.1035 124.25 81.1035 124.45 81.2035 124.95C81.2035 125.45 81.2035 126.15 81.3035 126.95C81.3035 128.75 81.4035 131.25 81.4035 134.25C81.5035 140.45 81.6035 149.05 81.7035 158.45C81.8035 167.85 81.8035 176.45 81.8035 182.65C81.8035 185.75 81.8035 188.15 81.8035 189.95C81.8035 190.75 81.8035 191.45 81.8035 191.95C81.8035 192.45 81.8035 192.65 81.8035 192.65C81.8035 192.65 81.8035 192.45 81.7035 191.95C81.7035 191.45 81.7035 190.75 81.6035 189.95C81.6035 188.15 81.5035 185.65 81.5035 182.65C81.4035 176.45 81.3035 167.85 81.2035 158.45C81.1035 149.05 81.1035 140.55 81.1035 134.25C81.1035 131.15 81.1035 128.75 81.1035 126.95C81.1035 126.15 81.1035 125.45 81.1035 124.95C81.1035 124.45 81.1035 124.25 81.1035 124.25Z" fill="#00B4FF"/>
<path d="M129.404 337.45C129.404 337.45 129.304 337.15 129.204 336.75C129.104 336.25 128.904 335.45 128.704 334.55C128.304 332.65 127.704 329.95 127.004 326.55C125.604 319.75 123.904 310.35 122.204 299.95C120.504 289.55 119.304 280.05 118.504 273.15C118.104 269.75 117.804 266.95 117.604 265.05C117.504 264.15 117.404 263.35 117.404 262.85C117.404 262.35 117.304 262.05 117.404 262.05C117.404 262.05 117.504 262.35 117.504 262.85C117.604 263.45 117.704 264.15 117.804 265.05C118.104 267.05 118.404 269.75 118.904 273.15C119.804 280.05 121.104 289.45 122.804 299.85C124.504 310.25 126.204 319.65 127.404 326.45C128.004 329.85 128.504 332.55 128.904 334.45C129.104 335.35 129.204 336.05 129.304 336.65C129.404 337.15 129.504 337.45 129.404 337.45Z" fill="#251A51"/>
<path d="M160.514 213.443C174.456 212.524 185.75 211.645 185.739 211.48C185.728 211.315 174.417 211.926 160.475 212.845C146.533 213.763 135.239 214.642 135.25 214.808C135.261 214.973 146.572 214.362 160.514 213.443Z" fill="#00B4FF"/>
<path d="M197.858 220.25C196.858 220.05 188.758 257.95 189.858 272.65C190.958 287.35 194.658 386.65 194.658 386.65H277.558C277.558 386.65 291.158 288.75 289.258 273.65C287.458 258.55 277.558 218.85 277.558 218.85L197.858 220.25Z" fill="#251A51"/>
<path d="M187.258 148.65L175.458 95.25L174.758 86.45C174.758 86.45 172.058 66.65 172.058 64.75C172.058 62.55 170.958 61.95 170.158 62.05C168.858 62.15 167.958 63.75 167.958 65.65C167.958 66.35 168.158 76.75 168.158 76.75C168.158 76.75 167.658 75.85 166.058 73.95C164.458 72.05 160.858 70.95 157.058 71.05C153.358 71.25 152.258 71.55 152.258 73.05C152.258 73.65 152.558 74.05 152.958 74.45C153.658 75.05 154.558 75.25 155.458 75.25C161.458 75.05 163.058 78.25 163.058 78.25L163.158 79.45C163.158 79.45 159.458 76.85 156.658 78.05C156.158 78.25 155.858 78.45 155.558 78.75C153.958 78.75 152.458 79.65 151.558 81.05C150.758 82.45 150.658 84.35 151.558 85.75C151.958 86.45 152.658 87.05 153.458 86.95C153.858 86.85 154.158 86.55 154.558 86.25C154.758 86.15 154.858 85.95 155.058 85.85L155.758 89.05C155.758 89.05 157.758 96.15 158.258 99.35L161.458 152.25C161.858 159.55 168.258 165.15 175.558 164.55C183.358 163.95 188.958 156.35 187.258 148.65Z" fill="#FFBE9D"/>
<path d="M173.657 94.5497C172.557 94.8497 171.457 94.0497 170.857 93.1497C170.257 92.1497 169.957 91.0497 169.457 90.0497C167.857 87.0497 164.057 85.6497 162.657 82.5497C162.457 82.1497 162.357 81.5497 162.757 81.2497C163.057 80.9497 163.557 81.1497 163.957 81.3497C167.257 83.1497 170.557 84.9497 173.857 86.7497" fill="#FFBE9D"/>
<path d="M173.858 86.6498C173.858 86.6498 173.558 86.3498 172.858 85.9498C172.158 85.5498 171.158 84.9498 169.958 84.2498C168.658 83.5498 167.258 82.7498 165.658 81.8498C165.258 81.6498 164.858 81.3498 164.458 81.1498C164.058 80.9498 163.558 80.5498 162.858 80.7498C162.458 80.8498 162.258 81.2498 162.258 81.6498C162.258 81.9498 162.358 82.2498 162.458 82.5498C162.658 83.0498 162.958 83.5498 163.358 83.9498C164.758 85.7498 166.558 86.8498 167.758 88.0498C168.458 88.6498 168.958 89.3498 169.358 90.0498C169.758 90.7498 169.958 91.4498 170.258 92.1498C170.758 93.4498 171.758 94.3498 172.558 94.5498C173.358 94.7498 173.858 94.5498 173.758 94.4498C173.758 94.3498 173.258 94.5498 172.558 94.2498C171.858 93.9498 171.058 93.1498 170.558 91.8498C170.258 91.2498 170.058 90.4498 169.658 89.6498C169.258 88.8498 168.658 88.1498 168.058 87.4498C166.758 86.0498 164.958 84.9498 163.658 83.3498C163.358 82.9498 163.058 82.5498 162.858 82.0498C162.658 81.6498 162.658 81.1498 162.958 81.1498C163.258 81.0498 163.658 81.3498 164.058 81.5498C164.458 81.7498 164.858 81.9498 165.358 82.2498C166.958 83.0498 168.458 83.8498 169.758 84.5498C170.958 85.1498 172.058 85.6498 172.758 86.0498C173.458 86.5498 173.858 86.7498 173.858 86.6498Z" fill="#EB996E"/>
<path d="M163.258 79.4501C163.158 79.4501 163.258 78.5501 162.558 77.4501C162.158 76.9501 161.558 76.4501 160.758 76.1501C159.958 75.8501 158.958 75.7501 157.958 75.7501C156.958 75.7501 155.858 75.7501 154.958 75.5501C154.058 75.3501 153.258 74.9501 152.758 74.4501C152.258 73.9501 152.058 73.2501 152.158 72.9501C152.258 72.5501 152.358 72.3501 152.358 72.3501C152.358 72.3501 152.358 72.5501 152.358 72.9501C152.358 73.3501 152.458 73.8501 152.958 74.2501C153.458 74.6501 154.158 74.9501 155.058 75.1501C155.958 75.3501 156.858 75.3501 157.958 75.3501C158.958 75.3501 160.058 75.4501 160.958 75.7501C161.858 76.0501 162.558 76.6501 162.958 77.2501C163.358 77.8501 163.458 78.4501 163.458 78.8501C163.358 79.2501 163.358 79.4501 163.258 79.4501Z" fill="#EB996E"/>
<path d="M167.857 64.8501C167.957 64.8501 167.957 65.6501 167.957 66.9501C167.957 68.3501 167.957 70.0501 167.957 71.9501C167.957 73.8501 168.057 75.5501 168.057 76.9501C168.057 78.2501 168.057 79.0501 168.057 79.0501C167.957 79.0501 167.857 78.2501 167.757 76.9501C167.657 75.6501 167.557 73.8501 167.557 71.9501C167.557 69.9501 167.557 68.2501 167.657 66.9501C167.657 65.6501 167.757 64.8501 167.857 64.8501Z" fill="#EB996E"/>
<path d="M160.956 81.85C160.956 81.85 160.756 81.75 160.356 81.65C159.956 81.55 159.356 81.25 158.756 81.55C158.456 81.65 158.256 82.05 158.256 82.45C158.256 82.85 158.256 83.35 158.356 83.85C158.456 84.35 158.456 84.95 158.156 85.45C157.856 85.95 157.156 86.25 156.556 86.25C155.956 86.25 155.356 85.95 154.956 85.55C154.556 85.15 154.256 84.65 154.156 84.15C153.956 83.15 154.056 82.25 154.156 81.45C154.256 80.65 154.456 80.05 154.656 79.75C154.856 79.35 155.056 79.25 155.056 79.25C155.056 79.25 154.956 79.45 154.756 79.85C154.556 80.25 154.456 80.85 154.356 81.55C154.256 82.25 154.256 83.15 154.456 84.15C154.656 85.05 155.456 85.95 156.456 85.95C156.956 85.95 157.456 85.65 157.756 85.25C158.056 84.85 158.056 84.35 157.956 83.85C157.856 83.35 157.856 82.85 157.856 82.45C157.856 81.95 158.156 81.55 158.556 81.35C159.356 81.05 160.056 81.35 160.356 81.55C160.756 81.75 160.956 81.85 160.956 81.85Z" fill="#EB996E"/>
<path d="M155.057 85.2501C155.057 85.2501 155.157 85.4501 154.957 85.8501C154.857 86.2501 154.457 86.7501 153.757 86.9501C153.057 87.1501 152.157 86.9501 151.457 86.2501C150.757 85.5501 150.457 84.5501 150.357 83.5501C150.357 82.4501 150.657 81.4501 151.257 80.7501C151.757 79.9501 152.457 79.5501 153.157 79.2501C153.757 78.9501 154.357 78.8501 154.757 78.8501C155.157 78.8501 155.357 78.8501 155.357 78.9501C155.357 79.0501 154.457 78.9501 153.357 79.5501C152.757 79.8501 152.157 80.3501 151.657 81.0501C151.157 81.7501 150.857 82.6501 150.857 83.6501C150.857 84.6501 151.157 85.5501 151.757 86.1501C152.357 86.7501 153.157 86.9501 153.757 86.8501C154.357 86.7501 154.757 86.2501 154.857 85.9501C154.957 85.5501 154.957 85.2501 155.057 85.2501Z" fill="#EB996E"/>
<path d="M162.357 92.2502C162.357 92.2502 162.757 92.1502 163.357 92.2502C163.957 92.3502 164.857 92.7502 165.557 93.5502L165.157 93.6502C165.157 93.2502 165.257 92.7502 165.357 92.2502C165.957 89.5502 167.357 87.7502 167.457 87.8502C167.557 87.9502 166.257 89.7502 165.757 92.3502C165.657 92.8502 165.557 93.2502 165.557 93.7502L165.457 94.2502L165.157 93.8502C164.557 93.1502 163.757 92.7502 163.157 92.5502C162.657 92.2502 162.357 92.2502 162.357 92.2502Z" fill="#EB996E"/>
<path d="M161.957 74.3501C162.057 74.3501 161.657 75.1501 160.757 75.5501C159.857 75.9501 159.057 75.7501 159.057 75.6501C159.057 75.5501 159.757 75.5501 160.557 75.1501C161.357 74.8501 161.857 74.3501 161.957 74.3501Z" fill="#EB996E"/>
<path d="M282.257 103.25C286.557 103.25 297.057 115.55 298.857 134.35C299.657 142.95 303.957 178.05 306.057 194.95C306.857 201.05 304.157 207.05 299.157 210.65C287.957 218.85 265.457 231.65 235.557 231.25L217.557 216.05L276.357 191.25V189.95L278.957 187.15L271.657 142.15C271.557 142.15 264.757 103.25 282.257 103.25Z" fill="#E3707F"/>
<path d="M266.958 24.1499C267.158 30.2499 275.258 33.9499 275.158 40.0499C275.158 42.6499 273.458 45.0499 273.158 47.6499C272.758 51.1499 274.658 54.4499 275.358 57.8499C276.858 64.9499 272.758 72.4499 266.658 76.2499C260.558 80.1499 252.858 80.8499 245.658 79.8499" fill="#251A51"/>
<path d="M217.958 22.6499C218.158 25.9499 216.058 28.8499 213.858 31.2499C211.658 33.6499 209.258 36.2499 208.758 39.4499C207.958 45.1499 213.558 50.5499 212.358 56.2499C211.758 59.2499 209.258 61.7499 208.758 64.8499C208.358 67.8499 209.958 70.7499 211.858 73.0499C213.858 75.3499 216.158 74.9499 217.858 77.4499C219.658 80.0499 222.658 82.6499 225.458 84.1499C231.758 87.6499 239.358 82.6499 242.358 81.7499" fill="#251A51"/>
<path d="M268.159 27.6498C268.259 24.6498 265.459 22.3498 262.759 21.3498C259.959 20.2498 256.959 19.8498 254.459 18.2498C252.259 16.7498 250.859 14.4498 248.959 12.6498C244.459 8.04984 237.359 6.14984 231.159 7.84984C224.959 9.54984 219.859 14.7498 218.259 21.0498C217.159 25.2498 217.959 30.2498 221.259 33.0498C225.159 36.3498 230.859 35.5498 235.759 34.5498C240.659 33.5498 246.259 32.5498 250.459 35.4498C252.959 37.2498 254.359 40.0498 255.859 42.6498C257.359 45.2498 259.259 47.9498 262.159 48.9498C265.059 49.9498 268.959 48.2498 269.059 45.1498" fill="#251A51"/>
<path d="M228.859 96.6497C228.859 89.8497 228.759 83.2497 228.759 83.2497C228.759 83.2497 217.959 81.4497 215.759 67.3497C214.659 60.3497 215.059 48.8497 215.659 39.4497C216.259 30.9497 221.859 20.6497 230.259 21.5497L256.559 28.2497C259.159 28.5497 261.059 30.7497 260.959 33.2497L258.559 97.0497C258.259 105.15 251.559 111.55 243.459 111.35C235.359 111.25 228.859 104.75 228.859 96.6497Z" fill="#FFBE9D"/>
<path d="M220.061 47.5499C220.061 48.5499 220.761 49.3499 221.761 49.3499C222.761 49.4499 223.561 48.6499 223.661 47.7499C223.661 46.7499 222.961 45.9499 221.961 45.9499C220.961 45.8499 220.161 46.5499 220.061 47.5499Z" fill="#251A51"/>
<path d="M218.06 45.4497C218.26 45.6497 219.66 44.6497 221.56 44.6497C223.46 44.6497 224.96 45.6497 225.16 45.3497C225.26 45.2497 225.06 44.8497 224.46 44.3497C223.86 43.8497 222.76 43.4497 221.56 43.4497C220.36 43.4497 219.36 43.8497 218.76 44.3497C218.16 44.9497 217.96 45.3497 218.06 45.4497Z" fill="#251A51"/>
<path d="M238.959 47.9496C238.959 48.9496 239.659 49.7496 240.659 49.7496C241.659 49.8496 242.459 49.0496 242.559 48.1496C242.559 47.1496 241.859 46.3496 240.859 46.3496C239.859 46.3496 239.059 47.0496 238.959 47.9496Z" fill="#251A51"/>
<path d="M237.259 45.8496C237.459 46.0496 238.859 45.0496 240.759 45.0496C242.659 45.0496 244.159 46.0496 244.359 45.7496C244.459 45.6496 244.259 45.2496 243.659 44.7496C243.059 44.2496 241.959 43.8496 240.759 43.8496C239.559 43.8496 238.559 44.2496 237.959 44.7496C237.359 45.3496 237.159 45.7496 237.259 45.8496Z" fill="#251A51"/>
<path d="M230.159 60.25C230.159 60.15 228.959 59.9499 226.959 59.6499C226.459 59.5499 225.959 59.4499 225.959 59.1499C225.859 58.7499 226.059 58.2499 226.259 57.6499C226.759 56.4499 227.259 55.1499 227.759 53.8499C229.859 48.4499 231.259 44.05 231.059 43.95C230.859 43.85 228.959 48.1499 226.959 53.5499C226.459 54.8499 225.959 56.1499 225.559 57.3499C225.359 57.9499 225.059 58.55 225.259 59.25C225.359 59.65 225.759 59.85 226.059 59.95C226.359 60.05 226.659 60.0499 226.859 60.0499C228.859 60.3499 230.159 60.35 230.159 60.25Z" fill="#251A51"/>
<path d="M228.758 83.2495C228.758 83.2495 238.258 83.8495 247.658 78.2495C247.458 78.2495 242.458 88.0495 228.958 86.5495L228.758 83.2495Z" fill="#EB996E"/>
<path d="M230.958 64.9498C231.658 64.0498 232.858 63.5498 234.058 63.6498C234.858 63.7498 235.758 64.1498 236.258 64.8498C236.758 65.5498 236.858 66.5498 236.358 67.1498C235.858 67.8498 234.758 68.0498 233.758 67.7498C232.858 67.4498 232.058 66.8498 231.258 66.2498C231.058 66.0498 230.858 65.9498 230.658 65.6498C230.758 65.5498 230.658 65.2498 230.958 64.9498Z" fill="#E3707F"/>
<path d="M235.858 61.6499C235.558 61.6499 235.558 63.7499 233.758 65.2499C231.958 66.7499 229.658 66.5499 229.658 66.8499C229.658 66.9499 230.158 67.2499 231.158 67.2499C232.058 67.2499 233.458 66.9499 234.558 66.0499C235.658 65.1499 236.158 63.9499 236.258 63.0499C236.258 62.1499 235.958 61.6499 235.858 61.6499Z" fill="#251A51"/>
<path d="M236.359 42.4496C236.559 42.9496 238.459 42.7496 240.759 43.0496C243.059 43.2496 244.859 43.9496 245.159 43.4496C245.259 43.2496 244.959 42.7496 244.259 42.2496C243.559 41.7496 242.359 41.2496 240.959 41.0496C239.559 40.8496 238.359 41.1496 237.459 41.4496C236.659 41.7496 236.259 42.1496 236.359 42.4496Z" fill="#251A51"/>
<path d="M218.858 39.8495C219.158 40.2495 220.558 39.8495 222.158 39.8495C223.758 39.7495 225.158 40.1495 225.458 39.6495C225.558 39.4495 225.358 38.9495 224.758 38.5495C224.158 38.1495 223.158 37.7495 222.058 37.8495C220.958 37.8495 219.958 38.2495 219.458 38.7495C218.858 39.1495 218.658 39.5495 218.858 39.8495Z" fill="#251A51"/>
<path d="M262.458 75.4498C258.558 76.2498 258.258 74.2498 255.358 71.5498C252.458 68.8498 250.958 64.7498 251.458 60.8498C251.858 57.3498 253.758 53.8498 252.558 50.5498C250.958 46.2498 244.858 44.8498 243.258 40.5498C242.358 38.0498 243.158 35.0498 242.058 32.6498C241.058 30.3498 238.658 29.0498 236.258 28.1498C233.858 27.2498 231.358 26.7498 229.358 25.1498C227.358 23.6498 226.158 20.6498 227.458 18.5498C237.958 19.8498 248.358 22.3498 258.258 26.0498C260.558 26.9498 262.958 27.9498 264.358 29.9498C265.758 32.1498 265.758 34.9498 265.558 37.5498C264.958 50.2498 264.358 62.8498 263.758 75.5498" fill="#251A51"/>
<path d="M271.358 46.6498C271.758 42.0498 275.558 37.8498 280.158 37.0498C284.758 36.2498 289.758 38.7498 291.858 42.9498C293.858 46.9498 293.158 51.7498 291.358 55.8498C289.158 60.6498 284.758 65.0498 279.458 64.8498C274.458 64.6498 270.558 60.2498 269.058 55.5498C267.658 50.7498 268.158 45.7498 268.758 40.7498" fill="#251A51"/>
<path d="M274.158 65.9496C274.158 65.9496 274.458 65.7496 274.858 65.1496C275.258 64.5496 275.758 63.5496 275.958 62.3496C276.158 61.0496 276.158 59.5496 275.858 57.8496C275.558 56.1496 275.058 54.4496 274.558 52.6496C274.158 50.8496 273.958 49.0496 274.258 47.4496C274.558 45.8496 275.258 44.5496 275.658 43.3496C276.058 42.1496 275.958 41.0496 275.758 40.3496C275.558 39.6496 275.258 39.3496 275.258 39.3496C275.258 39.3496 275.458 39.7496 275.558 40.3496C275.658 41.0496 275.658 42.0496 275.258 43.1496C274.858 44.3496 274.158 45.6496 273.758 47.3496C273.358 49.0496 273.558 50.9496 274.058 52.8496C274.458 54.7496 275.058 56.4496 275.358 58.0496C275.658 59.6496 275.758 61.1496 275.658 62.3496C275.158 64.7496 273.958 65.8496 274.158 65.9496Z" fill="#00B4FF"/>
<path d="M274.357 49.0496C274.357 49.0496 274.957 50.0496 276.557 51.1496C278.057 52.2496 280.557 53.3496 283.457 53.4496C286.357 53.4496 288.957 52.4496 290.457 51.4496C292.057 50.4496 292.757 49.4496 292.657 49.4496C292.557 49.3496 291.757 50.2496 290.157 51.1496C288.557 52.0496 286.157 52.9496 283.357 52.9496C280.557 52.8496 278.157 51.9496 276.657 50.9496C275.157 49.8496 274.357 48.9496 274.357 49.0496Z" fill="#00B4FF"/>
<path d="M275.058 51.2498C274.958 51.2498 275.358 52.1498 276.258 53.4498C277.158 54.7498 278.658 56.3498 280.758 57.5498C282.858 58.7498 284.958 59.3498 286.458 59.5498C288.058 59.7498 288.958 59.6498 288.958 59.5498C288.958 59.4498 287.958 59.4498 286.558 59.1498C285.058 58.8498 283.058 58.1498 281.058 57.0498C279.058 55.8498 277.558 54.3498 276.558 53.2498C275.558 52.0498 275.058 51.1498 275.058 51.2498Z" fill="#00B4FF"/>
<path d="M271.458 70.65C271.458 70.65 271.558 70.55 271.658 70.45C271.758 70.35 271.858 70.15 272.058 69.85C272.358 69.35 272.758 68.55 272.958 67.35C273.158 66.25 273.158 64.75 272.758 63.15C272.358 61.55 271.258 59.85 269.458 58.75C267.758 57.55 265.658 56.75 264.258 54.85C263.558 53.95 263.258 52.75 263.458 51.55C263.658 50.35 264.158 49.15 264.658 47.85C265.758 45.35 265.758 42.15 264.458 39.45C263.858 38.05 262.858 36.85 261.558 35.85C260.258 34.85 258.758 34.45 257.258 34.05C255.758 33.75 254.258 33.45 252.758 33.05C251.358 32.65 249.958 31.95 249.058 31.05C248.058 30.05 247.658 28.75 247.458 27.35C247.258 25.95 247.158 24.55 246.758 23.25C246.058 20.65 244.758 18.25 242.958 16.55C241.158 14.85 239.058 13.85 236.958 13.55C234.858 13.25 232.958 13.65 231.558 14.35C230.058 15.05 229.058 16.15 228.358 17.05C227.658 18.05 227.358 18.85 227.258 19.45C227.158 20.05 227.158 20.35 227.158 20.35C227.258 20.35 227.258 19.05 228.558 17.15C229.258 16.25 230.258 15.25 231.658 14.55C233.058 13.85 234.958 13.55 236.858 13.85C238.858 14.15 240.858 15.15 242.558 16.75C244.258 18.35 245.558 20.65 246.158 23.15C246.458 24.45 246.558 25.75 246.758 27.15C246.958 28.55 247.458 30.05 248.558 31.15C249.658 32.25 251.058 32.95 252.558 33.35C254.058 33.75 255.558 33.95 257.058 34.35C258.558 34.65 259.958 35.15 261.158 36.05C262.358 36.95 263.258 38.05 263.858 39.35C265.058 41.95 265.058 44.85 264.058 47.35C263.558 48.55 263.058 49.85 262.858 51.15C262.658 52.45 262.958 53.85 263.758 54.85C265.258 56.85 267.558 57.65 269.158 58.75C270.858 59.85 271.858 61.35 272.358 62.95C272.858 64.45 272.858 65.85 272.658 66.95C272.358 69.65 271.358 70.65 271.458 70.65Z" fill="#00B4FF"/>
<path d="M270.558 31.3501C270.558 31.3501 270.658 31.1501 270.758 30.6501C270.758 30.2501 270.758 29.5501 270.258 28.7501C269.858 28.0501 269.058 27.2501 267.858 26.8501C266.658 26.4501 265.258 26.4501 263.858 26.7501C262.358 27.0501 260.858 27.6501 259.158 27.9501C257.558 28.2501 255.558 28.3501 254.058 27.1501C252.558 26.0501 251.858 24.0501 251.058 22.0501C250.258 20.0501 249.258 18.0501 247.758 16.2501C244.858 12.6501 240.958 10.2501 237.058 9.35007C235.058 8.95007 233.158 8.95007 231.458 9.45007C229.758 9.95007 228.358 10.9501 227.358 12.1501C226.358 13.3501 225.858 14.6501 225.758 15.8501C225.658 17.0501 225.858 18.0501 226.258 18.8501C226.558 19.6501 226.958 20.1501 227.358 20.4501C227.658 20.7501 227.858 20.8501 227.858 20.8501C227.958 20.7501 227.058 20.2501 226.458 18.7501C226.158 17.9501 225.958 16.9501 226.158 15.8501C226.258 14.7501 226.758 13.4501 227.658 12.3501C228.558 11.2501 229.958 10.3501 231.558 9.85007C233.158 9.35007 235.058 9.35007 236.958 9.75007C240.658 10.6501 244.458 13.0501 247.258 16.4501C248.658 18.1501 249.658 20.1501 250.458 22.0501C251.258 23.9501 252.058 26.0501 253.658 27.3501C254.458 27.9501 255.458 28.3501 256.458 28.3501C257.458 28.4501 258.358 28.3501 259.258 28.1501C260.958 27.7501 262.458 27.1501 263.958 26.8501C265.358 26.5501 266.758 26.5501 267.758 26.8501C268.858 27.2501 269.558 27.9501 270.058 28.6501C270.558 29.3501 270.658 29.9501 270.558 30.3501C270.558 31.0501 270.458 31.3501 270.558 31.3501Z" fill="#00B4FF"/>
<path d="M283.558 103.45L258.558 97.0498H228.758C228.758 97.0498 213.358 97.9498 204.758 105.55C204.558 105.75 201.858 108.15 200.058 113.25L186.858 143.55L180.058 105.55L156.258 108.95L160.058 174.35C161.458 188.25 171.658 199.65 185.358 202.55L198.858 187.35C200.458 199.75 201.758 210.45 201.958 210.25C202.258 209.95 276.058 205.45 276.058 205.45L268.558 180.25L283.558 103.45Z" fill="#E3707F"/>
<path d="M201.658 161.35C201.658 161.35 201.358 161.05 200.858 160.45C200.458 159.85 199.858 158.85 199.558 157.45C198.758 154.75 198.858 150.85 200.158 146.85C201.458 142.85 203.258 139.55 204.258 137.05C204.758 135.75 205.158 134.75 205.358 134.05C205.558 133.35 205.758 132.95 205.758 132.95C205.758 132.95 205.758 133.35 205.558 134.15C205.358 134.85 205.058 135.95 204.558 137.25C203.658 139.85 201.958 143.25 200.658 147.15C199.358 151.05 199.258 154.85 199.858 157.45C200.558 159.95 201.758 161.25 201.658 161.35Z" fill="#251A51"/>
<path d="M270.757 135.55C270.757 135.55 270.857 135.75 270.857 136.05C270.957 136.45 271.057 136.95 271.157 137.55C271.457 138.95 271.757 140.75 272.157 143.05C272.957 147.75 274.057 154.15 275.257 161.25C276.457 168.35 277.357 174.85 278.057 179.55C278.357 181.85 278.657 183.75 278.757 185.15C278.857 185.75 278.857 186.25 278.857 186.65C278.857 186.95 278.857 187.15 278.857 187.15C278.857 187.15 278.757 186.95 278.757 186.65C278.657 186.25 278.657 185.75 278.557 185.15C278.357 183.75 278.057 181.85 277.657 179.65C276.857 174.95 275.857 168.45 274.757 161.45C273.657 154.35 272.557 147.95 271.857 143.25C271.457 140.95 271.257 139.05 270.957 137.75C270.857 137.15 270.757 136.65 270.757 136.25C270.757 135.75 270.657 135.55 270.757 135.55Z" fill="#251A51"/>
<path d="M186.057 162.35C185.957 162.35 186.057 161.25 186.257 159.55C186.357 157.85 186.557 155.45 186.657 152.85C186.757 150.25 186.657 147.85 186.657 146.15C186.557 144.45 186.557 143.35 186.657 143.35C186.757 143.35 186.857 144.35 187.057 146.15C187.257 147.85 187.357 150.25 187.257 152.85C187.157 155.45 186.957 157.85 186.757 159.55C186.357 161.25 186.157 162.35 186.057 162.35Z" fill="#251A51"/>
<path d="M287.758 193.75C287.658 193.75 287.558 193.05 287.058 192.15C286.558 191.15 285.758 189.95 284.458 188.95C283.158 187.95 281.658 187.55 280.558 187.35C279.458 187.15 278.758 187.25 278.758 187.15C278.758 187.05 279.458 186.95 280.558 186.95C281.658 187.05 283.258 187.45 284.658 188.45C286.058 189.45 286.958 190.85 287.358 191.95C287.758 193.05 287.758 193.75 287.758 193.75Z" fill="#251A51"/>
<path d="M282.258 196.75C282.158 196.85 281.358 195.05 279.658 193.45C277.958 191.85 276.158 191.25 276.158 191.15C276.158 191.05 278.158 191.45 279.958 193.05C281.758 194.75 282.358 196.75 282.258 196.75Z" fill="#251A51"/>
<path d="M263.858 196.75C263.758 196.65 266.658 195.45 270.058 193.95C273.558 192.45 276.258 191.15 276.358 191.25C276.458 191.35 273.758 192.95 270.258 194.45C266.758 195.95 263.858 196.85 263.858 196.75Z" fill="#251A51"/>
<path d="M166.557 154.65C166.557 154.65 180.957 223.05 180.957 222.15C180.957 221.35 253.457 225.25 266.357 225.85L269.057 225.15L289.557 206.35L266.057 204.45L257.657 156.35L166.557 154.65Z" fill="#00B4FF"/>
<path d="M269.101 225.091C269.265 225.064 266.825 209.629 263.653 190.617C260.48 171.604 257.776 156.213 257.612 156.241C257.449 156.268 259.888 171.703 263.061 190.715C266.234 209.728 268.938 225.119 269.101 225.091Z" fill="#00B4FF"/>
<path d="M257.857 156.35C257.857 156.35 257.657 156.55 257.357 156.85C257.057 157.15 256.457 157.55 255.857 158.25C255.557 158.55 255.257 159.05 255.457 159.55C255.557 160.15 255.657 160.65 255.757 161.35C255.957 162.65 256.257 164.05 256.557 165.65C257.657 172.05 259.157 180.85 260.757 190.55C262.357 200.25 263.757 209.05 264.857 215.45C265.357 218.65 265.757 221.15 266.057 223.05C266.157 223.95 266.257 224.55 266.357 225.15C266.457 225.65 266.457 225.85 266.457 225.85C266.457 225.85 266.357 225.65 266.257 225.15C266.157 224.65 266.057 223.95 265.857 223.15C265.557 221.35 265.057 218.75 264.557 215.65C263.457 209.25 261.957 200.45 260.357 190.75C258.757 181.05 257.357 172.25 256.257 165.85C255.957 164.25 255.757 162.85 255.557 161.55C255.457 160.95 255.357 160.35 255.257 159.75C255.057 159.15 255.457 158.65 255.757 158.25C256.357 157.55 256.957 157.15 257.357 156.85C257.657 156.45 257.857 156.25 257.857 156.35Z" fill="#00B4FF"/>
<path d="M255.156 158.75C255.156 158.75 254.856 158.75 254.256 158.75C253.656 158.75 252.756 158.75 251.656 158.75C249.356 158.75 246.156 158.65 242.256 158.65C234.256 158.55 223.356 158.35 211.156 158.15C199.056 157.95 188.056 157.75 180.056 157.65C176.156 157.55 172.956 157.55 170.656 157.55C169.556 157.55 168.756 157.55 168.056 157.45C167.456 157.45 167.156 157.45 167.156 157.35C167.156 157.35 167.456 157.35 168.056 157.25C168.656 157.25 169.556 157.25 170.656 157.25C172.856 157.25 176.056 157.25 180.056 157.25C188.056 157.25 198.956 157.35 211.156 157.65C223.256 157.85 234.256 158.15 242.256 158.35C246.156 158.45 249.356 158.55 251.656 158.65C252.756 158.65 253.556 158.75 254.256 158.75C254.856 158.75 255.156 158.75 255.156 158.75Z" fill="#00B4FF"/>
<path d="M265.957 206.35C265.957 206.35 266.457 206.35 267.357 206.35C268.357 206.35 269.657 206.45 271.157 206.55C274.357 206.75 278.857 206.95 283.857 207.25H284.457L283.957 207.65C283.657 207.85 283.357 208.15 283.057 208.45C279.057 211.85 275.357 214.95 272.757 217.15C271.457 218.15 270.457 219.05 269.557 219.75C268.757 220.35 268.357 220.65 268.357 220.65C268.357 220.65 268.757 220.25 269.457 219.65C270.257 218.95 271.257 218.05 272.557 216.95C275.157 214.65 278.757 211.55 282.757 208.15C283.057 207.85 283.357 207.65 283.657 207.35L283.857 207.85C278.857 207.55 274.457 207.25 271.157 206.95C269.657 206.85 268.357 206.75 267.357 206.65C266.457 206.45 265.957 206.35 265.957 206.35Z" fill="#00B4FF"/>
<path d="M202.857 224.15L201.957 213.05C201.957 213.05 205.657 212.55 205.957 216.65V209.75C205.957 209.75 210.157 208.85 211.157 214.35C212.057 219.95 213.457 222.95 213.457 222.95L215.757 224.15L213.657 211.25C213.657 211.25 218.157 211.65 218.957 215.85C219.757 220.05 220.957 223.05 220.957 223.05L228.057 225.05C228.057 225.05 223.957 221.45 224.357 220.25C224.757 219.05 224.457 219.15 225.257 218.95C226.057 218.75 227.857 219.35 229.057 219.95C230.357 220.65 237.857 225.05 237.857 225.05V230.55C237.857 230.55 220.357 231.85 216.457 231.05L208.857 229.25C205.957 228.85 203.757 226.85 202.857 224.15Z" fill="#FFBE9D"/>
<path d="M215.657 193.774C218.272 193.339 219.996 190.602 219.507 187.66C219.019 184.718 216.503 182.685 213.888 183.12C211.272 183.554 209.548 186.291 210.037 189.233C210.525 192.175 213.041 194.208 215.657 193.774Z" fill="#FAFAFA"/>
<g opacity="0.4">
<path opacity="0.4" d="M278.857 186.85C281.857 185.95 285.157 185.85 287.957 187.15C290.757 188.45 293.057 191.05 293.457 194.15C293.557 194.85 293.557 195.65 293.257 196.25C293.057 196.95 292.457 197.55 291.757 197.75C290.657 198.05 289.457 197.35 288.857 196.35C288.257 195.35 287.957 194.25 287.557 193.15C286.157 189.55 282.357 186.95 278.557 186.85C278.757 186.85 278.857 186.95 279.057 186.95" fill="black"/>
</g>
<path d="M226.258 100.85C226.858 98.9499 226.358 96.9499 225.958 95.0499C225.658 93.1499 225.558 90.8499 226.858 89.4499C228.158 87.9499 230.358 87.8499 232.358 87.7499C240.458 87.3499 248.458 87.0499 256.558 86.6499C258.258 86.5499 260.158 86.6499 261.158 87.9499C261.858 88.7499 262.258 89.9499 262.058 90.9499C260.858 95.5499 261.158 99.4499 263.058 102.65" fill="#E3707F"/>
<path d="M259.057 98.5498C259.057 98.5498 258.657 98.8498 257.957 99.4498C257.257 99.9498 256.157 100.75 254.757 101.45C251.957 102.95 247.757 104.65 242.857 105.05C240.457 105.25 238.057 105.25 235.957 104.95C233.857 104.65 232.057 104.05 230.657 103.25C229.257 102.45 228.257 101.55 227.757 100.85C227.457 100.55 227.257 100.25 227.157 100.05C227.057 99.8498 226.957 99.7498 226.957 99.7498C227.057 99.6498 227.957 101.55 230.857 102.95C232.257 103.65 234.057 104.25 236.057 104.55C238.157 104.85 240.457 104.85 242.757 104.65C247.557 104.25 251.657 102.65 254.457 101.25C257.457 99.7498 258.957 98.4498 259.057 98.5498Z" fill="#251A51"/>
<path d="M242.457 105.15C242.357 105.15 242.157 104.15 241.857 102.45C241.557 100.75 241.157 98.4498 240.657 95.9498C240.457 94.6498 240.257 93.4498 240.057 92.3498C239.857 91.2498 239.857 90.1498 240.157 89.3498C240.457 88.5498 240.957 87.9498 241.457 87.7498C241.857 87.5498 242.157 87.5498 242.157 87.5498C242.157 87.5498 241.857 87.6498 241.557 87.9498C241.157 88.2498 240.757 88.7498 240.557 89.5498C240.357 90.3498 240.357 91.3498 240.557 92.3498C240.757 93.4498 240.957 94.6498 241.157 95.9498C241.557 98.4498 241.957 100.75 242.157 102.45C242.457 104.15 242.557 105.15 242.457 105.15Z" fill="#251A51"/>
<path d="M255.057 101.35C254.957 101.35 254.857 100.55 254.557 99.1497C254.357 97.7497 254.057 95.8497 253.857 93.7497C253.557 91.6497 253.457 89.7497 253.257 88.4497C253.157 87.7497 252.757 87.3497 252.457 87.1497C252.157 86.9497 251.957 86.9497 251.957 86.8497C251.957 86.8497 252.157 86.7497 252.557 86.9497C252.957 87.1497 253.357 87.6497 253.557 88.3497C253.857 89.7497 254.057 91.6497 254.357 93.7497C254.657 95.8497 254.857 97.7497 254.957 99.1497C255.157 100.45 255.157 101.35 255.057 101.35Z" fill="#251A51"/>
<path d="M232.057 87.7496C232.057 87.8496 231.257 88.0496 230.457 89.1496C230.057 89.6496 229.757 90.3496 229.557 91.2496C229.357 92.1496 229.357 93.0496 229.457 94.0496C229.657 96.1496 229.857 97.9496 229.857 99.3496C229.957 100.75 229.957 101.55 229.857 101.55C229.757 101.55 229.657 100.75 229.457 99.3496C229.257 97.9496 229.057 96.1496 228.857 94.0496C228.757 93.0496 228.757 91.9496 228.957 91.0496C229.157 90.1496 229.557 89.3496 230.057 88.8496C231.057 87.7496 232.057 87.6496 232.057 87.7496Z" fill="#251A51"/>
</svg>
