<svg width="133" height="117" viewBox="0 0 133 117" fill="none" xmlns="http://www.w3.org/2000/svg">
<path d="M0.208618 0.962402H126.172V116.631H0.208618V0.962402Z" fill="#E1E7F5"/>
<path d="M6.59143 0.962402H132.555V116.631H6.59143V0.962402Z" fill="#ECF1FE"/>
<path d="M22.0524 13.4453H116.809V104.059H22.0524V13.4453Z" fill="white"/>
<path d="M22.1945 104.059C22.1945 104.059 22.1945 103.879 22.1945 103.61C22.1945 103.34 22.1945 102.891 22.1945 102.352C22.1945 101.185 22.1945 99.5683 22.1945 97.413C22.1945 93.1024 22.1945 86.7262 22.3364 78.7335C22.3364 62.7482 22.4782 40.1173 22.4782 13.535L22.1945 13.7146C51.132 13.7146 83.1902 13.7146 116.951 13.7146L116.667 13.535C116.667 47.7508 116.667 79.1826 116.667 104.148L116.951 103.969C88.155 103.969 64.466 104.059 48.0113 104.059C39.784 104.059 33.4007 104.059 29.0033 104.059C26.8756 104.059 25.1734 104.059 24.0386 104.059C22.7619 104.059 22.1945 104.059 22.1945 104.059C22.1945 104.059 22.7619 104.059 23.8967 104.059C25.0315 104.059 26.7337 104.059 28.8615 104.059C33.2588 104.059 39.6422 104.059 47.8695 104.059C64.3241 104.059 88.0132 104.148 116.951 104.148H117.234V103.969C117.234 79.0928 117.234 47.5711 117.234 13.3554V13.1758H116.951C83.1902 13.1758 51.132 13.1758 22.1945 13.1758H21.9108V13.3554C21.9108 40.0275 22.0527 62.7482 22.0527 78.7335C22.0527 86.7262 22.0527 93.0126 22.1945 97.3232C22.1945 99.4785 22.1945 101.095 22.1945 102.262C22.1945 102.801 22.1945 103.25 22.1945 103.52C22.1945 103.969 22.1945 104.059 22.1945 104.059Z" fill="#E1E7F5"/>
<path d="M6.16515 0.962402C6.0233 0.962402 7.01627 1.77065 8.43477 3.02792C9.85328 4.28519 11.9811 5.99149 14.3925 7.78759C16.804 9.5837 18.9317 11.2002 20.6339 12.3677C22.3361 13.5351 23.3291 14.1638 23.4709 14.1638C23.6128 14.1638 22.6198 13.3555 21.0595 12.188C19.3573 10.9308 17.2295 9.31428 14.9599 7.51818C12.6903 5.72207 10.5626 4.19539 8.86035 2.84831C7.29999 1.68084 6.307 0.962402 6.16515 0.962402Z" fill="#E1E7F5"/>
<path d="M21.6289 103.789C16.9478 108.549 11.4157 112.949 5.17424 116.901L21.6289 103.789Z" fill="white"/>
<path d="M5.17305 116.902C5.17305 116.902 6.30785 116.363 8.01006 115.286C9.71226 114.208 11.9819 112.681 14.2515 110.795C16.5211 108.999 18.507 107.293 19.7836 105.946C21.0603 104.689 21.7695 103.791 21.7695 103.791C21.6277 103.791 20.7766 104.509 19.5 105.766C18.0815 107.024 16.0955 108.73 13.8259 110.526C11.5563 112.322 9.42854 113.939 7.72634 115.016C6.16598 116.094 5.17305 116.812 5.17305 116.902Z" fill="#E1E7F5"/>
<path d="M132.555 116.541C127.023 112.231 121.49 107.92 116.1 103.609L132.555 116.541Z" fill="white"/>
<path d="M124.058 110.195C119.52 106.65 115.939 103.725 116.061 103.663C116.183 103.6 119.961 106.423 124.499 109.968C129.038 113.513 132.618 116.438 132.496 116.5C132.375 116.563 128.597 113.74 124.058 110.195Z" fill="#E1E7F5"/>
<path d="M117.035 13.349C116.913 13.2874 120.28 10.4625 124.556 7.03934C128.832 3.61617 132.399 0.891014 132.522 0.952546C132.645 1.01408 129.277 3.839 125.001 7.26217C120.725 10.6853 117.158 13.4105 117.035 13.349Z" fill="#E1E7F5"/>
<path d="M53.5438 25.022H85.3184V82.0482H53.5438V25.022Z" fill="#E1E7F5"/>
</svg>
