<svg width="159" height="199" viewBox="0 0 159 199" fill="none" xmlns="http://www.w3.org/2000/svg">
<path d="M124.577 187.234C150.404 167.054 154.464 132.228 151.563 101.321C151.083 96.1544 151.329 90.6753 148.574 86.288C145.808 81.9015 139.814 79.1514 135.252 81.614C131.468 83.6552 130.041 88.2267 128.077 92.0533C125.471 97.1468 121.4 101.471 116.473 104.371C113.241 106.277 109.177 107.566 105.777 105.969C101.112 103.775 100.209 97.6559 99.9406 92.5082C99.4338 82.9254 98.9262 73.331 98.4195 63.7482C98.1512 58.6006 97.8517 53.3497 95.9469 48.5707C94.0422 43.7917 90.1908 39.4631 85.1543 38.3989C80.1169 37.3231 74.1567 40.5116 73.4016 45.607C73.0917 47.7278 73.6511 49.8772 73.636 52.0228C73.6209 54.1684 72.7476 56.5891 70.7269 57.303C68.6838 58.0302 66.5095 56.693 64.8686 55.2808C59.1837 50.4099 55.1368 43.9398 51.3372 37.4863C47.526 31.0337 43.8208 24.4326 38.6021 19.058C33.3834 13.6834 26.3749 9.603 18.8894 9.63628C11.3905 9.64712 3.71654 14.6748 2.25069 22.0148C0.786587 29.378 5.51338 36.4769 10.5255 42.0661C17.9548 50.3571 26.6042 57.5723 36.0873 63.4009C37.7952 64.4566 39.6499 65.595 40.399 67.4607C41.7285 70.818 38.6471 74.4236 35.2781 75.754C31.4651 77.2583 27.236 77.118 23.1997 77.8304C19.1633 78.5428 14.8626 80.5758 13.5597 84.4584C11.7366 89.8447 16.5236 95.0876 21.1101 98.4353C30.3189 105.14 40.6737 110.247 51.5906 113.472C55.5093 114.632 59.6131 115.602 62.857 118.078C66.1008 120.553 68.2427 125.057 66.5888 128.79C64.9357 132.535 60.2159 133.978 56.1479 133.486C52.0916 132.993 48.3725 131.056 44.4628 129.861C37.1468 127.62 27.9206 128.662 23.6998 135.049C20.9201 139.241 20.9886 144.849 22.7931 149.542C24.5976 154.235 27.9389 158.168 31.4431 161.772C43.707 174.377 59.0317 184.197 75.9756 188.881C92.9429 193.564 108.422 194.186 124.577 187.234Z" fill="#ECF1FE"/>
<path d="M122.492 188C116.948 172.654 102.206 136.658 93.7747 119.841C91.6564 115.652 89.5523 111.497 87.4768 107.411C85.4022 103.336 83.3534 99.2942 81.0865 95.4681C76.6091 87.7881 71.6994 80.7498 66.8388 74.2117C61.9774 67.662 57.1194 61.6276 52.5276 56.0186C47.9242 50.4105 43.543 45.2661 39.3496 40.7522C30.9835 31.6877 23.3706 25.1683 17.9533 20.8984C15.2501 18.7572 13.1032 17.1602 11.6292 16.0988C10.9115 15.59 10.3539 15.1865 9.95748 14.8998C9.57443 14.6355 9.36585 14.5105 9.36585 14.5105C9.36585 14.5105 9.54209 14.6731 9.90358 14.9624C10.3018 15.2724 10.8369 15.6894 11.5331 16.2232C12.9756 17.3338 15.0893 18.9567 17.7601 21.1355C23.1118 25.4689 30.6459 32.0294 38.9437 41.1224C43.103 45.6506 47.4618 50.8084 52.0311 56.4308C56.6014 62.0648 61.4361 68.101 66.2742 74.6524C71.1115 81.1922 75.9854 88.2215 80.4485 95.8674C82.6912 99.6837 84.7257 103.691 86.8012 107.778C88.8651 111.865 90.9682 116.008 93.0866 120.197C101.517 137.003 116.255 172.952 121.831 188.249" fill="#D0D9EE"/>
<path d="M80.8948 95.4121C80.954 95.4194 81.0703 94.6256 81.2435 93.183C81.4167 91.7404 81.6118 89.6516 81.8169 87.0699C82.2387 81.9057 82.5704 74.7562 82.9287 66.8663C83.287 58.9765 83.7495 51.8523 84.278 46.7036C84.5305 44.13 84.7615 42.0503 84.9472 40.6185C85.1213 39.1875 85.1901 38.3855 85.1426 38.3774C85.0952 38.3692 84.9197 39.1558 84.6515 40.5821C84.3717 42.0092 84.0583 44.0834 83.735 46.6505C83.0658 51.798 82.511 58.9409 82.1535 66.8424C81.8133 74.6605 81.4996 81.7384 81.264 87.041C81.1326 89.5117 81.0173 91.5711 80.9254 93.1599C80.8579 94.6063 80.8473 95.404 80.8948 95.4121Z" fill="#D0D9EE"/>
<path d="M13.1708 87.0666C13.1725 87.0899 13.4091 87.119 13.8671 87.1316C14.4191 87.1489 15.076 87.1582 15.8629 87.1813C17.5881 87.2162 20.0876 87.2634 23.1811 87.4184C29.3531 87.6827 37.8767 88.3685 47.233 89.5311C56.591 90.7169 65.0182 92.1482 71.0868 93.3811C74.1194 93.9743 76.5624 94.5179 78.2538 94.8834C79.0278 95.048 79.671 95.1874 80.2067 95.2996C80.6583 95.383 80.8957 95.4238 80.9047 95.3879C80.9146 95.3638 80.6854 95.2755 80.2537 95.1437C79.727 94.9957 79.0919 94.8089 78.3368 94.5842C76.6734 94.1229 74.236 93.4968 71.2098 92.8329C65.1665 91.4691 56.7324 89.9446 47.3385 88.7497C37.9581 87.5773 29.4064 86.9873 23.2092 86.8538C20.1092 86.7696 17.6042 86.8049 15.8734 86.8525C15.0793 86.8885 14.4258 86.9257 13.8764 86.9434C13.4129 87.0133 13.1807 87.0424 13.1708 87.0666Z" fill="#D0D9EE"/>
<path d="M114.437 167.136C114.461 167.145 114.592 166.854 114.831 166.297C115.088 165.657 115.413 164.836 115.819 163.833C116.666 161.695 117.826 158.562 119.211 154.673C121.98 146.896 125.468 136.053 129.172 124.022C132.877 111.991 136.282 101.131 138.908 93.3174C140.215 89.4931 141.281 86.3548 142.06 84.0817C142.405 83.0598 142.693 82.2179 142.914 81.5685C143.105 80.9918 143.188 80.6809 143.163 80.671C143.139 80.6611 143.009 80.9521 142.769 81.5091C142.512 82.1494 142.187 82.9706 141.782 83.9736C140.934 86.1112 139.774 89.2448 138.39 93.1335C135.621 100.911 132.132 111.754 128.428 123.785C124.723 135.804 121.319 146.676 118.692 154.478C117.385 158.302 116.319 161.44 115.54 163.713C115.196 164.747 114.906 165.577 114.685 166.226C114.495 166.815 114.413 167.126 114.437 167.136Z" fill="#D0D9EE"/>
<path d="M23.7387 144.152C23.7288 144.176 24.0414 144.282 24.6514 144.447C25.3322 144.618 26.2047 144.846 27.2921 145.128C29.6812 145.734 32.9777 146.565 37.0141 147.575C45.2204 149.656 56.5196 152.665 68.993 156.02C81.4665 159.375 92.7953 162.311 101.049 164.248C105.176 165.216 108.514 165.974 110.836 166.456C111.93 166.679 112.823 166.858 113.512 166.994C114.131 167.112 114.45 167.158 114.46 167.134C114.47 167.11 114.158 167.004 113.548 166.839C112.867 166.667 111.994 166.44 110.907 166.158C108.518 165.552 105.221 164.72 101.185 163.71C92.9786 161.63 81.6795 158.62 69.2061 155.266C56.7326 151.911 45.4046 148.986 37.1613 147.037C33.0343 146.069 29.6964 145.311 27.3752 144.829C26.2804 144.606 25.3881 144.427 24.6983 144.291C24.0685 144.174 23.7486 144.128 23.7387 144.152Z" fill="#D0D9EE"/>
</svg>
