<svg width="428" height="390" viewBox="0 0 428 390" fill="none" xmlns="http://www.w3.org/2000/svg">
<path d="M232.901 34.0196C185.587 25.8967 181.186 68.6997 181.508 80.9935C181.83 93.2744 186.025 104.165 190.348 115.661C194.672 127.156 191.931 142.849 188.289 154.589C184.03 168.324 170.468 180.927 175.319 194.47C179.128 205.103 193.166 210.316 194.89 221.477C196.254 230.308 189.139 238.006 186.514 246.554C181.56 262.671 192.909 278.827 203.576 291.88C207.976 297.274 213.316 303.131 220.265 303.221C229.877 303.35 235.59 292.936 239.926 284.349C251.932 260.612 269.843 239.886 291.602 224.58" fill="#251A51"/>
<path d="M203.807 98.1279C203.832 98.1923 202.764 98.733 200.886 99.1835C199.02 99.6341 196.318 99.8787 193.397 99.4281C190.476 98.9647 187.98 97.8833 186.345 96.8792C184.698 95.8751 183.849 95.0255 183.901 94.974C183.965 94.8839 184.917 95.5919 186.577 96.4673C188.237 97.3427 190.669 98.3081 193.5 98.7587C196.331 99.1964 198.943 99.0419 200.796 98.7201C202.649 98.3982 203.768 98.0121 203.807 98.1279Z" fill="#9A8CEA"/>
<path d="M189.613 207.047C189.613 207.047 188.506 205.901 186.962 203.481C185.457 201.061 183.591 197.263 182.574 192.204C181.558 187.196 181.455 180.837 183.694 174.362C184.788 171.131 186.499 167.964 188.481 164.862C190.462 161.746 192.688 158.67 194.76 155.387C198.903 148.835 201.387 141.729 202.236 135.061C202.712 131.739 202.853 128.534 202.712 125.56C202.648 122.574 202.21 119.819 201.773 117.309C200.769 112.327 199.302 108.439 198.092 105.864C197.552 104.538 196.973 103.599 196.651 102.916C196.317 102.247 196.149 101.887 196.162 101.874C196.188 101.861 196.394 102.196 196.767 102.852C197.127 103.509 197.745 104.448 198.324 105.761C199.611 108.31 201.155 112.198 202.223 117.218C202.686 119.742 203.149 122.522 203.252 125.534C203.42 128.547 203.291 131.791 202.828 135.151C201.991 141.883 199.495 149.118 195.3 155.748C193.216 159.056 190.977 162.133 189.008 165.222C187.039 168.299 185.341 171.414 184.26 174.568C182.034 180.902 182.085 187.158 183.025 192.114C183.964 197.109 185.74 200.893 187.168 203.339C188.648 205.785 189.677 206.995 189.613 207.047Z" fill="#9A8CEA"/>
<path d="M345.993 160.305C345.993 160.305 369.72 160.305 385.869 194.92C397.849 220.602 432.012 308.036 426.62 332.598C425.411 338.108 421.962 350.35 413.161 350.517C398.17 350.8 387.683 349.977 387.683 349.977L368.511 305.629L350.02 242.345C350.02 242.358 320.245 166.304 345.993 160.305Z" fill="#00B4FF"/>
<path d="M375.664 348.599L369.719 308.499L345.991 160.317L316.499 158.103L261.066 169.123C261.066 169.123 228.357 174.426 211.578 186.411C211.578 186.411 216.558 267.537 216.841 275.982C217.459 294.455 228.962 311.01 240.517 325.685L243.567 329.547L241.997 352.796L375.664 348.599Z" fill="#00B4FF"/>
<path d="M237.004 174.902C237.004 174.902 213.689 179.974 198.685 199.361C186.577 215.002 130.14 284.671 130.14 284.671C130.14 284.671 101.124 300.93 95.7328 317.703C90.3413 334.477 95.81 349.345 108.394 349.345C120.979 349.345 153.482 340.733 153.482 340.733L216.661 268.348L218.089 280.809L232.552 217.551L237.004 174.902Z" fill="#00B4FF"/>
<path d="M343.818 224.271C343.844 224.271 343.934 224.528 344.089 225.043C344.256 225.622 344.475 226.369 344.745 227.296C345.337 229.343 346.134 232.162 347.125 235.599C349.158 242.602 352.054 252.27 355.309 262.916C358.577 273.523 361.537 283.126 363.711 290.168C364.767 293.592 365.616 296.399 366.233 298.433C366.504 299.359 366.722 300.106 366.89 300.685C367.031 301.2 367.096 301.484 367.083 301.484C367.057 301.496 366.954 301.226 366.761 300.724C366.555 300.145 366.298 299.411 365.976 298.51C365.307 296.489 364.381 293.708 363.248 290.31C360.984 283.371 357.908 273.768 354.653 263.109C351.397 252.463 348.566 242.769 346.649 235.728C345.697 232.201 344.938 229.343 344.475 227.36C344.256 226.421 344.076 225.661 343.934 225.069C343.857 224.554 343.806 224.271 343.818 224.271Z" fill="#251A51"/>
<path d="M321.994 304.882C322.007 304.934 321.428 305.062 320.36 305.268C319.833 305.371 319.176 305.487 318.417 305.564C317.658 305.642 316.783 305.77 315.818 305.796C313.888 305.925 311.584 305.899 309.037 305.68C306.489 305.423 303.71 304.947 300.866 304.161C298.022 303.35 295.397 302.308 293.094 301.213C290.804 300.081 288.809 298.909 287.226 297.789C286.416 297.261 285.734 296.708 285.129 296.244C284.511 295.781 284.022 295.356 283.624 294.983C282.826 294.262 282.401 293.85 282.427 293.811C282.517 293.708 284.28 295.318 287.497 297.403C289.092 298.459 291.087 299.566 293.364 300.66C295.655 301.715 298.254 302.72 301.059 303.518C303.864 304.29 306.605 304.779 309.114 305.062C311.623 305.307 313.901 305.397 315.818 305.32C319.627 305.204 321.969 304.753 321.994 304.882Z" fill="#251A51"/>
<path d="M221.32 226.974C221.346 226.987 221.294 227.232 221.191 227.708C221.063 228.249 220.895 228.944 220.69 229.781C220.458 230.669 220.188 231.776 219.918 233.05C219.647 234.338 219.287 235.78 219.004 237.414C218.361 240.658 217.782 244.546 217.318 248.884C216.907 253.223 216.623 258.011 216.649 263.045C216.714 268.078 217.061 272.867 217.55 277.205C218.09 281.53 218.734 285.418 219.429 288.636C219.737 290.258 220.111 291.7 220.406 292.987C220.69 294.262 220.986 295.356 221.23 296.244C221.449 297.081 221.629 297.763 221.77 298.304C221.886 298.78 221.938 299.025 221.912 299.038C221.886 299.051 221.796 298.806 221.642 298.343C221.474 297.815 221.256 297.133 220.986 296.309C220.702 295.433 220.368 294.339 220.046 293.065C219.712 291.79 219.3 290.348 218.965 288.726C218.206 285.495 217.511 281.608 216.932 277.269C216.405 272.918 216.032 268.104 215.98 263.045C215.954 257.986 216.25 253.171 216.701 248.807C217.202 244.456 217.833 240.555 218.541 237.311C218.849 235.677 219.236 234.235 219.544 232.96C219.84 231.673 220.162 230.592 220.432 229.703C220.69 228.88 220.895 228.197 221.05 227.67C221.204 227.206 221.294 226.961 221.32 226.974Z" fill="#251A51"/>
<path d="M351.111 165.776C351.175 165.891 349.129 166.767 346.337 168.942C343.558 171.092 340.122 174.722 337.922 179.64C335.722 184.557 335.31 189.552 335.554 193.054C335.786 196.581 336.494 198.692 336.365 198.718C336.326 198.731 336.121 198.216 335.837 197.25C335.554 196.285 335.258 194.869 335.065 193.079C334.679 189.526 335.027 184.403 337.291 179.357C339.543 174.31 343.133 170.629 346.041 168.556C347.495 167.501 348.756 166.78 349.657 166.342C350.571 165.93 351.085 165.737 351.111 165.776Z" fill="#251A51"/>
<path d="M348.065 241.199C348.065 241.199 347.897 241.675 347.396 242.499C346.907 243.31 346.019 244.469 344.565 245.576C343.124 246.696 341.103 247.764 338.581 248.382C336.059 249.026 333.036 249.116 329.819 248.562C326.589 248.022 323.205 246.863 319.653 245.473C316.102 244.095 312.358 242.486 308.227 241.495C306.168 241.006 304.007 240.684 301.793 240.71C299.593 240.748 297.341 241.109 295.141 241.804C290.727 243.168 286.597 245.73 282.557 248.524C278.516 251.343 274.682 254.329 270.577 256.608C266.511 258.899 262.162 260.599 257.813 260.869C255.651 261.01 253.502 260.792 251.52 260.277C249.526 259.749 247.686 258.964 245.987 258.101C242.577 256.338 239.682 254.265 236.967 252.501C231.614 248.884 226.673 246.889 223.07 246.567C219.468 246.181 217.525 246.992 217.512 246.863C217.512 246.85 217.628 246.811 217.859 246.747C218.091 246.683 218.438 246.567 218.914 246.49C219.854 246.309 221.269 246.155 223.096 246.309C226.763 246.554 231.82 248.524 237.225 252.115C239.953 253.853 242.861 255.9 246.245 257.612C247.93 258.462 249.745 259.208 251.675 259.71C253.618 260.199 255.677 260.405 257.787 260.264C262.007 259.993 266.254 258.333 270.268 256.054C274.321 253.789 278.117 250.828 282.183 247.996C286.237 245.177 290.419 242.589 294.948 241.199C297.2 240.491 299.516 240.13 301.781 240.092C304.058 240.079 306.271 240.414 308.369 240.916C312.563 241.945 316.321 243.58 319.859 244.971C323.385 246.374 326.73 247.545 329.896 248.112C333.061 248.691 336.008 248.639 338.478 248.034C340.962 247.468 342.956 246.451 344.397 245.383C345.851 244.327 346.739 243.22 347.267 242.435C347.82 241.637 348.039 241.186 348.065 241.199Z" fill="#FAFAFA"/>
<path d="M397.307 222.378C397.332 222.391 397.242 222.559 397.049 222.88C396.882 223.215 396.56 223.653 396.123 224.219C395.235 225.313 393.652 226.717 391.362 227.824C389.072 228.931 386.099 229.703 382.741 229.845C379.382 229.999 375.728 229.471 371.958 228.854C368.188 228.236 364.598 227.631 361.317 227.631C358.035 227.618 355.089 228.158 352.785 229.047C350.469 229.922 348.797 231.106 347.793 232.046C346.776 232.986 346.326 233.629 346.275 233.591C346.262 233.578 346.365 233.411 346.57 233.115C346.776 232.806 347.124 232.381 347.613 231.866C348.591 230.849 350.263 229.574 352.618 228.609C354.973 227.643 357.984 227.038 361.329 227.026C364.688 227 368.316 227.592 372.087 228.21C375.857 228.828 379.46 229.368 382.728 229.253C385.996 229.137 388.917 228.442 391.169 227.425C393.421 226.395 395.003 225.107 395.93 224.078C396.856 223.022 397.242 222.34 397.307 222.378Z" fill="#FAFAFA"/>
<path d="M407.896 254.136C407.921 254.149 407.844 254.33 407.677 254.677C407.51 255.012 407.291 255.54 406.905 256.145C406.184 257.393 404.975 259.131 403.07 260.908C402.131 261.809 401.012 262.684 399.738 263.534C398.451 264.358 397.01 265.13 395.401 265.761C392.21 267.01 388.35 267.64 384.4 267.177C380.449 266.765 376.847 265.709 373.54 265.001C370.246 264.255 367.209 263.894 364.674 263.997C362.126 264.075 360.119 264.602 358.794 265.117C357.468 265.632 356.799 266.07 356.761 266.018C356.748 265.993 356.902 265.877 357.224 265.671C357.533 265.452 358.034 265.182 358.691 264.886C360.003 264.281 362.049 263.663 364.648 263.534C367.235 263.379 370.336 263.688 373.668 264.409C377.001 265.091 380.604 266.108 384.477 266.52C388.337 266.971 392.056 266.379 395.183 265.194C396.74 264.589 398.168 263.856 399.442 263.07C400.69 262.259 401.809 261.423 402.749 260.56C404.653 258.861 405.901 257.2 406.686 256.003C407.471 254.819 407.831 254.098 407.896 254.136Z" fill="#FAFAFA"/>
<path d="M221.255 293.605C221.191 293.502 223.443 293.386 226.286 290.915C227.715 289.73 229.22 288.018 231.035 286.087C232.862 284.156 235.216 282.187 238.099 280.462C241.007 278.788 244.468 277.346 248.418 276.831C250.387 276.561 252.446 276.522 254.556 276.806C256.666 277.076 258.764 277.72 260.81 278.556C264.94 280.23 268.878 282.727 273.227 284.658C275.401 285.611 277.705 286.409 280.124 286.718C281.333 286.885 282.556 286.898 283.778 286.821C285.001 286.705 286.223 286.46 287.432 286.113C292.271 284.697 296.453 281.903 300.737 279.728C305.022 277.514 309.384 275.84 313.656 274.656C322.2 272.261 330.242 271.695 336.921 272.043C343.612 272.403 348.926 273.6 352.503 274.63C354.305 275.119 355.668 275.621 356.595 275.969C357.02 276.136 357.367 276.252 357.637 276.355C357.869 276.445 357.985 276.497 357.985 276.51C357.985 276.522 357.856 276.484 357.611 276.419C357.341 276.329 356.981 276.226 356.543 276.098C355.604 275.802 354.24 275.338 352.426 274.888C348.836 273.935 343.534 272.828 336.895 272.519C330.268 272.236 322.277 272.841 313.824 275.248C309.603 276.445 305.28 278.106 301.046 280.307C296.8 282.47 292.605 285.289 287.625 286.757C286.39 287.104 285.116 287.362 283.842 287.477C282.569 287.568 281.282 287.555 280.034 287.374C277.525 287.053 275.17 286.229 272.957 285.263C268.543 283.294 264.619 280.796 260.565 279.136C258.545 278.299 256.499 277.668 254.466 277.385C252.42 277.102 250.413 277.127 248.483 277.372C244.623 277.861 241.213 279.239 238.33 280.861C235.474 282.521 233.132 284.439 231.292 286.332C229.452 288.224 227.908 289.936 226.441 291.108C224.987 292.292 223.661 292.961 222.709 293.27C221.783 293.592 221.255 293.605 221.255 293.605Z" fill="#FAFAFA"/>
<path d="M205.685 279.728C205.634 279.818 205.119 278.93 203.575 278.621C202.816 278.479 201.851 278.492 200.744 278.673C199.638 278.827 198.39 279.136 196.961 279.342C195.533 279.522 193.886 279.445 192.252 278.917C190.618 278.389 189.022 277.45 187.555 276.227C186.088 275.004 184.776 273.459 183.618 271.734C182.485 269.996 181.572 268.039 180.748 266.031C179.101 261.989 177.866 258.037 176.039 254.78C174.302 251.485 171.806 249.103 169.399 247.674C168.203 246.953 167.006 246.49 165.938 246.207C164.857 245.962 163.892 245.872 163.107 245.911C161.537 245.988 160.701 246.335 160.688 246.258C160.675 246.232 160.881 246.155 161.28 246.014C161.679 245.859 162.284 245.73 163.094 245.653C163.892 245.576 164.896 245.627 166.028 245.846C167.148 246.104 168.383 246.554 169.644 247.262C172.153 248.678 174.765 251.111 176.579 254.484C178.471 257.792 179.745 261.783 181.366 265.774C182.19 267.769 183.077 269.687 184.171 271.374C185.291 273.047 186.552 274.553 187.954 275.75C189.357 276.948 190.875 277.862 192.432 278.389C193.976 278.917 195.52 279.02 196.91 278.879C199.676 278.505 202.018 277.926 203.64 278.376C204.437 278.57 204.978 278.943 205.287 279.226C205.57 279.535 205.698 279.715 205.685 279.728Z" fill="#FAFAFA"/>
<path d="M217.91 241.791C217.922 241.817 217.768 241.881 217.485 241.984C217.202 242.113 216.764 242.229 216.185 242.345C215.04 242.577 213.277 242.577 211.257 241.959C209.237 241.341 207.011 240.092 204.939 238.238C202.868 236.385 201.04 233.939 199.136 231.429C197.232 228.918 195.366 226.562 193.268 224.863C191.171 223.177 188.919 222.121 186.951 221.684C184.969 221.233 183.283 221.388 182.19 221.684C181.083 221.98 180.53 222.302 180.491 222.237C180.478 222.211 180.62 222.134 180.877 221.98C181.134 221.812 181.559 221.632 182.112 221.439C183.219 221.053 184.969 220.821 187.041 221.233C189.112 221.632 191.467 222.675 193.654 224.4C195.842 226.138 197.759 228.532 199.664 231.042C201.568 233.565 203.356 235.973 205.351 237.801C207.333 239.616 209.469 240.877 211.399 241.521C213.329 242.177 215.014 242.242 216.134 242.1C217.279 241.959 217.884 241.714 217.91 241.791Z" fill="#FAFAFA"/>
<path d="M278.411 54.6168C263.459 20.8765 219.529 40.9198 219.529 40.9198C198.813 48.5278 195.879 71.841 200.665 87.7392C205.98 105.401 213.16 126.77 219.98 138.884C233.696 163.253 254.76 159.185 254.76 159.185L261.799 176.538C267.962 191.728 285.346 198.963 300.452 192.616C315.096 186.476 322.224 169.818 316.575 154.975L278.411 54.6168Z" fill="#F9B9B4"/>
<path d="M215.287 104.68C215.866 106.456 216.985 107.705 217.783 107.461C218.581 107.216 218.761 105.594 218.182 103.805C217.603 102.028 216.483 100.779 215.686 101.011C214.888 101.256 214.708 102.891 215.287 104.68Z" fill="#251A51"/>
<path d="M208.491 99.2606C209.057 99.5438 210.884 96.7503 214.461 95.4244C218.013 94.0599 221.32 94.9224 221.539 94.3431C221.654 94.0727 220.947 93.4548 219.493 93.0429C218.064 92.6309 215.851 92.5408 213.625 93.3776C211.399 94.2143 209.842 95.7334 209.07 96.9692C208.298 98.2179 208.208 99.1447 208.491 99.2606Z" fill="#251A51"/>
<path d="M250.387 93.1588C250.966 94.9353 252.163 96.1582 253.064 95.8879C253.964 95.6175 254.222 93.9569 253.643 92.1804C253.064 90.404 251.867 89.181 250.966 89.4514C250.066 89.7217 249.808 91.3823 250.387 93.1588Z" fill="#251A51"/>
<path d="M243.618 86.2201C244.197 86.5033 246.024 83.697 249.589 82.3839C253.14 81.0194 256.447 81.8819 256.666 81.3026C256.781 81.0322 256.074 80.4143 254.62 80.0024C253.191 79.5905 250.978 79.5003 248.752 80.3371C246.526 81.1738 244.969 82.6929 244.197 83.9287C243.425 85.1774 243.348 86.1042 243.618 86.2201Z" fill="#251A51"/>
<path d="M242.654 118.918C242.589 118.712 240.234 119.149 236.464 120.025C235.512 120.269 234.586 120.411 234.2 119.844C233.736 119.265 233.762 118.145 233.801 116.909C233.839 114.386 233.878 111.734 233.917 108.954C233.994 97.6641 233.685 88.5243 233.235 88.5243C232.784 88.5243 232.347 97.677 232.27 108.954C232.27 111.734 232.27 114.373 232.282 116.909C232.321 118.081 232.167 119.471 233.132 120.668C233.633 121.261 234.483 121.505 235.126 121.441C235.782 121.402 236.297 121.222 236.76 121.08C240.453 119.947 242.705 119.136 242.654 118.918Z" fill="#251A51"/>
<path d="M254.775 159.198C254.775 159.198 272.61 153.855 286.018 137.082C286.018 137.082 275.376 153.907 254.904 159.506L254.775 159.198Z" fill="#251A51"/>
<path d="M248.74 130.632C247.672 129.821 247.183 128.328 247.556 127.041C247.929 125.753 249.139 124.749 250.464 124.634C249.846 123.475 250.284 121.917 251.3 121.081C252.317 120.244 253.771 120.064 255.045 120.398C257.515 121.042 259.304 123.578 259.214 126.127C259.124 128.676 257.245 131.031 254.813 131.804C252.381 132.576 249.563 131.791 247.775 129.963" fill="#EA7171"/>
<path d="M254.078 117.489C253.487 117.669 254.915 121.557 252.624 125.535C250.334 129.525 246.036 130.619 246.216 131.173C246.255 131.43 247.413 131.585 249.176 130.98C250.913 130.401 253.203 128.92 254.606 126.487C256.009 124.041 256.034 121.467 255.584 119.832C255.121 118.171 254.336 117.373 254.078 117.489Z" fill="#251A51"/>
<path d="M260.124 96.609C260.111 97.0596 259.751 97.42 259.313 97.4071C258.876 97.3943 258.528 97.0209 258.541 96.5704C258.554 96.1198 258.915 95.7594 259.365 95.7723C259.79 95.7851 260.137 96.1585 260.124 96.609Z" fill="#251A51"/>
<path d="M345.991 160.305C345.991 160.241 343.392 132.821 322.238 113.923C301.071 94.9998 329.752 87.6879 311.352 62.727C305.278 54.4882 298.523 46.9961 289.824 41.6151C288.28 40.6625 286.839 39.5297 285.488 38.3454C281.898 35.1786 278.771 31.4711 274.872 28.6906C271.939 26.6051 268.387 25.0861 264.862 25.0346C262.726 24.1592 260.487 23.4898 258.132 23.1423C247.812 21.5846 237.583 25.7426 227.958 29.7976C218.655 33.7239 193.64 32.7842 201.554 58.363C203.201 54.102 209.596 50.5877 214.614 54.7714C218.114 57.6936 219.89 60.2682 220.726 64.748C221.846 70.7083 223.596 77.3121 230.814 78.844C232.564 79.2174 234.404 79.1659 236.167 78.7668C242.189 77.4151 247.027 68.301 258.531 70.4637C258.531 70.4637 269.726 73.9394 270.382 80.981C271.038 88.0226 267.139 101.102 274.036 107.332C280.933 113.563 282.091 113.383 281.898 118.763C281.859 119.999 281.847 120.849 281.782 121.467C280.907 129.976 279.44 166.973 317.168 160.691L329.855 159.919L345.991 160.305Z" fill="#251A51"/>
<path d="M266.803 28.7805C268.463 21.0181 272.143 13.5646 278.023 8.24797C283.904 2.93139 292.113 -0.0165387 299.936 1.28364C307.76 2.58382 314.863 8.49256 316.703 16.2164C318.543 23.9274 314.374 32.887 306.962 35.6934C301.352 37.8174 295.111 36.4271 289.115 36.2855C283.119 36.1439 276.093 38.0749 273.983 43.6875" fill="#251A51"/>
<path d="M290.788 34.3417C290.633 32.7711 289.295 31.5611 287.841 30.9432C286.4 30.3253 284.804 30.145 283.299 29.6816C281.099 29.0122 279.091 27.7378 277.56 26.0385C276.273 24.6225 275.321 22.9232 274.06 21.4814C272.799 20.0397 271.088 18.8167 269.17 18.8167C267.652 18.8167 266.159 19.6535 265.362 20.9408C264.564 22.2281 264.5 23.9402 265.182 25.3047C270.02 29.2568 274.922 33.5049 280.429 36.4657C282.36 37.4956 284.418 38.5511 286.593 38.4224C288.768 38.3066 291.006 36.5172 290.788 34.3417Z" fill="#407BFF"/>
<path d="M360.634 164.514C360.609 164.514 360.647 164.141 360.725 163.446C360.827 162.751 360.892 161.721 360.969 160.395C361.085 157.756 360.943 153.868 359.772 149.285C358.614 144.715 356.324 139.412 352.296 134.623C348.307 129.783 342.543 125.856 336.418 121.994C330.28 118.145 324.4 114.296 320.128 109.572C317.979 107.242 316.242 104.719 315.045 102.157C313.836 99.5953 313.231 96.9821 313.038 94.5877C312.613 89.7603 313.977 85.8855 315.38 83.6327C316.1 82.4999 316.782 81.7018 317.284 81.2126C317.799 80.7234 318.069 80.4788 318.082 80.5046C318.159 80.5689 316.962 81.4958 315.598 83.7743C314.273 86.0271 313.025 89.8247 313.501 94.5491C313.72 96.892 314.337 99.428 315.534 101.925C316.718 104.423 318.442 106.882 320.565 109.16C324.799 113.781 330.628 117.592 336.765 121.441C342.89 125.29 348.719 129.281 352.76 134.237C356.826 139.129 359.103 144.535 360.223 149.182C361.355 153.842 361.419 157.769 361.226 160.421C361.111 161.747 360.995 162.776 360.853 163.472C360.725 164.154 360.66 164.514 360.634 164.514Z" fill="#251A51"/>
<path d="M279.131 35.5387C279.157 35.5515 279.002 35.8862 278.693 36.5041C278.398 37.1349 277.921 38.036 277.252 39.1817C275.914 41.4603 273.817 44.6914 270.613 48.18C267.447 51.6944 263.175 55.4662 257.784 58.6844C255.082 60.2678 252.148 61.7997 248.88 62.8553C245.637 63.8852 242.008 64.5417 238.367 63.8337C236.565 63.4732 234.841 62.7523 233.374 61.7096C231.907 60.6798 230.698 59.3538 229.681 57.9635C227.674 55.1572 226.349 52.1321 224.843 49.4287C224.097 48.077 223.299 46.7897 222.424 45.6183C221.562 44.4339 220.533 43.4685 219.49 42.5931C217.342 40.9067 214.961 39.8511 212.722 39.259C208.193 38.0747 204.281 38.7054 201.836 39.5422C199.353 40.3918 198.169 41.2801 198.118 41.2028C198.105 41.1899 198.401 40.984 198.993 40.6106C199.276 40.4176 199.662 40.1987 200.125 39.9927C200.575 39.761 201.116 39.5036 201.746 39.2976C204.204 38.3707 208.18 37.6498 212.838 38.7955C215.141 39.3748 217.599 40.4304 219.838 42.1554C220.919 43.0565 222 44.0606 222.887 45.2578C223.801 46.4421 224.612 47.7552 225.371 49.1197C226.915 51.8488 228.24 54.8483 230.209 57.5645C231.187 58.9162 232.345 60.1777 233.748 61.1561C235.137 62.1473 236.758 62.8296 238.483 63.1771C241.944 63.8594 245.483 63.2415 248.661 62.2374C251.852 61.2076 254.773 59.7143 257.449 58.1566C262.802 55.0156 267.061 51.3082 270.24 47.8711C273.456 44.4468 275.592 41.2672 276.995 39.053C277.69 37.933 278.205 37.0577 278.539 36.4526C278.925 35.8347 279.118 35.5258 279.131 35.5387Z" fill="#9A8CEA"/>
<path d="M282.864 38.1135C282.915 38.1135 283.005 38.7443 283.134 39.9029C283.185 40.4822 283.185 41.1902 283.211 42.027C283.172 42.8508 283.16 43.8034 283.005 44.8333C282.568 48.9527 280.728 54.6941 276.623 59.6502C274.59 62.1218 272.248 64.1171 269.88 65.5718C267.526 67.0393 265.222 67.9662 263.318 68.7901C261.414 69.5882 259.882 70.2576 258.84 70.7596C257.798 71.2617 257.232 71.5578 257.206 71.5063C257.18 71.4677 257.708 71.0943 258.724 70.5279C259.741 69.9615 261.246 69.2149 263.125 68.3524C264.991 67.477 267.268 66.5115 269.546 65.044C271.836 63.6022 274.114 61.6326 276.095 59.2254C280.11 54.398 281.976 48.8111 282.529 44.7818C283.16 40.6882 282.709 38.1135 282.864 38.1135Z" fill="#9A8CEA"/>
<path d="M325.041 158.039C325.016 158.039 325.029 157.666 325.054 156.945C325.093 156.237 325.144 155.181 325.119 153.829C325.08 151.126 324.771 147.187 323.497 142.527C322.815 140.21 321.928 137.712 320.705 135.151C319.457 132.602 317.887 129.989 315.944 127.465C314.001 124.942 311.659 122.522 308.97 120.347C306.268 118.171 303.205 116.214 300.323 113.859C298.882 112.674 297.518 111.4 296.347 109.997C295.163 108.593 294.198 107.049 293.452 105.427C291.985 102.183 291.367 98.7842 290.981 95.5917C290.608 92.3863 290.441 89.3354 290.145 86.5033C289.875 83.6712 289.347 81.0708 288.639 78.7666C287.237 74.1322 284.844 70.8754 282.746 69.2019C280.623 67.5412 279.105 67.1679 279.143 67.0778C279.156 67.0521 279.504 67.1808 280.186 67.4254C280.855 67.6957 281.807 68.1849 282.913 68.9959C285.101 70.6437 287.623 73.9392 289.103 78.625C289.849 80.955 290.415 83.594 290.711 86.4389C291.033 89.2839 291.213 92.3348 291.599 95.5144C292.011 98.6812 292.615 102.002 294.057 105.143C295.472 108.297 297.904 111.014 300.761 113.318C303.604 115.648 306.654 117.605 309.395 119.819C312.123 122.033 314.503 124.505 316.459 127.079C318.415 129.654 319.985 132.306 321.233 134.893C322.442 137.506 323.317 140.03 323.986 142.385C325.222 147.123 325.466 151.1 325.415 153.817C325.415 155.181 325.312 156.237 325.234 156.945C325.106 157.666 325.054 158.039 325.041 158.039Z" fill="#9A8CEA"/>
<path d="M315.276 11.6978C315.199 11.8522 313.178 10.0758 309.151 9.08453C305.201 8.06756 299.153 8.22203 293.581 11.1957C288.01 14.1951 284.355 18.8552 282.207 22.3567C281.126 24.1203 280.354 25.6136 279.852 26.6692C279.35 27.7119 279.08 28.304 279.028 28.2783C278.99 28.2654 279.183 27.6475 279.607 26.5533C280.045 25.472 280.752 23.9272 281.795 22.1121C283.854 18.5205 287.534 13.706 293.26 10.6164C298.999 7.53976 305.239 7.4754 309.254 8.63397C311.287 9.20039 312.831 9.9599 313.809 10.6036C314.324 10.8996 314.658 11.2086 314.916 11.3888C315.173 11.569 315.289 11.672 315.276 11.6978Z" fill="#9A8CEA"/>
<path d="M313.113 27.4674C313.049 27.5704 311.594 26.4891 308.931 25.3563C306.306 24.2234 302.369 23.155 297.981 23.3995C293.593 23.6441 289.797 25.1245 287.314 26.5534C284.804 27.9695 283.479 29.2182 283.402 29.1152C283.376 29.0894 283.672 28.7419 284.29 28.2012C284.895 27.6477 285.834 26.9139 287.082 26.1415C289.553 24.5839 293.439 22.9747 297.955 22.7301C302.471 22.4855 306.499 23.6441 309.137 24.9186C310.462 25.5494 311.479 26.1801 312.135 26.6564C312.804 27.1327 313.139 27.4288 313.113 27.4674Z" fill="#9A8CEA"/>
<path d="M229.462 389.381L115.598 379.765L213.557 351.148L316.6 351.316L229.462 389.381Z" fill="white"/>
<path d="M229.463 389.381C229.463 389.381 230.003 389.111 231.046 388.648C232.114 388.171 233.658 387.489 235.665 386.588C239.744 384.786 245.689 382.16 253.268 378.813C268.477 372.131 290.223 362.593 316.485 351.071L316.601 351.612C286.955 351.573 251.595 351.535 213.559 351.496L213.649 351.483C210.895 352.294 207.923 353.157 204.938 354.032C172.666 363.442 142.196 372.337 115.689 380.061L115.625 379.482C149.466 382.391 177.916 384.837 197.912 386.562C207.897 387.438 215.772 388.133 221.176 388.609C223.853 388.854 225.924 389.047 227.327 389.175C228.009 389.24 228.536 389.291 228.91 389.33C229.283 389.343 229.463 389.381 229.463 389.381C229.463 389.381 229.283 389.381 228.935 389.356C228.562 389.33 228.047 389.291 227.366 389.24C225.95 389.137 223.891 388.969 221.215 388.763C215.811 388.326 207.936 387.695 197.951 386.884C177.929 385.223 149.453 382.855 115.573 380.048L113.965 379.92L115.509 379.469C142.016 371.72 172.473 362.811 204.732 353.375C207.717 352.5 210.689 351.638 213.443 350.827L213.494 350.814H213.546C251.582 350.891 286.955 350.968 316.588 351.033H317.939L316.704 351.573C290.377 363.017 268.58 372.492 253.332 379.122C245.727 382.404 239.77 384.979 235.678 386.742C233.658 387.605 232.101 388.274 231.033 388.725C230.003 389.175 229.463 389.381 229.463 389.381Z" fill="#263238"/>
<path d="M115.602 379.765L6.07422 371.668L110.532 351.908H209.521L115.602 379.765Z" fill="#E0E0E0"/>
<path d="M115.601 379.765C115.601 379.765 116.18 379.559 117.313 379.211C118.458 378.864 120.131 378.349 122.305 377.68C126.706 376.354 133.127 374.423 141.31 371.964C157.716 367.072 181.174 360.069 209.431 351.637L209.508 352.191C180.865 352.204 146.933 352.217 110.519 352.242H110.583C107.598 352.809 104.394 353.414 101.177 354.019C66.6278 360.545 34.1117 366.686 6.12508 371.964L6.08647 371.385C38.7569 373.843 66.1259 375.916 85.337 377.358C94.9232 378.104 102.489 378.684 107.662 379.083C110.235 379.289 112.204 379.456 113.555 379.559C114.212 379.623 114.713 379.662 115.074 379.688C115.434 379.726 115.601 379.765 115.601 379.765C115.601 379.765 115.434 379.765 115.087 379.752C114.726 379.726 114.224 379.701 113.581 379.662C112.23 379.572 110.261 379.443 107.688 379.276C102.515 378.915 94.9618 378.388 85.3627 377.705C66.1259 376.315 38.744 374.333 6.04787 371.977L3.7832 371.809L6.00927 371.385C33.9831 366.081 66.4991 359.915 101.048 353.362C104.278 352.757 107.482 352.152 110.454 351.586H110.48H110.506C146.921 351.599 180.852 351.624 209.495 351.637H211.464L209.572 352.191C181.264 360.533 157.781 367.458 141.336 372.299C133.14 374.693 126.706 376.572 122.305 377.86C120.118 378.491 118.445 378.967 117.3 379.302C116.193 379.61 115.601 379.765 115.601 379.765Z" fill="#263238"/>
<path d="M115.6 379.765C115.6 379.765 113.04 355.963 93.2882 357.919C73.5367 359.876 47.3386 373.135 25.7986 373.135L2.67578 371.333L51.9838 361.176C51.9838 361.176 174.366 335.314 174.366 336.125C174.366 336.936 215.529 327.024 214.062 351.431L115.6 379.765Z" fill="white"/>
<path d="M115.601 379.765C115.601 379.765 116.231 379.559 117.415 379.211C118.625 378.851 120.388 378.336 122.678 377.666C127.284 376.328 134.027 374.358 142.622 371.848C159.8 366.866 184.364 359.747 213.972 351.161L213.766 351.418C213.882 349.23 213.702 346.951 212.891 344.866C212.107 342.768 210.691 340.901 208.864 339.524C205.158 336.743 200.307 335.713 195.508 335.301C190.669 334.915 185.677 335.198 180.659 335.765C179.398 335.919 178.137 336.086 176.876 336.241C176.245 336.318 175.615 336.421 174.958 336.473C174.791 336.486 174.649 336.511 174.405 336.486L174.289 336.46C174.263 336.46 174.135 336.383 174.096 336.28C174.07 336.138 174.006 336.099 174.122 336.331C174.315 336.473 174.289 336.408 174.276 336.421C174.289 336.421 174.251 336.421 174.238 336.421L174.019 336.434L173.08 336.576C170.545 337 167.997 337.502 165.424 337.992C144.861 342.06 123.051 346.63 100.456 351.328C82.8918 355.01 65.8167 358.589 49.4493 362.013C33.0691 365.373 17.4223 368.591 2.72768 371.616L2.68907 371.024C10.7184 371.655 18.4259 372.26 25.8119 372.839H25.7861C33.6095 372.736 41.034 371.269 47.931 369.479C54.8408 367.69 61.3002 365.656 67.3865 363.815C73.4728 361.974 79.1988 360.314 84.5903 359.155C87.2796 358.576 89.8917 358.125 92.4008 357.842C94.91 357.52 97.3677 357.572 99.6066 358.061C104.162 359 107.52 361.807 109.682 364.575C111.869 367.394 113.066 370.2 113.889 372.491C114.7 374.796 115.099 376.624 115.331 377.86C115.575 379.108 115.601 379.765 115.601 379.765C115.601 379.765 115.562 379.597 115.511 379.288C115.459 378.98 115.382 378.503 115.241 377.885C114.983 376.662 114.559 374.834 113.722 372.556C112.873 370.29 111.651 367.51 109.476 364.742C107.327 362.013 104.007 359.284 99.5294 358.383C97.3162 357.906 94.91 357.868 92.4266 358.202C89.9303 358.498 87.3439 358.949 84.6675 359.541C79.3018 360.713 73.6015 362.399 67.5152 364.253C61.4289 366.106 54.9695 368.179 48.0468 369.981C41.137 371.796 33.6867 373.29 25.7733 373.418H25.7604H25.7475C18.3616 372.852 10.654 372.26 2.62474 371.642L0.527344 371.462L2.61187 371.024C17.3065 367.986 32.9533 364.755 49.3335 361.382C65.7009 357.945 82.776 354.366 100.327 350.672C122.922 345.973 144.72 341.416 165.308 337.361C167.881 336.859 170.429 336.37 172.99 335.945C175.576 335.88 178.059 335.366 180.607 335.121C185.651 334.555 190.669 334.271 195.572 334.67C200.423 335.095 205.364 336.138 209.224 339.034C211.142 340.463 212.621 342.446 213.432 344.634C214.268 346.835 214.448 349.178 214.333 351.431L214.32 351.624L214.127 351.676C184.403 360.159 159.749 367.201 142.507 372.131C133.924 374.564 127.194 376.482 122.588 377.782C120.31 378.426 118.56 378.915 117.364 379.25C116.193 379.61 115.601 379.765 115.601 379.765Z" fill="#263238"/>
<path d="M227.044 381.428C224.972 381.428 151.77 375.687 151.77 375.687L227.044 381.428Z" fill="white"/>
<path d="M151.77 375.672C151.77 375.646 152.04 375.646 152.542 375.659C153.121 375.684 153.841 375.723 154.742 375.762C156.736 375.89 159.477 376.058 162.81 376.277C169.707 376.779 179.074 377.461 189.42 378.208C199.778 379.032 209.133 379.791 216.03 380.332C219.362 380.628 222.103 380.872 224.097 381.053C224.985 381.143 225.719 381.22 226.285 381.284C226.787 381.349 227.044 381.387 227.044 381.413C227.044 381.439 226.787 381.439 226.285 381.426C225.706 381.4 224.985 381.362 224.097 381.323C222.103 381.194 219.375 381.027 216.03 380.808C209.133 380.306 199.765 379.624 189.407 378.877C179.048 378.053 169.681 377.294 162.797 376.753C159.464 376.457 156.723 376.212 154.742 376.032C153.854 375.942 153.121 375.865 152.554 375.8C152.027 375.736 151.77 375.697 151.77 375.672Z" fill="#263238"/>
<path d="M239.14 376.445C237.068 376.445 163.865 370.704 163.865 370.704L239.14 376.445Z" fill="white"/>
<path d="M163.854 370.702C163.854 370.677 164.124 370.677 164.626 370.69C165.205 370.715 165.925 370.754 166.826 370.793C168.82 370.921 171.561 371.089 174.894 371.307C181.791 371.81 191.158 372.492 201.504 373.238C211.862 374.062 221.217 374.822 228.113 375.362C231.446 375.659 234.187 375.903 236.181 376.083C237.069 376.173 237.803 376.251 238.369 376.315C238.871 376.379 239.128 376.418 239.128 376.444C239.128 376.47 238.871 376.47 238.369 376.457C237.79 376.431 237.069 376.392 236.181 376.354C234.187 376.225 231.459 376.058 228.113 375.839C221.217 375.337 211.849 374.654 201.491 373.908C191.132 373.084 181.765 372.324 174.881 371.784C171.548 371.488 168.807 371.243 166.826 371.063C165.938 370.973 165.205 370.896 164.638 370.831C164.124 370.767 163.854 370.715 163.854 370.702Z" fill="#263238"/>
<path d="M258.326 370.704C256.254 370.704 179.564 366.121 179.564 366.121L258.326 370.704Z" fill="white"/>
<path d="M179.564 366.12C179.564 366.094 179.848 366.094 180.375 366.094C180.967 366.107 181.739 366.133 182.678 366.158C184.763 366.249 187.619 366.377 191.119 366.545C198.325 366.944 208.13 367.472 218.965 368.064C229.799 368.733 239.604 369.338 246.81 369.776C250.31 370.02 253.166 370.226 255.251 370.368C256.19 370.445 256.949 370.51 257.541 370.561C258.069 370.613 258.339 370.651 258.339 370.677C258.339 370.703 258.069 370.703 257.541 370.703C256.949 370.69 256.19 370.664 255.251 370.638C253.166 370.548 250.31 370.419 246.81 370.252C239.604 369.853 229.799 369.325 218.952 368.733C208.117 368.064 198.312 367.459 191.107 367.021C187.607 366.776 184.75 366.57 182.666 366.429C181.726 366.352 180.967 366.287 180.375 366.236C179.848 366.184 179.564 366.146 179.564 366.12Z" fill="#263238"/>
<path d="M274.835 364.421C272.763 364.421 195.275 361.551 195.275 361.551L274.835 364.421Z" fill="white"/>
<path d="M195.275 361.537C195.275 361.511 195.558 361.498 196.086 361.498C196.691 361.498 197.463 361.511 198.402 361.524C200.5 361.575 203.395 361.64 206.933 361.73C214.203 361.962 224.111 362.296 235.061 362.644C246.012 363.081 255.907 363.468 263.19 363.764C266.728 363.931 269.611 364.073 271.708 364.176C272.66 364.24 273.419 364.279 274.024 364.317C274.552 364.356 274.835 364.394 274.835 364.42C274.835 364.446 274.552 364.459 274.024 364.459C273.419 364.459 272.66 364.446 271.708 364.433C269.611 364.382 266.715 364.317 263.177 364.227C255.907 363.995 245.999 363.661 235.049 363.313C224.098 362.876 214.203 362.489 206.92 362.193C203.382 362.026 200.5 361.884 198.402 361.781C197.45 361.717 196.691 361.678 196.086 361.64C195.558 361.601 195.275 361.562 195.275 361.537Z" fill="#263238"/>
<path d="M289.542 357.276C287.47 357.276 210.986 356.954 210.986 356.954L289.542 357.276Z" fill="white"/>
<path d="M211 356.967C211 356.786 228.59 356.709 250.271 356.786C271.966 356.877 289.556 357.095 289.556 357.276C289.556 357.456 271.966 357.533 250.271 357.456C228.577 357.366 210.987 357.147 211 356.967Z" fill="#263238"/>
<path d="M97.3147 351.959C97.3018 351.92 97.8422 351.727 98.8588 351.496C99.8624 351.264 101.355 351.032 103.221 350.994C106.914 350.878 112.215 351.753 117.066 354.83C121.917 357.906 124.967 362.335 126.434 365.733C127.18 367.433 127.617 368.887 127.836 369.891C128.055 370.908 128.119 371.475 128.081 371.488C127.939 371.526 127.592 369.235 126.009 365.939C124.465 362.657 121.428 358.409 116.719 355.409C112.009 352.423 106.862 351.483 103.247 351.483C99.5665 351.431 97.3404 352.101 97.3147 351.959Z" fill="#263238"/>
<path d="M109.348 348.767C109.335 348.728 109.875 348.535 110.892 348.303C111.896 348.072 113.388 347.84 115.254 347.801C118.947 347.685 124.248 348.561 129.099 351.637C133.95 354.714 137 359.142 138.467 362.541C139.213 364.24 139.651 365.695 139.869 366.699C140.088 367.716 140.153 368.282 140.114 368.295C139.972 368.334 139.625 366.042 138.042 362.747C136.498 359.464 133.461 355.216 128.752 352.217C124.042 349.23 118.896 348.29 115.28 348.29C111.6 348.252 109.374 348.908 109.348 348.767Z" fill="#263238"/>
<path d="M121.817 346.552C121.804 346.514 122.344 346.32 123.335 346.076C124.326 345.831 125.78 345.548 127.607 345.381C129.434 345.226 131.634 345.239 134.041 345.677C136.434 346.127 139.008 347.054 141.362 348.599C146.11 351.689 149.096 356.065 150.524 359.412C151.257 361.099 151.682 362.528 151.901 363.519C152.119 364.523 152.171 365.077 152.132 365.089C152.004 365.128 151.656 362.862 150.099 359.605C148.581 356.361 145.609 352.152 141.002 349.153C136.408 346.089 131.184 345.638 127.646 345.831C124.03 346.063 121.842 346.681 121.817 346.552Z" fill="#263238"/>
<path d="M135.108 343.811C135.095 343.772 135.609 343.592 136.562 343.334C137.514 343.077 138.916 342.755 140.679 342.549C142.442 342.343 144.591 342.279 146.92 342.742C149.249 343.193 151.694 344.235 153.92 345.793C158.436 348.895 161.254 353.169 162.631 356.426C163.326 358.061 163.725 359.451 163.944 360.417C164.149 361.382 164.201 361.936 164.162 361.936C164.034 361.975 163.686 359.786 162.206 356.619C160.752 353.478 157.947 349.359 153.547 346.347C151.372 344.828 149.03 343.811 146.791 343.347C144.552 342.871 142.455 342.871 140.731 343.025C137.257 343.334 135.133 343.939 135.108 343.811Z" fill="#263238"/>
<path d="M148.785 341.661C148.773 341.622 149.274 341.442 150.175 341.171C151.076 340.901 152.388 340.515 154.048 340.167C155.695 339.82 157.767 339.524 160.032 339.936C162.283 340.36 164.574 341.532 166.645 343.077C170.866 346.192 173.478 350.311 174.765 353.439C175.421 355.01 175.781 356.336 175.987 357.263C176.18 358.19 176.232 358.717 176.193 358.717C176.064 358.743 175.73 356.671 174.34 353.62C172.963 350.595 170.364 346.63 166.247 343.604C164.213 342.085 162.039 340.953 159.916 340.528C157.78 340.103 155.785 340.335 154.138 340.618C150.844 341.262 148.811 341.776 148.785 341.661Z" fill="#263238"/>
<path d="M142.531 305.397C146.005 306.002 149.531 305.101 153.057 304.934C156.57 304.766 160.571 305.654 162.386 308.68C163.75 310.958 163.492 313.919 162.386 316.326C161.279 318.734 159.413 320.716 157.599 322.647" fill="#F9B9B4"/>
<path d="M167.198 332.469L112.601 262.491C112.177 261.95 111.392 261.847 110.851 262.272L106.399 265.748C105.859 266.173 105.756 266.958 106.18 267.499L160.777 337.464C161.202 338.004 161.987 338.107 162.527 337.683L166.979 334.207C167.52 333.795 167.622 333.01 167.198 332.469Z" fill="#263238"/>
<path d="M111.329 264.088L107.186 258.771C106.993 258.526 106.645 258.488 106.401 258.668L104.407 260.226C104.162 260.419 104.123 260.766 104.304 261.011L108.447 266.328C108.64 266.572 108.987 266.611 109.232 266.43L111.226 264.873C111.484 264.68 111.522 264.332 111.329 264.088Z" fill="#263238"/>
<path d="M159.557 335.778L168.525 342.678L169.452 341.957L166.827 332.469L159.557 335.778Z" fill="#263238"/>
<path d="M124.788 294.906C124.736 294.906 124.697 294.88 124.659 294.842L107.365 272.687C105.255 269.984 105.409 266.328 107.7 264.538L108.536 263.895C108.6 263.843 108.703 263.856 108.768 263.92C108.819 263.985 108.806 264.088 108.742 264.152L107.918 264.796C105.769 266.482 105.641 269.932 107.648 272.494L124.942 294.648C124.993 294.713 124.981 294.816 124.916 294.88C124.852 294.893 124.813 294.906 124.788 294.906Z" fill="#263238"/>
<path d="M134.645 298.446C134.645 298.446 129.035 293.67 124.814 294.236C120.606 294.803 106.568 309.967 106.002 318.953C105.436 327.938 101.794 333.28 108.254 336.923C114.713 340.579 124.814 346.475 131.557 344.506C131.557 344.506 143.433 345.857 144.771 342.678C144.771 342.678 155.194 346.012 155.979 338.893C155.979 338.893 163.455 337.709 162.992 333.139C162.541 328.569 134.645 298.446 134.645 298.446Z" fill="#F9B9B4"/>
<path d="M155.978 338.893C155.849 339.022 149.351 332.959 141.463 325.325C133.576 317.704 127.283 311.409 127.412 311.28C127.541 311.152 134.039 317.215 141.939 324.848C149.814 332.469 156.106 338.751 155.978 338.893Z" fill="#251A51"/>
<path d="M144.772 342.678C144.746 342.716 144.322 342.549 143.55 342.201C142.778 341.867 141.71 341.3 140.41 340.541C137.811 339.035 134.427 336.614 130.952 333.641C127.478 330.667 124.506 327.796 122.357 325.711C121.379 324.745 120.543 323.909 119.848 323.214C119.256 322.621 118.947 322.274 118.986 322.235C119.011 322.197 119.385 322.48 120.028 323.02C120.671 323.561 121.572 324.359 122.691 325.363C124.918 327.359 127.941 330.165 131.403 333.126C134.864 336.074 138.158 338.532 140.68 340.129C143.176 341.751 144.823 342.575 144.772 342.678Z" fill="#251A51"/>
<path d="M131.878 344.029C131.84 344.107 130.604 343.656 128.7 342.691C126.796 341.725 124.261 340.232 121.584 338.378C118.908 336.524 116.605 334.684 115.022 333.268C113.426 331.851 112.539 330.873 112.603 330.809C112.667 330.732 113.671 331.594 115.331 332.907C116.991 334.22 119.32 335.984 121.97 337.825C124.621 339.665 127.104 341.21 128.932 342.266C130.759 343.334 131.93 343.939 131.878 344.029Z" fill="#251A51"/>
<path d="M397.859 302.655C397.859 302.655 386.459 296.412 371.146 299.398C355.834 302.385 323.756 310.032 312.664 311.319C301.572 312.593 254.709 323.072 254.709 323.072L259.637 350.916L412.515 350.582C415.32 333.795 420.48 312.979 397.859 302.655Z" fill="#F9B9B4"/>
<path d="M249.385 350.917H259.641L276.175 318.386C274.052 318.026 229.904 311.499 227.305 312.207L216.715 349.835C216.728 349.835 248.446 350.917 249.385 350.917Z" fill="#F9B9B4"/>
<path d="M219.198 350.44C219.237 350.505 219.494 350.556 219.931 350.608C223.573 351.007 240.416 349.977 240.416 349.977C241.188 347.801 239.734 341.262 237.637 340.888C235.54 340.502 217.615 341.712 217.615 341.712C217.615 341.712 214.797 342.086 214.09 346.823C213.665 349.758 219.198 350.44 219.198 350.44Z" fill="#F9B9B4"/>
<path d="M213.511 340.863C213.549 340.927 213.806 340.979 214.244 341.03C217.885 341.429 233.802 341.249 234.497 339.318C235.269 337.142 234.047 331.697 231.95 331.311C229.852 330.925 211.928 332.135 211.928 332.135C211.928 332.135 209.11 332.508 208.402 337.245C207.978 340.18 213.511 340.863 213.511 340.863Z" fill="#F9B9B4"/>
<path d="M210.692 331.504C210.73 331.568 210.987 331.62 211.425 331.671C215.066 332.07 230.983 331.89 231.678 329.959C232.45 327.784 231.228 322.338 229.131 321.952C227.033 321.566 209.109 322.776 209.109 322.776C209.109 322.776 206.291 323.149 205.583 327.887C205.146 330.834 210.692 331.504 210.692 331.504Z" fill="#F9B9B4"/>
<path d="M208.041 322.197C208.08 322.261 208.337 322.313 208.775 322.364C212.416 322.763 228.333 322.583 229.028 320.652C229.8 318.477 228.578 313.031 226.48 312.645C224.383 312.259 206.458 313.469 206.458 313.469C206.458 313.469 203.64 313.842 202.933 318.58C202.495 321.528 208.041 322.197 208.041 322.197Z" fill="#F9B9B4"/>
<path d="M232.98 340.798C232.954 341.069 229.48 341.39 225.234 341.519C220.974 341.635 217.539 341.519 217.565 341.249C217.59 340.978 221.052 340.657 225.311 340.528C229.57 340.399 233.006 340.515 232.98 340.798Z" fill="#251A51"/>
<path d="M233.07 331.401C233.082 331.671 228.141 332.058 222.055 332.251C215.956 332.444 211.015 332.379 211.002 332.096C210.989 331.826 215.93 331.44 222.016 331.247C228.116 331.066 233.057 331.131 233.07 331.401Z" fill="#251A51"/>
<path d="M232.31 321.862C232.323 322.146 227.382 322.519 221.295 322.712C215.196 322.905 210.255 322.841 210.242 322.557C210.229 322.274 215.17 321.901 221.257 321.708C227.356 321.515 232.31 321.592 232.31 321.862Z" fill="#251A51"/>
<path d="M257.864 315.966C257.864 315.966 227.818 302.604 225.94 304.535C224.061 306.466 221.166 312.671 221.166 312.671L257.864 315.966Z" fill="#F9B9B4"/>
</svg>
