<svg width="222" height="294" viewBox="0 0 222 294" fill="none" xmlns="http://www.w3.org/2000/svg">
<path d="M61.7345 175.025C60.1052 169.411 56.6656 163.979 51.2346 161.624C45.6226 159.27 39.1054 160.538 33.3124 162.711C27.5193 164.884 21.9073 167.6 15.7522 167.963C9.59709 168.325 2.71785 165.427 0.907523 159.632C-0.902804 154.199 2.53682 148.223 6.70057 144.239C15.3901 135.909 28.4245 132.287 40.1916 135.184C51.9587 138.082 62.0965 147.137 65.8982 158.546" fill="#FFF000"/>
<g opacity="0.5">
<g opacity="0.5">
<g opacity="0.5">
<g opacity="0.5">
<g opacity="0.5">
<g opacity="0.5">
<g opacity="0.5">
<path opacity="0.5" d="M61.7345 175.025C60.1052 169.411 56.6656 163.979 51.2346 161.624C45.6226 159.27 39.1054 160.538 33.3124 162.711C27.5193 164.884 21.9073 167.6 15.7522 167.963C9.59709 168.325 2.71785 165.427 0.907523 159.632C-0.902804 154.199 2.53682 148.223 6.70057 144.239C15.3901 135.909 28.4245 132.287 40.1916 135.184C51.9587 138.082 62.0965 147.137 65.8982 158.546" fill="black"/>
</g>
</g>
</g>
</g>
</g>
</g>
</g>
<path d="M110.251 199.654C119.302 191.143 118.759 176.293 114.233 164.703C109.708 153.113 99.9318 144.239 89.0699 138.444C67.8891 127.216 41.4583 126.31 19.7344 136.271C30.4153 136.633 40.9152 142.79 46.3462 151.845C51.2341 159.994 52.3203 169.954 56.484 178.466C61.0098 188.064 69.3373 195.851 79.1131 199.654C89.0699 203.638 100.475 203.638 110.251 199.654Z" fill="#FFF000"/>
<path d="M114.596 148.404C124.553 136.633 125.82 117.799 124.372 102.587C122.924 87.3748 119.303 71.9816 121.838 56.7695C123.286 47.7147 126.726 39.2032 127.993 30.1484C129.26 21.0936 127.45 10.9522 120.57 5.15709C112.605 -1.54347 99.9327 0.0864046 91.6052 6.24368C83.2777 12.5821 78.3898 22.3612 74.9502 32.3215C67.1658 53.872 64.2693 77.9578 70.7865 100.052C77.1226 122.145 92.1483 141.885 114.234 148.585" fill="#FFF000"/>
<path d="M119.303 244.748C119.303 244.748 119.303 244.204 119.303 243.48C119.303 242.574 119.303 241.307 119.303 239.677C119.122 236.236 118.941 231.528 118.036 225.551C117.312 219.575 116.045 212.512 114.234 204.725C112.424 196.938 109.165 188.608 104.821 180.64C100.295 172.671 94.8638 165.608 89.2518 159.995C83.6398 154.199 78.0278 149.853 72.9588 146.412C70.4244 144.782 68.071 143.334 66.0796 142.247C63.9072 141.16 62.0969 140.255 60.6486 139.531C59.2004 138.987 57.9331 138.444 57.028 138.082C56.1228 137.72 55.7607 137.539 55.7607 137.539C55.7607 137.539 56.1228 137.72 57.028 138.082C57.9331 138.444 59.0193 138.987 60.4676 139.712C61.9158 140.436 63.7262 141.523 65.8986 142.609C67.8899 143.877 70.2434 145.145 72.7778 146.956C77.6657 150.396 83.2777 154.743 88.8897 160.538C94.3207 166.333 99.7517 173.215 104.277 181.183C113.329 197.119 115.864 213.961 117.674 225.732C118.579 231.709 118.941 236.598 119.122 239.858C119.303 241.488 119.303 242.756 119.303 243.661C119.303 244.204 119.303 244.748 119.303 244.748Z" fill="#251A51"/>
<path d="M204.931 102.225C223.215 113.271 223.215 123.413 220.137 133.011C217.06 142.609 205.836 149.129 196.422 145.507C191.172 143.515 187.37 138.806 184.112 134.279C180.853 129.751 177.776 124.681 173.25 121.421C168.724 118.161 162.026 116.893 157.5 120.153" fill="#FFF000"/>
<g opacity="0.5">
<g opacity="0.5">
<g opacity="0.5">
<g opacity="0.5">
<g opacity="0.5">
<g opacity="0.5">
<g opacity="0.5">
<path opacity="0.5" d="M204.931 102.225C223.215 113.271 223.215 123.413 220.137 133.011C217.06 142.609 205.836 149.129 196.422 145.507C191.172 143.515 187.37 138.806 184.112 134.279C180.853 129.751 177.776 124.681 173.25 121.421C168.724 118.161 162.026 116.893 157.5 120.153" fill="black"/>
</g>
</g>
</g>
</g>
</g>
</g>
</g>
<path d="M218.689 114.358C213.801 107.658 202.034 105.847 194.612 109.106C187.19 112.366 181.578 119.067 176.69 125.586C171.802 132.106 166.914 138.987 160.216 143.696C153.337 148.223 143.923 149.853 137.044 145.326C132.518 142.247 129.983 136.995 129.259 131.743C128.535 126.492 129.259 121.059 130.345 115.807C131.975 108.02 134.69 100.052 140.845 95.1619C147.725 89.729 157.319 89.3668 166.009 89.729C176.147 90.0912 186.285 90.8156 195.698 94.2564C205.112 97.5162 214.707 105.122 218.689 114.358Z" fill="#FFF000"/>
<path d="M134.509 229.898C134.509 229.898 134.509 229.717 134.509 229.536C134.509 229.173 134.509 228.811 134.509 228.268C134.509 227.181 134.69 225.552 134.69 223.741C134.871 219.756 135.052 213.961 135.233 206.899C135.414 199.836 135.776 191.324 136.319 182.088C136.862 172.671 137.586 162.53 139.035 151.845C139.759 146.594 140.664 141.342 142.112 136.452C143.56 131.563 145.552 127.035 147.724 123.051C149.897 118.886 152.25 115.264 154.784 111.823C157.319 108.563 160.034 105.666 162.569 103.312C167.819 98.603 172.707 95.7055 176.327 93.8945C177.232 93.5323 177.957 93.1702 178.681 92.808C179.405 92.6269 179.948 92.2647 180.491 92.0836C180.853 91.9025 181.215 91.7214 181.577 91.7214C181.758 91.5403 181.939 91.5403 181.939 91.5403C181.939 91.5403 181.758 91.5403 181.577 91.7214C181.215 91.9025 180.853 91.9025 180.491 92.0836C179.948 92.2647 179.405 92.4458 178.681 92.6269C177.957 92.808 177.232 93.3513 176.327 93.7135C172.707 95.3433 167.638 98.2409 162.388 102.949C159.672 105.304 157.138 108.201 154.422 111.461C151.888 114.721 149.353 118.524 147.181 122.689C145.009 126.854 143.017 131.381 141.388 136.271C139.94 141.161 139.035 146.412 138.31 151.845C136.862 162.53 136.138 172.853 135.776 182.27C135.233 191.687 135.052 200.017 134.871 207.08C134.69 214.142 134.69 219.938 134.69 223.922C134.69 225.914 134.69 227.363 134.69 228.449C134.69 228.992 134.69 229.355 134.69 229.717C134.509 229.717 134.509 229.898 134.509 229.898Z" fill="#251A51"/>
<path d="M127.992 238.228C127.992 238.228 129.078 235.511 129.983 230.26C130.889 225.189 131.613 217.402 130.889 208.166C130.164 198.749 127.63 187.883 123.828 175.931C120.027 164.159 114.958 151.483 110.613 137.9C108.441 131.019 106.63 124.318 105.363 117.799C104.096 111.279 103.191 104.76 102.829 98.6026C101.742 86.288 101.923 75.0601 102.285 65.8241C102.647 56.4071 103.191 48.9822 103.372 43.7304C103.553 41.195 103.553 39.203 103.734 37.7542C103.734 37.0298 103.734 36.6676 103.734 36.1243C103.734 35.7622 103.734 35.5811 103.734 35.5811C103.734 35.5811 103.734 35.7622 103.734 36.1243C103.734 36.4865 103.734 37.0298 103.553 37.7542C103.372 39.203 103.191 41.195 103.01 43.7304C102.647 48.9822 102.104 56.5882 101.561 65.8241C101.199 75.2411 101.018 86.4691 101.923 98.7837C102.466 104.941 103.191 111.46 104.458 118.161C105.725 124.862 107.535 131.562 109.708 138.444C114.053 152.026 119.302 164.703 123.104 176.474C126.906 188.245 129.44 199.111 130.164 208.528C131.07 217.764 130.527 225.37 129.621 230.622C129.259 233.157 128.716 235.149 128.354 236.598C128.173 237.322 127.992 237.685 127.992 238.047V238.228Z" fill="#251A51"/>
<path d="M82.373 246.559H168.726L170.717 229.898H82.373V246.559Z" fill="#FF725E"/>
<path d="M159.492 244.748L148.63 294.549H101.742L91.6045 244.748H159.492Z" fill="#FF725E"/>
<path d="M124.735 246.742C148.13 246.676 167.096 246.461 167.095 246.261C167.095 246.06 148.128 245.952 124.733 246.017C101.337 246.083 82.3715 246.298 82.3721 246.498C82.3727 246.698 101.339 246.807 124.735 246.742Z" fill="#FF725E"/>
<path d="M97.2168 271.188C97.3978 271.369 99.7512 268.833 104.82 266.841C107.355 265.755 110.432 265.03 114.053 265.03C117.673 264.849 121.475 265.755 125.458 267.204C129.441 268.471 133.061 270.101 136.682 271.007C140.303 271.731 143.561 271.731 146.277 271.369C148.992 271.007 151.165 270.101 152.432 269.377C153.156 269.015 153.699 268.652 153.88 268.471C154.242 268.29 154.423 268.109 154.423 268.109C154.423 268.109 153.699 268.471 152.251 269.196C150.802 269.739 148.811 270.463 146.096 270.825C143.38 271.188 140.122 271.188 136.682 270.282C133.242 269.377 129.622 267.928 125.639 266.479C121.656 265.03 117.673 264.306 114.053 264.487C110.432 264.668 107.174 265.393 104.639 266.479C102.105 267.566 100.294 268.833 99.0271 269.739C98.484 270.282 97.9409 270.644 97.7599 270.825C97.3978 271.007 97.2168 271.188 97.2168 271.188Z" fill="#251A51"/>
<path d="M97.9404 274.447C98.1215 274.629 100.475 272.093 105.182 270.101C107.535 269.015 110.613 268.29 114.052 268.29C117.492 268.109 121.294 269.015 125.095 270.282C128.897 271.55 132.518 272.999 135.957 273.904C139.397 274.81 142.655 275.172 145.19 274.991C147.905 274.81 149.897 274.085 151.345 273.361C152.069 272.999 152.431 272.636 152.793 272.455C153.155 272.274 153.336 272.093 153.155 272.093C153.155 272.093 152.431 272.455 151.164 273.18C149.897 273.723 147.724 274.447 145.19 274.447C142.655 274.629 139.397 274.266 136.138 273.18C132.88 272.274 129.259 270.826 125.457 269.558C121.656 268.29 117.673 267.385 114.233 267.566C110.613 267.747 107.535 268.471 105.182 269.558C102.647 270.644 101.018 271.912 99.7508 272.818C99.2077 273.361 98.6646 273.723 98.4835 273.904C97.9404 274.266 97.9404 274.447 97.9404 274.447Z" fill="white"/>
<path d="M96.3105 267.928C96.4916 268.109 99.026 265.573 104.095 263.4C106.629 262.314 109.888 261.408 113.509 261.046C117.129 260.865 121.112 261.77 125.276 263.038C129.258 264.487 133.06 266.117 136.862 266.841C140.664 267.565 144.103 267.384 146.819 266.841C149.715 266.298 151.888 265.573 153.155 264.849C153.879 264.487 154.422 264.125 154.784 263.944C155.146 263.762 155.327 263.581 155.327 263.581C155.327 263.581 154.603 263.944 153.155 264.668C151.707 265.392 149.534 265.936 146.819 266.479C144.103 266.841 140.664 267.022 137.043 266.298C133.422 265.573 129.621 263.944 125.638 262.495C121.655 261.046 117.491 260.141 113.69 260.503C109.888 260.684 106.629 261.77 104.095 263.038C101.56 264.125 99.5691 265.573 98.3019 266.479C97.7588 267.022 97.2157 267.384 96.8536 267.747C96.4916 267.565 96.3105 267.747 96.3105 267.928Z" fill="white"/>
<path d="M124.915 246.921C148.811 246.921 168.182 246.759 168.182 246.559C168.182 246.359 148.811 246.197 124.915 246.197C101.02 246.197 81.6484 246.359 81.6484 246.559C81.6484 246.759 101.02 246.921 124.915 246.921Z" fill="#251A51"/>
</svg>
