<svg width="213" height="281" viewBox="0 0 213 281" fill="none" xmlns="http://www.w3.org/2000/svg">
<path d="M48.6518 275.875C8.64362 248.529 -0.95109 197.098 0.135106 150.737C0.316139 142.95 -0.589068 134.801 3.03158 128.1C6.65224 121.219 15.1608 116.51 22.04 119.77C27.8331 122.486 30.3676 129.006 33.6261 134.62C37.9709 141.864 44.307 148.021 51.9104 151.824C56.7983 154.359 62.9534 155.808 67.8413 153.092C74.5395 149.289 75.0826 140.053 75.0826 132.447C74.9016 118.14 74.5395 103.833 74.3585 89.5269C74.1775 81.9208 74.1774 73.9526 76.3498 66.7087C78.7032 59.4649 83.9532 52.5832 91.1945 50.4101C98.4358 48.2369 107.487 52.4021 109.117 59.8271C109.841 62.9057 109.117 66.1654 109.479 69.4252C109.66 72.6849 111.289 76.1258 114.367 77.0312C117.444 77.9367 120.522 75.7636 122.694 73.4093C130.479 65.6222 135.91 55.4808 140.797 45.5205C145.685 35.5602 150.573 25.2377 157.634 16.7262C164.694 8.21463 174.651 1.33297 185.694 0.608586C196.737 -0.115799 208.504 6.58476 211.4 17.2694C214.297 28.1352 208.142 39.1821 201.262 48.0558C191.125 61.0948 179.176 72.866 165.961 82.4641C163.608 84.2751 160.892 86.086 159.987 88.9836C158.358 94.0543 163.246 99.125 168.314 100.755C174.107 102.566 180.263 102.023 186.237 102.566C192.211 103.29 198.728 105.826 201.081 111.44C204.34 119.227 197.823 127.557 191.487 132.99C178.633 143.856 163.97 152.548 148.22 158.525C142.608 160.698 136.634 162.509 132.108 166.493C127.582 170.477 124.867 177.54 127.763 182.791C130.66 188.224 137.72 189.854 143.513 188.768C149.487 187.681 154.737 184.421 160.349 182.067C170.849 177.902 184.426 178.626 191.306 187.681C195.831 193.657 196.374 201.988 194.202 209.232C192.03 216.475 187.504 222.633 182.797 228.428C166.142 248.529 144.599 264.647 120.16 273.34C95.7203 281.851 73.0912 284.386 48.6518 275.875Z" fill="#F2F6FF"/>
<path d="M60.2373 246.719C66.7545 223.357 76.1682 198.185 86.8491 172.288C89.5646 165.768 92.2801 159.43 94.8146 153.092C97.5301 146.753 100.065 140.596 102.961 134.62C108.754 122.668 115.271 111.802 121.788 101.479C128.306 91.1568 134.823 81.7398 140.978 72.8661C147.133 63.9924 153.107 55.843 158.719 48.7803C170.124 34.4737 180.624 23.9701 188.227 17.0884C192.029 13.6476 194.926 11.1122 197.098 9.30128C198.003 8.3958 198.908 7.85251 199.451 7.30922C199.995 6.94703 200.357 6.58485 200.357 6.76594C200.357 6.76594 200.176 6.94703 199.632 7.49032C199.089 8.03361 198.365 8.758 197.46 9.48239C195.469 11.2934 192.572 14.0098 188.771 17.4506C181.348 24.5134 171.029 35.017 159.805 49.5047C154.193 56.7485 148.219 64.8979 142.245 73.5905C136.09 82.4642 129.573 91.8812 123.237 102.204C116.72 112.526 110.383 123.392 104.59 135.163C101.694 141.139 99.1593 147.297 96.4438 153.454C93.9094 159.792 91.1939 166.131 88.4784 172.65C77.7975 198.547 68.5648 223.538 61.8666 246.9" fill="#D0D9EE"/>
<path d="M103.324 134.62C103.143 134.62 102.962 133.533 102.6 131.36C102.238 129.187 101.695 126.108 101.152 122.305C100.066 114.699 98.7987 104.015 97.3504 92.4244C96.0832 80.6532 94.6349 70.1496 93.3677 62.5436C92.8246 58.7405 92.2815 55.6619 91.7384 53.4887C91.3763 51.3156 91.1953 50.229 91.1953 50.229C91.3763 50.229 91.5574 51.3156 92.2815 53.4887C92.8246 55.6619 93.5488 58.5594 94.2729 62.3624C95.7211 69.9685 97.3504 80.4721 98.6176 92.2433C99.8849 103.833 101.152 114.156 101.876 122.305C102.238 125.927 102.6 129.006 102.962 131.36C103.324 133.352 103.506 134.62 103.324 134.62Z" fill="#D0D9EE"/>
<path d="M201.986 115.062C201.986 115.243 200.537 115.424 198.003 115.605C195.469 115.786 191.848 116.148 187.322 116.692C178.27 117.778 165.779 119.589 152.202 122.306C138.624 125.022 126.314 128.101 117.624 130.455C113.28 131.723 109.659 132.628 107.306 133.352C104.771 134.077 103.504 134.439 103.504 134.258C103.504 134.077 104.771 133.715 107.125 132.809C109.478 131.904 113.099 130.817 117.443 129.368C126.133 126.652 138.443 123.573 152.021 120.676C165.598 117.959 178.27 116.148 187.322 115.424C191.848 115.062 195.469 114.699 198.184 114.699C200.537 114.881 201.986 114.881 201.986 115.062Z" fill="#D0D9EE"/>
<path d="M61.5051 244.727C61.5051 244.727 61.143 244.364 60.781 243.459C60.2379 242.553 59.6948 241.286 58.9706 239.837C57.5224 236.758 55.531 232.231 52.9965 226.617C48.1086 215.389 41.7725 199.634 35.2553 182.067C28.5571 164.501 22.402 148.745 17.8762 137.336C15.5228 131.903 13.7124 127.195 12.2642 123.935C11.7211 122.486 11.178 121.219 10.8159 120.313C10.4539 119.408 10.2728 119.046 10.4538 119.046C10.4538 119.046 10.8159 119.408 11.1779 120.313C11.721 121.219 12.2641 122.486 12.9883 123.935C14.4365 127.014 16.4279 131.541 18.9624 137.155C23.8503 148.383 30.1864 164.139 36.7036 181.705C43.4018 199.271 49.5569 215.027 54.0827 226.436C56.4362 231.869 58.2465 236.577 59.6948 239.837C60.2379 241.286 60.7809 242.553 61.143 243.459C61.5051 244.364 61.5051 244.727 61.5051 244.727Z" fill="#D0D9EE"/>
<path d="M192.391 201.082C192.391 201.082 192.029 201.263 191.124 201.626C190.038 201.988 188.77 202.35 187.322 202.893C183.883 204.161 178.995 205.61 173.383 207.602C161.616 211.586 145.323 217.2 127.219 223.538C109.297 229.877 92.8231 235.309 81.056 239.112C75.0819 240.923 70.1941 242.372 66.9355 243.459C65.3062 243.821 64.0389 244.183 63.1338 244.545C62.2286 244.726 61.6855 244.908 61.6855 244.908C61.6855 244.908 62.0476 244.726 62.9527 244.364C64.0389 244.002 65.3062 243.64 66.7544 243.097C70.1941 241.829 75.082 240.38 80.694 238.388C92.4611 234.404 108.754 228.79 126.857 222.452C144.78 216.113 161.254 210.68 173.021 206.877C178.995 205.066 183.883 203.618 187.141 202.531C188.77 202.169 190.038 201.807 190.943 201.444C191.848 201.263 192.391 201.082 192.391 201.082Z" fill="#D0D9EE"/>
</svg>
