<svg width="257" height="175" viewBox="0 0 257 175" fill="none" xmlns="http://www.w3.org/2000/svg">
<path d="M10.7939 98.0403V175.368H123.939H248.671V98.0403H10.7939Z" fill="#F2F6FF"/>
<path d="M0.836914 76.4897V98.0402H256.998V76.4897H123.939H0.836914Z" fill="#D0D9EE"/>
<path d="M128.827 175.368H248.671V98.0402H256.998V76.4897H123.939V96.0482L128.827 175.368Z" fill="#D0D9EE"/>
<path d="M92.2582 110.536H44.1035V122.126H92.2582V110.536Z" fill="#D0D9EE"/>
<path d="M99.8624 136.795H37.9492V161.424H99.8624V136.795Z" fill="white"/>
<path d="M38.1309 17.0898V76.4894H125.027H220.793V17.0898H38.1309Z" fill="#F2F6FF"/>
<path d="M30.5273 0.429688V17.0905H227.129V0.429688H125.026H30.5273Z" fill="#D0D9EE"/>
<path d="M128.828 76.4896H220.793V17.0901H227.129V0.429199H125.026V15.4602L128.828 76.4896Z" fill="#EBEBEB"/>
<path d="M100.768 26.6882H63.6562V35.5619H100.768V26.6882Z" fill="#D0D9EE"/>
<path d="M106.562 46.7898H58.9502V65.6238H106.562V46.7898Z" fill="white"/>
</svg>
