<svg width="1415" height="876" viewBox="0 0 1415 876" fill="none" xmlns="http://www.w3.org/2000/svg">
<mask id="mask0" mask-type="alpha" maskUnits="userSpaceOnUse" x="0" y="0" width="1415" height="876">
<rect x="0.5" y="0.639648" width="1414" height="875.342" fill="#F2F6FF"/>
</mask>
<g mask="url(#mask0)">
<path fill-rule="evenodd" clip-rule="evenodd" d="M765.344 1167.28C558.976 946.446 270.212 1180.22 218.949 859.583C205.018 772.449 327.597 734.813 380.787 664.405C677.564 271.558 1392.03 785.556 1136.34 1134.3C1083.1 1206.92 910.333 1356.88 765.344 1167.28Z" fill="#00B4FF"/>
<path fill-rule="evenodd" clip-rule="evenodd" d="M920.193 800.519C649.129 934.234 789.441 1278.25 467.676 1234.63C380.235 1222.78 379.642 1094.55 327.618 1023.28C37.341 625.605 735.938 90.2402 995.876 435.831C1050 507.791 1143.61 716.532 920.193 800.519Z" stroke="#A4B4DC"/>
<path fill-rule="evenodd" clip-rule="evenodd" d="M406.263 268.145C670.765 109.78 1197.04 219.24 1235.52 744.224C1276.39 1301.87 169.33 1352.43 126.409 863.203C117.472 761.334 175.015 406.599 406.263 268.145Z" stroke="#A4B4DC"/>
</g>
</svg>
