<svg width="293" height="472" viewBox="0 0 293 472" fill="none" xmlns="http://www.w3.org/2000/svg">
<path d="M84.3369 204.527C84.3369 204.527 83.4318 204.889 81.8025 205.432C70.5784 209.235 36.9064 220.282 26.7686 224.447C26.7686 224.447 44.6908 383.631 46.8632 398.481C49.0355 413.331 49.5786 472.549 49.5786 472.549H240.93C240.93 472.549 240.387 313.003 240.93 288.193C241.654 256.139 245.637 224.447 245.637 224.447L212.146 211.408L173.043 190.763L84.3369 204.527Z" fill="#FF725E"/>
<g opacity="0.3">
<path opacity="0.3" d="M126.878 238.935C111.309 297.067 94.8349 354.837 77.4558 412.425C75.4644 419.126 73.473 426.732 76.1885 433.251C78.723 439.046 84.6971 442.849 91.0332 443.755C97.3694 444.66 103.706 442.668 109.137 439.59C121.99 432.346 130.498 418.764 134.662 404.457C138.826 390.15 139.188 375.119 139.55 360.451C140.455 320.972 141.36 281.493 142.265 241.833L126.878 238.935Z" fill="black"/>
</g>
<path d="M26.5867 224.447C26.5867 224.447 -1.47336 236.943 0.699031 286.744C2.14729 320.791 7.39723 351.758 7.39723 351.758L86.3275 328.94L66.2328 242.195L26.5867 224.447Z" fill="#FF725E"/>
<path d="M213.956 304.854L209.792 362.443L289.084 336.727C289.084 336.727 272.067 235.132 245.093 224.447L216.128 274.068L213.956 304.854Z" fill="#FF725E"/>
<path d="M223.009 288.193C223.009 288.193 223.009 288.556 223.19 289.28C223.19 290.185 223.371 291.272 223.371 292.721C223.552 295.799 223.733 299.965 224.095 305.035C224.638 315.539 225.181 330.027 225.724 345.963C226.267 361.9 226.63 376.387 226.992 386.891C227.173 391.962 227.354 396.308 227.354 399.386C227.354 400.835 227.354 401.922 227.354 402.827C227.354 403.552 227.354 404.095 227.354 404.095C227.354 404.095 227.354 403.733 227.173 403.008C227.173 402.103 226.992 401.016 226.992 399.568C226.811 396.489 226.629 392.324 226.267 387.253C225.724 376.749 225.181 362.262 224.638 346.325C224.095 330.389 223.733 315.901 223.371 305.398C223.19 300.327 223.009 295.981 223.009 292.902C223.009 291.453 223.009 290.367 223.009 289.461C222.828 288.556 222.828 288.193 223.009 288.193Z" fill="#251A51"/>
<path d="M65.8714 263.926C65.8714 263.926 65.5094 263.383 64.7853 262.115C64.0611 260.667 63.1559 259.037 62.2508 257.045C60.0784 252.698 57.0008 246.722 52.294 241.108C47.5871 235.494 41.9751 231.691 37.6304 229.88C33.1045 228.069 30.208 228.069 30.208 227.707C30.208 227.707 30.9321 227.707 32.3804 227.707C33.6476 227.888 35.639 228.25 37.9924 229.156C42.5182 230.786 48.4923 234.589 53.1992 240.384C57.906 246.179 60.9836 252.155 62.9749 256.682C64.0611 258.856 64.7852 260.667 65.3283 261.934C65.6904 263.202 66.0525 263.926 65.8714 263.926Z" fill="#251A51"/>
<path d="M232.24 222.093C232.421 222.274 229.163 227.888 227.171 235.494C225.18 243.1 225.18 249.62 224.818 249.62C224.637 249.62 224.637 247.99 224.637 245.455C224.818 242.919 225.18 239.297 226.266 235.313C227.352 231.51 228.8 228.069 229.887 225.715C231.154 223.361 232.059 222.093 232.24 222.093Z" fill="#251A51"/>
<path d="M55.733 246.903C55.733 246.903 55.3709 246.903 55.0088 246.903C54.4657 247.084 53.9226 247.447 53.1985 248.171C52.6554 248.895 52.2934 249.982 51.9313 251.431C51.7503 252.155 51.5692 252.879 51.3882 253.604C51.0261 254.328 50.6641 255.234 49.7589 255.777C48.1296 256.864 45.5952 256.32 43.9659 255.234C42.1555 253.966 41.0693 251.793 39.8021 249.982C39.078 249.076 38.3538 248.171 37.4487 247.447C36.5435 246.722 35.4573 246.36 34.1901 246.36C33.1039 246.36 32.0177 247.084 31.4746 248.171C30.9315 249.258 30.7505 250.525 30.5694 251.793C30.3884 253.061 30.3884 254.509 30.3884 255.777C30.2074 257.045 29.8453 258.493 29.1212 259.58C28.9401 259.942 28.7591 260.123 28.3971 260.304C28.216 260.485 27.854 260.848 27.4919 261.029C26.9488 261.391 26.2246 261.572 25.5005 261.572C24.2333 261.753 22.785 261.391 21.6988 260.848C19.3454 259.761 18.0782 257.769 16.6299 256.139C15.3627 254.509 14.0955 253.061 12.6472 252.155C11.199 251.25 9.56965 250.706 8.30242 251.068C7.03519 251.25 5.94899 252.155 5.58693 252.879C5.04383 253.604 4.86282 254.509 5.04385 254.872C5.04385 255.415 5.22487 255.596 5.22487 255.596C5.22487 255.596 5.04384 255.415 4.86281 254.872C4.68178 254.328 4.86281 253.423 5.40591 252.517C5.94901 251.612 6.85417 250.706 8.48346 250.344C9.93172 249.982 11.7421 250.525 13.1903 251.431C14.8196 252.336 16.0868 253.966 17.354 255.596C18.6213 257.226 20.0695 259.037 22.0609 259.942C23.1471 260.486 24.2333 260.667 25.3195 260.485C26.4057 260.304 27.4919 259.761 28.216 258.856C29.4832 256.864 29.3022 254.147 29.6643 251.431C29.8453 249.982 29.8453 248.714 30.5694 247.265C31.2936 245.998 32.7418 245.092 34.1901 245.092C37.0866 245.092 39.259 247.265 40.5262 249.076C41.7935 251.068 42.8797 253.061 44.5089 254.328C46.1382 255.415 48.1296 255.958 49.5779 255.053C51.0261 254.147 51.2072 252.517 51.5692 251.068C51.7503 249.62 52.2934 248.533 53.0175 247.628C53.7416 246.903 54.4657 246.36 55.0088 246.36C55.3709 246.722 55.733 246.903 55.733 246.903Z" fill="#F2F6FF"/>
<path d="M71.6641 273.524C71.6641 273.524 71.6641 273.887 71.6641 274.611C71.6641 275.335 71.3021 276.241 70.759 277.509C70.0349 278.595 68.9487 279.863 67.1383 280.587C65.509 281.312 63.1556 281.674 60.9832 280.587C58.8108 279.501 57.1815 277.509 54.6471 276.784C52.1126 276.06 49.3971 277.69 47.9489 280.225C46.3196 282.579 45.5955 285.839 43.9662 288.737C43.061 290.185 41.9748 291.634 40.3455 292.54C38.8973 293.445 36.7249 293.807 34.9145 292.902C33.1042 291.996 32.018 290.547 31.1128 289.099C30.2077 287.65 29.4836 286.201 28.5784 284.752C27.6732 283.485 26.587 282.398 25.1388 282.036C23.6905 281.674 22.2422 282.036 21.156 282.76C18.8026 284.39 17.3544 286.926 16.2682 289.461C15.182 291.815 14.0958 294.169 12.8285 296.161C10.4751 300.146 6.4924 301.957 3.95795 301.957C2.69072 301.957 1.60451 301.775 1.06141 301.413C0.699348 301.232 0.518326 301.051 0.337294 301.051C0.156261 300.87 0.15625 300.87 0.15625 300.87C0.15625 300.689 1.42349 301.775 3.95795 301.594C6.4924 301.413 10.1131 299.602 12.2855 295.799C13.5527 293.807 14.4578 291.634 15.544 289.099C16.6302 286.744 18.0785 283.847 20.6129 282.036C21.8802 281.13 23.6905 280.587 25.3198 281.13C26.9491 281.493 28.3974 282.941 29.3025 284.209C30.2077 285.658 30.9318 287.107 31.837 288.555C32.7421 290.004 33.8283 291.272 35.2766 291.996C36.7249 292.721 38.3542 292.358 39.8024 291.634C41.2507 290.91 42.3369 289.642 43.061 288.193C44.6903 285.477 45.4144 282.217 47.0437 279.501C47.9489 278.233 49.0351 277.146 50.4833 276.422C51.7506 275.698 53.3799 275.516 54.8281 275.879C56.2764 276.241 57.3626 276.965 58.2677 277.871C59.3539 278.595 60.2591 279.319 61.1643 279.863C63.1556 280.949 65.328 280.768 66.7763 280.044C68.4056 279.319 69.4918 278.233 70.2159 277.146C71.8452 275.154 71.6641 273.524 71.6641 273.524Z" fill="#F2F6FF"/>
<path d="M62.4323 312.279C62.4323 312.279 62.2512 312.279 61.7081 312.098C61.3461 312.098 60.6219 312.098 59.8978 312.641C59.1737 313.185 58.6306 313.909 58.2685 315.177C57.9064 316.263 57.9064 317.712 58.0875 319.161C58.2685 320.61 58.4495 322.602 57.7254 324.413C57.0013 326.224 54.6479 327.491 52.4755 327.491C50.3031 327.491 47.9496 326.405 46.3204 324.594C44.6911 322.783 43.4238 320.61 42.3376 318.255L42.6997 318.436C40.8894 318.074 38.898 319.161 37.8118 320.791C36.5446 322.421 36.0015 324.594 35.8205 326.767C35.6395 328.397 35.4584 330.027 34.9153 331.656C34.5533 333.286 33.6481 334.735 32.5619 336.003C31.4757 337.27 29.8464 337.995 28.2171 337.995C26.5878 337.995 25.1396 337.089 23.8723 336.184C21.5189 334.192 20.4327 331.656 18.8034 329.664C17.3552 327.672 15.1828 326.405 13.0104 326.405C10.838 326.224 9.02767 326.948 7.76044 328.216C6.49321 329.302 5.95009 330.751 5.58803 331.838C5.04493 334.192 5.58805 335.459 5.40701 335.459C5.40701 335.459 5.407 335.459 5.22597 335.278C5.22597 335.097 5.04495 334.916 5.04495 334.554C4.86392 333.83 4.86392 332.924 5.04495 331.656C5.40702 330.389 5.95011 328.94 7.21734 327.672C8.48457 326.405 10.4759 325.499 12.8293 325.68C13.9155 325.68 15.1828 326.042 16.269 326.586C17.3552 327.129 18.2603 328.035 19.1655 329.121C20.7948 331.113 22.062 333.649 24.2344 335.459C25.3206 336.365 26.5878 337.089 28.0361 337.089C29.4843 337.089 30.7516 336.365 31.8377 335.278C32.9239 334.192 33.4671 332.743 34.0102 331.294C34.3722 329.845 34.5533 328.216 34.9153 326.586C35.2774 324.413 35.8205 322.058 37.0877 320.247C38.3549 318.436 40.7084 316.988 42.8807 317.531H43.0618L43.2428 317.712C44.329 320.066 45.4152 322.239 47.0445 323.869C48.4928 325.499 50.6651 326.586 52.6565 326.586C54.6479 326.586 56.6392 325.68 57.3633 324.05C58.0875 322.421 57.9064 320.61 57.7254 319.161C57.5444 317.712 57.5444 316.082 58.0875 314.814C58.6306 313.547 59.1737 312.822 60.0788 312.279C60.803 311.736 61.5271 311.736 62.0702 311.736C62.2512 312.098 62.4323 312.279 62.4323 312.279Z" fill="#F2F6FF"/>
<path d="M282.206 304.673C282.206 304.673 281.844 304.673 281.301 304.854C280.758 305.035 279.853 305.578 279.31 306.484C278.585 307.389 278.042 308.838 277.68 310.468C277.318 312.098 277.137 314.09 276.232 316.082C275.689 316.988 275.146 318.074 273.879 318.799C272.792 319.523 271.344 319.523 270.077 318.98C268.81 318.436 267.905 317.35 267.18 316.082C266.456 314.995 265.913 313.728 265.189 312.279C264.646 311.011 263.922 309.925 262.836 308.838C261.93 307.933 260.482 307.027 259.215 307.389C257.948 307.752 257.043 309.019 256.681 310.468C256.318 311.917 256.5 313.547 256.5 315.177C256.5 318.436 255.413 321.877 253.241 324.231C251.069 326.586 247.448 327.491 244.732 326.223C242.017 324.956 240.388 322.602 238.396 321.153C236.586 319.523 234.414 318.436 232.422 319.161C230.431 319.704 228.983 321.153 228.077 322.42C227.172 323.869 226.629 325.137 226.448 326.405C225.905 328.759 225.543 330.026 225.543 330.026C225.543 330.026 225.543 329.664 225.543 329.121C225.543 328.578 225.724 327.491 226.086 326.405C226.448 325.318 226.81 323.869 227.715 322.239C228.621 320.791 230.069 319.161 232.241 318.617C233.327 318.255 234.595 318.436 235.681 318.799C236.767 319.161 237.853 319.885 238.939 320.791C240.931 322.42 242.56 324.594 245.094 325.68C247.629 326.767 250.706 325.861 252.698 323.688C254.689 321.515 255.594 318.436 255.775 315.358C255.775 313.728 255.775 312.098 255.956 310.468C256.137 309.563 256.5 308.838 256.862 308.114C257.405 307.389 258.129 306.846 259.034 306.665C260.844 306.303 262.474 307.208 263.56 308.295C264.646 309.382 265.551 310.649 266.094 311.917C266.637 313.185 267.18 314.452 267.905 315.539C268.629 316.625 269.353 317.531 270.439 318.074C271.525 318.617 272.611 318.617 273.517 318.074C274.422 317.531 275.146 316.625 275.508 315.72C276.413 313.909 276.775 311.917 277.137 310.287C277.499 308.657 278.223 307.208 278.948 306.303C279.672 305.397 280.577 304.854 281.301 304.673C282.025 304.492 282.206 304.673 282.206 304.673Z" fill="#F2F6FF"/>
<path d="M272.792 262.115C272.792 262.115 272.792 262.296 272.43 262.84C272.249 263.202 271.886 263.926 271.343 264.651C270.8 265.375 270.076 266.281 269.171 267.186C268.266 268.092 266.999 268.997 265.369 269.54C263.74 270.084 261.749 270.084 259.938 268.997C258.128 267.91 257.223 265.737 255.594 264.651C254.869 264.107 253.783 263.926 252.878 264.289C251.973 264.651 251.249 265.556 250.706 266.643C250.163 267.729 249.982 268.816 249.8 269.903C249.8 271.17 249.8 272.257 249.8 273.524C249.8 274.792 249.619 276.06 249.076 277.327C248.533 278.595 247.628 279.501 246.361 280.044C244.007 281.13 241.473 280.587 239.301 279.682C237.309 278.776 235.68 277.327 234.051 276.241C232.421 275.154 230.973 274.249 229.525 273.706C228.077 273.162 226.628 273.524 225.361 273.887C224.275 274.43 223.37 275.154 222.827 275.879C221.921 277.327 222.284 278.595 222.284 278.595C222.284 278.595 222.103 278.414 222.103 277.871C222.103 277.327 222.103 276.603 222.646 275.698C223.189 274.792 224.094 274.068 225.18 273.524C226.447 272.981 228.077 272.619 229.706 273.162C231.335 273.524 232.964 274.611 234.594 275.698C236.223 276.784 237.852 278.052 239.663 278.957C241.473 279.682 243.826 280.225 245.818 279.32C246.723 278.776 247.628 278.052 247.99 276.965C248.352 275.879 248.533 274.792 248.533 273.524C248.533 272.257 248.533 270.989 248.533 269.721C248.533 268.454 248.895 267.186 249.438 266.099C249.982 265.013 250.887 263.926 251.973 263.383C253.24 262.84 254.507 263.021 255.594 263.745C257.585 265.194 258.309 267.186 259.757 268.092C261.206 268.997 263.197 268.997 264.645 268.635C266.093 268.273 267.361 267.367 268.266 266.462C269.171 265.556 269.895 264.651 270.438 264.107C272.249 262.84 272.792 261.934 272.792 262.115Z" fill="#F2F6FF"/>
<path d="M226.628 366.246C226.628 366.246 226.447 366.789 225.723 367.332C224.999 367.875 223.551 368.238 221.74 368.056C220.835 367.875 219.93 367.513 219.025 367.151C218.12 366.608 217.033 365.883 216.128 365.159C215.042 364.435 213.956 363.71 212.689 363.167C211.421 362.624 209.973 362.624 208.525 362.986C207.077 363.529 205.99 364.797 205.085 366.064C204.18 367.513 203.456 369.143 202.732 370.773C202.008 372.403 201.284 374.214 200.016 375.844C199.292 376.568 198.568 377.473 197.663 377.836C197.12 378.017 196.758 378.379 196.215 378.379C196.034 378.379 195.672 378.56 195.49 378.56H194.585C193.499 378.56 192.413 378.198 191.508 377.473C190.603 376.93 189.878 376.025 189.154 375.119C187.706 373.308 186.62 371.497 185.353 369.686C184.085 367.875 182.456 366.245 180.284 365.702C178.111 365.159 175.758 365.702 173.948 366.97C171.956 368.238 170.508 370.049 169.241 371.859C167.974 373.852 167.068 375.844 165.801 377.836C164.715 379.828 163.267 381.639 161.637 383.087C160.008 384.536 158.017 385.623 155.844 385.985C153.672 386.166 151.5 385.442 149.87 384.174C148.241 382.906 147.155 381.276 146.069 379.828C143.896 376.749 142.086 373.852 139.551 372.222C138.284 371.316 136.836 370.954 135.569 370.954C134.12 370.954 132.853 371.316 131.767 371.859C129.595 372.946 127.965 374.395 127.241 375.844C126.336 377.292 126.155 378.741 125.974 379.647C125.974 380.552 125.974 381.095 125.974 381.095C125.974 381.095 125.974 380.914 125.974 380.733C125.974 380.552 125.793 380.19 125.793 379.647C125.793 378.741 125.974 377.292 126.879 375.662C127.784 374.033 129.233 372.403 131.586 371.316C132.672 370.773 134.12 370.411 135.569 370.411C137.017 370.411 138.646 370.773 139.914 371.678C142.629 373.308 144.62 376.387 146.793 379.466C147.879 380.914 148.965 382.363 150.594 383.631C152.043 384.717 154.034 385.442 156.025 385.261C158.017 385.08 159.827 383.993 161.456 382.725C163.086 381.276 164.353 379.647 165.439 377.655C166.525 375.663 167.611 373.67 168.879 371.678C170.146 369.686 171.775 367.694 173.767 366.427C175.758 365.159 178.473 364.435 180.827 364.978C183.361 365.702 184.991 367.513 186.439 369.324C187.887 371.135 188.973 373.127 190.241 374.757C191.508 376.387 193.137 377.836 195.128 377.836C197.12 378.017 198.749 376.93 200.016 375.3C201.102 373.852 202.008 372.041 202.732 370.411C203.456 368.781 204.18 367.151 205.266 365.702C206.171 364.253 207.439 362.986 209.068 362.261C210.697 361.718 212.327 361.899 213.594 362.442C214.861 362.986 216.128 363.71 217.033 364.435C218.12 365.159 219.025 365.883 219.93 366.427C220.835 366.97 221.74 367.332 222.645 367.332C224.275 367.694 225.723 367.332 226.447 366.97C226.266 366.608 226.628 366.246 226.628 366.246Z" fill="#F2F6FF"/>
<path d="M223.189 305.94C223.189 305.94 223.189 306.121 223.008 306.303C222.827 306.484 222.646 306.665 222.284 306.846C221.559 307.208 220.111 307.208 218.663 306.484C217.215 305.759 215.947 304.129 213.956 303.224C213.051 302.862 211.784 303.043 210.878 303.767C209.973 304.492 209.611 305.759 209.249 307.208C208.887 308.476 208.525 309.925 207.801 311.373C207.439 312.098 206.896 312.822 206.172 313.365C205.448 313.909 204.542 314.271 203.818 314.271C200.198 314.633 196.758 312.279 194.586 309.381C193.318 307.932 192.051 306.484 190.603 305.397C189.155 304.311 187.344 303.586 185.353 303.767C181.551 303.948 177.75 306.484 175.215 309.743C172.681 313.003 170.87 316.987 168.698 320.247C166.525 323.688 163.267 326.585 159.646 327.672C157.836 328.215 155.845 328.396 154.034 328.034C152.224 327.672 150.776 326.585 149.508 325.318C147.155 322.963 145.707 320.066 143.353 318.617C142.267 317.893 141 317.531 139.733 317.712C138.465 317.712 137.379 318.255 136.655 318.979C134.845 320.247 133.759 321.877 132.853 323.145C131.224 325.861 130.681 327.491 130.5 327.491C130.5 327.491 130.681 327.129 130.862 326.223C131.224 325.499 131.586 324.412 132.491 322.963C133.215 321.696 134.483 319.885 136.293 318.617C137.198 317.893 138.465 317.349 139.733 317.349C141 317.168 142.448 317.531 143.715 318.255C146.25 319.885 147.879 322.601 150.052 324.955C151.138 326.042 152.586 327.129 154.215 327.491C155.845 327.853 157.655 327.672 159.284 327.129C162.724 326.042 165.62 323.326 167.793 319.885C169.965 316.625 171.775 312.641 174.491 309.2C177.206 305.759 181.008 303.043 185.353 302.862C187.525 302.681 189.517 303.586 191.146 304.673C192.775 305.94 194.042 307.389 195.31 308.657C196.577 310.106 197.663 311.373 199.292 312.098C200.741 313.003 202.37 313.365 203.999 313.365C205.629 313.184 206.715 312.279 207.439 311.011C208.163 309.743 208.525 308.295 208.887 307.027C209.249 305.759 209.792 304.311 210.878 303.405C211.965 302.5 213.413 302.318 214.499 302.862C216.672 303.767 217.758 305.578 219.206 306.303C220.473 307.027 221.921 307.027 222.646 306.846C223.008 306.484 223.008 305.94 223.189 305.94Z" fill="#F2F6FF"/>
<path d="M224.094 243.462C224.094 243.462 223.732 243.1 223.189 242.919C222.646 242.557 221.378 242.376 220.111 242.738C218.844 243.1 217.396 244.006 216.309 245.817C215.223 247.446 214.861 249.801 214.137 252.155C213.775 253.423 213.232 254.69 212.327 255.777C211.603 257.045 210.335 257.95 208.706 258.493C207.258 258.856 205.447 258.856 203.999 258.312C202.37 257.769 200.922 257.045 199.473 256.139C196.758 254.328 194.042 251.974 190.603 251.25C188.974 250.887 187.163 251.25 185.534 252.155C183.905 252.879 182.456 254.147 181.189 255.596C178.655 258.312 176.844 261.753 174.491 264.47C173.224 265.918 171.956 267.186 170.508 268.091C169.06 268.997 167.25 269.721 165.439 269.721C161.819 269.721 158.922 267.91 156.569 266.099C154.215 264.288 152.224 262.296 150.233 260.848C148.241 259.399 146.069 258.493 144.077 258.674C142.086 258.674 140.457 259.399 139.371 260.123C138.284 260.848 137.741 261.934 137.56 262.659C137.379 263.383 137.379 263.745 137.198 263.745C137.198 263.745 137.198 263.383 137.379 262.659C137.56 261.934 138.103 260.848 139.19 259.942C140.276 259.037 142.086 258.312 144.077 258.131C146.25 258.131 148.422 258.856 150.595 260.304C152.767 261.753 154.758 263.564 157.112 265.375C159.465 267.186 162.181 268.816 165.439 268.816C168.698 268.635 171.594 266.462 173.767 263.745C176.12 261.029 177.75 257.588 180.465 254.69C181.732 253.242 183.362 251.974 184.991 251.068C186.801 250.163 188.793 249.801 190.603 250.163C194.405 250.887 197.12 253.423 199.836 255.234C202.551 257.045 205.629 258.312 208.344 257.407C209.611 257.045 210.697 256.139 211.603 255.053C212.327 253.966 212.87 252.698 213.232 251.612C213.956 249.257 214.499 246.903 215.585 245.273C216.128 244.368 216.671 243.643 217.396 243.1C218.12 242.557 218.844 242.195 219.568 242.195C221.016 241.833 222.102 242.195 222.827 242.557C223.913 243.1 224.094 243.462 224.094 243.462Z" fill="#F2F6FF"/>
<path d="M214.862 214.125C214.862 214.125 214.862 214.306 214.681 214.849C214.5 215.211 214.319 215.936 213.957 216.66C213.594 217.384 213.051 218.471 211.965 219.195C210.879 219.92 209.069 220.101 207.801 219.014C206.534 217.928 205.991 216.298 205.086 214.849C204.543 214.125 204 213.4 203.276 213.038C202.551 212.495 201.646 212.314 200.741 212.314C198.931 212.133 196.939 212.857 195.31 214.306C193.681 215.755 192.595 217.565 191.508 219.558C190.965 220.644 190.422 221.55 189.698 222.455C188.974 223.361 187.707 224.085 186.44 223.904C185.172 223.723 184.086 222.998 183.362 222.093C182.638 221.187 182.276 220.282 181.914 219.195C181.19 217.203 180.828 215.392 179.56 214.306C179.017 213.762 178.293 213.4 177.569 213.219C176.845 213.038 176.121 213.4 175.578 213.762C174.491 214.668 174.129 216.117 173.767 217.203C173.405 218.29 172.862 219.376 172.138 219.92C171.595 220.644 170.871 220.825 170.328 221.006C169.785 221.006 169.604 221.006 169.604 221.006C169.604 220.825 170.69 221.187 171.776 219.739C172.319 219.195 172.681 218.29 173.043 217.022C173.405 215.936 173.767 214.487 175.034 213.4C175.578 212.857 176.483 212.495 177.569 212.676C178.474 212.857 179.379 213.219 180.103 213.944C181.552 215.211 182.095 217.384 182.638 219.195C183 220.101 183.362 221.006 184.086 221.731C184.629 222.455 185.534 222.998 186.44 223.179C187.345 223.361 188.25 222.817 188.974 221.912C189.698 221.187 190.241 220.101 190.784 219.195C191.871 217.203 193.138 215.03 194.767 213.581C196.396 212.133 198.75 211.227 200.741 211.408C201.827 211.408 202.913 211.77 203.638 212.314C204.543 212.857 205.086 213.762 205.629 214.487C206.534 216.117 207.258 217.565 208.163 218.652C209.25 219.558 210.698 219.558 211.603 219.014C212.508 218.471 213.051 217.565 213.413 216.841C214.5 215.03 214.681 214.125 214.862 214.125Z" fill="#F2F6FF"/>
<path d="M96.647 214.306C96.647 214.306 96.828 214.668 96.828 215.212C96.828 215.755 97.0091 216.66 97.0091 217.747C97.0091 218.834 97.0091 220.282 96.466 221.731C96.1039 223.18 94.8367 224.81 93.0264 225.715C92.1212 226.077 91.035 226.44 89.7678 226.077C88.6816 225.896 87.5954 224.991 86.8713 224.085C86.1471 223.18 85.604 222.093 85.0609 221.007C84.5178 220.101 83.6127 219.015 82.5265 218.652C80.3541 217.928 77.4576 219.015 76.3714 221.369C75.6472 222.455 75.2852 223.904 75.2852 225.172C75.1041 226.621 75.2852 228.069 75.2852 229.518C75.2852 230.967 75.4662 232.597 74.9231 234.046C74.561 235.494 73.6559 236.943 72.3886 237.668C71.1214 238.573 69.3111 238.573 68.0438 238.03C66.7766 237.486 65.5094 236.762 64.6042 235.857C62.7939 233.865 61.7077 231.691 60.0784 230.243C58.6302 228.613 56.4578 227.888 54.6475 228.069C52.8371 228.069 51.2078 228.975 50.1216 230.062C49.0354 231.148 48.4923 232.416 48.3113 233.321C47.7682 235.313 48.3113 236.581 48.1303 236.581C48.1303 236.581 47.9493 236.219 47.9493 235.676C47.7682 235.132 47.7682 234.227 47.9493 233.14C48.1303 232.054 48.6734 230.786 49.7596 229.518C50.8458 228.432 52.6561 227.345 54.6475 227.345C56.6388 227.164 58.9922 227.888 60.6215 229.699C62.2508 231.329 63.518 233.502 65.3284 235.313C66.2335 236.219 67.3197 236.943 68.4059 237.305C69.4921 237.668 70.9404 237.668 72.0266 236.943C73.1128 236.219 73.8369 235.132 74.199 233.865C74.561 232.597 74.561 231.148 74.561 229.699C74.38 226.802 74.199 223.542 75.8283 221.007C77.2765 218.471 80.5351 216.842 83.2506 217.928C84.5178 218.471 85.423 219.558 86.1471 220.645C86.8712 221.731 87.2333 222.818 87.9574 223.723C88.5005 224.629 89.4057 225.353 90.3109 225.534C91.216 225.715 92.3022 225.534 93.0264 225.172C94.6556 224.448 95.7418 222.999 96.2849 221.55C96.828 220.101 96.828 218.834 96.828 217.747C96.828 215.393 96.647 214.306 96.647 214.306Z" fill="#F2F6FF"/>
<path d="M193.681 5.68298C181.371 2.96653 169.966 14.7378 157.475 13.4701C149.871 12.5646 143.716 7.13175 136.837 4.05311C126.518 -0.655392 112.398 -0.293199 102.622 5.68298C93.027 11.6592 86.8719 17.6353 86.5099 29.0444C76.9151 24.517 62.4325 37.3748 58.2688 49.1461C54.105 60.9174 56.2774 72.1453 60.2601 83.9166C67.1394 104.199 78.0013 123.033 92.1218 138.97C93.3891 140.419 95.3804 141.867 97.0097 140.962C98.0959 140.238 98.458 138.789 98.458 137.521C99.3632 126.474 97.0097 115.427 95.0184 104.38C93.2081 93.3336 91.7598 82.1056 94.2942 71.2399C96.8287 60.3741 104.251 50.0516 115.113 46.9729C123.078 44.6187 131.587 46.6107 139.009 50.0516C146.432 53.4924 153.311 58.382 160.371 62.3661C167.612 66.3503 175.578 69.61 183.724 69.2478C191.871 68.8856 200.379 64.3582 203.276 56.571C206.172 48.7839 201.285 38.6425 193.138 37.5559C200.379 36.2883 206.353 29.4066 206.534 21.9816C206.534 14.3756 200.922 7.31285 193.681 5.68298Z" fill="#251A51"/>
<path d="M173.043 201.086L169.965 177.544C169.965 177.544 200.741 168.851 197.301 137.521C195.672 122.309 189.698 91.3419 184.086 63.453C178.111 33.3911 149.87 12.9272 119.457 16.7302L116.56 17.0924C84.1555 22.8875 71.1211 53.6738 77.8194 85.909L96.1036 211.952C99.1812 233.14 118.733 247.99 140.095 244.912C161.094 242.014 175.939 222.275 173.043 201.086Z" fill="#FFBE9D"/>
<path d="M169.966 177.363C169.966 177.363 150.414 181.347 127.785 170.662C127.785 170.662 140.095 192.032 171.052 185.512L169.966 177.363Z" fill="#EB996E"/>
<path d="M174.489 82.4681C174.851 85.0035 173.222 87.1766 170.687 87.7199C168.153 88.0821 165.981 86.4522 165.619 84.098C165.257 81.5626 166.886 79.3895 169.42 78.8462C171.774 78.3029 174.127 79.9328 174.489 82.4681Z" fill="#251A51"/>
<path d="M179.197 81.5628C178.653 82.2872 175.033 80.114 170.145 80.6573C165.257 81.2006 162.179 84.0981 161.455 83.5548C161.093 83.3737 161.636 82.2872 163.085 80.8384C164.533 79.5707 166.886 78.1219 169.964 77.7598C173.041 77.3976 175.576 78.303 177.205 79.2085C178.834 80.2951 179.559 81.3817 179.197 81.5628Z" fill="#251A51"/>
<path d="M128.689 86.2712C129.051 88.8066 127.422 91.1608 124.888 91.523C122.353 91.8852 120.181 90.2553 119.819 87.72C119.457 85.1847 121.086 82.8304 123.62 82.4682C125.974 82.106 128.327 83.7359 128.689 86.2712Z" fill="#251A51"/>
<path d="M133.033 85.3658C132.49 86.0901 128.87 83.917 123.982 84.4603C119.094 85.0036 116.016 87.9011 115.292 87.3578C114.93 87.1767 115.473 86.0901 116.921 84.6414C118.37 83.3737 120.723 81.9249 123.801 81.5627C126.878 81.2005 129.413 82.106 131.042 83.0115C132.671 84.0981 133.214 85.0036 133.033 85.3658Z" fill="#251A51"/>
<path d="M153.852 119.774C153.852 119.593 156.749 118.687 161.455 117.42C162.723 117.058 163.809 116.695 163.99 115.971C164.171 115.066 163.447 113.798 162.723 112.349C161.274 109.452 159.645 106.554 158.016 103.475C151.318 90.7986 146.43 80.295 146.973 79.9329C147.516 79.7518 153.309 89.712 160.007 102.57C161.636 105.649 163.085 108.727 164.533 111.625C165.076 112.892 166.162 114.522 165.8 116.333C165.619 117.239 164.714 118.144 163.99 118.325C163.266 118.687 162.542 118.687 161.999 118.869C156.93 119.593 153.852 119.955 153.852 119.774Z" fill="#251A51"/>
<path d="M140.094 124.664C140.818 124.483 141.542 129.734 146.43 132.994C151.318 136.254 156.93 134.986 156.93 135.711C157.111 136.073 155.844 136.797 153.49 137.159C151.137 137.522 147.697 137.159 144.8 135.167C141.723 133.175 140.275 130.278 139.913 128.286C139.188 126.113 139.732 124.845 140.094 124.664Z" fill="#251A51"/>
<path d="M130.68 63.2723C130.318 64.7211 125.43 64.54 119.999 65.9888C114.387 67.2564 110.042 69.4296 109.137 68.343C108.775 67.7997 109.318 66.5321 111.128 65.0833C112.758 63.6345 115.654 62.0047 118.913 61.2803C122.171 60.5559 125.43 60.737 127.602 61.2803C129.594 61.8236 130.68 62.729 130.68 63.2723Z" fill="#251A51"/>
<path d="M175.757 65.8077C175.033 67.0754 171.593 66.351 167.611 66.7132C163.628 67.0754 160.369 68.3431 159.464 67.2565C159.102 66.7132 159.464 65.6266 160.731 64.3589C161.999 63.0913 164.352 62.0047 167.068 61.8236C169.783 61.6425 172.317 62.3669 173.766 63.2724C175.576 64.1778 176.119 65.2644 175.757 65.8077Z" fill="#251A51"/>
<path d="M83.0689 108.727C82.5258 108.546 60.8018 104.924 64.0604 126.293C67.319 147.663 88.1378 139.876 87.9568 139.332C87.9568 138.789 83.0689 108.727 83.0689 108.727Z" fill="#FFBE9D"/>
<path d="M80.172 132.269C79.991 132.269 79.81 132.631 79.2669 132.994C78.7238 133.356 77.6376 133.718 76.5514 133.537C74.198 132.994 71.6635 129.734 71.1204 125.931C70.7583 123.939 70.9394 122.128 71.3014 120.498C71.6635 118.868 72.5687 117.601 73.6549 117.238C74.7411 116.876 75.6462 117.419 76.0083 117.963C76.3704 118.506 76.3703 119.049 76.3703 119.049C76.3703 119.049 76.7324 118.687 76.5514 117.782C76.3704 117.419 76.0083 116.876 75.4652 116.514C74.9221 116.152 74.0169 116.152 73.2928 116.333C71.6635 116.695 70.3963 118.506 69.8532 120.317C69.3101 122.128 69.129 124.301 69.4911 126.474C70.2152 130.821 73.1118 134.442 76.3703 134.805C77.9996 134.986 79.0858 134.261 79.6289 133.718C80.172 132.813 80.3531 132.269 80.172 132.269Z" fill="#EB996E"/>
<path d="M190.059 56.0279C176.663 61.2797 160.732 59.6498 148.784 51.8627C140.457 46.2487 133.396 37.7372 123.439 35.9262C116.741 34.6585 109.862 37.0128 104.25 40.9969C98.819 44.981 94.6553 50.4139 91.2157 56.3901C99.1811 71.6022 97.1897 89.8929 95.1984 106.916C95.0173 108.727 94.6553 110.9 93.3881 112.168C91.0346 114.341 87.0519 113.435 84.6985 111.262C80.7158 108.003 78.7244 102.932 77.2762 98.0422C73.8365 86.8143 72.2073 74.8619 73.2934 63.2717C74.5607 51.5005 78.7244 40.0914 86.1467 31.0366C95.5604 19.6275 109.681 12.7459 124.164 11.116C138.827 9.66724 153.672 13.2892 166.344 20.7141C172.137 24.1549 177.749 28.5013 181.37 34.2963" fill="#251A51"/>
<path d="M203.636 12.2024C203.636 12.2024 203.817 12.9268 203.636 14.0133C203.455 15.281 202.912 17.092 201.102 18.7218C199.472 20.5328 196.757 21.8005 193.498 22.3438C191.869 22.706 190.059 22.706 188.067 22.706C186.257 22.5249 184.085 22.1627 182.274 20.895C180.464 19.6273 179.016 17.6353 178.835 15.0999C178.654 12.5646 180.464 10.2103 182.636 9.12374C183.723 8.58045 185.171 8.21826 186.438 8.21826C187.705 8.21826 189.154 8.58045 190.24 9.48594C192.593 10.9347 194.042 13.8322 194.404 16.5487C194.766 19.4462 193.86 22.5249 192.05 24.8791C190.24 27.2334 187.705 29.0443 184.809 30.1309C179.016 32.4852 172.318 32.123 166.344 30.312C160.188 28.501 154.576 25.6035 149.326 22.706C144.077 19.8084 139.008 17.092 133.939 15.281C128.87 13.4701 123.62 12.7457 118.732 13.4701C114.025 14.1944 109.68 16.0054 106.241 18.3597C99.3615 23.0682 95.7408 28.8632 93.5684 33.0285C92.4822 35.0205 91.7581 36.8315 91.396 37.9181C91.034 39.0046 90.6719 39.729 90.6719 39.729C90.6719 39.729 90.6719 39.5479 90.8529 39.1857C90.8529 38.8235 91.0339 38.4613 91.215 37.9181C91.577 36.8315 92.1202 35.0205 93.2063 32.8474C95.1977 28.6821 98.8184 22.5249 105.879 17.8164C109.318 15.4621 113.663 13.4701 118.551 12.7457C123.439 12.0213 128.87 12.7457 134.12 14.5566C139.37 16.3676 144.439 19.084 149.689 21.9816C154.938 24.8791 160.369 27.7767 166.525 29.5876C172.499 31.3986 178.835 31.5797 184.447 29.4065C187.162 28.32 189.516 26.6901 191.326 24.3358C192.955 22.1627 193.86 19.4462 193.679 16.7298C193.317 14.1944 192.05 11.6591 190.059 10.2103C188.067 8.76155 185.352 8.94265 183.361 10.0292C181.369 11.1158 179.74 13.1079 179.921 15.281C179.921 17.4542 181.369 19.2651 182.999 20.3517C184.628 21.4383 186.619 21.9816 188.43 22.1627C190.24 22.3438 192.05 22.1627 193.679 21.9816C196.938 21.4383 199.472 20.1706 201.102 18.7218C202.731 17.092 203.455 15.4621 203.636 14.1944C203.636 12.9268 203.636 12.2024 203.636 12.2024Z" fill="#455A64"/>
<path d="M56.6377 67.9801C56.6377 67.799 59.1721 68.8856 63.3359 68.8856C65.3273 68.8856 67.8617 68.3423 70.3962 67.2557C72.9306 66.1691 75.4651 64.5393 77.9995 62.3661C82.8874 58.2009 85.2408 52.5869 85.965 48.4217C86.8701 44.2565 86.327 41.54 86.5081 41.54C86.5081 41.54 86.6891 42.2644 86.8701 43.351C87.0512 44.6187 87.0512 46.2485 86.6891 48.4217C86.146 52.5869 83.7926 58.5631 78.7237 63.0905C76.1892 65.2637 73.4737 66.8935 70.7582 67.9801C68.0427 69.0667 65.5083 69.4289 63.3359 69.4289C61.1635 69.4289 59.3532 68.8856 58.267 68.5234C57.1808 68.3423 56.6377 67.9801 56.6377 67.9801Z" fill="#455A64"/>
<path d="M59.3535 83.3736C59.3535 83.1925 61.888 83.3736 65.8707 82.6492C69.8534 81.9248 75.2844 80.1139 79.9912 75.9486C84.6981 71.9645 87.4135 66.8938 88.8618 63.0908C90.129 59.2878 90.3101 56.7524 90.4911 56.7524C90.4911 56.7524 90.4911 57.4768 90.4911 58.5634C90.3101 59.65 90.129 61.4609 89.5859 63.453C88.4998 67.4371 85.6032 72.6889 80.7153 77.0352C75.8275 81.2004 70.0344 83.0114 65.8707 83.5547C63.8793 83.7358 62.069 83.9169 60.9828 83.7358C60.0776 83.5547 59.3535 83.3736 59.3535 83.3736Z" fill="#455A64"/>
<path d="M118.55 108.508C118.835 108.415 118.99 108.108 118.897 107.823C118.803 107.538 118.496 107.382 118.211 107.476C117.926 107.569 117.771 107.876 117.865 108.161C117.958 108.447 118.265 108.602 118.55 108.508Z" fill="#EB996E"/>
<path d="M127.471 105.418C127.756 105.324 127.886 104.94 127.761 104.56C127.637 104.18 127.305 103.948 127.02 104.041C126.735 104.134 126.605 104.518 126.729 104.898C126.854 105.279 127.186 105.511 127.471 105.418Z" fill="#EB996E"/>
<path d="M133.574 104.363C133.865 104.29 134.002 103.838 133.881 103.353C133.76 102.868 133.426 102.533 133.135 102.606C132.844 102.678 132.707 103.131 132.828 103.616C132.949 104.101 133.283 104.435 133.574 104.363Z" fill="#EB996E"/>
<path d="M123.651 113.798C123.949 113.762 124.171 113.572 124.147 113.374C124.123 113.175 123.862 113.043 123.565 113.079C123.267 113.115 123.045 113.305 123.069 113.503C123.092 113.702 123.353 113.834 123.651 113.798Z" fill="#EB996E"/>
<path d="M131.898 110.701C132.191 110.64 132.38 110.352 132.318 110.058C132.257 109.765 131.969 109.576 131.675 109.638C131.382 109.699 131.193 109.987 131.255 110.281C131.316 110.575 131.604 110.763 131.898 110.701Z" fill="#EB996E"/>
<path d="M175.213 100.185C175.498 100.091 175.653 99.7846 175.56 99.4995C175.466 99.2143 175.16 99.0589 174.874 99.1524C174.589 99.2458 174.434 99.5527 174.528 99.8378C174.621 100.123 174.928 100.278 175.213 100.185Z" fill="#EB996E"/>
<path d="M181.338 98.92C181.631 98.8553 181.799 98.4862 181.713 98.0955C181.627 97.7049 181.319 97.4406 181.026 97.5052C180.734 97.5699 180.566 97.939 180.652 98.3297C180.738 98.7203 181.046 98.9846 181.338 98.92Z" fill="#EB996E"/>
<path d="M169.766 101.086C170.052 100.993 170.207 100.686 170.113 100.401C170.02 100.116 169.713 99.9603 169.428 100.054C169.143 100.147 168.988 100.454 169.081 100.739C169.175 101.024 169.481 101.18 169.766 101.086Z" fill="#EB996E"/>
<path d="M174.939 106.694C175.197 106.541 175.282 106.208 175.129 105.95C174.976 105.692 174.643 105.607 174.385 105.76C174.127 105.913 174.042 106.246 174.195 106.504C174.348 106.762 174.681 106.847 174.939 106.694Z" fill="#EB996E"/>
<path d="M180.852 104.765C180.882 104.567 180.665 104.371 180.368 104.327C180.071 104.283 179.807 104.408 179.778 104.606C179.748 104.804 179.965 105 180.262 105.044C180.559 105.088 180.823 104.963 180.852 104.765Z" fill="#EB996E"/>
<path d="M62.7922 119.955C62.7922 120.136 61.706 120.136 60.6198 118.687C60.0767 117.963 59.8956 117.058 60.0767 115.971C60.2577 114.884 60.9818 113.798 62.068 113.073C63.1542 112.349 64.4215 112.168 65.5076 112.168C66.5938 112.349 67.499 112.711 68.0421 113.255C69.3093 114.16 69.4904 115.247 69.4904 115.247C69.3093 115.247 68.9473 114.522 67.68 113.798C66.5938 113.073 64.4214 112.711 62.6111 113.798C61.706 114.341 61.1629 115.247 60.9818 116.152C60.8008 117.058 60.9818 117.782 61.3439 118.506C61.887 119.593 62.9732 119.774 62.7922 119.955Z" fill="#251A51"/>
<path d="M224.817 353.931L226.447 400.654C226.447 400.654 90.8531 427.456 73.474 436.511C56.0949 445.566 48.8536 446.834 49.9397 472.73L266.455 472.368C266.455 472.368 293.067 462.408 292.704 433.251C292.342 404.095 284.92 334.373 284.92 334.373L224.817 353.931Z" fill="#FFBE9D"/>
<path d="M72.3871 473.455L90.3093 471.825L107.507 430.716C104.792 430.173 46.6805 421.661 43.4219 422.567L29.4824 472.006C29.6635 472.187 71.3009 473.455 72.3871 473.455Z" fill="#FFBE9D"/>
<path d="M32.741 472.912C32.741 472.912 33.103 473.093 33.6461 473.093C38.353 473.636 60.62 472.187 60.62 472.187C61.7062 469.29 59.7149 460.778 56.9994 460.235C54.2839 459.692 30.7496 461.321 30.7496 461.321C30.7496 461.321 27.129 461.865 26.0428 468.022C25.4997 472.006 32.741 472.912 32.741 472.912Z" fill="#FFBE9D"/>
<path d="M25.3181 460.416C25.3181 460.416 25.6802 460.597 26.2233 460.597C30.9301 461.141 51.9299 460.959 52.8351 458.424C53.9213 455.527 52.292 448.464 49.5765 447.92C46.861 447.377 23.3267 449.007 23.3267 449.007C23.3267 449.007 19.7061 449.55 18.6199 455.708C18.0768 459.511 25.3181 460.416 25.3181 460.416Z" fill="#FFBE9D"/>
<path d="M21.698 448.102C21.698 448.102 22.0601 448.283 22.6032 448.283C27.31 448.826 48.3098 448.645 49.2149 446.11C50.3011 443.212 48.6718 436.149 45.9563 435.606C43.2409 435.063 19.7066 436.693 19.7066 436.693C19.7066 436.693 16.086 437.236 14.9998 443.393C14.4567 447.196 21.698 448.102 21.698 448.102Z" fill="#FFBE9D"/>
<path d="M18.2587 435.787C18.2587 435.787 18.6207 435.968 19.1638 435.968C23.8707 436.511 44.8705 436.33 45.7757 433.795C46.8619 430.897 45.2326 423.835 42.5171 423.291C39.8016 422.748 16.2673 424.378 16.2673 424.378C16.2673 424.378 12.6467 424.921 11.5605 431.078C10.8363 434.881 18.2587 435.787 18.2587 435.787Z" fill="#FFBE9D"/>
<path d="M50.844 460.235C50.844 460.597 46.3182 460.959 40.7062 461.14C35.0942 461.321 30.5684 461.14 30.5684 460.778C30.5684 460.416 35.0942 460.054 40.7062 459.873C46.4992 459.691 51.025 459.873 50.844 460.235Z" fill="#EB996E"/>
<path d="M36.5701 449.189C44.5647 448.936 51.0352 448.406 51.0225 448.006C51.0099 447.606 44.5187 447.488 36.5242 447.741C28.5297 447.995 22.0591 448.525 22.0718 448.925C22.0845 449.325 28.5756 449.443 36.5701 449.189Z" fill="#EB996E"/>
<g opacity="0.78">
<g opacity="0.78">
<g opacity="0.78">
<g opacity="0.78">
<path opacity="0.78" d="M35.659 436.51C43.6536 436.256 50.1241 435.726 50.1114 435.327C50.0987 434.927 43.6076 434.808 35.6131 435.062C27.6185 435.316 21.148 435.846 21.1607 436.246C21.1734 436.646 27.6645 436.764 35.659 436.51Z" fill="#EB996E"/>
</g>
</g>
</g>
</g>
<path d="M83.6121 427.637C83.6121 427.637 44.147 410.071 41.6125 412.606C39.0781 415.142 35.2764 423.291 35.2764 423.291L83.6121 427.637Z" fill="#FFBE9D"/>
<path d="M256.86 441.582C256.679 441.582 255.955 438.684 253.964 434.338C253.059 432.165 251.791 429.629 250.162 426.732C248.533 424.015 246.722 421.118 244.369 418.22C242.197 415.323 239.662 412.788 237.49 410.614C235.136 408.441 232.964 406.63 231.154 405.181C227.352 402.284 224.817 400.835 224.817 400.654C224.817 400.654 225.542 401.016 226.628 401.56C227.895 402.103 229.524 403.189 231.516 404.638C233.507 406.087 235.679 407.898 238.033 410.071C240.386 412.244 242.74 414.78 245.093 417.677C247.265 420.575 249.257 423.653 250.886 426.37C252.334 429.267 253.602 431.803 254.507 433.976C255.412 436.149 255.955 438.141 256.317 439.409C256.679 440.676 256.86 441.401 256.86 441.582Z" fill="#EB996E"/>
<path d="M98.0942 221.369L57.3618 337.633L11.5605 350.853C11.5605 350.853 28.2156 421.3 45.2326 433.976C51.0257 438.323 60.4394 442.85 70.0341 442.307C88.3184 441.039 108.956 428.181 116.741 410.072C123.62 393.954 142.266 228.07 142.266 228.07L98.0942 221.369Z" fill="#FFBE9D"/>
<path d="M141.723 232.778L144.077 204.527L137.559 181.89L135.025 173.197L139.913 178.268L148.964 168.67C148.964 168.67 146.068 151.466 143.534 151.466C142.085 151.466 137.559 153.096 134.301 154.182C132.491 154.907 131.042 155.45 131.042 155.45L123.439 159.434L131.042 147.663C131.042 147.663 139.008 154.182 142.99 148.568C146.068 144.222 134.663 134.443 130.318 131.002C129.413 130.278 127.965 129.915 126.878 130.097L122.353 131.002C122.534 128.467 119.818 125.026 115.836 125.026C110.042 125.026 107.327 130.097 107.327 130.097L102.62 131.002C99.3615 131.002 96.465 132.994 95.1978 136.073L84.8789 164.324L98.0943 221.55" fill="#FFBE9D"/>
<path d="M98.094 221.369C98.094 221.369 97.913 221.007 97.732 220.283C97.551 219.558 97.3699 218.653 97.0078 217.204C96.2837 214.488 95.3785 210.684 94.2923 205.795C91.9389 195.835 88.4993 181.528 84.5166 164.143V163.962V163.781C86.508 158.167 88.6804 152.19 91.0338 146.033C92.12 142.954 93.3872 139.695 94.4734 136.435C95.0165 134.805 95.9217 132.994 97.3699 131.908C98.8182 130.821 100.628 130.097 102.62 130.097C104.068 129.916 105.697 129.553 107.327 129.191L106.965 129.372C107.87 127.923 108.956 126.656 110.404 125.569C111.853 124.664 113.482 123.939 115.292 123.939C117.102 123.758 118.913 124.483 120.361 125.569C121.809 126.656 122.895 128.467 122.895 130.459L122.352 129.916C123.439 129.734 124.525 129.372 125.792 129.191C126.335 129.01 126.878 129.01 127.602 128.829C128.326 128.829 128.87 128.829 129.413 129.191C129.956 129.372 130.68 129.734 131.042 130.097L132.49 131.183C133.395 131.908 134.301 132.632 135.206 133.537C137.016 135.167 138.645 136.797 140.275 138.608C141.904 140.419 143.352 142.411 144.076 144.947C144.257 145.671 144.257 146.395 144.076 147.301C143.895 148.025 143.171 148.568 142.809 149.112C141.723 150.198 140.094 150.742 138.645 150.561C135.749 150.379 133.214 148.931 131.042 147.301L131.766 147.12C129.232 151.104 126.697 155.088 124.163 158.891L123.62 158.167C126.154 156.899 128.689 155.631 131.223 154.182C133.757 153.277 136.292 152.19 139.007 151.466C140.275 151.104 141.542 150.742 142.99 150.379C143.352 150.379 143.533 150.198 144.076 150.379C144.619 150.561 144.8 150.923 145.163 151.104C145.525 151.647 145.887 152.371 146.068 152.915C147.878 157.985 148.783 162.875 149.688 167.765V167.946L149.507 168.127C146.43 171.387 143.352 174.646 140.456 177.725L140.094 178.087L139.732 177.725C138.102 175.914 136.292 174.284 134.844 172.654L135.387 172.292C138.826 184.426 141.904 195.11 144.438 203.803C143.714 212.677 142.99 219.739 142.628 224.629C142.447 226.983 142.266 228.794 142.085 230.243C142.085 230.786 141.904 231.329 141.904 231.692C141.904 232.054 141.904 232.235 141.904 232.235C141.904 232.235 141.904 232.054 141.904 231.692C141.904 231.329 141.904 230.786 141.904 230.243C142.085 228.975 142.085 227.164 142.266 224.629C142.628 219.739 143.171 212.677 143.895 203.803V203.984C141.361 195.291 138.283 184.788 134.663 172.654L134.301 171.205L135.387 172.292C137.016 173.922 138.645 175.552 140.275 177.363H139.732C142.628 174.284 145.706 171.024 148.783 167.765L148.602 168.127C147.697 163.418 146.792 158.348 144.981 153.458C144.8 152.915 144.438 152.19 144.076 151.828C143.895 151.647 143.714 151.466 143.533 151.466C143.352 151.466 142.99 151.466 142.628 151.466C141.361 151.647 140.094 152.19 138.826 152.553C136.292 153.458 133.757 154.364 131.223 155.269C128.689 156.537 126.154 157.804 123.62 159.253L121.99 159.978L122.895 158.529C125.43 154.726 127.964 150.742 130.499 146.757L130.861 146.395L131.223 146.757C133.214 148.387 135.749 149.655 138.283 149.836C139.55 149.836 140.818 149.474 141.723 148.568C142.085 148.025 142.628 147.663 142.809 147.12C142.99 146.576 142.99 146.033 142.809 145.309C142.266 143.136 140.637 141.144 139.188 139.333C137.559 137.522 135.93 135.892 134.12 134.262C133.214 133.537 132.309 132.632 131.404 131.908C130.499 131.183 129.594 130.278 128.689 129.916C127.602 129.553 126.697 129.734 125.43 129.916C124.344 130.097 123.258 130.459 121.99 130.64L121.447 130.821V130.278C121.447 128.829 120.542 127.199 119.275 126.294C118.008 125.207 116.378 124.845 114.749 124.845C111.49 124.845 108.594 127.018 107.146 129.734L106.965 129.916H106.784C105.154 130.278 103.525 130.459 102.077 130.821C100.447 130.821 98.6372 131.364 97.3699 132.451C96.1027 133.537 95.1975 134.986 94.6544 136.616C93.3872 139.876 92.301 142.954 91.2148 146.214C88.8614 152.371 86.689 158.348 84.6976 163.962V163.781C88.6804 181.166 91.9389 195.472 94.2923 205.614C95.3785 210.503 96.2837 214.488 96.8268 217.204C97.1889 218.472 97.3699 219.558 97.5509 220.283C98.094 221.007 98.094 221.369 98.094 221.369Z" fill="#EB996E"/>
<path d="M130.86 169.395C130.679 169.214 134.119 167.403 138.826 165.048L141.722 163.6L139.188 165.773C138.645 166.316 137.921 167.04 137.559 167.946C136.834 169.395 136.472 170.843 136.653 172.111C136.834 173.379 137.196 174.646 137.74 175.552C138.826 177.363 139.912 178.087 139.912 178.087C139.912 178.268 138.464 177.725 137.196 175.914C136.472 175.009 135.929 173.741 135.748 172.292C135.567 170.843 135.929 169.032 136.653 167.584C137.196 166.678 137.74 165.954 138.464 165.229L139.007 165.954C134.481 168.127 130.86 169.576 130.86 169.395Z" fill="#EB996E"/>
<path d="M109.136 154.001C108.955 154.001 109.86 152.372 111.309 149.655C112.757 147.12 114.929 143.498 117.283 139.695C118.55 137.703 119.636 135.892 120.722 134.262C121.809 132.632 123.076 131.183 124.524 130.459C125.972 129.735 127.24 129.553 127.964 129.735C128.869 129.916 129.231 130.097 129.231 130.097C129.231 130.097 128.688 130.097 127.964 130.097C127.24 130.097 125.972 130.278 124.886 131.002C122.352 132.451 120.722 136.254 118.188 140.057C115.834 143.86 113.662 147.301 112.033 149.836C110.222 152.553 109.317 154.183 109.136 154.001Z" fill="#EB996E"/>
<path d="M95.0171 154.001C94.8361 154.001 95.3792 152.553 96.2843 150.198C97.1895 147.844 98.6378 144.765 100.267 141.325C101.896 137.884 103.707 134.805 104.974 132.632C106.241 130.459 107.146 129.191 107.146 129.191C107.327 129.191 106.603 130.64 105.517 132.994C104.25 135.53 102.802 138.427 101.172 141.687C99.5429 144.947 98.0947 147.844 96.8274 150.561C95.9223 152.553 95.1981 154.001 95.0171 154.001Z" fill="#EB996E"/>
<path d="M62.2493 326.224C62.2493 326.224 62.0682 326.948 61.5251 328.397C60.982 329.846 60.2579 331.838 59.3527 334.011C57.5424 338.72 55.189 345.239 52.4735 352.483C49.939 359.727 47.5856 366.427 46.1374 371.136C45.4132 373.309 44.6891 375.301 44.146 376.75C43.6029 378.017 43.4219 378.742 43.4219 378.742C43.4219 378.742 43.6029 378.017 43.965 376.569C44.327 375.12 44.8701 373.309 45.5943 370.774C47.0425 365.884 49.2149 359.183 51.7494 351.94C54.2838 344.696 56.8183 338.176 58.8096 333.468C59.7148 331.113 60.62 329.303 61.1631 328.035C61.8872 326.767 62.2493 326.224 62.2493 326.224Z" fill="#EB996E"/>
<path d="M122.895 379.647C122.895 379.647 122.895 379.828 122.895 380.191C122.895 380.553 122.714 381.096 122.714 381.82C122.533 383.269 122.171 385.261 121.809 387.797C121.447 390.332 120.904 393.592 120.18 397.214C119.456 400.836 118.37 405.001 116.74 409.528C115.111 413.874 112.577 418.583 108.775 422.748C104.973 426.913 100.447 430.716 95.0164 433.795C89.5854 437.055 83.6113 439.409 76.9131 441.22C73.6545 442.125 70.2149 442.669 66.5942 442.669C62.9736 442.669 59.534 441.944 56.0943 440.858C49.2151 438.322 43.6031 433.795 39.2583 428.362C34.9135 423.11 31.836 417.134 29.4825 411.339C27.1291 405.544 25.6809 399.749 24.0516 394.497C22.4223 389.245 20.974 384.356 19.5258 379.828C16.8103 370.955 14.6379 363.53 13.1896 358.459C12.4655 355.924 12.1034 353.932 11.7413 352.664C11.5603 352.121 11.5603 351.577 11.3793 351.215C11.3793 350.853 11.1983 350.672 11.3793 350.672C11.3793 350.672 11.3793 350.853 11.5603 351.215C11.7413 351.577 11.7413 352.121 11.9224 352.664C12.2844 354.113 12.8275 355.924 13.5517 358.459C14.9999 363.53 17.1723 370.774 20.0688 379.647C21.5171 384.175 22.9654 389.064 24.7757 394.316C26.405 399.568 27.8532 405.363 30.2067 410.977C32.5601 416.591 35.6377 422.386 39.8014 427.638C43.9652 432.89 49.5772 437.417 56.2754 439.771C59.5339 440.858 63.1546 441.582 66.5942 441.582C70.0339 441.582 73.4735 441.039 76.7321 440.133C83.2492 438.322 89.2233 435.968 94.4733 432.708C99.7232 429.63 104.43 425.827 108.051 421.843C111.852 417.859 114.206 413.331 116.016 408.985C117.645 404.639 118.732 400.473 119.456 396.851C120.18 393.229 120.723 389.97 121.266 387.434C121.628 384.899 121.99 382.907 122.352 381.458C122.533 380.734 122.533 380.372 122.714 379.828L122.895 379.647Z" fill="#EB996E"/>
</svg>
