<svg width="23" height="21" viewBox="0 0 23 21" fill="none" xmlns="http://www.w3.org/2000/svg">
<path d="M15.1543 19.1704V3.17041C15.1543 2.63998 14.9436 2.13127 14.5685 1.7562C14.1934 1.38112 13.6847 1.17041 13.1543 1.17041H9.1543C8.62386 1.17041 8.11516 1.38112 7.74008 1.7562C7.36501 2.13127 7.1543 2.63998 7.1543 3.17041V19.1704M3.1543 5.17041H19.1543C20.2589 5.17041 21.1543 6.06584 21.1543 7.17041V17.1704C21.1543 18.275 20.2589 19.1704 19.1543 19.1704H3.1543C2.04973 19.1704 1.1543 18.275 1.1543 17.1704V7.17041C1.1543 6.06584 2.04973 5.17041 3.1543 5.17041Z" stroke="white" stroke-width="2" stroke-linecap="round" stroke-linejoin="round"/>
</svg>
