<svg width="480" height="489" viewBox="0 0 480 489" fill="none" xmlns="http://www.w3.org/2000/svg">
<path fill-rule="evenodd" clip-rule="evenodd" d="M783.163 168.968C723.371 227.836 706.315 337.153 624.678 356.541C543.12 375.909 474.508 296.734 399.071 260.183C323.199 223.421 226.112 214.291 182.356 142.226C138.018 69.2009 153.747 -25.145 175.697 -107.709C195.742 -183.107 251.174 -238.344 299.76 -299.384C354.705 -368.411 390.763 -470.136 477.409 -486.752C564.072 -503.371 637.386 -425.784 711.829 -378.405C777.332 -336.716 838.434 -292.452 882.809 -228.737C932.547 -157.321 1001.18 -77.7416 980.026 6.67868C958.839 91.2427 845.284 107.805 783.163 168.968Z" fill="#FFF000"/>
</svg>
