<svg width="633" height="204" viewBox="0 0 633 204" fill="none" xmlns="http://www.w3.org/2000/svg">
<path fill-rule="evenodd" clip-rule="evenodd" d="M745.436 365.291C755.783 448.558 832.167 528.6 797.889 605.186C763.644 681.698 659.065 687.986 584.163 725.621C508.829 763.473 442.519 834.972 358.705 825.858C273.773 816.622 208.464 746.741 156.29 679.092C108.645 617.314 98.5274 539.716 79.6408 464.02C58.2828 378.42 -0.516007 287.916 39.0088 209.04C78.5413 130.149 184.72 119.164 267.612 88.9044C340.548 62.2795 412.851 40.7143 490.414 44.2572C577.354 48.2284 682.265 42.1722 736.398 110.318C790.624 178.579 734.686 278.778 745.436 365.291Z" fill="#FFF000"/>
</svg>
