<svg width="284" height="564" viewBox="0 0 284 564" fill="none" xmlns="http://www.w3.org/2000/svg">
<path d="M215.491 492.982L224.896 530.323L240.836 557.715C241.99 559.693 241.226 562.22 239.177 563.231C238.038 563.794 236.696 563.78 235.571 563.173L199.536 540.763L189.092 503.465L215.491 492.982Z" fill="#00B4FF"/>
<path d="M235.571 563.173L199.536 540.763L197.992 535.232L239.466 563.072C239.452 563.072 237.446 564.299 235.571 563.173Z" fill="#251A51"/>
<path d="M98.8596 501.184L100.793 530.366C100.793 530.366 71.7684 540.012 71.6097 545.441L128.317 545.846L127.177 500.245L98.8596 501.184Z" fill="#00B4FF"/>
<path d="M128.302 545.846L128.187 541.254L73.4273 542.77C73.4273 542.77 71.6097 543.564 71.3212 545.86L128.302 545.846Z" fill="#00B4FF"/>
<path d="M101.326 250.164L190.289 245.573L227.045 525.226L191.847 529.688L145.512 298.451L132.009 520.778L131.577 528.836L94.806 529.688L101.326 250.164Z" fill="#251A51"/>
<path d="M108.784 523.045C108.986 523.06 112.304 472.333 116.17 409.766C120.036 347.17 123.008 296.443 122.806 296.429C122.604 296.415 119.286 347.127 115.42 409.723C111.554 472.29 108.582 523.045 108.784 523.045Z" fill="#251A51"/>
<path d="M169.79 294.436C169.588 294.465 178.258 345.524 189.149 408.452C200.041 471.409 209.042 522.396 209.244 522.352C209.446 522.323 200.791 471.265 189.885 408.322C178.994 345.394 169.992 294.393 169.79 294.436Z" fill="#251A51"/>
<path d="M264.061 146.849L280.218 123.225C283.435 117.883 284.387 115.442 283.348 114.908C281.963 114.186 282.526 114.403 275.299 123.283C275.299 123.283 285.512 110.519 281.127 111.544C280.348 111.717 278.53 113.508 276.612 115.572C279.078 112.15 279.497 110.143 278.689 109.436C277.304 108.208 270.928 115.471 268.014 118.937C270.38 116.049 274.866 110.49 275.515 108.93C276.395 106.808 273.741 107.616 271.721 108.916C269.456 110.374 257.541 120.727 253.949 123.529C251.482 125.464 249.881 123.182 249.881 123.182C246.852 117.291 241.341 114.331 239.466 114.23C237.59 114.128 236.84 116.67 238.456 117.955C239.769 118.995 241.428 121.392 242.596 123.24C243.563 124.756 244.269 126.431 244.673 128.164C244.947 129.333 245.149 130.402 245.337 131.384L238.773 143.08L260.282 156.798L264.061 146.849Z" fill="#F6AEA6"/>
<path d="M271.894 128.467C272.111 128.655 274.448 126.027 277.117 122.59C279.785 119.154 281.747 116.251 281.516 116.078C281.286 115.919 278.949 118.547 276.294 121.955C273.64 125.363 271.678 128.279 271.894 128.467Z" fill="#251A51"/>
<path d="M266.86 126.373C267.076 126.561 269.731 123.904 272.774 120.424C275.818 116.959 278.126 113.984 277.91 113.796C277.694 113.609 275.054 116.265 271.995 119.745C268.937 123.211 266.644 126.185 266.86 126.373Z" fill="#251A51"/>
<path d="M262.734 124.424C262.951 124.612 265.489 122.142 268.418 118.893C271.346 115.645 273.553 112.858 273.337 112.67C273.121 112.482 270.582 114.951 267.653 118.2C264.725 121.435 262.518 124.222 262.734 124.424Z" fill="#251A51"/>
<path d="M262.72 137.03C262.763 136.986 262.172 136.423 260.873 136.163C259.633 135.903 257.57 136.062 255.94 137.578L256.546 137.925C256.733 137.145 256.863 136.308 256.892 135.427C257.007 132.712 256.214 130.315 255.363 128.799C254.512 127.254 253.689 126.518 253.632 126.575C253.531 126.648 254.194 127.5 254.887 129.03C255.579 130.561 256.257 132.842 256.142 135.398C256.113 136.221 255.997 137.03 255.839 137.752L255.579 138.936L256.445 138.098C257.815 136.77 259.647 136.495 260.816 136.625C262.013 136.741 262.662 137.131 262.72 137.03Z" fill="#251A51"/>
<path d="M172.502 37.5547L166.79 103.847L151.239 113.031L133.914 104.641C133.712 100.757 133.683 82.3322 133.683 82.3322C133.683 82.3322 119.878 80.1807 119.705 66.3763C119.618 59.6619 120.585 45.7998 121.594 33.3095C122.72 19.4474 134.678 9.03636 148.541 9.84498C162.909 10.6825 173.743 23.2161 172.502 37.5547Z" fill="#F6AEA6"/>
<path d="M133.683 82.3324C133.683 82.3324 142.396 82.8378 151.657 77.0186C151.657 77.0186 145.267 83.4587 133.683 82.7511V82.3324Z" fill="#251A51"/>
<path d="M127.062 42.8538C127.018 43.8934 127.422 44.7598 127.956 44.8031C128.49 44.832 128.966 44.0234 129.009 42.9837C129.052 41.9441 128.649 41.0777 128.115 41.0343C127.581 40.991 127.105 41.8141 127.062 42.8538Z" fill="#251A51"/>
<path d="M124.826 38.681C125.071 38.9409 126.557 37.829 128.677 37.8435C130.798 37.8146 132.356 38.912 132.586 38.6521C132.702 38.5366 132.457 38.0745 131.779 37.5835C131.115 37.0926 129.975 36.6161 128.648 36.6161C127.321 36.6161 126.21 37.107 125.576 37.6124C124.927 38.1034 124.71 38.5654 124.826 38.681Z" fill="#251A51"/>
<path d="M147.849 43.2726C147.806 44.3122 148.238 45.1786 148.801 45.2219C149.364 45.2508 149.854 44.4422 149.897 43.4025C149.941 42.3629 149.508 41.4821 148.945 41.4532C148.383 41.4099 147.892 42.2329 147.849 43.2726Z" fill="#251A51"/>
<path d="M145.396 39.2171C145.642 39.477 147.142 38.3651 149.262 38.3796C151.383 38.3507 152.941 39.4481 153.172 39.1882C153.287 39.0727 153.042 38.6106 152.364 38.1197C151.7 37.6287 150.561 37.1522 149.234 37.1522C147.906 37.1667 146.796 37.6432 146.161 38.1486C145.497 38.6395 145.281 39.1016 145.396 39.2171Z" fill="#251A51"/>
<path d="M137.693 56.4127C137.708 56.2972 136.38 56.0661 134.246 55.7918C133.697 55.734 133.192 55.633 133.106 55.2575C132.976 54.8677 133.207 54.2756 133.467 53.6547C133.971 52.3407 134.505 50.9689 135.068 49.525C137.289 43.648 138.905 38.8107 138.66 38.7241C138.429 38.6374 136.424 43.3303 134.202 49.2073C133.668 50.6513 133.149 52.0375 132.673 53.3659C132.471 53.9868 132.111 54.6799 132.399 55.4886C132.543 55.8929 132.947 56.1817 133.293 56.2827C133.64 56.3838 133.943 56.3983 134.217 56.4127C136.366 56.5138 137.693 56.5282 137.693 56.4127Z" fill="#251A51"/>
<path d="M143.939 57.8712C143.593 57.8568 143.593 60.1527 141.617 61.7844C139.655 63.4305 137.203 63.1706 137.174 63.4883C137.145 63.6327 137.722 63.9359 138.761 63.9648C139.77 63.9936 141.256 63.676 142.468 62.6796C143.665 61.6833 144.185 60.3404 144.271 59.3874C144.358 58.4344 144.098 57.8568 143.939 57.8712Z" fill="#251A51"/>
<path d="M182.254 19.8805C182.34 17.2958 180.508 14.5523 177.926 14.379C178.994 11.9243 178.301 8.80529 176.296 7.02921C174.277 5.25312 171.103 4.97877 168.809 6.35054C168.045 3.36153 165.477 0.921222 162.448 0.300315C159.433 -0.320591 156.1 0.935661 154.239 3.39041C152.306 1.10894 149.133 -0.0606765 146.176 0.401393C143.218 0.863463 140.564 2.95722 139.424 5.74407C136.885 3.62144 133.221 2.94278 130.105 3.99687C128.115 4.67554 126.398 6.03287 125.215 7.76563C123.672 7.27468 122.099 6.89925 120.498 7.01477C118.435 7.15916 116.315 8.25658 115.536 10.1626C114.886 11.7365 115.55 13.787 116.949 14.6245C114.454 14.018 111.482 15.7941 111.107 18.3932C110.775 20.7325 112.636 22.9851 114.872 23.5193C114.035 23.9525 113.357 24.9344 113.444 25.9163C113.603 27.5913 115.132 28.8187 116.675 29.4973C120.613 31.2301 125.201 30.6814 129.269 29.3096C133.337 27.9379 137.116 25.8008 141.155 24.3279C145.195 22.8551 151.96 20.2126 156.014 21.6422C156.591 21.8443 157.125 22.162 157.644 22.5085C159.822 24.2413 161.265 26.7538 161.654 29.5118C161.669 29.6129 161.683 29.6995 161.697 29.7861C162.231 33.7282 162.145 37.728 162.722 41.67C163.299 45.5976 164.655 49.6118 167.569 52.312C168.766 53.4239 170.872 54.1892 171.867 52.8896C172.243 52.3842 172.315 51.72 172.358 51.0847C172.892 44.2258 174.378 37.9157 175.171 31.2012C175.979 29.4829 177.566 28.0823 178.922 26.6527C180.653 24.7756 182.167 22.4508 182.254 19.8805Z" fill="#251A51"/>
<path d="M141.112 12.9351C141.069 12.9496 140.838 12.2998 140.925 11.1013C141.026 9.91724 141.516 8.09784 143.132 6.56724C144.704 5.05107 147.575 4.14137 150.388 5.13771C151.758 5.62866 153.158 6.61056 153.792 8.19892C154.095 8.9931 154.153 9.88836 153.893 10.7403C153.648 11.5778 152.999 12.4009 152.105 12.7185C151.239 13.0507 150.2 12.9929 149.421 12.4153C148.628 11.8377 148.339 10.8269 148.44 9.975C148.513 9.10862 148.96 8.3 149.566 7.76573C150.157 7.21702 150.878 6.87047 151.571 6.65387C154.398 5.81637 157.168 6.53836 158.928 7.86681C159.808 8.53103 160.428 9.36853 160.717 10.2205C161.005 11.0724 160.976 11.8522 160.832 12.4442C160.515 13.6571 159.837 14.047 159.837 14.0037C159.765 13.9459 160.313 13.4983 160.5 12.372C160.587 11.8233 160.558 11.1157 160.269 10.3793C159.966 9.65733 159.389 8.9209 158.567 8.35776C156.952 7.21702 154.355 6.625 151.83 7.41918C150.604 7.80905 149.407 8.70431 149.306 10.0472C149.248 10.6825 149.465 11.3468 149.955 11.7078C150.431 12.0688 151.181 12.1265 151.802 11.8955C153.085 11.4334 153.489 9.70065 152.999 8.50215C152.508 7.23146 151.326 6.3362 150.114 5.90301C147.633 4.97887 145.022 5.7153 143.55 7.04375C142.021 8.3722 141.458 10.0472 141.271 11.1591C141.069 12.2709 141.184 12.9207 141.112 12.9351Z" fill="#00B4FF"/>
<path d="M157.875 4.11241C157.875 4.05465 158.307 3.95357 159.115 3.88137C159.923 3.80917 161.12 3.73697 162.577 3.96801C164.02 4.19904 165.823 4.83439 167.222 6.33612C168.651 7.76564 169.314 10.4659 167.958 12.5885C167.742 12.9206 167.482 13.2094 167.208 13.4549L166.761 12.7185C167.915 12.2708 169.155 12.5596 170.05 13.1516C170.973 13.7292 171.579 14.6967 171.81 15.6497C172.257 17.5846 171.55 19.3174 170.742 20.4292C169.906 21.57 168.997 22.2342 168.376 22.653C167.742 23.0717 167.367 23.245 167.338 23.1872C167.309 23.1295 167.626 22.8695 168.189 22.3786C168.737 21.8876 169.545 21.1657 170.252 20.0827C170.944 19.0286 171.478 17.4402 171.06 15.8374C170.843 15.0432 170.353 14.3213 169.617 13.8592C168.881 13.3971 167.929 13.195 167.107 13.5271L164.842 14.4368L166.645 12.7762C166.862 12.5885 167.064 12.3575 167.237 12.0975C167.771 11.2889 167.929 10.2637 167.799 9.32513C167.67 8.38655 167.222 7.54905 166.631 6.88482C165.434 5.54193 163.818 4.87771 162.476 4.58892C159.707 4.04021 157.875 4.30012 157.875 4.11241Z" fill="#00B4FF"/>
<path d="M177.854 18.7397C177.955 18.7109 178.2 19.2018 178.2 20.0537C178.215 20.8912 177.898 22.1186 177.003 23.1294C176.109 24.1257 174.911 24.5734 174.075 24.66C173.224 24.7466 172.719 24.5589 172.733 24.4434C172.704 24.1979 174.81 24.2413 176.34 22.5374C177.883 20.8335 177.609 18.7397 177.854 18.7397Z" fill="#00B4FF"/>
<path d="M118.911 11.5201C118.882 11.4912 119.272 11.0292 120.195 10.466C121.118 9.93176 122.633 9.32529 124.595 9.33973C126.513 9.33973 128.966 9.97508 130.841 11.8811C131.735 12.8197 132.558 14.1193 132.471 15.6932C132.385 17.2527 131.029 18.7833 129.225 18.6966C128.331 18.6244 127.566 17.9602 127.249 17.2094C126.917 16.4441 126.903 15.6354 127.105 14.8846C127.538 13.354 128.821 12.4009 130.091 11.9822C131.375 11.549 132.716 11.6501 133.813 12.0544C134.923 12.4443 135.818 13.0652 136.554 13.715C137.996 15.0434 138.761 16.4296 139.266 17.3538C139.77 18.2923 139.987 18.841 139.929 18.8699C139.871 18.8988 139.554 18.4078 138.963 17.5415C138.371 16.6895 137.534 15.39 136.135 14.2059C134.779 13.0652 132.572 11.9822 130.336 12.7764C129.269 13.1374 128.23 13.9893 127.927 15.13C127.595 16.2419 128.115 17.7581 129.297 17.8447C130.437 17.9458 131.577 16.7906 131.606 15.6643C131.678 14.4658 131.043 13.3106 130.235 12.4731C128.591 10.7404 126.355 10.0762 124.566 10.004C122.734 9.91732 121.277 10.3938 120.339 10.8126C119.416 11.2169 118.954 11.5923 118.911 11.5201Z" fill="#00B4FF"/>
<path d="M167.857 43.8073C168.088 43.7062 177.335 41.006 177.032 50.4495C176.729 59.8931 167.323 57.6405 167.309 57.3661C167.309 57.0918 167.857 43.8073 167.857 43.8073Z" fill="#F6AEA6"/>
<path d="M170.31 53.8864C170.353 53.8575 170.468 54.0019 170.742 54.1463C171.002 54.2762 171.478 54.3773 171.968 54.204C172.978 53.8719 173.873 52.3124 173.974 50.6086C174.031 49.7566 173.873 48.9191 173.584 48.2404C173.324 47.5329 172.892 47.042 172.387 46.9409C171.896 46.8109 171.521 47.0997 171.406 47.3596C171.276 47.6195 171.319 47.8073 171.276 47.8217C171.247 47.8506 171.074 47.6629 171.161 47.273C171.204 47.0853 171.319 46.8687 171.55 46.6954C171.781 46.5221 172.113 46.4355 172.473 46.4788C173.195 46.551 173.829 47.2441 174.147 47.995C174.493 48.7603 174.695 49.6844 174.637 50.6519C174.522 52.5579 173.483 54.3051 172.113 54.6517C171.449 54.8105 170.901 54.5795 170.612 54.3484C170.324 54.1174 170.281 53.9008 170.31 53.8864Z" fill="#251A51"/>
<path d="M195.886 164.812C195.886 167.093 189.063 212.824 189.063 212.824L202.652 287.13L150.013 289.917L143.752 244.302L136.9 289.917L91.3149 285.498L101.687 227.696L101.586 161.548L102.163 108.367L121.609 101.71L131.649 89.9419L147.906 100.079L167.958 88.0647L174.305 96.7285L202.652 111.5C205.219 116.222 195.886 164.812 195.886 164.812Z" fill="#E3707F"/>
<path d="M167.958 88.0647L168.607 102.461L140.925 176.176L129.73 103.746L133.366 89.8408C133.351 89.8263 133.366 89.8408 133.38 89.8408L147.892 100.079L167.958 88.0647Z" fill="white"/>
<path d="M141.559 178.977C141.588 178.991 141.804 178.717 142.223 178.183C142.684 177.576 143.276 176.782 144.012 175.8C145.584 173.634 147.777 170.645 150.445 166.978C155.869 159.411 163.255 149.087 171.42 137.68C172.589 136.033 173.743 134.402 174.882 132.799L175.041 132.568L174.882 132.337C172.993 129.593 171.146 126.936 169.386 124.381L169.3 124.9C173.772 121.55 177.897 118.475 181.504 115.775L181.691 115.63L181.605 115.414C179.426 109.753 177.638 105.089 176.354 101.754C175.733 100.194 175.243 98.9523 174.868 98.0137C174.522 97.1618 174.32 96.7142 174.291 96.7286C174.262 96.743 174.406 97.2051 174.695 98.0859C175.027 99.039 175.474 100.31 176.022 101.884C177.248 105.248 178.95 109.941 181.013 115.645L181.129 115.284C177.493 117.955 173.353 121.002 168.852 124.308L168.549 124.525L168.766 124.828C170.511 127.384 172.343 130.041 174.233 132.799V132.337C173.094 133.94 171.939 135.557 170.771 137.217C162.678 148.683 155.35 159.05 149.984 166.646C147.402 170.371 145.281 173.418 143.766 175.627C143.088 176.638 142.526 177.461 142.107 178.096C141.732 178.659 141.545 178.963 141.559 178.977Z" fill="#251A51"/>
<path d="M143.954 255.839C143.983 255.839 143.997 255.565 143.997 255.031C143.983 254.41 143.983 253.659 143.968 252.735C143.911 250.627 143.824 247.768 143.738 244.302C143.492 237.082 143.161 227.307 142.8 216.491C142.468 205.691 142.165 195.915 141.949 188.681C141.862 185.215 141.776 182.356 141.733 180.248C141.704 179.324 141.675 178.573 141.646 177.952C141.617 177.432 141.588 177.158 141.559 177.158C141.531 177.158 141.502 177.432 141.487 177.952C141.473 178.573 141.444 179.324 141.43 180.248C141.386 182.24 141.386 185.128 141.401 188.681C141.444 195.799 141.66 205.647 142.021 216.506C142.382 227.364 142.814 237.198 143.189 244.302C143.391 247.768 143.55 250.612 143.68 252.72C143.752 253.645 143.81 254.395 143.853 255.002C143.896 255.565 143.94 255.839 143.954 255.839Z" fill="#251A51"/>
<path d="M140.42 176.826C140.449 176.811 140.348 176.522 140.146 175.988C139.901 175.367 139.598 174.587 139.237 173.634C138.371 171.497 137.189 168.595 135.732 165.043C132.659 157.722 128.504 147.802 123.903 136.828C122.936 134.561 121.998 132.323 121.075 130.157L121.017 130.561C123.268 127.861 125.432 125.29 127.466 122.85L127.682 122.59L127.451 122.359C123.946 118.735 120.801 115.471 118.118 112.685L118.176 112.973C119.416 109.378 120.426 106.447 121.162 104.281C121.479 103.313 121.724 102.533 121.941 101.913C122.114 101.364 122.186 101.075 122.157 101.061C122.128 101.046 121.998 101.321 121.782 101.855C121.537 102.461 121.234 103.241 120.873 104.18C120.08 106.317 118.983 109.219 117.642 112.786L117.584 112.944L117.7 113.074C120.339 115.89 123.455 119.197 126.903 122.865L126.889 122.374C124.84 124.799 122.676 127.37 120.397 130.041L120.238 130.229L120.339 130.445C121.263 132.611 122.2 134.835 123.167 137.116C127.855 148.047 132.096 157.953 135.212 165.245C136.756 168.754 138.025 171.627 138.948 173.735C139.381 174.66 139.727 175.425 140.001 176.031C140.247 176.566 140.391 176.826 140.42 176.826Z" fill="#251A51"/>
<g opacity="0.3">
<g opacity="0.3">
<path opacity="0.3" d="M181.316 115.543L173.166 124.655L178.806 134.792L143.954 176.176L174.565 132.568L169.083 124.612L181.316 115.543Z" fill="black"/>
</g>
</g>
<g opacity="0.3">
<g opacity="0.3">
<path opacity="0.3" d="M139.597 174.876L120.195 136.769L120.7 130.315L139.597 174.876Z" fill="#251A51"/>
</g>
</g>
<path d="M200.646 116.381C200.618 116.338 200.243 116.583 199.579 117.06C198.915 117.522 198.035 118.301 196.997 119.327C194.934 121.363 192.453 124.611 190.65 128.698C188.861 132.784 188.154 136.813 188.053 139.715C187.995 141.159 188.024 142.343 188.125 143.152C188.212 143.961 188.284 144.394 188.341 144.394C188.486 144.379 188.356 142.603 188.616 139.759C188.861 136.914 189.64 133.015 191.385 129.03C193.145 125.045 195.482 121.839 197.401 119.731C199.348 117.608 200.747 116.496 200.646 116.381Z" fill="#251A51"/>
<path d="M98.9605 153.577C99.1769 153.592 99.927 145.188 100.634 134.82C101.341 124.438 101.73 116.02 101.499 116.005C101.283 115.991 100.533 124.395 99.826 134.763C99.1336 145.13 98.7441 153.563 98.9605 153.577Z" fill="#251A51"/>
<path d="M129.846 104.021C129.817 104.05 130.105 104.367 130.668 104.945C131.23 105.522 132.067 106.36 133.149 107.385C135.327 109.45 138.487 112.396 142.814 115.269L143.319 115.601L143.348 114.995C143.449 112.396 143.55 109.566 144.589 106.779C145.079 105.393 145.757 104.006 146.579 102.678C146.983 102.014 147.43 101.364 147.921 100.729L148.108 100.497L148.195 100.382L148.224 100.353V100.339C148.671 100.238 147.618 100.469 147.719 100.44C147.704 100.44 147.704 100.44 147.704 100.44L147.733 100.469C147.849 100.555 147.964 100.7 148.08 100.844C148.31 101.133 148.498 101.479 148.685 101.826C149.767 104.035 150.142 106.519 150.618 108.858C151.051 111.197 151.412 113.464 151.729 115.601L151.816 116.237L152.306 115.847C157.038 112.064 161.077 108.844 164.049 106.476C165.39 105.364 166.501 104.468 167.352 103.761C168.117 103.126 168.506 102.765 168.477 102.736C168.448 102.707 168.001 102.996 167.208 103.588C166.313 104.252 165.174 105.104 163.775 106.143C160.76 108.454 156.663 111.602 151.859 115.284L152.45 115.529C152.162 113.378 151.801 111.096 151.383 108.743C150.921 106.403 150.561 103.891 149.392 101.494C149.205 101.104 148.988 100.729 148.714 100.382C148.57 100.209 148.426 100.035 148.224 99.8621L148.123 99.7899L148.08 99.7611C148.18 99.7322 147.127 99.9632 147.575 99.8621V99.8766L147.546 99.9055L147.459 100.035L147.272 100.281C146.781 100.945 146.32 101.609 145.901 102.302C145.065 103.674 144.358 105.104 143.853 106.562C142.785 109.465 142.713 112.439 142.641 115.009L143.175 114.735C138.862 111.963 135.659 109.104 133.409 107.14C132.356 106.201 131.49 105.436 130.798 104.829C130.206 104.252 129.86 103.992 129.846 104.021Z" fill="#251A51"/>
<path d="M141.617 175.511C141.833 175.526 143.435 158.761 145.166 138.084C146.911 117.392 148.137 100.598 147.921 100.584C147.705 100.57 146.103 117.32 144.372 138.026C142.627 158.689 141.386 175.483 141.617 175.511Z" fill="#251A51"/>
<g opacity="0.3">
<g opacity="0.3">
<path opacity="0.3" d="M190.289 159.007C190.289 159.007 191.645 195.294 191.63 195.38C191.616 195.467 194.833 173.937 194.833 173.937L190.289 159.007Z" fill="black"/>
</g>
</g>
<path d="M40.5516 162.342L57.141 149.953L52.8422 141.896L43.177 127.86C42.4125 126.749 41.2296 126.012 39.9169 125.796L31.3769 124.424L30.9586 127.066C30.9586 127.066 27.7561 124.944 26.6309 127.629C25.5057 130.315 29.3285 133.001 29.3285 133.001C29.3285 133.001 26.0683 132.178 25.4192 135.528C24.77 138.864 27.9148 139.354 27.9148 139.354C25.4192 142.676 27.8715 144.639 27.8715 144.639C24.9287 147.946 28.9534 151.094 28.9534 151.094L39.9024 162.241L40.5516 162.342Z" fill="#F6AEA6"/>
<path d="M1.40065 39.8215L0.318737 40.8468L39.5852 156.494L43.5955 154.66L1.40065 39.8215Z" fill="#E8505B"/>
<path d="M27.1355 148.682C28.4915 151.094 30.3812 152.567 32.6316 154.184C33.2375 154.617 33.8866 155.021 34.6223 155.151C35.3581 155.281 36.1947 155.094 36.6563 154.502C36.9881 154.068 37.0891 153.505 37.0458 152.957C36.9737 151.83 36.3967 150.805 35.6466 149.968C34.8964 149.145 33.9588 148.495 33.0355 147.859" fill="#F6AEA6"/>
<path d="M33.036 147.874C32.9495 147.975 33.9448 148.625 35.2287 149.925C35.8346 150.575 36.4837 151.484 36.6713 152.611C36.7578 153.159 36.729 153.78 36.426 154.213C36.1375 154.647 35.5316 154.863 34.9258 154.805C33.6996 154.675 32.6321 153.665 31.6223 152.986C30.6269 152.264 29.7903 151.557 29.1411 150.921C27.8428 149.622 27.2658 148.611 27.1504 148.669C27.0782 148.697 27.4966 149.838 28.7516 151.282C29.3719 152.004 30.223 152.769 31.204 153.535C31.6944 153.925 32.2138 154.3 32.7764 154.704C33.3534 155.094 34.0314 155.47 34.8536 155.542C35.647 155.614 36.5414 155.325 37.0175 154.618C37.4791 153.91 37.4502 153.13 37.3348 152.481C37.0608 151.152 36.2818 150.185 35.5894 149.535C34.1468 148.279 33.0793 147.817 33.036 147.874Z" fill="#251A51"/>
<path d="M102.149 108.367C97.8067 109.811 91.0844 122.475 91.0844 122.475L73.3121 174.876C73.3121 174.876 57.4872 149.116 57.4872 148.683C57.4872 148.249 37.0462 163.714 37.0462 163.714L50.5197 190.052L51.2265 196.853L64.2384 217.979C67.513 221.545 73.3554 222.325 78.1879 222.036C84.3332 221.675 89.7284 217.849 92.0942 212.159L101.673 185.619L102.149 108.367Z" fill="#E3707F"/>
<path d="M210.081 121.998L224.752 169.115L240.375 138.142L263.773 153.087L241.846 201.561C238.615 208.882 229.469 216.405 222.833 216.405C213.067 216.405 204.339 210.311 200.964 201.142L185.327 163.093L202.652 111.5C206.172 114.129 208.768 117.796 210.081 121.998Z" fill="#E3707F"/>
<path d="M224.781 196.521C224.983 196.521 225.098 190.211 225.026 182.442C224.954 174.674 224.737 168.364 224.521 168.364C224.319 168.364 224.204 174.674 224.276 182.442C224.348 190.225 224.579 196.521 224.781 196.521Z" fill="#251A51"/>
<path d="M217.726 188.262C217.827 188.29 218.174 187.092 218.693 185.143C219.212 183.208 219.919 180.522 220.77 177.591C221.621 174.659 222.4 171.959 223.021 170.111C223.352 169.201 224.045 168.826 224.564 168.855C225.083 168.869 225.271 169.172 225.314 169.129C225.357 169.143 225.242 168.696 224.593 168.566C224.29 168.508 223.886 168.537 223.482 168.768C223.078 168.999 222.761 169.418 222.53 169.894C221.737 171.8 220.9 174.428 220.049 177.389C219.198 180.349 218.577 183.049 218.188 185.027C217.784 187.005 217.625 188.247 217.726 188.262Z" fill="#251A51"/>
<path d="M242.481 199.712C242.452 199.698 242.308 199.987 242.033 200.521C241.745 201.055 241.341 201.835 240.764 202.817C239.61 204.766 237.792 207.553 234.878 210.383C233.393 211.755 231.661 213.156 229.541 214.224C227.42 215.278 224.968 215.957 222.314 216.058C219.659 216.174 216.846 215.74 214.178 214.614C211.523 213.502 208.999 211.784 206.835 209.603C205.508 208.261 204.311 206.773 203.416 205.272L203.431 205.315C199.276 194.947 195.295 185.894 192.381 179.425C190.924 176.19 189.726 173.605 188.89 171.829C188.486 171.006 188.168 170.328 187.909 169.793C187.678 169.331 187.548 169.1 187.519 169.115C187.505 169.129 187.591 169.375 187.779 169.851C188.01 170.4 188.284 171.093 188.644 171.93C189.452 173.822 190.563 176.421 191.919 179.612C194.703 186.139 198.598 195.222 202.724 205.575L202.738 205.604L202.753 205.618C203.705 207.221 204.916 208.708 206.301 210.109C208.523 212.361 211.134 214.123 213.904 215.278C216.673 216.433 219.602 216.867 222.343 216.722C225.098 216.592 227.651 215.856 229.829 214.744C231.993 213.603 233.753 212.145 235.253 210.73C238.167 207.799 239.942 204.939 241.024 202.918C241.572 201.907 241.947 201.098 242.178 200.55C242.409 200.016 242.495 199.712 242.481 199.712Z" fill="#251A51"/>
<path d="M39.917 125.797L31.3771 124.425C31.3771 124.425 29.8191 126.909 36.1375 130.331L40.1189 132.728C40.1189 132.728 37.2194 138.23 41.6625 146.301" fill="#F6AEA6"/>
<path d="M41.6625 146.315C41.7779 146.257 41.0133 144.928 40.2776 142.546C39.917 141.347 39.5852 139.889 39.5275 138.214C39.4698 136.568 39.6573 134.633 40.4363 132.915L40.5805 132.597L40.3065 132.424C39.2823 131.803 38.2292 131.167 37.1473 130.518C35.7047 129.651 34.2766 128.9 33.1803 127.89C32.6321 127.399 32.1416 126.864 31.8387 126.272C31.5358 125.709 31.4348 125.016 31.6367 124.597L31.3194 124.742C33.8871 125.117 36.0365 125.42 37.5368 125.608C39.037 125.796 39.9026 125.868 39.917 125.796C39.9314 125.724 39.0803 125.521 37.5945 125.233C36.1086 124.944 33.9737 124.554 31.4204 124.106L31.1895 124.063L31.0886 124.251C30.6702 125.045 30.8866 125.868 31.2184 126.576C31.5646 127.283 32.0984 127.875 32.6754 128.424C33.8438 129.521 35.3297 130.301 36.7578 131.167C37.8397 131.817 38.8928 132.452 39.917 133.059L39.7872 132.568C38.9072 134.546 38.8062 136.51 38.8928 138.243C38.9937 139.99 39.3977 141.492 39.8304 142.69C40.0324 143.297 40.2632 143.816 40.4796 144.279C40.6815 144.741 40.8835 145.116 41.071 145.419C41.4172 146.011 41.6192 146.329 41.6625 146.315Z" fill="#251A51"/>
<path d="M38.3875 162.963C38.4163 162.992 38.9212 162.66 39.8444 162.01C40.8398 161.288 42.167 160.335 43.8115 159.166C47.2736 156.624 52.0485 153.116 57.6889 148.971L57.1984 148.87C59.9825 153.505 63.1273 158.733 66.4596 164.263C67.9599 166.732 69.4169 169.144 70.8306 171.468C72.2443 173.808 73.6724 176.002 74.6822 178.255C76.8028 182.746 77.7693 187.179 78.1155 190.919C78.4617 194.658 78.1876 197.72 77.9135 199.813C77.6395 201.907 77.3509 203.048 77.4231 203.062C77.4519 203.062 77.5385 202.788 77.6827 202.254C77.8414 201.72 78.0145 200.911 78.202 199.871C78.5627 197.777 78.9233 194.702 78.6492 190.89C78.3751 187.092 77.4375 182.572 75.3169 177.981C74.2927 175.656 72.8502 173.432 71.4653 171.107C70.0516 168.768 68.609 166.357 67.1088 163.888C63.762 158.372 60.5884 153.144 57.7899 148.524L57.5879 148.206L57.285 148.437C51.7167 152.668 46.9995 156.263 43.5807 158.863C41.9794 160.104 40.6955 161.115 39.729 161.866C38.8346 162.53 38.373 162.935 38.3875 162.963Z" fill="#251A51"/>
<path d="M73.2397 175.107C73.081 175.309 77.25 177.605 80.3515 182.37C83.5252 187.092 84.0012 191.828 84.2465 191.771C84.333 191.771 84.333 190.586 83.9147 188.738C83.4963 186.89 82.5731 184.392 80.9863 181.966C79.385 179.54 77.452 177.721 75.9085 176.609C74.3649 175.497 73.283 175.035 73.2397 175.107Z" fill="#251A51"/>
<path d="M101.572 130.431C101.543 130.431 101.514 130.763 101.471 131.413C101.442 132.135 101.384 133.073 101.341 134.243C101.254 136.697 101.168 140.264 101.11 144.668C100.98 153.476 100.951 165.635 100.995 179.064C101.038 192.492 101.168 204.651 101.298 213.459C101.384 217.791 101.442 221.328 101.5 223.884C101.543 225.054 101.572 225.992 101.601 226.714C101.629 227.364 101.658 227.696 101.687 227.696C101.716 227.696 101.73 227.35 101.759 226.714C101.774 225.992 101.788 225.054 101.803 223.884C101.817 221.328 101.831 217.791 101.846 213.459C101.831 204.578 101.803 192.464 101.759 179.064C101.716 165.678 101.687 153.563 101.658 144.683C101.658 140.351 101.658 136.813 101.658 134.257C101.658 133.088 101.658 132.149 101.658 131.427C101.615 130.763 101.601 130.431 101.572 130.431Z" fill="#251A51"/>
<path d="M29.0536 126.358C30.6837 127.095 38.0984 131.932 38.863 133.549C39.1082 134.069 39.2958 134.618 39.2813 135.181C39.2669 135.744 39.0072 136.336 38.5312 136.639C37.8243 137.102 36.8723 136.914 36.1077 136.567C32.761 135.066 30.0778 133.622 27.4668 131.21C26.76 130.56 26.3416 129.593 26.2695 128.64C26.2118 127.687 26.7311 126.633 27.6399 126.344" fill="#F6AEA6"/>
<path d="M27.6549 126.358C27.6694 126.329 27.0635 126.329 26.5153 127.109C25.9527 127.845 25.8373 129.405 26.7461 130.791C27.2366 131.499 27.9146 132.004 28.607 132.61C29.3139 133.188 30.1217 133.78 30.9872 134.329C31.8672 134.877 32.8049 135.412 33.8147 135.903C34.3196 136.148 34.8389 136.394 35.3582 136.639C35.8631 136.87 36.4401 137.173 37.0892 137.26C37.724 137.361 38.5174 137.246 39.0367 136.711C39.5416 136.191 39.7003 135.469 39.6282 134.849C39.5416 134.213 39.3685 133.679 39.0367 133.159C38.6761 132.654 38.2866 132.307 37.8827 131.961C36.2958 130.603 34.7667 129.593 33.454 128.741C30.8574 127.051 29.0975 126.228 29.0398 126.358C29.0253 126.401 29.4293 126.647 30.1361 127.123C30.8574 127.6 31.896 128.293 33.1511 129.188C34.3917 130.083 35.9064 131.152 37.4066 132.48C37.7673 132.813 38.1567 133.174 38.4164 133.549C38.6616 133.924 38.8348 134.459 38.878 134.921C38.9213 135.383 38.7915 135.888 38.4885 136.191C38.1856 136.495 37.6951 136.596 37.1902 136.509C32.978 135.007 29.1552 132.61 27.1789 130.488C26.3278 129.289 26.3278 127.946 26.7605 127.268C27.1644 126.531 27.6838 126.416 27.6549 126.358Z" fill="#251A51"/>
<path d="M33.4386 141.752C34.5061 142.271 35.588 142.791 36.5546 143.499C37.5066 144.206 38.3578 145.116 38.7905 146.228C39.0935 146.979 39.1656 147.903 38.6463 148.524C38.3001 148.943 37.723 149.145 37.1748 149.159C36.6267 149.174 36.0929 149.029 35.5592 148.856C33.5252 148.221 31.5633 147.325 29.7745 146.156C29.01 145.65 28.2743 145.087 27.7261 144.365C27.1779 143.643 26.8028 142.734 26.875 141.824C26.9471 140.914 27.0481 139.918 27.8992 139.6" fill="#F6AEA6"/>
<path d="M27.9143 139.63C27.9288 139.601 27.4094 139.616 27.0344 140.309C26.8613 140.641 26.7603 141.088 26.7026 141.579C26.616 142.07 26.6305 142.706 26.8469 143.327C27.2508 144.612 28.4625 145.752 29.8474 146.619C31.2322 147.529 32.8767 148.352 34.6944 148.987C35.5888 149.276 36.4976 149.666 37.5507 149.521C38.0556 149.449 38.5605 149.218 38.9067 148.814C39.2673 148.409 39.3827 147.875 39.3827 147.413C39.2529 145.521 38.0267 144.352 37.0746 143.572C36.0504 142.792 35.1271 142.388 34.4924 142.114C33.8577 141.839 33.4826 141.724 33.4682 141.767C33.4394 141.81 33.7711 142.027 34.3626 142.374C34.954 142.735 35.834 143.211 36.7428 143.991C37.19 144.381 37.6516 144.857 38.0267 145.435C38.3873 146.012 38.7191 146.705 38.7047 147.413C38.7191 148.135 38.2431 148.698 37.4641 148.799C36.714 148.915 35.8484 148.583 34.9685 148.279C33.2085 147.673 31.6073 146.893 30.2513 146.041C28.8809 145.218 27.7989 144.251 27.3806 143.153C27.1642 142.605 27.1209 142.114 27.1642 141.623C27.1786 141.146 27.2363 140.742 27.3517 140.439C27.5248 139.803 27.9576 139.688 27.9143 139.63Z" fill="#251A51"/>
<path d="M25.4616 135.369C26.3271 132.164 29.7171 133.333 29.7171 133.333C32.0829 134.575 34.1314 135.514 36.2808 137.117C36.9444 137.608 37.406 138.344 37.6801 139.124C37.9541 139.903 37.9109 140.828 37.406 141.477C36.8866 142.127 35.9923 142.373 35.1556 142.315C34.3333 142.243 33.5399 141.911 32.7754 141.593L27.5677 139.355C26.0963 138.719 25.1298 137.189 25.3894 135.6C25.3894 135.572 25.4039 135.557 25.4039 135.528" fill="#F6AEA6"/>
<path d="M25.4045 135.528C25.3757 135.513 25.1593 135.976 25.2891 136.856C25.4189 137.708 26.0825 139.008 27.5828 139.643C29.0253 140.293 30.641 141.015 32.4154 141.809C33.3097 142.199 34.3195 142.704 35.5457 142.69C36.1372 142.676 36.7719 142.502 37.3056 142.098C37.8394 141.694 38.1567 141.015 38.2 140.365C38.2577 139.744 38.099 139.109 37.8682 138.604C37.6374 138.084 37.32 137.593 36.9161 137.188C36.065 136.438 35.2283 135.947 34.3917 135.441C32.7183 134.459 31.1459 133.752 29.8332 133.088L29.8043 133.073H29.7899C28.9244 132.828 28.1309 132.828 27.4385 133.015C26.7605 133.203 26.2556 133.607 25.9671 133.997C25.6786 134.387 25.5488 134.748 25.4911 134.994C25.4334 135.239 25.4189 135.369 25.4478 135.369C25.5199 135.398 25.6353 134.864 26.1979 134.185C26.4864 133.867 26.9481 133.564 27.5395 133.434C28.131 133.319 28.8811 133.362 29.6024 133.593L29.5591 133.579C30.843 134.301 32.4009 135.066 34.0022 136.048C34.7811 136.539 35.6755 137.102 36.368 137.723C36.9883 138.387 37.5076 139.369 37.4355 140.307C37.3922 141.333 36.4689 141.954 35.5024 141.968C34.5359 142.011 33.5838 141.564 32.675 141.188C30.8862 140.452 29.2417 139.773 27.7847 139.181C26.4287 138.676 25.7652 137.578 25.5632 136.813C25.3757 136.019 25.4766 135.542 25.4045 135.528Z" fill="#251A51"/>
</svg>
