<svg width="288" height="566" viewBox="0 0 288 566" fill="none" xmlns="http://www.w3.org/2000/svg">
<path d="M142.494 504.276L140.14 534.1C140.14 534.1 110.682 543.571 110.508 549.091L168.146 549.847L169.846 504.218L142.494 504.276Z" fill="#EEF3FF"/>
<path d="M157.905 531.064C159.023 531.34 159.837 532.574 159.619 533.707C159.401 534.84 158.152 535.683 157.019 535.422C155.886 535.175 154.869 533.722 155.217 532.618C155.566 531.514 157.091 530.613 158.123 531.136" fill="#EBEBEB"/>
<path d="M168.145 549.847L168.029 545.227L113.441 545.561C113.441 545.561 110.304 547.421 110.391 549.222L168.145 549.847Z" fill="#EBEBEB"/>
<path d="M139.196 533.823C139.21 534.099 140.619 534.187 142.043 535.058C143.481 535.886 144.236 537.077 144.483 536.961C144.744 536.903 144.265 535.233 142.537 534.216C140.822 533.184 139.123 533.577 139.196 533.823Z" fill="#251A51"/>
<path d="M133.225 536.511C133.167 536.787 134.402 537.223 135.39 538.385C136.421 539.518 136.697 540.796 136.973 540.782C137.234 540.811 137.38 539.169 136.116 537.746C134.881 536.308 133.225 536.249 133.225 536.511Z" fill="#251A51"/>
<path d="M130.001 543.862C130.262 543.92 130.611 542.496 129.841 540.971C129.086 539.445 127.735 538.879 127.619 539.111C127.473 539.344 128.345 540.143 128.955 541.406C129.609 542.656 129.725 543.832 130.001 543.862Z" fill="#251A51"/>
<path d="M139.5 527.011C139.631 527.257 140.909 526.836 142.507 526.894C144.105 526.923 145.354 527.417 145.499 527.17C145.659 526.967 144.41 525.95 142.536 525.907C140.648 525.863 139.355 526.793 139.5 527.011Z" fill="#251A51"/>
<path d="M139.21 521.026C139.21 521.142 140.328 521.287 142.1 520.924C142.986 520.75 144.018 520.43 145.093 519.907C145.63 519.646 146.182 519.34 146.72 518.977C146.981 518.803 147.286 518.614 147.577 518.265C147.882 517.96 148.041 517.205 147.664 516.769C147.359 516.333 146.821 516.159 146.414 516.159C145.993 516.159 145.645 516.261 145.34 516.348C144.7 516.522 144.105 516.755 143.567 517.016C142.478 517.554 141.606 518.207 140.953 518.847C139.645 520.125 139.224 521.185 139.326 521.243C139.457 521.331 140.081 520.43 141.418 519.37C142.086 518.847 142.928 518.295 143.945 517.844C144.454 517.626 145.005 517.423 145.587 517.278C146.197 517.103 146.72 517.074 146.879 517.35C146.937 517.452 146.952 517.496 146.821 517.67C146.69 517.844 146.458 518.004 146.197 518.178C145.703 518.527 145.194 518.832 144.7 519.094C143.713 519.616 142.754 519.994 141.941 520.241C140.285 520.75 139.21 520.866 139.21 521.026Z" fill="#263238"/>
<path d="M139.587 521.418C139.689 521.462 140.212 520.43 140.27 518.6C140.285 517.699 140.169 516.595 139.776 515.448C139.587 514.881 139.326 514.285 138.992 513.719C138.643 513.152 138.208 512.412 137.104 512.31C136.537 512.31 136.072 512.76 135.927 513.152C135.753 513.545 135.724 513.879 135.666 514.227C135.578 514.91 135.607 515.564 135.724 516.174C135.942 517.394 136.479 518.396 137.045 519.123C138.222 520.59 139.399 520.881 139.428 520.793C139.515 520.648 138.513 520.14 137.612 518.731C137.162 518.033 136.755 517.118 136.61 516.043C136.537 515.506 136.523 514.939 136.61 514.373C136.682 513.762 136.9 513.254 137.133 513.312C137.423 513.298 137.917 513.748 138.178 514.227C138.484 514.736 138.745 515.259 138.948 515.767C139.341 516.799 139.529 517.786 139.587 518.629C139.704 520.314 139.442 521.374 139.587 521.418Z" fill="#251A51"/>
<path d="M267.124 499.308L273.791 534.143L287.009 560.175C287.968 562.049 287.126 564.344 285.194 565.158C284.104 565.623 282.884 565.535 281.882 564.911C275.505 560.974 252.104 546.375 251.755 543.803C251.363 540.825 242.285 507.53 242.285 507.53L267.124 499.308Z" fill="#EEF3FF"/>
<path d="M285.179 565.157L251.232 541.464L251.552 542.932C251.828 544.195 252.54 545.329 253.571 546.128C256.331 548.234 264.073 553.914 281.766 564.94C282.797 565.579 284.075 565.651 285.179 565.157Z" fill="#EBEBEB"/>
<path d="M255.968 531.238C256.97 531.644 257.537 532.908 257.159 533.925C256.781 534.942 255.518 535.523 254.515 535.131C253.513 534.739 252.787 533.257 253.266 532.284C253.745 531.325 255.271 530.715 256.157 531.339" fill="#EBEBEB"/>
<path d="M274.009 551.706C274.227 551.764 274.619 549.774 276.464 548.35C278.28 546.869 280.299 546.956 280.284 546.723C280.299 546.636 279.805 546.462 278.962 546.52C278.134 546.578 276.987 546.941 275.97 547.74C274.968 548.539 274.343 549.571 274.096 550.37C273.849 551.183 273.907 551.706 274.009 551.706Z" fill="#251A51"/>
<path d="M277.466 555.817C277.669 555.933 278.526 554.568 280.211 553.667C281.867 552.737 283.494 552.737 283.509 552.505C283.567 552.301 281.751 551.924 279.848 552.984C277.931 554.03 277.277 555.773 277.466 555.817Z" fill="#251A51"/>
<path d="M268.126 546.752C268.329 546.883 269.651 544.777 272.149 543.15C274.619 541.479 277.074 541.072 277.03 540.84C277.045 540.636 274.372 540.709 271.714 542.496C269.041 544.239 267.937 546.694 268.126 546.752Z" fill="#251A51"/>
<path d="M265.221 536.337C265.352 536.525 267.095 535.32 269.579 534.681C272.048 534.027 274.154 534.23 274.183 533.998C274.241 533.809 272.033 533.228 269.375 533.925C266.717 534.608 265.076 536.191 265.221 536.337Z" fill="#251A51"/>
<path d="M262.999 526.154C263.144 526.328 264.829 524.759 267.487 524.309C270.131 523.8 272.251 524.687 272.339 524.469C272.382 524.382 271.903 524.033 271.002 523.742C270.116 523.452 268.78 523.292 267.356 523.539C265.933 523.8 264.742 524.411 264.001 525.006C263.26 525.602 262.94 526.096 262.999 526.154Z" fill="#251A51"/>
<path d="M267.007 522.391C267.051 522.377 267.037 521.897 266.775 521.069C266.514 520.241 266.005 519.064 264.988 517.859C264.48 517.292 263.914 516.551 262.839 516.304C262.301 516.174 261.604 516.421 261.299 516.973C260.994 517.51 260.979 518.106 261.081 518.658C261.589 520.851 263.943 522.58 266.485 522.362C269.027 522.101 270.973 520.198 271.554 518.091C271.67 517.554 271.685 516.914 271.293 516.391C270.9 515.854 270.145 515.767 269.666 515.97C268.663 516.348 268.141 517.074 267.632 517.655C266.644 518.876 266.121 520.038 265.845 520.851C265.569 521.679 265.526 522.159 265.569 522.159C265.715 522.217 266.078 520.27 268.053 518.004C268.562 517.466 269.128 516.813 269.855 516.58C270.203 516.464 270.552 516.537 270.741 516.813C270.929 517.06 270.959 517.51 270.857 517.946C270.363 519.675 268.576 521.418 266.426 521.607C264.291 521.81 262.229 520.299 261.793 518.527C261.691 518.106 261.72 517.655 261.894 517.35C262.069 517.06 262.388 516.914 262.737 516.973C263.463 517.103 264.073 517.728 264.582 518.251C266.586 520.459 266.862 522.464 267.007 522.391Z" fill="#251A51"/>
<path d="M142.101 230.217C141.737 230.202 137.322 522.42 137.322 522.42L172.634 521.2L184.85 377.546L187.784 272.082L211.81 369.629L241.776 522.725L277.03 513.879L232.16 228.328L189.905 220.15L142.101 230.217Z" fill="#251A51"/>
<path d="M218.855 49.6792C223.082 41.3264 224.418 26.3494 219.566 18.0547C214.715 9.75997 204.91 3.77499 195.701 1.04397C194.161 0.593647 192.49 0.23048 190.965 0.738913C189.44 1.24735 188.205 2.93244 188.728 4.44321C186.942 3.12129 185.097 1.78483 182.976 1.11661C180.855 0.44838 178.342 0.57912 176.643 2.01726C174.929 3.44087 174.464 6.3462 176.033 7.91508C173.491 6.76748 170.281 7.26138 168.218 9.13532C166.155 11.0093 165.342 14.147 166.228 16.7909C167.085 19.3185 169.104 22.2238 170.934 24.1849C172.764 26.1315 172.939 28.0345 172.416 30.6493" fill="#251A51"/>
<path d="M184.036 118.39C184.298 114.381 184.937 78.1515 184.937 77.9917C184.937 77.9917 171.486 76.3211 170.905 62.9566C170.629 56.4922 171.123 43.1422 171.733 31.0561C172.372 18.0692 182.889 7.76981 195.875 7.36307L197.167 7.31949C211.112 7.69718 218.578 19.7543 217.823 33.6854L215.92 111.214" fill="#FFC3BD"/>
<path d="M184.937 77.9919C184.937 77.9919 193.39 78.2243 202.193 72.2975C202.193 72.2975 195.119 78.5294 184.893 78.4713L184.937 77.9919Z" fill="#251A51"/>
<path d="M175.887 40.1207C175.872 41.1375 176.294 41.9656 176.817 41.9801C177.34 41.9946 177.775 41.1957 177.79 40.1788C177.804 39.1619 177.383 38.3339 176.86 38.3194C176.323 38.3048 175.901 39.1183 175.887 40.1207Z" fill="#251A51"/>
<path d="M174.812 35.3559C175.059 35.6029 176.468 34.4843 178.531 34.4262C180.579 34.3391 182.119 35.3559 182.336 35.0945C182.438 34.9782 182.191 34.5424 181.509 34.0776C180.84 33.6273 179.736 33.1915 178.444 33.235C177.165 33.2786 176.105 33.7871 175.495 34.2955C174.885 34.7894 174.681 35.2543 174.812 35.3559Z" fill="#251A51"/>
<path d="M196.31 40.4113C196.296 41.4282 196.761 42.2562 197.342 42.2707C197.923 42.2852 198.388 41.4863 198.402 40.4694C198.417 39.4525 197.952 38.6245 197.371 38.61C196.79 38.5955 196.325 39.409 196.31 40.4113Z" fill="#251A51"/>
<path d="M195.032 35.109C195.279 35.356 196.688 34.2374 198.751 34.1793C200.799 34.0922 202.353 35.109 202.556 34.8475C202.658 34.7313 202.411 34.2955 201.729 33.8307C201.06 33.3803 199.956 32.9445 198.664 32.9881C197.385 33.0317 196.325 33.5401 195.715 34.0486C195.119 34.557 194.916 35.0073 195.032 35.109Z" fill="#251A51"/>
<path d="M188.045 52.759C188.045 52.6428 186.767 52.454 184.69 52.2651C184.167 52.2216 183.658 52.1344 183.557 51.7858C183.426 51.4081 183.629 50.8415 183.862 50.2169C184.312 48.924 184.791 47.5875 185.285 46.1639C187.261 40.3969 188.684 35.6757 188.452 35.6031C188.219 35.5304 186.418 40.1354 184.443 45.8879C183.963 47.3115 183.513 48.6625 183.077 49.9554C182.903 50.5655 182.583 51.2483 182.874 52.0182C183.034 52.4104 183.426 52.6719 183.76 52.759C184.094 52.8462 184.399 52.8462 184.661 52.8607C186.752 52.9043 188.045 52.8753 188.045 52.759Z" fill="#251A51"/>
<path d="M194.146 53.9937C193.812 53.9792 193.87 56.2163 192.011 57.8578C190.151 59.5138 187.769 59.325 187.755 59.6446C187.726 59.7898 188.292 60.0658 189.309 60.0513C190.297 60.0513 191.72 59.6881 192.868 58.6858C194.001 57.6835 194.466 56.3615 194.509 55.4464C194.553 54.5167 194.291 53.9792 194.146 53.9937Z" fill="#251A51"/>
<path d="M217.024 43.6361C217.242 43.5344 226.132 40.629 226.132 49.7954C226.117 58.9472 216.937 57.0587 216.923 56.7972C216.893 56.5212 217.024 43.6361 217.024 43.6361Z" fill="#FFC3BD"/>
<path d="M219.712 53.3252C219.755 53.2962 219.871 53.4415 220.147 53.5577C220.409 53.6739 220.859 53.761 221.338 53.5867C222.312 53.2381 223.125 51.6983 223.169 50.0422C223.198 49.2142 223.023 48.4152 222.718 47.7615C222.442 47.0933 222.007 46.6285 221.513 46.5413C221.033 46.4251 220.685 46.7156 220.569 46.9771C220.452 47.2386 220.511 47.4129 220.452 47.4274C220.423 47.4565 220.249 47.2676 220.336 46.8899C220.38 46.7011 220.481 46.4977 220.699 46.3234C220.917 46.1491 221.237 46.0474 221.585 46.091C222.297 46.1345 222.922 46.7882 223.256 47.5146C223.619 48.2409 223.837 49.127 223.808 50.0713C223.75 51.9162 222.806 53.6448 221.484 54.0225C220.845 54.1968 220.307 53.9935 220.031 53.7756C219.726 53.5431 219.683 53.3398 219.712 53.3252Z" fill="#251A51"/>
<path d="M165.893 13.7546C164.819 25.6229 179.446 30.591 185.866 23.9523C188.83 20.8872 191.43 17.0522 195.468 15.6576C198.184 14.7279 201.264 15.2218 203.82 16.5292C203.849 16.5437 203.878 16.5582 203.893 16.5728C207.67 18.5339 209.892 22.9064 210.473 27.1191C211.286 32.9879 210.342 38.1739 211.868 43.5633C212.085 44.3332 212.347 45.1758 213.001 45.6406C214.104 46.4396 215.702 45.7423 216.617 44.7254C218.085 43.0985 218.593 40.8468 218.912 38.6824C219.639 33.7578 219.61 28.6735 218.361 23.8506C217.111 19.0278 214.627 14.4664 210.923 11.1398C206.29 6.98518 199.913 4.95145 193.696 5.24198C187.479 5.53251 181.451 8.06015 176.599 11.9678C174.347 13.7837 172.285 15.9481 171.181 18.621" fill="#251A51"/>
<path d="M175.582 7.23234C175.582 7.20329 175.132 7.11613 174.318 7.29045C173.52 7.45024 172.372 7.94415 171.297 8.97554C170.237 10.0069 169.263 11.6049 169.031 13.595C168.799 15.5852 169.452 17.7932 170.789 19.6236C172.125 21.4539 173.941 22.7613 175.742 23.4877C177.543 24.2285 179.286 24.5045 180.739 24.5917C182.191 24.6789 183.368 24.5917 184.167 24.49C184.966 24.3883 185.402 24.2866 185.402 24.2431C185.387 24.1123 183.615 24.3738 180.782 24.0978C179.373 23.938 177.703 23.6329 176.003 22.8921C174.304 22.1657 172.619 20.931 171.37 19.2168C170.135 17.5027 169.51 15.469 169.699 13.6677C169.874 11.8518 170.731 10.341 171.675 9.33871C172.633 8.33637 173.665 7.79888 174.42 7.56645C175.132 7.3195 175.582 7.30497 175.582 7.23234Z" fill="#00B4FF"/>
<path d="M181.712 3.0342C181.712 3.00514 181.378 2.93251 180.84 3.19399C180.317 3.45547 179.649 4.09464 179.417 5.15509C179.17 6.21553 179.504 7.47935 180.114 8.65601C180.739 9.83267 181.552 11.0529 182.627 12.1569C184.748 14.394 187.275 15.716 189.178 16.3116C191.081 16.9362 192.345 16.9217 192.345 16.8491C192.359 16.7183 191.154 16.573 189.353 15.8467C187.551 15.1494 185.169 13.813 183.15 11.6776C182.133 10.6171 181.334 9.45498 180.71 8.35095C180.1 7.24693 179.78 6.1429 179.925 5.24225C180.071 4.3416 180.593 3.71695 181 3.42642C181.407 3.13588 181.726 3.0923 181.712 3.0342Z" fill="#00B4FF"/>
<path d="M101.98 121.644L39.0111 115.674L29.0464 113.277C29.0464 113.277 6.27002 109.21 4.13473 108.527C1.66535 107.757 0.692127 108.759 0.474241 109.689C0.125622 111.142 1.56367 112.696 3.65538 113.422C4.38167 113.669 15.9878 117.199 15.9878 117.199C15.9878 117.199 14.8693 117.432 12.1675 118.463C9.46569 119.494 6.96726 123.141 5.81972 127.31C4.67219 131.479 4.71576 132.743 6.3136 133.266C6.95273 133.469 7.59186 133.28 8.12932 132.946C9.01539 132.394 9.62547 131.508 9.91599 130.52C11.8624 123.867 15.9442 123.184 15.9442 123.184L17.2515 123.504C17.2515 123.504 13.1262 126.627 13.3441 130.201C13.3731 130.782 13.5184 131.29 13.7363 131.726C13.2133 133.484 13.6346 135.517 14.8402 136.897C16.104 138.335 18.1811 139.018 20.055 138.611C20.9556 138.423 21.8997 137.842 22.0014 136.941C22.045 136.462 21.8416 135.997 21.6528 135.546C21.5511 135.314 21.464 135.067 21.4059 134.82L25.1826 135.183C25.1826 135.183 33.7092 135.546 37.3987 136.127L96.7655 151.497C105.002 153.632 113.368 148.591 115.358 140.326C117.479 131.334 111.175 122.516 101.98 121.644Z" fill="#FFC3BD"/>
<path d="M37.6021 117.316C37.5586 118.637 36.2803 119.596 35.002 119.916C33.7238 120.235 32.3729 120.119 31.0801 120.337C27.2017 121.02 24.2965 124.681 20.3891 125.174C19.8371 125.247 19.1544 125.16 18.9656 124.637C18.7913 124.158 19.198 123.678 19.5611 123.33C22.7132 120.323 25.8508 117.316 29.0029 114.309" fill="#FFC3BD"/>
<path d="M29.0027 114.323C28.9736 114.28 28.5669 114.599 27.8842 115.195C27.2015 115.79 26.2137 116.677 25.0226 117.766C23.7879 118.914 22.3789 120.221 20.8392 121.659C20.447 122.022 20.0403 122.4 19.6336 122.792C19.285 123.185 18.6458 123.533 18.5587 124.434C18.5441 124.884 18.8928 125.32 19.2704 125.451C19.6336 125.596 19.9822 125.61 20.3308 125.581C20.9699 125.494 21.5946 125.364 22.2046 125.131C24.6304 124.23 26.4752 122.662 28.349 121.703C29.2787 121.209 30.2083 120.831 31.1089 120.671C32.0095 120.497 32.8956 120.497 33.7236 120.395C35.394 120.294 36.7159 119.524 37.2388 118.71C37.7908 117.897 37.6455 117.301 37.6165 117.33C37.5438 117.316 37.5729 117.868 37.0064 118.536C36.4544 119.219 35.2778 119.829 33.68 119.872C32.8811 119.931 31.9805 119.901 31.0072 120.061C30.0195 120.221 29.0172 120.599 28.044 121.093C26.083 122.066 24.2237 123.606 21.9722 124.419C21.4202 124.623 20.8392 124.753 20.2872 124.826C19.7498 124.884 19.2704 124.71 19.314 124.419C19.2995 124.1 19.7353 123.678 20.142 123.301C20.5487 122.909 20.9409 122.531 21.3331 122.153C22.8292 120.686 24.1947 119.335 25.4003 118.144C26.5478 116.996 27.4775 116.052 28.1021 115.398C28.7122 114.745 29.0463 114.367 29.0027 114.323Z" fill="#251A51"/>
<path d="M17.3388 123.359C17.3243 123.46 16.351 122.981 14.8694 123.417C14.1431 123.635 13.3733 124.158 12.7777 124.971C12.1676 125.785 11.7318 126.831 11.3542 127.964C10.962 129.097 10.5988 130.215 10.0469 131.145C9.49488 132.06 8.81217 132.801 8.07136 133.193C7.33054 133.615 6.56068 133.513 6.15395 133.309C5.73271 133.106 5.57292 132.903 5.58745 132.888C5.6165 132.845 5.81986 132.99 6.22658 133.135C6.61878 133.266 7.27244 133.295 7.91157 132.888C8.55071 132.496 9.17531 131.784 9.66919 130.913C10.1631 130.026 10.5117 128.937 10.9039 127.804C11.2815 126.656 11.7609 125.552 12.4291 124.71C13.0827 123.838 13.9688 123.286 14.7823 123.097C15.5812 122.894 16.2639 122.966 16.6997 123.083C17.1354 123.199 17.3388 123.33 17.3388 123.359Z" fill="#251A51"/>
<path d="M2.8418 113.132C2.87086 113.074 3.7424 113.35 5.1514 113.815C6.72018 114.323 8.59401 114.933 10.6712 115.601C12.7484 116.241 14.6367 116.822 16.22 117.301C17.6436 117.737 18.5296 117.998 18.5006 118.071C18.4861 118.129 17.5709 117.984 16.1184 117.635C14.6658 117.286 12.6757 116.749 10.5114 116.066C8.34707 115.383 6.40062 114.686 5.02067 114.134C3.64072 113.582 2.81275 113.19 2.8418 113.132Z" fill="#251A51"/>
<path d="M19.1256 126.787C19.1546 126.816 18.9658 127.019 18.6607 127.382C18.3702 127.731 17.8909 128.341 18.0216 129.14C18.0797 129.518 18.3557 129.852 18.7915 130.041C19.2127 130.244 19.7502 130.302 20.3167 130.404C20.8832 130.506 21.5804 130.665 22.0452 131.246C22.4955 131.813 22.6117 132.597 22.4084 133.295C22.205 134.021 21.653 134.558 21.0575 134.864C20.4474 135.169 19.8083 135.299 19.1837 135.212C17.9926 135.023 17.0338 134.617 16.2349 134.239C15.4505 133.847 14.855 133.425 14.5064 133.062C14.1577 132.699 14.0706 132.423 14.0851 132.409C14.1287 132.379 14.274 132.612 14.6226 132.917C14.9857 133.222 15.5813 133.585 16.3657 133.934C17.1501 134.268 18.1378 134.617 19.2272 134.776C20.244 134.878 21.5949 134.326 21.9436 133.164C22.1033 132.597 22.0017 131.958 21.6676 131.537C21.3335 131.116 20.7815 130.941 20.2295 130.84C19.6775 130.738 19.111 130.651 18.6026 130.404C18.0942 130.186 17.702 129.692 17.6585 129.198C17.5713 128.196 18.1669 127.586 18.501 127.266C18.8786 126.903 19.111 126.758 19.1256 126.787Z" fill="#251A51"/>
<path d="M20.7666 134.544C20.7666 134.515 21.0426 134.529 21.4057 134.805C21.7543 135.082 22.2046 135.663 22.1756 136.52C22.1465 137.348 21.58 138.306 20.6068 138.815C19.6336 139.323 18.3698 139.352 17.2078 138.989C16.0312 138.626 15.058 137.885 14.4188 137.043C13.7797 136.186 13.4892 135.241 13.402 134.457C13.3149 133.672 13.4165 133.019 13.5327 132.597C13.649 132.176 13.7652 131.958 13.7942 131.973C13.8814 131.987 13.5037 132.917 13.7361 134.413C13.8668 135.14 14.1574 136.011 14.7674 136.767C15.363 137.537 16.2636 138.19 17.3385 138.524C18.3989 138.858 19.5464 138.829 20.4034 138.408C21.2605 138.001 21.7834 137.188 21.8415 136.491C21.8996 135.779 21.5655 135.227 21.2895 134.936C20.9845 134.66 20.752 134.573 20.7666 134.544Z" fill="#251A51"/>
<path d="M30.9929 128.98C30.9493 128.966 30.9929 128.53 31.3561 127.876C31.7047 127.237 32.431 126.394 33.564 125.915L33.5494 126.336C33.0846 126.133 32.5762 125.886 32.0823 125.595C29.3079 123.998 27.8844 121.746 28.0006 121.702C28.1023 121.601 29.6565 123.649 32.3293 125.174C32.8086 125.45 33.288 125.697 33.7383 125.901L34.2322 126.133L33.7238 126.322C32.6924 126.729 31.9807 127.44 31.5885 128.007C31.1963 128.603 31.051 128.995 30.9929 128.98Z" fill="#251A51"/>
<path d="M11.2235 123.053C11.3107 122.966 12.0079 123.664 12.1241 124.826C12.2548 125.973 11.7319 126.816 11.6157 126.743C11.485 126.685 11.761 125.886 11.6448 124.884C11.5431 123.867 11.1073 123.141 11.2235 123.053Z" fill="#251A51"/>
<path d="M103.099 152.427L144.177 142.941C144.177 142.941 142.057 218.247 142.057 218.959C142.057 219.67 138.672 220.847 138.963 226.324L141.911 232.817L231.971 234.023L234.397 160.881L242.618 104.169L223.72 92.475L217.068 83.4539L191.096 110.88L184.632 87.4923L184.82 80.5341L178.4 87.5069L143.771 97.4867L98.0145 118.826L67.0746 116.458L59.0419 143.536L103.099 152.427Z" fill="#EEF3FF"/>
<path d="M187.508 102.455C187.58 102.542 186.36 102.832 185.649 104.532C185.285 105.36 185.097 106.42 185.082 107.699C185.024 108.948 185.111 110.459 184.472 112.013L184.167 112.769L183.847 112.013C182.99 110.023 182.395 107.742 181.814 105.345C180.724 100.639 180.013 96.3244 179.548 93.2012C179.083 90.078 178.909 88.1314 178.996 88.1169C179.097 88.1023 179.475 90.0199 180.071 93.114C180.666 96.2082 181.451 100.494 182.54 105.171C183.107 107.539 183.688 109.82 184.472 111.723H183.833C184.414 110.386 184.399 108.934 184.501 107.67C184.559 106.391 184.821 105.215 185.271 104.358C185.707 103.486 186.302 102.949 186.753 102.702C187.217 102.44 187.508 102.426 187.508 102.455Z" fill="#251A51"/>
<path d="M220.859 90.9641C220.902 90.9932 220.583 91.4435 219.987 92.2279C219.377 93.0124 218.491 94.1164 217.372 95.4819C215.15 98.2129 212.027 101.946 208.541 106.057C206.551 108.382 204.677 110.575 202.992 112.522L202.556 113.016L202.396 112.376C201.612 109.224 200.973 106.551 200.537 104.677C200.363 103.733 199.84 103.196 199.331 103.196C198.838 103.152 198.663 103.428 198.634 103.399C198.591 103.413 198.736 103.021 199.346 102.978C199.622 102.963 200 103.065 200.305 103.37C200.61 103.66 200.799 104.096 200.944 104.576C201.496 106.435 202.222 109.064 203.065 112.217L202.484 112.086C204.139 110.11 205.999 107.902 207.974 105.563C211.46 101.467 214.642 97.7771 216.98 95.1333C218.142 93.8113 219.101 92.7509 219.769 92.0246C220.423 91.3128 220.815 90.9351 220.859 90.9641Z" fill="#251A51"/>
<path d="M182.54 211.245C182.511 211.245 182.496 210.911 182.467 210.272C182.453 209.56 182.424 208.63 182.409 207.483C182.365 205.057 182.365 201.541 182.409 197.198C182.511 188.511 182.917 176.526 183.905 163.307C184.893 150.088 186.273 138.176 187.464 129.576C188.06 125.276 188.582 121.804 188.989 119.407C189.193 118.274 189.338 117.359 189.469 116.647C189.585 116.023 189.657 115.689 189.686 115.689C189.715 115.689 189.686 116.023 189.614 116.662C189.527 117.374 189.41 118.289 189.28 119.437C188.96 121.935 188.524 125.392 188.001 129.634C186.941 138.249 185.663 150.16 184.661 163.365C183.673 176.555 183.179 188.54 182.946 197.212C182.845 201.483 182.758 204.97 182.7 207.483C182.67 208.63 182.641 209.56 182.627 210.272C182.598 210.911 182.569 211.245 182.54 211.245Z" fill="#251A51"/>
<path d="M175.219 228.895C175.016 228.939 174.435 226.033 174.551 222.431C174.653 218.842 175.103 215.966 175.306 215.981C175.539 215.995 175.422 218.901 175.321 222.445C175.175 226.004 175.422 228.866 175.219 228.895Z" fill="#251A51"/>
<path d="M212.114 207.759C212.129 207.802 211.301 208.122 209.79 208.63C208.28 209.153 206.086 209.85 203.341 210.635C197.865 212.233 190.21 214.15 181.639 215.676C173.069 217.201 165.225 218.029 159.531 218.421C156.684 218.61 154.389 218.726 152.791 218.755C151.193 218.784 150.322 218.784 150.307 218.726C150.293 218.668 151.179 218.581 152.762 218.45C154.476 218.305 156.742 218.116 159.473 217.884C165.138 217.361 172.938 216.446 181.494 214.935C190.035 213.409 197.676 211.579 203.181 210.126C205.825 209.4 208.018 208.804 209.689 208.354C211.243 207.933 212.1 207.715 212.114 207.759Z" fill="#251A51"/>
<path d="M143.727 158.833C143.524 158.833 143.393 148.141 143.436 134.965C143.48 121.79 143.683 111.098 143.901 111.098C144.105 111.098 144.235 121.79 144.192 134.965C144.148 148.141 143.93 158.833 143.727 158.833Z" fill="#251A51"/>
<path d="M240.948 103.152C240.948 103.152 252.293 112.885 253.048 118.405C253.629 122.661 264.785 162.682 269.811 180.608C271.38 186.186 271.046 192.128 268.867 197.502L254.37 233.383L230.911 219.496L242.648 185.838L232.93 157.278L240.948 103.152Z" fill="#EEF3FF"/>
<path d="M254.355 233.369C254.341 233.384 254.196 233.311 253.92 233.151C253.6 232.977 253.179 232.744 252.67 232.454C251.523 231.8 249.94 230.885 247.92 229.737C243.781 227.326 237.912 223.898 230.751 219.728L230.548 219.612L230.62 219.38C233.903 209.894 237.898 198.36 242.27 185.693V185.939C240.89 182.25 239.452 178.386 237.985 174.449C234.557 165.195 231.274 156.363 228.282 148.315L228.296 148.344C225.318 142.098 222.747 136.069 222.036 130.288C221.687 127.412 221.76 124.651 222.282 122.182C222.791 119.698 223.648 117.519 224.636 115.659C226.626 111.941 228.993 109.5 230.693 108.004C231.55 107.249 232.247 106.726 232.727 106.391C233.206 106.057 233.467 105.883 233.482 105.912C233.496 105.941 233.264 106.13 232.799 106.493C232.334 106.856 231.666 107.408 230.838 108.178C229.197 109.704 226.916 112.173 224.999 115.863C224.04 117.708 223.241 119.858 222.762 122.284C222.282 124.71 222.239 127.412 222.602 130.215C223.343 135.881 225.914 141.822 228.921 148.039V148.054V148.068C231.928 156.116 235.225 164.948 238.668 174.187C240.135 178.124 241.558 181.988 242.938 185.678L242.982 185.809L242.938 185.939C238.493 198.578 234.455 210.097 231.129 219.569L230.998 219.22C238.101 223.491 243.926 226.992 248.037 229.447C250.012 230.653 251.581 231.611 252.699 232.294C253.193 232.614 253.6 232.861 253.905 233.064C254.225 233.267 254.37 233.369 254.355 233.369Z" fill="#251A51"/>
<g opacity="0.3">
<g opacity="0.3">
<path opacity="0.3" d="M193.885 108.411C195.482 108.454 197.08 109.398 197.371 110.967C197.661 112.536 197.443 114.178 197.85 115.718C198.257 117.257 199.666 118.754 201.22 118.434C202.164 118.245 202.862 117.446 203.443 116.676C206.493 112.74 208.962 107.83 210.764 103.181C210.72 103.297 202.716 112.42 202.716 112.42C202.469 110.125 201.743 107.844 200.915 105.694C200.639 104.997 200.334 103.82 199.666 103.501C198.576 103.007 197.124 104.605 196.412 105.563C195.686 106.522 194.103 108.193 193.885 108.28" fill="black"/>
</g>
</g>
<g opacity="0.3">
<g opacity="0.3">
<path opacity="0.3" d="M180.768 100.116C181.03 105.128 181.814 110.401 183.702 115.049C183.891 115.529 184.109 116.008 184.487 116.357C184.864 116.691 185.475 116.851 185.896 116.56C186.215 116.357 187.203 113.829 187.334 113.466C188.075 111.389 191.096 111.2 191.096 111.2C191.096 111.2 189.905 105.868 189.135 104.285C188.786 103.573 188.046 102.949 187.261 103.079C186.332 103.239 185.315 104.503 185.199 105.447C184.748 109.181 184.806 110.88 184.254 112.188C182.845 108.222 181.698 103.443 180.768 99.9707" fill="black"/>
</g>
</g>
<g opacity="0.3">
<g opacity="0.3">
<path opacity="0.3" d="M203.051 210.17C204.547 209.371 204.736 207.076 203.748 205.681C202.76 204.301 200.901 203.749 199.216 203.953C197.531 204.17 195.991 205.027 194.626 206.03C193.246 207.018 191.982 208.165 190.529 209.051C186.971 211.245 182.627 211.739 178.459 211.811C174.275 211.884 170.063 211.579 165.952 212.363C161.856 213.162 157.745 215.269 155.769 218.959C155.755 218.959 191.459 216.358 203.051 210.17Z" fill="black"/>
</g>
</g>
<path d="M226.394 262.626C221.324 259.314 219.102 256.118 217.039 252.98C217.083 252.849 217.097 252.747 217.054 252.66C216.995 252.544 216.85 252.486 216.705 252.442C215.557 250.656 214.657 249.029 213.974 247.649C216.894 245.746 220.7 242.884 216.56 242.288C211.461 241.562 207.815 239.078 207.292 237.727C206.769 236.376 208.469 235.156 209.82 236.013C210.909 236.71 213.074 237.32 214.729 237.712C216.095 238.032 217.489 238.134 218.884 237.974C219.741 237.872 222.791 235.795 226.031 234.27C226.495 234.052 227.004 233.994 227.512 234.081L228.761 233.994C230.098 233.906 231.289 233.122 231.913 231.931L236.62 222.866L250.855 231.292L239.583 246.937C239.569 246.937 231.797 257.251 226.394 262.626Z" fill="#FFC3BD"/>
<path d="M229.327 264.267C229.298 264.34 227.977 263.875 226.045 262.713C224.113 261.565 221.6 259.677 219.305 257.106C217.01 254.534 215.412 251.818 214.482 249.77C213.553 247.721 213.233 246.356 213.306 246.341C213.538 246.225 215.31 251.571 219.857 256.597C224.345 261.696 229.473 264.049 229.327 264.267Z" fill="#455A64"/>
<path d="M184.472 273.433C184.458 273.462 184.327 273.419 184.08 273.303C183.833 273.201 183.484 272.983 183.078 272.663C182.264 271.995 181.364 270.717 180.754 268.974C180.129 267.231 179.722 265.095 179.17 262.756C178.647 260.403 178.11 257.817 177.572 255.086C176.497 249.639 175.684 244.671 175.161 241.068C174.9 239.267 174.711 237.8 174.609 236.797C174.493 235.78 174.464 235.228 174.522 235.214C174.58 235.199 174.711 235.751 174.9 236.754C175.118 237.916 175.379 239.325 175.699 240.981C176.352 244.554 177.253 249.493 178.328 254.941C178.865 257.643 179.388 260.229 179.867 262.611C180.376 264.964 180.739 267.1 181.276 268.814C181.814 270.528 182.584 271.763 183.296 272.46C183.978 273.128 184.516 273.361 184.472 273.433Z" fill="#00B4FF"/>
<path d="M183.266 240.806C183.266 240.763 183.513 240.719 183.905 240.85C184.298 240.981 184.85 241.344 185.227 242.027C185.605 242.68 185.75 243.799 185.096 244.685C184.501 245.542 183.295 246.152 182.046 245.847C180.811 245.498 180.056 244.409 179.911 243.378C179.736 242.303 180.259 241.373 180.826 240.879C182.032 239.848 183.121 240.153 183.063 240.211C183.092 240.342 182.104 240.283 181.204 241.257C180.768 241.722 180.434 242.462 180.594 243.261C180.739 244.046 181.363 244.874 182.235 245.121C183.106 245.353 184.065 244.917 184.53 244.278C185.038 243.639 185.009 242.84 184.748 242.259C184.21 241.053 183.208 240.923 183.266 240.806Z" fill="#00B4FF"/>
<path d="M152.385 234.981C152.457 234.967 152.806 236.231 152.763 238.322C152.733 240.414 152.152 243.334 150.627 246.167C149.088 249 146.981 251.091 145.253 252.283C143.524 253.474 142.275 253.88 142.246 253.808C142.188 253.692 143.335 253.125 144.933 251.847C146.531 250.597 148.492 248.535 149.959 245.804C151.412 243.073 152.065 240.298 152.225 238.279C152.399 236.26 152.24 234.996 152.385 234.981Z" fill="#00B4FF"/>
</svg>
