<svg width="23" height="23" viewBox="0 0 23 23" fill="none" xmlns="http://www.w3.org/2000/svg">
<path d="M21.6547 16.4406V19.4406C21.6558 19.7191 21.5988 19.9948 21.4872 20.25C21.3757 20.5051 21.212 20.7342 21.0068 20.9225C20.8016 21.1107 20.5593 21.2541 20.2955 21.3433C20.0316 21.4325 19.7521 21.4657 19.4747 21.4406C16.3976 21.1062 13.4417 20.0547 10.8447 18.3706C8.42855 16.8353 6.38005 14.7868 4.84472 12.3706C3.1547 9.76181 2.10296 6.7916 1.77472 3.7006C1.74973 3.42407 1.78259 3.14537 1.87122 2.88223C1.95984 2.61909 2.10229 2.37729 2.28948 2.17223C2.47668 1.96716 2.70452 1.80331 2.95851 1.69113C3.2125 1.57894 3.48706 1.52087 3.76472 1.5206H6.76472C7.25002 1.51583 7.72051 1.68768 8.08848 2.00414C8.45645 2.32059 8.6968 2.76005 8.76472 3.2406C8.89134 4.20067 9.12617 5.14333 9.46472 6.0506C9.59926 6.40853 9.62838 6.79752 9.54862 7.17148C9.46887 7.54545 9.28358 7.88872 9.01472 8.1606L7.74472 9.4306C9.16827 11.9342 11.2412 14.007 13.7447 15.4306L15.0147 14.1606C15.2866 13.8917 15.6299 13.7065 16.0038 13.6267C16.3778 13.5469 16.7668 13.5761 17.1247 13.7106C18.032 14.0492 18.9747 14.284 19.9347 14.4106C20.4205 14.4791 20.8641 14.7238 21.1813 15.0981C21.4984 15.4724 21.6669 15.9502 21.6547 16.4406Z" stroke="white" stroke-width="2" stroke-linecap="round" stroke-linejoin="round"/>
</svg>
