<svg width="72" height="73" viewBox="0 0 72 73" fill="none" xmlns="http://www.w3.org/2000/svg">
<path d="M20.6822 20.0413V18.8808C20.6822 18.3003 20.2116 17.8299 19.6312 17.8299C19.0508 17.8299 18.5802 18.3003 18.5802 18.8808V20.0413C18.5802 20.6219 19.0508 21.0923 19.6312 21.0923C20.2116 21.0923 20.6822 20.6219 20.6822 20.0413Z" fill="#00B4FF"/>
<path d="M28.9145 21.0923C29.4949 21.0923 29.9654 20.6219 29.9654 20.0413V18.8808C29.9654 18.3003 29.4949 17.8299 28.9145 17.8299C28.3341 17.8299 27.8635 18.3003 27.8635 18.8808V20.0413C27.8635 20.6219 28.3341 21.0923 28.9145 21.0923Z" fill="#00B4FF"/>
<path d="M28.1976 26.6619C28.4882 26.1594 28.3165 25.5165 27.8142 25.2259C27.3118 24.9357 26.6688 25.1068 26.3782 25.6093C25.9443 26.3593 25.1375 26.8252 24.2728 26.8252C23.4079 26.8252 22.601 26.3593 22.1671 25.609C21.8765 25.1065 21.2337 24.935 20.7312 25.2255C20.2287 25.5161 20.057 26.159 20.3477 26.6614C21.1561 28.059 22.66 28.9271 24.2728 28.9271C25.8855 28.9271 27.3893 28.0591 28.1976 26.6619Z" fill="#00B4FF"/>
<path d="M71.7594 38.6128C71.7594 36.7532 70.2469 35.2405 68.3877 35.2405H42.6155C42.0351 35.2405 41.5646 35.7109 41.5646 36.2915C41.5646 36.872 42.0351 37.3424 42.6155 37.3424H68.3877C69.0879 37.3424 69.6575 37.9123 69.6575 38.6128V64.1476C69.6575 64.8482 69.0879 65.4181 68.3877 65.4181H35.8967C35.1965 65.4181 34.6269 64.8482 34.6269 64.1476V38.6128C34.6269 37.9123 35.1966 37.3424 35.8967 37.3424H38.4116C38.992 37.3424 39.4625 36.872 39.4625 36.2915C39.4625 35.7109 38.992 35.2405 38.4116 35.2405H35.8967C34.0375 35.2405 32.525 36.7533 32.525 38.6128V40.7827L31.1258 40.2227V35.3214C34.337 33.2442 36.552 29.7531 36.8838 25.7357H38.1976C40.0568 25.7357 41.5693 24.2229 41.5693 22.3634V17.7203C41.5693 15.8607 40.0568 14.3478 38.1976 14.3478H36.9278V7.27354C36.9278 3.49389 33.8535 0.418945 30.0749 0.418945H18.4711C14.6923 0.418945 11.618 3.49389 11.618 7.27354V14.3477H10.3482C8.489 14.3477 6.97647 15.8605 6.97647 17.72V22.363C6.97647 24.2226 8.489 25.7354 10.3482 25.7354H11.6622C11.9939 29.7527 14.2087 33.244 17.4199 35.3211V40.2226L12.4664 42.2049L10.3479 42.2052C4.65009 42.2054 0.0144043 46.8422 0.0144043 52.5416V60.6323C0.0144043 61.2129 0.484951 61.6833 1.06536 61.6833C1.64576 61.6833 2.11631 61.2129 2.11631 60.6323V52.5416C2.11631 48.0012 5.80908 44.3073 10.3481 44.3073L11.9573 44.3071L15.8036 53.9252C16.0524 54.5469 16.5617 55.0175 17.2011 55.216C17.4175 55.2831 17.6392 55.3164 17.8594 55.3164C18.29 55.3164 18.715 55.1898 19.0836 54.9442L19.2973 54.8017L20.852 57.3935L19.5149 65.4182H11.5286C10.3093 65.4182 9.31729 66.4103 9.31729 67.6299V69.9512C9.31729 69.9886 9.32108 70.0251 9.3229 70.062H2.22575C2.16535 70.062 2.11631 70.0127 2.11631 69.9523V64.8362C2.11631 64.2556 1.64576 63.7852 1.06536 63.7852C0.484951 63.7852 0.0144043 64.2556 0.0144043 64.8362V69.9523C0.0144043 71.1719 1.00636 72.164 2.22575 72.164L69.5874 72.1628C70.7851 72.1628 71.7594 71.1885 71.7594 69.9909V67.5901C71.7594 67.0043 71.5253 66.473 71.1471 66.0819C71.5323 65.5339 71.7594 64.8668 71.7594 64.1474V38.6128ZM29.0311 65.4181L27.694 57.3933L29.2487 54.8017L29.4622 54.944C29.8308 55.1897 30.2558 55.3162 30.6864 55.3162C30.9065 55.3162 31.1283 55.2831 31.3447 55.2159C31.8344 55.0638 32.2467 54.7512 32.5251 54.3342V64.1474C32.5251 64.5968 32.6141 65.0256 32.7744 65.418H29.0311V65.4181ZM32.525 48.8069L30.7904 53.1445C30.7856 53.1566 30.7709 53.1931 30.7211 53.2086C30.6714 53.2243 30.6389 53.2023 30.6282 53.1951L25.7047 49.9121L30.5006 42.2363L32.5251 43.0464V48.8069H32.525ZM38.1976 16.4498C38.8978 16.4498 39.4674 17.0196 39.4674 17.7203V22.3634C39.4674 23.0639 38.8978 23.6338 38.1976 23.6338H36.9278V16.4498H38.1976ZM18.4711 2.52085H30.0749C32.6945 2.52085 34.8259 4.65288 34.8259 7.27354V12.0262H33.5562C32.856 12.0262 32.2863 11.4563 32.2863 10.7558V9.48516H32.3961C32.9765 9.48516 33.447 9.01475 33.447 8.43421C33.447 7.85366 32.9765 7.38326 32.3961 7.38326H16.1502C15.5698 7.38326 15.0992 7.85366 15.0992 8.43421C15.0992 9.01475 15.5698 9.48516 16.1502 9.48516H16.2595V10.7557C16.2595 11.4562 15.6898 12.0261 14.9896 12.0261H13.7201V7.2734C13.7199 4.65288 15.8513 2.52085 18.4711 2.52085ZM9.07838 22.3631V17.7201C9.07838 17.0196 9.64799 16.4498 10.3482 16.4498H11.618V23.6338H10.3481C9.64813 23.6336 9.07838 23.0637 9.07838 22.3631ZM13.7201 24.6847L13.7199 14.1281H14.9895C16.8487 14.1281 18.3612 12.6153 18.3612 10.7558V9.48516H30.184V10.7557C30.184 12.6153 31.6967 14.128 33.5558 14.128H34.8254V24.6846C34.8254 30.5052 30.0914 35.2406 24.2726 35.2406C18.4539 35.2406 13.7201 30.5053 13.7201 24.6847ZM24.2729 37.3427C25.9525 37.3427 27.5561 37.013 29.0239 36.416V40.633L24.2729 48.2373L19.5218 40.6329V36.416C20.9896 37.0128 22.5933 37.3427 24.2729 37.3427ZM17.8245 53.2087C17.7748 53.1933 17.7601 53.1567 17.7553 53.1447L14.0348 43.8414L18.0452 42.2365L22.8409 49.9122L17.9174 53.1952C17.9068 53.2024 17.8744 53.2243 17.8245 53.2087ZM24.2729 51.4837L27.4979 53.6343L25.9987 56.1336H22.5474L21.0482 53.6341L24.2729 51.4837ZM22.8425 58.2355H25.7035L26.9001 65.4182H21.6457L22.8425 58.2355ZM11.4191 67.6299C11.4191 67.5693 11.4682 67.5201 11.5285 67.5201H32.5285C32.5278 67.5435 32.525 67.5665 32.525 67.5902V69.991C32.525 70.0147 32.5278 70.0377 32.5285 70.0611H11.5286C11.4682 70.0611 11.4192 70.0117 11.4192 69.9513L11.4191 67.6299ZM69.6575 69.9909C69.6575 70.0294 69.6261 70.0609 69.5874 70.0609H34.6969C34.6583 70.0609 34.6269 70.0294 34.6269 69.9909V67.5901C34.6269 67.5515 34.6583 67.52 34.6969 67.52H69.5874C69.6261 67.52 69.6575 67.5515 69.6575 67.5901V69.9909Z" fill="#00B4FF"/>
<path d="M39.4873 58.3847C39.4873 59.5824 40.4616 60.5567 41.6593 60.5567H62.6251C63.8228 60.5567 64.7971 59.5824 64.7971 58.3847V44.3768C64.7971 43.1791 63.8228 42.2048 62.6251 42.2048H41.6593C40.4616 42.2048 39.4873 43.1791 39.4873 44.3768V58.3847ZM41.5892 44.3768C41.5892 44.3382 41.6206 44.3067 41.6593 44.3067H62.6251C62.6638 44.3067 62.6952 44.3382 62.6952 44.3768V58.3847C62.6952 58.4232 62.6638 58.4548 62.6251 58.4548H41.6593C41.6206 58.4548 41.5892 58.4232 41.5892 58.3847V44.3768Z" fill="#00B4FF"/>
<path d="M49.8214 21.0923H50.9818C51.0422 21.0923 51.0912 21.1416 51.0912 21.202V24.6843C51.0912 25.5276 51.5597 26.2855 52.314 26.6625C52.6294 26.8203 52.9681 26.8979 53.3048 26.8979C53.773 26.8979 54.2374 26.7477 54.6296 26.4534L61.7469 21.1139C61.7656 21.0999 61.7887 21.0923 61.8121 21.0923H63.7461C66.885 21.0923 69.4386 18.5381 69.4386 15.3985V6.11286C69.4386 2.97332 66.885 0.418945 63.7461 0.418945H49.8214C46.6826 0.418945 44.1289 2.97332 44.1289 6.11286V15.3985C44.1289 18.5382 46.6826 21.0923 49.8214 21.0923ZM46.2308 6.11286C46.2308 4.13217 47.8416 2.52085 49.8214 2.52085H63.7461C65.726 2.52085 67.3367 4.13217 67.3367 6.11286V15.3985C67.3367 17.3791 65.726 18.9904 63.7461 18.9904H61.8121C61.3363 18.9904 60.8651 19.1476 60.4852 19.4329L53.3682 24.772C53.3507 24.7852 53.3141 24.8124 53.2538 24.7823C53.1932 24.752 53.1931 24.7062 53.1931 24.6842V21.2017C53.193 19.9824 52.2009 18.9903 50.9818 18.9903H49.8214C47.8416 18.9903 46.2308 17.3789 46.2308 15.3984V6.11286Z" fill="#00B4FF"/>
<path d="M49.8214 7.16382H63.7461C64.3265 7.16382 64.7971 6.69341 64.7971 6.11286C64.7971 5.53232 64.3265 5.06191 63.7461 5.06191H49.8214C49.241 5.06191 48.7705 5.53232 48.7705 6.11286C48.7705 6.69341 49.241 7.16382 49.8214 7.16382Z" fill="#00B4FF"/>
<path d="M49.8214 11.8066H63.7461C64.3265 11.8066 64.7971 11.3362 64.7971 10.7557C64.7971 10.1751 64.3265 9.70474 63.7461 9.70474H49.8214C49.241 9.70474 48.7705 10.1751 48.7705 10.7557C48.7705 11.3362 49.241 11.8066 49.8214 11.8066Z" fill="#00B4FF"/>
<path d="M49.8214 16.4495H54.463C55.0434 16.4495 55.5139 15.9791 55.5139 15.3985C55.5139 14.818 55.0434 14.3476 54.463 14.3476H49.8214C49.241 14.3476 48.7705 14.818 48.7705 15.3985C48.7705 15.9791 49.241 16.4495 49.8214 16.4495Z" fill="#00B4FF"/>
</svg>
