<svg width="72" height="80" viewBox="0 0 72 80" fill="none" xmlns="http://www.w3.org/2000/svg">
<path d="M35.503 77.4349H32.272C27.4196 77.4349 24.4051 76.0085 24.4051 73.7121V54.4423C27.5178 52.62 29.8474 49.5801 31.3356 45.3942C31.5504 44.7903 31.2349 44.1268 30.631 43.912C30.0268 43.6968 29.3634 44.0127 29.1488 44.6166C28.004 47.8366 26.39 50.1948 24.2427 51.7755C23.7782 50.2632 22.3686 49.1604 20.706 49.1604H17.4474C15.4078 49.1604 13.7485 50.8199 13.7485 52.8594V63.7726C13.7485 64.4137 14.2679 64.9331 14.9089 64.9331C15.55 64.9331 16.0694 64.4137 16.0694 63.7726V52.8594C16.0694 52.0995 16.6875 51.4814 17.4474 51.4814H20.706C21.4659 51.4814 22.084 52.0995 22.084 52.8594V76.0569C22.084 76.8168 21.4659 77.4349 20.706 77.4349H17.4474C16.6875 77.4349 16.0694 76.8168 16.0694 76.0569V69.1454C16.0694 68.5044 15.55 67.985 14.9089 67.985C14.2679 67.985 13.7485 68.5044 13.7485 69.1454V76.0569C13.7485 78.0965 15.4079 79.7559 17.4474 79.7559H20.706C22.1809 79.7559 23.4565 78.8878 24.05 77.6362C25.4963 78.8066 27.9894 79.7559 32.2719 79.7559H35.5028C36.1438 79.7559 36.6633 79.2364 36.6633 78.5954C36.6633 77.9543 36.1438 77.4349 35.503 77.4349Z" fill="#00B4FF"/>
<path d="M60.018 56.6261C60.1959 56.2082 60.2945 55.7488 60.2945 55.2667V52.6417C60.2945 50.7221 58.7326 49.1603 56.8131 49.1603C55.3903 49.1601 46.6297 49.1606 45.5127 49.1603C42.5855 49.231 40.1923 46.3598 40.7817 43.3576L41.6401 38.7563C42.2634 35.4149 40.5756 32.0359 37.5358 30.5394C36.0872 29.7816 33.7765 30.4871 33.1933 32.3528L30.7851 39.5007C30.5805 40.108 30.9069 40.7663 31.5143 40.9709C32.1216 41.1753 32.78 40.849 32.9846 40.2417L35.3929 33.0933C35.4958 32.7877 35.7237 32.6536 35.8503 32.6008C35.9755 32.5488 36.2274 32.4823 36.5109 32.6219C38.6209 33.6606 39.7921 36.0083 39.3587 38.3308L38.5002 42.9319C37.7939 46.3988 39.9618 50.2601 43.5572 51.2131C43.0132 51.9906 42.6929 52.9354 42.6929 53.9541C42.6929 55.3945 43.3323 56.6875 44.3411 57.567C43.3049 58.4471 42.6454 59.7582 42.6454 61.221C42.6454 62.6838 43.3047 63.995 44.3411 64.8749C43.3323 65.7544 42.6929 67.0475 42.6929 68.4878C42.6929 69.8804 43.2902 71.1356 44.2416 72.0123C43.295 72.8195 42.6929 74.0196 42.6929 75.3583C42.6929 76.1089 42.8823 76.816 43.2153 77.4349H40.8758C40.2347 77.4349 39.7153 77.9543 39.7153 78.5954C39.7153 79.2364 40.2347 79.7559 40.8758 79.7559H55.1827C56.9882 79.7559 58.4572 78.287 58.4572 76.4815V74.2353C58.4572 73.7565 58.3514 73.3027 58.1659 72.8924C59.4257 72.2721 60.2948 70.9753 60.2948 69.4787V67.4969C60.2948 66.9068 60.1597 66.3476 59.9188 65.8488C61.4751 65.372 62.61 63.9222 62.61 62.212V60.2301C62.6097 58.5565 61.5227 57.1332 60.018 56.6261ZM57.9735 52.6417V55.2667C57.9735 55.9066 57.453 56.4271 56.8131 56.4271H47.4866C46.123 56.4271 45.0137 55.3177 45.0137 53.9543C45.0137 52.5908 46.1231 51.4814 47.4866 51.4814H56.8131C57.453 51.4812 57.9735 52.0017 57.9735 52.6417ZM56.4915 66.0149C57.3087 66.0149 57.9735 66.6798 57.9735 67.4969V69.4787C57.9735 70.2959 57.3087 70.9607 56.4915 70.9607H47.4866C46.123 70.9607 45.0137 69.8513 45.0137 68.4878C45.0137 67.1244 46.1231 66.0151 47.4866 66.0151H56.4915V66.0149ZM56.136 76.4813C56.136 77.0069 55.7081 77.4348 55.1824 77.4348H47.09C45.9452 77.4348 45.0135 76.5031 45.0135 75.3581C45.0135 74.2131 45.9452 73.2815 47.09 73.2815C47.4168 73.2797 54.7835 73.2829 55.1824 73.2815C55.7081 73.2815 56.136 73.7093 56.136 74.2351V76.4813ZM60.2887 62.212C60.2887 63.0291 59.6239 63.694 58.8068 63.694H47.4391C46.0755 63.694 44.9662 62.5846 44.9662 61.2211C44.9662 59.8576 46.0756 58.7482 47.4391 58.7482H58.8068C59.6239 58.7482 60.2887 59.4131 60.2887 60.2302V62.212Z" fill="#00B4FF"/>
<path d="M27.6484 18.2594L26.3762 25.6767C26.1308 27.1191 27.6651 28.6761 29.3517 27.8387L36.0129 24.3366L42.674 27.8386C43.9829 28.5783 45.928 27.4242 45.6496 25.6768L44.3775 18.2594L49.7665 13.0063C50.8493 12.0319 50.3906 9.73644 48.6299 9.50853L41.1823 8.42635L37.8519 1.67736C37.2276 0.30986 34.9756 0.100357 34.174 1.67736L30.8434 8.42604L23.396 9.50822C21.866 9.69111 21.0235 11.7555 22.2592 13.0062L27.6484 18.2594ZM31.3178 10.7024C31.9858 10.6052 32.5631 10.1858 32.8619 9.58048L36.0131 3.19541L39.1643 9.58079C39.4634 10.1861 40.0404 10.6054 40.7084 10.7024L47.7546 11.7263L42.6561 16.6962C42.1724 17.1673 41.9518 17.8461 42.0661 18.5115L43.2696 25.5292L36.967 22.2157C36.3696 21.9017 35.656 21.902 35.0586 22.2158L28.7563 25.5292L29.9598 18.5116C30.074 17.846 29.8533 17.1673 29.3699 16.6963L24.2711 11.7263L31.3178 10.7024Z" fill="#00B4FF"/>
<path d="M71.6275 16.4735C71.422 15.8413 70.8857 15.3892 70.2278 15.2937L65.6453 14.6278L63.5959 10.4751C63.0682 9.31914 61.1639 9.14135 60.486 10.4751L58.4366 14.6276L53.854 15.2937C52.59 15.4551 51.8398 17.1454 52.8928 18.2514L56.209 21.4837L55.4262 26.0476C55.1873 27.2503 56.5598 28.555 57.9421 27.8757L62.0409 25.7206L66.14 27.8758C67.0886 28.49 68.9253 27.5792 68.6556 26.0477L67.8728 21.4837L71.1891 18.2512C71.6651 17.787 71.8331 17.1059 71.6275 16.4735ZM66.032 20.0369C65.6231 20.4354 65.4364 21.0091 65.533 21.5719L66.1669 25.268L62.8477 23.523C62.5952 23.3904 62.318 23.3239 62.0409 23.3239C61.7638 23.3239 61.4867 23.3902 61.2338 23.523L57.9146 25.268L58.5487 21.5717C58.6451 21.0091 58.4585 20.4354 58.0498 20.0371L55.3645 17.4195L59.076 16.8803C59.6406 16.7981 60.1286 16.4437 60.3813 15.9318L62.0409 12.5691L63.7004 15.9312C63.9527 16.4432 64.4408 16.798 65.0061 16.8803L68.7172 17.4195L66.032 20.0369Z" fill="#00B4FF"/>
<path d="M14.8795 28.0767C15.7196 28.105 16.7734 27.215 16.587 26.0477L15.8042 21.4837L19.1205 18.2512C20.002 17.4591 19.6794 15.4998 18.1592 15.2937L13.5766 14.6276L11.5272 10.4754C10.9992 9.31883 9.09574 9.14182 8.41725 10.4753L6.36786 14.6279L1.78539 15.2937C0.521407 15.4551 -0.228877 17.1454 0.824212 18.2514L4.14037 21.4837L3.3576 26.0476C3.1187 27.2504 4.49068 28.5551 5.8735 27.8757L9.97228 25.7206L14.0712 27.8757C14.3271 28.0103 14.604 28.0767 14.8795 28.0767ZM9.97228 23.3237C9.69516 23.3237 9.41788 23.3902 9.16537 23.5228L5.84611 25.2679L6.48019 21.5715C6.57659 21.0089 6.38999 20.4352 5.98134 20.0369L3.29602 17.4194L7.00751 16.8801C7.57243 16.7978 8.0606 16.443 8.31265 15.9317L9.97244 12.5689L11.6319 15.9318C11.8844 16.4435 12.3723 16.798 12.9375 16.8801L16.6485 17.4194L13.9634 20.0368C13.5544 20.4352 13.3678 21.0089 13.4644 21.5717L14.0983 25.2679L10.7787 23.5227C10.5262 23.3899 10.2492 23.3237 9.97228 23.3237Z" fill="#00B4FF"/>
</svg>
