<svg width="70" height="70" viewBox="0 0 70 70" fill="none" xmlns="http://www.w3.org/2000/svg">
<path d="M68.952 24.9686C68.6818 24.3235 68.1763 23.8222 67.5292 23.5577L62.9585 21.6874C62.3119 21.4229 61.5999 21.4256 60.9549 21.6963C60.3093 21.9671 59.8085 22.4726 59.5435 23.1192L54.3403 35.8365V15.0551C54.3403 14.7854 54.2332 14.5261 54.0424 14.3353L40.6539 0.947366C40.4631 0.756572 40.2043 0.649414 39.9346 0.649414H1.7675C1.20557 0.649414 0.749756 1.10523 0.749756 1.66716V9.52002C0.749756 10.0819 1.20557 10.5378 1.7675 10.5378C2.32942 10.5378 2.78472 10.0819 2.78472 9.52002V2.68437H38.9164V15.0551C38.9164 15.6171 39.3722 16.0723 39.9341 16.0723H52.3054V40.8107L47.8194 51.7738C47.7629 51.9118 47.7373 52.0608 47.7451 52.2097L48.224 61.7876C48.2438 62.1817 48.4895 62.5288 48.8549 62.6783C48.9793 62.7295 49.11 62.7541 49.2401 62.7541C49.491 62.7541 49.7378 62.6616 49.9291 62.4854L52.3049 60.2984V67.1288H2.78472V13.5905C2.78472 13.0285 2.32942 12.5727 1.7675 12.5727C1.20557 12.5727 0.749756 13.0285 0.749756 13.5905V68.146C0.749756 68.7079 1.20557 69.1637 1.7675 69.1637H53.3226C53.8845 69.1637 54.3403 68.7079 54.3403 68.146V58.4249L56.9848 55.9906C57.0946 55.8892 57.1803 55.7653 57.2373 55.6273L61.8503 44.3522C62.063 43.8321 61.8137 43.2377 61.2936 43.025C60.774 42.8122 60.1797 43.0611 59.9669 43.5812L55.7386 53.9149L50.088 51.6029L58.7709 30.3819L64.4216 32.6939L61.4258 40.0157C61.2131 40.5358 61.4619 41.1301 61.9825 41.3429C62.5027 41.5556 63.0965 41.3068 63.3092 40.7867L68.9614 26.9727C69.2259 26.3256 69.2228 25.6136 68.952 24.9686ZM40.9518 4.12291L50.8663 14.0379H40.9518V4.12291ZM49.8575 53.7068L54.4287 55.5771L50.1481 59.5179L49.8575 53.7068ZM67.0775 26.2017L65.1921 30.81L59.5414 28.498L61.4269 23.8897C61.486 23.7459 61.5978 23.6335 61.7416 23.5734C61.8858 23.5128 62.0442 23.5117 62.188 23.5708L66.7587 25.4411C66.9024 25.4997 67.0148 25.6115 67.0749 25.7553C67.1356 25.8995 67.1366 26.0579 67.0775 26.2017Z" fill="#00B4FF"/>
<path d="M34.6123 11.7583H21.9953C21.4334 11.7583 20.9776 12.2136 20.9776 12.7755C20.9776 13.3375 21.4334 13.7933 21.9953 13.7933H34.6123C35.1742 13.7933 35.63 13.3375 35.63 12.7755C35.63 12.2136 35.1742 11.7583 34.6123 11.7583Z" fill="#00B4FF"/>
<path d="M8.61935 34.0754H16.6641C17.226 34.0754 17.6813 33.6196 17.6813 33.0577V25.8514L19.1998 23.9184C19.5469 23.4767 19.47 22.8369 19.0283 22.4898C18.5866 22.1427 17.9468 22.2196 17.5997 22.6613L16.5511 23.9958H8.61935C8.05742 23.9958 7.60161 24.4511 7.60161 25.013V33.0577C7.60161 33.6196 8.05742 34.0754 8.61935 34.0754ZM9.63657 26.0307H14.9521L13.3327 28.0918L12.2005 26.9591C11.8033 26.5618 11.1587 26.5618 10.7615 26.9591C10.3642 27.3569 10.3642 28.0009 10.7615 28.3982L12.7049 30.3416C12.8963 30.533 13.1555 30.6396 13.4242 30.6396C13.4446 30.6396 13.465 30.6391 13.4854 30.638C13.7755 30.6208 14.0447 30.4796 14.2245 30.2507L15.6463 28.4415V32.0405H9.63657V26.0307Z" fill="#00B4FF"/>
<path d="M45.465 25.576H23.691C23.1291 25.576 22.6733 26.0318 22.6733 26.5937C22.6733 27.1556 23.1291 27.6115 23.691 27.6115H45.465C46.0275 27.6115 46.4828 27.1556 46.4828 26.5937C46.4828 26.0318 46.0275 25.576 45.465 25.576Z" fill="#00B4FF"/>
<path d="M23.691 32.4953H41.1918C41.7537 32.4953 42.209 32.0394 42.209 31.4775C42.209 30.9156 41.7537 30.4603 41.1918 30.4603H23.691C23.1291 30.4603 22.6733 30.9156 22.6733 31.4775C22.6733 32.0394 23.1291 32.4953 23.691 32.4953Z" fill="#00B4FF"/>
<path d="M7.60161 46.4206C7.60161 46.9825 8.05742 47.4383 8.61935 47.4383H16.6641C17.226 47.4383 17.6813 46.9825 17.6813 46.4206V39.2143L19.1998 37.2813C19.5469 36.8396 19.47 36.1998 19.0283 35.8527C18.5866 35.5056 17.9468 35.5825 17.5997 36.0242L16.5511 37.3587H8.61935C8.05742 37.3587 7.60161 37.814 7.60161 38.3759V46.4206ZM9.63657 39.3936H14.9521L13.3327 41.4547L12.2005 40.322C11.8033 39.9247 11.1587 39.9247 10.7615 40.322C10.3642 40.7198 10.3642 41.3638 10.7615 41.761L12.7049 43.7045C12.8963 43.8958 13.1555 44.0025 13.4242 44.0025C13.4446 44.0025 13.465 44.0019 13.4854 44.0009C13.7755 43.9837 14.0447 43.8425 14.2245 43.6136L15.6463 41.8044V45.4034H9.63657V39.3936Z" fill="#00B4FF"/>
<path d="M45.465 38.9389H23.691C23.1291 38.9389 22.6733 39.3947 22.6733 39.9566C22.6733 40.5185 23.1291 40.9738 23.691 40.9738H45.465C46.0275 40.9738 46.4828 40.5185 46.4828 39.9566C46.4828 39.3947 46.0275 38.9389 45.465 38.9389Z" fill="#00B4FF"/>
<path d="M23.691 45.8581H30.2031C30.765 45.8581 31.2203 45.4023 31.2203 44.8404C31.2203 44.2785 30.765 43.8232 30.2031 43.8232H23.691C23.1291 43.8232 22.6733 44.2785 22.6733 44.8404C22.6733 45.4023 23.1291 45.8581 23.691 45.8581Z" fill="#00B4FF"/>
<path d="M7.60161 59.7835C7.60161 60.3454 8.05742 60.8012 8.61935 60.8012H16.6641C17.226 60.8012 17.6813 60.3454 17.6813 59.7835V51.7393C17.6813 51.1774 17.226 50.7216 16.6641 50.7216H8.61935C8.05742 50.7216 7.60161 51.1774 7.60161 51.7393V59.7835ZM9.63657 52.7565H15.6463V58.7657H9.63657V52.7565Z" fill="#00B4FF"/>
<path d="M46.4828 53.3195C46.4828 52.7576 46.0275 52.3017 45.465 52.3017H23.691C23.1291 52.3017 22.6733 52.7576 22.6733 53.3195C22.6733 53.8814 23.1291 54.3367 23.691 54.3367H45.465C46.0275 54.3367 46.4828 53.8814 46.4828 53.3195Z" fill="#00B4FF"/>
<path d="M23.691 57.1855C23.1291 57.1855 22.6733 57.6414 22.6733 58.2033C22.6733 58.7652 23.1291 59.221 23.691 59.221H42.209C42.7714 59.221 43.2267 58.7652 43.2267 58.2033C43.2267 57.6414 42.7714 57.1855 42.209 57.1855H23.691Z" fill="#00B4FF"/>
</svg>
