<svg width="136" height="136" viewBox="0 0 136 136" fill="none" xmlns="http://www.w3.org/2000/svg">
<path d="M67.8411 135.404C105.12 135.404 135.341 105.183 135.341 67.9041C135.341 30.6248 105.12 0.404053 67.8411 0.404053C30.5618 0.404053 0.341064 30.6248 0.341064 67.9041C0.341064 105.183 30.5618 135.404 67.8411 135.404Z" fill="#F0F0F0"/>
<path d="M14.2947 26.8087C8.99252 33.7072 4.99446 41.6582 2.6665 50.2958H37.7818L14.2947 26.8087Z" fill="#0052B4"/>
<path d="M133.016 50.2958C130.688 41.6584 126.69 33.7074 121.388 26.809L97.9011 50.2958H133.016Z" fill="#0052B4"/>
<path d="M2.6665 85.5131C4.99473 94.1504 8.99278 102.101 14.2947 109L37.781 85.5131H2.6665Z" fill="#0052B4"/>
<path d="M108.937 14.3578C102.038 9.05565 94.0873 5.05759 85.4497 2.72937V37.8444L108.937 14.3578Z" fill="#0052B4"/>
<path d="M26.7456 121.45C33.6441 126.752 41.5951 130.751 50.2324 133.079V97.964L26.7456 121.45Z" fill="#0052B4"/>
<path d="M50.2322 2.72937C41.5948 5.05759 33.6438 9.05565 26.7456 14.3576L50.2322 37.8441V2.72937Z" fill="#0052B4"/>
<path d="M85.45 133.079C94.0873 130.751 102.038 126.752 108.937 121.451L85.45 97.964V133.079Z" fill="#0052B4"/>
<path d="M97.9011 85.5131L121.388 109C126.69 102.102 130.688 94.1504 133.016 85.5131H97.9011Z" fill="#0052B4"/>
<path d="M134.77 59.0998H76.6459H76.6456V0.97543C73.7634 0.600225 70.825 0.404053 67.8411 0.404053C64.8566 0.404053 61.9187 0.600225 59.0368 0.97543V59.0993V59.0995H0.912441C0.537236 61.9817 0.341064 64.9201 0.341064 67.9041C0.341064 70.8886 0.537236 73.8264 0.912441 76.7083H59.0363H59.0365V134.833C61.9187 135.208 64.8566 135.404 67.8411 135.404C70.825 135.404 73.7634 135.208 76.6453 134.833V76.7088V76.7086H134.77C135.145 73.8264 135.341 70.8886 135.341 67.9041C135.341 64.9201 135.145 61.9817 134.77 59.0998Z" fill="#D80027"/>
<path d="M85.45 85.5131L115.571 115.634C116.956 114.249 118.278 112.801 119.539 111.3L93.7509 85.5128H85.45V85.5131Z" fill="#D80027"/>
<path d="M50.2322 85.5131H50.2316L20.1111 115.634C21.4959 117.019 22.9437 118.34 24.4445 119.601L50.2322 93.8132V85.5131Z" fill="#D80027"/>
<path d="M50.2324 50.2958V50.2953L20.1115 20.1742C18.7262 21.559 17.4047 23.0068 16.1438 24.5076L41.9317 50.2955H50.2324V50.2958Z" fill="#D80027"/>
<path d="M85.45 50.2957L115.571 20.1744C114.186 18.789 112.738 17.4675 111.238 16.2069L85.45 41.9948V50.2957Z" fill="#D80027"/>
</svg>
