<svg width="230" height="177" viewBox="0 0 230 177" fill="none" xmlns="http://www.w3.org/2000/svg">
<path d="M100.829 160.848C102.008 159.406 102.139 158.227 99.5182 158.096C93.621 157.572 89.2964 154.951 88.5102 153.509C87.8549 152.068 89.6896 150.495 91.2622 151.412C92.5726 152.199 95.0625 152.723 97.0282 152.985C98.6008 153.247 100.173 153.247 101.877 152.985C103.319 152.723 104.498 152.592 105.546 152.33C105.546 152.33 111.837 151.019 114.458 148.922L127.693 163.076L121.534 170.152C121.534 170.152 118.52 174.608 113.278 174.084C107.905 173.559 100.829 169.759 100.829 169.759C99.9113 168.317 91.2622 173.559 88.5102 175.525C85.7582 177.491 83.6614 176.967 83.7924 175.132C83.9235 173.821 92.1795 167.531 94.9315 165.696C96.373 164.517 99.3871 162.551 100.829 160.848Z" fill="#FFBE9D"/>
<path d="M108.56 173.166C108.56 173.297 108.953 173.428 109.609 173.428C110.264 173.428 111.181 173.166 112.099 172.511C112.885 171.856 113.409 171.069 113.671 170.414C113.933 169.759 113.802 169.366 113.802 169.366C113.671 169.366 113.278 170.938 111.836 171.987C110.264 173.166 108.56 173.035 108.56 173.166Z" fill="#EB996E"/>
<path d="M103.318 171.069C103.318 171.2 103.711 171.332 104.366 171.2C105.021 171.2 105.938 170.938 106.725 170.283C107.511 169.628 108.035 168.842 108.166 168.186C108.428 167.531 108.297 167.138 108.297 167.138C108.166 167.138 107.773 168.58 106.332 169.628C104.89 170.938 103.318 170.938 103.318 171.069Z" fill="#EB996E"/>
<path d="M89.1649 24.0342C88.6407 35.6974 74.4876 51.5542 63.8728 54.1751C58.3688 55.4856 51.9474 54.8303 47.6229 58.6307C40.1532 65.052 44.4778 78.2878 39.3669 86.8059C36.2218 92.0478 30.0625 94.6688 26.5242 99.6486C20.6271 107.905 24.5585 120.485 32.5524 126.644C40.5463 132.804 51.1612 133.983 61.1208 133.721C83.0057 133.197 105.546 126.12 121.403 110.657C128.872 103.318 157.965 80.7777 147.874 27.3104" fill="#251A51"/>
<path d="M9.88144 107.118L93.3587 82.3503C100.304 79.4672 105.546 78.6809 105.546 78.6809L133.721 78.812C137.522 78.812 141.191 79.5983 144.467 81.0398L220.475 106.332C225.979 108.167 229.91 113.933 229.91 120.485C229.91 128.61 224.013 135.162 216.936 135.162H181.816C181.947 135.556 181.947 135.687 181.947 135.687L59.9416 136.08L13.4197 136.211C6.2121 136.211 0.445999 129.527 0.445999 121.402C0.445999 114.719 4.24638 108.953 9.88144 107.118Z" fill="#E3707F"/>
<path d="M26.6558 116.161C26.6558 116.161 26.9179 116.161 27.4421 116.161C27.9663 116.161 28.7526 116.029 29.5389 115.898C31.3735 115.636 34.1255 115.374 37.4017 114.981C44.0851 114.326 53.3895 113.802 63.6112 113.933C73.8329 114.064 83.1373 114.85 89.6897 115.767C92.9658 116.161 95.7178 116.554 97.5525 116.816C98.4698 116.947 99.1251 117.078 99.6493 117.078C100.173 117.078 100.436 117.209 100.436 117.078C100.436 117.078 100.173 116.947 99.6493 116.947C99.1251 116.816 98.3388 116.685 97.5525 116.554C95.7178 116.161 92.9658 115.767 89.6897 115.243C83.0062 114.326 73.8329 113.409 63.4802 113.278C53.2585 113.146 43.9541 113.802 37.2707 114.588C33.9945 114.981 31.2425 115.374 29.4078 115.636C28.4905 115.767 27.8352 115.898 27.311 116.029C26.9179 116.029 26.6558 116.161 26.6558 116.161Z" fill="#251A51"/>
<g opacity="0.6">
<g opacity="0.6">
<path opacity="0.6" d="M46.1814 95.8482C46.1814 95.8482 46.3124 95.9792 46.4435 96.1103C46.5745 96.3724 46.8366 96.5034 47.2298 96.8965C47.885 97.5518 48.8023 98.6002 50.2439 99.7796C51.5543 100.959 53.258 102.401 55.3547 103.842C57.4515 105.284 60.0724 106.725 63.0865 107.511C66.2317 108.429 69.901 108.298 73.5703 107.249C77.2396 106.332 80.909 104.366 84.5783 102.401C88.2476 100.435 92.179 98.207 96.5036 96.7655C100.828 95.324 105.677 95.324 110.133 97.4207C114.588 99.3864 118.258 102.401 122.32 104.628C123.368 105.153 124.417 105.677 125.465 106.07C126.513 106.463 127.562 106.856 128.61 107.118C130.707 107.773 132.935 108.036 135.032 108.167C143.55 108.822 151.15 106.07 156.392 102.269C159.013 100.435 160.979 98.3381 162.814 96.5034C164.648 94.7998 166.352 93.3583 167.793 92.4409C170.808 90.6063 172.904 90.6063 172.904 90.4752C172.904 90.4752 172.38 90.4752 171.463 90.6063C170.545 90.7373 169.235 91.2615 167.662 92.1788C166.09 93.0962 164.386 94.5377 162.552 96.2413C160.717 97.9449 158.62 100.042 156.13 101.876C151.019 105.415 143.419 108.167 135.163 107.511C133.066 107.38 130.969 106.987 128.872 106.463C127.824 106.201 126.776 105.808 125.727 105.415C124.679 104.89 123.63 104.497 122.713 103.973C118.651 101.876 114.981 98.8623 110.526 96.7655C106.07 94.6687 100.828 94.5377 96.5036 96.1103C92.048 97.4207 88.2476 99.7796 84.5783 101.745C80.909 103.711 77.3707 105.677 73.7014 106.594C70.1631 107.642 66.6248 107.642 63.6107 106.856C60.5966 106.07 57.9757 104.628 55.8789 103.318C53.7821 101.876 52.0785 100.566 50.7681 99.3864C49.4576 98.207 48.4092 97.2897 47.754 96.6344C47.4919 96.3724 47.2298 96.1103 46.9677 95.8482C46.3124 95.9792 46.1814 95.8482 46.1814 95.8482Z" fill="white"/>
</g>
</g>
<g opacity="0.2">
<path opacity="0.2" d="M175.788 115.898L123.107 125.858L129.266 135.818H130.839L175.788 115.898Z" fill="black"/>
</g>
<g opacity="0.6">
<g opacity="0.6">
<path opacity="0.6" d="M16.1724 105.546C16.1724 105.546 16.1724 105.808 16.1724 106.332C16.1724 106.856 16.3034 107.642 16.4345 108.691C16.8276 110.657 17.6139 113.54 19.5796 116.554C21.5453 119.568 24.9526 122.582 29.5392 124.154C31.767 124.941 34.388 125.465 37.0089 125.334C39.6299 125.203 42.2508 124.679 44.8718 123.892C47.4927 123.106 50.1137 122.32 52.6036 121.796C55.0935 121.271 57.5834 121.14 59.9422 121.402C64.6599 121.927 68.4603 123.892 71.3434 126.12C74.2264 128.217 75.93 130.576 76.9784 132.279C77.2405 132.673 77.5026 133.066 77.6336 133.459C77.7647 133.721 77.8957 134.114 78.0268 134.376C78.2889 134.9 78.4199 135.031 78.4199 135.031C78.4199 135.031 78.2889 134.769 78.1578 134.245C78.0268 133.983 77.8957 133.721 77.7647 133.328C77.6336 132.935 77.3715 132.541 77.1094 132.148C76.0611 130.445 74.3574 127.955 71.4744 125.727C68.7224 123.499 64.6599 121.402 59.9422 120.878C57.5834 120.616 54.9624 120.616 52.4725 121.271C49.8516 121.796 47.3617 122.582 44.7407 123.368C42.1198 124.154 39.4988 124.679 37.0089 124.81C34.519 124.941 32.0291 124.548 29.8013 123.761C25.3457 122.32 22.0695 119.306 19.9728 116.423C17.876 113.54 17.0897 110.657 16.6966 108.691C16.3034 106.594 16.3034 105.546 16.1724 105.546Z" fill="white"/>
</g>
</g>
<path d="M220.344 133.459C220.344 133.459 124.941 175.525 125.465 174.608C125.99 173.69 110.264 146.039 110.264 146.039L187.582 107.773L220.344 133.459Z" fill="#E3707F"/>
<path d="M176.575 113.277C176.575 113.277 175.92 113.54 174.609 114.064C173.299 114.719 171.464 115.505 169.368 116.554C164.912 118.65 158.884 121.664 152.2 124.941C145.517 128.217 139.489 131.231 135.033 133.459C132.936 134.507 131.233 135.424 129.922 136.08C128.743 136.735 128.088 137.128 128.088 137.128C128.088 137.128 128.743 136.866 130.053 136.342C131.364 135.687 133.198 134.9 135.295 133.852C139.751 131.755 145.779 128.741 152.462 125.465C159.146 122.189 165.174 119.175 169.63 116.947C171.726 115.898 173.43 114.981 174.741 114.326C175.92 113.671 176.575 113.277 176.575 113.277Z" fill="#251A51"/>
<g opacity="0.6">
<g opacity="0.6">
<path opacity="0.6" d="M155.607 125.989C155.607 125.989 155.607 127.037 156.524 128.872C157.311 130.576 159.145 132.935 162.159 134.507C163.732 135.293 165.435 136.08 167.401 136.342C169.367 136.735 171.595 136.735 173.823 136.473C178.409 135.949 182.996 133.983 187.714 131.755C192.431 129.527 196.887 127.431 201.211 126.382C203.439 125.858 205.536 125.596 207.502 125.596C209.467 125.596 211.302 125.989 212.875 126.513C216.02 127.562 218.379 129.265 219.558 130.707C220.738 132.148 221.262 133.066 221.262 133.066C221.262 133.066 221 132.017 219.689 130.576C218.51 129.003 216.282 127.168 213.006 126.12C211.433 125.596 209.467 125.203 207.502 125.072C205.536 124.941 203.308 125.203 201.08 125.727C196.625 126.775 192.038 128.872 187.451 131.1C182.734 133.328 178.147 135.162 173.691 135.818C171.464 136.08 169.367 136.08 167.401 135.818C165.435 135.556 163.732 134.9 162.29 134.114C159.276 132.541 157.442 130.445 156.655 128.741C155.869 127.037 155.738 125.989 155.607 125.989Z" fill="white"/>
</g>
</g>
<g opacity="0.6">
<g opacity="0.6">
<path opacity="0.6" d="M115.113 154.82C115.113 154.951 117.21 154.557 120.617 154.557C122.321 154.557 124.287 154.557 126.515 154.82C128.742 155.082 131.232 155.606 133.722 156.261C136.212 156.916 138.571 157.834 140.537 158.751C142.502 159.668 144.337 160.717 145.779 161.634C148.662 163.469 150.234 164.91 150.365 164.779C150.365 164.779 149.972 164.386 149.317 163.731C148.662 163.076 147.482 162.158 146.041 161.241C144.599 160.192 142.896 159.275 140.799 158.227C138.702 157.309 136.343 156.261 133.853 155.606C131.363 154.951 128.873 154.426 126.515 154.164C124.287 153.902 122.19 153.902 120.486 154.033C118.783 154.164 117.341 154.295 116.424 154.426C115.638 154.688 115.113 154.82 115.113 154.82Z" fill="white"/>
</g>
</g>
<g opacity="0.2">
<path opacity="0.2" d="M103.45 78.5499C105.022 83.0055 102.664 87.7232 100.305 91.7857C98.7321 94.6687 97.0285 97.5518 94.8007 99.7796C92.4418 102.138 89.4277 103.842 86.1515 103.711C81.827 103.58 78.0266 100.435 73.702 100.697C70.819 100.828 68.198 102.532 65.8392 104.235C61.6457 107.118 57.3211 109.87 52.6034 111.574C47.8857 113.277 42.6438 113.933 37.795 112.491C32.9463 111.05 28.6217 107.249 27.5733 102.269" fill="black"/>
</g>
<path d="M103.057 77.2394C102.795 72.1286 102.532 67.4109 102.532 67.4109C102.532 67.4109 91.0003 65.9694 90.6071 54.3061C90.0829 42.6429 91.2624 15.6471 91.2624 15.6471L112.361 5.55648L135.032 23.9031L131.494 77.6326C130.97 85.3644 124.417 91.2615 116.555 90.9994C109.216 90.6063 103.319 84.7092 103.057 77.2394Z" fill="#FFBE9D"/>
<path d="M94.6514 38.316C93.8554 38.3022 93.2213 37.6458 93.2351 36.8498C93.2489 36.0538 93.9054 35.4197 94.7013 35.4335C95.4973 35.4473 96.1314 36.1038 96.1176 36.8998C96.1038 37.6957 95.4473 38.3298 94.6514 38.316Z" fill="#251A51"/>
<path d="M91.7865 33.7317C91.9175 33.9938 93.0969 32.9454 94.6695 32.9454C96.2421 32.8143 97.4215 33.7317 97.5525 33.4696C97.6836 33.3385 97.4215 33.0764 96.8973 32.6833C96.3731 32.2901 95.5868 32.028 94.5384 32.028C93.6211 32.028 92.7038 32.5522 92.3106 32.9454C91.9175 33.2075 91.6554 33.6006 91.7865 33.7317Z" fill="#251A51"/>
<path d="M112.079 38.3164C111.283 38.3026 110.649 37.6462 110.663 36.8502C110.677 36.0542 111.333 35.4202 112.129 35.434C112.925 35.4478 113.559 36.1042 113.545 36.9002C113.532 37.6962 112.875 38.3302 112.079 38.3164Z" fill="#251A51"/>
<path d="M109.215 33.9938C109.346 34.2559 110.526 33.2075 112.098 33.2075C113.671 33.0764 114.85 33.9938 114.981 33.7317C115.112 33.6006 114.85 33.3385 114.326 32.9454C113.802 32.5522 113.016 32.2902 111.967 32.2902C111.05 32.2902 110.132 32.8143 109.739 33.2075C109.346 33.6006 109.084 33.9938 109.215 33.9938Z" fill="#251A51"/>
<path d="M103.319 47.4917C103.319 47.3606 102.402 47.2296 100.698 47.0985C100.305 47.0985 99.9121 46.9675 99.781 46.7054C99.65 46.4433 99.781 45.9191 100.043 45.3949C100.436 44.3465 100.829 43.2981 101.223 42.1187C102.795 37.401 103.975 33.4696 103.712 33.4696C103.581 33.4696 102.14 37.1389 100.567 41.8566C100.174 43.036 99.781 44.0844 99.5189 45.1328C99.3879 45.657 99.1258 46.1812 99.3879 46.8364C99.5189 47.0985 99.781 47.3606 100.043 47.4917C100.305 47.6227 100.567 47.6227 100.698 47.6227C102.271 47.6227 103.319 47.6227 103.319 47.4917Z" fill="#251A51"/>
<path d="M108.429 49.1953C110.002 48.1469 103.974 51.8162 100.829 51.6852C100.829 51.6852 102.794 54.6993 106.071 53.2577C109.347 51.9473 108.429 49.1953 108.429 49.1953Z" fill="white"/>
<path d="M102.533 67.5419C102.533 67.5419 110.265 67.804 117.734 62.5621C117.734 62.5621 114.196 71.0802 102.795 70.425L102.533 67.5419Z" fill="#EB996E"/>
<path d="M147.35 35.4353C147.35 45.5259 150.102 72.3907 131.625 76.06L132.28 39.1046C132.28 39.1046 114.457 30.7176 111.312 13.1572L111.181 13.2883C110.002 15.9092 108.036 21.6753 109.215 26.262L92.4413 30.4555L90.4756 32.1591C90.4756 32.1591 84.4474 19.0544 95.9796 7.26009C107.512 -4.53419 117.34 3.9839 123.5 3.19762C127.562 2.67343 141.846 2.80447 147.612 27.3104L147.35 35.4353Z" fill="#251A51"/>
<path d="M131.886 39.4977C133.459 38.5804 135.556 39.3667 136.866 40.6772C138.832 42.7739 139.094 46.1812 137.653 48.6711C136.211 51.161 132.935 52.4714 130.183 51.6852" fill="#FFBE9D"/>
<path d="M132.149 48.2779C132.149 48.409 132.673 48.409 133.459 48.2779C134.245 48.0158 135.556 47.3606 135.949 46.0501C136.211 45.3949 136.08 44.7396 135.818 44.0844C135.556 43.5602 135.163 43.1671 134.77 42.905C133.983 42.3808 133.459 42.5118 133.459 42.5118C133.459 42.6429 133.852 42.7739 134.507 43.2981C135.032 43.8223 135.556 44.7396 135.163 45.788C134.77 46.8364 133.852 47.3606 133.197 47.7537C132.673 48.0158 132.149 48.1469 132.149 48.2779Z" fill="#EB996E"/>
<path d="M133.72 50.5057C134.507 50.7678 135.031 51.8162 134.507 52.6025C133.983 53.2577 132.803 53.2577 132.279 52.4714C131.886 51.6852 132.41 50.6368 133.196 50.5057" fill="#E8505B"/>
<path d="M99.7805 136.08V116.947C99.7805 116.947 128.349 122.844 128.873 135.949L99.7805 136.08Z" fill="#FFBE9D"/>
<path d="M102.794 75.2737C102.27 81.1709 99.6488 86.8059 95.3242 90.8684C90.9997 94.9308 85.2336 97.2897 79.3364 97.4207C75.1429 97.5518 70.6873 96.5034 66.7559 98.207C63.3487 99.6486 61.2519 102.925 58.631 105.546C52.4717 111.574 42.7742 113.671 34.6493 110.919C31.242 109.739 25.738 107.249 25.0828 103.711C24.5586 100.959 27.9658 98.207 29.9315 96.2413C31.8973 94.2756 34.3872 92.9651 37.0081 91.7857C57.3205 82.2192 79.2054 75.2737 101.746 74.0943" fill="#251A51"/>
</svg>
