<svg width="212" height="262" viewBox="0 0 212 262" fill="none" xmlns="http://www.w3.org/2000/svg">
<path d="M71.6903 252.071C34.2653 233.355 20.373 190.804 16.1819 151.395C15.476 144.808 13.7818 138.014 16.1182 131.827C18.4693 125.639 25.2749 120.68 31.6059 122.608C36.8581 124.204 39.8006 129.564 43.2257 133.855C47.7764 139.569 53.9642 143.95 60.8635 146.332C65.3903 147.9 70.8011 148.484 74.6525 145.625C79.9337 141.7 79.5159 133.814 78.5491 127.305C76.7584 115.185 74.9658 103.051 73.1751 90.9315C72.2082 84.4221 71.2543 77.7759 72.4285 71.3137C73.6026 64.8516 77.3267 58.4606 83.3598 55.8545C89.391 53.2336 97.656 55.7153 99.8902 61.9002C100.815 64.4756 100.659 67.3068 101.22 69.9878C101.782 72.6688 103.488 75.4771 106.197 75.8589C108.937 76.2519 111.32 74.0286 113.016 71.8462C118.897 64.3126 122.324 55.1923 125.445 46.1555C128.581 37.1167 131.548 27.9189 136.718 19.873C141.888 11.8271 149.626 4.94774 159.001 3.09524C168.387 1.21128 179.262 5.56072 182.954 14.3745C186.649 23.2179 182.53 33.297 177.673 41.5593C170.474 53.8139 161.477 65.0312 151.085 74.7243C149.215 76.4774 147.183 78.3712 146.717 80.8954C145.903 85.4329 150.671 89.1651 155.224 89.9773C160.376 90.8948 165.632 89.6491 170.863 89.5193C176.094 89.3894 181.99 90.845 184.603 95.3737C188.247 101.653 183.584 109.424 178.692 114.774C168.865 125.494 157.2 134.505 144.356 141.303C139.745 143.746 134.856 145.998 131.423 149.917C127.99 153.835 126.45 160.013 129.464 164.266C132.48 168.533 138.751 169.145 143.717 167.5C148.668 165.856 152.832 162.492 157.422 160.007C166.009 155.352 177.818 154.321 184.716 161.245C189.255 165.787 190.588 172.822 189.518 179.151C188.447 185.48 185.261 191.247 181.789 196.644C169.632 215.52 152.941 231.686 132.923 241.835C112.877 251.988 93.664 256.683 71.6903 252.071Z" fill="#00B4FF"/>
<path d="M74.1735 254.767C77.2273 234.161 86.5661 185.388 92.8607 162.211C94.4515 156.433 96.0331 150.702 97.5961 145.063C99.1611 139.439 100.702 133.863 102.57 128.501C106.23 117.758 110.593 107.709 115.02 98.2975C119.446 88.8715 123.998 80.0912 128.325 71.9106C132.666 63.7281 136.847 56.1822 140.952 49.4728C149.127 36.0131 157.003 25.9288 162.702 19.2149C165.543 15.8516 167.825 13.31 169.401 11.6088C170.17 10.7906 170.766 10.1445 171.189 9.68546C171.602 9.25784 171.831 9.04865 171.831 9.04865C171.831 9.04865 171.652 9.29668 171.273 9.75019C170.853 10.2389 170.289 10.896 169.553 11.7401C168.029 13.4949 165.794 16.0605 163.003 19.4628C157.403 26.2395 149.636 36.3552 141.553 49.8333C137.495 56.552 133.345 64.109 129.05 72.3007C124.757 80.5073 120.235 89.2838 115.838 98.7061C111.44 108.114 107.12 118.143 103.47 128.84C101.629 134.183 100.097 139.712 98.5344 145.351C96.9861 150.988 95.4027 156.705 93.812 162.482C87.5155 185.645 78.1692 234.359 75.0636 254.911" fill="white"/>
<path d="M102.796 128.383C102.724 128.407 102.378 127.443 101.796 125.682C101.214 123.92 100.441 121.356 99.5315 118.177C97.6969 111.822 95.4727 102.96 93.0279 93.1774C90.5831 83.3953 88.2016 74.5976 86.2375 68.2885C85.2703 65.1321 84.455 62.5882 83.8603 60.8435C83.2804 59.0969 82.9913 58.1108 83.0487 58.0886C83.106 58.0663 83.5246 59.0062 84.2211 60.723C84.9324 62.4381 85.8494 64.9543 86.9036 68.0847C89.0434 74.3567 91.5452 83.1544 93.9918 92.9513C96.3959 102.648 98.5794 111.426 100.216 118.001C101.006 121.06 101.671 123.607 102.188 125.572C102.638 127.365 102.854 128.361 102.796 128.383Z" fill="white"/>
<path d="M185.43 100.803C185.433 100.833 185.145 100.929 184.575 101.061C183.888 101.222 183.069 101.4 182.09 101.628C179.94 102.108 176.824 102.799 172.992 103.776C165.336 105.669 154.844 108.684 143.43 112.506C132.02 116.358 121.837 120.281 114.555 123.36C110.911 124.869 107.991 126.168 105.967 127.053C105.04 127.455 104.271 127.792 103.629 128.068C103.085 128.287 102.798 128.398 102.778 128.355C102.759 128.327 103.024 128.159 103.531 127.885C104.152 127.566 104.9 127.172 105.788 126.7C107.752 125.701 110.644 124.301 114.263 122.705C121.48 119.469 131.648 115.427 143.1 111.555C154.542 107.714 165.093 104.812 172.814 103.077C176.672 102.187 179.816 101.597 181.993 101.219C182.996 101.063 183.823 100.944 184.515 100.827C185.113 100.798 185.411 100.775 185.43 100.803Z" fill="white"/>
<path d="M78.9727 226.62C78.945 226.639 78.708 226.308 78.2673 225.671C77.7841 224.935 77.1693 223.99 76.4083 222.837C74.8067 220.377 72.5625 216.749 69.846 212.233C64.4131 203.202 57.304 190.517 49.6245 176.399C41.9449 162.282 34.9357 149.554 29.673 140.441C27.0695 135.987 24.9418 132.329 23.3919 129.682C22.7012 128.491 22.1272 127.51 21.6864 126.754C21.3013 126.08 21.1198 125.712 21.1475 125.693C21.1753 125.675 21.4123 126.006 21.8529 126.642C22.3362 127.379 22.9509 128.324 23.7119 129.476C25.3136 131.937 27.5578 135.565 30.2742 140.08C35.7072 149.112 42.8162 161.797 50.4958 175.914C58.1735 190.017 65.1845 202.759 70.4454 211.857C73.0489 216.312 75.1766 219.97 76.7265 222.617C77.4191 223.823 77.9912 224.789 78.432 225.545C78.819 226.233 79.0005 226.602 78.9727 226.62Z" fill="white"/>
<path d="M186.65 174.91C186.669 174.937 186.305 175.148 185.583 175.51C184.775 175.897 183.74 176.402 182.451 177.03C179.615 178.393 175.7 180.267 170.905 182.553C161.163 187.233 147.785 193.857 133.026 201.212C118.266 208.566 104.833 215.107 94.9943 219.619C90.075 221.875 86.09 223.668 83.3075 224.859C81.9939 225.414 80.9227 225.864 80.0939 226.209C79.3502 226.513 78.9616 226.652 78.9431 226.624C78.9246 226.596 79.289 226.385 80.0106 226.024C80.819 225.637 81.8532 225.131 83.1427 224.503C85.9788 223.14 89.8935 221.266 94.6888 218.981C104.431 214.301 117.809 207.676 132.568 200.322C147.328 192.968 160.763 186.441 170.584 181.916C175.504 179.661 179.489 177.868 182.271 176.677C183.585 176.121 184.656 175.671 185.485 175.326C186.243 175.021 186.632 174.882 186.65 174.91Z" fill="white"/>
</svg>
