<svg width="137" height="164" viewBox="0 0 137 164" fill="none" xmlns="http://www.w3.org/2000/svg">
<path d="M84.2757 156.362C107.564 146.472 117.545 121.314 121.553 97.6888C122.227 93.7401 123.504 89.7036 122.326 85.8822C121.14 82.0591 117.219 78.8114 113.326 79.7369C110.096 80.5032 108.119 83.6271 105.891 86.0884C102.93 89.3659 99.0317 91.7775 94.7787 92.9562C91.988 93.7321 88.7007 93.8816 86.4838 92.0119C83.4439 89.4449 83.9921 84.7013 84.8199 80.8093C86.3555 73.5626 87.8928 66.3071 89.4284 59.0604C90.2562 55.1684 91.0813 51.1933 90.6153 47.2494C90.1493 43.3055 88.1418 39.3088 84.5987 37.5096C81.0574 35.7016 75.9764 36.889 74.3959 40.5377C73.7414 42.0572 73.7293 43.7716 73.2896 45.3685C72.85 46.9653 71.7154 48.596 70.0661 48.7248C68.3974 48.8591 67.0431 47.4279 66.1016 46.0472C62.8352 41.28 61.1095 35.6475 59.5649 30.0767C58.0115 24.5042 56.5667 18.8421 53.7485 13.7925C50.9303 8.74279 46.5191 4.30074 40.9309 2.83087C35.337 1.34159 28.611 3.55821 26.0523 8.73864C23.4903 13.9368 25.5974 20.174 28.2187 25.3425C32.1029 33.0082 37.1118 40.1154 43.019 46.3551C44.0818 47.4833 45.2375 48.7025 45.4235 50.2432C45.7445 53.0121 42.7268 55.0854 39.949 55.4047C36.8055 55.765 33.68 54.816 30.528 54.5412C27.376 54.2665 23.7632 54.9236 22.0164 57.5586C19.5815 61.2109 22.1041 66.0762 24.8556 69.4883C30.3835 76.3264 37.0849 82.2022 44.5812 86.787C47.2717 88.4341 50.138 89.9768 52.0625 92.4706C53.987 94.9644 54.6849 98.7501 52.7062 101.204C50.7258 103.666 46.9182 103.799 43.9831 102.62C41.057 101.443 38.6704 99.2562 35.9938 97.5841C30.986 94.4522 23.8982 93.3873 19.4758 97.3064C16.566 99.8775 15.4972 104.073 15.9057 107.932C16.3142 111.792 18.0204 115.392 19.9136 118.779C26.5414 130.627 36.0075 141.01 47.7066 147.886C59.4235 154.765 70.8418 158.32 84.2757 156.362Z" fill="#FFF000"/>
<path d="M82.5675 156.517C81.4981 143.967 77.693 114.182 74.7643 99.9588C74.0211 96.4124 73.2818 92.8942 72.5502 89.4325C71.8169 85.9798 71.0963 82.5569 70.1699 79.2512C68.3649 72.6305 66.1092 66.402 63.7904 60.5563C61.4733 54.7017 59.0558 49.2321 56.7518 44.1328C54.4391 39.0318 52.1994 34.321 49.9739 30.1179C45.5456 21.6883 41.1707 15.3069 37.9839 11.0413C36.3957 8.9049 35.1138 7.28543 34.2266 6.19963C33.793 5.67697 33.4578 5.26474 33.2195 4.97179C32.9866 4.69825 32.856 4.56339 32.856 4.56339C32.856 4.56339 32.955 4.71981 33.1668 5.00773C33.4018 5.3184 33.7175 5.73615 34.1301 6.27318C34.9839 7.3894 36.2359 9.02157 37.7925 11.1795C40.9177 15.4794 45.2256 21.8757 49.5973 30.3129C51.7946 34.5199 54.0148 39.2362 56.2994 44.341C58.5822 49.4546 60.982 54.9209 63.2814 60.7722C65.5825 66.6145 67.8132 72.8292 69.6144 79.4216C70.5248 82.7151 71.2415 86.1096 71.9732 89.5713C72.6959 93.0312 73.4369 96.5406 74.18 100.087C77.1104 114.302 80.9222 144.051 82.0249 156.57" fill="#96800E"/>
<path d="M70.0382 79.1712C70.0808 79.1885 70.3261 78.6198 70.7433 77.5787C71.1605 76.5376 71.723 75.019 72.3915 73.1349C73.7372 69.3684 75.4121 64.1035 77.2547 58.2919C79.0973 52.4803 80.8647 47.2604 82.2869 43.5267C82.989 41.6582 83.5765 40.1535 84.0009 39.123C84.4165 38.0907 84.6279 37.5064 84.5941 37.4909C84.5604 37.4753 84.2725 38.0268 83.7877 39.0367C83.2941 40.045 82.6462 41.5291 81.8925 43.3787C80.3657 47.0834 78.5257 52.2988 76.6815 58.1192C74.8667 63.881 73.2195 69.0961 71.9849 73.003C71.3936 74.819 70.8965 76.3316 70.5107 77.498C70.1716 78.563 70.0044 79.1557 70.0382 79.1712Z" fill="#96800E"/>
<path d="M21.2054 59.4253C21.2021 59.4431 21.3727 59.5121 21.7116 59.6129C22.1198 59.736 22.6078 59.8741 23.1899 60.0485C24.4694 60.419 26.3237 60.9532 28.5995 61.6865C33.1489 63.116 39.3677 65.3294 46.1122 68.0645C52.8533 70.8173 58.8513 73.5672 63.1303 75.6984C65.2731 76.7462 66.9862 77.6394 68.1744 78.2496C68.7187 78.527 69.1705 78.7593 69.5476 78.9499C69.8676 79.1023 70.0365 79.1801 70.0504 79.1552C70.0626 79.1391 69.9093 79.0275 69.6137 78.8431C69.2505 78.6275 68.8143 78.3614 68.2961 78.0431C67.1479 77.367 65.4554 76.4135 63.3315 75.3141C59.0975 73.0905 53.1129 70.2696 46.3469 67.5029C39.5864 64.7557 33.3275 62.6082 28.7331 61.2712C26.4385 60.5894 24.5635 60.1154 23.2634 59.8053C22.6641 59.6736 22.1694 59.5709 21.7562 59.4744C21.3966 59.434 21.2177 59.4093 21.2054 59.4253Z" fill="#96800E"/>
<path d="M80.7278 139.35C80.7438 139.362 80.8993 139.172 81.1891 138.804C81.5084 138.378 81.9148 137.83 82.4174 137.164C83.4763 135.739 84.9668 133.634 86.7756 131.011C90.3933 125.764 95.1597 118.376 100.324 110.144C105.489 101.913 110.196 94.4951 113.714 89.1931C115.453 86.6025 116.874 84.4752 117.909 82.9358C118.37 82.2427 118.754 81.6726 119.048 81.2325C119.306 80.8406 119.429 80.6252 119.413 80.613C119.397 80.6008 119.241 80.7917 118.952 81.1592C118.632 81.5854 118.226 82.1328 117.723 82.7997C116.664 84.2244 115.174 86.3295 113.365 88.9527C109.747 94.1991 104.981 101.588 99.8165 109.819C94.6538 118.041 89.9444 125.468 86.428 130.761C84.6896 133.352 83.2683 135.479 82.2336 137.019C81.7704 137.721 81.3888 138.282 81.0945 138.722C80.8351 139.123 80.7117 139.338 80.7278 139.35Z" fill="#96800E"/>
<path d="M17.6869 104.102C17.6747 104.118 17.8867 104.259 18.3085 104.504C18.7819 104.768 19.387 105.112 20.1416 105.539C21.802 106.468 24.0941 107.746 26.9022 109.305C32.6059 112.495 40.4304 116.995 49.0615 121.988C57.6925 126.98 65.5537 131.432 71.3218 134.524C74.2058 136.07 76.5434 137.301 78.1779 138.124C78.9498 138.509 79.5793 138.821 80.0666 139.06C80.504 139.271 80.7333 139.37 80.7455 139.354C80.7577 139.338 80.5457 139.196 80.1238 138.951C79.6505 138.688 79.0453 138.344 78.2907 137.916C76.6303 136.987 74.3382 135.709 71.5301 134.15C65.8265 130.96 58.002 126.46 49.3709 121.468C40.7398 116.476 32.877 112.033 27.1195 108.933C24.2354 107.387 21.8978 106.156 20.2633 105.333C19.4915 104.948 18.8619 104.636 18.3746 104.397C17.9283 104.184 17.6991 104.086 17.6869 104.102Z" fill="#96800E"/>
</svg>
