<svg width="23" height="25" viewBox="0 0 23 25" fill="none" xmlns="http://www.w3.org/2000/svg">
<path d="M21.876 12.2307L12.0165 22.0902C10.8086 23.2981 9.17039 23.9767 7.46221 23.9767C5.75402 23.9767 4.1158 23.2981 2.90793 22.0902C1.70006 20.8824 1.02148 19.2441 1.02148 17.536C1.02148 15.8278 1.70006 14.1896 2.90793 12.9817L12.7675 3.12213C13.5727 2.31688 14.6649 1.8645 15.8037 1.8645C16.9425 1.8645 18.0346 2.31688 18.8399 3.12213C19.6451 3.92738 20.0975 5.01953 20.0975 6.15832C20.0975 7.29711 19.6451 8.38926 18.8399 9.1945L8.96957 19.0541C8.56695 19.4567 8.02087 19.6829 7.45148 19.6829C6.88208 19.6829 6.33601 19.4567 5.93338 19.0541C5.53076 18.6514 5.30457 18.1054 5.30457 17.536C5.30457 16.9666 5.53076 16.4205 5.93338 16.0179L15.0419 6.92004" stroke="#47556A" stroke-width="2" stroke-linecap="round" stroke-linejoin="round"/>
</svg>
