<svg width="188" height="186" viewBox="0 0 188 186" fill="none" xmlns="http://www.w3.org/2000/svg">
<path d="M95.9396 167.916C89.9008 167.097 84.1335 165.358 78.9846 162.341C72.6362 158.567 67.3978 153.579 63.8984 147.153C60.3267 140.517 58.2191 133.012 53.3243 127.313C48.5704 121.682 42.7552 122.199 36.1319 118.994C20.2899 114.048 8.94998 93.2205 26.3081 75.6789C29.0848 72.8159 34.0615 72.5949 36.9791 69.8001C42.3986 64.7104 42.3222 56.9612 44.2909 50.3769C46.531 42.8723 50.4586 35.8337 56.2974 30.5963C63.7342 23.8536 73.0377 21.5196 82.7953 22.5604C94.6597 23.9196 103.995 31.9426 115.719 33.2336C126.6 34.4676 137.602 33.6565 145.27 43.3268C149.815 49.0313 151.716 56.9625 150.174 64.1036C148.968 69.8301 144.456 74.4825 143.741 80.2715C142.952 85.4982 145.66 89.9639 147.809 94.5091C156.836 113.951 157.113 134.943 141.921 151.605C130.961 163.829 112.509 169.974 95.9396 167.916Z" fill="#FFF001"/>
<path d="M137.892 153.885C132.444 156.615 126.7 158.431 120.747 158.843C113.376 159.307 106.237 158.142 99.7232 154.808C93.0313 151.342 87.0584 146.333 79.8024 144.387C72.7013 142.418 68.1901 146.124 60.9131 147.213C45.0413 152.062 23.9313 141.258 28.3735 116.983C29.052 113.052 33.0372 110.063 33.8706 106.11C35.4758 98.8506 31.0426 92.4943 28.9552 85.9467C26.573 78.486 25.8472 70.4584 27.7154 62.8406C30.0543 53.0784 36.4211 45.9044 45.066 41.2612C55.6303 35.6929 67.8642 37.0537 78.2737 31.5085C87.9557 26.3911 96.5835 19.5171 108.37 23.1782C115.34 25.3264 121.383 30.8038 124.136 37.5709C126.37 42.9799 125.267 49.3665 127.942 54.55C130.237 59.3118 134.992 61.4721 139.33 64.0139C157.749 74.9787 169.816 92.158 166.666 114.485C164.509 130.761 152.737 146.241 137.892 153.885Z" fill="#00B4FF"/>
<path d="M102.761 100.134C108.29 97.8881 111.874 92.4777 111.786 86.5098C111.786 78.3075 104.699 71.6345 95.9889 71.6345C87.2785 71.6345 80.1921 78.3075 80.1921 86.5098C80.1033 92.4777 83.6871 97.8881 89.2172 100.134L89.3396 100.2L90.1759 101.573C88.6829 102.437 88.1732 104.348 89.0372 105.841C89.1508 106.037 89.2855 106.22 89.4389 106.387C88.2681 107.671 88.3593 109.66 89.6427 110.831C90.2257 111.363 90.9874 111.656 91.7764 111.653H100.201C101.939 111.661 103.353 110.258 103.361 108.521C103.364 107.732 103.071 106.97 102.539 106.387C103.705 105.116 103.62 103.14 102.349 101.974C102.181 101.821 101.998 101.686 101.802 101.573L102.638 100.2L102.761 100.134ZM100.201 109.547H91.7763C91.1947 109.547 90.7232 109.075 90.7232 108.494C90.7232 107.912 91.1947 107.44 91.7763 107.44H100.201C100.783 107.44 101.254 107.912 101.254 108.494C101.254 109.075 100.783 109.547 100.201 109.547ZM100.201 105.334H91.7763C91.1947 105.334 90.7232 104.863 90.7232 104.281C90.7232 103.7 91.1947 103.228 91.7763 103.228H100.201C100.783 103.228 101.254 103.7 101.254 104.281C101.254 104.863 100.783 105.334 100.201 105.334ZM101.805 98.2561L101.383 98.4849C101.22 98.5738 101.084 98.7039 100.987 98.8623L99.6099 101.122H99.1481V93.1328L104.105 88.1758L102.616 86.6866L97.3504 91.9522C97.153 92.1496 97.042 92.4174 97.0419 92.6967V101.122H94.9356V92.6967C94.9355 92.4174 94.8245 92.1496 94.6271 91.9522L89.3615 86.6866L87.8724 88.1757L92.8294 93.1327V101.122H92.3676L90.9905 98.8622C90.8938 98.7038 90.757 98.5736 90.594 98.4848L90.1729 98.256C90.1391 98.2379 90.1044 98.2216 90.069 98.2071C85.3078 96.2917 82.2184 91.6412 82.2982 86.5098C82.2982 79.4692 88.4395 73.7407 95.9887 73.7407C103.538 73.7407 109.679 79.4692 109.679 86.5098C109.759 91.6412 106.67 96.2917 101.908 98.2071C101.873 98.2218 101.838 98.2381 101.805 98.2561Z" fill="white"/>
<path d="M74.3439 71.746L73.402 73.6298L79.7203 76.789L80.6622 74.9051L74.3439 71.746Z" fill="white"/>
<path d="M117.765 72.1507L111.064 74.3858L111.731 76.3838L118.432 74.1487L117.765 72.1507Z" fill="white"/>
<path d="M75.9795 85.325H69.6608V87.4313H75.9795V85.325Z" fill="white"/>
<path d="M122.317 85.325H115.998V87.4313H122.317V85.325Z" fill="white"/>
<path d="M79.7204 98.0725L73.4021 101.232L74.344 103.115L80.6623 99.9563L79.7204 98.0725Z" fill="white"/>
<path d="M112.256 98.0763L111.314 99.9601L117.632 103.119L118.574 101.235L112.256 98.0763Z" fill="white"/>
<path d="M97.0418 64.2627H94.9356V69.5283H97.0418V64.2627Z" fill="white"/>
<path d="M126.529 113.759V111.653C112.79 111.653 98.1896 114.974 98.0955 121.131H93.882C93.7879 114.974 79.1877 111.653 65.4484 111.653V113.759C80.8764 113.759 91.6495 117.631 91.7706 121.131H65.4484V123.237H126.529V121.131H100.207C100.328 117.631 111.101 113.759 126.529 113.759Z" fill="white"/>
<path d="M65.5036 116.921L65.3928 119.025L85.4056 120.079L85.5164 117.975L65.5036 116.921Z" fill="white"/>
<path d="M126.475 116.919L106.462 117.976L106.573 120.079L126.586 119.023L126.475 116.919Z" fill="white"/>
</svg>
