<svg width="169" height="167" viewBox="0 0 169 167" fill="none" xmlns="http://www.w3.org/2000/svg">
<path d="M144.133 39.9827C147.011 45.003 149.04 50.3516 149.747 55.9742C150.58 62.9372 149.856 69.768 147.043 76.1213C144.114 82.6506 139.683 88.5804 138.225 95.5635C136.736 102.401 140.49 106.48 141.91 113.322C147.354 128.111 138.235 148.701 114.984 145.783C111.221 145.35 108.175 141.731 104.383 141.151C97.4143 140.016 91.6243 144.558 85.5278 146.886C78.5813 149.543 71.0092 150.659 63.6872 149.293C54.3071 147.596 47.1661 141.942 42.3032 133.994C36.4607 124.274 37.0988 112.603 31.2866 103.03C25.9188 94.1229 18.9417 86.3093 21.7846 74.9395C23.4497 68.2171 28.3207 62.1959 34.5898 59.2247C39.599 56.8187 45.7128 57.5236 50.4847 54.7114C54.8769 52.2815 56.6716 47.6579 58.8503 43.41C68.2641 25.3625 83.9085 13.006 105.244 14.803C120.79 15.9798 136.095 26.3163 144.133 39.9827Z" fill="#FFF001"/>
<path d="M72.6937 13.3927C78.4803 13.3433 84.1367 14.1957 89.385 16.3332C95.8633 19.0184 101.463 22.9967 105.624 28.5615C109.88 34.3141 112.879 41.082 118.252 45.7743C123.484 50.4215 128.879 49.1477 135.539 51.2616C151.099 53.7617 164.581 71.7984 150.646 90.6389C148.424 93.7063 143.777 94.5889 141.414 97.6113C137.011 103.13 138.133 110.403 137.176 116.858C136.088 124.215 133.351 131.363 128.574 137.077C122.499 144.423 114.071 147.878 104.76 148.223C93.4245 148.555 83.5624 142.28 72.3689 142.657C61.9746 142.973 51.7448 145.227 43.2258 137.178C38.1813 132.433 35.3186 125.237 35.7998 118.316C36.1565 112.77 39.7664 107.786 39.6526 102.248C39.6862 97.2287 36.5348 93.3989 33.8991 89.4184C22.778 72.3699 19.6707 52.6779 31.6903 34.9584C40.3324 21.9828 56.8415 13.705 72.6937 13.3927Z" fill="#00B4FF"/>
<path d="M109.206 109.486H107.446C105.265 106.898 105.265 103.014 107.446 100.426H109.206C109.831 100.426 110.339 99.9192 110.339 99.2937C110.339 98.6683 109.831 98.1613 109.206 98.1613H102.917C100.735 95.5735 100.735 91.6894 102.917 89.1017H104.676C105.302 89.1017 105.809 88.5947 105.809 87.9692C105.809 87.3438 105.302 86.8368 104.676 86.8368H95.1407C95.6433 86.4025 96.1177 85.9096 96.5575 85.3598C98.4286 83.0209 99.4591 79.9259 99.4591 76.6447C99.4591 73.3636 98.4286 70.2686 96.5575 67.9296C94.627 65.5166 92.038 64.1878 89.267 64.1878C88.0865 64.1878 86.9211 64.4364 85.8226 64.9158C85.7432 64.1809 85.562 63.4764 85.295 62.8151C85.4422 62.808 85.5939 62.798 85.7507 62.7834C87.46 62.6235 88.8613 62.0413 89.8029 61.0997C90.7444 60.1582 91.3266 58.7569 91.4865 57.0476C91.6011 55.8238 91.4621 54.8441 91.4561 54.8031C91.3839 54.307 90.9942 53.9174 90.4982 53.8452C90.4571 53.8392 89.4774 53.7002 88.2536 53.8147C86.5442 53.9746 85.143 54.5568 84.2014 55.4984C83.302 56.3979 82.7314 57.7174 82.5427 59.3236C81.2444 58.395 79.6568 57.8461 77.9424 57.8461C77.317 57.8461 76.81 58.3531 76.81 58.9785C76.81 59.604 77.317 60.111 77.9424 60.111C80.7555 60.111 83.0951 62.1733 83.531 64.8653C82.4679 64.4196 81.3448 64.1878 80.2073 64.1878C77.4364 64.1878 74.8473 65.5167 72.917 67.9296C71.0458 70.2686 70.0153 73.3636 70.0153 76.6447C70.0153 79.9259 71.0458 83.0209 72.917 85.3598C73.3568 85.9096 73.8312 86.4025 74.3338 86.8368H63.9081C63.6009 86.8368 63.3069 86.9616 63.0935 87.1825C59.6596 90.7384 59.6596 96.5244 63.0935 100.08C63.3069 100.301 63.6009 100.426 63.9081 100.426H66.2082C64.2845 103.909 64.7549 108.435 67.6233 111.405C67.8367 111.626 68.1307 111.751 68.4379 111.751H109.206C109.831 111.751 110.339 111.244 110.339 110.618C110.339 109.993 109.832 109.486 109.206 109.486ZM85.8032 57.0999C86.669 56.2341 88.1985 56.032 89.2675 56.032H89.2694C89.2696 57.1011 89.0678 58.632 88.2015 59.4982C87.3359 60.3638 85.8068 60.566 84.7389 60.5662C84.7354 59.5776 84.8911 58.012 85.8032 57.0999ZM72.2805 76.6447C72.2805 71.0248 75.8366 66.4527 80.2077 66.4527C81.5603 66.4527 82.8972 66.9024 84.074 67.7533C84.47 68.0396 85.0051 68.0396 85.4011 67.7533C86.5778 66.9024 87.9147 66.4527 89.2673 66.4527C93.6383 66.4527 97.1944 71.0248 97.1944 76.6447C97.1944 82.2646 93.6383 86.8368 89.2673 86.8368C87.9147 86.8368 86.5777 86.3871 85.4011 85.5362C85.203 85.393 84.9703 85.3215 84.7376 85.3215C84.5049 85.3215 84.272 85.393 84.0741 85.5362C82.8973 86.3871 81.5605 86.8368 80.2078 86.8368C75.8365 86.8368 72.2805 82.2646 72.2805 76.6447ZM64.4108 89.1017H100.182C98.6373 91.8979 98.6373 95.365 100.182 98.1613H79.7625V94.7639H93.3519C93.9772 94.7639 94.4843 94.2569 94.4843 93.6315C94.4843 93.006 93.9772 92.499 93.3519 92.499H68.438C67.8125 92.499 67.3055 93.006 67.3055 93.6315C67.3055 94.2569 67.8125 94.7639 68.438 94.7639H70.7029V98.1613H64.4108C62.2306 95.574 62.2306 91.6891 64.4108 89.1017ZM77.4975 94.7639V99.9571L76.0333 98.493C75.5911 98.0508 74.8741 98.0508 74.4317 98.493L72.9676 99.9571V94.7639H77.4975ZM68.9431 100.426H70.7029V102.691C70.7029 103.149 70.9789 103.562 71.402 103.737C71.8252 103.913 72.3122 103.816 72.6361 103.492L75.2327 100.895L77.8293 103.492C78.046 103.709 78.3356 103.824 78.6304 103.824C78.7762 103.824 78.9234 103.795 79.0634 103.737C79.4866 103.562 79.7625 103.149 79.7625 102.691V100.426H104.712C103.167 103.222 103.167 106.69 104.712 109.486H68.9406C66.7602 106.898 66.7621 103.014 68.9431 100.426Z" fill="white"/>
<path d="M97.8815 103.824H82.0273C81.4019 103.824 80.8949 104.331 80.8949 104.956C80.8949 105.581 81.4019 106.088 82.0273 106.088H97.8815C98.5068 106.088 99.014 105.581 99.014 104.956C99.014 104.331 98.507 103.824 97.8815 103.824Z" fill="white"/>
<path d="M88.9522 71.1519C90.7213 71.6641 92.09 73.2515 92.5241 75.2947C92.6371 75.8272 93.1072 76.1921 93.6306 76.1921C93.7085 76.1921 93.7878 76.184 93.867 76.1671C94.4788 76.0371 94.8695 75.4358 94.7394 74.8241C94.1315 71.9621 92.1552 69.7215 89.5821 68.9765C88.9815 68.8025 88.3534 69.1486 88.1793 69.7492C88.0054 70.3499 88.3515 70.9779 88.9522 71.1519Z" fill="white"/>
</svg>
