<svg width="174" height="173" viewBox="0 0 174 173" fill="none" xmlns="http://www.w3.org/2000/svg">
<path d="M77.3217 14.7163C83.2125 14.879 88.9376 15.9546 94.2001 18.3232C100.694 21.2944 106.247 25.5491 110.276 31.3655C114.396 37.3766 117.199 44.3746 122.495 49.3477C127.648 54.2698 133.186 53.1719 139.885 55.5684C155.629 58.6854 168.686 77.5375 153.811 96.1986C151.437 99.2386 146.675 99.9657 144.159 102.955C139.474 108.409 140.349 115.852 139.137 122.386C137.76 129.833 134.711 137.007 129.639 142.646C123.186 149.899 114.482 153.105 104.993 153.113C93.4449 153.033 83.6392 146.285 72.2338 146.256C61.6439 146.195 51.15 148.113 42.7765 139.608C37.8173 134.593 35.1688 127.164 35.9133 120.139C36.4803 114.508 40.3375 109.568 40.4256 103.928C40.6445 98.8214 37.5782 94.8078 35.0424 90.6599C24.3519 72.9003 21.9143 52.7454 34.7988 35.1547C44.0714 22.2674 61.1774 14.4508 77.3217 14.7163Z" fill="#FFF001"/>
<path d="M144.099 42.2737C146.923 47.446 148.875 52.9345 149.476 58.6741C150.177 65.7811 149.295 72.7206 146.297 79.1296C143.176 85.7154 138.54 91.6592 136.907 98.7382C135.248 105.668 138.983 109.901 140.284 116.897C145.514 132.069 135.795 152.84 112.183 149.378C108.362 148.857 105.336 145.108 101.487 144.438C94.4167 143.135 88.4256 147.637 82.1692 149.878C75.0406 152.436 67.3074 153.412 59.8814 151.867C50.367 149.941 43.216 144.033 38.4329 135.837C32.69 125.818 33.5864 113.949 27.8711 104.079C22.5943 94.8968 15.6558 86.794 18.7906 75.278C20.6281 68.4688 25.7148 62.4413 32.1604 59.5488C37.3114 57.205 43.5213 58.052 48.4392 55.2896C52.9625 52.9086 54.8875 48.2389 57.1956 43.9601C67.1618 25.7841 83.3513 13.5342 105.036 15.815C120.839 17.3418 136.203 28.1894 144.099 42.2737Z" fill="#00B4FF"/>
<path d="M115.767 71.3639C116.148 70.9832 116.316 70.4387 116.215 69.9097C116.115 69.3807 115.759 68.9355 115.265 68.7208L109.779 66.3347L107.854 60.7752C107.671 60.2455 107.227 59.8474 106.681 59.7217C106.135 59.5963 105.562 59.7606 105.166 60.157L102.062 63.2604C97.8865 60.9502 93.1007 59.6878 88.4473 59.6878C81.0326 59.6878 74.0619 62.5752 68.8189 67.8182C63.5759 73.0612 60.6886 80.0318 60.6886 87.4463C60.6886 94.8609 63.576 101.832 68.819 107.075C74.0619 112.318 81.0327 115.205 88.4474 115.205C95.862 115.205 102.833 112.318 108.076 107.075C113.319 101.832 116.206 94.861 116.206 87.4463C116.206 82.8274 115.057 78.2947 112.874 74.257L115.767 71.3639ZM104.368 78.16L101.005 77.2574L108.839 69.475L111.776 70.7524L104.368 78.16ZM103.755 87.4463C103.755 95.8872 96.8881 102.754 88.4473 102.754C80.0064 102.754 73.1392 95.8872 73.1392 87.4463C73.1392 79.0055 80.0064 72.1383 88.4473 72.1383C90.989 72.1383 93.1552 72.6398 95.229 73.7106L96.0682 77.5734L94.0046 79.6236C92.4352 78.5054 90.5167 77.8472 88.4471 77.8472C83.154 77.8472 78.8479 82.1533 78.8479 87.4464C78.8479 92.7396 83.154 97.0457 88.4471 97.0457C93.7403 97.0457 98.0464 92.7396 98.0464 87.4464C98.0464 85.3956 97.3996 83.493 96.2997 81.9316L98.3339 79.9106L102.336 80.9847C103.303 82.9635 103.755 85.027 103.755 87.4463ZM94.7917 87.4463C94.7917 90.9446 91.9456 93.7908 88.4473 93.7908C84.949 93.7908 82.1028 90.9446 82.1028 87.4463C82.1028 83.948 84.949 81.1019 88.4473 81.1019C89.6123 81.1019 90.7041 81.4189 91.6434 81.9692L87.2435 86.3401C86.6059 86.9735 86.6025 88.004 87.2359 88.6416C87.554 88.9618 87.9722 89.122 88.3905 89.122C88.8052 89.122 89.2201 88.9645 89.5374 88.6492L93.9394 84.2762C94.4803 85.2098 94.7917 86.2921 94.7917 87.4463ZM105.629 64.2964L106.603 67.1082L98.8078 74.8519L98.1414 71.7842L105.629 64.2964ZM112.951 87.4463C112.951 93.9916 110.402 100.145 105.774 104.773C101.146 109.401 94.9924 111.95 88.4473 111.95C81.9021 111.95 75.7486 109.401 71.1205 104.773C66.4923 100.145 63.9434 93.9916 63.9434 87.4463C63.9434 80.9011 66.4923 74.7477 71.1205 70.1196C75.7486 65.4915 81.9021 62.9426 88.4473 62.9426C92.2518 62.9426 96.1614 63.9012 99.6549 65.6676L95.2116 70.1109C95.2072 70.1152 95.2034 70.1198 95.1991 70.1241C93.1111 69.2918 90.8845 68.8835 88.4471 68.8835C78.2116 68.8835 69.8843 77.2107 69.8843 87.4463C69.8843 97.6819 78.2116 106.009 88.4471 106.009C98.6827 106.009 107.01 97.6819 107.01 87.4463C107.01 85.1545 106.67 83.116 105.954 81.1725C105.971 81.1569 105.988 81.1425 106.005 81.126L110.458 76.6725C112.094 80.0117 112.951 83.6967 112.951 87.4463Z" fill="white"/>
</svg>
