<svg width="41" height="41" viewBox="0 0 41 41" fill="none" xmlns="http://www.w3.org/2000/svg">
<circle cx="20.1211" cy="20.3672" r="19.5" stroke="white"/>
<path d="M24.2878 12.0337H15.9545C13.6533 12.0337 11.7878 13.8992 11.7878 16.2004V24.5337C11.7878 26.8349 13.6533 28.7004 15.9545 28.7004H24.2878C26.589 28.7004 28.4545 26.8349 28.4545 24.5337V16.2004C28.4545 13.8992 26.589 12.0337 24.2878 12.0337Z" stroke="white" stroke-linecap="round" stroke-linejoin="round"/>
<path d="M23.4543 19.842C23.5572 20.5355 23.4387 21.2438 23.1158 21.8661C22.7929 22.4885 22.282 22.9931 21.6557 23.3083C21.0294 23.6236 20.3197 23.7333 19.6275 23.6219C18.9353 23.5105 18.2958 23.1837 17.8 22.6879C17.3043 22.1921 16.9775 21.5527 16.8661 20.8605C16.7547 20.1682 16.8644 19.4585 17.1796 18.8323C17.4948 18.206 17.9995 17.6951 18.6218 17.3722C19.2442 17.0492 19.9525 16.9308 20.646 17.0336C21.3534 17.1385 22.0084 17.4682 22.5141 17.9739C23.0198 18.4796 23.3494 19.1345 23.4543 19.842Z" stroke="white" stroke-linecap="round" stroke-linejoin="round"/>
<path d="M24.7043 15.7837H24.7127" stroke="white" stroke-linecap="round" stroke-linejoin="round"/>
</svg>
