<svg width="41" height="41" viewBox="0 0 41 41" fill="none" xmlns="http://www.w3.org/2000/svg">
<circle cx="20.7695" cy="20.7865" r="19.5" stroke="#092640"/>
<path d="M24.9362 12.4532H16.6029C14.3017 12.4532 12.4362 14.3186 12.4362 16.6198V24.9532C12.4362 27.2543 14.3017 29.1198 16.6029 29.1198H24.9362C27.2374 29.1198 29.1029 27.2543 29.1029 24.9532V16.6198C29.1029 14.3186 27.2374 12.4532 24.9362 12.4532Z" stroke="#092640" stroke-linecap="round" stroke-linejoin="round"/>
<path d="M24.1029 20.2614C24.2057 20.9549 24.0873 21.6632 23.7644 22.2855C23.4415 22.9079 22.9305 23.4125 22.3043 23.7277C21.678 24.043 20.9683 24.1527 20.2761 24.0413C19.5838 23.9299 18.9444 23.6031 18.4486 23.1073C17.9528 22.6116 17.626 21.9721 17.5146 21.2799C17.4032 20.5876 17.513 19.8779 17.8282 19.2517C18.1434 18.6254 18.6481 18.1145 19.2704 17.7916C19.8927 17.4686 20.601 17.3502 21.2946 17.453C22.002 17.5579 22.6569 17.8876 23.1626 18.3933C23.6684 18.899 23.998 19.5539 24.1029 20.2614Z" stroke="#092640" stroke-linecap="round" stroke-linejoin="round"/>
<path d="M25.3528 16.2032H25.3612" stroke="#092640" stroke-linecap="round" stroke-linejoin="round"/>
</svg>
