<svg width="332" height="335" viewBox="0 0 332 335" fill="none" xmlns="http://www.w3.org/2000/svg">
<path d="M106.484 347.202C56.1921 319.345 39.206 259.655 35.3249 204.822C34.6794 195.671 32.68 186.151 36.1686 177.707C39.679 169.257 49.2217 162.722 57.783 165.71C64.8926 168.19 68.6578 175.76 73.1354 181.879C79.0735 190.029 87.3384 196.404 96.6601 200.071C102.774 202.469 110.156 203.57 115.562 199.813C122.964 194.649 122.768 183.671 121.757 174.622C119.879 157.722 118.002 140.822 116.124 123.922C115.109 114.851 114.121 105.592 116.032 96.6894C117.943 87.7866 123.344 79.1359 131.711 75.8134C140.078 72.4908 151.283 76.345 154.017 85.0469C155.16 88.6719 154.814 92.5711 155.461 96.3254C156.103 100.058 158.303 104.048 161.974 104.716C165.693 105.397 169.064 102.442 171.505 99.5045C179.91 89.3663 185.017 76.9083 189.732 64.5345C194.453 52.1824 198.955 39.5582 206.402 28.6695C213.849 17.7808 224.768 8.65064 237.678 6.56069C250.588 4.47073 265.266 11.0395 269.891 23.4563C274.52 35.8948 268.419 49.6591 261.382 60.8695C250.958 77.4976 238.129 92.5705 223.444 105.469C220.802 107.79 217.932 110.319 217.196 113.778C215.854 120.032 222.228 125.447 228.392 126.81C235.393 128.357 242.655 126.888 249.801 126.992C256.968 127.092 264.953 129.407 268.33 135.808C273.013 144.683 266.285 155.212 259.314 162.379C245.374 176.734 228.991 188.609 211.101 197.392C204.674 200.525 197.898 203.415 192.994 208.658C188.116 213.918 185.705 222.404 189.624 228.461C193.542 234.518 202.099 235.685 208.948 233.668C215.797 231.65 221.664 227.18 228.056 223.985C240.032 217.975 256.22 217.162 265.317 227.092C271.298 233.64 272.79 243.45 271.021 252.163C269.251 260.876 264.632 268.722 259.622 276.013C242.098 301.543 218.507 323.094 190.632 336.139C162.827 349.193 136.316 354.705 106.484 347.202Z" fill="#ECF1FE"/>
<path d="M117.017 311.472C122.176 283.043 130.4 252.361 140.115 220.563C142.572 212.613 145.009 204.781 147.399 197.051C149.816 189.337 152.198 181.676 154.996 174.359C160.529 159.646 166.963 145.947 173.47 133.12C179.977 120.293 186.628 108.346 192.932 97.2248C199.263 86.1205 205.344 75.8666 211.289 66.7804C223.139 48.5255 234.406 34.9721 242.53 25.9643C246.59 21.4495 249.845 18.0637 252.086 15.7837C253.175 14.7074 254.014 13.8442 254.65 13.2066C255.231 12.6264 255.537 12.3558 255.564 12.3729C255.59 12.39 255.32 12.7213 254.765 13.3185C254.16 13.995 253.347 14.8752 252.316 16.0075C250.159 18.3605 246.988 21.8193 243.007 26.3854C235.042 35.4958 223.951 49.1253 212.289 67.4081C206.419 76.5238 200.407 86.7854 194.146 97.8975C187.916 109.048 181.309 120.986 174.846 133.804C168.382 146.622 162.009 160.285 156.527 174.918C153.751 182.231 151.393 189.795 148.981 197.53C146.591 205.261 144.176 213.088 141.719 221.038C132.022 252.81 123.756 283.409 118.531 311.739" fill="white"/>
<path d="M155.448 174.239C155.339 174.262 154.893 172.924 154.159 170.463C153.426 168.002 152.471 164.405 151.356 159.955C149.125 151.054 146.465 138.67 143.595 124.989C140.725 111.307 137.895 98.983 135.539 90.1317C134.363 85.717 133.391 82.1463 132.68 79.6809C131.99 77.2108 131.647 75.8273 131.756 75.804C131.86 75.7588 132.415 77.0738 133.296 79.4801C134.199 81.8817 135.345 85.415 136.678 89.8188C139.339 98.6047 142.351 110.935 145.248 124.634C148.06 138.146 150.59 150.352 152.526 159.68C153.428 163.881 154.195 167.45 154.803 170.279C155.318 172.787 155.552 174.194 155.448 174.239Z" fill="white"/>
<path d="M269.76 140.236C269.783 140.345 268.134 140.722 265.162 141.292C262.189 141.862 257.907 142.691 252.63 143.87C242.079 146.136 227.595 149.794 211.79 154.509C195.994 159.268 181.89 164.165 171.794 168.018C166.736 169.901 162.675 171.548 159.863 172.653C157.055 173.78 155.471 174.348 155.425 174.243C155.38 174.139 156.875 173.363 159.597 172.05C162.345 170.754 166.326 168.942 171.372 166.902C181.385 162.771 195.487 157.647 211.326 152.879C227.174 148.154 241.74 144.661 252.399 142.69C257.709 141.664 262.055 141.026 265.07 140.652C268.084 140.277 269.736 140.127 269.76 140.236Z" fill="white"/>
<path d="M118.204 309.167C118.165 309.198 117.84 308.744 117.255 307.822C116.59 306.736 115.781 305.407 114.824 303.814C112.732 300.324 109.809 295.192 106.318 288.793C99.2972 276.026 90.1382 258.072 80.3222 238.118C70.4845 218.17 61.5165 200.152 54.7863 187.254C51.4803 180.974 48.7578 175.822 46.7524 171.995C45.8952 170.335 45.1686 168.966 44.5852 167.839C44.1045 166.872 43.8788 166.351 43.9177 166.32C43.9565 166.289 44.2863 166.765 44.8664 167.664C45.5322 168.751 46.3364 170.058 47.2977 171.673C49.3899 175.162 52.3129 180.295 55.8039 186.694C62.8246 199.461 71.9837 217.415 81.7997 237.368C91.6374 257.317 100.605 275.335 107.336 288.233C110.637 294.491 113.364 299.665 115.37 303.492C116.227 305.152 116.953 306.521 117.537 307.648C118.039 308.61 118.265 309.131 118.204 309.167Z" fill="white"/>
<path d="M267.942 243.012C267.956 243.077 267.467 243.342 266.474 243.805C265.312 244.328 263.864 245.004 262.142 245.783C258.131 247.556 252.71 249.972 246.123 252.89C232.597 258.891 213.992 267.418 193.467 276.859C172.92 286.304 154.23 294.644 140.578 300.377C133.754 303.254 128.209 305.516 124.338 306.985C122.549 307.665 121.073 308.209 119.875 308.672C118.837 309.031 118.308 309.213 118.272 309.153C118.258 309.087 118.747 308.823 119.74 308.359C120.902 307.836 122.333 307.188 124.071 306.382C128.083 304.609 133.504 302.193 140.091 299.275C153.617 293.273 172.222 284.746 192.768 275.301C213.293 265.861 232.005 257.516 245.657 251.783C252.481 248.906 258.026 246.645 261.898 245.175C263.686 244.495 265.162 243.951 266.36 243.488C267.35 243.116 267.906 242.951 267.942 243.012Z" fill="white"/>
</svg>
