<svg width="386" height="318" viewBox="0 0 386 318" fill="none" xmlns="http://www.w3.org/2000/svg">
<path d="M250.549 71.2056C250.549 71.2056 236.795 66.6171 230.04 98.3738C223.285 130.131 222.196 147.689 222.196 147.689C222.196 147.689 220.001 154.559 214.952 151.807C209.903 149.054 201.495 139.688 195.186 143.469C188.642 147.395 188.424 155.94 192.885 167.191C197.347 178.458 206.221 203.489 207.018 205.75C207.797 207.978 207.387 211.67 203.658 210.346C199.921 209.031 176.347 193.664 169.723 205.291C163.099 216.917 180.69 246.244 182.552 249.493C184.415 252.743 184.128 254.408 182.707 255.72C181.276 257.024 173.837 251.122 166.956 247.024C160.074 242.926 151.372 239.388 148.108 246.419C144.852 253.44 149.69 277.691 182.748 310.322L199.051 324.447L219.637 317.682C262.808 300.522 276.745 280.1 276.489 272.349C276.242 264.607 266.844 264.468 258.904 265.559C250.972 266.642 241.808 269.182 241.007 267.424C240.206 265.666 240.596 264.009 243.585 261.749C246.566 259.481 274.22 239.352 272.672 226.06C271.116 212.778 243.408 217.719 239.465 217.476C235.506 217.233 236.573 213.677 238.164 211.927C239.778 210.149 257.731 190.569 266.248 181.934C274.758 173.308 277.89 165.36 273.401 159.201C269.064 153.252 257.66 158.599 251.944 159.175C246.226 159.735 246.883 152.56 246.883 152.56C246.883 152.56 252.745 135.971 258.93 104.106C265.105 72.2331 250.288 71.1409 250.288 71.1409" fill="#E3707F"/>
<path d="M139.005 98.6776C139.017 98.6294 138.471 98.5104 137.486 98.3274C136.506 98.1337 135.071 97.9079 133.298 97.63C129.752 97.1009 124.833 96.4864 119.41 95.909C114.05 95.3645 109.195 94.8634 105.491 94.4828C103.819 94.2973 102.41 94.1523 101.274 94.0266C100.277 93.9186 99.7193 93.8746 99.7241 93.9176C99.7128 93.9657 100.253 94.0954 101.238 94.2784C102.224 94.4615 103.653 94.6979 105.427 94.949C108.973 95.4513 113.898 96.0015 119.327 96.5682C124.68 97.1502 129.519 97.6833 133.233 98.0962C134.905 98.2817 136.314 98.4535 137.45 98.5793C138.447 98.6873 138.994 98.7258 139.005 98.6776Z" fill="#D6DFF5"/>
<path d="M89.008 139.412C89.0299 139.369 88.5606 139.128 87.7014 138.726C86.7033 138.28 85.4863 137.735 84.0505 137.09C80.9597 135.729 76.6671 133.898 71.9094 131.922C67.1572 129.935 62.8317 128.168 59.6912 126.93C58.2169 126.36 56.9776 125.884 55.9575 125.481C55.0706 125.159 54.5734 124.998 54.5514 125.041C54.5295 125.083 54.9988 125.325 55.858 125.727C56.8562 126.173 58.0732 126.718 59.509 127.363C62.5998 128.724 66.8923 130.555 71.65 132.531C76.4022 134.518 80.7277 136.285 83.8683 137.523C85.3425 138.093 86.5818 138.568 87.6019 138.972C88.4996 139.299 89.0022 139.45 89.008 139.412Z" fill="#D6DFF5"/>
</svg>
