<svg width="269" height="176" viewBox="0 0 269 176" fill="none" xmlns="http://www.w3.org/2000/svg">
<path d="M108.406 33.1779C108.406 33.1779 98.5579 37.6824 111.055 58.464C123.552 79.2456 131.906 89.3873 131.906 89.3873C131.906 89.3873 134.209 94.2574 130.05 95.3277C125.89 96.3981 116.526 95.5695 115.008 100.849C113.436 106.329 117.672 111.105 125.842 114.974C134.021 118.851 151.623 127.996 153.211 128.824C154.772 129.644 156.429 131.868 153.719 133.046C151.008 134.232 130.305 137.857 132.614 147.581C134.923 157.305 159.474 164.351 162.147 165.177C164.82 166.002 165.512 167.057 165.405 168.498C165.288 169.938 158.219 170.508 152.373 171.778C146.527 173.047 139.972 175.55 141.774 181.053C143.575 186.546 158.576 197.321 193.256 198.289L209.356 197.692L217.148 183.506C231.973 152.135 229.174 133.881 225.085 129.78C221.004 125.678 215.802 130.392 212.023 135.035C208.243 139.669 204.535 145.726 203.201 145.174C201.868 144.623 201.237 143.52 201.717 140.762C202.188 138.005 207.028 112.92 199.408 106.452C191.789 99.9931 179.179 116.813 176.903 118.689C174.617 120.574 173.388 118.089 173.364 116.322C173.339 114.529 173.162 94.6886 173.412 85.6331C173.661 76.5865 171.321 70.6502 165.731 69.5758C160.331 68.5379 156.83 77.2692 154.002 80.4975C151.166 83.7172 147.867 79.4648 147.867 79.4648C147.867 79.4648 142.614 67.4199 129.75 46.8697C116.877 26.3198 108.231 33.2752 108.231 33.2752" fill="#E3707F"/>
<path d="M61.5056 105.027C61.4872 104.995 61.1285 105.208 60.4973 105.61C59.8637 106.004 58.9649 106.612 57.8553 107.364C55.6496 108.882 52.6509 111.053 49.3954 113.502C46.1917 115.937 43.2852 118.138 41.0692 119.817C40.0617 120.568 39.2183 121.207 38.5339 121.718C37.9346 122.167 37.6078 122.427 37.6324 122.448C37.6507 122.48 38.0119 122.275 38.6431 121.873C39.2742 121.471 40.1755 120.871 41.2716 120.105C43.4638 118.572 46.4331 116.362 49.6861 113.905C52.9058 111.494 55.8196 109.318 58.0577 107.651C59.0652 106.9 59.9221 106.276 60.6065 105.766C61.2058 105.316 61.524 105.059 61.5056 105.027Z" fill="#D6DFF5"/>
<path d="M54.9684 152.749C54.9587 152.714 54.5793 152.822 53.9055 153.04C53.1331 153.305 52.1907 153.628 51.0783 154.008C48.6971 154.84 45.4201 156.028 41.8154 157.374C38.2082 158.711 34.9458 159.951 32.6 160.875C31.5047 161.316 30.5856 161.688 29.823 161.987C29.1749 162.264 28.8212 162.429 28.831 162.464C28.8408 162.498 29.2201 162.391 29.8939 162.172C30.6663 161.907 31.6087 161.584 32.7211 161.205C35.1024 160.372 38.3793 159.184 41.9841 157.839C45.5913 156.501 48.8536 155.262 51.1994 154.337C52.2947 153.897 53.2138 153.525 53.9764 153.225C54.6332 152.946 54.9844 152.772 54.9684 152.749Z" fill="#D6DFF5"/>
</svg>
