<svg width="343" height="344" viewBox="0 0 343 344" fill="none" xmlns="http://www.w3.org/2000/svg">
<path d="M181.025 27.6928C182.628 31.92 179.859 36.5845 176.652 39.9372C173.445 43.2898 169.655 46.3509 168.635 50.8697C167.76 54.6596 169.218 58.4495 168.78 62.3852C168.489 66.3209 166.302 69.8193 165.136 73.6092C162.95 80.3145 163.824 87.7486 165.719 94.5996C167.323 100.139 169.655 105.678 173.591 110.051C177.526 114.424 183.065 117.485 188.896 117.339C190.5 117.339 192.394 116.902 193.415 115.736C194.289 114.715 194.581 113.112 194.727 111.8C198.079 82.501 198.079 52.7646 194.727 23.4656" fill="#251A51"/>
<path d="M184.086 122.295C171.405 121.712 159.743 133.811 160.764 146.492C147.936 149.554 138.899 163.693 141.377 176.666C142.251 180.893 144.146 184.975 144.438 189.348C144.729 194.158 142.98 198.677 142.105 203.341C140.502 211.796 141.377 220.688 144.583 228.705C146.624 233.515 150.268 238.471 155.516 238.617C159.014 238.763 162.367 236.43 164.262 233.515C166.303 230.6 167.177 227.101 167.76 223.603C170.093 212.233 170.676 200.572 173.883 189.348C176.944 178.124 183.066 167.191 193.124 161.506C198.663 158.3 205.368 156.842 209.887 152.177C214.551 147.367 215.572 139.641 213.24 133.373C210.761 127.106 205.222 122.295 198.954 119.963" fill="#251A51"/>
<path d="M271.837 38.0422C271.982 32.6488 267.026 28.4216 261.925 26.3809C256.823 24.3401 251.284 23.6113 246.765 20.5502C242.829 17.9264 240.06 13.6992 236.707 10.3466C228.398 2.03787 215.571 -1.46053 204.201 1.60057C192.831 4.66167 183.502 14.2823 180.587 25.652C178.692 33.3777 180.004 42.561 186.126 47.6628C193.123 53.6392 203.618 52.3273 212.656 50.4323C221.693 48.5374 231.897 46.7882 239.477 52.0358C243.995 55.2426 246.619 60.4902 249.389 65.3005C252.158 70.1108 255.657 75.0669 260.904 76.8161C266.152 78.5653 273.294 75.5042 273.586 69.9651" fill="#251A51"/>
<path d="M250.409 39.2083C255.074 39.6456 258.572 43.7271 258.572 48.3916L253.179 170.835C252.887 185.266 231.751 193.429 216.3 192.992C200.703 192.7 200.12 184.975 199.974 171.273C199.683 148.242 199.683 139.641 199.683 139.787C199.683 139.787 180.004 136.435 175.923 110.634C173.882 97.8064 174.611 76.8161 175.777 59.6156C176.797 44.1644 187.147 25.2147 202.452 26.8182L250.409 39.2083Z" fill="#FFBE9D"/>
<path d="M180.15 75.7957C180.15 77.5449 181.462 79.0026 183.357 79.1483C185.107 79.2941 186.71 77.9822 186.71 76.233C186.71 74.4838 185.398 73.0261 183.503 72.8804C181.754 72.7346 180.15 74.0465 180.15 75.7957Z" fill="#251A51"/>
<path d="M180.15 70.5481C180.587 70.9854 183.065 69.0904 186.564 69.0904C190.062 69.0904 192.686 70.8396 193.123 70.4023C193.269 70.2566 192.832 69.382 191.811 68.6531C190.645 67.7785 188.75 67.0497 186.564 67.0497C184.377 67.0497 182.482 67.9243 181.462 68.6531C180.441 69.6735 180.004 70.4023 180.15 70.5481Z" fill="#251A51"/>
<path d="M214.26 75.7957C214.26 77.5449 215.572 79.0026 217.467 79.1484C219.216 79.2941 220.819 77.9822 220.819 76.233C220.819 74.4838 219.507 73.0262 217.612 72.8804C215.863 72.7346 214.406 74.0465 214.26 75.7957Z" fill="#251A51"/>
<path d="M215.134 71.4227C215.572 71.86 218.05 69.965 221.548 69.965C225.046 69.965 227.67 71.7142 228.107 71.2769C228.253 71.1312 227.816 70.2566 226.796 69.5277C225.629 68.6531 223.734 67.9243 221.548 67.9243C219.361 67.9243 217.466 68.7989 216.446 69.5277C215.426 70.4023 214.988 71.1312 215.134 71.4227Z" fill="#251A51"/>
<path d="M202.162 97.6607C202.162 97.5149 199.976 97.0776 196.332 96.6403C195.457 96.4946 194.582 96.3488 194.437 95.7657C194.291 95.0369 194.582 94.1623 195.02 93.1419C195.894 90.9554 196.769 88.6232 197.789 86.2909C201.579 76.3788 204.203 68.3616 203.912 68.2159C203.474 68.0701 200.122 75.9415 196.332 85.7079C195.457 88.1859 194.582 90.5181 193.708 92.7046C193.416 93.725 192.833 94.8911 193.271 96.203C193.562 96.9319 194.145 97.3692 194.728 97.5149C195.311 97.6607 195.749 97.6607 196.332 97.6607C199.976 97.9522 202.162 97.9522 202.162 97.6607Z" fill="#251A51"/>
<path d="M199.681 139.787C199.681 139.787 217.027 140.953 234.228 130.604C234.228 130.604 225.773 148.242 199.972 145.764L199.681 139.787Z" fill="#EB996E"/>
<path d="M203.764 106.261C205.076 104.512 207.262 103.637 209.449 103.929C211.052 104.074 212.51 104.803 213.53 106.115C214.405 107.427 214.696 109.176 213.822 110.342C212.801 111.654 210.906 111.946 209.157 111.508C207.408 111.071 205.95 109.905 204.638 108.739C204.201 108.447 203.909 108.156 203.618 107.719C203.326 107.281 203.326 106.698 203.618 106.407" fill="#EB996E"/>
<path d="M212.657 100.139C212.073 100.139 212.073 103.929 208.721 106.698C205.368 109.468 201.287 109.03 201.287 109.468C201.287 109.759 202.161 110.197 203.911 110.342C205.66 110.342 208.138 109.905 210.178 108.156C212.219 106.552 213.094 104.22 213.24 102.617C213.385 101.159 212.948 100.139 212.657 100.139Z" fill="#251A51"/>
<path d="M213.529 65.1548C213.821 66.1751 217.465 65.7378 221.546 66.1751C225.774 66.6124 229.126 67.7786 229.709 66.904C230.001 66.4667 229.418 65.5921 227.96 64.5717C226.648 63.6971 224.462 62.6767 221.984 62.3852C219.506 62.0937 217.173 62.531 215.716 63.114C214.258 63.8429 213.383 64.7175 213.529 65.1548Z" fill="#251A51"/>
<path d="M181.607 60.3445C182.19 61.2191 184.668 60.3445 187.583 60.3445C190.499 60.1987 192.977 60.9275 193.56 60.0529C193.851 59.6156 193.414 58.8868 192.394 58.0122C191.373 57.2834 189.478 56.5545 187.438 56.7003C185.397 56.7003 183.648 57.4291 182.627 58.3037C181.607 59.0326 181.315 59.9072 181.607 60.3445Z" fill="#251A51"/>
<path d="M268.485 124.044C261.343 125.502 253.617 123.316 248.369 118.36C243.122 113.403 240.352 105.824 241.227 98.6811C241.956 92.4131 245.454 85.8536 243.268 79.8772C240.352 72.0058 229.274 69.5278 226.359 61.6564C224.609 56.9918 226.213 51.7442 224.172 47.2255C222.277 42.9983 217.904 40.5202 213.531 38.9168C209.158 37.3134 204.494 36.293 200.849 33.3777C197.205 30.4623 194.873 25.2147 197.351 21.2791C216.592 23.6113 235.542 28.1301 253.617 34.9811C257.844 36.5845 262.217 38.4795 264.695 42.1237C267.319 46.0594 267.173 51.1612 267.027 55.9715C266.007 79.1483 269.505 100.868 268.485 124.044Z" fill="#251A51"/>
<path d="M274.606 116.756C274.606 116.756 274.752 116.756 275.043 116.61C275.335 116.465 275.772 116.319 276.209 116.027C277.23 115.444 278.541 114.278 279.416 112.237C280.291 110.197 280.874 107.427 280.291 104.366C279.708 101.305 277.958 98.098 275.626 95.0369C273.294 91.8301 270.524 88.769 268.484 84.6875C267.463 82.6468 266.734 80.4603 266.734 77.9822C266.734 75.65 267.463 73.1719 268.192 70.8397C269.067 68.3616 269.795 65.8836 269.65 63.1141C269.504 60.3445 268.775 57.5749 267.317 55.0969C265.86 52.6189 263.819 50.4324 261.341 48.9747C258.863 47.3713 255.802 46.7882 252.887 46.4967C249.971 46.2051 247.056 46.0594 244.432 45.039C241.808 44.1644 239.768 42.1237 238.456 39.6456C237.144 37.3134 236.415 34.5438 235.686 32.0658C234.957 29.442 233.937 26.964 232.771 24.6317C230.439 20.1129 227.086 16.1772 223.15 13.6992C219.215 11.2212 214.842 10.2008 210.906 10.4923C206.97 10.7839 203.618 12.2415 201.285 14.428C198.953 16.6145 197.641 18.9468 196.912 20.9875C196.183 23.0283 196.183 24.7775 196.329 25.9436C196.475 27.1097 196.621 27.6928 196.621 27.6928C196.621 27.6928 196.475 27.1097 196.475 25.9436C196.475 24.7775 196.475 23.174 197.204 21.1333C197.933 19.0926 199.245 16.7603 201.577 14.7196C203.763 12.6788 207.116 11.2212 210.906 10.9296C214.696 10.6381 218.923 11.6585 222.713 14.1365C226.503 16.4688 229.71 20.2587 232.042 24.7775C233.208 26.964 234.083 29.442 234.812 32.0658C235.54 34.6896 236.269 37.3134 237.727 39.7914C238.456 41.1033 239.185 42.2694 240.351 43.2898C241.371 44.3102 242.683 45.039 244.141 45.6221C246.91 46.6424 249.971 46.7882 252.887 47.2255C255.802 47.517 258.717 48.1001 261.05 49.5578C263.528 51.0154 265.423 53.0562 266.88 55.3884C268.338 57.7207 269.067 60.3445 269.212 62.9683C269.358 65.5921 268.629 68.0701 267.755 70.5481C267.026 73.0262 266.151 75.5042 266.297 77.9822C266.297 80.4603 267.172 82.7925 268.046 84.8333C270.087 89.0605 273.002 92.1216 275.189 95.3285C277.521 98.3895 279.27 101.451 279.853 104.512C280.436 107.427 279.999 110.197 279.125 112.092C278.25 113.987 277.084 115.298 276.063 115.882C275.189 116.465 274.606 116.61 274.606 116.756Z" fill="#455A64"/>
<path d="M199.682 4.37012C199.682 4.37012 199.245 4.37012 198.662 4.66166C198.079 4.95319 197.204 5.39049 196.184 6.11932C194.289 7.57699 192.102 10.3466 191.519 14.1365C190.936 17.9264 192.248 21.279 193.706 23.174C194.435 24.1944 195.018 24.9232 195.601 25.3605C196.184 25.7978 196.475 25.9436 196.475 25.9436C196.621 25.7978 195.309 24.9232 194.143 22.8825C192.977 20.9875 191.811 17.7806 192.248 14.2822C192.831 10.7839 194.726 8.01429 196.475 6.55662C198.37 4.95319 199.828 4.51589 199.682 4.37012Z" fill="#455A64"/>
<path d="M142.541 181.185C142.687 181.185 142.103 180.31 141.812 178.415C141.52 176.666 141.666 173.897 143.124 170.981C144.436 168.066 147.351 165.296 151.287 163.401C153.182 162.527 155.368 161.652 157.555 161.215C159.887 160.632 162.219 160.195 164.697 159.32C167.03 158.591 169.508 157.425 171.257 155.822C173.152 154.072 173.881 151.74 174.318 149.699C174.755 147.513 174.901 145.472 175.338 143.577C175.776 141.682 176.65 140.225 177.67 138.913C179.711 136.435 182.189 135.268 183.938 134.685C185.688 134.102 186.708 134.102 186.708 134.102C186.708 134.102 186.416 134.102 185.979 134.102C185.542 134.102 184.813 134.248 183.938 134.394C182.189 134.831 179.565 135.997 177.379 138.621C176.359 139.933 175.338 141.536 174.901 143.431C174.318 145.326 174.172 147.367 173.881 149.554C173.443 151.594 172.714 153.781 170.965 155.384C169.362 156.988 167.03 158.008 164.697 158.737C162.365 159.466 159.887 160.049 157.7 160.632C155.368 161.215 153.182 161.944 151.287 162.964C147.351 164.859 144.29 167.92 142.978 170.981C141.52 174.042 141.52 176.812 141.958 178.707C142.103 179.581 142.395 180.31 142.687 180.748C142.395 181.039 142.541 181.331 142.541 181.185Z" fill="#455A64"/>
<path d="M254.782 135.56C267.901 132.062 279.125 119.234 283.643 106.552C288.162 93.8708 288.162 79.8772 286.996 66.4667C286.121 56.7003 284.372 46.3509 277.959 39.0626C268.192 27.9843 257.551 22.2994 242.829 22.7367" fill="#251A51"/>
<path d="M178.546 163.984L190.644 160.923C187.729 158.591 187 155.676 188.166 152.469C189.624 148.533 193.414 146.055 197.495 145.618L253.033 139.35C255.073 139.058 256.968 140.225 257.697 142.12C260.175 148.387 260.175 153.489 257.989 157.571H258.28L268.921 159.757L286.996 319.663L168.196 314.124L178.546 163.984Z" fill="#F5F5F5"/>
<path d="M195.892 161.652C195.892 161.652 196.621 161.798 198.078 162.089C199.536 162.381 201.577 162.527 204.2 162.818C209.448 163.256 216.591 163.693 224.608 163.256C232.625 162.818 239.767 161.798 244.869 160.778C247.493 160.34 249.534 159.757 250.846 159.466C252.303 159.028 253.032 158.883 253.032 158.883C253.032 158.883 252.158 159.028 250.846 159.174C249.388 159.466 247.347 159.903 244.724 160.34C239.622 161.215 232.479 162.235 224.462 162.527C216.591 162.964 209.302 162.673 204.2 162.381C201.577 162.235 199.536 162.089 198.078 161.944C196.766 161.506 195.892 161.506 195.892 161.652Z" fill="#251A51"/>
<path d="M244.795 180.558C242.337 176.876 240.506 173.782 240.707 173.648C240.908 173.514 243.064 176.39 245.523 180.073C247.981 183.755 249.812 186.848 249.611 186.982C249.41 187.117 247.254 184.24 244.795 180.558Z" fill="#E0E0E0"/>
<path d="M211.288 189.761C211.1 189.61 213.196 186.69 215.97 183.239C218.744 179.788 221.146 177.113 221.334 177.264C221.522 177.416 219.426 180.336 216.652 183.787C213.878 187.238 211.477 189.913 211.288 189.761Z" fill="#E0E0E0"/>
<path d="M229.15 210.064C228.912 210.022 229.356 206.389 230.142 201.95C230.928 197.51 231.757 193.946 231.995 193.988C232.233 194.03 231.789 197.663 231.003 202.102C230.217 206.541 229.387 210.106 229.15 210.064Z" fill="#E0E0E0"/>
<path d="M206.638 218.57C202.795 214.785 199.817 211.577 199.986 211.405C200.156 211.233 203.408 214.162 207.251 217.947C211.095 221.732 214.073 224.939 213.903 225.111C213.734 225.283 210.481 222.355 206.638 218.57Z" fill="#E0E0E0"/>
<path d="M239.04 238.617C239.185 238.763 242.684 236.576 246.328 232.786C249.826 228.996 251.867 225.352 251.721 225.206C251.575 225.061 249.243 228.559 245.745 232.203C242.392 235.993 238.894 238.325 239.04 238.617Z" fill="#E0E0E0"/>
<path d="M226.504 259.607C226.504 259.899 229.856 260.919 233.646 262.96C237.436 265.001 240.351 267.187 240.497 267.041C240.643 266.896 238.019 264.418 234.083 262.377C230.148 260.19 226.504 259.462 226.504 259.607Z" fill="#E0E0E0"/>
<path d="M206.095 260.919C206.241 260.919 207.116 260.045 208.428 258.441C209.739 256.838 211.634 254.505 213.384 251.882C215.279 249.258 216.882 246.78 217.902 245.031C218.923 243.281 219.652 242.115 219.506 241.97C219.36 241.97 218.631 242.99 217.465 244.739C216.153 246.634 214.55 248.966 212.801 251.444C211.051 253.922 209.448 256.109 207.99 258.004C206.678 259.899 205.95 260.919 206.095 260.919Z" fill="#E0E0E0"/>
<path d="M203.91 278.848C203.91 278.994 207.7 280.015 212.656 280.889C217.612 281.764 221.548 281.91 221.548 281.764C221.548 281.618 217.612 280.889 212.656 280.16C207.992 279.432 204.056 278.703 203.91 278.848Z" fill="#E0E0E0"/>
<path d="M237.144 159.32C237.29 159.174 236.561 158.445 235.978 156.842C235.395 155.384 234.958 153.052 235.395 150.574C235.687 148.096 236.561 145.909 237.29 144.306C237.873 142.703 238.311 141.828 238.311 141.682C238.165 141.682 237.582 142.557 236.853 144.014C236.124 145.472 235.104 147.659 234.666 150.282C234.229 152.906 234.812 155.384 235.541 156.988C236.27 158.737 237.144 159.32 237.144 159.32Z" fill="#E0E0E0"/>
<path d="M214.987 147.367C214.841 147.221 213.529 149.262 212.8 152.177C212.072 155.093 212.509 157.425 212.655 157.425C212.946 157.425 212.946 155.093 213.529 152.323C214.112 149.554 215.133 147.513 214.987 147.367Z" fill="#E0E0E0"/>
<path d="M114.845 261.356L59.6 164.276L52.8947 147.513C52.8947 147.513 35.6943 110.488 34.5282 106.698C33.0705 102.325 30.7383 102.034 29.1348 102.617C26.6568 103.637 25.928 107.281 26.9483 111.071C27.3856 112.383 33.9451 132.645 33.9451 132.645C33.9451 132.645 32.4874 131.187 28.2602 128.417C24.033 125.502 16.3073 125.648 9.01901 128.272C1.87646 130.895 -0.0185165 132.207 0.856087 134.977C1.14761 136.143 2.16799 136.872 3.18835 137.309C4.93755 138.038 6.83253 138.038 8.58173 137.455C20.0973 133.519 25.3449 138.767 25.3449 138.767L26.2195 140.953C26.2195 140.953 17.4735 138.184 12.5174 142.119C11.6428 142.703 11.2055 143.431 10.7682 144.16C7.70714 145.181 5.22908 147.804 4.50024 151.011C3.77142 154.364 4.79182 158.008 7.26984 160.34C8.43597 161.506 10.1852 162.235 11.6428 161.506C12.3717 161.069 12.8089 160.34 13.2462 159.611C13.5378 159.174 13.6835 158.883 13.9751 158.445L17.3277 164.276C17.3277 164.276 25.4907 176.958 28.406 182.934L66.451 284.242C71.6986 298.235 87.4414 305.232 101.435 299.839C116.595 293.571 123.008 275.496 114.845 261.356Z" fill="#FFBE9D"/>
<path d="M55.8125 163.984C53.9175 165.296 51.148 164.422 49.3988 162.818C47.6496 161.361 46.4834 159.174 44.7342 157.571C39.7782 152.615 31.6153 152.177 26.9507 147.076C26.3677 146.347 25.7846 145.326 26.2219 144.452C26.805 143.723 27.8253 143.869 28.6999 144.014C36.2798 145.472 43.7139 146.93 51.2937 148.533" fill="#FFBE9D"/>
<path d="M51.4392 148.533C51.4392 148.387 50.5646 148.242 49.1069 147.804C47.5035 147.367 45.317 146.93 42.5474 146.347C39.6321 145.764 36.2795 145.035 32.6353 144.306C31.7607 144.16 30.7404 143.869 29.72 143.723C28.8454 143.577 27.6793 142.994 26.2216 143.869C25.4928 144.306 25.347 145.326 25.4928 145.909C25.6386 146.638 25.9301 147.076 26.3674 147.513C27.0962 148.387 27.9708 149.116 28.8454 149.699C32.6353 152.323 36.7168 153.344 40.0694 155.093C41.6729 155.967 43.1305 156.842 44.2967 158.008C45.4628 159.174 46.3374 160.486 47.3578 161.506C49.2527 163.839 51.585 165.005 53.3342 164.859C55.0834 164.859 55.8122 163.984 55.6664 163.984C55.6664 163.839 54.7918 164.422 53.3342 164.276C51.7307 164.13 49.69 163.11 48.0866 160.778C47.212 159.757 46.3374 158.3 45.0255 157.133C43.8594 155.822 42.2559 154.801 40.5067 153.927C37.1541 152.032 33.0726 151.011 29.5742 148.533C28.6996 147.95 27.9708 147.221 27.242 146.492C26.6589 145.764 26.3674 144.889 26.8047 144.743C27.242 144.452 28.2623 144.598 29.2827 144.743C30.3031 144.889 31.1776 145.181 32.198 145.326C35.8422 146.055 39.1948 146.638 42.1102 147.076C44.8797 147.513 47.212 147.95 48.8154 148.242C50.5646 148.533 51.4392 148.533 51.4392 148.533Z" fill="#EB996E"/>
<path d="M26.5127 140.808C26.3669 140.953 26.0754 139.058 23.8889 137.309C22.8685 136.435 21.2651 135.852 19.5159 135.852C17.7667 135.852 15.726 136.289 13.6852 136.872C11.6445 137.455 9.60378 138.038 7.70881 138.184C5.81385 138.33 4.06466 138.038 2.75276 137.455C1.44086 136.726 0.712027 135.56 0.566259 134.831C0.420494 133.957 0.566259 133.519 0.566259 133.519C0.712027 133.519 0.712 133.957 0.857767 134.685C1.00353 135.414 1.7324 136.289 2.89853 136.872C4.06466 137.455 5.81384 137.601 7.56303 137.455C9.31223 137.309 11.2072 136.726 13.2479 136.143C15.2887 135.56 17.3294 135.123 19.2244 135.268C21.1193 135.414 22.8685 135.997 23.8889 137.018C25.055 138.038 25.6381 139.058 25.7838 139.787C26.5127 140.37 26.6584 140.808 26.5127 140.808Z" fill="#EB996E"/>
<path d="M26.658 109.468C26.8038 109.468 27.2411 110.925 27.9699 113.549C28.8445 116.319 29.8649 119.671 31.031 123.316C32.1972 126.96 33.3633 130.312 34.2379 133.082C35.1125 135.56 35.5498 137.163 35.404 137.163C35.2583 137.163 34.5294 135.706 33.6548 133.228C32.6344 130.75 31.4683 127.397 30.3022 123.461C29.1361 119.671 28.1157 116.173 27.5326 113.549C26.8038 111.071 26.5123 109.468 26.658 109.468Z" fill="#EB996E"/>
<path d="M23.4502 146.784C23.4502 146.784 23.0129 146.784 22.1383 146.638C21.2637 146.638 19.9518 146.492 18.9315 147.513C18.4942 147.95 18.2026 148.679 18.3484 149.554C18.4941 150.428 18.9315 151.157 19.3688 152.177C19.8061 153.052 20.2433 154.218 19.9518 155.53C19.6603 156.696 18.6399 157.717 17.328 158.154C16.0161 158.591 14.7042 158.3 13.6839 157.862C12.6635 157.279 11.7889 156.55 11.2058 155.53C10.3312 153.635 9.89391 151.886 9.60238 150.282C9.31084 148.679 9.31084 147.513 9.60238 146.638C9.74814 145.764 10.0397 145.326 10.1855 145.326C10.1855 145.326 10.0397 145.764 10.0397 146.638C9.89394 147.513 10.0397 148.679 10.3312 150.137C10.6227 151.594 11.0601 153.344 12.0804 155.093C12.955 156.696 15.1415 158.008 17.1823 157.425C18.2026 157.133 18.9314 156.259 19.223 155.384C19.5145 154.51 19.223 153.489 18.7857 152.615C18.3484 151.74 17.9111 150.865 17.7653 149.845C17.6195 148.825 17.9111 147.804 18.4941 147.221C19.806 146.055 21.2637 146.347 22.1383 146.492C23.0129 146.638 23.4502 146.784 23.4502 146.784Z" fill="#EB996E"/>
<path d="M13.8315 157.133C13.8315 157.133 14.123 157.571 14.123 158.3C14.123 159.028 13.6858 160.34 12.3739 161.215C11.2077 162.089 9.16698 162.235 7.41778 161.215C5.66858 160.34 4.35668 158.591 3.77361 156.55C3.04478 154.51 3.19055 152.323 3.77361 150.574C4.35668 148.825 5.37708 147.367 6.54321 146.492C7.56358 145.618 8.58394 145.035 9.31277 144.743C10.0416 144.452 10.4789 144.452 10.4789 144.452C10.4789 144.598 8.87545 145.035 6.83472 146.784C5.96012 147.659 4.93975 148.971 4.50245 150.72C4.06515 152.323 3.91938 154.364 4.50245 156.259C5.08551 158.154 6.25166 159.757 7.70933 160.486C9.16699 161.361 10.9162 161.215 11.9365 160.632C12.9569 160.049 13.54 158.883 13.6858 158.3C13.9773 157.571 13.8315 157.133 13.8315 157.133Z" fill="#EB996E"/>
<path d="M32.3433 166.171C32.3433 166.171 33.0722 165.734 34.2383 165.588C35.5502 165.442 37.4452 165.588 39.3401 166.754L38.757 167.191C38.6113 166.317 38.4655 165.296 38.3197 164.276C37.8824 158.591 39.6316 154.364 39.7774 154.364C40.0689 154.364 38.6113 158.737 39.1943 164.13C39.3401 165.151 39.3401 166.025 39.6316 166.9L39.7774 167.92L39.0486 167.337C37.4451 166.317 35.6959 166.025 34.384 166.025C33.0721 166.171 32.3433 166.317 32.3433 166.171Z" fill="#EB996E"/>
<path d="M20.8269 131.624C21.1184 131.624 20.6811 133.373 19.2234 134.685C17.62 135.997 16.0166 136.143 16.0166 135.852C16.0166 135.56 17.4742 135.123 18.7861 133.957C19.9523 132.936 20.5353 131.624 20.8269 131.624Z" fill="#EB996E"/>
<path d="M193.269 341.82L135.545 342.403L145.311 300.422L142.104 308.293C135.982 323.307 121.406 332.928 105.226 332.928C87.0048 332.928 74.3231 319.372 66.5974 302.754C48.5224 263.98 31.0304 201.738 31.0304 201.738L66.3059 170.836C91.8151 219.084 115.721 260.919 115.721 260.919C115.721 260.919 122.572 239.929 127.965 221.125C133.359 202.321 133.213 192.555 141.521 183.08C154.203 168.649 172.132 165.151 188.896 160.778L189.479 238.617L193.269 341.82Z" fill="#407BFF"/>
<path d="M259.446 283.805L154.203 304.358L149.101 344.735H310.464C329.123 345.027 343.991 329.138 342.533 310.48C340.201 281.035 337.723 244.739 335.828 229.434C334.37 217.481 329.56 205.091 323.875 194.45C315.712 179.144 288.599 159.466 264.84 158.445L260.321 258.733" fill="#407BFF"/>
<g opacity="0.4">
<g opacity="0.4">
<g opacity="0.4">
<g opacity="0.4">
<g opacity="0.4">
<g opacity="0.4">
<path opacity="0.4" d="M193.269 341.82L135.545 342.403L145.311 300.422L142.104 308.293C135.982 323.307 121.406 332.928 105.226 332.928C87.0048 332.928 74.3231 319.372 66.5974 302.754C48.5224 263.98 31.0304 201.738 31.0304 201.738L66.3059 170.836C91.8151 219.084 115.721 260.919 115.721 260.919C115.721 260.919 122.572 239.929 127.965 221.125C133.359 202.321 133.213 192.555 141.521 183.08C154.203 168.649 172.132 165.151 188.896 160.778L189.479 238.617L193.269 341.82Z" fill="black"/>
</g>
</g>
</g>
</g>
<g opacity="0.4">
<g opacity="0.4">
<g opacity="0.4">
<g opacity="0.4">
<path opacity="0.4" d="M259.446 283.805L164.552 301.151C160.617 301.88 157.41 304.941 156.681 308.876L149.101 344.735H310.464C329.123 345.027 343.991 329.138 342.533 310.48C340.201 281.035 337.723 244.739 335.828 229.434C334.37 217.481 329.56 205.091 323.875 194.45C315.712 179.144 288.599 159.466 264.84 158.445L260.321 258.733" fill="black"/>
</g>
</g>
</g>
</g>
</g>
</g>
<path d="M279.416 280.889C279.416 280.889 279.416 280.598 279.416 279.869C279.416 279.14 279.416 278.265 279.416 277.099C279.416 274.621 279.416 271.123 279.416 266.896C279.416 258.295 279.562 246.488 280.29 233.515C280.582 226.956 281.019 220.833 281.457 215.149C281.894 209.464 282.331 204.362 283.643 200.28C284.809 196.199 286.704 193.138 288.308 191.534C289.911 189.785 291.077 189.202 291.077 189.056C291.077 189.056 289.765 189.639 288.016 191.243C286.267 192.846 284.372 195.907 283.06 200.135C281.748 204.216 281.165 209.464 280.728 215.003C280.29 220.688 279.853 226.81 279.416 233.369C278.687 246.488 278.687 258.295 278.833 266.896C278.979 271.123 278.979 274.621 279.124 277.099C279.124 278.265 279.27 279.14 279.27 279.869C279.416 280.598 279.416 280.889 279.416 280.889Z" fill="#251A51"/>
<path d="M156.244 307.127C156.39 307.273 157.264 305.67 160.034 304.066C161.346 303.337 163.241 302.463 165.427 301.88C167.614 301.297 170.092 300.714 173.007 300.13C184.231 297.798 199.828 294.591 217.029 291.384C234.229 288.178 249.826 285.554 261.196 283.805C266.881 282.93 271.4 282.201 274.606 281.618C276.21 281.327 277.376 281.181 278.251 281.035C279.125 280.889 279.562 280.743 279.562 280.743C279.562 280.743 279.125 280.744 278.251 280.889C277.376 281.035 276.064 281.181 274.606 281.327C271.4 281.764 266.881 282.347 261.196 283.222C249.826 284.971 234.229 287.449 216.883 290.656C199.682 293.862 184.085 297.215 172.861 299.547C170.092 300.13 167.468 300.714 165.282 301.297C163.095 302.025 161.2 302.754 159.888 303.629C158.431 304.503 157.556 305.378 156.973 305.961C156.681 306.253 156.536 306.544 156.39 306.69C156.244 307.127 156.244 307.127 156.244 307.127Z" fill="#251A51"/>
<path d="M279.125 280.889C279.125 281.035 281.019 281.472 284.081 282.638C285.538 283.222 287.287 284.096 289.182 285.116C291.077 286.283 292.972 287.595 294.867 289.052C296.762 290.656 298.366 292.405 299.823 294.008C301.135 295.612 302.301 297.215 303.176 298.527C304.925 301.297 305.654 303.192 305.8 303.046C305.8 303.046 305.654 302.608 305.363 301.734C305.071 300.859 304.488 299.693 303.613 298.235C302.739 296.778 301.718 295.174 300.406 293.425C298.949 291.822 297.345 290.073 295.45 288.323C293.555 286.72 291.515 285.408 289.62 284.242C287.725 283.222 285.976 282.347 284.372 281.91C282.769 281.327 281.603 281.035 280.582 280.743C279.562 280.889 279.125 280.889 279.125 280.889Z" fill="#251A51"/>
<path d="M143.271 306.107C143.271 306.107 143.417 305.815 143.417 305.086C143.563 304.358 143.708 303.337 143.854 302.171C144.291 299.693 144.729 296.049 145.458 291.53C146.624 282.493 148.227 269.957 149.393 256.109C150.705 242.261 151.434 229.725 151.871 220.542C152.017 216.023 152.163 212.379 152.309 209.755C152.309 208.589 152.309 207.569 152.309 206.84C152.309 206.111 152.309 205.819 152.309 205.819C152.309 205.819 152.309 206.111 152.163 206.84C152.163 207.569 152.017 208.589 152.017 209.755C151.871 212.379 151.726 216.023 151.434 220.542C150.851 229.579 149.976 242.115 148.81 255.963C147.498 269.811 146.186 282.347 145.02 291.384C144.437 295.903 144 299.547 143.708 302.025C143.563 303.192 143.417 304.212 143.417 304.941C143.271 305.67 143.125 306.107 143.271 306.107Z" fill="#251A51"/>
<path d="M108.287 290.364C108.287 290.364 108.579 290.073 109.162 289.344C109.745 288.761 110.328 287.74 111.057 286.428C112.514 283.95 114.263 280.16 115.284 275.787C116.304 271.414 116.45 267.333 116.158 264.272C116.013 262.814 115.867 261.648 115.721 260.773C115.575 259.899 115.43 259.462 115.43 259.607C115.284 259.607 115.575 261.357 115.721 264.272C115.867 267.187 115.575 271.269 114.555 275.496C113.535 279.869 111.931 283.513 110.619 286.137C109.307 288.906 108.141 290.364 108.287 290.364Z" fill="#251A51"/>
<path d="M279.853 226.664C279.853 226.664 279.999 226.664 280.436 226.81C280.728 226.81 281.311 226.956 282.04 226.956C283.352 227.101 285.392 226.956 287.87 226.518C290.348 226.081 293.118 225.206 296.179 223.895C299.24 222.583 302.447 220.979 305.8 219.376C309.152 217.772 312.359 216.315 315.566 215.294C318.627 214.274 321.542 213.691 323.875 213.691C328.831 213.399 331.6 214.711 331.746 214.565C331.746 214.565 331.6 214.42 331.309 214.274C331.017 214.128 330.434 213.982 329.851 213.837C328.539 213.399 326.498 213.108 324.02 213.108C321.542 213.108 318.627 213.691 315.42 214.565C312.213 215.586 309.007 216.898 305.654 218.647C302.301 220.25 299.094 222 296.179 223.166C293.264 224.478 290.494 225.352 288.016 225.935C282.914 227.101 279.853 226.518 279.853 226.664Z" fill="#FAFAFA"/>
<path d="M270.462 225.072C265.7 224.261 261.873 223.411 261.913 223.173C261.954 222.934 265.847 223.399 270.609 224.21C275.37 225.021 279.198 225.871 279.157 226.109C279.116 226.348 275.224 225.883 270.462 225.072Z" fill="#FAFAFA"/>
<path d="M280.437 254.506C280.437 254.506 281.166 254.943 282.623 255.38C284.081 255.963 285.976 256.692 288.6 257.421C293.702 259.024 300.698 261.065 308.716 262.377C312.651 263.106 316.587 263.543 320.085 263.98C323.584 264.418 326.791 264.563 329.414 264.272C332.038 263.98 334.225 263.251 335.537 262.523C336.266 262.231 336.703 261.794 336.994 261.648C337.286 261.357 337.432 261.211 337.432 261.211C337.432 261.211 336.703 261.648 335.391 262.231C334.079 262.814 332.038 263.543 329.414 263.689C326.791 263.98 323.73 263.689 320.231 263.251C316.733 262.814 312.943 262.377 309.007 261.648C300.99 260.19 293.993 258.441 288.891 256.838C286.413 256.109 284.373 255.38 282.915 254.943C281.312 254.651 280.583 254.36 280.437 254.506Z" fill="#FAFAFA"/>
<path d="M270.218 262.679C265.791 262.606 262.205 262.35 262.209 262.109C262.213 261.867 265.805 261.731 270.233 261.805C274.66 261.878 278.246 262.134 278.242 262.375C278.238 262.617 274.645 262.753 270.218 262.679Z" fill="#FAFAFA"/>
<path d="M337.286 328.555C337.286 328.555 337.286 328.263 337.14 327.826C336.995 327.243 336.849 326.514 336.557 325.64C336.412 325.202 336.266 324.619 336.12 324.036C335.974 323.453 335.683 322.87 335.391 322.141C334.954 320.829 334.371 319.372 333.642 317.768C333.205 317.039 332.913 316.165 332.476 315.29C332.039 314.416 331.455 313.541 331.018 312.666C329.998 310.771 328.686 309.022 327.374 307.127C324.604 303.337 321.252 299.547 317.17 295.903C313.089 292.405 308.716 289.489 304.634 287.303C302.594 286.283 300.553 285.262 298.658 284.533C297.638 284.096 296.763 283.805 295.888 283.513C295.014 283.222 294.139 282.93 293.265 282.638C291.661 282.055 290.058 281.764 288.6 281.472C287.871 281.327 287.288 281.181 286.705 281.035C286.122 280.889 285.539 280.889 285.102 280.743C284.227 280.598 283.498 280.598 282.915 280.452C282.332 280.452 282.186 280.452 282.186 280.452C282.186 280.452 282.478 280.598 282.915 280.598C283.498 280.743 284.227 280.889 285.102 281.035C285.539 281.181 286.122 281.181 286.705 281.327C287.288 281.472 287.871 281.618 288.6 281.764C289.912 282.055 291.515 282.493 293.119 283.076C293.993 283.367 294.868 283.659 295.743 283.95C296.617 284.242 297.492 284.679 298.512 285.116C300.407 285.845 302.302 286.866 304.489 287.886C308.57 290.073 312.797 292.988 316.733 296.486C320.669 299.985 324.167 303.775 326.937 307.565C328.249 309.459 329.561 311.209 330.581 313.104C331.164 313.978 331.601 314.853 332.039 315.727C332.476 316.602 332.913 317.331 333.205 318.205C334.079 319.809 334.517 321.267 335.1 322.578C335.391 323.162 335.683 323.745 335.828 324.328C335.974 324.911 336.12 325.348 336.266 325.931C336.557 326.806 336.849 327.535 336.995 328.118C337.14 328.263 337.286 328.555 337.286 328.555Z" fill="#FAFAFA"/>
<path d="M264.111 283.805C263.965 283.95 267.318 285.991 270.088 291.384C271.545 294.008 272.711 297.361 273.44 301.297C274.169 305.232 274.461 309.605 274.752 314.124C275.044 318.643 275.335 323.162 276.21 327.097C277.084 331.033 278.396 334.386 279.854 337.009C281.312 339.633 283.061 341.528 284.227 342.694C284.81 343.277 285.393 343.715 285.83 343.86C286.268 344.152 286.413 344.298 286.413 344.152C286.559 344.006 283.207 341.965 280.291 336.718C278.834 334.094 277.667 330.741 276.793 326.806C276.064 322.87 275.627 318.643 275.335 313.978C275.044 309.459 274.752 304.941 273.877 301.005C273.003 297.069 271.837 293.717 270.379 290.947C268.921 288.323 267.318 286.428 266.006 285.262C265.423 284.679 264.84 284.242 264.548 284.096C264.403 283.805 264.111 283.805 264.111 283.805Z" fill="#FAFAFA"/>
<path d="M237.95 316.913C237.443 301.463 237.229 288.933 237.47 288.925C237.711 288.917 238.318 301.435 238.824 316.884C239.33 332.333 239.545 344.864 239.303 344.871C239.062 344.879 238.456 332.362 237.95 316.913Z" fill="#FAFAFA"/>
<path d="M199.681 342.84C199.681 342.84 199.973 342.257 200.264 341.091C200.41 340.508 200.702 339.779 200.847 338.904C200.993 338.03 201.285 337.009 201.43 335.989C201.868 333.802 202.159 331.179 202.159 328.263C202.159 325.348 202.013 322.141 201.576 318.643C200.993 315.29 200.264 312.083 199.244 309.314C198.223 306.544 197.203 304.066 196.183 302.171C195.745 301.151 195.162 300.276 194.725 299.547C194.288 298.819 193.85 298.09 193.559 297.652C192.83 296.632 192.393 296.049 192.393 296.049C192.247 296.195 193.85 298.381 195.745 302.317C196.766 304.358 197.64 306.69 198.661 309.459C199.535 312.229 200.264 315.29 200.847 318.643C201.285 321.995 201.576 325.202 201.576 328.118C201.576 331.033 201.285 333.657 200.993 335.843C200.41 340.216 199.535 342.84 199.681 342.84Z" fill="#FAFAFA"/>
<path d="M266.88 181.768C266.88 181.914 269.213 180.893 273.003 179.727C276.793 178.561 282.186 177.249 288.162 176.666C294.139 176.083 299.678 176.52 303.614 177.103C307.549 177.687 309.882 178.27 310.027 178.124C310.027 178.124 309.444 177.832 308.424 177.541C307.404 177.249 305.8 176.812 303.759 176.52C299.824 175.792 294.285 175.354 288.162 175.937C282.04 176.52 276.647 177.832 272.857 179.29C270.962 180.019 269.504 180.602 268.484 181.039C267.464 181.331 266.88 181.622 266.88 181.768Z" fill="#FAFAFA"/>
<path d="M151.725 242.99C151.725 243.136 153.766 242.99 157.118 242.844C160.471 242.698 164.99 242.553 170.091 242.407C175.193 242.261 179.858 242.261 183.065 242.261C186.417 242.261 188.458 242.115 188.458 242.115C188.458 242.115 187.875 241.97 187 241.97C186.126 241.97 184.668 241.824 183.065 241.824C179.712 241.678 175.047 241.678 169.946 241.824C164.844 241.97 160.179 242.261 156.972 242.553C155.369 242.698 153.911 242.844 153.037 242.99C152.308 242.844 151.725 242.99 151.725 242.99Z" fill="#FAFAFA"/>
<path d="M123.008 237.597C123.008 237.742 124.903 238.325 127.673 239.783C130.443 241.241 134.232 243.427 137.877 246.634C141.521 249.841 144.145 253.339 145.894 255.963C147.643 258.587 148.518 260.482 148.518 260.336C148.518 260.336 148.372 259.899 148.08 259.024C147.789 258.15 147.206 256.984 146.331 255.672C144.728 252.902 142.104 249.258 138.314 246.051C134.67 242.844 130.734 240.512 127.819 239.2C126.361 238.617 125.195 238.034 124.32 237.888C123.446 237.597 123.008 237.451 123.008 237.597Z" fill="#FAFAFA"/>
<path d="M137.147 190.806C137.147 190.951 140.063 190.368 144.581 191.826C146.768 192.555 149.246 193.721 152.016 195.179C154.785 196.636 157.846 198.24 161.199 199.26C168.05 201.447 174.901 201.301 179.42 200.426C181.752 199.989 183.501 199.406 184.813 198.969C185.979 198.531 186.708 198.24 186.708 198.094C186.708 197.948 183.938 199.114 179.42 199.843C174.901 200.572 168.196 200.718 161.49 198.531C158.138 197.511 155.077 195.907 152.307 194.45C149.538 192.992 146.914 191.826 144.727 191.243C142.395 190.514 140.5 190.368 139.188 190.514C138.459 190.514 138.022 190.66 137.73 190.66C137.293 190.806 137.147 190.806 137.147 190.806Z" fill="#FAFAFA"/>
<path d="M144.438 288.469C144.438 288.469 145.021 288.761 146.187 289.198C146.77 289.489 147.499 289.781 148.227 289.927C149.102 290.218 149.977 290.51 150.997 290.801C153.038 291.384 155.662 291.967 158.431 292.405C161.201 292.696 164.408 292.988 167.76 292.842C171.113 292.696 174.174 292.259 176.943 291.822C179.713 291.239 182.191 290.51 184.232 289.781C185.252 289.489 186.127 289.052 187.001 288.761C187.73 288.469 188.459 288.178 189.042 287.886C190.062 287.303 190.646 287.011 190.646 287.011C190.646 286.866 188.167 288.032 184.086 289.344C182.045 290.073 179.567 290.656 176.798 291.093C174.028 291.53 170.967 291.968 167.614 292.113C164.408 292.259 161.201 291.967 158.431 291.676C155.662 291.384 153.184 290.801 150.997 290.364C146.916 289.344 144.438 288.323 144.438 288.469Z" fill="#FAFAFA"/>
<path d="M110.911 331.616C110.911 331.616 111.057 331.47 111.494 331.179C111.786 330.887 112.369 330.45 112.952 329.721C114.264 328.409 115.867 326.368 117.616 323.599C120.969 318.06 123.884 309.168 124.176 299.256C124.321 289.198 122.426 280.452 120.823 274.038C120.094 270.831 119.365 268.353 118.782 266.604C118.491 265.875 118.345 265.146 118.199 264.563C118.053 264.126 117.908 263.835 117.908 263.835C117.908 263.835 117.908 264.126 118.053 264.563C118.199 265.146 118.345 265.73 118.491 266.604C118.928 268.499 119.511 270.977 120.24 274.038C121.698 280.306 123.447 289.198 123.301 299.11C123.155 309.022 120.386 317.768 117.033 323.307C115.43 326.077 113.826 328.263 112.66 329.575C111.64 330.887 110.911 331.616 110.911 331.616Z" fill="#FAFAFA"/>
<path d="M57.8514 282.201C57.9972 282.347 60.3295 279.723 65.577 277.828C68.2008 276.954 71.2619 276.079 74.9061 275.35C78.4045 274.621 82.486 274.038 86.5674 272.726C94.7303 270.103 101.144 265.438 105.08 261.648C107.12 259.753 108.578 258.004 109.453 256.692C109.89 256.109 110.182 255.526 110.473 255.234C110.765 254.943 110.765 254.651 110.765 254.651C110.765 254.651 110.182 255.234 109.161 256.4C108.141 257.567 106.683 259.17 104.642 261.065C100.707 264.855 94.293 269.228 86.2759 271.852C82.3402 273.164 78.4045 273.747 74.7603 274.621C71.1162 275.35 67.9093 276.225 65.4313 277.245C62.8075 278.265 60.9125 279.432 59.7464 280.452C59.1633 280.889 58.726 281.327 58.4345 281.618C57.9972 282.055 57.8514 282.201 57.8514 282.201Z" fill="#FAFAFA"/>
<path d="M41.2351 233.515C41.2351 233.515 41.8181 233.078 42.8385 232.203C43.2758 231.766 43.8588 231.183 44.5877 230.6C45.3165 230.017 46.0454 229.288 47.0657 228.559C48.9607 227.101 51.1472 225.498 53.771 223.749C56.3948 222.145 59.4559 220.542 62.8085 219.084C66.1611 217.627 69.368 216.606 72.4291 215.877C75.4902 215.149 78.2598 214.566 80.592 214.274C81.7582 214.128 82.7785 213.982 83.7989 213.982C84.6735 213.837 85.5481 213.837 86.1312 213.837C87.4431 213.691 88.1719 213.691 88.1719 213.691C88.1719 213.691 87.4431 213.545 86.1312 213.545C85.4023 213.545 84.6735 213.545 83.6531 213.545C82.7785 213.545 81.6124 213.691 80.4462 213.837C78.114 214.128 75.1987 214.566 72.1376 215.294C69.0765 216.023 65.7238 217.189 62.3712 218.501C59.0186 219.959 55.9575 221.562 53.3337 223.312C50.7099 225.061 48.3776 226.664 46.6284 228.268C45.7538 228.996 44.8792 229.725 44.2962 230.454C43.5673 231.037 42.9843 231.62 42.547 232.203C41.6724 232.932 41.2351 233.515 41.2351 233.515Z" fill="#FAFAFA"/>
<path d="M168.779 166.608C168.779 166.754 169.8 167.191 171.549 167.92C173.298 168.649 175.776 169.378 178.692 170.107C181.461 170.836 184.085 171.127 185.98 171.273C187.875 171.419 189.041 171.419 189.041 171.273C189.041 170.981 184.376 170.69 178.837 169.378C173.152 168.066 168.779 166.463 168.779 166.608Z" fill="#FAFAFA"/>
<path d="M117.033 371.993C116.159 374.763 118.637 377.532 121.552 377.095C123.155 376.949 124.467 375.783 124.905 374.18L126.071 369.661H125.925C125.196 372.431 127.82 374.909 130.589 374.617C132.484 374.617 134.088 371.848 134.671 370.39C137.878 370.827 140.793 368.932 142.105 366.891L150.705 353.481L166.594 341.82L156.973 307.565L122.864 329.575C121.552 330.596 121.26 331.033 119.22 333.074L97.2089 353.335C99.6869 354.793 101.873 354.647 105.226 353.335C108.724 352.023 123.884 341.674 123.884 341.674L117.033 371.993Z" fill="#FFBE9D"/>
<path d="M146.187 343.715C146.187 343.715 145.75 343.86 145.167 344.298C144.875 344.589 144.438 344.735 144 345.026C143.563 345.318 142.98 345.755 142.543 346.193C142.105 346.776 141.668 347.359 141.377 348.233C141.085 348.962 140.794 349.837 140.502 350.566C139.919 352.315 139.336 354.064 138.607 356.105C137.295 360.04 136.129 363.539 135.4 366.163C134.671 368.786 134.234 370.39 134.234 370.39C134.38 370.39 134.963 368.932 135.837 366.308C136.712 363.83 138.024 360.332 139.336 356.396C139.919 354.501 140.648 352.606 141.085 350.857C141.377 349.983 141.668 349.254 141.814 348.379C142.105 347.65 142.397 347.067 142.834 346.484C143.272 345.901 143.709 345.61 144.146 345.318C144.583 345.026 144.875 344.735 145.167 344.443C145.895 344.152 146.333 343.86 146.187 343.715Z" fill="#EB996E"/>
<path d="M125.778 370.39C125.778 370.39 126.069 369.953 126.215 368.932C126.506 367.912 126.944 366.6 127.381 364.996C128.256 361.644 129.567 357.125 131.171 352.169C132.774 347.213 134.378 342.694 136.419 340.07C137.439 338.759 138.459 337.738 139.188 337.301C139.917 336.864 140.5 336.718 140.5 336.572C140.5 336.572 140.354 336.572 140.063 336.572C139.771 336.572 139.48 336.718 139.042 337.009C138.168 337.447 137.002 338.321 135.981 339.779C133.795 342.548 132.046 347.067 130.442 352.023C128.839 356.979 127.673 361.644 126.944 364.996C126.506 366.6 126.215 368.058 126.069 368.932C125.778 369.807 125.632 370.39 125.778 370.39Z" fill="#EB996E"/>
<path d="M116.888 372.431C116.888 372.431 117.179 371.848 117.471 370.973C117.908 369.807 118.345 368.349 118.783 366.746C119.949 363.102 121.406 358.145 123.01 352.606C124.613 347.213 125.925 342.257 126.945 338.467C127.529 336.718 128.403 335.552 129.278 334.969C130.152 334.386 130.735 334.24 130.735 334.24C130.735 334.24 130.59 334.24 130.298 334.24C130.007 334.24 129.569 334.386 129.132 334.677C128.257 335.26 127.091 336.426 126.508 338.321C125.342 341.965 123.884 346.921 122.281 352.461C120.677 358 119.22 362.956 118.345 366.6C117.908 368.349 117.471 369.807 117.179 370.973C117.033 371.848 116.888 372.431 116.888 372.431Z" fill="#EB996E"/>
</svg>
