<svg width="135" height="136" viewBox="0 0 135 136" fill="none" xmlns="http://www.w3.org/2000/svg">
<path d="M4.19849 91.3822C13.7358 117.086 38.4774 135.404 67.5 135.404C96.5227 135.404 121.264 117.086 130.802 91.3822L67.5 85.5128L4.19849 91.3822Z" fill="#FFDA44"/>
<path d="M67.5 0.404053C38.4774 0.404053 13.7358 18.7219 4.19849 44.4259L67.5 50.2953L130.802 44.4257C121.264 18.7219 96.5227 0.404053 67.5 0.404053Z" fill="black"/>
<path d="M4.19845 44.4259C1.48526 51.7383 0 59.6474 0 67.904C0 76.1607 1.48526 84.0698 4.19845 91.3822H130.802C133.515 84.0698 135 76.1607 135 67.904C135 59.6474 133.515 51.7383 130.802 44.4259H4.19845Z" fill="#D80027"/>
</svg>
