<svg width="14" height="14" viewBox="0 0 14 14" fill="none" xmlns="http://www.w3.org/2000/svg">
<path d="M13.5003 10.2066V12.0922C13.501 12.2672 13.4651 12.4405 13.395 12.6009C13.3249 12.7613 13.222 12.9052 13.093 13.0236C12.9641 13.1419 12.8118 13.232 12.646 13.2881C12.4801 13.3442 12.3044 13.365 12.1301 13.3492C10.196 13.1391 8.33816 12.4782 6.70587 11.4197C5.18723 10.4546 3.8997 9.16711 2.93469 7.64847C1.87246 6.00877 1.21141 4.1419 1.0051 2.19911C0.989395 2.02531 1.01005 1.85013 1.06576 1.68474C1.12146 1.51935 1.21099 1.36737 1.32865 1.23848C1.44631 1.10959 1.58951 1.00661 1.74915 0.936097C1.90879 0.865583 2.08136 0.829083 2.25588 0.828918H4.14147C4.4465 0.825916 4.74221 0.933932 4.97349 1.13283C5.20477 1.33173 5.35584 1.60795 5.39853 1.90999C5.47811 2.51342 5.62571 3.10591 5.8385 3.67616C5.92306 3.90113 5.94137 4.14562 5.89124 4.38067C5.84111 4.61572 5.72465 4.83147 5.55566 5.00236L4.75743 5.80059C5.65218 7.37415 6.95506 8.67703 8.52861 9.57178L9.32684 8.77354C9.49773 8.60455 9.71349 8.48809 9.94853 8.43797C10.1836 8.38784 10.4281 8.40614 10.653 8.4907C11.2233 8.70349 11.8158 8.85109 12.4192 8.93067C12.7245 8.97375 13.0034 9.12753 13.2027 9.36279C13.402 9.59804 13.5079 9.89834 13.5003 10.2066Z" stroke="#00ACED" stroke-linecap="round" stroke-linejoin="round"/>
</svg>
