<svg width="22" height="23" viewBox="0 0 22 23" fill="none" xmlns="http://www.w3.org/2000/svg">
<path d="M20.8974 16.2804V19.2804C20.8985 19.559 20.8415 19.8346 20.7299 20.0898C20.6183 20.345 20.4547 20.574 20.2495 20.7623C20.0442 20.9506 19.802 21.0939 19.5381 21.1832C19.2743 21.2724 18.9948 21.3055 18.7174 21.2804C15.6402 20.9461 12.6844 19.8946 10.0874 18.2104C7.67122 16.6751 5.62273 14.6266 4.08739 12.2104C2.39737 9.60165 1.34564 6.63144 1.01739 3.54045C0.992405 3.26392 1.02527 2.98521 1.11389 2.72207C1.20252 2.45894 1.34496 2.21714 1.53216 2.01207C1.71936 1.807 1.9472 1.64316 2.20118 1.53097C2.45517 1.41878 2.72973 1.36071 3.00739 1.36045H6.00739C6.4927 1.35567 6.96319 1.52753 7.33116 1.84398C7.69913 2.16044 7.93947 2.5999 8.00739 3.08045C8.13402 4.04051 8.36884 4.98318 8.70739 5.89045C8.84194 6.24837 8.87106 6.63736 8.7913 7.01133C8.71155 7.38529 8.52626 7.72856 8.25739 8.00045L6.98739 9.27045C8.41095 11.774 10.4838 13.8469 12.9874 15.2704L14.2574 14.0004C14.5293 13.7316 14.8725 13.5463 15.2465 13.4665C15.6205 13.3868 16.0095 13.4159 16.3674 13.5504C17.2747 13.889 18.2173 14.1238 19.1774 14.2504C19.6632 14.319 20.1068 14.5637 20.4239 14.9379C20.7411 15.3122 20.9096 15.79 20.8974 16.2804Z" stroke="white" stroke-width="2" stroke-linecap="round" stroke-linejoin="round"/>
</svg>
