<svg width="316" height="201" viewBox="0 0 316 201" fill="none" xmlns="http://www.w3.org/2000/svg">
<path d="M28.2854 52.6123L26.1682 91.4529H71.9603L73.7973 100.912L76.2959 91.4529H111.502L113.923 55.2926L28.2854 52.6123Z" fill="#F4D532"/>
<path d="M52.8898 70.7896C52.8898 75.2775 49.2548 78.9162 44.7713 78.9162C40.2879 78.9162 36.6528 75.2775 36.6528 70.7896C36.6528 66.3017 40.2879 62.6631 44.7713 62.6631C49.2548 62.6631 52.8898 66.3017 52.8898 70.7896Z" fill="white"/>
<path d="M59.6153 65.0788C73.6417 65.9904 87.7226 65.6709 101.741 66.9332C102.753 67.0267 102.769 65.3826 101.741 65.3437C87.7382 64.7749 73.6262 63.4971 59.6153 64.323C59.125 64.3464 59.125 65.0476 59.6153 65.0788Z" fill="white"/>
<path d="M59.6153 70.9533C73.6417 71.8649 87.7226 71.5454 101.741 72.8077C102.753 72.9012 102.769 71.2571 101.741 71.2182C87.7382 70.6494 73.6262 69.3716 59.6153 70.1975C59.125 70.2209 59.125 70.9221 59.6153 70.9533Z" fill="white"/>
<path d="M59.6153 77.5993C73.6417 78.5109 87.7226 78.1914 101.741 79.4537C102.753 79.5472 102.769 77.9031 101.741 77.8642C87.7382 77.2954 73.6262 76.0176 59.6153 76.8435C59.125 76.8747 59.125 77.5681 59.6153 77.5993Z" fill="white"/>
<g opacity="0.48">
<path opacity="0.48" d="M49.6755 78.5345C51.3334 77.7787 48.9827 74.8569 47.5816 73.696C46.1805 72.535 44.2112 72.0909 42.4365 72.535C40.6696 72.987 39.1518 74.3115 38.4668 76.0101C38.4668 76.0023 41.9072 82.0641 49.6755 78.5345Z" fill="#EDC483"/>
</g>
<path opacity="0.48" d="M47.7057 68.3588C47.7057 69.9794 46.3902 71.2962 44.7712 71.2962C43.1521 71.2962 41.8367 69.9794 41.8367 68.3588C41.8367 66.7382 43.1521 65.4214 44.7712 65.4214C46.3902 65.4214 47.7057 66.7304 47.7057 68.3588Z" fill="#EDC483"/>
<path d="M135.912 193.553C94.9847 193.553 57.5213 193.568 28.55 193.607C28.5578 193.716 28.5656 193.825 28.5656 193.935C57.5369 193.966 94.9925 193.989 135.912 193.989C227.768 193.989 302.213 193.896 302.213 193.771C302.213 193.654 227.768 193.553 135.912 193.553Z" fill="#263238"/>
<path d="M227.568 183.121C210.339 168.795 208.29 144.913 210.914 123.854C211.35 120.333 211.296 116.584 213.27 113.644C215.251 110.704 219.404 108.949 222.47 110.727C225.014 112.2 225.894 115.354 227.156 118.01C228.831 121.544 231.523 124.584 234.829 126.668C236.998 128.038 239.748 129.003 242.105 127.982C245.338 126.58 246.082 122.418 246.373 118.906C246.918 112.368 247.465 105.823 248.01 99.285C248.301 95.773 248.615 92.1913 250.016 88.9653C251.417 85.7392 254.138 82.8615 257.602 82.2391C261.067 81.6088 265.073 83.9115 265.483 87.409C265.651 88.8646 265.224 90.3218 265.189 91.7882C265.155 93.2546 265.701 94.927 267.067 95.4568C268.448 95.9962 269.962 95.1277 271.112 94.1968C275.098 90.9867 277.998 86.6497 280.729 82.3189C283.467 77.989 286.137 73.5553 289.814 69.9913C293.492 66.4273 298.366 63.7849 303.481 63.9633C308.604 64.1267 313.744 67.7218 314.593 72.7678C315.44 77.8298 312.062 82.5823 308.521 86.2973C303.272 91.8081 297.212 96.5585 290.611 100.344C289.422 101.03 288.13 101.769 287.58 103.029C286.602 105.295 288.632 107.823 290.907 108.802C293.481 109.909 296.373 109.901 299.117 110.472C301.86 111.043 304.757 112.522 305.566 115.202C306.7 118.92 303.32 122.403 300.116 124.595C293.684 128.985 286.502 132.26 278.975 134.237C276.273 134.947 273.449 135.525 271.181 137.149C268.913 138.773 267.356 141.806 268.408 144.391C269.46 146.985 272.655 148.069 275.445 147.817C278.227 147.565 280.809 146.319 283.505 145.584C288.551 144.204 294.834 145.109 297.585 149.56C299.397 152.483 299.234 156.313 297.903 159.483C296.572 162.652 294.207 165.27 291.738 167.66C283.096 176.018 272.42 182.41 260.744 185.258C249.053 188.105 238.462 188.208 227.568 183.121Z" fill="#ECF1FE"/>
<path d="M228.978 183.688C233.085 173.317 243.908 149.027 250.019 137.711C251.553 134.893 253.077 132.097 254.581 129.348C256.083 126.607 257.567 123.887 259.196 121.32C262.415 116.165 265.916 111.458 269.374 107.092C272.832 102.717 276.277 98.6947 279.531 94.9574C282.793 91.221 285.894 87.7969 288.854 84.7997C294.759 78.7797 300.096 74.4832 303.887 71.6782C305.779 70.2713 307.279 69.2247 308.308 68.53C308.809 68.1973 309.199 67.9332 309.476 67.7455C309.743 67.5729 309.888 67.4918 309.888 67.4918C309.888 67.4918 309.764 67.5992 309.511 67.7894C309.233 67.993 308.858 68.2668 308.371 68.617C307.363 69.346 305.884 70.4109 304.014 71.8442C300.267 74.694 294.982 79.0202 289.123 85.0611C286.187 88.0688 283.101 91.5025 279.862 95.2494C276.622 99.0042 273.193 103.028 269.75 107.404C266.309 111.773 262.832 116.474 259.623 121.606C258.011 124.167 256.538 126.864 255.035 129.613C253.539 132.363 252.016 135.15 250.481 137.969C244.371 149.277 233.552 173.535 229.425 183.872" fill="white"/>
<path d="M259.328 121.286C259.287 121.29 259.224 120.745 259.136 119.755C259.048 118.766 258.958 117.335 258.871 115.566C258.69 112.029 258.613 107.136 258.532 101.738C258.451 96.3389 258.283 91.4611 258.029 87.9319C257.91 86.1681 257.796 84.7421 257.698 83.7599C257.609 82.7785 257.579 82.229 257.612 82.2244C257.644 82.2198 257.748 82.7609 257.901 83.7411C258.063 84.7222 258.234 86.146 258.401 87.9069C258.752 91.4383 258.982 96.3307 259.062 101.737C259.132 107.087 259.199 111.93 259.25 115.558C259.288 117.249 259.324 118.659 259.354 119.746C259.37 120.736 259.36 121.281 259.328 121.286Z" fill="white"/>
<path d="M305.779 116.992C305.777 117.008 305.615 117.023 305.302 117.022C304.924 117.022 304.475 117.015 303.937 117.014C302.757 117.002 301.048 116.982 298.931 117.024C294.708 117.076 288.87 117.368 282.452 117.967C276.033 118.583 270.245 119.386 266.072 120.102C263.988 120.444 262.307 120.765 261.144 120.979C260.611 121.076 260.169 121.158 259.8 121.223C259.49 121.271 259.327 121.294 259.322 121.269C259.315 121.252 259.474 121.197 259.772 121.116C260.135 121.026 260.572 120.911 261.093 120.773C262.239 120.493 263.918 120.116 265.999 119.725C270.157 118.919 275.952 118.052 282.396 117.431C288.83 116.825 294.686 116.6 298.924 116.638C301.044 116.645 302.755 116.721 303.936 116.789C304.478 116.83 304.924 116.869 305.299 116.893C305.614 116.95 305.772 116.975 305.779 116.992Z" fill="white"/>
<path d="M234.916 169.598C234.899 169.605 234.816 169.403 234.664 169.017C234.502 168.575 234.297 168.007 234.041 167.313C233.506 165.835 232.778 163.669 231.913 160.983C230.183 155.611 228.025 148.129 225.744 139.831C223.463 131.533 221.362 124.042 219.73 118.648C218.916 116.007 218.253 113.841 217.768 112.271C217.554 111.566 217.374 110.985 217.237 110.536C217.118 110.138 217.068 109.924 217.085 109.918C217.102 109.911 217.185 110.113 217.337 110.499C217.499 110.942 217.704 111.509 217.96 112.203C218.495 113.682 219.222 115.847 220.088 118.533C221.818 123.905 223.976 131.387 226.257 139.685C228.539 147.975 230.639 155.475 232.272 160.86C233.085 163.501 233.748 165.667 234.233 167.237C234.447 167.95 234.628 168.524 234.765 168.972C234.883 169.378 234.933 169.592 234.916 169.598Z" fill="white"/>
<path d="M297.37 155.78C297.376 155.796 297.161 155.862 296.74 155.962C296.272 156.065 295.671 156.203 294.922 156.373C293.277 156.737 291.007 157.237 288.228 157.843C282.577 159.094 274.793 160.915 266.2 162.948C257.607 164.981 249.804 166.752 244.124 167.903C241.284 168.479 238.987 168.928 237.391 169.209C236.638 169.338 236.025 169.442 235.551 169.521C235.126 169.588 234.906 169.613 234.9 169.597C234.894 169.58 235.11 169.514 235.53 169.414C235.999 169.311 236.599 169.174 237.348 169.004C238.994 168.639 241.263 168.14 244.043 167.533C249.693 166.282 257.477 164.461 266.07 162.428C274.663 160.395 282.465 158.632 288.138 157.472C290.978 156.896 293.275 156.448 294.871 156.166C295.624 156.037 296.237 155.933 296.712 155.855C297.144 155.788 297.364 155.763 297.37 155.78Z" fill="white"/>
<path d="M53.9389 194.001C64.4724 185.242 65.7255 170.641 64.1207 157.766C63.8541 155.614 63.8872 153.321 62.6807 151.524C61.4694 149.726 58.93 148.653 57.0556 149.74C55.5005 150.641 54.9624 152.569 54.1909 154.193C53.1666 156.354 51.521 158.212 49.4995 159.486C48.1734 160.324 46.4922 160.914 45.0511 160.29C43.0747 159.433 42.6194 156.888 42.4418 154.741C42.1083 150.744 41.7742 146.742 41.4406 142.745C41.2631 140.598 41.0712 138.408 40.2146 136.435C39.3581 134.463 37.6941 132.704 35.5764 132.323C33.4582 131.938 31.0087 133.346 30.7581 135.484C30.6556 136.374 30.9166 137.265 30.9376 138.161C30.9586 139.058 30.6245 140.08 29.7894 140.404C28.9451 140.734 28.0197 140.203 27.3162 139.634C24.8793 137.671 23.1063 135.02 21.4369 132.372C19.7626 129.725 18.1307 127.014 15.8821 124.835C13.6335 122.656 10.6536 121.04 7.5268 121.15C4.39409 121.249 1.25204 123.447 0.732981 126.533C0.214951 129.627 2.27996 132.533 4.44499 134.804C7.65418 138.174 11.3594 141.078 15.3953 143.392C16.1223 143.812 16.9116 144.264 17.2483 145.034C17.8464 146.419 16.6049 147.965 15.2144 148.563C13.6405 149.24 11.872 149.236 10.1947 149.585C8.51751 149.933 6.74664 150.837 6.25169 152.476C5.55854 154.75 7.6251 156.879 9.5838 158.219C13.5163 160.903 17.9072 162.905 22.509 164.114C24.1609 164.548 25.8877 164.901 27.2744 165.894C28.6611 166.887 29.6132 168.742 28.9697 170.322C28.3267 171.908 26.3732 172.571 24.6674 172.417C22.9665 172.263 21.3882 171.501 19.7396 171.051C16.6547 170.208 12.8134 170.761 11.1313 173.482C10.0233 175.269 10.1232 177.611 10.9368 179.549C11.7504 181.486 13.1963 183.087 14.7061 184.549C19.9899 189.658 26.5171 193.566 33.6554 195.308C40.8034 197.048 47.2783 197.111 53.9389 194.001Z" fill="#ECF1FE"/>
<path d="M53.0763 194.348C50.5652 188.007 43.9485 173.156 40.2124 166.238C39.2741 164.515 38.3422 162.806 37.4232 161.125C36.5046 159.449 35.5973 157.786 34.6016 156.217C32.6334 153.065 30.4927 150.187 28.379 147.517C26.2647 144.843 24.1584 142.384 22.1687 140.099C20.1742 137.814 18.2784 135.721 16.4692 133.888C12.8588 130.208 9.59534 127.581 7.27785 125.866C6.12128 125.006 5.20406 124.366 4.57478 123.941C4.26845 123.738 4.03039 123.576 3.86111 123.462C3.69772 123.356 3.60899 123.307 3.60899 123.307C3.60899 123.307 3.68468 123.372 3.83939 123.489C4.00969 123.613 4.23855 123.78 4.53619 123.995C5.15296 124.44 6.05662 125.091 7.20016 125.968C9.49107 127.71 12.722 130.355 16.3043 134.048C18.0995 135.887 19.9861 137.987 21.9666 140.277C23.9475 142.573 26.0441 145.033 28.1487 147.709C30.2527 150.379 32.3783 153.254 34.3401 156.392C35.3256 157.957 36.2265 159.606 37.1456 161.287C38.0598 162.968 38.9911 164.672 39.9294 166.395C43.665 173.309 50.2796 188.14 52.8033 194.46" fill="white"/>
<path d="M34.5208 156.196C34.5456 156.198 34.5841 155.865 34.6381 155.26C34.6921 154.655 34.7471 153.78 34.7999 152.699C34.9105 150.536 34.9582 147.545 35.0075 144.244C35.0569 140.943 35.1595 137.961 35.3148 135.803C35.3876 134.725 35.4576 133.853 35.517 133.253C35.5715 132.653 35.5901 132.317 35.5701 132.314C35.5502 132.311 35.4869 132.642 35.393 133.241C35.2943 133.841 35.1897 134.712 35.0873 135.788C34.8732 137.947 34.7322 140.938 34.6833 144.244C34.6406 147.515 34.5996 150.475 34.5686 152.694C34.5451 153.728 34.5231 154.589 34.5049 155.254C34.4951 155.86 34.5009 156.193 34.5208 156.196Z" fill="white"/>
<path d="M6.12128 153.57C6.1223 153.58 6.2215 153.589 6.41298 153.589C6.64383 153.589 6.9184 153.584 7.24742 153.584C7.96861 153.577 9.01345 153.565 10.3078 153.59C12.8897 153.622 16.4594 153.8 20.3829 154.167C24.3076 154.543 27.8464 155.034 30.3974 155.472C31.6719 155.681 32.6995 155.877 33.4107 156.008C33.7362 156.067 34.0067 156.117 34.2319 156.157C34.4216 156.187 34.5213 156.201 34.5246 156.185C34.5285 156.175 34.4316 156.141 34.2495 156.092C34.0276 156.037 33.7599 155.967 33.4416 155.882C32.7408 155.711 31.7146 155.48 30.4419 155.241C27.8998 154.748 24.3568 154.219 20.4171 153.839C16.4833 153.469 12.9031 153.331 10.3124 153.354C9.0162 153.358 7.97009 153.405 7.24764 153.447C6.91632 153.472 6.6438 153.496 6.41449 153.51C6.22174 153.545 6.12511 153.56 6.12128 153.57Z" fill="white"/>
<path d="M49.446 185.733C49.4562 185.737 49.5071 185.614 49.6001 185.378C49.6992 185.108 49.8246 184.76 49.9812 184.336C50.3081 183.432 50.7528 182.108 51.2818 180.466C52.3397 177.182 53.6592 172.608 55.0538 167.534C56.4484 162.461 57.7329 157.881 58.7305 154.583C59.228 152.969 59.6333 151.644 59.9298 150.684C60.0611 150.253 60.1709 149.898 60.2549 149.624C60.3275 149.38 60.3579 149.249 60.3476 149.245C60.3374 149.242 60.2866 149.365 60.1936 149.601C60.0945 149.871 59.969 150.219 59.8125 150.643C59.4855 151.547 59.0408 152.87 58.5119 154.513C57.454 157.797 56.1344 162.371 54.7398 167.445C53.3448 172.513 52.0607 177.098 51.0626 180.391C50.5651 182.005 50.1598 183.33 49.8633 184.29C49.7325 184.726 49.6222 185.076 49.5382 185.35C49.4662 185.599 49.4358 185.73 49.446 185.733Z" fill="white"/>
<path d="M11.2622 177.285C11.2584 177.295 11.3903 177.335 11.6473 177.396C11.9339 177.459 12.3013 177.543 12.7592 177.647C13.765 177.87 15.1527 178.176 16.8519 178.546C20.3067 179.311 25.0655 180.425 30.3193 181.667C35.573 182.91 40.3433 183.993 43.8163 184.697C45.5527 185.049 46.9569 185.323 47.9327 185.495C48.3929 185.574 48.768 185.638 49.0579 185.686C49.3177 185.727 49.4519 185.743 49.4557 185.732C49.4596 185.722 49.3276 185.682 49.0707 185.621C48.7841 185.558 48.4167 185.474 47.9588 185.37C46.953 185.147 45.5652 184.842 43.866 184.471C40.4112 183.706 35.6524 182.593 30.3987 181.35C25.1449 180.107 20.3752 179.029 16.9065 178.319C15.17 177.967 13.7659 177.693 12.7901 177.521C12.3299 177.442 11.9548 177.379 11.6649 177.331C11.4003 177.29 11.266 177.275 11.2622 177.285Z" fill="white"/>
<path d="M219.892 144.272L243.399 120.64L231.583 98.9174C219.767 83.7785 194.75 84.7524 194.75 84.7524C194.75 84.7524 177.727 83.1084 157.855 86.9808C137.983 90.8532 139.587 104.013 139.587 104.013L136.925 152.764L134.068 192.462L207.36 193.943L219.892 144.272Z" fill="#F4D532"/>
<path d="M180.412 191.652L246.061 192.455C261.838 192.649 272.362 176.233 265.613 161.959L237.545 109.857L211.975 127.154L229.411 163.377L176.271 164.327L180.412 191.652Z" fill="#F4D532"/>
<path d="M141.929 96.0967L89.2483 177.502L119.979 179.513C119.979 179.513 138.333 150.567 137.92 151.167C137.173 152.242 141.929 96.0967 141.929 96.0967Z" fill="#F4D532"/>
<path d="M213.291 131.844C213.307 131.844 213.275 131.696 213.221 131.423C213.143 131.112 213.057 130.722 212.941 130.247C212.699 129.226 212.341 127.746 211.976 125.899C211.61 124.06 211.213 121.855 210.948 119.385C210.699 116.923 210.543 114.181 210.917 111.36C211.337 108.547 212.396 105.992 213.633 103.865C214.879 101.73 216.272 99.9768 217.541 98.5977C218.81 97.2186 219.931 96.1901 220.732 95.5123C221.526 94.8266 221.986 94.4682 221.962 94.4371C221.954 94.4293 221.83 94.5072 221.604 94.663C221.378 94.8266 221.036 95.0526 220.631 95.3876C219.798 96.0343 218.638 97.0394 217.331 98.4029C216.023 99.7664 214.583 101.52 213.307 103.678C212.03 105.828 210.94 108.423 210.504 111.306C210.123 114.189 210.294 116.955 210.559 119.432C210.847 121.91 211.275 124.123 211.68 125.961C212.084 127.8 212.481 129.273 212.777 130.286C212.925 130.792 213.042 131.182 213.128 131.447C213.229 131.712 213.275 131.844 213.291 131.844Z" fill="#251A51"/>
<path d="M215.4 134.649C215.377 134.657 215.54 135.078 215.852 135.826C216.163 136.574 216.638 137.649 217.229 138.966C218.42 141.607 220.109 145.238 222.055 149.212C224.001 153.185 225.838 156.746 227.2 159.302C227.878 160.579 228.438 161.608 228.843 162.317C229.24 163.026 229.473 163.408 229.497 163.392C229.52 163.377 229.333 162.971 228.983 162.239C228.594 161.452 228.08 160.416 227.457 159.161C226.142 156.505 224.375 152.952 222.421 149.017C220.506 145.067 218.778 141.498 217.486 138.826C216.879 137.571 216.373 136.527 215.992 135.74C215.641 135.031 215.423 134.634 215.4 134.649Z" fill="#251A51"/>
<path d="M180.412 191.652C180.42 191.652 180.42 191.605 180.412 191.512C180.404 191.403 180.397 191.27 180.381 191.114C180.342 190.74 180.288 190.218 180.225 189.564C180.07 188.177 179.86 186.206 179.579 183.72C178.996 178.687 178.178 171.589 177.213 163.228L177.026 163.439C182.934 163.447 189.504 163.447 196.416 163.454C209.656 163.431 221.635 163.408 230.338 163.392C234.658 163.369 238.16 163.345 240.62 163.33C241.811 163.314 242.753 163.299 243.414 163.291C243.718 163.283 243.959 163.275 244.138 163.267C244.302 163.26 244.387 163.252 244.387 163.244C244.387 163.236 244.302 163.228 244.138 163.221C243.951 163.213 243.71 163.205 243.414 163.197C242.745 163.19 241.811 163.174 240.62 163.158C238.168 163.143 234.658 163.119 230.338 163.096C221.635 163.08 209.648 163.057 196.416 163.034C189.504 163.041 182.926 163.049 177.026 163.049H176.816L176.84 163.26C177.867 171.612 178.731 178.702 179.354 183.736C179.673 186.213 179.922 188.185 180.101 189.572C180.194 190.226 180.264 190.74 180.311 191.114C180.334 191.278 180.358 191.403 180.373 191.512C180.397 191.605 180.404 191.652 180.412 191.652Z" fill="#251A51"/>
<path d="M228.951 163.945C229.006 163.977 229.457 163.314 230.259 162.301C231.061 161.296 232.259 159.964 233.762 158.694C235.264 157.424 236.774 156.466 237.903 155.842C239.031 155.211 239.763 154.884 239.74 154.822C239.724 154.775 238.946 155.016 237.77 155.585C236.595 156.154 235.03 157.089 233.505 158.382C231.979 159.676 230.788 161.063 230.033 162.122C229.27 163.197 228.912 163.922 228.951 163.945Z" fill="#251A51"/>
<path d="M135.835 169.104C135.85 169.104 135.881 168.87 135.936 168.434C135.99 167.958 136.06 167.312 136.154 166.493C136.333 164.811 136.574 162.372 136.839 159.349C137.368 153.31 137.983 144.966 138.536 135.733C139.08 126.5 139.462 118.139 139.68 112.085C139.789 109.055 139.867 106.608 139.898 104.917C139.913 104.099 139.921 103.445 139.929 102.969C139.929 102.525 139.929 102.292 139.913 102.292C139.898 102.292 139.874 102.525 139.851 102.969C139.828 103.452 139.789 104.099 139.742 104.917C139.656 106.647 139.54 109.086 139.392 112.085C139.096 118.139 138.676 126.492 138.131 135.725C137.586 144.95 137.018 153.302 136.559 159.341C136.325 162.333 136.138 164.764 136.006 166.493C135.944 167.312 135.897 167.958 135.866 168.441C135.827 168.862 135.819 169.096 135.835 169.104Z" fill="#251A51"/>
<path d="M178.21 173.162C178.21 173.162 165.109 169.384 160.774 168.277C159.085 167.849 151.846 171.667 146.856 174.838C146.856 174.838 139.976 178.92 140.528 180.183C141.143 181.57 143.681 181.281 147.728 179.38C147.728 179.38 146.319 183.486 149.09 183.393C149.09 183.393 147.713 187.826 150.312 188.286C152.912 188.746 153.519 183.089 155.816 182.777C158.104 182.473 162.844 182.162 162.844 182.162C162.844 182.162 166.791 188.699 169.842 189.158C172.901 189.618 179.976 188.792 179.976 188.792L178.21 173.162Z" fill="#F6AEA6"/>
<path d="M155.854 174.066C155.792 173.973 154.157 174.9 152.196 176.139C150.234 177.377 148.693 178.453 148.755 178.554C148.818 178.647 150.452 177.72 152.414 176.481C154.375 175.243 155.916 174.16 155.854 174.066Z" fill="#251A51"/>
<path d="M156.632 176.583C156.586 176.482 154.64 177.276 152.289 178.367C149.938 179.45 148.07 180.416 148.117 180.518C148.164 180.619 150.109 179.824 152.46 178.733C154.811 177.65 156.679 176.684 156.632 176.583Z" fill="#251A51"/>
<path d="M155.232 182.699C155.216 182.59 153.893 182.676 152.274 182.902C150.655 183.12 149.355 183.393 149.37 183.502C149.386 183.611 150.709 183.525 152.328 183.299C153.947 183.081 155.247 182.809 155.232 182.699Z" fill="#251A51"/>
<path d="M195.249 37.9408C194.945 38.9459 195.287 40.1146 196.097 40.7847C196.899 41.4626 198.113 41.595 199.047 41.1275C200.822 40.2237 201.047 37.7772 200.697 35.8137C200.347 33.8503 199.685 31.7621 200.503 29.9467C201.133 28.5598 202.495 27.6794 203.554 26.5886C205.406 24.6875 206.387 21.9137 205.936 19.2957C205.484 16.6778 203.523 14.3248 200.97 13.6157C198.362 12.8833 195.147 13.6859 193.209 11.8003C191.8 10.429 191.715 8.18506 190.625 6.55663C188.936 4.0166 185.363 3.61924 182.343 4.03219C179.323 4.44514 176.248 5.41128 173.298 4.67888C170.831 4.06335 168.799 2.34143 166.487 1.28179C161.475 -1.01671 155.061 0.229933 151.262 4.23477C147.464 8.2396 146.569 14.7143 149.122 19.6074C150.04 21.3605 151.426 22.9577 153.263 23.7057" fill="#251A51"/>
<path d="M180.226 102.291C171.866 102.283 165.118 95.4347 165.234 87.0666L165.429 72.7458C165.429 72.7458 153.403 71.5381 152.609 59.6171C151.815 47.6961 152.391 20.1921 152.391 20.1921C165.865 13.507 181.899 14.6368 194.299 23.1607L196.136 24.4229L195.241 87.4873C195.132 95.7074 188.438 102.307 180.226 102.291Z" fill="#F6AEA6"/>
<path d="M156.672 40.8083C157.154 39.0085 156.391 37.0918 155.683 38.3228C155.652 38.3774 155.621 38.4475 155.605 38.5332C155.123 40.333 155.885 42.2497 156.594 41.0187C156.617 40.9641 156.648 40.8862 156.672 40.8083Z" fill="#251A51"/>
<path d="M173.438 39.0478C173.298 39.9438 173.461 40.9489 173.804 41.284C174.146 41.6268 174.543 41.1749 174.691 40.2789C174.831 39.3828 174.668 38.3777 174.325 38.0427C173.975 37.7077 173.586 38.1518 173.438 39.0478Z" fill="#251A51"/>
<path d="M165.28 52.3629C165.288 52.2304 164.261 52.0824 162.595 51.9422C162.159 51.9188 161.824 51.8409 161.778 51.6071C161.684 51.35 161.824 50.8825 162.019 50.3605C162.385 49.2541 162.75 48.1243 163.132 46.9478C164.665 42.0937 165.708 38.0966 165.467 38.0187C165.218 37.9408 163.778 41.8132 162.245 46.6673C161.886 47.8516 161.536 48.9814 161.202 50.0956C161.069 50.602 160.805 51.1942 161.061 51.8954C161.202 52.246 161.552 52.4798 161.84 52.5421C162.128 52.6122 162.369 52.5966 162.579 52.5966C164.245 52.5733 165.28 52.4954 165.28 52.3629Z" fill="#251A51"/>
<path d="M170.713 53.8906C170.597 55.7372 170.106 56.9916 167.927 57.724C165.856 58.4175 163.895 57.7396 162.79 56.6722C162.79 56.6722 164.876 59.633 168.238 58.1837C171.741 56.68 170.713 53.8906 170.713 53.8906Z" fill="#251A51"/>
<path d="M165.436 72.7456C165.436 72.7456 172.97 72.7768 180.708 67.3071C180.708 67.3071 176.395 72.2002 165.428 73.3611L165.436 72.7456Z" fill="#251A51"/>
<path d="M152.313 23.1993C152.313 23.1993 159.505 26.8613 169.048 22.3189C175.306 19.3425 182.569 17.9712 184.141 19.249C185.713 20.5268 185.924 26.9314 192.034 28.9183C192.034 28.9183 191.372 41.112 196.245 40.7691C201.118 40.4263 198.44 21.4696 198.44 21.4696L186.663 15.4234L173.734 12.7197L161.475 14.2079L151.963 16.6155L152.313 23.1993Z" fill="#251A51"/>
<path d="M195.35 36.8579C195.545 36.7566 203.406 33.9828 203.593 42.1561C203.78 50.3294 195.545 48.8256 195.521 48.5919C195.506 48.3581 195.35 36.8579 195.35 36.8579Z" fill="#F6AEA6"/>
<path d="M197.95 45.4365C197.989 45.4131 198.098 45.53 198.339 45.6391C198.573 45.7404 198.978 45.8027 199.406 45.6391C200.262 45.304 200.955 43.9172 200.962 42.4446C200.97 41.6966 200.799 40.9953 200.519 40.4188C200.254 39.8266 199.857 39.4215 199.421 39.3513C198.985 39.2578 198.682 39.5305 198.588 39.7643C198.487 39.998 198.542 40.1539 198.495 40.1694C198.472 40.1928 198.316 40.037 198.378 39.6942C198.409 39.5305 198.503 39.3358 198.69 39.1721C198.884 39.0085 199.164 38.9228 199.468 38.9462C200.098 38.9773 200.674 39.5461 200.978 40.1772C201.313 40.8161 201.523 41.6109 201.523 42.4446C201.507 44.0886 200.698 45.6547 199.53 46.0209C198.962 46.1845 198.479 46.0209 198.223 45.8339C197.966 45.6391 197.919 45.4521 197.95 45.4365Z" fill="#251A51"/>
<path d="M199.507 11.2784C199.554 11.1849 198.215 10.8031 196.674 11.3797C195.132 11.9485 194.37 13.1172 194.463 13.1561C194.549 13.2418 195.389 12.2757 196.814 11.7615C198.23 11.2238 199.491 11.403 199.507 11.2784Z" fill="#251A51"/>
<path d="M194.595 6.38536C194.455 6.39315 194.673 8.10728 194.393 10.1487C194.113 12.2134 193.147 13.647 193.256 13.7094C193.295 13.7405 193.591 13.4211 193.941 12.8056C194.284 12.1978 194.65 11.2706 194.798 10.211C195.086 8.07612 194.673 6.36978 194.595 6.38536Z" fill="#251A51"/>
<path d="M161.055 34.0528C161.101 33.9593 160.751 33.6788 160.09 33.4061C159.428 33.1334 158.447 32.9074 157.35 32.9152C156.252 32.9308 155.279 33.1801 154.625 33.4606C153.972 33.7411 153.621 34.0294 153.668 34.1307C153.769 34.3489 155.341 33.7333 157.357 33.7255C159.373 33.6866 160.961 34.2709 161.055 34.0528Z" fill="#251A51"/>
<path d="M179.253 32.3311C179.3 32.2376 178.949 31.9571 178.288 31.6844C177.626 31.4117 176.645 31.1858 175.548 31.1936C174.45 31.2091 173.477 31.4585 172.824 31.739C172.17 32.0195 171.819 32.3077 171.866 32.409C171.967 32.6272 173.54 32.0117 175.556 32.0039C177.58 31.9649 179.16 32.5493 179.253 32.3311Z" fill="#251A51"/>
<path d="M162.463 35.3388C162.456 35.3466 162.44 35.518 162.432 35.8219C162.424 36.1647 162.409 36.6011 162.393 37.1387C162.378 37.7152 162.37 38.4009 162.354 39.1878C162.354 39.9748 162.308 40.8942 161.965 41.8369C161.638 42.7719 161.078 43.7381 160.245 44.5562C159.404 45.3587 158.307 46.0288 157.03 46.3249C156.392 46.4729 155.723 46.5508 155.038 46.4963C154.353 46.4651 153.66 46.3249 152.998 46.0677C151.667 45.5769 150.461 44.6185 149.643 43.3485C148.865 42.1408 148.515 40.7306 148.546 39.3592C148.546 37.9646 148.538 36.6166 148.538 35.331L148.351 35.518C152.43 35.4791 155.917 35.4479 158.455 35.4245C159.669 35.4012 160.657 35.3856 161.389 35.37C161.701 35.3622 161.965 35.3544 162.183 35.3466C162.354 35.3544 162.456 35.3466 162.463 35.3388C162.479 35.3232 162.129 35.3077 161.459 35.2921C160.735 35.2765 159.762 35.2609 158.571 35.2375C156.011 35.2142 152.477 35.183 148.344 35.144H148.157V35.331C148.157 36.6166 148.149 37.9646 148.149 39.3592C148.102 40.7773 148.476 42.2966 149.301 43.5667C150.165 44.9068 151.449 45.9275 152.858 46.4339C153.559 46.7066 154.29 46.8469 155.014 46.878C155.738 46.9248 156.446 46.8469 157.116 46.6833C158.462 46.3638 159.614 45.647 160.478 44.7899C161.342 43.9173 161.918 42.9044 162.238 41.9149C162.572 40.9253 162.603 39.9748 162.58 39.1567C162.565 38.3541 162.549 37.6529 162.541 37.0608C162.526 36.5309 162.51 36.1024 162.502 35.7596C162.479 35.4713 162.471 35.3232 162.463 35.3388Z" fill="#251A51"/>
<path d="M181.542 34.9336C181.534 34.9413 181.518 35.1128 181.511 35.4166C181.503 35.7595 181.487 36.1958 181.472 36.7334C181.456 37.31 181.448 37.9956 181.433 38.7826C181.433 39.5695 181.386 40.4889 181.044 41.4317C180.717 42.3666 180.156 43.3328 179.323 44.1509C178.483 44.9534 177.385 45.6235 176.109 45.9196C175.47 46.0676 174.801 46.1455 174.116 46.091C173.431 46.0598 172.738 45.9196 172.077 45.6625C170.746 45.1716 169.539 44.2132 168.722 42.9432C167.943 41.7355 167.593 40.3253 167.624 38.954C167.624 37.5593 167.616 36.2114 167.616 34.9258L167.43 35.1128C171.508 35.0738 174.995 35.0426 177.533 35.0193C178.747 34.9959 179.736 34.9803 180.468 34.9647C180.779 34.9569 181.044 34.9491 181.261 34.9413C181.44 34.9491 181.534 34.9413 181.542 34.9336C181.557 34.918 181.207 34.9024 180.538 34.8868C179.814 34.8712 178.841 34.8556 177.65 34.8323C175.089 34.8089 171.555 34.7777 167.422 34.7388H167.235V34.9258C167.235 36.2114 167.227 37.5593 167.227 38.954C167.181 40.372 167.554 41.8914 168.379 43.1614C169.243 44.5015 170.528 45.5222 171.936 46.0287C172.637 46.3014 173.369 46.4416 174.093 46.4728C174.816 46.5195 175.525 46.4416 176.194 46.278C177.541 45.9585 178.693 45.2417 179.557 44.3846C180.421 43.512 180.997 42.4991 181.316 41.5096C181.651 40.5201 181.682 39.5695 181.658 38.7514C181.643 37.9489 181.627 37.2476 181.619 36.6555C181.604 36.1257 181.588 35.6971 181.581 35.3543C181.565 35.0738 181.557 34.9258 181.542 34.9336Z" fill="#251A51"/>
<path d="M162.284 35.8998C162.284 36.0089 163.491 36.1024 164.97 36.1024C166.456 36.1024 167.655 36.0089 167.655 35.8998C167.655 35.7908 166.449 35.6973 164.97 35.6973C163.491 35.6973 162.284 35.7908 162.284 35.8998Z" fill="#251A51"/>
<path d="M196.432 36.009C196.432 35.9 193.101 35.7987 188.991 35.7831C184.881 35.7675 181.55 35.8532 181.55 35.9623C181.55 36.0714 184.881 36.1727 188.991 36.1882C193.101 36.2038 196.432 36.1259 196.432 36.009Z" fill="#251A51"/>
<path d="M234.468 20.6279C233.818 21.8865 235.954 54.4574 235.954 54.4574L252.067 53.1307L250.188 61.7199L258.065 52.8926L273.82 51.0727L272.863 19.5054L234.468 20.6279Z" fill="#ECF1FE"/>
<path d="M243.285 35.204L246.668 46.9227L251.402 46.0043L250.94 43.6401L252.29 42.8407L254.836 45.3409L262.867 43.7762L263.909 40.7147L261.62 40.2044L264.576 39.218L263.927 35.9354L261.381 36.1565L264.883 35.204L264.08 31.139L255.913 32.7208C255.913 32.7208 256.442 27.04 254.033 25.2031L252.188 25.5603C252.188 25.5603 252.803 27.3462 252.752 28.4347C252.7 29.5402 251.094 34.6087 251.094 34.6087L248.582 35.7823L247.984 34.1325L243.285 35.204Z" fill="#F4D532"/>
<path d="M112.849 126.92L138.683 190.88H185.285V193.771H46.4996L18.1121 126.92H112.849Z" fill="#251A51"/>
<path d="M73.3458 164.685C74.2798 167.903 77.0119 169.937 79.4327 169.235C81.8612 168.526 83.0677 165.347 82.1337 162.129C81.1996 158.912 78.4675 156.878 76.0467 157.579C73.6182 158.28 72.4117 161.467 73.3458 164.685Z" fill="#FAFAFA"/>
</svg>
