<svg width="358" height="300" viewBox="0 0 358 300" fill="none" xmlns="http://www.w3.org/2000/svg">
<path fill-rule="evenodd" clip-rule="evenodd" d="M252.379 -44.3386C290.888 -25.4709 336.032 -19.6869 364.192 12.6542C395.917 49.0894 426.056 96.7069 416.41 144.046C406.854 190.946 355.262 213.894 317.26 242.994C286.595 266.476 255.406 288.475 217.583 296.298C179.971 304.077 143.204 294.511 105.583 286.774C56.2681 276.632 -6.70249 285.556 -35.4927 244.253C-64.0793 203.242 -32.7257 147.782 -25.8129 98.2712C-19.2122 50.9953 -25.7602 -0.857167 3.94691 -38.2212C34.3581 -76.4708 83.6588 -99.656 132.51 -100.859C177.78 -101.974 211.714 -64.2624 252.379 -44.3386Z" fill="#00B4FF"/>
</svg>
