<svg width="337" height="228" viewBox="0 0 337 228" fill="none" xmlns="http://www.w3.org/2000/svg">
<path d="M145.181 199.913C106.65 199.913 71.3808 199.928 44.106 199.964C44.1133 200.067 44.1206 200.17 44.1206 200.273C71.3954 200.302 106.658 200.324 145.181 200.324C231.659 200.324 301.744 200.236 301.744 200.118C301.744 200.008 231.659 199.913 145.181 199.913Z" fill="#263238"/>
<path d="M40.5218 136.301L41.0994 136.33L42.2547 136.386C43.0011 136.479 43.6988 136.457 44.4452 136.55C45.7693 136.671 47.2621 136.857 48.5862 136.979C51.283 137.337 53.9085 137.861 56.4626 138.551C61.5222 139.817 66.4879 141.529 71.1908 143.625C75.8937 145.721 80.334 148.2 84.6315 151.011C88.9291 153.821 92.7952 156.95 96.5899 160.246C100.385 163.541 103.748 167.154 106.991 170.818C108.517 172.758 110.114 174.532 111.52 176.523L113.725 179.401L115.689 182.381C119.059 187.351 121.949 192.524 124.599 197.798L115.927 177.248C113.453 173.395 109.869 168.923 105.392 164.012C98.6881 156.504 89.8389 148.269 80.1685 139.429C72.2866 132.146 65.4923 125.764 59.5226 120.667C53.553 115.569 48.3141 112.203 44.6499 110.893C48.3628 112.319 54.529 113.525 62.2211 116.672C69.7931 119.869 78.6735 124.826 86.9903 132.47C96.492 141.245 103.495 150.803 108.425 159.468L89.6676 115.018C87.8754 112.782 85.1194 110.273 81.7144 107.902C76.5695 104.088 70.0292 100.32 63.0278 95.7934C57.354 92.0671 52.8093 88.0004 48.9658 84.5899C45.2424 81.1287 42.2689 78.4391 40.1688 77.1491C42.2689 78.4391 46.3385 79.034 51.4468 80.4147C56.5551 81.7953 62.6535 83.8463 68.6422 87.9837C75.9098 92.8056 81.4515 98.8998 85.0653 104.447L77.9036 87.4759C73.3901 80.1317 65.7796 69.47 59.982 55.7311C53.7947 41.0686 53.7282 28.1755 51.5846 23.0956C53.7769 28.2909 62.9672 37.3339 69.1058 51.881C74.8547 65.5044 77.2317 78.5106 79.3442 86.868L87.1393 105.34C84.1499 94.9049 81.8703 82.1296 82.2058 67.8429C82.5517 55.5918 85.1438 44.9772 88.2528 36.5926C91.2417 28.2587 94.676 22.3211 96.7255 18.464C94.7961 22.2704 93.6758 28.9997 93.1175 37.396C92.5592 45.7923 92.3716 56.0724 92.0709 67.7603C91.7354 82.0471 91.7306 95.1063 92.5329 106.057C93.0029 113.203 94.0696 119.417 95.2493 124.224L107.332 152.856C106.182 149.125 105.32 145.408 104.459 141.692C102.587 133.233 101.412 124.752 100.815 116.299C100.169 107.731 99.9812 99.2413 100.442 90.6141C100.612 86.3258 101.023 81.9362 101.482 77.6621C102.061 73.3373 102.761 68.9618 103.963 64.1022C102.475 69.6263 103.847 74.2161 106.129 78.2853C107.246 80.2621 108.604 82.1376 110.032 83.847C111.461 85.5564 113.08 87.049 114.531 88.4769C116.684 90.5609 117.343 92.4588 117.065 94.4804C116.907 96.4514 116.002 98.3293 114.977 100.258C113.048 104.064 110.781 107.741 114.523 110.242C118.146 112.794 122.151 114.912 123.47 118.708C124.129 120.606 124.286 122.988 123.46 126.057C122.682 129.241 120.921 133.112 118.181 138.349C116.466 141.657 115.328 144.994 114.31 148.279C113.413 151.514 112.875 154.598 112.48 157.348C112.205 160.049 112.144 162.25 112.129 163.889C112.178 164.005 112.178 164.005 112.058 164.055L125.991 197.075C125.819 196.331 120.82 174.095 128.722 157.295C136.196 141.492 145.948 133.433 148.147 130.601C145.828 133.483 137.449 160.549 134.85 169.807C129.546 188.468 141.098 209.185 118.771 196.721C116.551 195.482 114.237 194.69 111.923 193.899C109.657 193.223 107.321 192.713 105.153 192.267C102.07 191.664 100.21 190.273 99.1413 188.411C97.9529 186.601 97.5562 184.32 96.968 182.256C96.7697 181.115 96.4513 180.026 96.1816 179.051C95.9118 178.077 95.4734 177.038 95.0123 176.281C94.0414 174.65 92.6164 173.619 90.2345 173.672C85.5195 173.894 80.9767 174.859 77.1176 173.087C76.1049 172.698 75.1149 172.028 74.3163 171.141C73.3976 170.304 72.5016 169.186 71.5081 167.837C69.6411 165.089 67.6245 161.316 64.7571 155.861C61.2336 149.187 55.2379 143.693 49.9277 140.493C44.7376 137.243 40.1355 136.056 39.5579 136.028L40.5218 136.301Z" fill="#ECF1FE"/>
<path d="M209.874 197.471C225.218 201.044 239.473 192.053 250.16 181.641C251.948 179.902 254.072 178.341 254.883 175.986C255.689 173.628 254.909 170.555 252.611 169.591C250.705 168.792 248.564 169.637 246.54 170.057C243.848 170.619 241.002 170.401 238.43 169.433C236.742 168.799 235.033 167.668 234.604 165.914C234.018 163.507 236.034 161.322 237.879 159.668C241.312 156.587 244.748 153.501 248.18 150.42C250.025 148.766 251.899 147.07 253.112 144.915C254.326 142.76 254.783 140.013 253.661 137.807C252.543 135.598 249.552 134.33 247.418 135.586C246.531 136.11 245.895 136.968 245.088 137.609C244.281 138.251 243.112 138.655 242.235 138.114C241.346 137.57 241.19 136.353 241.223 135.313C241.33 131.716 242.53 128.249 243.797 124.88C245.061 121.507 246.413 118.129 246.849 114.555C247.285 110.98 246.696 107.127 244.425 104.336C242.158 101.534 237.961 100.18 234.773 101.847C231.576 103.521 230.347 107.432 229.768 110.994C228.908 116.275 228.819 121.688 229.5 126.995C229.621 127.953 229.754 128.99 229.282 129.833C228.427 131.344 226.149 131.279 224.634 130.42C222.921 129.448 221.697 127.823 220.213 126.528C218.728 125.233 216.67 124.237 214.824 124.921C212.258 125.865 211.742 129.238 211.873 131.964C212.144 137.433 213.358 142.848 215.445 147.905C216.194 149.721 217.07 151.549 217.122 153.51C217.175 155.471 216.137 157.631 214.241 158.139C212.341 158.651 210.377 157.32 209.333 155.65C208.294 153.983 207.896 152.008 207.163 150.184C205.794 146.771 202.62 143.634 198.957 143.982C196.549 144.207 194.472 145.925 193.261 148.016C192.05 150.107 191.586 152.544 191.295 154.943C190.28 163.335 191.231 172.032 194.592 179.785C197.96 187.546 202.399 193.525 209.874 197.471Z" fill="#ECF1FE"/>
<path d="M208.958 196.92C213.026 190.215 222.045 173.837 225.792 165.608C226.72 163.551 227.64 161.51 228.542 159.501C229.441 157.495 230.334 155.509 231.082 153.506C232.604 149.513 233.756 145.552 234.735 141.761C235.718 137.966 236.51 134.327 237.223 130.917C237.932 127.502 238.534 124.31 238.958 121.379C239.824 115.514 239.966 110.698 239.929 107.383C239.914 105.726 239.864 104.441 239.816 103.569C239.79 103.147 239.772 102.816 239.76 102.582C239.743 102.358 239.727 102.243 239.727 102.243C239.727 102.243 239.719 102.358 239.72 102.58C239.724 102.823 239.73 103.149 239.74 103.57C239.76 104.445 239.791 105.726 239.782 107.382C239.775 110.692 239.594 115.491 238.697 121.339C238.258 124.262 237.643 127.449 236.919 130.855C236.19 134.265 235.391 137.896 234.4 141.683C233.413 145.466 232.254 149.411 230.74 153.388C229.989 155.378 229.104 157.349 228.201 159.359C227.295 161.364 226.379 163.401 225.451 165.458C221.708 173.683 212.706 190.046 208.665 196.748" fill="white"/>
<path d="M231.045 153.417C231.06 153.442 231.392 153.246 231.984 152.875C232.576 152.505 233.416 151.947 234.444 151.245C236.504 149.844 239.279 147.811 242.338 145.564C245.398 143.317 248.203 141.34 250.289 139.984C251.328 139.302 252.176 138.761 252.768 138.398C253.355 138.032 253.676 137.815 253.665 137.795C253.654 137.775 253.307 137.947 252.692 138.277C252.074 138.603 251.203 139.111 250.145 139.765C248.017 141.068 245.178 143.016 242.113 145.267C239.086 147.499 236.343 149.517 234.288 151.029C233.324 151.726 232.519 152.304 231.897 152.749C231.335 153.16 231.034 153.397 231.045 153.417Z" fill="white"/>
<path d="M213.73 125.562C213.722 125.569 213.782 125.667 213.916 125.842C214.076 126.053 214.271 126.302 214.5 126.603C215.007 127.259 215.744 128.209 216.619 129.413C218.383 131.802 220.699 135.198 223.087 139.049C225.467 142.908 227.475 146.492 228.845 149.135C229.538 150.449 230.072 151.527 230.446 152.27C230.618 152.609 230.76 152.892 230.879 153.126C230.984 153.32 231.041 153.421 231.057 153.414C231.069 153.41 231.033 153.298 230.952 153.096C230.848 152.855 230.727 152.561 230.583 152.21C230.253 151.449 229.752 150.348 229.087 149.016C227.774 146.343 225.799 142.728 223.411 138.853C221.019 134.989 218.659 131.612 216.839 129.253C215.935 128.068 215.166 127.141 214.626 126.508C214.373 126.222 214.162 125.989 213.989 125.788C213.823 125.636 213.742 125.558 213.73 125.562Z" fill="white"/>
<path d="M214.333 187.61C214.337 187.622 214.485 187.583 214.766 187.505C215.083 187.408 215.488 187.282 215.986 187.131C217.041 186.803 218.564 186.291 220.436 185.635C224.182 184.324 229.291 182.358 234.91 180.113C240.529 177.868 245.62 175.865 249.335 174.489C251.16 173.824 252.656 173.276 253.742 172.882C254.228 172.702 254.63 172.556 254.94 172.443C255.213 172.34 255.354 172.277 255.351 172.265C255.347 172.253 255.199 172.292 254.918 172.371C254.601 172.468 254.196 172.594 253.698 172.745C252.643 173.073 251.12 173.585 249.248 174.24C245.502 175.551 240.393 177.518 234.774 179.763C229.159 182.004 224.065 184.011 220.353 185.382C218.528 186.047 217.032 186.596 215.947 186.99C215.456 187.173 215.058 187.316 214.748 187.429C214.471 187.535 214.33 187.598 214.333 187.61Z" fill="white"/>
<path d="M195.562 146.742C195.55 146.746 195.605 146.894 195.727 147.172C195.868 147.479 196.047 147.874 196.269 148.366C196.763 149.443 197.447 150.927 198.287 152.742C199.985 156.44 202.269 161.575 204.778 167.254C207.287 172.933 209.607 178.058 211.374 181.73C212.257 183.566 212.981 185.044 213.501 186.058C213.748 186.535 213.95 186.923 214.107 187.222C214.25 187.489 214.329 187.622 214.341 187.619C214.353 187.615 214.298 187.466 214.176 187.188C214.035 186.882 213.857 186.487 213.634 185.995C213.14 184.918 212.456 183.434 211.616 181.619C209.918 177.921 207.634 172.785 205.125 167.106C202.616 161.427 200.292 156.307 198.533 152.634C197.65 150.798 196.926 149.321 196.406 148.307C196.159 147.83 195.957 147.442 195.8 147.143C195.653 146.872 195.574 146.738 195.562 146.742Z" fill="white"/>
<path d="M146.148 58.9252C139.314 47.6684 137.65 33.4481 141.688 20.9086C142.176 19.3826 142.797 17.8345 144.04 16.8172C145.282 15.7999 147.301 15.5787 148.389 16.7508C154.623 10.2268 162.9 5.78153 171.686 3.63632C173.439 3.21613 175.258 2.86228 177.033 3.14978C178.808 3.43728 180.561 4.4546 181.293 6.09115C182.026 7.7277 181.404 9.98348 179.74 10.6691C183.091 9.34213 186.463 7.99309 190.013 7.48443C191.3 7.3075 192.765 7.28539 193.741 8.12578C195.072 9.27578 194.828 11.5095 193.719 12.8364C192.609 14.1854 190.901 14.8489 189.259 15.4903C190.324 15.2028 191.433 14.9153 192.543 15.0037C193.652 15.0922 194.784 15.6672 195.25 16.6624C196.137 18.5643 194.273 20.5989 192.476 21.6605C187.883 24.3807 182.425 25.3317 177.1 25.7298C171.775 26.1499 166.383 26.0836 161.102 27.0125C159.35 27.3221 157.53 27.7865 156.221 28.9807C154.002 31.0154 153.958 34.4433 154.113 37.4289C154.357 41.6751 154.734 45.9876 153.825 50.1232C152.915 54.2809 150.519 58.3502 146.636 60.0973" fill="#1B1A51"/>
<path d="M279.298 111.118C279.298 111.118 282.649 95.2393 285.267 93.6027C287.863 91.9662 298.047 83.2748 298.358 85.1325C298.668 86.9902 293.454 91.8777 294.209 94.0008C294.963 96.1018 300.466 96.4999 300.466 96.4999C300.466 96.4999 306.634 96.8537 308.298 95.8585C309.962 94.8633 320.635 84.469 319.814 87.0786C318.993 89.7104 312.691 102.891 308.897 104.793C305.103 106.695 294.941 109.172 294.431 109.238C293.92 109.305 290.57 117.488 290.57 117.488L279.298 111.118Z" fill="#F0BFAC"/>
<path d="M192.432 136.33C192.432 136.33 232.06 186.775 252.784 178.858C273.507 170.963 293.632 113.838 293.632 113.838L277.168 102.891L243.043 141.306L199.532 85.0659L192.432 136.33Z" fill="#E3707F"/>
<path d="M124.847 83.3628C124.847 83.3628 44.2826 150.926 46.7233 164.903C49.164 178.88 102.805 215.822 102.805 215.822L119.268 199.412L80.2494 166.716C80.2494 166.716 128.42 130.867 129.64 125.404C130.86 119.942 124.847 83.3628 124.847 83.3628Z" fill="#E3707F"/>
<path d="M110.736 110.322C110.736 110.322 126.201 173.926 125.602 179.721C125.003 185.515 118.301 200.574 118.301 200.574L210.226 200.39L205.368 98.5344C204.436 88.2286 196.781 79.692 186.575 77.8343C176.856 76.065 162.545 74.9371 142.243 76.4631C129.574 77.4141 118.746 85.9507 114.796 97.9815L110.736 110.322Z" fill="#E3707F"/>
<path d="M138.937 76.8607C137.583 77.5242 167.338 142.168 167.338 142.168L180.384 76.8607C180.384 76.8607 148.034 72.4818 138.937 76.8607Z" fill="white"/>
<path d="M145.238 79.227L146.724 53.6394C146.724 53.6394 141.688 54.2365 140.201 50.3884C138.715 46.5403 143.174 37.672 150.585 43.8864L149.853 22.5449H185.598C185.598 22.5449 192.077 71.951 170.155 71.951V82.3011C170.133 82.3011 155.622 93.5579 145.238 79.227Z" fill="#F0BFAC"/>
<path d="M169.312 50.6541C169.356 50.632 169.445 50.9858 169.955 51.2512C170.421 51.5166 171.398 51.6272 172.108 50.8974C172.463 50.5435 172.751 50.057 172.884 49.482C173.04 48.907 173.062 48.2656 173.017 47.58C172.929 46.1868 172.818 44.6608 172.707 43.0685C172.507 39.8617 172.33 36.9425 172.241 34.8415C172.196 33.7799 172.152 32.9396 172.152 32.3424C172.13 31.7453 172.152 31.4357 172.174 31.4136C172.196 31.4136 172.263 31.7453 172.33 32.3203C172.396 32.9174 172.463 33.7578 172.551 34.7973C172.729 36.8982 172.929 39.7954 173.151 43.0021C173.239 44.5944 173.328 46.1204 173.417 47.5358C173.439 48.2435 173.417 48.9291 173.239 49.5483C173.062 50.1676 172.729 50.7205 172.307 51.0964C171.886 51.4724 171.376 51.6714 170.932 51.6714C170.488 51.6714 170.111 51.5387 169.845 51.3839C169.356 51.0522 169.312 50.6541 169.312 50.6541Z" fill="#1B1A51"/>
<path d="M171.731 56.3599C171.753 56.4041 171.198 56.7801 170.178 56.9791C169.157 57.1782 167.626 57.1118 166.206 56.2935C164.786 55.4753 163.965 54.1705 163.654 53.1753C163.322 52.1801 163.366 51.5166 163.433 51.5166C163.499 51.5166 163.566 52.1358 163.965 53.0426C164.342 53.9493 165.163 55.1214 166.45 55.8734C167.759 56.6253 169.179 56.758 170.156 56.6474C171.11 56.5589 171.686 56.2935 171.731 56.3599Z" fill="#1B1A51"/>
<path d="M164.408 51.1625C164.363 51.2731 163.653 51.1404 162.921 51.5606C162.167 51.9587 161.923 52.6664 161.812 52.6222C161.767 52.6222 161.723 52.401 161.856 52.0914C161.967 51.7818 162.278 51.4058 162.699 51.1625C163.143 50.9192 163.609 50.8529 163.942 50.9192C164.252 50.9635 164.408 51.0962 164.408 51.1625Z" fill="#1B1A51"/>
<path d="M146.747 50.9191C146.702 50.8527 147.346 50.6094 147.656 49.6806C147.812 49.2383 147.834 48.6412 147.612 48.0662C147.412 47.4912 146.835 47.0046 146.17 47.1152C145.571 47.1594 145.238 47.9113 145.482 48.3315L145.105 48.4642C144.772 46.4296 144.572 44.97 144.661 44.97C144.75 44.9479 145.105 46.3633 145.504 48.3979L145.726 49.5258L145.105 48.5306C144.683 47.845 145.193 46.7835 146.081 46.6729C146.525 46.6065 146.969 46.7392 147.301 46.9825C147.634 47.2258 147.856 47.5796 147.967 47.9113C148.211 48.5969 148.122 49.2825 147.923 49.7691C147.723 50.2556 147.39 50.5873 147.146 50.7421C146.924 50.9191 146.747 50.9412 146.747 50.9191Z" fill="#1B1A51"/>
<path d="M164.564 29.8876C164.675 30.4847 163.366 31.2587 161.635 31.5905C159.904 31.9222 158.396 31.701 158.285 31.1039C158.174 30.5068 159.483 29.7328 161.213 29.401C162.944 29.0693 164.453 29.2904 164.564 29.8876Z" fill="#1B1A51"/>
<path d="M182.868 29.6222C182.824 30.2414 181.67 30.6616 180.317 30.551C178.941 30.4404 177.876 29.8654 177.92 29.2683C177.965 28.6491 179.118 28.2289 180.472 28.3394C181.825 28.4279 182.913 29.0029 182.868 29.6222Z" fill="#1B1A51"/>
<path d="M173.351 71.7526C173.351 71.7747 173.018 71.8632 172.419 71.9516C171.82 72.0622 170.932 72.1507 169.845 72.1728C167.67 72.217 164.631 71.8632 161.502 70.691C158.374 69.4968 155.866 67.7497 154.269 66.2679C153.47 65.5381 152.871 64.8968 152.494 64.4102C152.117 63.9458 151.917 63.6583 151.939 63.6583C152.006 63.5919 152.849 64.6314 154.491 66.0246C156.111 67.4179 158.596 69.0766 161.658 70.2487C164.719 71.3987 167.693 71.7968 169.845 71.841C172.019 71.8853 173.351 71.6641 173.351 71.7526Z" fill="#1B1A51"/>
<path d="M105.033 213.212C105.033 213.212 106.519 222.456 111.423 222.456C116.326 222.456 124.713 221.306 124.713 221.306C124.713 221.306 132.102 230.218 132.59 227.343C133.078 224.468 130.771 218.143 130.771 218.143C130.771 218.143 134.521 227.056 135.963 222.743C137.405 218.431 131.059 211.509 131.059 211.509C131.059 211.509 142.331 216.971 142.619 214.671C142.908 212.371 132.701 206.334 132.612 206.334C132.524 206.334 120.964 206.334 120.964 206.334L117.857 200.429L105.033 213.212Z" fill="#F0BFAC"/>
<path d="M120.942 206.334C120.942 206.334 122.473 191.737 123.826 193.595C125.157 195.453 125.424 207.439 125.424 207.439L120.942 206.334Z" fill="#F0BFAC"/>
<path d="M170.976 200.984C170.843 200.984 169.933 187.815 168.935 171.574C167.936 155.332 167.226 142.146 167.359 142.146C167.492 142.146 168.402 155.298 169.401 171.557C170.377 187.815 171.087 200.984 170.976 200.984Z" fill="#1B1A51"/>
<path d="M166.273 142.168C166.273 142.168 165.296 141.725 163.677 140.686C162.057 139.647 159.838 137.877 157.597 135.246C155.356 132.614 153.159 129.031 151.739 124.652C150.297 120.295 149.765 115.12 150.785 109.857L150.941 110.122C150.652 110.034 150.319 109.923 150.009 109.835C144.795 108.11 140.601 104.593 137.983 100.679C135.32 96.7645 134.255 92.4741 134.1 88.9356C133.922 85.375 134.588 82.5221 135.209 80.6423C135.831 78.7625 136.408 77.8115 136.408 77.8115C136.43 77.8115 136.319 78.0769 136.141 78.5634C135.942 79.05 135.675 79.7577 135.409 80.7087C134.854 82.5885 134.255 85.4193 134.455 88.9356C134.655 92.4299 135.72 96.6097 138.36 100.458C140.956 104.262 145.083 107.712 150.186 109.415C150.497 109.503 150.808 109.614 151.096 109.702L151.296 109.768L151.251 109.968C150.253 115.12 150.763 120.229 152.161 124.542C153.537 128.876 155.667 132.437 157.863 135.047C160.06 137.678 162.212 139.47 163.788 140.553C164.542 141.128 165.23 141.46 165.629 141.748C166.073 141.991 166.295 142.146 166.273 142.168Z" fill="#1B1A51"/>
<path d="M167.338 142.168C167.338 142.146 167.515 141.991 167.892 141.682C168.27 141.372 168.846 140.93 169.49 140.31C170.843 139.094 172.752 137.192 174.527 134.428C176.324 131.685 177.921 128.058 178.698 123.812C179.097 121.689 179.341 119.433 179.386 117.067C179.386 116.47 179.386 115.895 179.386 115.298C179.364 114.745 179.164 114.17 178.964 113.617C178.498 112.511 177.855 111.472 177.123 110.454C176.368 109.393 175.547 108.398 174.748 107.491L174.593 107.336L174.748 107.181C176.346 105.545 177.855 103.908 179.253 102.294C180.628 100.657 181.96 99.0649 182.803 97.362C184.223 93.7793 184.422 90.1966 184.201 87.3215C183.979 84.4244 183.246 82.1686 182.692 80.6648C182.381 79.9128 182.159 79.3378 181.96 78.9619C181.782 78.5859 181.693 78.3647 181.715 78.3647C181.715 78.3647 182.204 79.1167 182.847 80.5984C183.468 82.1023 184.223 84.3581 184.511 87.2994C184.777 90.2187 184.622 93.8235 183.18 97.5389C182.292 99.3524 180.961 100.945 179.585 102.603C178.188 104.24 176.679 105.876 175.059 107.535V107.226C175.88 108.154 176.701 109.15 177.478 110.233C178.21 111.273 178.875 112.334 179.364 113.506C179.585 114.103 179.785 114.701 179.807 115.342C179.807 115.939 179.807 116.558 179.807 117.155C179.741 119.544 179.497 121.822 179.075 123.967C178.254 128.28 176.59 131.951 174.748 134.693C172.907 137.457 170.954 139.337 169.556 140.532C168.203 141.615 167.338 142.168 167.338 142.168Z" fill="#1B1A51"/>
<path d="M174.681 171.537C174.548 171.56 174.371 170.896 174.282 170.1C174.193 169.282 174.215 168.618 174.349 168.618C174.482 168.596 174.659 169.26 174.748 170.056C174.837 170.852 174.792 171.515 174.681 171.537Z" fill="#1B1A51"/>
<path d="M177.344 199.868C177.211 199.89 177.033 199.227 176.945 198.431C176.856 197.612 176.878 196.949 177.011 196.949C177.144 196.927 177.322 197.59 177.411 198.386C177.499 199.205 177.477 199.868 177.344 199.868Z" fill="#1B1A51"/>
<path d="M209.317 161.807C209.184 161.807 208.23 151.612 207.187 139.028C206.144 126.444 205.39 116.227 205.523 116.205C205.656 116.183 206.61 126.4 207.653 138.984C208.696 151.589 209.45 161.807 209.317 161.807Z" fill="#1B1A51"/>
<path d="M125.602 131.487C125.624 131.509 125.336 131.752 124.825 132.194C124.093 132.769 123.361 133.366 122.584 133.963C120.698 135.467 118.08 137.524 115.24 139.868C112.4 142.213 109.87 144.38 108.051 145.95C107.319 146.591 106.587 147.189 105.877 147.808C105.366 148.25 105.056 148.471 105.034 148.449C105.011 148.427 105.278 148.162 105.744 147.675C106.431 147.034 107.119 146.37 107.829 145.707C109.604 144.07 112.111 141.859 114.952 139.514C117.792 137.17 120.432 135.136 122.385 133.72C123.183 133.145 123.938 132.614 124.714 132.062C125.247 131.663 125.58 131.464 125.602 131.487Z" fill="#1B1A51"/>
<path d="M114.507 195.516C114.529 195.539 114.285 195.782 113.819 196.18L111.845 197.817C109.714 199.519 107.54 201.222 105.188 203.102C102.792 204.938 100.617 206.619 98.443 208.277L96.3573 209.803C95.8691 210.157 95.5807 210.334 95.5585 210.312C95.5363 210.29 95.7804 210.046 96.2463 209.67L98.2211 208.034C100.373 206.331 102.526 204.606 104.877 202.748C107.274 200.913 109.448 199.232 111.623 197.551L113.686 196.025C114.219 195.671 114.507 195.494 114.507 195.516Z" fill="#1B1A51"/>
<path d="M98.7327 227.512C98.6217 227.578 98.3555 227.291 98.1558 226.893C97.9561 226.495 97.8895 226.119 98.0005 226.074C98.1114 226.008 98.3777 226.296 98.5552 226.694C98.777 227.092 98.8436 227.446 98.7327 227.512Z" fill="#1B1A51"/>
<path d="M292.833 120.562C292.811 120.584 292.478 120.473 291.901 120.252C291.08 119.92 290.259 119.588 289.416 119.257C287.33 118.394 284.446 117.222 281.229 116.006C278.011 114.767 275.083 113.706 272.953 112.954C272.109 112.644 271.266 112.357 270.445 112.047C269.846 111.826 269.536 111.693 269.536 111.671C269.536 111.649 269.891 111.715 270.49 111.892C271.333 112.158 272.198 112.401 273.064 112.666C275.216 113.352 278.167 114.369 281.406 115.608C284.623 116.846 287.508 118.062 289.571 118.991C290.392 119.367 291.191 119.743 291.99 120.141C292.545 120.362 292.855 120.539 292.833 120.562Z" fill="#1B1A51"/>
<path d="M276.302 107.248C276.391 107.336 275.992 107.955 275.393 108.663C274.793 109.349 274.239 109.857 274.128 109.769C274.039 109.68 274.438 109.061 275.038 108.354C275.637 107.668 276.191 107.159 276.302 107.248Z" fill="#1B1A51"/>
<path d="M242.444 150.329C242.311 150.329 242.222 148.161 242.222 145.485C242.222 142.809 242.333 140.642 242.444 140.642C242.577 140.642 242.666 142.809 242.666 145.485C242.666 148.161 242.577 150.329 242.444 150.329Z" fill="#1B1A51"/>
<path d="M248.213 151.766C248.08 151.81 247.215 149.532 245.817 146.856C244.441 144.18 243.066 142.146 243.176 142.079C243.265 142.013 244.818 143.937 246.238 146.657C247.636 149.333 248.324 151.722 248.213 151.766Z" fill="#1B1A51"/>
<path d="M80.737 166.517C80.7148 166.65 78.851 166.495 76.5657 166.207C74.2803 165.92 72.4387 165.566 72.4609 165.433C72.4831 165.301 74.3469 165.455 76.6322 165.743C78.8954 166.053 80.737 166.384 80.737 166.517Z" fill="#1B1A51"/>
<path d="M81.0925 165.057C81.026 165.19 79.2066 164.151 76.6993 163.642C74.1921 163.133 72.1064 163.377 72.1064 163.222C72.062 163.111 74.2143 162.647 76.8102 163.178C79.3841 163.708 81.1591 164.969 81.0925 165.057Z" fill="#1B1A51"/>
<path d="M144.639 78.2984C144.417 77.3916 144.639 70.7349 144.639 70.7349C144.639 70.7349 161.546 72.0397 163.365 86.5254C163.365 86.5254 166.449 74.5166 170.976 73.8089L171.73 81.7263L169.334 90.1965L159.66 92.1869L149.298 88.759L144.639 78.2984Z" fill="white"/>
<path d="M163.21 89.2896L161.28 95.1944L164.298 99.5512L165.54 93.6242L163.21 89.2896Z" fill="#1B1A51"/>
<path d="M163.477 98.357L160.149 126.444L167.737 143.053L173.351 116.094L164.72 97.5166L163.477 98.357Z" fill="#1B1A51"/>
<path d="M161.746 40.2599C161.612 40.2599 161.524 39.3531 161.524 38.2474C161.524 37.1416 161.635 36.2349 161.746 36.2349C161.879 36.2349 161.967 37.1416 161.967 38.2474C161.99 39.3531 161.879 40.2599 161.746 40.2599Z" fill="#1B1A51"/>
<path d="M180.561 39.3972C180.428 39.3972 180.295 38.5789 180.273 37.5395C180.251 36.5001 180.317 35.6597 180.45 35.6597C180.583 35.6597 180.717 36.4779 180.739 37.5174C180.761 38.5568 180.694 39.3972 180.561 39.3972Z" fill="#1B1A51"/>
<path d="M259.676 18.3744L252.029 29.2981L247.458 26.6699L248.763 24.3902L247.65 23.0891L244.139 24.7766L236.406 20.3267L236.419 16.793L238.969 17.0692L236.268 15.0085L238.094 11.8418L240.66 12.972L237.381 10.7495L239.645 6.83016L247.518 11.3461C247.518 11.3461 248.973 5.29076 252.123 4.23763L253.893 5.25816C253.893 5.25816 252.614 6.87882 252.292 8.03235C251.97 9.18588 251.828 15.0042 251.828 15.0042L254.007 17.1036L255.209 15.6011L259.676 18.3744Z" fill="#ECF1FE"/>
<path d="M212.457 45.3027L210.638 78.4318H249.866L251.441 86.504L253.572 78.4318H283.747L285.811 47.5806L212.457 45.3027Z" fill="#F4D532"/>
<path d="M233.535 60.8055C233.535 64.6315 230.429 67.7276 226.59 67.7276C222.752 67.7276 219.646 64.6315 219.646 60.8055C219.646 56.9795 222.752 53.8833 226.59 53.8833C230.407 53.8833 233.535 56.9795 233.535 60.8055Z" fill="white"/>
<path d="M239.284 55.9404C251.31 56.7144 263.358 56.4491 275.384 57.5106C276.249 57.577 276.271 56.1837 275.384 56.1616C263.38 55.675 251.31 54.5914 239.284 55.2991C238.862 55.3212 238.862 55.9183 239.284 55.9404Z" fill="white"/>
<path d="M239.284 60.9385C251.31 61.7125 263.358 61.4471 275.384 62.5087C276.249 62.575 276.271 61.1817 275.384 61.1596C263.38 60.6731 251.31 59.5894 239.284 60.2971C238.862 60.3192 238.862 60.9164 239.284 60.9385Z" fill="white"/>
<path d="M239.284 66.6225C251.31 67.3966 263.358 67.1312 275.384 68.1927C276.249 68.2591 276.271 66.8658 275.384 66.8437C263.38 66.3572 251.288 65.2735 239.284 65.9812C238.862 66.0033 238.862 66.6004 239.284 66.6225Z" fill="white"/>
<g opacity="0.48">
<path opacity="0.48" d="M230.762 67.4185C232.182 66.7771 230.163 64.2781 228.965 63.2829C227.767 62.2877 226.081 61.9117 224.55 62.2877C223.041 62.6636 221.732 63.8136 221.155 65.2512C221.177 65.2512 224.128 70.4262 230.762 67.4185Z" fill="#EDC483"/>
</g>
<path opacity="0.48" d="M229.098 58.7266C229.098 60.1199 227.967 61.2257 226.591 61.2257C225.193 61.2257 224.084 60.0978 224.084 58.7266C224.084 57.3333 225.215 56.2275 226.591 56.2275C227.967 56.2275 229.098 57.3554 229.098 58.7266Z" fill="#EDC483"/>
<path d="M279.298 16.2157L281.473 38.9505L313.934 35.3456L317.085 45.5851L320.124 33.7975L336.011 32.4043L331.95 2.10596L279.298 16.2157Z" fill="#ECF1FE"/>
<path d="M289.35 23.4478C302.064 21.6343 314.711 19.4228 327.225 16.5256C327.846 16.3929 327.58 15.442 326.959 15.5747C314.422 18.2728 301.842 20.7939 289.195 22.8949C288.84 22.9834 288.995 23.5142 289.35 23.4478Z" fill="#9AA4BC"/>
<path d="M289.35 27.8262C302.064 26.0128 314.711 23.8012 327.225 20.9041C327.846 20.7714 327.58 19.8204 326.959 19.9531C314.422 22.6512 301.842 25.1724 289.195 27.2733C288.84 27.3397 288.995 27.8705 289.35 27.8262Z" fill="#9AA4BC"/>
<path d="M299.733 80.9743C299.955 80.8637 300.133 80.731 300.31 80.5762C299.112 80.4877 297.914 80.355 296.738 80.2002C297.648 80.7089 298.668 80.9964 299.733 80.9743Z" fill="#0674B7"/>
<path d="M300.087 80.9962C299.955 80.9962 299.844 80.9741 299.711 80.9741C299.689 80.9741 299.689 80.9962 299.667 80.9962H300.087Z" fill="#0674B7"/>
</svg>
