<svg width="358" height="290" viewBox="0 0 358 290" fill="none" xmlns="http://www.w3.org/2000/svg">
<path fill-rule="evenodd" clip-rule="evenodd" d="M-26.691 -34.6166C-7.71709 -76.8087 -4.1798 -126.08 30.9311 -157.149C70.4868 -192.151 122.957 -225.554 177.828 -215.592C232.19 -205.722 261.997 -149.756 297.92 -108.675C326.908 -75.5248 354.233 -41.7865 365.777 -0.652793C377.257 40.2515 368.816 80.437 362.528 121.531C354.286 175.4 368.81 243.93 323.48 275.79C278.469 307.425 212.814 273.896 155.643 266.937C101.052 260.293 42.1194 268.033 -2.70013 236.088C-48.582 203.386 -78.5038 149.921 -83.2214 96.6905C-87.593 47.3622 -46.7271 9.93735 -26.691 -34.6166Z" fill="#0085FF"/>
</svg>
