<svg width="332" height="242" viewBox="0 0 332 242" fill="none" xmlns="http://www.w3.org/2000/svg">
<path d="M74.1416 220.615C80.3631 213.916 79.9424 204.145 77.778 195.761C77.4174 194.359 77.243 192.84 76.2906 191.753C75.335 190.667 73.5625 190.175 72.415 191.054C71.4629 191.784 71.2719 193.106 70.9002 194.246C70.4074 195.764 69.4774 197.135 68.2485 198.152C67.4426 198.819 66.3804 199.354 65.3732 199.064C63.9918 198.666 63.4725 197.021 63.1712 195.615C62.6082 192.998 62.0445 190.378 61.4816 187.761C61.1802 186.355 60.8657 184.923 60.13 183.691C59.3943 182.458 58.1423 181.437 56.7082 181.366C55.2733 181.292 53.7727 182.434 53.7898 183.87C53.7982 184.468 54.0472 185.035 54.1379 185.627C54.2285 186.219 54.0949 186.924 53.57 187.21C53.0394 187.5 52.3815 187.228 51.8672 186.912C50.0863 185.821 48.6859 184.218 47.3543 182.609C46.0195 181 44.7074 179.346 43.0327 178.096C41.3579 176.847 39.2474 176.032 37.1873 176.372C35.1225 176.707 33.2312 178.43 33.1518 180.517C33.0739 182.609 34.6894 184.355 36.3167 185.673C38.7291 187.628 41.4301 189.233 44.2993 190.42C44.8163 190.635 45.3774 190.867 45.6662 191.347C46.1807 192.213 45.4913 193.342 44.6223 193.858C43.6386 194.44 42.4677 194.589 41.3875 194.963C40.3073 195.338 39.2127 196.088 39.0254 197.215C38.7613 198.779 40.3113 200.011 41.7224 200.73C44.5548 202.17 47.6323 203.119 50.7814 203.525C51.9119 203.671 53.085 203.757 54.0878 204.295C55.0905 204.834 55.8794 205.98 55.5888 207.081C55.299 208.185 54.0629 208.791 52.9208 208.835C51.7819 208.879 50.672 208.51 49.5425 208.353C47.4285 208.059 44.9336 208.754 44.0533 210.7C43.473 211.977 43.7396 213.518 44.444 214.731C45.1483 215.944 46.2423 216.879 47.3667 217.717C51.3012 220.647 55.9557 222.674 60.8291 223.216C65.7089 223.756 69.9996 223.243 74.1416 220.615Z" fill="#ECF1FE"/>
<path d="M73.6007 220.918C71.3959 216.937 65.7453 207.674 62.6803 203.415C61.9118 202.355 61.1487 201.304 60.3965 200.27C59.6451 199.24 58.9023 198.217 58.1089 197.263C56.5365 195.346 54.8733 193.625 53.2458 192.039C51.6175 190.45 50.0129 189.002 48.5005 187.66C46.9849 186.319 45.551 185.096 44.1966 184.038C41.492 181.911 39.1073 180.452 37.4267 179.516C36.5876 179.045 35.9257 178.7 35.4729 178.473C35.2527 178.365 35.0814 178.278 34.9595 178.217C34.8423 178.161 34.7794 178.136 34.7794 178.136C34.7794 178.136 34.8351 178.173 34.9474 178.236C35.0708 178.304 35.2366 178.395 35.4519 178.512C35.8983 178.754 36.5521 179.107 37.3839 179.589C39.0493 180.546 41.4141 182.02 44.1012 184.158C45.4468 185.221 46.8751 186.449 48.382 187.796C49.8896 189.146 51.4878 190.594 53.1098 192.185C54.7309 193.772 56.3838 195.493 57.9508 197.402C58.7371 198.353 59.4745 199.367 60.2267 200.401C60.9757 201.436 61.738 202.484 62.5065 203.544C65.5708 207.8 71.2183 217.049 73.4296 221.016" fill="white"/>
<path d="M58.0537 197.256C58.0703 197.256 58.0672 197.032 58.0512 196.627C58.0351 196.222 57.9966 195.638 57.939 194.918C57.827 193.477 57.6025 191.494 57.3526 189.305C57.1026 187.116 56.9152 185.133 56.8333 183.692C56.7891 182.972 56.7609 182.389 56.7487 181.987C56.7335 181.585 56.717 181.361 56.7035 181.361C56.6901 181.361 56.6765 181.585 56.6657 181.99C56.6517 182.395 56.657 182.98 56.6814 183.702C56.7245 185.149 56.8873 187.14 57.138 189.332C57.3897 191.501 57.6161 193.464 57.7855 194.935C57.8584 195.621 57.9177 196.193 57.9626 196.635C58.0079 197.036 58.0402 197.256 58.0537 197.256Z" fill="white"/>
<path d="M39.0331 197.95C39.0346 197.957 39.101 197.954 39.2277 197.937C39.3805 197.918 39.5618 197.891 39.7796 197.863C40.2562 197.796 40.9467 197.699 41.8056 197.605C43.517 197.405 45.8948 197.217 48.523 197.124C51.1527 197.037 53.5369 197.059 55.2627 197.13C56.1241 197.16 56.8209 197.202 57.3029 197.227C57.5234 197.239 57.7067 197.249 57.8592 197.256C57.9872 197.259 58.0544 197.26 58.0553 197.249C58.057 197.242 57.9899 197.228 57.8652 197.211C57.7136 197.193 57.5305 197.17 57.3126 197.141C56.8341 197.088 56.1351 197.023 55.2724 196.974C53.5477 196.865 51.1575 196.818 48.5176 196.904C45.8823 196.996 43.501 197.211 41.7883 197.448C40.9309 197.562 40.2425 197.682 39.7679 197.772C39.5508 197.817 39.3725 197.856 39.222 197.885C39.0974 197.925 39.0347 197.943 39.0331 197.95Z" fill="white"/>
<path d="M70.4605 215.528C70.4676 215.529 70.4907 215.443 70.5321 215.279C70.5745 215.092 70.6278 214.851 70.6951 214.557C70.8341 213.931 71.0151 213.017 71.2245 211.885C71.6435 209.62 72.1252 206.48 72.6138 203.003C73.1025 199.526 73.5605 196.384 73.9384 194.116C74.1295 193.005 74.2843 192.094 74.3984 191.433C74.4483 191.137 74.4906 190.892 74.5227 190.704C74.5499 190.536 74.5588 190.447 74.5517 190.445C74.5446 190.444 74.5215 190.53 74.4802 190.694C74.4378 190.881 74.3845 191.122 74.3172 191.416C74.1781 192.042 73.9972 192.956 73.7877 194.089C73.3687 196.353 72.887 199.493 72.3984 202.97C71.909 206.444 71.4517 209.589 71.0731 211.854C70.882 212.965 70.7272 213.876 70.6131 214.536C70.5639 214.836 70.5209 215.078 70.4887 215.266C70.4623 215.437 70.4534 215.526 70.4605 215.528Z" fill="white"/>
<path d="M44.4658 213.205C44.4641 213.212 44.5549 213.228 44.7302 213.246C44.9253 213.263 45.1756 213.287 45.4876 213.317C46.1723 213.378 47.1169 213.462 48.2732 213.562C50.6253 213.772 53.8701 214.101 57.4537 214.474C61.0372 214.847 64.287 215.155 66.6458 215.324C67.8252 215.408 68.778 215.469 69.4386 215.5C69.7499 215.513 70.0036 215.523 70.1996 215.53C70.3751 215.535 70.4652 215.533 70.4669 215.526C70.4685 215.519 70.3778 215.504 70.2025 215.485C70.0074 215.468 69.757 215.444 69.4451 215.414C68.7603 215.353 67.8157 215.27 66.6594 215.17C64.3074 214.959 61.0625 214.63 57.479 214.257C53.8955 213.884 50.6464 213.579 48.29 213.407C47.1106 213.322 46.1578 213.261 45.4972 213.231C45.1859 213.218 44.9322 213.208 44.7362 213.201C44.5576 213.197 44.4675 213.198 44.4658 213.205Z" fill="white"/>
<path d="M206.491 219.411C227.31 229.695 250.787 221.583 269.623 210.233C272.773 208.338 276.346 206.811 278.3 203.705C280.25 200.591 280.163 195.919 277.189 193.765C274.723 191.976 271.367 192.47 268.321 192.393C264.269 192.295 260.257 191.025 256.892 188.772C254.682 187.295 252.611 185.097 252.585 182.435C252.551 178.784 256.18 176.327 259.383 174.573C265.344 171.305 271.312 168.032 277.273 164.763C280.476 163.01 283.736 161.205 286.201 158.521C288.666 155.836 290.245 152.047 289.377 148.506C288.515 144.96 284.648 142.135 281.164 143.219C279.715 143.673 278.515 144.691 277.141 145.34C275.767 145.99 273.953 146.177 272.876 145.106C271.784 144.026 271.969 142.227 272.367 140.746C273.728 135.62 276.615 131.048 279.566 126.64C282.513 122.224 285.588 117.83 287.415 112.847C289.242 107.864 289.692 102.137 287.37 97.3688C285.059 92.5856 279.491 89.2325 274.356 90.5527C269.206 91.8811 266.127 97.08 264.1 101.997C261.091 109.287 259.144 117.026 258.338 124.87C258.189 126.285 258.032 127.818 257.072 128.87C255.337 130.75 252.089 129.892 250.204 128.15C248.072 126.179 246.862 123.436 245.167 121.079C243.472 118.721 240.852 116.601 237.973 116.962C233.975 117.454 232.1 122.121 231.372 126.077C229.923 134.016 229.846 142.195 231.142 150.154C231.606 153.012 232.248 155.93 231.665 158.761C231.082 161.593 228.865 164.344 225.974 164.435C223.076 164.531 220.704 161.962 219.768 159.214C218.836 156.474 218.929 153.505 218.491 150.642C217.673 145.283 214.172 139.714 208.798 138.983C205.268 138.497 201.709 140.264 199.268 142.858C196.828 145.452 195.344 148.794 194.12 152.139C189.844 163.84 188.285 176.64 190.503 188.895C192.729 201.164 197.089 211.236 206.491 219.411Z" fill="#ECF1FE"/>
<path d="M205.361 218.314C213.453 210.059 231.898 189.586 240.042 179.036C242.064 176.397 244.07 173.777 246.04 171.196C248.004 168.619 249.954 166.069 251.699 163.447C255.226 158.228 258.209 152.931 260.889 147.819C263.575 142.703 265.934 137.748 268.103 133.093C270.268 128.431 272.205 124.054 273.797 119.99C277.012 111.864 278.834 105.001 279.894 100.231C280.43 97.8472 280.79 95.9861 281.014 94.719C281.118 94.1045 281.205 93.6246 281.266 93.2834C281.317 92.9577 281.332 92.7862 281.332 92.7862C281.332 92.7862 281.283 92.9486 281.209 93.2683C281.134 93.6177 281.032 94.0874 280.905 94.6959C280.64 95.958 280.253 97.8059 279.684 100.18C278.562 104.928 276.69 111.753 273.436 119.845C271.824 123.891 269.872 128.258 267.687 132.903C265.496 137.552 263.129 142.493 260.434 147.594C257.746 152.692 254.757 157.963 251.248 163.162C249.502 165.766 247.569 168.297 245.598 170.877C243.624 173.451 241.625 176.067 239.603 178.706C231.467 189.252 213.05 209.709 204.999 217.968" fill="white"/>
<path d="M251.676 163.307C251.69 163.347 252.232 163.177 253.206 162.844C254.18 162.512 255.574 161.994 257.284 161.332C260.71 160.014 265.376 158.028 270.522 155.832C275.668 153.636 280.358 151.742 283.807 150.497C285.527 149.867 286.925 149.375 287.896 149.054C288.863 148.725 289.396 148.522 289.387 148.49C289.378 148.457 288.822 148.587 287.829 148.854C286.832 149.114 285.412 149.551 283.674 150.134C280.182 151.289 275.453 153.13 270.299 155.33C265.204 157.516 260.59 159.491 257.133 160.97C255.516 161.645 254.166 162.205 253.123 162.634C252.179 163.036 251.667 163.274 251.676 163.307Z" fill="white"/>
<path d="M236.189 117.514C236.175 117.522 236.229 117.682 236.362 117.978C236.52 118.336 236.716 118.758 236.943 119.267C237.451 120.379 238.189 121.989 239.041 124.012C240.769 128.032 242.951 133.684 245.085 140.013C247.204 146.351 248.88 152.17 249.958 156.422C250.512 158.54 250.916 160.267 251.202 161.459C251.335 162.003 251.444 162.457 251.537 162.833C251.622 163.147 251.669 163.311 251.695 163.306C251.713 163.305 251.699 163.131 251.65 162.815C251.583 162.434 251.507 161.971 251.419 161.42C251.202 160.216 250.852 158.468 250.346 156.332C249.359 152.056 247.74 146.204 245.616 139.84C243.481 133.493 241.23 127.853 239.41 123.856C238.511 121.851 237.719 120.263 237.157 119.173C236.889 118.677 236.665 118.272 236.485 117.926C236.298 117.652 236.208 117.513 236.189 117.514Z" fill="white"/>
<path d="M216.204 206.76C216.205 206.779 216.431 206.773 216.86 206.754C217.348 206.721 217.972 206.677 218.736 206.627C220.361 206.511 222.718 206.288 225.626 205.977C231.441 205.354 239.434 204.248 248.252 202.915C257.07 201.582 265.048 200.418 270.843 199.693C273.685 199.352 276.016 199.068 277.707 198.866C278.465 198.773 279.091 198.698 279.573 198.639C280 198.584 280.224 198.541 280.223 198.523C280.222 198.504 279.996 198.51 279.567 198.529C279.079 198.562 278.455 198.606 277.69 198.656C276.065 198.772 273.709 198.994 270.801 199.306C264.986 199.929 256.992 201.034 248.175 202.367C239.364 203.696 231.378 204.865 225.591 205.586C222.748 205.927 220.418 206.211 218.727 206.412C217.962 206.51 217.343 206.581 216.86 206.639C216.426 206.699 216.203 206.742 216.204 206.76Z" fill="white"/>
<path d="M203 141.804C202.981 141.805 203.01 142.037 203.092 142.477C203.192 142.964 203.314 143.591 203.469 144.372C203.816 146.083 204.299 148.443 204.894 151.33C206.088 157.207 207.64 165.344 209.332 174.337C211.025 183.33 212.632 191.464 213.933 197.327C214.583 200.259 215.125 202.623 215.531 204.252C215.725 205.02 215.885 205.644 216.01 206.126C216.125 206.557 216.194 206.776 216.212 206.774C216.231 206.773 216.202 206.541 216.12 206.101C216.02 205.614 215.897 204.987 215.743 204.206C215.396 202.495 214.913 200.135 214.317 197.249C213.123 191.371 211.571 183.234 209.879 174.241C208.187 165.248 206.573 157.119 205.283 151.258C204.633 148.326 204.091 145.963 203.685 144.333C203.491 143.566 203.331 142.941 203.206 142.459C203.087 142.021 203.018 141.803 203 141.804Z" fill="white"/>
<path fill-rule="evenodd" clip-rule="evenodd" d="M52.5656 49.6478C51.6397 49.9592 50.7647 50.3829 49.9723 50.9097L47.6301 49.6269L44.6945 52.9335L46.2551 55.1024C45.8295 55.9573 45.5091 56.8745 45.3109 57.8306L42.748 58.5734L43.0186 62.9857L45.6502 63.4184C45.9617 64.3442 46.3855 65.2191 46.9125 66.0115L45.6297 68.3533L48.937 71.2889L51.1059 69.7286C51.961 70.1542 52.8784 70.4747 53.8346 70.6729L54.5777 73.2356L58.9905 72.9654L59.4258 70.3254C60.3517 70.014 61.2267 69.5903 62.0191 69.0635L64.3613 70.3463L67.2969 67.0397L65.7363 64.8708C66.1619 64.0159 66.4823 63.0986 66.6805 62.1426L69.2434 61.3998L68.9728 56.9875L66.3412 56.5548C66.0297 55.629 65.6059 54.7541 65.0789 53.9617L66.3617 51.6198L63.0544 48.6843L60.8855 50.2445C60.0304 49.8189 59.113 49.4985 58.1568 49.3003L57.4137 46.7376L53.0009 47.0078L52.5656 49.6478ZM55.5106 55.2658C58.1282 55.1076 60.3702 57.0989 60.5287 59.7161C60.6872 62.3334 58.6959 64.575 56.0783 64.7332C53.4607 64.8915 51.2187 62.9002 51.0602 60.2829C50.899 57.6744 52.8931 55.4241 55.5106 55.2658Z" fill="#00B4FF"/>
<path fill-rule="evenodd" clip-rule="evenodd" d="M82.2373 52.7429C81.5886 52.961 80.9755 53.2579 80.4203 53.627L78.7793 52.7282L76.7226 55.0449L77.816 56.5644C77.5178 57.1634 77.2933 57.8061 77.1545 58.4759L75.3588 58.9963L75.5484 62.0877L77.3922 62.3908C77.6105 63.0394 77.9074 63.6525 78.2766 64.2076L77.3778 65.8484L79.695 67.9051L81.2146 66.8119C81.8137 67.1101 82.4564 67.3346 83.1264 67.4735L83.647 69.269L86.7387 69.0797L87.0436 67.23C87.6923 67.0118 88.3054 66.715 88.8606 66.3459L90.5016 67.2447L92.5584 64.928L91.465 63.4084C91.7631 62.8094 91.9876 62.1668 92.1264 61.497L93.9221 60.9765L93.7325 57.8852L91.8887 57.5821C91.6705 56.9334 91.3735 56.3204 91.0043 55.7653L91.9031 54.1245L89.586 52.0678L88.0663 53.161C87.4672 52.8628 86.8245 52.6383 86.1546 52.4994L85.6339 50.7039L82.5423 50.8932L82.2373 52.7429ZM84.3006 56.679C86.1345 56.5681 87.7054 57.9632 87.8164 59.797C87.9274 61.6307 86.5323 63.2012 84.6983 63.312C82.8644 63.4229 81.2936 62.0278 81.1826 60.1941C81.0696 58.3665 82.4667 56.7898 84.3006 56.679Z" fill="#00B4FF"/>
<path fill-rule="evenodd" clip-rule="evenodd" d="M22.3491 73.2649C20.8152 73.7697 19.387 74.4784 18.0696 75.3427L14.2026 73.2215L9.36023 78.6788L11.9305 82.2622C11.2221 83.6709 10.6933 85.1767 10.3711 86.7582L6.14016 87.9895L6.58091 95.2763L10.9358 95.9889C11.4408 97.5227 12.1497 98.9508 13.0142 100.268L10.8931 104.134L16.3514 108.977L19.9351 106.407C21.3439 107.116 22.85 107.644 24.4347 107.958L25.6664 112.188L32.9541 111.748L33.6664 107.394C35.2003 106.889 36.6286 106.18 37.9459 105.316L41.813 107.437L46.6553 101.98L44.0851 98.3964C44.7935 96.9877 45.3222 95.4819 45.6445 93.9003L49.8754 92.6691L49.4346 85.3823L45.0797 84.6696C44.5748 83.1359 43.8658 81.7077 43.0013 80.3905L45.1225 76.5241L39.6641 71.6819L36.0805 74.2515C34.6716 73.5431 33.1655 73.0142 31.5838 72.6919L30.352 68.4614L23.0643 68.9015L22.3491 73.2649ZM27.211 82.5384C31.525 82.2757 35.2393 85.5713 35.4932 89.8819C35.7563 94.1954 32.4606 97.9091 28.1495 98.1626C23.8355 98.4252 20.1211 95.1297 19.8672 90.819C19.6042 86.5055 22.8879 82.7981 27.211 82.5384Z" fill="#00B4FF"/>
<path fill-rule="evenodd" clip-rule="evenodd" d="M266.643 15.04C264.469 15.7555 262.444 16.76 260.577 17.985L255.096 14.9785L248.233 22.7134L251.876 27.7924C250.872 29.789 250.123 31.9233 249.666 34.1649L243.669 35.91L244.294 46.238L250.466 47.2481C251.182 49.4219 252.187 51.4461 253.412 53.3131L250.406 58.7932L258.142 65.6564L263.221 62.0143C265.218 63.0184 267.353 63.7679 269.599 64.2119L271.345 70.208L281.674 69.5843L282.684 63.4126C284.858 62.6972 286.882 61.6926 288.749 60.4676L294.23 63.4742L301.093 55.7393L297.45 50.6603C298.455 48.6637 299.204 46.5294 299.661 44.2878L305.657 42.5427L305.033 32.2146L298.86 31.2046C298.145 29.0308 297.14 27.0065 295.914 25.1396L298.921 19.6595L291.184 12.7963L286.105 16.4384C284.108 15.4343 281.974 14.6848 279.732 14.2279L277.986 8.23177L267.657 8.8555L266.643 15.04ZM273.534 28.1838C279.648 27.8116 284.913 32.4826 285.273 38.5923C285.646 44.7061 280.975 49.9696 274.864 50.3289C268.75 50.7011 263.485 46.0302 263.125 39.9205C262.752 33.8067 267.407 28.5519 273.534 28.1838Z" fill="#00B4FF"/>
<path d="M61.3711 224.3C61.3711 224.423 104.68 224.524 158.083 224.524C211.507 224.524 254.808 224.423 254.808 224.3C254.808 224.176 211.514 224.075 158.083 224.075C104.68 224.082 61.3711 224.176 61.3711 224.3Z" fill="#263238"/>
<path d="M165.835 109.575L152.276 168.142L157.308 224.336H203.785L205.359 194.742V109.307L195.788 105.391L173.006 107.349" fill="#FAFAFA"/>
<path d="M104.971 145.4L95.0596 98.3066L94.5448 90.5253C94.5448 90.5253 92.3478 73.0628 92.3478 71.3586C92.3478 69.3861 91.4052 68.9147 90.6729 68.9655C89.5417 69.038 88.7369 70.4376 88.6861 72.1273C88.6644 72.7147 88.7369 81.9391 88.7369 81.9391C88.7369 81.9391 88.3163 81.1777 86.9532 79.4445C85.59 77.7185 82.3852 76.7323 79.0933 76.8338C75.8014 76.9353 74.8951 77.2617 74.8733 78.538C74.8661 79.0529 75.1561 79.4662 75.5187 79.7781C76.1132 80.2929 76.9036 80.5395 77.6867 80.525C82.958 80.4307 84.3719 83.2445 84.3719 83.2445L84.4372 84.2597C84.4372 84.2597 81.2323 81.9754 78.6873 82.9399C78.274 83.0994 77.9404 83.317 77.6721 83.5708C76.2727 83.5853 74.8951 84.3467 74.17 85.5433C73.4159 86.7906 73.3869 88.4441 74.0975 89.7131C74.4383 90.3223 75.0691 90.8879 75.7507 90.7502C76.1132 90.6776 76.4033 90.4238 76.686 90.1845C76.8311 90.0612 76.9906 89.9379 77.1573 89.8364L77.7447 92.6647C77.7447 92.6647 79.4051 98.9448 79.8184 101.759L82.0951 148.345C82.4142 154.806 87.9611 159.752 94.4143 159.317C101.44 158.86 106.422 152.282 104.971 145.4Z" fill="#F6AEA6"/>
<path d="M93.5446 97.6755C92.5802 97.9365 91.5869 97.2331 91.0648 96.3774C90.5427 95.5217 90.3252 94.5137 89.8684 93.6217C88.498 90.953 85.1771 89.6839 83.9373 86.9572C83.7632 86.5801 83.669 86.0507 84.0025 85.8041C84.3143 85.5721 84.7493 85.7534 85.0901 85.9419C87.9832 87.5446 90.8835 89.1473 93.7766 90.7499" fill="#F6AEA6"/>
<path d="M93.7753 90.7503C93.7971 90.7141 93.478 90.4965 92.8907 90.1339C92.3034 89.7713 91.4406 89.2564 90.3747 88.64C89.2581 88.0019 87.9892 87.2767 86.6043 86.4862C86.249 86.2832 85.8792 86.0801 85.5094 85.8698C85.1469 85.703 84.7481 85.3187 84.081 85.4637C83.7475 85.5507 83.5154 85.9133 83.5082 86.2107C83.4864 86.508 83.5589 86.7691 83.6532 87.0084C83.8635 87.458 84.1027 87.8786 84.4 88.2629C85.6037 89.8293 87.1553 90.8083 88.2792 91.9469C88.852 92.5053 89.3233 93.0927 89.6569 93.7091C89.9831 94.3255 90.1934 94.9709 90.4472 95.5438C90.904 96.7331 91.7596 97.5163 92.4629 97.7121C93.1808 97.9297 93.5795 97.6831 93.5578 97.6686C93.5505 97.6106 93.159 97.7557 92.5427 97.5018C91.9264 97.2553 91.2158 96.5446 90.8242 95.3915C90.5995 94.8259 90.4182 94.166 90.0847 93.4915C89.7439 92.8099 89.2436 92.1717 88.6635 91.577C87.5106 90.3732 85.9735 89.3652 84.8713 87.9149C84.5958 87.5595 84.371 87.1607 84.1898 86.7836C84.023 86.4065 84.0447 86.0221 84.2623 85.9858C84.4943 85.9061 84.8931 86.1309 85.2629 86.3339C85.6399 86.537 86.0025 86.74 86.365 86.9358C87.7717 87.69 89.0623 88.379 90.1934 88.9881C91.2883 89.5683 92.1801 90.0251 92.7965 90.3297C93.3983 90.6343 93.7536 90.7866 93.7753 90.7503Z" fill="#251A51"/>
<path d="M84.5749 84.3177C84.5024 84.3322 84.6257 83.5199 83.9731 82.5409C83.6468 82.0623 83.0957 81.6272 82.3707 81.3806C81.6456 81.1196 80.79 81.0398 79.8764 81.018C78.9628 80.9963 78.0709 80.9818 77.2733 80.7932C76.483 80.6047 75.7942 80.2711 75.3374 79.8287C74.8661 79.3791 74.7645 78.8062 74.8153 78.4654C74.8661 78.1173 74.9748 77.9505 74.9893 77.9577C75.0256 77.965 74.9603 78.1463 74.9603 78.4726C74.9531 78.7917 75.0836 79.2631 75.5186 79.6402C75.9464 80.0173 76.599 80.3074 77.3531 80.4669C78.1072 80.6264 78.9773 80.6337 79.8981 80.6554C80.819 80.6772 81.7253 80.7715 82.4939 81.0616C83.2698 81.3444 83.8788 81.8593 84.1979 82.4032C84.5314 82.9398 84.6257 83.4474 84.6402 83.7883C84.6474 84.1291 84.5967 84.3177 84.5749 84.3177Z" fill="#251A51"/>
<path d="M88.7211 71.4747C88.7718 71.4819 88.7646 72.1781 88.7501 73.3094C88.7356 74.5712 88.7211 76.0651 88.6993 77.7258C88.7066 79.3865 88.7138 80.8803 88.7138 82.1422C88.7211 83.2735 88.7283 83.9696 88.6776 83.9769C88.6268 83.9769 88.5325 83.2807 88.46 82.1494C88.3803 81.0181 88.3295 79.4517 88.3368 77.7185C88.344 75.9926 88.4093 74.4262 88.489 73.2949C88.5688 72.1636 88.6703 71.4674 88.7211 71.4747Z" fill="#251A51"/>
<path d="M82.492 86.3909C82.4774 86.4127 82.2889 86.3257 81.9554 86.1806C81.6363 86.0501 81.0853 85.847 80.5342 86.1154C80.2659 86.2459 80.0919 86.5215 80.0557 86.8841C80.0122 87.2394 80.0847 87.6383 80.1427 88.0734C80.2007 88.5012 80.2369 89.0451 79.9252 89.5165C79.6206 89.9661 79.0768 90.2344 78.5185 90.2489C77.9457 90.2634 77.4309 89.9879 77.0756 89.6253C76.7203 89.2554 76.481 88.8203 76.394 88.3417C76.2635 87.4425 76.336 86.6447 76.4303 85.9776C76.539 85.3177 76.713 84.7883 76.9016 84.4619C77.0901 84.1283 77.2641 83.9978 77.2786 84.0123C77.3004 84.0341 77.1698 84.1936 77.0321 84.5199C76.8943 84.8535 76.7638 85.3612 76.6913 86.0138C76.626 86.652 76.5898 87.4497 76.7275 88.2764C76.8798 89.0379 77.5976 89.8936 78.5112 89.8791C78.9608 89.8718 79.3958 89.6543 79.6279 89.3134C79.8599 88.9726 79.8599 88.5302 79.8091 88.1096C79.7656 87.689 79.6931 87.2539 79.7584 86.8333C79.8019 86.4199 80.0702 86.0138 80.4255 85.876C81.1288 85.586 81.7089 85.8833 82.0206 86.0501C82.3397 86.2459 82.4992 86.3764 82.492 86.3909Z" fill="#251A51"/>
<path d="M83.4073 79.8146C83.4944 79.8581 83.1391 80.5181 82.327 80.8662C81.5221 81.2215 80.7898 81.0257 80.8188 80.9314C80.8261 80.8226 81.4786 80.8371 82.182 80.5253C82.8925 80.228 83.3276 79.7494 83.4073 79.8146Z" fill="#251A51"/>
<path d="M210.665 75.5347C211.782 73.5767 213.493 71.9015 215.625 71.169C217.756 70.4438 220.301 70.7919 221.94 72.3366C223.579 73.8812 224.021 76.6514 222.694 78.4717C225.602 77.993 228.734 79.7045 229.894 82.4167C231.054 85.1289 230.141 88.5735 227.784 90.3502C225.428 92.127 221.86 92.0617 219.576 90.198C219.192 91.8369 217.909 93.2437 216.306 93.7731C214.704 94.3025 212.84 93.9472 211.55 92.8666C208.28 90.1254 209.258 84.0411 205.589 81.8583" fill="#251A51"/>
<path d="M176.69 112.505C172.129 115.544 166.365 116.399 161.224 114.499C159.614 113.905 158.258 113.15 157.483 112.287C154.908 109.423 154.481 104.84 156.482 101.547C157.765 99.4371 159.912 97.849 160.738 95.5139C161.63 92.9757 160.745 90.2055 160.644 87.515C160.455 82.359 163.501 77.2246 168.112 74.9258L180.076 87.6166L177.705 111.831L176.69 112.505Z" fill="#251A51"/>
<path d="M209.021 79.6103C207.346 82.7866 205.649 86.0355 205.105 89.5816C204.569 93.1278 205.403 97.0946 208.107 99.4514C210.341 101.395 213.473 101.975 215.866 103.723C219.39 106.29 220.731 110.909 221.181 115.246C221.63 119.583 221.442 124.057 222.87 128.176C224.719 133.492 229.12 137.727 230.454 143.195C231.767 148.59 229.599 154.667 225.169 158.01C220.738 161.353 214.3 161.767 209.47 159.018C202.539 155.066 200.197 146.371 198.486 138.575C193.736 116.928 188.98 94.4984 193.519 72.8008" fill="#251A51"/>
<path d="M205.185 46.8977C203.923 42.9889 197.427 39.4572 193.866 37.4122C188.544 34.3519 183.607 34.9683 180.568 37.6878C175.072 33.0756 167.836 28.6447 160.897 30.4576C153.958 32.2706 148.324 39.3775 149.586 46.4408C150.333 50.6034 153.211 54.3381 153.044 58.5587C152.928 61.4377 151.406 64.0411 150.187 66.6518C148.969 69.2624 148.034 72.3082 149.122 74.9842C150.129 77.4716 152.646 79.0235 154.001 81.3368C155.104 83.2223 155.357 85.4704 156.068 87.5372C158.685 95.1952 167.727 99.4883 175.71 98.1467C183.694 96.7978 190.335 90.7933 194.106 83.6284C197.876 76.4636 199.123 68.2399 199.558 60.1613" fill="#251A51"/>
<path d="M199.225 52.4375L197.63 116.305C197.057 123.629 188.407 134.434 180.576 133.767C172.665 133.086 168.533 121.069 168.982 113.665C169.461 105.891 169.823 97.7037 169.823 97.7037C169.823 97.7037 159.919 95.3976 158.693 82.1992C158.062 75.4404 159.157 64.3596 160.303 55.5558C161.267 48.1734 168.17 43.0825 175.508 44.3371" fill="#F6AEA6"/>
<path d="M169.903 97.5365C169.903 97.5365 178.655 98.6678 187.696 93.9976C187.696 93.9976 181.055 99.4945 169.758 98.1529L169.903 97.5365Z" fill="#251A51"/>
<path d="M178.386 72.2501C178.386 72.5112 178.604 72.7287 178.865 72.7287C179.126 72.7287 179.343 72.5112 179.343 72.2501C179.343 71.989 179.126 71.7715 178.865 71.7715C178.597 71.7715 178.386 71.9818 178.386 72.2501Z" fill="#EA785E"/>
<path d="M164.856 69.9073C164.856 70.1684 165.074 70.386 165.335 70.386C165.596 70.386 165.813 70.1684 165.813 69.9073C165.813 69.6463 165.596 69.4287 165.335 69.4287C165.066 69.4287 164.856 69.639 164.856 69.9073Z" fill="#EA785E"/>
<path d="M162.209 71.1549C162.209 71.416 162.426 71.6335 162.687 71.6335C162.948 71.6335 163.166 71.416 163.166 71.1549C163.166 70.8938 162.948 70.6763 162.687 70.6763C162.426 70.6763 162.209 70.8866 162.209 71.1549Z" fill="#EA785E"/>
<path d="M161.404 69.1529C161.404 69.414 161.621 69.6316 161.882 69.6316C162.143 69.6316 162.361 69.414 162.361 69.1529C162.361 68.8919 162.143 68.6743 161.882 68.6743C161.621 68.6743 161.404 68.8846 161.404 69.1529Z" fill="#EA785E"/>
<path d="M180.575 74.36C180.575 74.621 180.793 74.8386 181.054 74.8386C181.315 74.8386 181.533 74.621 181.533 74.36C181.533 74.0989 181.315 73.8813 181.054 73.8813C180.786 73.8813 180.575 74.0989 180.575 74.36Z" fill="#EA785E"/>
<path d="M182.367 72.4386C182.367 72.6996 182.585 72.9172 182.846 72.9172C183.107 72.9172 183.324 72.6996 183.324 72.4386C183.324 72.1775 183.107 71.96 182.846 71.96C182.585 71.96 182.367 72.1775 182.367 72.4386Z" fill="#EA785E"/>
<path d="M176.188 42.2992C177.37 52.7057 185.085 62.0751 195.07 65.2296C191.85 69.8708 193.88 78.7036 193.793 86.0788C193.714 92.9318 193.721 94.8898 198.158 98.3852C201.827 99.27 203.945 89.2189 206.671 86.4051C209.397 83.5987 212.007 80.1323 211.804 76.2235C211.71 74.396 211 72.6411 210.898 70.8208C210.789 68.7903 211.435 66.8106 211.797 64.8163C213.385 55.9762 208.803 46.469 201.102 41.8423C193.402 37.2156 183.12 37.5347 175.485 42.2629" fill="#251A51"/>
<path d="M210.587 69.8418C210.594 69.849 210.703 69.7258 210.913 69.4719C211.109 69.2109 211.356 68.7903 211.515 68.1956C211.87 67.0063 211.704 65.1208 210.754 63.1266C210.304 62.1258 209.579 61.1105 208.673 60.204C207.781 59.2758 206.744 58.3548 205.54 57.5353C204.344 56.7159 202.974 55.998 201.473 55.4976C199.979 54.9899 198.398 54.5911 196.781 54.185C195.164 53.7789 193.591 53.38 192.119 52.8651C190.64 52.3575 189.255 51.7483 187.993 51.0739C185.456 49.7251 183.367 48.1587 181.765 46.6938C180.155 45.2289 179.017 43.8801 178.263 42.9228C177.879 42.4514 177.603 42.0598 177.414 41.806C177.226 41.545 177.117 41.4144 177.11 41.4217C177.103 41.4289 177.19 41.574 177.364 41.8423C177.538 42.1106 177.799 42.5095 178.169 42.9953C178.894 43.9743 180.018 45.3522 181.62 46.8533C183.215 48.3472 185.311 49.9426 187.863 51.3205C189.139 52.0094 190.538 52.6258 192.025 53.148C193.511 53.6774 195.099 54.0762 196.709 54.4823C198.326 54.8884 199.899 55.28 201.378 55.7804C202.858 56.2735 204.199 56.9697 205.388 57.7674C206.577 58.5651 207.607 59.4716 208.499 60.3781C209.412 61.2773 210.108 62.2346 210.565 63.2208C211.522 65.1643 211.711 66.9991 211.399 68.1666C211.116 69.3559 210.529 69.8128 210.587 69.8418Z" fill="#A39BD3"/>
<path d="M177.109 41.4217C177.102 41.429 177.196 41.545 177.377 41.7553C177.559 41.9656 177.841 42.2702 178.204 42.6546C178.944 43.416 180.046 44.4893 181.525 45.6859C183.019 46.8534 184.882 48.1878 187.231 49.1305C188.406 49.6019 189.704 49.8919 191.045 50.1603C192.387 50.4286 193.786 50.6389 195.214 50.8564C198.071 51.2771 200.798 51.7267 203.154 52.5244C205.511 53.3293 207.483 54.4679 208.904 55.7079C210.332 56.9335 211.21 58.2171 211.681 59.1526C211.906 59.6312 212.073 60.0011 212.16 60.2694C212.261 60.5232 212.319 60.661 212.326 60.661C212.334 60.661 212.297 60.5159 212.218 60.2476C212.152 59.9721 212 59.5877 211.783 59.1018C211.34 58.1373 210.477 56.8102 209.042 55.5484C207.621 54.2721 205.627 53.0973 203.241 52.2633C200.856 51.4366 198.115 50.9797 195.258 50.5591C193.83 50.3416 192.437 50.1385 191.103 49.8702C189.769 49.6019 188.486 49.3263 187.333 48.8694C185.013 47.9557 183.149 46.6576 181.655 45.5118C180.169 44.3515 179.045 43.3 178.284 42.5675C177.921 42.2122 177.631 41.9294 177.414 41.7118C177.225 41.516 177.116 41.4145 177.109 41.4217Z" fill="#A39BD3"/>
<path d="M162.492 30.0366C162.485 30.1018 163.616 30.1381 165.356 30.6022C165.791 30.7183 166.262 30.856 166.755 31.0518C167.256 31.2186 167.77 31.4652 168.307 31.7045C169.373 32.2339 170.497 32.9083 171.57 33.7568C172.636 34.6198 173.549 35.5625 174.311 36.4762C174.666 36.9476 175.021 37.39 175.297 37.8396C175.601 38.2747 175.833 38.7026 176.051 39.1014C176.899 40.6896 177.189 41.7846 177.255 41.7629C177.276 41.7556 177.204 41.4873 177.059 41.0014C176.986 40.7549 176.892 40.4575 176.747 40.1312C176.602 39.7976 176.464 39.406 176.247 39.0071C176.044 38.601 175.812 38.1587 175.514 37.7091C175.246 37.2449 174.891 36.7881 174.535 36.3022C173.781 35.3595 172.853 34.395 171.766 33.5175C170.664 32.6545 169.518 31.9728 168.43 31.4507C167.879 31.2114 167.357 30.9721 166.842 30.8125C166.342 30.624 165.856 30.5007 165.414 30.3919C164.979 30.2686 164.566 30.2179 164.21 30.1526C163.855 30.0873 163.543 30.0583 163.289 30.0438C162.767 30.0221 162.492 30.0148 162.492 30.0366Z" fill="#A39BD3"/>
<path d="M153.218 79.7624C153.225 79.7552 153.189 79.7189 153.131 79.6464C153.059 79.5594 152.964 79.4578 152.856 79.3273C152.616 79.0445 152.254 78.6384 151.84 78.0727C151.434 77.5071 150.949 76.7819 150.68 75.8319C150.55 75.3605 150.492 74.8311 150.557 74.28C150.63 73.7361 150.833 73.1705 151.152 72.6411C151.775 71.5605 152.798 70.625 153.733 69.4647C154.661 68.2972 155.517 66.9411 156.191 65.4109C156.865 63.8808 157.38 62.1766 157.619 60.3636C157.866 58.5507 157.786 56.6579 157.757 54.7434C157.728 52.8289 157.779 50.9507 158.265 49.2247C158.743 47.4988 159.657 45.9832 160.759 44.7721C161.861 43.5538 163.173 42.64 164.508 42.0454C165.842 41.4435 167.205 41.1824 168.452 41.1389C170.961 41.0446 172.933 41.7698 174.166 42.3935C174.789 42.7126 175.246 43.0171 175.543 43.2274C175.681 43.329 175.797 43.4087 175.884 43.474C175.964 43.5248 176.007 43.5538 176.007 43.5465C176.007 43.5465 175.456 42.9809 174.216 42.2919C172.984 41.6248 170.997 40.8561 168.445 40.9286C167.176 40.9649 165.784 41.2187 164.413 41.8206C163.043 42.4152 161.694 43.3435 160.563 44.5835C159.425 45.8236 158.489 47.3755 157.989 49.145C157.489 50.9144 157.438 52.8289 157.467 54.7507C157.496 56.6724 157.576 58.5434 157.337 60.3274C157.105 62.1113 156.612 63.7865 155.952 65.2949C155.292 66.8106 154.458 68.1522 153.552 69.3052C152.645 70.451 151.616 71.4155 150.985 72.5323C150.666 73.0834 150.456 73.6781 150.39 74.251C150.325 74.8311 150.398 75.3823 150.535 75.8682C150.825 76.8472 151.34 77.5723 151.761 78.1307C152.189 78.6891 152.566 79.088 152.827 79.3563C152.95 79.4796 153.044 79.5739 153.124 79.6536C153.175 79.7334 153.211 79.7624 153.218 79.7624Z" fill="#A39BD3"/>
<path d="M209.898 70.5816C209.898 70.5889 209.949 70.5671 210.036 70.5163C210.144 70.4583 210.275 70.3931 210.434 70.306C210.775 70.103 211.283 69.7984 211.863 69.3198C213.023 68.377 214.604 66.7236 215.561 64.1637C216.54 61.6473 216.648 58.1374 215.06 54.874C214.285 53.2496 213.074 51.7267 211.507 50.5447C209.949 49.3553 208.085 48.4924 206.106 47.8977C204.126 47.3031 202.118 46.9985 200.189 46.8172C198.253 46.6359 196.389 46.5489 194.613 46.4256C192.837 46.3023 191.162 46.1428 189.603 45.8672C188.051 45.5989 186.63 45.2 185.383 44.7214C182.874 43.7641 181.105 42.4298 180.053 41.371C179.539 40.8271 179.169 40.3775 178.937 40.0512C178.828 39.8989 178.741 39.7829 178.676 39.6886C178.618 39.6088 178.581 39.5653 178.574 39.5726C178.574 39.5726 178.944 40.334 179.966 41.458C180.996 42.5603 182.772 43.9382 185.303 44.9317C186.565 45.4248 187.993 45.8454 189.559 46.121C191.125 46.4111 192.815 46.5851 194.591 46.7157C198.137 46.9985 202.089 47.0275 206.019 48.2023C207.969 48.7824 209.803 49.6309 211.333 50.7912C212.871 51.9443 214.052 53.4164 214.814 55.0046C216.373 58.1881 216.293 61.6183 215.358 64.0984C214.444 66.6293 212.907 68.2755 211.783 69.24C211.217 69.7259 210.724 70.0522 210.398 70.2625C210.239 70.3568 210.115 70.4366 210.014 70.5018C209.941 70.5453 209.898 70.5743 209.898 70.5816Z" fill="#A39BD3"/>
<path d="M212.334 117.385C212.356 117.371 212.218 117.066 211.95 116.479C211.653 115.833 211.254 114.985 210.761 113.933C209.767 111.714 208.216 108.502 206.678 104.47C205.997 102.454 206.026 99.9952 206.932 97.6529C207.375 96.4781 208.02 95.3395 208.817 94.259C209.216 93.7223 209.659 93.2002 210.144 92.7143C210.645 92.2285 211.145 91.6556 211.58 91.0682C213.342 88.704 214.509 85.6945 214.647 82.4819C214.821 79.2693 213.857 75.89 211.885 73.1125C209.941 70.306 207.07 68.2828 204.046 67.2747C201.037 66.2232 198.028 65.7518 195.374 64.6931C190.016 62.6625 185.956 59.2034 183.229 55.8675C180.481 52.5099 178.966 49.2756 178.139 47.0057C177.334 44.7141 177.102 43.3725 177.023 43.3943C177.001 43.4016 177.052 43.7351 177.175 44.3661C177.276 45.0042 177.53 45.918 177.878 47.1C178.632 49.4279 180.097 52.7347 182.838 56.1866C185.557 59.6168 189.661 63.1919 195.135 65.3095C197.854 66.419 200.885 66.8976 203.807 67.9347C206.736 68.9209 209.434 70.8354 211.304 73.5259C213.19 76.1873 214.111 79.3999 213.958 82.4602C213.835 85.535 212.726 88.4212 211.058 90.6911C210.63 91.264 210.195 91.7788 209.695 92.272C209.18 92.7868 208.738 93.3307 208.324 93.8964C207.505 95.0204 206.845 96.217 206.388 97.4498C205.46 99.9082 205.46 102.519 206.207 104.622C207.839 108.719 209.441 111.852 210.514 114.057C211.065 115.144 211.507 115.986 211.819 116.551C212.131 117.11 212.312 117.4 212.334 117.385Z" fill="#A39BD3"/>
<path d="M165.146 65.3748C165.066 66.2523 165.378 67.0137 165.849 67.0645C166.32 67.1153 166.763 66.4481 166.85 65.5706C166.929 64.6931 166.618 63.9317 166.146 63.8809C165.675 63.8229 165.225 64.4973 165.146 65.3748Z" fill="#251A51"/>
<path d="M163.195 61.3284C163.391 61.5604 164.703 60.6902 166.501 60.7917C168.299 60.8642 169.568 61.8577 169.771 61.6474C169.873 61.5532 169.684 61.1543 169.133 60.7047C168.589 60.2551 167.647 59.8055 166.53 59.7474C165.414 59.6967 164.449 60.0593 163.884 60.4509C163.304 60.8425 163.101 61.2268 163.195 61.3284Z" fill="#251A51"/>
<path d="M182.382 66.4555C182.302 67.333 182.672 68.0944 183.216 68.1597C183.76 68.2177 184.26 67.5578 184.34 66.6803C184.42 65.8028 184.05 65.0414 183.506 64.9761C182.962 64.9109 182.462 65.5708 182.382 66.4555Z" fill="#251A51"/>
<path d="M180.844 62.6052C181.04 62.8373 182.359 61.967 184.15 62.0686C185.949 62.1411 187.217 63.1346 187.42 62.9243C187.522 62.83 187.333 62.4312 186.775 61.9815C186.231 61.5319 185.289 61.0823 184.172 61.0243C183.055 60.9735 182.091 61.3361 181.526 61.7277C180.953 62.1121 180.742 62.4964 180.844 62.6052Z" fill="#251A51"/>
<path d="M173.615 77.5293C173.63 77.4278 172.52 77.174 170.722 76.8476C170.265 76.7751 169.838 76.6591 169.772 76.3473C169.685 76.0064 169.903 75.5278 170.149 75.0057C170.642 73.9179 171.15 72.7793 171.694 71.5828C173.84 66.7095 175.421 62.692 175.225 62.6049C175.029 62.5179 173.129 66.4049 170.976 71.2782C170.454 72.482 169.961 73.6278 169.49 74.7228C169.287 75.2377 168.96 75.8106 169.156 76.5141C169.265 76.8621 169.584 77.1305 169.874 77.2247C170.164 77.3335 170.418 77.348 170.65 77.377C172.47 77.5583 173.601 77.6308 173.615 77.5293Z" fill="#251A51"/>
<path d="M174.144 81.8944C174.833 81.075 175.993 80.6616 177.109 80.8429C177.885 80.9662 178.654 81.3868 179.096 82.0467C179.538 82.7067 179.589 83.6131 179.125 84.1933C178.603 84.846 177.581 84.9547 176.74 84.6647C175.891 84.3746 175.188 83.7727 174.514 83.1708C174.325 83.004 174.137 82.8299 174.028 82.6124C173.919 82.3948 173.905 82.112 174.064 81.9452" fill="#EA785E"/>
<path d="M178.835 79.0516C178.545 79.0226 178.437 80.9661 176.696 82.2642C174.956 83.5623 172.89 83.2359 172.861 83.5042C172.824 83.6275 173.303 83.9104 174.18 83.9756C175.043 84.0481 176.312 83.8378 177.378 83.0474C178.444 82.2497 178.937 81.1401 179.046 80.3424C179.162 79.5375 178.966 79.0443 178.835 79.0516Z" fill="#251A51"/>
<path d="M145.523 153.073L100.002 174.451C98.2694 175.104 96.4277 175.408 94.5787 175.35C94.3032 175.343 94.0349 175.329 93.7666 175.3C86.3998 174.654 80.9689 168.084 81.2445 160.694L78.6922 104.884H97.7836L105.709 144.232L150.091 114.152C152.252 112.687 154.695 111.679 157.269 111.193L165.833 109.576" fill="#FFF000"/>
<path d="M165.834 109.575C165.834 109.575 155.284 151.041 156.981 167.59C158.677 184.139 160.272 224.336 160.272 224.336H148.12C148.12 224.336 143.458 224.684 144.574 216.99C146.054 206.779 145.633 194.589 145.633 194.589C145.633 194.589 145.633 182.754 144.922 171.753C144.632 167.191 145.068 155.77 145.068 155.77L147.294 142.339L145.089 122.034L165.834 109.575Z" fill="#FFF000"/>
<path d="M157.713 199.52C157.721 199.52 157.699 199.44 157.655 199.295C157.604 199.129 157.532 198.918 157.452 198.65C157.256 198.063 156.981 197.229 156.633 196.17C155.937 194.016 154.878 190.905 153.95 186.96C153.493 184.987 153.087 182.805 152.848 180.44C152.609 178.076 152.543 175.531 152.609 172.855C152.681 170.179 152.87 167.373 153.123 164.472C153.363 161.564 153.682 158.562 154.044 155.494C155.524 143.209 157.844 132.23 159.83 124.376C160.809 120.438 161.716 117.291 162.325 115.108C162.637 114.035 162.883 113.201 163.057 112.599C163.13 112.331 163.195 112.113 163.238 111.946C163.275 111.801 163.296 111.722 163.289 111.722C163.282 111.722 163.253 111.794 163.202 111.939C163.144 112.106 163.079 112.316 162.985 112.585C162.796 113.179 162.528 114.013 162.187 115.072C161.534 117.248 160.585 120.388 159.569 124.318C157.517 132.165 155.154 143.151 153.667 155.458C153.305 158.533 152.986 161.542 152.754 164.45C152.5 167.358 152.319 170.172 152.253 172.855C152.195 175.538 152.275 178.098 152.529 180.477C152.783 182.855 153.203 185.045 153.682 187.025C154.646 190.977 155.741 194.074 156.488 196.221C156.865 197.272 157.162 198.092 157.372 198.679C157.474 198.94 157.554 199.15 157.612 199.317C157.677 199.448 157.706 199.52 157.713 199.52Z" fill="#263238"/>
<path d="M149.962 132.303C149.947 132.295 149.897 132.426 149.795 132.68C149.686 132.977 149.556 133.34 149.396 133.796C149.048 134.761 148.599 136.182 148.091 137.952C147.069 141.483 145.923 146.451 145.205 152.02C144.502 157.597 144.364 162.688 144.459 166.365C144.509 168.199 144.589 169.686 144.676 170.716C144.72 171.194 144.756 171.586 144.785 171.898C144.814 172.166 144.836 172.311 144.85 172.304C144.865 172.304 144.865 172.159 144.865 171.891C144.857 171.579 144.843 171.187 144.828 170.708C144.778 169.686 144.741 168.199 144.727 166.365C144.698 162.695 144.872 157.626 145.575 152.071C146.286 146.523 147.388 141.563 148.338 138.024C148.809 136.255 149.222 134.826 149.527 133.847C149.665 133.39 149.773 133.013 149.86 132.709C149.94 132.448 149.969 132.31 149.962 132.303Z" fill="#263238"/>
<path d="M103.122 155.901C103.158 155.922 103.601 155.386 104.152 154.392C104.703 153.406 105.319 151.956 105.689 150.266C106.052 148.576 106.095 146.995 106.008 145.871C105.921 144.747 105.74 144.066 105.696 144.073C105.566 144.08 106.059 146.858 105.319 150.186C104.609 153.515 103.006 155.843 103.122 155.901Z" fill="#263238"/>
<g opacity="0.2">
<g opacity="0.2">
<path opacity="0.2" d="M154.123 200.573C153.166 199.84 152.579 197.839 152.34 196.657C150.027 185.322 149.65 172.45 153.203 161.441C151.114 176.46 152.913 187.802 157.676 199.405" fill="black"/>
</g>
</g>
<g opacity="0.2">
<g opacity="0.2">
<path opacity="0.2" d="M106.312 143.964C108.691 144.428 110.155 147.097 109.974 149.511C109.793 151.926 108.35 154.073 106.711 155.85C106.247 156.35 105.5 156.872 104.949 156.466C104.587 156.205 104.543 155.69 104.565 155.24C104.666 153.319 105.384 151.484 105.906 149.635C106.428 147.778 106.755 145.762 106.08 143.957" fill="black"/>
</g>
</g>
<path d="M197.941 103.897L175.246 131.273L169.38 106.718L165.834 109.576L162.281 124.986L175.964 137.133L185.499 139.004L194.627 135.711L201.182 107.596L197.941 103.897Z" fill="#FAFAFA"/>
<path d="M157.213 172.261C157.227 172.261 157.263 172.101 157.329 171.79C157.394 171.441 157.481 170.992 157.59 170.433C157.691 169.846 157.836 169.128 158.032 168.294C158.213 167.46 158.409 166.517 158.692 165.48C158.822 164.958 158.96 164.414 159.105 163.849C159.265 163.283 159.439 162.703 159.613 162.101C159.946 160.883 160.388 159.614 160.816 158.265C161.744 155.589 162.861 152.688 164.188 149.7C165.536 146.727 166.965 143.957 168.35 141.491C169.075 140.273 169.727 139.098 170.416 138.047C170.75 137.517 171.076 137.002 171.388 136.509C171.714 136.023 172.026 135.559 172.33 135.117C172.918 134.225 173.498 133.442 173.998 132.753C174.491 132.056 174.934 131.469 175.303 131.005C175.644 130.555 175.927 130.185 176.137 129.91C176.326 129.656 176.42 129.518 176.413 129.511C176.405 129.504 176.289 129.627 176.079 129.859C175.847 130.127 175.55 130.483 175.187 130.911C174.796 131.368 174.339 131.94 173.824 132.622C173.309 133.304 172.715 134.072 172.106 134.957C171.794 135.4 171.475 135.856 171.141 136.342C170.822 136.835 170.489 137.35 170.148 137.88C169.445 138.931 168.778 140.106 168.045 141.324C166.639 143.797 165.196 146.567 163.84 149.555C162.506 152.55 161.396 155.473 160.483 158.163C160.062 159.519 159.627 160.796 159.308 162.021C159.141 162.63 158.974 163.218 158.822 163.783C158.684 164.356 158.554 164.9 158.431 165.422C158.17 166.467 157.988 167.417 157.822 168.258C157.648 169.092 157.524 169.817 157.445 170.412C157.365 170.977 157.3 171.427 157.249 171.782C157.22 172.087 157.205 172.254 157.213 172.261Z" fill="#263238"/>
<path d="M165.586 135.313C165.521 135.393 167.051 136.749 169.001 138.33C170.952 139.918 172.59 141.136 172.656 141.056C172.721 140.976 171.191 139.62 169.241 138.039C167.283 136.459 165.651 135.233 165.586 135.313Z" fill="#263238"/>
<path d="M165.114 138.881C165.064 138.982 166.499 139.744 168.015 141.042C169.537 142.325 170.524 143.616 170.618 143.551C170.698 143.5 169.82 142.071 168.261 140.759C166.702 139.417 165.143 138.794 165.114 138.881Z" fill="#263238"/>
<path d="M228.858 147.626C228.858 147.626 209.498 187.497 210.774 199.376L215.531 224.329H197.607L190.225 224.286C190.022 213.669 191.262 184.799 191.915 164.857C192.567 144.914 200.435 106.494 200.435 106.494L207.04 109.373C216.502 109.844 229.22 115.5 231.744 129.504L228.858 147.626Z" fill="#FFF000"/>
<path d="M231.44 127.923L239.988 172.544L240.974 182.951C242.004 193.785 234.311 203.502 223.536 204.996L168.93 214.634L157.8 197.193L213.088 178.824L205.808 146.278L231.44 127.923Z" fill="#FFF000"/>
<path d="M222.47 205.184C222.47 205.184 222.383 205.191 222.209 205.213C222.028 205.242 221.774 205.278 221.447 205.329C220.766 205.445 219.78 205.605 218.504 205.822C215.922 206.265 212.174 206.91 207.446 207.722C197.969 209.376 184.584 211.718 168.894 214.459L169.075 214.539C165.616 209.107 161.86 203.219 157.952 197.091L157.851 197.367C160.584 196.46 163.477 195.496 166.407 194.524C183.91 188.693 200.101 183.305 213.124 178.969L213.247 178.925L213.225 178.795C211.63 168.337 210.31 159.729 209.397 153.718C208.933 150.73 208.563 148.395 208.316 146.785C208.186 146.002 208.091 145.392 208.019 144.972C207.946 144.566 207.903 144.355 207.903 144.355C207.903 144.355 207.917 144.566 207.975 144.979C208.033 145.407 208.12 146.016 208.229 146.799C208.461 148.409 208.802 150.752 209.23 153.747C210.114 159.758 211.391 168.381 212.935 178.845L213.037 178.679C200.007 182.993 183.816 188.367 166.298 194.169C163.368 195.14 160.468 196.105 157.742 197.011L157.51 197.084L157.64 197.287C161.548 203.408 165.312 209.296 168.778 214.72L168.843 214.822L168.959 214.8C184.642 212.001 198.02 209.615 207.49 207.925C212.203 207.07 215.951 206.395 218.525 205.924C219.794 205.685 220.78 205.503 221.462 205.38C221.788 205.315 222.035 205.271 222.216 205.235C222.39 205.213 222.47 205.184 222.47 205.184Z" fill="#263238"/>
<path d="M212.291 178.969C212.298 179.034 212.878 178.991 213.799 179.107C214.72 179.216 215.974 179.527 217.214 180.195C218.454 180.869 219.411 181.739 220.006 182.443C220.608 183.146 220.898 183.654 220.956 183.625C220.992 183.61 220.782 183.052 220.216 182.276C219.658 181.507 218.686 180.557 217.388 179.861C216.09 179.165 214.771 178.882 213.814 178.838C212.864 178.795 212.284 178.933 212.291 178.969Z" fill="#263238"/>
<path d="M208.049 130.243C208.121 130.258 208.266 129.163 208.926 127.538C209.571 125.921 210.84 123.789 212.885 122.078C214.93 120.359 217.25 119.489 218.954 119.126C220.665 118.756 221.767 118.807 221.767 118.735C221.767 118.713 221.492 118.677 220.999 118.677C220.498 118.669 219.781 118.713 218.903 118.865C217.156 119.162 214.749 120.018 212.646 121.788C210.543 123.557 209.274 125.776 208.68 127.444C208.375 128.285 208.208 128.989 208.129 129.475C208.042 129.96 208.027 130.236 208.049 130.243Z" fill="#263238"/>
<path d="M193.162 185.343C193.17 185.343 193.199 185.285 193.257 185.169C193.315 185.031 193.394 184.85 193.489 184.633C193.699 184.132 193.982 183.443 194.351 182.566C195.077 180.76 196.135 178.142 197.194 174.821C198.231 171.499 199.275 167.431 199.42 162.797C199.594 158.163 198.76 153.138 198.383 147.858C198.006 142.572 198.47 137.51 199.195 132.985C199.942 128.452 200.95 124.427 201.856 121.077C202.77 117.72 203.582 115.029 204.14 113.158C204.408 112.244 204.619 111.526 204.771 111.012C204.836 110.779 204.887 110.598 204.923 110.453C204.959 110.323 204.967 110.257 204.967 110.257C204.959 110.257 204.938 110.315 204.887 110.439C204.836 110.584 204.771 110.765 204.698 110.99C204.532 111.505 204.292 112.215 204.002 113.122C203.408 114.971 202.552 117.661 201.602 121.012C200.66 124.362 199.623 128.387 198.854 132.934C198.1 137.474 197.629 142.564 198.006 147.887C198.383 153.196 199.224 158.199 199.072 162.79C198.948 167.373 197.941 171.427 196.94 174.748C195.918 178.07 194.895 180.695 194.214 182.515C193.873 183.407 193.612 184.103 193.416 184.611C193.336 184.836 193.271 185.017 193.22 185.162C193.17 185.278 193.155 185.336 193.162 185.343Z" fill="#263238"/>
<g opacity="0.2">
<g opacity="0.2">
<path opacity="0.2" d="M198.935 183.617C200.24 178.73 201.56 173.805 201.879 168.758C202.198 163.711 201.465 158.468 198.906 154.109C200.537 164.857 197.681 176.119 192.496 185.67" fill="black"/>
</g>
</g>
<g opacity="0.2">
<path opacity="0.2" d="M213.37 213.01L190.204 212.328L190.139 210.899L212.181 207.07L213.37 213.01Z" fill="black"/>
</g>
<g opacity="0.2">
<path opacity="0.2" d="M208.752 149.99L210.333 179.745L213.088 178.831L208.752 149.99Z" fill="black"/>
</g>
<path d="M158.75 199.122L145.894 203.349L141.37 199.499L124.381 205.786L126.252 218.535L128.529 218.557L131.008 211.899L142.646 216.388L147.511 217.744L167.32 212.69L158.75 199.122Z" fill="#F6AEA6"/>
<path d="M190.081 224.336V222.922C190.081 221.341 188.797 220.057 187.217 220.057H148.628L131.922 171.412C131.269 169.519 129.493 168.25 127.492 168.25H54.36C54.0265 168.25 53.7944 168.576 53.9032 168.895L73.4514 224.343H190.081V224.336Z" fill="#251A51"/>
<path d="M98.1834 200.695C95.7487 200.695 93.7749 198.721 93.7749 196.286C93.7749 193.851 95.7487 191.876 98.1834 191.876C100.618 191.876 102.592 193.851 102.592 196.286C102.592 198.721 100.618 200.695 98.1834 200.695Z" fill="white"/>
</svg>
