<svg width="358" height="297" viewBox="0 0 358 297" fill="none" xmlns="http://www.w3.org/2000/svg">
<path fill-rule="evenodd" clip-rule="evenodd" d="M177.604 289.692C132.537 290.235 87.4416 306.17 45.7032 289.198C-1.31887 270.076 -52.1485 239.731 -65.5192 190.829C-78.7658 142.38 -41.2281 96.4821 -19.3553 51.251C-1.70503 14.752 17.1388 -20.6057 48.921 -45.8231C80.5259 -70.8997 119.553 -79.3305 158.515 -89.8786C209.587 -103.705 264.443 -141.849 311.017 -116.78C357.261 -91.8889 354.111 -25.1116 371.074 24.5322C387.271 71.9354 417.973 117.406 407.796 166.454C397.379 216.665 362.103 261.701 316.839 285.934C274.893 308.391 225.194 289.119 177.604 289.692Z" fill="#0968D7"/>
</svg>
