<svg width="136" height="136" viewBox="0 0 136 136" fill="none" xmlns="http://www.w3.org/2000/svg">
<path d="M67.81 135.038C105.089 135.038 135.31 104.817 135.31 67.5379C135.31 30.2587 105.089 0.0379639 67.81 0.0379639C30.5308 0.0379639 0.310059 30.2587 0.310059 67.5379C0.310059 104.817 30.5308 135.038 67.81 135.038Z" fill="#F2F6FF"/>
<path d="M131.111 91.0161C133.825 83.7037 135.31 75.7946 135.31 67.5379C135.31 59.2813 133.825 51.3722 131.111 44.0598H4.50802C1.79483 51.3722 0.30957 59.2813 0.30957 67.5379C0.30957 75.7946 1.79483 83.7037 4.50802 91.0161L67.8096 96.8857L131.111 91.0161Z" fill="#0F6FE2"/>
<path d="M67.8093 135.038C96.832 135.038 121.574 116.72 131.111 91.0161H4.50781C14.0451 116.72 38.7867 135.038 67.8093 135.038Z" fill="#F12121"/>
</svg>
