<svg width="25" height="25" viewBox="0 0 25 25" fill="none" xmlns="http://www.w3.org/2000/svg">
<path fill-rule="evenodd" clip-rule="evenodd" d="M18.4741 18.0581C17.945 18.7982 17.1631 19.3824 16.1472 19.797C15.1439 20.2087 13.9416 20.4188 12.5714 20.4188C10.9274 20.4188 9.5489 20.1336 8.47209 19.5701C7.70296 19.1612 7.0694 18.6075 6.58827 17.9203C6.10152 17.2303 5.8559 16.5446 5.8559 15.8811C5.8559 15.4693 6.01677 15.1104 6.3329 14.8168C6.64621 14.5247 7.0484 14.3786 7.52802 14.3786C7.92027 14.3786 8.2604 14.4941 8.53546 14.7236C8.79927 14.9449 9.02502 15.2717 9.20709 15.6904C9.41034 16.1494 9.63046 16.5362 9.86334 16.8381C10.0891 17.133 10.4123 17.3792 10.8243 17.5725C11.2392 17.7645 11.7993 17.8646 12.4865 17.8646C13.4333 17.8646 14.2094 17.6644 14.7921 17.2721C15.3636 16.8896 15.6402 16.4278 15.6402 15.8631C15.6402 15.4192 15.4949 15.0688 15.1985 14.7934C14.8851 14.5069 14.4745 14.2843 13.9765 14.1285C13.4558 13.9699 12.7503 13.7961 11.8769 13.6151C10.6874 13.3648 9.67846 13.0684 8.8769 12.7305C8.05565 12.387 7.39377 11.9098 6.90984 11.313C6.41877 10.7051 6.16902 9.94425 6.16902 9.04969C6.16902 8.19844 6.43002 7.42912 6.94659 6.76688C7.45734 6.10894 8.20527 5.59425 9.16902 5.24513C10.1187 4.89881 11.2476 4.7235 12.5275 4.7235C13.5492 4.7235 14.4481 4.84031 15.1986 5.07131C15.9535 5.30231 16.5886 5.61375 17.0881 5.99906C17.5919 6.3885 17.9673 6.80175 18.2015 7.233C18.4385 7.66838 18.56 8.10094 18.56 8.51981C18.56 8.92331 18.4019 9.29044 18.0901 9.609C17.7768 9.93169 17.3802 10.0944 16.9146 10.0944C16.4913 10.0944 16.1583 9.9915 15.9297 9.79125C15.7152 9.60338 15.4923 9.31125 15.2453 8.89406C14.9603 8.35988 14.6146 7.93837 14.218 7.64062C13.8327 7.35131 13.1907 7.20656 12.3059 7.20656C11.4875 7.20656 10.8186 7.368 10.3233 7.68919C9.84627 7.99669 9.61359 8.35125 9.61359 8.77144C9.61359 9.02737 9.6884 9.243 9.84365 9.42656C10.0045 9.624 10.2346 9.79387 10.5252 9.93844C10.8258 10.0873 11.1363 10.2069 11.4466 10.2904C11.764 10.3779 12.2975 10.5073 13.0298 10.6744C13.9568 10.8692 14.8079 11.0903 15.56 11.3282C16.3233 11.5674 16.981 11.8624 17.5199 12.2087C18.0674 12.5606 18.5005 13.0114 18.8097 13.551C19.1187 14.0949 19.2755 14.7626 19.2755 15.5402C19.2756 16.4694 19.0047 17.3167 18.4741 18.0581ZM23.7856 15.0868C23.9592 14.3051 24.0494 13.4955 24.0494 12.6636C24.0494 6.43163 18.9258 1.37794 12.6025 1.37794C11.9365 1.37794 11.2831 1.43494 10.6454 1.5435C9.6224 0.907687 8.41152 0.539062 7.11477 0.539062C3.44727 0.539062 0.475586 3.46856 0.475586 7.08544C0.475586 8.29294 0.808586 9.42244 1.38721 10.3961C1.23627 11.1277 1.15584 11.8873 1.15584 12.6636C1.15584 18.8983 6.28096 23.9507 12.6027 23.9507C13.3195 23.9507 14.0195 23.8853 14.6995 23.7615C15.635 24.2567 16.7018 24.5391 17.8377 24.5391C21.5039 24.5391 24.4756 21.6081 24.4756 17.9942C24.4756 16.9494 24.2271 15.9632 23.7856 15.0868Z" fill="#00AEF3"/>
</svg>
