<svg width="31" height="30" viewBox="0 0 31 30" fill="none" xmlns="http://www.w3.org/2000/svg">
<path d="M15.2832 1.26733C22.8836 1.26733 29.0449 7.42867 29.0449 15.0291C29.0449 22.6294 22.8836 28.7908 15.2832 28.7908C7.68282 28.7908 1.52148 22.6294 1.52148 15.0291C1.52148 7.42867 7.68282 1.26733 15.2832 1.26733Z" fill="#00B4FF"/>
<path d="M15.2832 9.52437L20.7879 15.0291L15.2832 20.5337" fill="#00B4FF"/>
<path d="M15.2832 9.52437L20.7879 15.0291M20.7879 15.0291L15.2832 20.5337M20.7879 15.0291H9.77852M29.0449 15.0291C29.0449 7.42867 22.8836 1.26733 15.2832 1.26733C7.68282 1.26733 1.52148 7.42867 1.52148 15.0291C1.52148 22.6294 7.68282 28.7908 15.2832 28.7908C22.8836 28.7908 29.0449 22.6294 29.0449 15.0291Z" stroke="#ECF1FE" stroke-width="2" stroke-linecap="round" stroke-linejoin="round"/>
</svg>
