<svg width="25" height="25" viewBox="0 0 25 25" fill="none" xmlns="http://www.w3.org/2000/svg">
<path d="M12.7685 24.8328C19.3953 24.8328 24.7674 19.4607 24.7674 12.8339C24.7674 6.20707 19.3953 0.834961 12.7685 0.834961C6.14164 0.834961 0.769531 6.20707 0.769531 12.8339C0.769531 19.4607 6.14164 24.8328 12.7685 24.8328Z" fill="url(#paint0_linear)"/>
<path d="M17.9439 7.56256C17.8993 7.56256 17.8504 7.57107 17.8036 7.58808L5.72596 12.1767C5.38575 12.3064 5.39425 12.7912 5.73872 12.9082L8.53911 13.8544L10.2274 17.2332C10.2274 17.2332 10.2274 17.2353 10.2296 17.2353L10.2338 17.2438H10.2359C10.2657 17.3054 10.3295 17.3458 10.3975 17.3458C10.4379 17.3458 10.4783 17.3331 10.5145 17.3033L12.0965 15.9616L10.3295 14.622L10.4677 16.3826L9.19828 13.7545L15.9473 9.70166L10.3295 14.6263L14.7012 17.9455C14.848 18.056 15.0159 18.1071 15.1797 18.1071C15.5263 18.1071 15.8601 17.8796 15.9537 17.5032L18.3182 8.04737C18.3841 7.79221 18.1821 7.56256 17.9439 7.56256Z" fill="white"/>
<defs>
<linearGradient id="paint0_linear" x1="4.28422" y1="4.34967" x2="21.2547" y2="21.3201" gradientUnits="userSpaceOnUse">
<stop stop-color="#00AFE5"/>
<stop offset="1" stop-color="#0094D4"/>
</linearGradient>
</defs>
</svg>
