<svg width="457" height="359" viewBox="0 0 457 359" fill="none" xmlns="http://www.w3.org/2000/svg">
<path d="M128.924 346.294C155.746 325.337 159.962 289.17 156.949 257.074C156.45 251.708 156.705 246.018 153.845 241.461C150.973 236.906 144.747 234.05 140.01 236.608C136.08 238.727 134.598 243.475 132.559 247.449C129.852 252.738 125.625 257.229 120.508 260.241C117.151 262.22 112.931 263.559 109.399 261.9C104.556 259.622 103.617 253.267 103.339 247.921C102.813 237.97 102.285 228.006 101.759 218.054C101.48 212.708 101.169 207.255 99.1914 202.292C97.2133 197.329 93.2136 192.834 87.9832 191.729C82.7518 190.611 76.5621 193.923 75.778 199.214C75.4562 201.417 76.0371 203.649 76.0214 205.877C76.0057 208.105 75.0988 210.619 73.0003 211.36C70.8785 212.116 68.6205 210.727 66.9165 209.261C61.0127 204.202 56.81 197.483 52.8641 190.781C48.9061 184.08 45.0582 177.225 39.6386 171.643C34.2189 166.061 26.9406 161.824 19.1669 161.859C11.3793 161.87 3.40986 167.091 1.88757 174.714C0.367091 182.36 5.27588 189.733 10.481 195.537C18.1963 204.147 27.1788 211.64 37.0269 217.693C38.8006 218.79 40.7267 219.972 41.5046 221.909C42.8853 225.396 39.6853 229.14 36.1866 230.522C32.2268 232.084 27.8349 231.938 23.6431 232.678C19.4514 233.418 14.9851 235.529 13.632 239.561C11.7387 245.155 16.7101 250.6 21.4731 254.077C31.0365 261.039 41.79 266.343 53.1272 269.692C57.1968 270.897 61.4586 271.904 64.8273 274.475C68.1961 277.046 70.4205 281.723 68.7029 285.6C66.9861 289.489 62.0846 290.988 57.86 290.476C53.6475 289.964 49.7852 287.954 45.725 286.712C38.1273 284.385 28.5458 285.467 24.1625 292.1C21.2758 296.453 21.3469 302.277 23.2209 307.151C25.0949 312.024 28.5649 316.109 32.204 319.852C44.94 332.942 60.8548 343.141 78.4511 348.005C96.0716 352.868 112.147 353.513 128.924 346.294Z" fill="#FFF000"/>
<path d="M126.757 347.09C121 331.153 105.69 293.771 96.9347 276.306C94.7348 271.956 92.5497 267.642 90.3943 263.398C88.2398 259.166 86.1122 254.969 83.758 250.995C79.1082 243.019 74.0094 235.71 68.9617 228.92C63.9131 222.118 58.868 215.852 54.0995 210.027C49.3188 204.203 44.7689 198.86 40.4141 194.172C31.7259 184.759 23.8198 177.989 18.194 173.554C15.3867 171.331 13.1571 169.672 11.6264 168.57C10.881 168.041 10.302 167.622 9.89029 167.325C9.49248 167.05 9.27587 166.92 9.27587 166.92C9.27587 166.92 9.45889 167.089 9.83431 167.39C10.2478 167.712 10.8036 168.145 11.5266 168.699C13.0246 169.852 15.2196 171.538 17.9934 173.8C23.5511 178.301 31.3752 185.114 39.9926 194.557C44.312 199.259 48.8386 204.616 53.5839 210.455C58.3301 216.306 63.3509 222.574 68.3753 229.378C73.3989 236.17 78.4604 243.469 83.0954 251.41C85.4245 255.373 87.5372 259.535 89.6927 263.779C91.836 268.024 94.0202 272.326 96.22 276.676C104.975 294.129 120.281 331.463 126.071 347.348" fill="#96800E"/>
<path d="M83.5589 250.937C83.6203 250.944 83.7411 250.12 83.921 248.622C84.1009 247.124 84.3035 244.955 84.5165 242.274C84.9545 236.911 85.299 229.486 85.6711 221.292C86.0432 213.098 86.5235 205.7 87.0723 200.353C87.3346 197.68 87.5744 195.521 87.7673 194.034C87.9481 192.548 88.0196 191.715 87.9703 191.706C87.921 191.698 87.7387 192.515 87.4602 193.996C87.1697 195.478 86.8442 197.632 86.5084 200.298C85.8135 205.644 85.2373 213.061 84.8661 221.267C84.5127 229.386 84.187 236.737 83.9422 242.244C83.8058 244.809 83.6861 246.948 83.5906 248.598C83.5206 250.1 83.5096 250.928 83.5589 250.937Z" fill="#96800E"/>
<path d="M13.2273 242.27C13.2291 242.294 13.4748 242.325 13.9504 242.338C14.5237 242.356 15.2059 242.365 16.0231 242.389C17.8147 242.425 20.4105 242.474 23.6231 242.635C30.0326 242.91 38.8845 243.622 48.601 244.829C58.3193 246.061 67.0709 247.547 73.3733 248.828C76.5226 249.444 79.0597 250.008 80.8161 250.388C81.62 250.559 82.288 250.704 82.8443 250.82C83.3132 250.907 83.5598 250.949 83.5692 250.912C83.5795 250.887 83.3414 250.795 82.893 250.658C82.3461 250.504 81.6866 250.31 80.9024 250.077C79.175 249.598 76.6437 248.948 73.501 248.258C67.225 246.842 58.4661 245.259 48.7106 244.018C38.969 242.8 30.0881 242.188 23.6522 242.049C20.4329 241.962 17.8314 241.998 16.034 242.048C15.2093 242.085 14.5307 242.124 13.9601 242.142C13.4787 242.215 13.2376 242.245 13.2273 242.27Z" fill="#96800E"/>
<path d="M118.393 325.422C118.418 325.432 118.553 325.13 118.802 324.552C119.069 323.887 119.406 323.034 119.827 321.992C120.708 319.772 121.912 316.518 123.35 312.48C126.225 304.403 129.848 293.142 133.695 280.648C137.542 268.154 141.079 256.876 143.805 248.762C145.163 244.79 146.27 241.531 147.079 239.17C147.437 238.109 147.737 237.235 147.966 236.56C148.165 235.961 148.25 235.639 148.225 235.628C148.2 235.618 148.064 235.92 147.816 236.499C147.549 237.164 147.211 238.016 146.79 239.058C145.91 241.278 144.706 244.532 143.268 248.571C140.392 256.647 136.769 267.908 132.922 280.402C129.075 292.884 125.539 304.174 122.811 312.277C121.454 316.248 120.347 319.507 119.538 321.868C119.18 322.941 118.88 323.803 118.65 324.478C118.453 325.089 118.368 325.412 118.393 325.422Z" fill="#96800E"/>
<path d="M24.2021 301.553C24.1918 301.578 24.5164 301.688 25.1499 301.86C25.8569 302.038 26.763 302.274 27.8924 302.567C30.3734 303.196 33.7968 304.06 37.9887 305.109C46.511 307.269 58.2452 310.394 71.1988 313.878C84.1525 317.362 95.9176 320.412 104.49 322.423C108.775 323.428 112.242 324.215 114.652 324.716C115.789 324.948 116.716 325.134 117.432 325.275C118.074 325.397 118.407 325.445 118.417 325.42C118.427 325.395 118.102 325.285 117.469 325.114C116.762 324.936 115.856 324.699 114.727 324.407C112.246 323.777 108.822 322.914 104.63 321.865C96.108 319.704 84.3738 316.579 71.4201 313.095C58.4664 309.611 46.7022 306.574 38.1415 304.55C33.8556 303.544 30.3892 302.757 27.9786 302.256C26.8417 302.025 25.9151 301.839 25.1987 301.698C24.5446 301.576 24.2124 301.528 24.2021 301.553Z" fill="#96800E"/>
<path d="M324.269 347.269C289.606 328.66 277.709 288.291 274.844 251.14C274.36 244.93 272.953 238.499 275.318 232.748C277.696 226.996 284.227 222.522 290.124 224.505C295.017 226.149 297.636 231.266 300.738 235.393C304.859 240.887 310.555 245.173 316.975 247.599C321.186 249.196 326.255 249.892 329.953 247.311C335.023 243.766 334.845 236.343 334.114 230.199C332.761 218.76 331.407 207.307 330.055 195.868C329.323 189.725 328.608 183.452 329.888 177.411C331.167 171.37 334.841 165.465 340.582 163.18C346.322 160.881 354.022 163.439 355.953 169.312C356.752 171.758 356.528 174.414 356.983 176.949C357.438 179.484 358.964 182.17 361.5 182.603C364.064 183.047 366.364 181.022 368.017 179.017C373.75 172.097 377.219 163.619 380.399 155.212C383.593 146.802 386.631 138.239 391.709 130.818C396.788 123.397 404.247 117.143 413.108 115.657C421.981 114.142 432.083 118.526 435.312 126.91C438.544 135.322 434.399 144.682 429.608 152.315C422.509 163.636 413.748 173.933 403.717 182.76C401.912 184.356 399.95 186.081 399.444 188.44C398.555 192.682 402.935 196.32 407.191 197.207C412.008 198.21 416.982 197.182 421.902 197.203C426.822 197.223 432.323 198.752 434.655 203.079C437.909 209.08 433.314 216.257 428.571 221.151C419.044 230.958 407.835 239.109 395.579 245.148C391.179 247.318 386.523 249.301 383.19 252.891C379.857 256.48 378.241 262.243 380.958 266.322C383.676 270.415 389.553 271.161 394.265 269.75C398.963 268.341 402.968 265.293 407.349 263.082C415.546 258.941 426.673 258.294 432.966 264.989C437.109 269.382 438.17 276.029 436.991 281.948C435.813 287.867 432.662 293.2 429.251 298.178C417.311 315.586 401.184 330.325 382.095 339.318C362.978 348.313 344.794 352.202 324.269 347.269Z" fill="#ECF1FE"/>
<path d="M326.891 347.751C330.322 328.469 340.428 282.885 346.975 261.274C348.628 255.888 350.27 250.545 351.893 245.288C353.517 240.045 355.117 234.846 357.019 229.859C360.751 219.862 365.125 210.536 369.543 201.812C373.959 193.074 378.476 184.946 382.765 177.375C387.068 169.804 391.203 162.826 395.244 156.632C403.293 144.205 410.971 134.943 416.509 128.788C419.27 125.704 421.485 123.378 423.012 121.822C423.757 121.074 424.335 120.483 424.745 120.063C425.145 119.673 425.366 119.482 425.366 119.482C425.366 119.482 425.191 119.711 424.822 120.126C424.414 120.574 423.866 121.177 423.151 121.95C421.671 123.557 419.501 125.908 416.786 129.029C411.338 135.245 403.762 144.541 395.799 156.987C391.802 163.191 387.696 170.18 383.436 177.762C379.178 185.358 374.689 193.483 370.3 202.218C365.91 210.939 361.577 220.247 357.855 230.201C355.98 235.172 354.389 240.327 352.767 245.584C351.158 250.84 349.514 256.169 347.862 261.556C341.313 283.152 331.202 328.68 327.723 347.91" fill="#D6DFF5"/>
<path d="M357.234 229.753C357.166 229.774 356.867 228.859 356.368 227.187C355.869 225.516 355.213 223.085 354.444 220.073C352.893 214.05 351.044 205.661 349.013 196.401C346.982 187.141 344.984 178.807 343.31 172.825C342.487 169.832 341.79 167.419 341.278 165.763C340.781 164.106 340.536 163.171 340.591 163.152C340.645 163.132 341.013 164.027 341.621 165.66C342.243 167.291 343.036 169.68 343.941 172.651C345.781 178.604 347.893 186.94 349.925 196.214C351.921 205.393 353.733 213.702 355.092 219.926C355.751 222.822 356.307 225.235 356.739 227.095C357.114 228.793 357.289 229.734 357.234 229.753Z" fill="#D6DFF5"/>
<path d="M435.646 206.085C435.648 206.113 435.375 206.195 434.835 206.304C434.186 206.436 433.411 206.581 432.485 206.769C430.451 207.162 427.504 207.727 423.876 208.54C416.629 210.11 406.686 212.658 395.855 215.939C385.027 219.248 375.35 222.658 368.423 225.353C364.956 226.672 362.177 227.813 360.251 228.59C359.369 228.942 358.636 229.238 358.025 229.48C357.508 229.671 357.236 229.767 357.218 229.727C357.201 229.7 357.454 229.549 357.938 229.305C358.531 229.023 359.244 228.672 360.092 228.253C361.965 227.368 364.721 226.131 368.165 224.729C375.036 221.885 384.703 218.363 395.571 215.036C406.429 211.739 416.424 209.299 423.728 207.878C427.378 207.147 430.348 206.678 432.405 206.382C433.352 206.263 434.133 206.174 434.786 206.083C435.349 206.071 435.629 206.058 435.646 206.085Z" fill="#D6DFF5"/>
<path d="M332.168 321.429C332.142 321.446 331.928 321.128 331.531 320.518C331.097 319.813 330.545 318.908 329.861 317.804C328.423 315.448 326.413 311.977 323.983 307.659C319.123 299.023 312.787 286.908 305.955 273.431C299.122 259.954 292.881 247.801 288.184 239.094C285.858 234.836 283.958 231.341 282.574 228.811C281.957 227.672 281.444 226.735 281.051 226.012C280.707 225.369 280.547 225.018 280.573 225.001C280.6 224.984 280.813 225.302 281.21 225.912C281.644 226.617 282.196 227.522 282.88 228.626C284.318 230.982 286.329 234.453 288.759 238.771C293.618 247.406 299.954 259.522 306.787 272.999C313.618 286.462 319.86 298.628 324.556 307.322C326.882 311.58 328.782 315.075 330.166 317.605C330.784 318.758 331.296 319.681 331.689 320.404C332.034 321.061 332.195 321.412 332.168 321.429Z" fill="#D6DFF5"/>
<path d="M434.774 275.764C434.791 275.791 434.442 275.98 433.755 276.299C432.984 276.641 431.998 277.088 430.77 277.643C428.067 278.847 424.337 280.501 419.768 282.519C410.484 286.652 397.731 292.513 383.66 299.022C369.588 305.532 356.786 311.313 347.416 315.286C342.732 317.272 338.937 318.848 336.29 319.891C335.04 320.378 334.021 320.772 333.233 321.073C332.526 321.338 332.157 321.458 332.14 321.432C332.124 321.405 332.472 321.217 333.16 320.897C333.93 320.555 334.916 320.108 336.145 319.553C338.847 318.349 342.577 316.695 347.146 314.677C356.43 310.544 369.183 304.683 383.254 298.174C397.326 291.664 410.13 285.897 419.484 281.912C424.169 279.926 427.963 278.349 430.61 277.306C431.86 276.819 432.879 276.426 433.667 276.124C434.388 275.858 434.757 275.738 434.774 275.764Z" fill="#D6DFF5"/>
<path d="M247.573 58.4239L248.742 150.145C248.922 165.731 246.044 188.661 221.221 187.855C199.815 185.526 194.059 165.283 193.879 150.772C193.789 143.875 193.699 138.143 193.699 137.426C193.699 137.426 170.224 135.545 168.246 112.436C167.256 101.239 167.166 78.1297 167.346 57.1699C167.526 34.6875 185.065 16.1462 207.55 14.4443L209.798 14.2652C233.992 13.9069 247.843 34.2396 247.573 58.4239Z" fill="#FFBE9D"/>
<path d="M193.699 137.426C193.699 137.426 208.359 137.247 223.289 126.319C223.289 126.319 217.173 143.696 193.879 143.338L193.699 137.426Z" fill="#EB996E"/>
<path d="M207.01 66.575C207.46 67.0228 210.158 64.8731 214.026 64.7836C217.893 64.6044 220.771 66.575 221.221 66.0376C221.401 65.8584 220.951 64.9627 219.692 64.067C218.433 63.1713 216.364 62.3651 213.936 62.4547C211.507 62.5443 209.528 63.5296 208.359 64.5148C207.1 65.5001 206.74 66.3958 207.01 66.575Z" fill="#251A51"/>
<path d="M207.819 74.6364C207.909 76.2487 209.348 77.5922 211.057 77.5922C212.766 77.5922 214.115 76.1591 214.115 74.5468C214.025 72.9345 212.586 71.5909 210.877 71.5909C209.079 71.5909 207.729 72.9345 207.819 74.6364Z" fill="#251A51"/>
<path d="M197.207 93.536C197.207 93.3568 194.959 93.0881 191.361 92.909C190.461 92.909 189.562 92.7298 189.382 92.1924C189.112 91.5654 189.472 90.5801 189.832 89.4157C190.551 87.1764 191.271 84.758 191.99 82.3395C195.048 72.2179 197.117 63.9774 196.757 63.7982C196.308 63.7087 193.609 71.7701 190.551 81.8917C189.832 84.3997 189.112 86.7285 188.483 89.0574C188.213 90.1322 187.673 91.2967 188.303 92.6402C188.573 93.2673 189.292 93.7151 189.922 93.8943C190.551 94.0734 191.001 93.9838 191.451 93.9838C194.959 93.8943 197.207 93.7151 197.207 93.536Z" fill="#251A51"/>
<path d="M208.629 52.0644C208.988 52.9601 212.136 52.2436 215.824 52.4227C219.511 52.5123 222.569 53.408 223.019 52.6018C223.199 52.2436 222.659 51.4374 221.4 50.6313C220.141 49.8251 218.162 49.1981 215.914 49.1086C213.665 49.019 211.687 49.5564 210.337 50.1834C209.078 50.9 208.449 51.6166 208.629 52.0644Z" fill="#251A51"/>
<path d="M171.754 59.2301C172.204 59.9467 175.172 59.1406 178.86 59.051C182.547 58.8719 185.605 59.4093 185.965 58.6927C186.145 58.3344 185.515 57.7074 184.256 57.17C182.997 56.6326 181.018 56.1847 178.86 56.2743C176.701 56.3639 174.722 56.9013 173.463 57.6179C172.114 58.2449 171.574 58.8719 171.754 59.2301Z" fill="#251A51"/>
<path d="M246.943 75.6217C247.303 75.4425 262.503 69.7995 263.222 85.5641C263.852 101.418 247.752 98.8207 247.752 98.3729C247.663 97.925 246.943 75.6217 246.943 75.6217Z" fill="#FFBE9D"/>
<path d="M252.25 92.1923C252.34 92.1028 252.519 92.3715 252.969 92.5506C253.419 92.7298 254.228 92.8193 255.038 92.5506C256.657 91.834 258.006 89.1469 257.916 86.2806C257.916 84.8475 257.556 83.5039 257.016 82.3395C256.477 81.175 255.667 80.4585 254.858 80.2793C254.048 80.1002 253.419 80.6376 253.239 81.0855C253.059 81.5333 253.149 81.8916 253.059 81.8916C253.059 81.8916 252.699 81.6229 252.789 80.9959C252.879 80.6376 252.969 80.2793 253.329 80.0106C253.689 79.6523 254.228 79.4732 254.858 79.5627C256.117 79.5627 257.196 80.6376 257.826 81.8916C258.545 83.1456 258.905 84.6683 258.995 86.2806C258.995 89.5052 257.466 92.5506 255.218 93.2672C254.138 93.6255 253.149 93.2672 252.699 92.9089C252.34 92.5506 252.25 92.1923 252.25 92.1923Z" fill="#EB996E"/>
<path d="M200.983 104.464C200.803 104.105 203.951 103.12 206.11 100.254C207.189 98.8207 207.818 97.298 208.268 96.1336C208.718 94.9691 209.078 94.2526 209.257 94.3421C209.437 94.4317 209.347 95.1483 209.167 96.4023C208.898 97.6563 208.358 99.4477 207.099 101.06C205.84 102.672 204.221 103.658 203.052 104.195C201.882 104.553 201.073 104.643 200.983 104.464Z" fill="#251A51"/>
<path d="M136.496 36.3893C136.766 35.4936 137.396 34.6875 138.295 34.2396C140.094 33.1648 142.163 33.3439 144.231 33.2543C150.347 33.1648 156.463 31.2838 161.68 27.9696C164.108 24.4763 166.806 21.2518 169.774 18.2063C176.79 10.951 182.546 6.11418 188.572 3.69575C196.307 0.560745 209.258 -0.693256 217.353 1.45646C225.447 3.60618 232.643 10.0553 233.812 18.2959C238.309 14.4443 245.144 14.5339 250.631 16.6836L250.811 16.594C256.927 18.7438 260.434 25.1929 262.233 31.4629C264.032 37.7329 264.841 44.3612 268.169 49.9146C268.889 51.0791 269.698 52.5122 269.069 53.6766C268.619 54.5724 267.36 55.0202 266.37 54.8411C265.291 54.6619 264.392 54.1245 263.492 53.5871C264.212 55.1994 264.841 56.8117 265.561 58.5135C263.312 58.8718 261.064 58.6927 258.905 58.0657C257.556 63.8878 256.027 70.5161 254.498 74.4572C251.89 74.4572 249.552 74.6364 248.023 76.0695C245.864 77.9505 244.875 81.623 241.367 80.2794C239.568 79.5628 237.859 75.8008 237.32 73.9198C233.272 61.6485 231.923 48.5711 233.362 35.7623C230.844 33.0752 227.786 30.8359 224.368 29.3132L224.638 29.5819C218.162 27.3426 210.787 25.1033 204.671 28.1488C199.904 30.4776 197.116 35.4041 193.519 39.3452C186.773 46.7796 177.689 50.8104 167.616 51.2582C167.256 57.7969 167.796 66.9332 167.436 73.472L161.949 63.0817V63.1712C161.5 62.3651 161.14 61.6485 160.78 60.8424L160.69 60.5737C160.151 59.3197 159.611 58.0657 158.891 56.9012C158.891 56.9012 158.891 56.9012 158.802 56.9908C155.294 60.1258 150.077 55.3785 152.865 51.5269C153.405 50.8104 154.125 50.0938 154.844 49.5564C153.225 51.0791 150.797 51.7956 148.728 51.1686C146.57 50.5416 144.951 48.3919 145.131 46.1526C145.221 44.6299 146.3 43.2864 147.739 42.7489C144.861 42.9281 141.983 42.3906 139.464 40.9575C137.576 39.9722 135.957 38.4495 136.496 36.3893Z" fill="#251A51"/>
<path d="M226.437 20.8934C226.347 20.983 227.426 21.5204 228.775 23.0431C230.125 24.5659 231.654 27.1634 232.373 30.7463C232.733 32.5377 233.003 34.5083 233.003 36.658C233.003 38.8077 232.823 41.047 232.643 43.4655C232.463 45.8839 232.283 48.3919 232.463 51.079C232.553 52.4226 232.733 53.7662 233.003 55.1097C233.273 56.4533 233.632 57.8865 234.622 58.9613C235.431 59.857 236.78 60.3049 237.859 60.0362C239.029 59.857 240.018 59.23 240.828 58.4239C242.357 56.722 242.716 54.4828 243.076 52.5122L242.626 52.6017C243.436 54.3036 244.245 56.095 245.414 57.4386C246.584 58.7822 248.293 59.7675 249.912 59.857C250.721 59.9466 251.62 59.7675 252.34 59.4092C253.059 59.0509 253.599 58.4239 253.959 57.7969C254.319 57.1699 254.498 56.4533 254.409 55.7368C254.409 55.0202 254.139 54.3932 253.689 53.9453L253.419 54.1245C255.218 56.1846 257.107 57.2595 258.366 57.8865C258.996 58.1552 259.535 58.3343 259.895 58.5135C260.255 58.603 260.435 58.6926 260.435 58.6926C260.435 58.6926 260.255 58.603 259.895 58.5135C259.535 58.3343 258.996 58.1552 258.366 57.8865C257.107 57.2595 255.308 56.095 253.599 54.1245L253.329 54.3036C254.139 55.1098 254.139 56.5429 253.509 57.7073C253.149 58.2448 252.7 58.7822 252.07 59.1405C251.441 59.4092 250.631 59.5883 249.912 59.4988C248.383 59.3196 246.854 58.5135 245.684 57.1699C244.515 55.8263 243.796 54.214 242.986 52.4226L242.626 51.706L242.446 52.5122C242.087 54.4828 241.637 56.5429 240.288 58.1552C239.568 58.8718 238.669 59.4987 237.68 59.6779C236.69 59.857 235.611 59.4987 234.891 58.7822C233.992 57.7969 233.632 56.4533 233.362 55.1993C233.093 53.8558 232.913 52.6017 232.823 51.2582C232.643 48.6606 232.823 46.1526 233.003 43.7342C233.183 41.3157 233.273 39.0764 233.273 36.9267C233.273 34.777 233.003 32.8064 232.643 31.015C231.833 27.4322 230.304 24.745 228.865 23.3119C227.516 21.4309 226.437 20.8934 226.437 20.8934Z" fill="#407BFF"/>
<path d="M154.664 43.3758C154.664 43.3758 154.754 43.4654 154.844 43.555C155.024 43.6446 155.204 43.8237 155.383 44.0028C155.653 44.182 155.923 44.4507 156.373 44.6298C156.733 44.8985 157.272 45.1673 157.812 45.3464C159.97 46.3317 163.388 47.4066 167.705 47.1378C172.022 46.8691 177.149 45.3464 181.736 42.0323C186.413 38.7181 190.46 33.7917 193.788 28.2383C195.497 25.4615 196.846 22.5952 198.375 19.9081C199.904 17.221 201.523 14.8025 203.592 12.832C205.57 10.8614 207.909 9.42823 210.247 8.80123C211.416 8.44295 212.676 8.35338 213.755 8.35338C214.924 8.44295 216.003 8.62209 216.993 8.98038C218.971 9.60738 220.59 10.7718 221.849 11.8467C223.109 13.0111 223.918 14.1755 224.458 15.2504C225.537 17.4001 225.537 18.7437 225.627 18.7437C225.627 18.7437 225.627 18.6541 225.627 18.475C225.627 18.2958 225.537 18.0271 225.537 17.7584C225.447 17.1314 225.177 16.2357 224.638 15.1608C224.098 14.086 223.288 12.832 222.029 11.6675C220.77 10.5031 219.151 9.33866 217.083 8.62209C216.093 8.2638 214.924 7.99509 213.755 7.90552C212.586 7.90552 211.326 7.90552 210.067 8.2638C207.549 8.8908 205.21 10.4135 203.142 12.3841C201.073 14.3547 199.364 16.8627 197.835 19.5498C196.306 22.237 194.957 25.1032 193.248 27.88C189.921 33.4334 185.963 38.2703 181.376 41.5844C176.879 44.9881 171.843 46.4213 167.615 46.7796C163.388 47.0483 159.97 46.1525 157.812 45.1673C155.743 44.182 154.754 43.3758 154.664 43.3758Z" fill="#407BFF"/>
<path d="M152.596 33.2543C152.596 33.2543 152.866 33.523 153.405 33.7917C153.945 34.15 154.754 34.5979 155.834 35.0457C156.913 35.4936 158.262 35.9415 159.701 36.2997C161.23 36.658 162.939 36.9267 164.648 36.9267C166.447 37.0163 168.155 36.8372 169.684 36.5685C171.213 36.2997 172.563 35.9415 173.642 35.5832C174.721 35.2249 175.621 34.777 176.16 34.5083C176.7 34.2396 177.06 34.0605 177.06 33.9709C177.06 33.8813 175.71 34.5083 173.552 35.2249C172.473 35.5832 171.123 35.8519 169.595 36.1206C168.066 36.2997 166.447 36.4789 164.648 36.3893C162.939 36.2997 161.23 36.1206 159.791 35.7623C158.352 35.404 157.003 35.0457 155.924 34.5979C153.855 33.8813 152.686 33.1647 152.596 33.2543Z" fill="#407BFF"/>
<path d="M171.574 68.0976C172.023 68.5454 174.722 66.3957 178.589 66.3061C182.456 66.127 185.335 68.0976 185.784 67.5601C185.964 67.381 185.514 66.4853 184.255 65.5896C182.996 64.6939 180.927 63.8877 178.499 63.9773C176.071 64.0669 174.092 65.0521 172.923 66.0374C171.754 66.9331 171.304 67.8288 171.574 68.0976Z" fill="#251A51"/>
<path d="M175.53 75.7112C175.62 77.3235 177.059 78.6671 178.768 78.6671C180.477 78.6671 181.826 77.2339 181.826 75.6216C181.736 74.0093 180.297 72.6658 178.588 72.6658C176.79 72.7553 175.44 74.0989 175.53 75.7112Z" fill="#251A51"/>
<path d="M30.6369 160.177C30.6369 153.459 37.1126 153.459 37.1126 153.459C39.541 150.235 42.3292 151.399 42.3292 151.399L52.7623 158.386C54.2913 160.983 64.4545 170.926 64.4545 170.926C67.2427 168.866 67.2427 164.835 70.4806 159.819C73.8084 154.892 81.2734 155.43 81.2734 155.43C81.2734 155.43 75.4273 168.597 74.7977 176.748C74.1681 184.899 79.2947 207.74 79.2947 207.74L49.7942 215.98C49.7942 215.98 47.9055 203.44 44.6676 202.455C40.7102 201.201 38.4617 195.379 38.4617 195.379C34.1446 186.69 25.4204 174.15 24.2511 167.701C22.992 161.342 30.6369 160.177 30.6369 160.177Z" fill="#FFBE9D"/>
<path d="M249.822 145.667C231.024 157.4 212.137 161.79 192.979 154.265L164.199 161.61L135.867 350.158L301.897 351.502L293.713 307.702L273.116 150.324L249.822 145.667Z" fill="#407BFF"/>
<path d="M164.108 161.61C164.108 161.61 141.713 170.836 133.169 187.138C124.624 203.351 110.864 248.943 110.864 248.943L85.5903 202.634L38.6413 214.637C38.6413 214.637 73.6282 310.657 82.3524 319.435C91.9761 329.02 118.149 338.693 131.01 331.169C143.872 323.735 146.48 295.43 146.48 295.43L164.108 161.61Z" fill="#407BFF"/>
<path d="M162.58 240.433C162.431 240.433 162.31 232.052 162.31 221.713C162.31 211.374 162.431 202.992 162.58 202.992C162.729 202.992 162.85 211.374 162.85 221.713C162.85 232.052 162.729 240.433 162.58 240.433Z" fill="#251A51"/>
<path d="M153.855 172.359C153.765 172.359 154.215 173.523 154.935 175.404C155.654 177.285 156.553 179.883 157.453 182.839C158.352 185.795 159.072 188.482 159.611 190.452C160.061 192.423 160.421 193.587 160.421 193.587C160.421 193.587 160.421 193.229 160.331 192.692C160.241 192.154 160.061 191.348 159.881 190.363C159.432 188.392 158.802 185.615 157.903 182.66C157.003 179.704 156.014 177.106 155.204 175.225C154.845 174.329 154.485 173.523 154.215 173.075C154.035 172.628 153.855 172.359 153.855 172.359Z" fill="#251A51"/>
<path d="M276.175 220.996L270.958 149.966C270.958 149.966 310.082 153.549 323.034 181.047C333.916 204.246 364.046 273.843 367.284 283.428C376.728 311.374 361.978 349.8 301.088 347.65L294.163 309.672L276.175 220.996Z" fill="#407BFF"/>
<path d="M319.976 317.465C319.976 317.465 319.886 317.196 319.616 316.748C319.346 316.3 319.076 315.673 318.626 314.867C317.727 313.165 316.468 310.836 314.939 307.881C314.579 307.164 314.129 306.358 313.68 305.552C313.23 304.746 312.69 303.85 311.881 303.223C311.071 302.596 309.992 302.327 308.913 302.327C307.834 302.327 306.754 302.596 305.675 302.865C303.516 303.402 301.268 304.208 299.109 305.373C298.03 305.91 296.951 306.537 295.961 307.343L295.602 307.701C295.422 307.791 295.332 308.06 295.332 308.149C295.242 308.508 295.152 308.776 295.152 309.135C295.062 309.762 295.062 310.389 295.152 311.105C295.242 313.703 295.602 316.121 295.872 318.54C296.231 320.958 296.591 323.197 296.951 325.437C297.67 329.826 298.39 333.677 299.019 336.991C299.649 340.216 300.189 342.903 300.548 344.784C300.728 345.68 300.818 346.396 300.998 346.934C301.088 347.382 301.178 347.65 301.178 347.65C301.178 347.65 301.178 347.382 301.088 346.934C300.998 346.486 300.908 345.769 300.728 344.784C300.369 342.903 299.919 340.216 299.379 336.991C298.75 333.677 298.12 329.826 297.401 325.437C297.041 323.287 296.681 320.958 296.411 318.629C296.141 316.211 295.782 313.792 295.692 311.284C295.692 310.657 295.692 310.03 295.692 309.403C295.692 309.135 295.782 308.776 295.872 308.508C295.961 308.328 295.961 308.328 296.051 308.239L296.411 307.97C297.311 307.164 298.39 306.537 299.469 306C301.628 304.925 303.786 304.119 305.945 303.581C307.024 303.312 308.103 303.044 309.093 303.044C310.082 303.044 311.071 303.223 311.881 303.85C312.6 304.387 313.14 305.193 313.59 306C314.04 306.806 314.489 307.522 314.849 308.328C316.468 311.195 317.817 313.613 318.716 315.225C319.166 316.032 319.526 316.659 319.796 317.106C319.796 317.286 319.976 317.554 319.976 317.465Z" fill="#251A51"/>
<path d="M348.218 283.786C348.218 283.786 348.038 283.786 347.768 283.786C347.408 283.786 346.959 283.786 346.419 283.875C345.25 283.965 343.631 284.055 341.562 284.234C339.494 284.413 337.155 284.682 334.457 285.219C331.849 285.756 328.97 286.652 326.092 287.996C323.304 289.339 320.786 291.041 318.717 292.833C316.739 294.624 315.12 296.595 314.22 298.476C313.321 300.357 312.961 301.969 312.871 303.133C312.781 303.671 312.871 304.119 312.871 304.477C312.871 304.746 312.871 304.925 312.871 304.925C312.961 304.925 312.871 304.298 313.051 303.133C313.141 302.058 313.591 300.446 314.49 298.655C315.389 296.863 316.918 294.982 318.987 293.191C320.966 291.399 323.484 289.787 326.272 288.444C329.06 287.1 331.849 286.294 334.547 285.667C337.155 285.129 339.583 284.771 341.562 284.502C343.541 284.234 345.25 284.144 346.329 284.055C346.869 283.965 347.318 283.965 347.678 283.875C348.128 283.786 348.218 283.786 348.218 283.786Z" fill="#251A51"/>
<path d="M306.395 280.203C306.305 280.203 306.665 281.278 307.384 282.98C308.014 284.682 309.093 287.01 310.172 289.519C311.252 292.027 312.331 294.266 313.14 296.057C313.86 297.759 314.4 298.744 314.4 298.744C314.489 298.744 314.13 297.67 313.41 295.968C312.781 294.266 311.701 291.937 310.622 289.429C309.543 286.921 308.463 284.682 307.654 282.89C306.934 281.188 306.485 280.114 306.395 280.203Z" fill="#251A51"/>
<path d="M284.809 224.221C284.66 224.221 284.539 219.729 284.539 214.189C284.539 208.648 284.66 204.157 284.809 204.157C284.958 204.157 285.079 208.648 285.079 214.189C285.079 219.729 284.958 224.221 284.809 224.221Z" fill="#251A51"/>
<g opacity="0.3">
<g opacity="0.3">
<path opacity="0.3" d="M313.05 304.746C323.303 308.329 330.319 317.644 333.107 328.124C333.377 329.199 333.557 330.542 332.837 331.348C332.118 332.244 330.589 332.244 329.599 331.617C328.61 330.99 327.89 330.005 327.351 329.02C322.404 321.137 317.547 313.792 313.05 304.746Z" fill="black"/>
</g>
</g>
<g opacity="0.3">
<g opacity="0.3">
<path opacity="0.3" d="M325.822 284.502C331.219 281.547 337.425 280.203 343.541 279.845C345.969 279.666 348.308 279.934 350.736 280.472C353.974 281.188 357.661 282.801 358.381 285.04C351.006 282.711 340.123 284.234 332.568 285.936C324.923 287.637 318.717 291.937 314.49 298.655C316.199 293.012 320.516 287.458 325.822 284.502Z" fill="black"/>
</g>
</g>
<path d="M290.565 194.035C290.565 194.035 290.745 193.677 290.925 192.871C291.105 192.154 291.464 191.079 291.824 189.825C292.634 187.228 294.073 183.824 296.141 180.241C298.21 176.658 300.548 173.792 302.437 171.821C303.337 170.836 304.146 170.03 304.686 169.493C305.225 168.955 305.495 168.686 305.495 168.597C305.495 168.597 305.135 168.866 304.596 169.313C303.966 169.761 303.247 170.567 302.257 171.553C300.369 173.523 297.94 176.39 295.782 179.972C293.713 183.555 292.274 187.049 291.554 189.646C291.195 190.99 290.925 191.975 290.745 192.781C290.565 193.587 290.475 194.035 290.565 194.035Z" fill="#251A51"/>
<path d="M276.175 351.502L319.706 246.793C321.685 242.046 319.166 238.104 314.13 238.104H305.406C301.808 238.104 299.38 236.134 299.2 233.088L298.93 229.237C298.66 226.191 296.232 224.221 292.634 224.221H250.992C247.754 224.221 244.066 225.833 241.368 228.431L237.95 231.655C235.252 234.253 231.564 235.865 228.327 235.865H175.262C170.225 235.865 164.559 239.717 162.58 244.554L119.409 351.412H276.175V351.502Z" fill="#FF725E"/>
<g opacity="0.3">
<g opacity="0.3">
<path opacity="0.3" d="M276.175 351.502L319.706 246.793C321.685 242.046 319.166 238.104 314.13 238.104H305.406C301.808 238.104 299.38 236.134 299.2 233.088L298.93 229.237C298.66 226.191 296.232 224.221 292.634 224.221H250.992C247.754 224.221 244.066 225.833 241.368 228.431L237.95 231.655C235.252 234.253 231.564 235.865 228.327 235.865H175.262C170.225 235.865 164.559 239.717 162.58 244.554L119.409 351.412H276.175V351.502Z" fill="black"/>
</g>
</g>
<path d="M283.371 315.942L299.83 252.705C300.909 248.495 298.211 244.374 294.343 244.374H165.549C163.03 244.374 160.782 246.255 160.062 249.122L136.138 344.336C135.059 348.546 136.768 351.054 140.545 350.964H270.149C272.668 350.964 274.826 348.994 275.546 346.307L283.371 315.942Z" fill="#E0E0E0"/>
<path d="M274.466 348.636L281.481 248.943C281.751 245.449 278.873 242.404 275.366 242.404H141.894V348.636H274.466Z" fill="#EBEBEB"/>
<path d="M275.995 350.965L260.076 248.226C259.356 244.912 256.298 242.493 252.79 242.493H117.79C112.483 242.493 108.886 247.868 110.954 252.615L140.095 346.665L275.995 350.965Z" fill="#FAFAFA"/>
<path d="M276.175 351.502L243.436 255.302C242.087 251.271 238.4 248.584 234.352 248.584H95.1245C90.6275 248.584 87.4796 253.152 88.9186 257.541L119.318 351.502H276.175Z" fill="#FF725E"/>
<g opacity="0.3">
<g opacity="0.3">
<path opacity="0.3" d="M208.898 335.379C208.898 335.379 214.115 335.648 216.543 335.827C228.056 336.633 239.838 334.573 250.361 329.826C253.599 328.392 257.107 326.332 258.096 322.929C259.175 319.077 256.747 315.046 253.689 312.449C250.631 309.851 246.943 307.97 244.245 305.014C241.637 301.969 240.378 297.132 242.986 294.087L243.705 294.624C245.594 299.371 250.811 301.7 255.218 304.387C263.312 309.403 269.428 317.465 272.217 326.511C273.746 331.527 274.195 337.26 271.137 341.559C268.979 344.605 265.471 346.307 261.963 347.561C251.44 351.412 240.198 351.591 228.955 351.591C225.448 351.591 214.475 351.412 214.475 351.412C211.057 350.517 209.888 348.725 207.819 345.859C205.93 343.172 206.38 337.439 208.898 335.379Z" fill="black"/>
</g>
</g>
<path d="M208.899 335.379L245.235 329.915L259.356 321.854C261.244 320.779 262.504 318.898 262.594 316.748V316.659C262.683 313.972 261.065 311.553 258.636 310.568C254.139 308.687 247.124 306.179 244.066 300.894C239.749 293.281 244.066 291.758 244.066 291.758L274.376 303.85L295.692 318.361L300.009 342.634L270.059 352.398C270.059 352.398 236.691 354.279 227.517 353.204C218.343 352.219 218.343 347.919 218.343 347.919C216.634 347.382 213.216 344.336 213.216 341.56C208.719 337.35 208.899 335.379 208.899 335.379Z" fill="#FFBE9D"/>
<path d="M255.309 345.769C255.309 345.769 254.769 345.859 253.78 346.038C252.79 346.307 251.441 346.576 249.732 346.934C246.315 347.65 241.548 348.367 236.241 348.546C230.935 348.725 226.078 348.367 222.66 348.009C220.951 347.83 219.512 347.65 218.523 347.471C217.534 347.292 216.994 347.292 216.994 347.292C216.994 347.292 217.534 347.471 218.433 347.74C219.422 348.009 220.771 348.188 222.48 348.457C225.988 348.994 230.755 349.352 236.151 349.173C241.548 348.994 246.315 348.188 249.732 347.382C251.441 347.023 252.79 346.576 253.78 346.307C254.769 346.038 255.309 345.859 255.309 345.769Z" fill="#EB996E"/>
<path d="M251.982 340.216C251.982 340.216 251.443 340.306 250.453 340.485C249.464 340.753 248.115 341.022 246.316 341.38C242.808 342.097 237.952 342.724 232.555 342.903C227.159 343.082 222.302 342.724 218.794 342.276C216.996 342.097 215.646 341.828 214.657 341.739C213.668 341.56 213.128 341.56 213.128 341.56C213.128 341.56 213.668 341.739 214.657 342.007C215.646 342.276 216.996 342.545 218.794 342.814C222.302 343.351 227.249 343.799 232.645 343.62C238.042 343.441 242.988 342.724 246.406 341.918C248.115 341.56 249.554 341.201 250.453 340.843C251.443 340.395 251.982 340.216 251.982 340.216Z" fill="#EB996E"/>
<path d="M37.8316 206.486L102.319 219.205C106.816 220.101 111.133 217.234 111.943 212.756L129.571 123.811C130.47 119.333 127.592 115.033 123.095 114.227L82.1723 106.166L44.0375 132.41L31.2659 196.902C30.5464 201.291 33.4245 205.59 37.8316 206.486Z" fill="#EBEBEB"/>
<path d="M82.2627 106.166L77.316 131.156C76.5065 135.276 72.4592 137.964 68.3219 137.157L44.1279 132.41L82.2627 106.166Z" fill="#F5F5F5"/>
<path d="M76.5967 133.306C76.5967 133.306 75.6973 139.397 68.4121 140.024C68.1423 140.024 67.8724 140.024 67.6026 140.024C64.3648 139.934 42.869 139.576 42.9589 139.128C43.0489 138.59 44.308 132.41 44.308 132.41L68.502 137.157C68.3222 137.157 74.4381 138.143 76.5967 133.306Z" fill="#E0E0E0"/>
<path d="M37.8316 206.486C37.8316 206.486 37.7417 206.486 37.4719 206.396C37.2021 206.306 36.9322 206.217 36.4825 206.038C35.5831 205.68 34.324 205.052 33.1547 203.619C31.9855 202.276 30.9962 200.036 31.3559 197.349C31.8056 194.752 32.4352 191.706 33.1547 188.392C35.853 174.956 39.7204 155.699 44.3074 132.41L44.2174 132.5C55.7298 124.528 68.5913 115.66 82.3522 106.255H82.1723C89.7273 107.778 97.6421 109.301 105.737 110.913C109.784 111.719 113.921 112.525 118.059 113.331C119.138 113.51 120.127 113.779 121.207 113.958C122.286 114.137 123.365 114.317 124.264 114.675C126.243 115.391 127.862 116.914 128.762 118.795C129.391 120.139 129.571 121.572 129.391 123.095C129.121 124.528 128.851 126.05 128.582 127.484C128.042 130.35 127.412 133.306 126.873 136.172C125.704 141.905 124.624 147.548 123.545 153.101C121.386 164.208 119.228 174.956 117.159 185.168C116.17 190.273 115.181 195.289 114.191 200.126C113.741 202.544 113.202 204.963 112.752 207.292C112.482 208.456 112.302 209.621 112.033 210.785C111.763 211.95 111.673 213.114 111.223 214.189C110.324 216.249 108.615 217.951 106.546 218.667C105.557 219.026 104.388 219.205 103.308 219.115C102.229 219.026 101.15 218.757 100.07 218.578C95.8433 217.772 91.796 216.965 87.9285 216.159C72.4587 213.114 59.8671 210.695 51.1428 208.994C46.8257 208.187 43.408 207.471 41.1594 207.113C39.9902 206.934 39.1808 206.754 38.5512 206.665C38.1914 206.486 37.8316 206.486 37.8316 206.486C37.8316 206.486 38.1015 206.575 38.731 206.665C39.3606 206.754 40.1701 206.933 41.3393 207.202C43.5878 207.65 47.0056 208.367 51.3227 209.173C60.0469 210.875 72.5487 213.383 88.0185 216.428C91.8859 217.234 95.9332 218.04 100.16 218.847C101.24 219.026 102.229 219.294 103.398 219.384C104.478 219.474 105.647 219.294 106.726 218.936C108.885 218.13 110.773 216.428 111.673 214.278C112.123 213.204 112.302 211.95 112.482 210.875C112.752 209.71 112.932 208.546 113.202 207.381C113.652 205.053 114.101 202.634 114.641 200.216C115.63 195.379 116.62 190.363 117.609 185.257C119.678 175.046 121.746 164.297 123.995 153.191C125.074 147.637 126.243 141.994 127.322 136.262C127.862 133.395 128.492 130.529 129.031 127.573C129.301 126.14 129.661 124.707 129.841 123.184C130.021 121.661 129.751 120.049 129.121 118.706C128.222 116.645 126.423 115.033 124.354 114.317C123.275 113.958 122.196 113.779 121.207 113.6C120.127 113.421 119.138 113.152 118.059 112.973C113.921 112.167 109.784 111.361 105.737 110.555C97.6421 108.942 89.7273 107.42 82.1723 105.897H82.0824L81.9924 105.986C68.2315 115.481 55.46 124.349 43.8577 132.32L43.7677 132.41V132.5C39.1807 155.788 35.4033 175.046 32.705 188.482C32.0755 191.885 31.4459 194.841 30.9962 197.439C30.6364 200.126 31.7157 202.365 32.8849 203.799C34.0541 205.232 35.4033 205.859 36.3027 206.217C36.7524 206.396 37.1121 206.486 37.292 206.486C37.7417 206.486 37.8316 206.486 37.8316 206.486Z" fill="#251A51"/>
<path d="M44.1277 132.41C44.1277 132.41 44.3076 132.5 44.7573 132.589C45.207 132.679 45.8366 132.858 46.5561 132.948C48.1751 133.306 50.3336 133.754 53.1218 134.291C55.9099 134.829 59.1478 135.545 62.8354 136.262C64.6342 136.62 66.6129 136.978 68.5916 137.426C70.6602 137.784 72.9087 137.247 74.7075 135.903C75.6069 135.276 76.3264 134.381 76.8661 133.485C77.4057 132.589 77.6755 131.514 77.8554 130.529C78.2152 128.559 78.5749 126.678 78.9347 124.797C79.6542 121.124 80.2838 117.9 80.8235 115.123C81.3631 112.436 81.7229 110.196 82.0826 108.584C82.1726 107.868 82.3524 107.241 82.3524 106.793C82.4424 106.345 82.4424 106.166 82.4424 106.166C82.4424 106.166 82.3525 106.345 82.2625 106.793C82.1726 107.241 81.9927 107.868 81.9027 108.584C81.543 110.196 81.0933 112.346 80.5536 115.123C80.014 117.9 79.2945 121.124 78.575 124.797C78.2152 126.588 77.8554 128.559 77.4057 130.529C77.2258 131.514 76.956 132.5 76.5063 133.395C76.0566 134.291 75.3371 135.097 74.5276 135.724C72.9087 136.978 70.7501 137.516 68.7714 137.157C66.7928 136.799 64.904 136.441 63.0152 136.083C59.3277 135.366 56.0898 134.739 53.3017 134.202C50.6035 133.664 48.355 133.306 46.736 132.948C46.0165 132.858 45.3869 132.679 44.9372 132.679C44.3976 132.41 44.1277 132.41 44.1277 132.41Z" fill="#251A51"/>
<path d="M96.0689 132.305C86.6642 130.455 79.0636 128.837 79.0924 128.691C79.1213 128.546 86.7688 129.928 96.1735 131.778C105.578 133.628 113.179 135.246 113.15 135.392C113.121 135.538 105.474 134.156 96.0689 132.305Z" fill="#251A51"/>
<path d="M85.4499 143.219C71.6109 140.496 60.4155 138.171 60.4444 138.025C60.4733 137.88 71.7154 139.969 85.5545 142.692C99.3935 145.414 110.589 147.74 110.56 147.885C110.531 148.031 99.2889 145.942 85.4499 143.219Z" fill="#251A51"/>
<path d="M83.0261 155.678C69.187 152.956 57.9917 150.63 58.0206 150.485C58.0495 150.339 69.2916 152.428 83.1307 155.151C96.9697 157.874 108.165 160.199 108.136 160.345C108.107 160.49 96.8651 158.401 83.0261 155.678Z" fill="#251A51"/>
<path d="M80.5153 168.12C66.6763 165.398 55.481 163.072 55.5099 162.927C55.5387 162.781 66.7809 164.87 80.6199 167.593C94.459 170.316 105.654 172.641 105.625 172.787C105.597 172.932 94.3544 170.843 80.5153 168.12Z" fill="#251A51"/>
<path d="M78.0749 180.668C64.2359 177.945 53.0406 175.62 53.0694 175.474C53.0983 175.329 64.3405 177.418 78.1795 180.141C92.0186 182.863 103.214 185.189 103.185 185.334C103.156 185.48 91.914 183.391 78.0749 180.668Z" fill="#251A51"/>
<path d="M75.5632 193.11C61.7242 190.387 50.5288 188.062 50.5577 187.917C50.5866 187.771 61.8287 189.86 75.6678 192.583C89.5068 195.306 100.702 197.631 100.673 197.777C100.644 197.922 89.4022 195.833 75.5632 193.11Z" fill="#251A51"/>
<path d="M47.9954 140.293C47.9954 140.293 43.2285 134.291 39.541 137.605C35.8534 140.92 36.9327 142.711 40.4404 147.996C40.4404 147.996 32.6155 147.548 35.1339 155.52C35.1339 155.52 27.399 154.624 28.1185 161.163C28.1185 161.163 22.2724 166.895 25.3304 170.568C28.3883 174.24 39.451 180.868 42.2392 179.794C45.0273 178.629 45.0273 174.688 45.0273 174.688C45.0273 174.688 48.3551 173.165 49.2545 171.463C50.1539 169.762 48.6249 167.254 48.6249 167.254C48.6249 167.254 51.4131 164.387 52.1326 163.581C52.8522 162.775 51.7729 159.103 51.7729 159.103L47.2758 154.803C47.2758 154.803 53.3918 157.49 54.7409 156.415C56.0001 155.43 57.4391 154.534 56.09 152.653C54.7409 150.772 49.7942 146.652 49.7942 146.652L47.9954 140.293Z" fill="#FFBE9D"/>
<path d="M44.3985 175.225C44.4884 175.136 43.6789 174.24 42.4198 172.807C41.1606 171.374 39.3618 169.224 36.7535 167.612C34.1453 166.089 31.8068 164.745 30.3678 163.491C28.8388 162.237 28.2992 161.163 28.2092 161.252C28.1193 161.252 28.569 162.506 30.008 163.85C31.4471 165.283 33.8755 166.626 36.3938 168.149C38.9121 169.672 40.7109 171.642 42.06 173.076C43.4091 174.509 44.3985 175.315 44.3985 175.225Z" fill="#EB996E"/>
<path d="M48.7156 168.507C48.8955 168.328 46.0174 165.283 42.3299 161.61C40.5311 159.819 38.9121 158.027 37.563 157.042C36.2139 155.967 35.2246 155.519 35.1346 155.609C35.0447 155.699 35.9441 156.236 37.2033 157.4C38.4624 158.565 39.9015 160.356 41.7902 162.148C45.4778 165.82 48.6257 168.686 48.7156 168.507Z" fill="#EB996E"/>
<path d="M47.2756 154.893C47.4555 154.713 45.6567 153.28 43.678 151.489C41.6993 149.608 40.71 147.637 40.5301 147.727C40.3502 147.816 41.0698 150.056 43.1384 152.026C45.207 153.907 47.1857 155.072 47.2756 154.893Z" fill="#EB996E"/>
<path d="M47.9954 140.292C47.9954 140.292 47.9954 140.471 48.0853 140.74C48.1752 141.098 48.2652 141.457 48.3551 141.994C48.6249 143.159 49.0746 144.771 49.6143 146.831V146.921C50.5137 147.727 51.503 148.623 52.5823 149.608C53.6616 150.683 54.9208 151.757 55.9101 153.101C56.09 153.459 56.2699 153.818 56.2699 154.266C56.2699 154.624 56.0001 154.982 55.6403 155.34C55.2805 155.699 54.9208 155.967 54.561 156.236C54.2012 156.505 53.8415 156.505 53.3018 156.505C51.3231 156.236 49.3444 155.519 47.2758 154.624L45.8368 153.997L46.9161 155.072C48.3551 156.415 49.7941 157.938 51.4131 159.371L51.3231 159.281C51.8628 160.625 52.2226 162.417 51.593 163.76C50.7835 165.104 49.4344 166.268 48.0853 167.343L47.8155 167.612L48.0853 167.88C49.0746 169.045 49.7042 170.836 48.4451 171.911C47.2758 173.076 45.7468 173.971 44.2178 174.777L44.7575 175.046V174.957C44.6675 175.046 44.9374 174.688 44.5776 175.315C43.5883 174.867 44.3078 175.136 44.038 175.046V175.225V175.584C44.038 175.852 44.038 176.031 43.948 176.3C43.8581 176.748 43.7682 177.285 43.5883 177.733C43.4084 178.181 43.1385 178.539 42.7788 178.898C42.419 179.256 42.0593 179.525 41.6096 179.525C40.7102 179.614 39.6309 179.256 38.6415 178.987C37.6522 178.629 36.6628 178.181 35.6735 177.644C33.8747 176.748 32.0759 175.673 30.457 174.509C28.838 173.344 27.2191 172.18 25.87 170.747C25.1505 170.03 24.7907 169.314 24.7008 168.418C24.6108 167.522 24.8807 166.626 25.1505 165.82C25.87 164.118 27.0392 162.685 28.2084 161.431L28.2984 161.342V161.163C28.2984 160.267 28.2084 159.371 28.5682 158.655C28.838 157.848 29.4676 157.221 30.0972 156.774C31.5362 155.878 33.335 155.788 34.864 155.878H35.3137L35.2238 155.43C35.1339 154.982 34.954 154.445 34.864 153.997C34.864 153.549 34.6841 153.011 34.7741 152.564C34.7741 151.578 35.0439 150.772 35.5835 150.056C36.6628 148.712 38.6415 148.264 40.2605 148.264H40.8001L40.5303 147.816C39.6309 146.383 38.7315 145.04 38.012 143.786C37.6522 143.159 37.4723 142.442 37.3824 141.725C37.2924 141.098 37.4723 140.382 37.7421 139.844C38.3717 138.77 39.2711 137.784 40.1705 137.157C41.1599 136.62 42.2392 136.62 43.0486 136.889C44.8474 137.426 45.9267 138.501 46.6462 139.128C47.006 139.486 47.2758 139.755 47.4557 139.934C47.9054 140.203 47.9954 140.292 47.9954 140.292C47.9954 140.292 47.9054 140.203 47.8155 139.934C47.6356 139.755 47.3658 139.397 47.0959 139.128C46.7362 138.77 46.2865 138.322 45.6569 137.874C45.0273 137.426 44.3078 136.978 43.4084 136.709C42.509 136.441 41.2498 136.351 40.2605 136.978C39.9906 137.157 39.8108 137.336 39.541 137.516C39.3611 137.695 39.0912 137.963 38.9114 138.143C38.4617 138.59 38.012 139.128 37.6522 139.755C37.2924 140.382 37.1126 141.098 37.2025 141.905C37.2924 142.621 37.5622 143.427 37.8321 144.054C38.5516 145.487 39.451 146.831 40.3504 148.175L40.6202 147.727C39.7208 147.727 38.8214 147.816 37.922 148.085C37.0226 148.354 36.1232 148.891 35.4936 149.697C34.864 150.503 34.5043 151.578 34.5043 152.564C34.4143 153.101 34.5942 153.549 34.5942 154.086C34.6842 154.624 34.864 155.072 34.954 155.609L35.3137 155.161C33.6049 155.072 31.7161 155.161 30.0972 156.146C29.2877 156.594 28.5682 157.401 28.2084 158.296C27.8487 159.192 27.8487 160.177 27.8487 161.163L27.9386 160.894C26.6794 162.237 25.5102 163.76 24.7008 165.552C24.341 166.447 24.0712 167.433 24.1611 168.507C24.1611 169.045 24.341 169.493 24.6108 170.03C24.8806 170.478 25.1505 170.926 25.5102 171.284C26.8593 172.717 28.4783 173.971 30.1871 175.136C31.896 176.3 33.6049 177.375 35.4936 178.36C36.483 178.898 37.4723 179.346 38.4617 179.704C39.5409 180.062 40.5303 180.42 41.7895 180.331C43.0486 180.062 43.8581 179.077 44.3078 178.092C44.4877 177.554 44.6675 177.017 44.7575 176.479C44.7575 176.211 44.8474 175.942 44.8474 175.673V175.225V175.046C44.6676 174.957 45.2971 175.225 44.3078 174.777C43.8581 175.315 44.2178 174.957 44.1279 175.136V175.225V175.315L44.2178 175.852L44.6675 175.584C46.2865 174.777 47.8155 173.882 49.0746 172.538C49.3444 172.18 49.7042 171.822 49.7942 171.374C49.974 170.926 49.974 170.388 49.8841 169.941C49.7042 169.045 49.2545 168.239 48.6249 167.612L48.535 168.149C49.974 167.074 51.3231 165.91 52.2225 164.298C52.6722 163.491 52.7622 162.506 52.6722 161.7C52.5823 160.804 52.3125 159.998 52.0427 159.281V159.192H51.9527C50.4237 157.669 48.8948 156.236 47.4557 154.892L47.0959 155.34C49.1646 156.147 51.2332 156.953 53.3018 157.221C53.8415 157.221 54.471 157.221 54.9208 156.863C55.2805 156.594 55.7302 156.236 56.09 155.878C56.4498 155.52 56.8095 155.072 56.8095 154.534C56.8994 153.997 56.6296 153.549 56.3598 153.101C55.2805 151.578 54.0214 150.593 52.9421 149.518C51.8628 148.533 50.7835 147.637 49.8841 146.831L49.974 146.921C49.3444 144.86 48.8948 143.248 48.535 142.084C48.3551 141.546 48.2652 141.188 48.1752 140.83C48.0853 140.382 47.9954 140.292 47.9954 140.292Z" fill="#EB996E"/>
<path d="M419.113 352.73C419.113 352.803 332.197 352.95 225.049 352.95C117.842 352.877 30.9258 352.803 30.9258 352.73C30.9258 352.583 117.842 352.51 225.049 352.51C332.197 352.51 419.113 352.583 419.113 352.73Z" fill="#263238"/>
</svg>
