<svg width="497" height="389" viewBox="0 0 497 389" fill="none" xmlns="http://www.w3.org/2000/svg">
<path d="M337.091 380.691C297.406 355.002 287.122 305.488 287.339 260.716C287.369 253.232 286.315 245.392 289.711 238.737C293.124 232.081 301.385 227.364 308.253 230.319C313.95 232.767 316.585 239.153 319.895 244.399C324.291 251.383 330.691 257.075 338.141 260.612C343.028 262.937 349.03 264.269 353.712 261.54C360.132 257.793 360.648 248.885 360.375 241.456C359.878 227.624 359.381 213.776 358.884 199.944C358.611 192.514 358.37 184.932 360.496 177.823C362.621 170.714 367.601 164.003 374.701 161.83C381.8 159.641 390.77 163.46 392.506 170.683C393.223 173.691 392.694 176.85 392.99 179.93C393.286 183.011 394.85 186.377 397.844 187.144C400.872 187.928 403.825 185.729 406.002 183.49C413.546 175.766 418.533 165.953 423.167 156.196C427.817 146.439 432.296 136.482 439.107 128.094C445.917 119.705 455.464 112.947 466.222 112.038C476.997 111.095 488.664 117.337 491.708 127.695C494.753 138.086 488.87 148.888 482.384 157.559C472.77 170.42 461.267 181.891 448.388 191.477C446.07 193.212 443.55 195.084 442.713 197.86C441.232 202.854 446.12 207.64 451.13 209.12C456.8 210.794 462.858 210.052 468.747 210.559C474.637 211.067 481.076 213.438 483.444 218.849C486.752 226.354 480.545 234.498 474.383 239.894C462.011 250.703 447.788 259.364 432.516 265.393C427.035 267.56 421.263 269.478 416.919 273.449C412.576 277.421 410.074 284.164 412.927 289.316C415.781 294.484 422.746 295.954 428.527 294.727C434.292 293.5 439.387 290.243 444.851 288.026C455.075 283.871 468.463 284.19 475.343 292.825C479.873 298.492 480.491 306.558 478.499 313.53C476.506 320.503 472.209 326.58 467.635 332.207C451.628 351.883 430.867 367.95 407.124 376.845C383.347 385.741 361.188 388.613 337.091 380.691Z" fill="#FFF000"/>
<path d="M340.185 381.525C346.187 358.77 362.765 305.172 372.728 279.934C375.235 273.646 377.727 267.408 380.186 261.272C382.646 255.152 385.073 249.084 387.84 243.297C393.291 231.692 399.445 220.953 405.592 210.938C411.739 200.907 417.946 191.617 423.826 182.972C429.723 174.327 435.359 166.376 440.806 159.355C451.667 145.264 461.77 134.924 469.007 128.098C472.617 124.676 475.497 122.107 477.479 120.394C478.445 119.571 479.194 118.92 479.727 118.458C480.244 118.029 480.528 117.823 480.528 117.823C480.528 117.823 480.295 118.079 479.813 118.541C479.28 119.037 478.565 119.704 477.633 120.56C475.703 122.34 472.874 124.942 469.315 128.413C462.181 135.323 452.196 145.711 441.437 159.835C436.04 166.872 430.438 174.839 424.592 183.501C418.746 192.179 412.572 201.469 406.459 211.499C400.346 221.513 394.242 232.235 388.808 243.789C386.074 249.559 383.663 255.576 381.204 261.713C378.761 267.849 376.27 274.07 373.762 280.358C363.799 305.579 347.22 359.11 341.166 381.798" fill="#96800E"/>
<path d="M388.108 243.192C388.024 243.21 387.756 242.085 387.323 240.035C386.889 237.984 386.342 235.008 385.717 231.326C384.451 223.961 383.061 213.732 381.537 202.443C380.014 191.154 378.439 180.978 377.022 173.649C376.33 169.984 375.732 167.025 375.282 164.992C374.849 162.959 374.648 161.815 374.715 161.797C374.782 161.78 375.135 162.887 375.702 164.902C376.287 166.916 377.002 169.856 377.795 173.503C379.414 180.813 381.125 191.003 382.648 202.309C384.136 213.497 385.492 223.626 386.508 231.213C387.013 234.746 387.442 237.69 387.777 239.961C388.059 242.03 388.176 243.175 388.108 243.192Z" fill="#96800E"/>
<path d="M484.336 222.546C484.337 222.579 484.001 222.651 483.344 222.728C482.553 222.823 481.611 222.921 480.483 223.055C478.009 223.325 474.425 223.713 470 224.331C461.167 225.499 449.009 227.574 435.716 230.44C422.424 233.34 410.5 236.474 401.939 239.021C397.658 240.261 394.218 241.354 391.835 242.095C390.744 242.431 389.838 242.713 389.083 242.943C388.445 243.12 388.109 243.209 388.091 243.159C388.074 243.126 388.392 242.969 388.995 242.725C389.733 242.445 390.622 242.095 391.678 241.676C394.008 240.801 397.43 239.59 401.693 238.249C410.2 235.517 422.122 232.249 435.465 229.331C448.791 226.448 461.002 224.507 469.888 223.523C474.33 223.006 477.934 222.736 480.426 222.583C481.572 222.534 482.515 222.504 483.307 222.459C483.982 222.5 484.319 222.512 484.336 222.546Z" fill="#96800E"/>
<path d="M349.089 350.521C349.056 350.538 348.831 350.137 348.416 349.367C347.965 348.48 347.393 347.342 346.682 345.953C345.191 342.99 343.124 338.636 340.638 333.227C335.666 322.407 329.268 307.276 322.409 290.466C315.549 273.655 309.268 258.489 304.498 247.599C302.131 242.272 300.198 237.9 298.789 234.734C298.162 233.31 297.64 232.137 297.24 231.232C296.891 230.428 296.733 229.992 296.767 229.975C296.8 229.958 297.025 230.359 297.44 231.128C297.891 232.016 298.463 233.154 299.174 234.543C300.665 237.505 302.732 241.859 305.218 247.269C310.19 258.088 316.588 273.219 323.447 290.03C330.307 306.823 336.588 322.007 341.358 332.88C343.725 338.207 345.657 342.579 347.067 345.745C347.694 347.186 348.216 348.342 348.616 349.246C348.965 350.067 349.123 350.503 349.089 350.521Z" fill="#96800E"/>
<path d="M476.451 305.907C476.469 305.941 476.033 306.132 475.178 306.448C474.222 306.781 472.998 307.22 471.471 307.764C468.117 308.94 463.487 310.555 457.817 312.523C446.294 316.561 430.446 322.328 412.955 328.742C395.464 335.156 379.564 340.823 367.953 344.66C362.148 346.579 357.449 348.094 354.176 349.084C352.632 349.544 351.373 349.916 350.399 350.199C349.526 350.447 349.073 350.555 349.055 350.521C349.038 350.488 349.474 350.296 350.329 349.981C351.285 349.647 352.509 349.209 354.036 348.665C357.39 347.488 362.02 345.873 367.69 343.906C379.213 339.867 395.061 334.1 412.552 327.686C430.043 321.272 445.943 315.622 457.537 311.768C463.342 309.85 468.041 308.334 471.314 307.344C472.858 306.885 474.117 306.513 475.091 306.23C475.981 305.981 476.434 305.874 476.451 305.907Z" fill="#96800E"/>
<path d="M134.248 374.862C169.317 356.198 181.477 315.478 184.505 277.975C185.017 271.706 186.461 265.217 184.095 259.402C181.714 253.585 175.135 249.043 169.173 251.024C164.227 252.666 161.563 257.824 158.416 261.979C154.235 267.512 148.467 271.819 141.977 274.246C137.718 275.843 132.597 276.528 128.873 273.907C123.766 270.309 123.972 262.814 124.733 256.613C126.141 245.068 127.55 233.508 128.957 221.962C129.718 215.761 130.463 209.43 129.193 203.326C127.923 197.221 124.235 191.245 118.446 188.917C112.659 186.575 104.875 189.129 102.903 195.053C102.088 197.519 102.304 200.203 101.836 202.761C101.367 205.319 99.816 208.025 97.2539 208.453C94.6623 208.892 92.3477 206.839 90.6855 204.809C84.9223 197.8 81.4503 189.227 78.27 180.725C75.0755 172.222 72.0389 163.564 66.938 156.053C61.837 148.541 54.3279 142.198 45.3853 140.666C36.4315 139.104 26.2151 143.494 22.9238 151.948C19.6297 160.43 23.7813 169.897 28.5906 177.621C35.7178 189.079 44.5274 199.508 54.6234 208.457C56.4405 210.076 58.4154 211.825 58.9178 214.209C59.7997 218.496 55.3642 222.153 51.0632 223.033C46.1957 224.028 41.1768 222.973 36.2089 222.975C31.2411 222.978 25.6803 224.502 23.3096 228.863C20.0022 234.91 24.6154 242.174 29.3873 247.133C38.972 257.07 50.26 265.341 62.6144 271.484C67.0487 273.691 71.7437 275.711 75.0961 279.348C78.4484 282.984 80.0594 288.81 77.3011 292.919C74.5413 297.042 68.6041 297.773 63.8515 296.332C59.1129 294.891 55.08 291.799 50.664 289.551C42.4014 285.339 31.169 284.646 24.7894 291.383C20.5908 295.803 19.4948 302.512 20.6633 308.493C21.8318 314.474 24.9944 319.871 28.4204 324.909C40.4129 342.531 56.6438 357.473 75.8863 366.622C95.157 375.775 113.505 379.768 134.248 374.862Z" fill="#ECF1FE"/>
<path d="M131.598 375.339C128.203 355.856 118.165 309.791 111.633 287.945C109.984 282.5 108.345 277.099 106.725 271.784C105.104 266.484 103.508 261.229 101.605 256.186C97.8733 246.078 93.4906 236.645 89.0616 227.82C84.6339 218.98 80.1021 210.757 75.7988 203.097C71.4814 195.436 67.3319 188.375 63.2741 182.106C55.1911 169.528 47.4725 160.147 41.9026 153.912C39.1254 150.789 36.8981 148.431 35.3615 146.855C34.6115 146.097 34.0307 145.498 33.6177 145.073C33.2159 144.677 32.9932 144.484 32.9932 144.484C32.9932 144.484 33.1694 144.715 33.5402 145.136C33.9504 145.59 34.5016 146.2 35.2206 146.983C36.7093 148.612 38.8915 150.993 41.6222 154.155C47.1006 160.452 54.7163 169.865 62.7119 182.462C66.7259 188.741 70.8459 195.813 75.1196 203.485C79.3919 211.17 83.8955 219.391 88.295 228.227C92.6959 237.05 97.0377 246.464 100.76 256.529C102.635 261.555 104.222 266.767 105.842 272.081C107.447 277.393 109.087 282.781 110.736 288.226C117.27 310.057 127.314 356.066 130.757 375.497" fill="#D6DFF5"/>
<path d="M101.388 256.079C101.457 256.1 101.763 255.177 102.272 253.491C102.782 251.806 103.454 249.353 104.241 246.314C105.829 240.238 107.726 231.774 109.811 222.431C111.896 213.088 113.944 204.681 115.656 198.645C116.498 195.626 117.21 193.192 117.733 191.522C118.241 189.85 118.492 188.908 118.437 188.888C118.382 188.868 118.007 189.77 117.387 191.416C116.754 193.061 115.944 195.471 115.019 198.468C113.139 204.472 110.977 212.882 108.891 222.239C106.843 231.5 104.982 239.884 103.587 246.164C102.911 249.086 102.341 251.52 101.898 253.397C101.513 255.109 101.333 256.059 101.388 256.079Z" fill="#D6DFF5"/>
<path d="M22.2975 231.894C22.2947 231.922 22.571 232.007 23.115 232.118C23.7704 232.254 24.5526 232.403 25.487 232.596C27.5391 233 30.5129 233.581 34.1731 234.416C41.4851 236.028 51.516 238.637 62.4405 241.989C73.3622 245.37 83.1213 248.848 90.1067 251.595C93.6021 252.94 96.4042 254.102 98.3464 254.893C99.2358 255.252 99.9744 255.554 100.59 255.8C101.112 255.995 101.387 256.093 101.405 256.052C101.422 256.025 101.167 255.872 100.679 255.624C100.081 255.337 99.3626 254.98 98.5084 254.553C96.6197 253.653 93.8416 252.394 90.3686 250.966C83.441 248.069 73.6932 244.478 62.7306 241.079C51.7793 237.709 41.6949 235.209 34.3252 233.748C30.6424 232.997 27.6447 232.513 25.5687 232.206C24.6131 232.082 23.8253 231.989 23.1657 231.895C22.5977 231.881 22.3144 231.867 22.2975 231.894Z" fill="#D6DFF5"/>
<path d="M126.365 348.741C126.392 348.758 126.609 348.438 127.012 347.823C127.453 347.113 128.013 346.201 128.708 345.088C130.169 342.715 132.211 339.218 134.681 334.866C139.619 326.164 146.061 313.953 153.009 300.37C159.958 286.786 166.303 274.538 171.079 265.762C173.442 261.471 175.374 257.949 176.781 255.399C177.408 254.252 177.929 253.307 178.329 252.579C178.678 251.93 178.842 251.576 178.815 251.56C178.788 251.543 178.571 251.863 178.168 252.477C177.727 253.188 177.167 254.1 176.472 255.212C175.011 257.585 172.969 261.082 170.499 265.434C165.561 274.136 159.119 286.347 152.171 299.93C145.224 313.5 138.876 325.763 134.103 334.524C131.739 338.815 129.808 342.337 128.401 344.887C127.772 346.048 127.253 346.979 126.852 347.707C126.502 348.37 126.338 348.724 126.365 348.741Z" fill="#D6DFF5"/>
<path d="M22.924 302.257C22.9071 302.284 23.258 302.475 23.9515 302.801C24.7281 303.148 25.7218 303.603 26.9608 304.168C29.6853 305.394 33.4459 307.078 38.0521 309.132C47.4111 313.339 60.2671 319.304 74.4523 325.928C88.6375 332.552 101.544 338.437 110.991 342.482C115.714 344.504 119.539 346.11 122.209 347.173C123.469 347.669 124.496 348.07 125.291 348.377C126.004 348.648 126.376 348.77 126.393 348.743C126.41 348.717 126.059 348.525 125.366 348.2C124.589 347.852 123.595 347.397 122.357 346.832C119.632 345.607 115.871 343.922 111.265 341.869C101.906 337.662 89.0502 331.697 74.865 325.072C60.6798 318.448 47.7717 312.578 38.3408 308.52C33.6176 306.497 29.7923 304.892 27.1228 303.829C25.8627 303.333 24.8352 302.931 24.0403 302.624C23.313 302.353 22.9409 302.23 22.924 302.257Z" fill="#D6DFF5"/>
<path d="M447.021 384.499C447.021 384.573 359.256 384.721 251.061 384.721C142.807 384.647 55.042 384.573 55.042 384.499C55.042 384.351 142.807 384.276 251.061 384.276C359.256 384.276 447.021 384.351 447.021 384.499Z" fill="#263238"/>
<path d="M376.121 101.105C382.679 99.3873 387.52 92.6734 387.208 85.9595C387.052 82.8368 385.802 79.8702 385.959 76.9036C386.115 72.2195 389.238 68.16 391.736 64.1004C394.078 60.0409 395.64 54.5761 392.985 50.6727C391.268 48.1745 387.989 47.0816 385.802 44.8957C383.616 42.7097 382.679 39.7431 381.586 36.9327C380.493 34.1222 378.932 31.3118 376.277 29.7504C373.623 28.1891 369.563 28.9697 368.626 31.7802" fill="#251A51"/>
<path d="M347.858 24.1295C352.543 21.1629 353.636 14.2929 351.137 9.2965C348.639 4.30013 343.174 1.33354 337.708 0.552859C329.745 -0.696233 321.313 2.11422 315.691 7.89127C312.725 11.014 310.226 15.0735 306.166 16.4788C302.575 17.7279 298.515 16.6349 294.767 17.1033C289.771 17.7279 285.398 21.319 282.744 25.6908C280.089 30.0626 279.152 35.2152 278.528 40.2115C277.903 44.8956 277.591 50.0481 274.312 53.327C271.189 56.6058 266.192 57.3865 262.288 59.7286C254.949 64.1004 252.607 75.1861 257.448 82.2122C259.009 84.3981 261.195 86.584 261.351 89.2384C261.507 91.7365 259.946 93.9225 259.165 96.4206C257.291 102.51 262.288 109.848 268.69 110.161C271.969 110.317 275.405 109.068 278.372 110.473C281.338 111.878 282.275 115.469 284.149 118.124C287.741 123.276 295.392 125.306 301.169 122.495C303.512 121.246 305.854 119.373 308.508 119.529C311.163 119.685 313.193 122.027 315.847 122.495C319.283 123.12 322.562 120.622 324.592 117.811C326.622 115.001 328.027 111.722 330.682 109.38C334.117 106.413 338.801 105.633 343.174 104.071C352.699 100.792 360.662 93.2979 364.41 83.9297C368.158 74.5615 367.689 63.632 363.161 54.7322" fill="#251A51"/>
<path d="M358.008 30.2187C361.912 30.6871 364.723 33.966 364.723 37.8694L360.194 138.89C360.038 150.756 342.549 157.47 329.745 157.158C316.785 156.845 316.472 150.6 316.316 139.202C316.004 120.309 316.004 113.127 316.004 113.283C316.004 113.283 299.764 110.473 296.329 89.2383C294.612 78.621 295.236 61.2899 296.173 47.2376C296.954 34.4344 305.542 18.8208 318.19 20.226L358.008 30.2187Z" fill="#FFBE9D"/>
<path d="M301.015 60.9776C301.015 62.3828 302.108 63.6319 303.669 63.788C305.231 63.9441 306.48 62.8512 306.48 61.2898C306.48 59.8846 305.387 58.6355 303.825 58.4794C302.42 58.3232 301.171 59.4162 301.015 60.9776Z" fill="#251A51"/>
<path d="M300.077 56.1374C300.39 56.4497 302.42 55.0444 305.386 55.0444C308.353 55.0444 310.539 56.6058 310.852 56.1374C311.008 55.9813 310.696 55.3567 309.759 54.576C308.822 53.9515 307.26 53.1708 305.386 53.1708C303.513 53.1708 301.951 53.7953 301.17 54.576C300.234 55.3567 299.921 55.9813 300.077 56.1374Z" fill="#251A51"/>
<path d="M330.37 60.9776C330.37 62.3828 331.463 63.6319 333.025 63.788C334.586 63.9442 335.835 62.8512 335.835 61.2899C335.835 59.8846 334.742 58.6355 333.181 58.4794C331.619 58.3233 330.37 59.4162 330.37 60.9776Z" fill="#251A51"/>
<path d="M328.964 56.7619C329.276 57.0742 331.306 55.669 334.273 55.669C337.24 55.669 339.426 57.2303 339.738 56.7619C339.895 56.6058 339.582 55.9812 338.645 55.2005C337.708 54.576 336.147 53.7953 334.273 53.7953C332.399 53.7953 330.838 54.4199 330.057 55.2005C329.12 55.9812 328.808 56.6058 328.964 56.7619Z" fill="#251A51"/>
<path d="M318.346 78.4649C318.346 78.3088 316.472 77.9965 313.505 77.5281C312.725 77.372 312.1 77.372 311.944 76.7474C311.788 76.279 312.1 75.3422 312.412 74.5615C313.193 72.6879 313.818 70.8143 314.599 68.7845C317.722 60.6654 319.908 53.9515 319.595 53.9515C319.283 53.7954 316.472 60.3531 313.349 68.4722C312.569 70.502 311.944 72.3756 311.163 74.2493C310.851 75.0299 310.382 76.1229 310.695 77.2159C310.851 77.8404 311.476 78.1527 311.944 78.3088C312.412 78.4649 312.881 78.4649 313.193 78.4649C316.472 78.6211 318.19 78.6211 318.346 78.4649Z" fill="#251A51"/>
<path d="M316.161 113.283C316.161 113.283 330.527 114.22 344.58 105.789C344.58 105.789 337.397 120.778 316.161 118.748V113.283Z" fill="#EB996E"/>
<path d="M319.44 85.6472C320.533 84.2419 322.407 83.4613 324.125 83.6174C325.374 83.7735 326.623 84.3981 327.404 85.3349C328.185 86.4278 328.341 87.8331 327.56 88.7699C326.779 89.8628 325.062 90.1751 323.656 89.7067C322.251 89.2383 321.002 88.4576 319.909 87.5208C319.596 87.2085 319.284 87.0524 319.128 86.584C319.128 86.4278 319.128 85.9594 319.44 85.6472Z" fill="#407BFF"/>
<path d="M326.934 80.6508C326.466 80.6508 326.466 83.7735 323.655 86.1156C321.001 88.3015 317.565 87.9892 317.565 88.4576C317.565 88.6138 318.346 89.0822 319.752 89.0822C321.157 89.0822 323.187 88.6138 324.904 87.3647C326.622 85.9594 327.247 84.0858 327.403 82.8367C327.403 81.2754 327.091 80.4947 326.934 80.6508Z" fill="#251A51"/>
<path d="M327.715 51.6094C328.027 52.3901 330.994 52.0778 334.429 52.3901C337.865 52.7024 340.675 53.7953 341.144 53.0147C341.3 52.7024 340.831 51.9217 339.738 51.141C338.645 50.3603 336.928 49.5797 334.742 49.4235C332.712 49.2674 330.838 49.5797 329.589 50.0481C328.183 50.6726 327.559 51.2972 327.715 51.6094Z" fill="#251A51"/>
<path d="M301.17 47.7059C301.639 48.3305 303.669 47.7059 306.167 47.7059C308.665 47.5498 310.695 48.1744 311.164 47.3937C311.32 47.0814 311.008 46.4569 310.227 45.8323C309.29 45.2078 307.885 44.7393 306.167 44.7393C304.449 44.7393 303.044 45.3639 302.263 46.1446C301.326 46.613 301.014 47.3937 301.17 47.7059Z" fill="#251A51"/>
<path d="M344.11 23.3488C348.951 20.0699 355.353 18.5086 360.974 20.2261C366.595 21.7874 371.28 26.9399 371.592 32.717C371.748 36.4642 370.031 40.5238 371.748 43.8027C373.31 47.0815 377.214 48.3306 380.024 50.6727C384.396 54.2638 385.646 60.9777 382.991 65.974C380.649 70.1897 375.808 73.3125 375.34 78.1527C375.028 82.6806 378.775 86.4279 379.712 90.9559C380.805 95.7961 377.994 100.949 374.091 104.227C370.187 107.506 365.346 109.224 360.506 110.941C356.758 112.347 352.698 113.596 348.794 112.815C344.11 111.722 340.675 107.506 340.05 102.822C339.425 98.1381 341.299 93.454 344.422 90.0191C347.077 87.0525 350.98 84.3981 351.605 80.4947C352.698 74.2493 345.203 69.2529 345.671 63.0074C345.828 59.7286 348.17 57.0743 350.044 54.4199C351.917 51.7656 353.635 48.4868 352.386 45.364C350.824 41.4606 345.671 40.3677 342.548 37.5572C339.894 35.2152 338.957 31.3117 339.894 27.8767C340.987 24.5979 344.11 21.9436 347.545 21.319" fill="#251A51"/>
<path d="M346.453 18.5085C346.453 22.7242 344.579 26.9399 341.3 29.7503C338.021 32.4047 333.493 33.6538 329.277 32.8731C325.997 32.2485 322.406 30.6872 319.595 32.4047C316.628 34.2783 316.472 38.6501 313.818 40.9922C310.07 44.271 304.136 41.1483 299.296 42.5535C295.548 43.6465 293.362 47.0815 290.864 50.0481C288.365 53.0147 284.774 55.8251 281.026 54.7322C281.339 51.4533 281.495 48.0183 282.432 44.8956C283.369 41.7729 285.242 38.6501 288.053 36.9326C289.615 35.9958 291.332 35.3713 292.738 34.1222C295.861 31.624 296.485 27.4083 298.359 23.9733C300.857 19.6015 305.542 16.4787 310.539 15.8542C314.755 15.3858 318.971 16.6349 323.031 15.6981C325.997 14.9174 328.652 13.0437 331.775 12.4192C337.709 11.3262 343.174 15.5419 347.546 19.7576" fill="#251A51"/>
<path d="M385.178 69.4091C385.022 69.4091 385.802 68.6284 385.646 66.9109C385.49 65.3496 384.241 63.0075 381.43 62.0707C380.025 61.4461 378.463 61.1339 376.746 60.8216C375.028 60.3532 373.154 59.8848 371.437 58.6357C369.719 57.3866 368.782 55.2007 368.626 53.0148C368.47 50.8289 368.782 48.643 368.938 46.3009C368.938 45.208 368.938 44.115 368.782 43.022C368.626 41.9291 368.158 40.9923 367.533 40.2116C366.284 38.6502 364.254 37.8695 362.38 37.245C360.506 36.6204 358.632 35.9959 357.227 35.0591C355.666 34.1223 354.416 33.0293 353.323 31.9364C351.293 29.7504 350.2 27.4084 349.576 25.847C349.263 25.0663 349.107 24.4418 349.107 23.9734C348.951 23.505 348.951 23.3488 348.951 23.3488C348.951 23.3488 349.263 24.2857 349.888 25.6909C350.513 27.2523 351.762 29.282 353.792 31.4679C355.822 33.6539 358.789 35.5275 362.692 36.4643C364.566 37.0889 366.752 37.8695 368.158 39.587C368.782 40.5239 369.407 41.6168 369.563 42.7098C369.719 43.8027 369.719 45.0518 369.719 46.1448C369.563 48.4868 369.251 50.6727 369.407 52.7025C369.563 54.7323 370.344 56.7621 371.905 57.855C373.467 58.948 375.184 59.5725 376.902 60.0409C378.62 60.5093 380.181 60.8216 381.586 61.4461C382.992 62.0707 384.241 62.8514 384.866 63.9443C385.646 64.8811 385.959 65.9741 385.959 66.9109C385.959 67.8477 385.802 68.4723 385.646 68.7846C385.49 69.253 385.178 69.4091 385.178 69.4091Z" fill="#407BFF"/>
<path d="M259.945 82.6806C259.945 82.6806 259.789 82.6806 259.633 82.5245C259.477 82.3683 259.165 82.2122 258.852 81.7438C258.384 80.807 258.228 79.2456 259.321 77.5281C259.789 76.7474 260.57 75.8106 261.663 75.3422C262.756 74.7176 263.849 74.4054 265.098 73.937C266.348 73.4685 267.597 72.844 268.69 71.9072C269.783 70.9704 270.408 69.409 270.72 67.8476C271.032 66.2863 271.188 64.5688 271.501 62.6951C271.813 60.8215 272.281 58.9478 273.687 57.3865C276.185 54.1076 280.245 52.3901 283.212 49.2674C284.773 47.706 285.866 45.8324 286.491 43.6465C287.272 41.4606 287.584 39.2747 288.052 36.7765C288.677 32.0924 289.302 26.9399 292.581 22.5681C294.142 20.3821 296.484 18.8208 298.983 18.3524C301.481 17.884 303.98 18.1962 306.322 18.5085C308.664 18.8208 311.006 19.1331 313.192 18.9769C315.379 18.6646 317.409 17.5717 318.814 16.0103C321.781 12.8876 323.342 8.67191 326.934 6.486C330.369 4.30009 334.429 4.14395 337.708 5.08077C340.987 6.01759 343.485 8.2035 344.735 10.5455C346.14 12.8876 346.608 15.2296 346.608 17.1033C346.608 18.9769 346.296 20.3821 345.984 21.319C345.672 22.2558 345.359 22.7242 345.359 22.7242C345.359 22.7242 345.515 22.2558 345.828 21.319C346.14 20.3821 346.452 18.9769 346.296 17.1033C346.14 15.2296 345.672 13.0437 344.422 10.7017C343.173 8.51577 340.831 6.32986 337.552 5.54918C334.429 4.7685 330.525 4.92463 327.402 7.11054C325.841 8.2035 324.435 9.60873 323.342 11.3262C322.093 13.0437 321 14.9174 319.438 16.4787C318.658 17.2594 317.721 18.0401 316.784 18.6646C315.691 19.1331 314.598 19.6015 313.349 19.7576C311.006 20.0699 308.664 19.7576 306.166 19.4453C303.823 19.1331 301.325 18.8208 298.983 19.2892C296.641 19.7576 294.455 21.1628 293.049 23.1926C291.644 25.2224 290.707 27.5644 290.082 29.9065C289.458 32.2485 289.145 34.7467 288.833 37.0887C288.521 39.4308 288.052 41.7728 287.272 43.9587C286.491 46.1447 285.398 48.1744 283.68 49.8919C280.401 53.0147 276.497 54.7322 274.155 57.8549C272.906 59.4163 272.437 61.1338 272.125 62.8513C271.813 64.5688 271.657 66.4424 271.344 68.0038C271.032 69.7213 270.251 71.2826 269.158 72.2194C268.065 73.3124 266.66 73.7808 265.411 74.2492C264.162 74.7176 263.068 75.0299 261.975 75.6544C261.039 76.1229 260.258 76.9035 259.789 77.6842C258.852 79.2456 258.852 80.807 259.165 81.5876C259.477 82.3683 260.102 82.5245 259.945 82.6806Z" fill="#407BFF"/>
<path d="M207.792 228.981L245.58 225.546C245.58 225.546 268.846 164.496 297.422 149.663L316.004 181.983L276.342 256.461H198.735L207.792 228.981Z" fill="#407BFF"/>
<path opacity="0.3" d="M207.792 228.981L245.58 225.546C245.58 225.546 268.846 164.496 297.422 149.663L316.004 181.983L276.342 256.461H198.735L207.792 228.981Z" fill="black"/>
<path d="M226.648 240.646C228.595 237.389 229.993 234.642 229.771 234.509C229.549 234.376 227.791 236.908 225.844 240.165C223.897 243.422 222.498 246.169 222.72 246.302C222.942 246.435 224.701 243.902 226.648 240.646Z" fill="#FAFAFA"/>
<path d="M249.445 245.608C249.646 245.446 247.883 242.918 245.505 239.96C243.128 237.003 241.037 234.737 240.836 234.899C240.634 235.061 242.398 237.59 244.775 240.547C247.152 243.505 249.243 245.77 249.445 245.608Z" fill="#FAFAFA"/>
<path d="M254.169 231.635C254.427 231.635 254.637 229.398 254.637 226.638C254.637 223.879 254.427 221.642 254.169 221.642C253.91 221.642 253.7 223.879 253.7 226.638C253.7 229.398 253.91 231.635 254.169 231.635Z" fill="#FAFAFA"/>
<path d="M240.848 253.341C240.989 253.124 239.582 251.954 237.706 250.727C235.829 249.501 234.193 248.682 234.051 248.898C233.91 249.115 235.316 250.285 237.193 251.512C239.07 252.738 240.706 253.557 240.848 253.341Z" fill="#FAFAFA"/>
<path d="M259.928 204.039C261.585 200.34 262.737 197.256 262.501 197.15C262.265 197.045 260.73 199.957 259.073 203.656C257.416 207.355 256.265 210.439 256.501 210.544C256.737 210.65 258.271 207.738 259.928 204.039Z" fill="#FAFAFA"/>
<path d="M274.808 175.332C276.595 173.978 277.918 172.713 277.761 172.507C277.605 172.301 276.03 173.232 274.243 174.586C272.456 175.94 271.134 177.205 271.29 177.411C271.446 177.617 273.021 176.687 274.808 175.332Z" fill="#FAFAFA"/>
<path d="M334.117 251.62L353.636 173.084C357.071 159.344 370.5 150.756 384.241 153.254C398.451 155.752 408.132 169.336 405.946 183.701L394.079 260.52C391.112 276.602 378.308 289.093 362.224 291.591L346.765 293.933L334.117 251.62Z" fill="#407BFF"/>
<path d="M395.484 148.102C395.328 148.258 393.298 145.76 388.613 144.667C386.271 144.198 383.304 144.042 380.181 144.667C377.058 145.447 373.935 147.009 371.125 149.351C365.347 154.191 362.38 160.28 360.194 164.652C359.101 166.838 358.32 168.712 357.852 169.961C357.227 171.21 356.915 171.835 356.915 171.835C356.915 171.835 357.071 171.054 357.54 169.805C358.008 168.556 358.789 166.682 359.726 164.34C360.663 162.154 361.912 159.5 363.786 156.689C365.503 153.879 367.846 151.068 370.656 148.57C373.623 146.072 376.902 144.511 380.181 143.73C383.46 142.949 386.427 143.262 388.926 143.886C391.268 144.511 393.142 145.604 394.235 146.384C394.703 146.853 395.172 147.165 395.484 147.477C395.328 147.946 395.484 148.102 395.484 148.102Z" fill="#251A51"/>
<path d="M285.241 165.901C285.241 165.901 285.085 166.214 284.773 166.682C284.305 167.15 283.836 167.931 283.055 168.712C281.65 170.429 279.62 172.927 277.278 176.206C272.593 182.764 266.816 192.445 264.005 204.467C261.351 216.49 261.194 227.731 260.726 235.694C260.57 239.754 260.414 243.033 260.101 245.219C259.945 246.312 259.945 247.092 259.945 247.873C259.945 248.498 259.789 248.81 259.789 248.81C259.789 248.81 259.789 248.498 259.789 247.873C259.789 247.248 259.789 246.312 259.789 245.219C259.789 242.877 259.945 239.598 260.101 235.694C260.414 227.731 260.414 216.333 263.224 204.311C266.035 192.132 271.969 182.452 276.809 175.894C279.152 172.615 281.338 170.117 282.899 168.556C283.68 167.775 284.305 167.15 284.617 166.682C285.085 166.057 285.241 165.901 285.241 165.901Z" fill="#251A51"/>
<path d="M409.85 165.745C407.663 151.693 400.012 148.258 391.892 143.886C389.238 142.481 376.59 139.202 366.596 136.704C365.659 130.615 363.942 119.685 363.473 117.499C363.005 114.22 312.256 122.339 311.632 123.588C311.163 124.369 310.07 137.016 309.289 145.447L297.11 149.663L281.339 169.805L273.063 181.515C268.222 188.229 264.631 195.88 262.913 203.999C260.883 212.898 260.571 221.642 260.571 231.166L258.072 282.691L363.942 312.67L372.218 260.364L399.544 223.203C402.198 208.058 412.504 182.92 409.85 165.745Z" fill="#407BFF"/>
<path d="M319.595 147.009C319.439 147.009 319.283 145.604 318.814 143.418C318.502 141.232 318.033 138.109 317.721 134.674C317.565 132.957 317.409 131.395 317.253 129.834C317.097 128.429 316.94 127.023 316.94 125.93C316.94 124.837 317.253 123.901 317.721 123.276C318.19 122.808 318.502 122.652 318.502 122.652C318.502 122.652 318.346 122.964 318.033 123.432C317.721 123.901 317.565 124.837 317.565 125.93C317.565 127.023 317.877 128.272 318.033 129.834C318.19 131.395 318.346 132.957 318.658 134.674C319.127 138.109 319.439 141.232 319.595 143.418C319.595 145.604 319.595 147.009 319.595 147.009Z" fill="#251A51"/>
<path d="M333.024 143.73C332.868 143.73 332.399 142.481 331.931 140.451C331.306 138.421 330.838 135.455 330.525 132.176C330.213 128.897 330.213 125.93 330.369 123.745C330.525 121.559 330.838 120.31 330.838 120.31C331.15 120.31 330.681 125.618 331.306 132.02C331.931 138.578 333.336 143.73 333.024 143.73Z" fill="#251A51"/>
<path d="M358.164 140.139C357.852 140.139 358.945 134.83 357.852 128.429C356.759 122.027 353.948 117.499 354.26 117.343C354.417 117.343 355.197 118.28 356.134 120.309C357.071 122.183 358.164 124.994 358.789 128.272C359.413 131.551 359.257 134.518 359.101 136.704C358.633 138.89 358.32 140.139 358.164 140.139Z" fill="#251A51"/>
<path d="M286.18 186.043C286.024 185.887 287.741 182.92 290.396 179.485C292.894 176.05 295.393 173.552 295.549 173.708C295.705 173.864 293.675 176.675 291.02 179.954C288.522 183.389 286.492 186.199 286.18 186.043Z" fill="#FAFAFA"/>
<path d="M310.036 166.646C310.241 166.489 308.667 164.084 306.52 161.275C304.373 158.466 302.465 156.316 302.26 156.473C302.054 156.631 303.628 159.035 305.776 161.844C307.923 164.653 309.83 166.803 310.036 166.646Z" fill="#FAFAFA"/>
<path d="M335.053 154.503C335.209 154.659 332.867 156.845 330.057 159.5C327.246 162.154 325.06 164.496 324.904 164.34C324.747 164.184 326.621 161.686 329.432 158.875C332.243 156.221 334.897 154.347 335.053 154.503Z" fill="#FAFAFA"/>
<path d="M328.053 139.599C328.226 139.407 326.761 137.797 324.779 136.003C322.798 134.208 321.051 132.909 320.877 133.101C320.703 133.292 322.169 134.902 324.15 136.697C326.132 138.491 327.879 139.791 328.053 139.599Z" fill="#FAFAFA"/>
<path d="M344.653 129.506C347.605 128.874 349.953 128.156 349.899 127.903C349.845 127.65 347.409 127.957 344.457 128.589C341.506 129.221 339.157 129.939 339.211 130.192C339.266 130.445 341.702 130.137 344.653 129.506Z" fill="#FAFAFA"/>
<path d="M354.221 162.611C354.48 162.598 354.565 160.144 354.413 157.13C354.26 154.116 353.927 151.683 353.669 151.696C353.411 151.709 353.325 154.163 353.477 157.177C353.63 160.192 353.963 162.624 354.221 162.611Z" fill="#FAFAFA"/>
<path d="M346.316 179.208C346.559 179.12 345.703 176.158 344.403 172.593C343.104 169.029 341.853 166.211 341.61 166.3C341.367 166.388 342.223 169.35 343.523 172.914C344.823 176.479 346.073 179.297 346.316 179.208Z" fill="#FAFAFA"/>
<path d="M324.7 190.826C324.942 190.733 323.972 187.659 322.535 183.962C321.099 180.265 319.738 177.344 319.497 177.437C319.256 177.531 320.225 180.604 321.662 184.301C323.099 187.999 324.459 190.92 324.7 190.826Z" fill="#FAFAFA"/>
<path d="M304.251 204.18C304.505 204.128 304.107 201.141 303.363 197.508C302.62 193.875 301.811 190.972 301.558 191.024C301.304 191.076 301.702 194.063 302.446 197.696C303.189 201.329 303.998 204.231 304.251 204.18Z" fill="#FAFAFA"/>
<path d="M279.961 204.623C280.193 204.509 279.096 201.778 277.51 198.522C275.924 195.266 274.45 192.719 274.217 192.832C273.984 192.945 275.082 195.676 276.668 198.932C278.254 202.188 279.728 204.736 279.961 204.623Z" fill="#FAFAFA"/>
<path d="M273.306 223.914C276.94 222.119 279.793 220.476 279.678 220.244C279.564 220.012 276.525 221.279 272.891 223.074C269.257 224.869 266.403 226.512 266.518 226.744C266.633 226.976 269.672 225.709 273.306 223.914Z" fill="#FAFAFA"/>
<path d="M279.933 244.75C279.776 244.906 278.527 242.252 277.746 239.129C276.81 235.85 276.653 233.196 276.81 233.04C276.966 233.04 277.59 235.694 278.527 238.817C279.308 242.096 280.089 244.75 279.933 244.75Z" fill="#FAFAFA"/>
<path d="M274.87 261.945C275.045 261.754 273.02 259.617 270.348 257.172C267.676 254.727 265.369 252.9 265.194 253.091C265.02 253.282 267.044 255.418 269.716 257.863C272.388 260.308 274.696 262.136 274.87 261.945Z" fill="#FAFAFA"/>
<path d="M306.791 250.215C306.791 250.371 303.199 251.464 299.139 253.338C294.923 255.211 291.8 257.085 291.644 256.929C291.488 256.773 294.611 254.431 298.827 252.557C302.887 250.683 306.635 250.059 306.791 250.215Z" fill="#FAFAFA"/>
<path d="M297.427 241.589C297.671 241.503 297.018 238.992 295.968 235.979C294.918 232.966 293.869 230.593 293.625 230.678C293.381 230.763 294.034 233.275 295.083 236.287C296.133 239.3 297.182 241.674 297.427 241.589Z" fill="#FAFAFA"/>
<path d="M312.035 228.215C314.564 224.202 316.437 220.838 316.218 220.7C315.999 220.562 313.771 223.703 311.242 227.715C308.713 231.728 306.841 235.092 307.059 235.23C307.278 235.368 309.506 232.227 312.035 228.215Z" fill="#FAFAFA"/>
<path d="M336.615 222.579C336.459 222.735 333.96 219.612 331.462 215.553C328.964 211.337 327.402 207.746 327.714 207.59C327.871 207.434 329.744 211.025 332.243 215.084C334.585 219.3 336.771 222.423 336.615 222.579Z" fill="#FAFAFA"/>
<path d="M348.795 202.593C348.795 202.75 346.14 203.53 342.861 203.686C339.582 203.843 336.771 203.374 336.771 203.218C336.771 203.062 339.426 203.062 342.705 202.906C346.14 202.593 348.795 202.281 348.795 202.593Z" fill="#FAFAFA"/>
<path d="M370.053 183.839C374.413 181.762 377.857 179.889 377.746 179.656C377.635 179.422 374.01 180.916 369.65 182.993C365.29 185.07 361.846 186.943 361.957 187.177C362.069 187.41 365.693 185.916 370.053 183.839Z" fill="#FAFAFA"/>
<path d="M383.074 159.193C384.798 155.717 386.007 152.806 385.776 152.691C385.544 152.576 383.958 155.301 382.235 158.777C380.511 162.254 379.301 165.165 379.533 165.28C379.765 165.395 381.35 162.67 383.074 159.193Z" fill="#FAFAFA"/>
<path d="M397.983 176.675C397.827 176.675 396.89 173.552 395.64 169.649C394.391 165.745 393.298 162.622 393.611 162.466C393.767 162.31 395.172 165.433 396.421 169.336C397.67 173.24 398.295 176.519 397.983 176.675Z" fill="#FAFAFA"/>
<path d="M400.949 191.664C400.949 191.82 397.982 193.225 394.078 194.162C390.175 195.099 386.896 195.411 386.896 195.255C386.896 195.099 390.018 194.318 393.922 193.381C397.67 192.445 400.793 191.508 400.949 191.664Z" fill="#FAFAFA"/>
<path d="M369.407 210.244C369.095 210.244 369.875 206.341 370.032 201.657C370.188 196.972 369.875 193.069 370.188 193.069C370.344 193.069 371.125 196.816 370.969 201.657C370.656 206.497 369.563 210.244 369.407 210.244Z" fill="#FAFAFA"/>
<path d="M363.161 229.137C363.005 229.293 360.194 226.951 357.384 223.516C354.573 220.081 352.699 216.958 353.011 216.802C353.168 216.646 355.354 219.612 358.008 222.891C360.819 226.482 363.317 228.98 363.161 229.137Z" fill="#FAFAFA"/>
<path d="M388.167 228.337C391.828 226.808 394.715 225.375 394.615 225.136C394.515 224.898 391.467 225.943 387.806 227.472C384.145 229.001 381.259 230.434 381.358 230.673C381.458 230.911 384.506 229.865 388.167 228.337Z" fill="#FAFAFA"/>
<path d="M384.01 252.362C384.058 247.62 383.887 243.774 383.628 243.771C383.37 243.768 383.121 247.611 383.074 252.353C383.026 257.095 383.197 260.942 383.456 260.944C383.714 260.947 383.963 257.105 384.01 252.362Z" fill="#FAFAFA"/>
<path d="M359.101 258.803C358.944 258.803 359.257 254.743 360.506 249.903C361.755 245.063 363.317 241.315 363.473 241.471C363.629 241.628 362.536 245.375 361.287 250.059C360.194 255.055 359.413 258.959 359.101 258.803Z" fill="#FAFAFA"/>
<path d="M360.35 268.171C360.35 268.483 356.447 268.795 351.762 269.576C347.078 270.357 343.174 271.293 343.174 270.981C343.174 270.825 346.921 269.576 351.606 268.795C356.29 268.015 360.35 268.015 360.35 268.171Z" fill="#FAFAFA"/>
<path d="M338.661 257.464C341.357 254.673 343.391 252.264 343.205 252.085C343.019 251.905 340.683 254.022 337.987 256.813C335.291 259.604 333.256 262.013 333.442 262.192C333.629 262.372 335.965 260.255 338.661 257.464Z" fill="#FAFAFA"/>
<path d="M316.161 279.1C316.004 279.1 315.224 276.29 313.974 273.011C312.725 269.732 311.632 267.078 311.788 266.922C311.945 266.765 313.506 269.264 314.755 272.699C316.004 276.134 316.317 279.1 316.161 279.1Z" fill="#FAFAFA"/>
<path d="M344.164 288.785C344.269 288.548 340.904 286.825 336.648 284.936C332.391 283.047 328.856 281.707 328.751 281.944C328.646 282.18 332.011 283.903 336.267 285.792C340.524 287.682 344.059 289.021 344.164 288.785Z" fill="#FAFAFA"/>
<path d="M297.595 280.559C298.628 277.449 299.267 274.862 299.021 274.781C298.776 274.699 297.739 277.154 296.706 280.264C295.673 283.373 295.035 285.96 295.28 286.042C295.526 286.123 296.562 283.669 297.595 280.559Z" fill="#FAFAFA"/>
<path d="M327.558 291.435C327.558 291.747 323.03 290.967 317.565 290.654C312.1 290.342 307.571 290.654 307.571 290.342C307.571 290.186 312.1 289.561 317.721 289.874C323.186 290.03 327.558 291.123 327.558 291.435Z" fill="#FAFAFA"/>
<path d="M334.117 245.375C334.117 245.375 334.117 245.219 334.117 244.75C334.117 244.282 334.117 243.813 334.43 243.033C334.586 242.252 335.054 241.315 336.147 240.691C337.084 240.066 338.489 239.754 339.895 240.066L339.582 240.222C341.3 234.289 343.955 225.545 346.765 215.709C349.264 206.497 350.981 198.065 352.231 191.976C352.855 189.01 353.324 186.511 353.636 184.794C353.948 183.076 354.261 182.139 354.261 182.139C354.261 182.139 354.261 183.076 353.948 184.794C353.636 186.511 353.324 189.01 352.699 192.132C351.606 198.222 350.044 206.809 347.39 216.021C344.579 225.858 341.769 234.601 339.895 240.535V240.691H339.582C338.333 240.378 336.928 240.691 336.147 241.159C335.21 241.627 334.742 242.564 334.586 243.189C334.117 244.438 334.273 245.375 334.117 245.375Z" fill="#251A51"/>
<path d="M369.25 267.078C369.094 267.078 368.157 265.048 366.127 261.925C364.097 258.802 360.974 254.587 356.758 250.84C352.542 247.092 348.17 244.282 344.891 242.564C341.612 240.847 339.426 240.066 339.426 240.066C339.426 240.066 340.05 240.222 340.987 240.534C341.924 240.847 343.486 241.315 345.203 242.096C348.639 243.657 353.167 246.312 357.383 250.215C361.599 254.118 364.722 258.334 366.596 261.613C367.533 263.174 368.157 264.58 368.626 265.516C369.094 266.453 369.25 267.078 369.25 267.078Z" fill="#251A51"/>
<g opacity="0.2">
<path opacity="0.2" d="M340.207 238.817C346.14 239.285 351.137 239.754 356.602 241.784C362.224 243.813 367.377 247.873 369.406 253.494C369.875 254.899 370.187 256.617 369.094 257.553C368.313 258.334 367.064 258.334 366.127 258.022C365.19 257.71 364.254 256.929 363.473 256.304C360.037 253.182 356.446 250.371 352.855 247.248C349.263 244.126 344.11 241.003 339.426 240.222" fill="black"/>
</g>
<path d="M328.965 228.824C328.965 228.824 328.497 229.293 327.404 229.761C326.311 230.229 324.749 231.01 322.563 231.635C318.347 232.884 312.257 233.508 305.699 231.791C299.14 230.073 294.144 226.482 291.021 223.359C289.459 221.798 288.366 220.393 287.742 219.456C287.117 218.519 286.805 217.895 286.805 217.895C286.961 217.739 288.366 220.081 291.489 223.047C294.612 226.014 299.609 229.449 305.855 231.01C312.101 232.572 318.191 232.103 322.407 231.01C326.623 230.073 328.965 228.668 328.965 228.824Z" fill="#251A51"/>
<g opacity="0.2">
<path opacity="0.2" d="M287.74 219.144C290.395 224.921 293.518 230.542 298.515 234.445C301.325 236.631 304.761 238.505 308.352 238.505C313.505 238.661 318.033 235.07 322.093 231.635C308.977 233.665 294.455 227.888 287.74 219.144Z" fill="black"/>
</g>
<path d="M345.36 142.637C345.047 142.637 345.36 137.328 344.735 130.771C344.11 124.213 342.861 119.06 343.017 118.904C343.173 118.904 343.642 120.153 344.11 122.183C344.579 124.369 345.203 127.179 345.516 130.614C345.828 133.893 345.828 136.86 345.672 139.046C345.672 141.232 345.516 142.637 345.36 142.637Z" fill="#251A51"/>
<path d="M160.166 351.548C160.166 351.548 143.146 355.139 128 352.953C113.79 350.767 81.9355 352.953 81.9355 371.689C81.9355 392.612 124.408 387.459 140.96 384.024C157.512 380.745 174.064 377.779 174.064 377.779L160.166 351.548Z" fill="#407BFF"/>
<path d="M122.156 378.225C122.408 378.168 121.877 374.848 120.969 370.81C120.061 366.771 119.121 363.543 118.868 363.6C118.616 363.657 119.147 366.977 120.055 371.015C120.963 375.054 121.903 378.282 122.156 378.225Z" fill="#251A51"/>
<path d="M127.942 378.633C128.198 378.598 127.941 375.176 127.366 370.99C126.792 366.804 126.119 363.439 125.863 363.474C125.606 363.509 125.864 366.931 126.438 371.117C127.013 375.303 127.686 378.668 127.942 378.633Z" fill="#251A51"/>
<path d="M133.484 376.326C133.741 376.295 133.597 373.355 133.163 369.759C132.729 366.163 132.169 363.274 131.912 363.305C131.655 363.336 131.799 366.276 132.233 369.871C132.667 373.467 133.227 376.357 133.484 376.326Z" fill="#251A51"/>
<path d="M142.21 374.187C142.054 374.344 140.804 371.845 140.024 368.567C139.243 365.288 139.243 362.633 139.399 362.633C139.555 362.633 140.024 365.288 140.804 368.41C141.585 371.533 142.522 374.187 142.21 374.187Z" fill="#251A51"/>
<path d="M144.24 366.537C144.24 366.537 145.021 366.381 146.426 366.381C147.832 366.381 150.018 366.693 152.36 367.474C152.985 367.63 153.609 367.942 154.234 368.41C154.858 368.879 155.327 369.659 155.327 370.44C155.327 372.314 153.297 373.563 151.423 373.251C149.549 372.938 148.144 371.533 147.051 370.128C145.802 368.723 145.021 366.849 144.552 364.975C143.616 361.072 144.24 357.012 146.426 354.202C146.739 353.89 147.207 353.577 147.675 353.421C148.144 353.265 148.768 353.577 149.081 353.89C149.705 354.514 150.018 355.451 150.174 356.232C150.33 357.793 150.33 359.198 150.018 360.447C149.393 362.946 148.144 364.819 147.207 365.756C146.739 366.224 146.27 366.693 145.958 366.849C145.646 367.005 145.489 367.161 145.489 367.161C145.489 367.161 146.114 366.693 147.051 365.6C147.988 364.507 149.081 362.789 149.549 360.291C149.862 359.042 149.862 357.637 149.705 356.232C149.549 355.607 149.393 354.826 148.768 354.358C148.3 353.89 147.675 354.046 147.207 354.67C145.333 357.325 144.709 361.072 145.489 364.819C145.958 366.693 146.739 368.41 147.832 369.816C148.925 371.221 150.174 372.47 151.735 372.782C153.141 373.094 154.858 372.001 154.702 370.752C154.702 370.128 154.39 369.503 153.765 369.191C153.297 368.723 152.672 368.41 152.048 368.254C149.705 367.317 147.675 367.005 146.27 366.849C145.021 366.537 144.24 366.693 144.24 366.537Z" fill="#251A51"/>
<path d="M172.346 375.124C172.346 375.124 172.19 375.124 171.878 375.28C171.566 375.436 171.097 375.436 170.629 375.593C169.38 375.905 167.818 376.217 165.632 376.686C161.416 377.622 155.17 378.872 147.362 380.433C139.711 381.838 130.498 383.556 120.036 384.961C114.883 385.585 109.418 386.21 103.641 385.741C100.83 385.585 97.8631 385.117 95.0524 384.024C93.6471 383.556 92.2417 382.931 90.9925 382.15C89.7433 381.37 88.338 380.589 87.4011 379.184C86.9326 378.715 86.308 378.091 85.9957 377.466C84.2781 374.656 84.2781 371.221 85.0588 368.254C85.9957 365.288 88.1818 362.946 90.5241 361.072C92.8663 359.354 95.5209 358.105 98.3316 357.169C99.7369 356.856 100.986 356.388 102.391 356.076C103.797 355.763 105.046 355.451 106.451 355.295C117.069 353.577 126.751 354.514 134.871 354.514C138.93 354.514 142.522 354.514 145.801 354.358C148.924 354.046 151.735 353.734 153.921 353.265C155.014 353.109 155.951 352.797 156.888 352.641C157.668 352.484 158.449 352.172 158.918 352.016C159.386 351.86 159.854 351.704 160.167 351.704C160.479 351.704 160.635 351.548 160.635 351.548C160.635 351.548 160.479 351.548 160.167 351.704C159.854 351.86 159.386 352.016 158.918 352.172C158.293 352.328 157.668 352.641 156.888 352.797C156.107 352.953 155.014 353.265 153.921 353.421C151.735 353.89 148.924 354.358 145.801 354.514C142.522 354.826 138.93 354.826 134.871 354.826C126.751 354.826 117.069 354.046 106.607 355.763C105.358 355.919 103.953 356.232 102.704 356.544C101.455 356.856 100.049 357.325 98.8 357.637C96.1455 358.574 93.6471 359.667 91.3048 361.384C88.9626 363.102 87.0888 365.288 86.1519 368.098C85.215 370.909 85.3711 374.031 86.9326 376.529C87.2449 377.154 87.8695 377.622 88.338 378.091C89.2749 379.184 90.5241 380.121 91.6171 380.745C92.8663 381.526 94.2717 381.994 95.5209 382.463C98.3316 383.399 101.142 383.868 103.953 384.024C109.574 384.492 115.04 383.868 120.192 383.243C130.498 381.838 139.711 380.277 147.519 378.872C155.17 377.466 161.416 376.217 165.788 375.437C167.818 374.968 169.536 374.656 170.785 374.5C171.253 374.344 171.722 374.344 172.034 374.187C172.19 375.124 172.346 375.124 172.346 375.124Z" fill="#251A51"/>
<path d="M110.355 385.117C110.199 385.117 110.199 383.399 109.887 380.745C109.731 378.091 109.418 374.344 108.794 370.284C108.325 366.224 107.544 362.633 107.076 359.979C106.608 357.325 106.139 355.763 106.295 355.763C106.451 355.763 106.92 357.325 107.544 359.979C108.169 362.633 108.95 366.224 109.574 370.284C110.043 374.344 110.355 378.091 110.355 380.745C110.511 383.399 110.511 385.117 110.355 385.117Z" fill="#251A51"/>
<path opacity="0.4" d="M155.014 352.484L165.788 379.34L174.064 377.779L158.137 351.548L155.014 352.484Z" fill="black"/>
<path d="M295.08 278.632C293.362 279.256 182.184 248.029 137.213 235.382C125.345 232.103 112.697 233.977 102.391 240.691L101.923 241.003C86.9327 250.84 79.5936 268.951 83.6535 286.595C86.3081 297.681 93.1786 307.361 102.86 313.294C132.528 331.406 195.3 369.659 197.174 368.879C199.673 367.942 278.06 365.912 278.06 365.912L183.745 298.149L228.56 327.19L295.08 278.632Z" fill="#251A51"/>
<path d="M202.327 244.75L225.906 232.572L249.016 247.092L335.679 249.903L348.171 292.06L222.627 263.018C222.627 263.018 199.829 265.048 198.111 259.896C196.706 254.899 202.327 244.75 202.327 244.75Z" fill="#FFBE9D"/>
<path d="M273.375 312.514L261.664 350.923L263.069 362.633C284.306 384.024 318.19 386.366 342.237 367.942C356.759 356.7 365.347 339.369 365.191 321.101L365.035 280.974L273.375 312.514Z" fill="#251A51"/>
<path d="M203.939 312.711C204.093 312.504 190.769 302.305 174.178 289.931C157.587 277.557 144.012 267.694 143.857 267.901C143.703 268.109 157.027 278.308 173.618 290.682C190.209 303.056 203.784 312.919 203.939 312.711Z" fill="#407BFF"/>
<path d="M212.916 244.392C219.404 242.314 224.599 240.429 224.521 240.183C224.442 239.937 219.118 241.422 212.63 243.5C206.142 245.579 200.947 247.463 201.026 247.71C201.105 247.956 206.428 246.471 212.916 244.392Z" fill="#EB996E"/>
<path d="M226.218 247.405C226.218 247.561 224.656 247.717 222.158 248.185C219.66 248.654 216.224 249.278 212.477 250.059C208.729 250.996 205.45 251.933 202.952 252.557C200.609 253.338 199.048 253.806 199.048 253.65C199.048 253.494 200.453 252.869 202.795 252.089C205.138 251.152 208.573 250.215 212.321 249.278C216.068 248.341 219.503 247.873 222.158 247.561C224.656 247.405 226.218 247.405 226.218 247.405Z" fill="#EB996E"/>
<path d="M211.158 257.077C218.349 255.651 224.137 254.29 224.087 254.036C224.036 253.782 218.167 254.732 210.976 256.158C203.786 257.584 197.998 258.945 198.048 259.199C198.098 259.453 203.968 258.503 211.158 257.077Z" fill="#EB996E"/>
<path d="M193.582 188.229L215.443 259.895C215.755 260.676 216.38 261.301 217.317 261.301L276.654 265.829C277.747 265.985 278.528 266.765 278.528 267.858V271.606C278.528 272.699 277.591 273.635 276.342 273.635L113.946 270.513C113.165 270.513 112.385 270.044 112.072 269.107L83.4969 194.474C83.0284 193.225 83.9653 191.664 85.3707 191.664L191.396 186.667C192.333 186.667 193.27 187.292 193.582 188.229Z" fill="#FF725E"/>
<path d="M147.83 218.988C146.737 219.3 144.863 220.861 144.551 222.579C144.395 224.296 145.176 226.014 146.581 227.107C148.299 228.356 150.797 228.512 152.515 227.263C154.232 226.014 155.013 223.828 154.076 221.33C153.451 219.456 149.86 218.051 147.83 218.988Z" fill="#E0E0E0"/>
<path d="M174.064 377.779L156.888 349.518L283.056 250.683C290.864 244.282 300.545 240.378 310.539 239.442C341.925 236.631 368.314 262.706 365.66 294.089L363.63 318.134L279.933 344.99L174.064 377.779Z" fill="#251A51"/>
<path d="M335.835 310.796C335.835 310.796 335.679 310.952 335.523 311.108C335.211 311.265 334.898 311.577 334.43 311.889C333.493 312.67 332.088 313.763 330.37 315.168C329.433 315.792 328.496 316.573 327.403 317.51C326.31 318.291 325.061 319.071 323.812 320.008C322.562 320.945 321.157 321.882 319.596 322.819C318.815 323.287 318.034 323.912 317.253 324.38C316.473 324.848 315.536 325.317 314.755 325.941C311.32 327.971 307.572 330.313 303.356 332.499C301.326 333.592 299.14 334.841 296.954 335.934C294.768 337.027 292.426 338.12 289.927 339.213C280.246 343.585 269.628 347.957 258.073 351.86C234.963 359.823 213.726 365.444 198.424 370.128C194.52 371.221 191.085 372.314 188.118 373.251C185.151 374.187 182.496 374.968 180.31 375.749C178.28 376.373 176.563 376.998 175.47 377.31C175.001 377.466 174.533 377.622 174.22 377.779C173.908 377.935 173.752 377.935 173.752 377.935C173.752 377.935 173.908 377.935 174.22 377.779C174.533 377.622 175.001 377.466 175.47 377.31C176.563 376.842 178.28 376.373 180.31 375.593C182.34 374.812 184.995 374.031 187.962 372.938C190.928 372.002 194.364 370.909 198.267 369.66C213.57 364.819 234.806 359.042 257.76 351.235C269.315 347.332 280.09 342.96 289.615 338.588C291.957 337.495 294.299 336.402 296.642 335.31C298.828 334.217 301.014 332.967 303.044 332.031C307.26 330.001 311.007 327.659 314.443 325.629C315.223 325.161 316.16 324.692 316.941 324.224C317.722 323.755 318.503 323.131 319.283 322.662C320.845 321.726 322.25 320.789 323.499 319.852C324.749 318.915 325.998 318.135 327.091 317.354C328.184 316.573 329.121 315.792 330.058 315.168C331.775 313.919 333.181 312.826 334.117 312.045C334.586 311.733 334.898 311.421 335.211 311.264C335.679 310.952 335.835 310.796 335.835 310.796Z" fill="#407BFF"/>
<path d="M338.959 324.068C338.959 324.068 338.49 324.38 337.71 324.692C336.929 325.004 335.68 325.629 334.118 326.097C330.995 327.19 326.623 328.596 321.782 329.689C316.786 330.781 312.257 331.25 308.978 331.562C307.26 331.718 306.011 331.718 305.074 331.718C304.137 331.718 303.669 331.718 303.669 331.562C303.669 331.406 305.699 331.25 308.978 330.938C312.257 330.625 316.786 330.001 321.626 328.908C326.467 327.815 330.839 326.566 333.962 325.629C336.929 324.536 338.959 323.911 338.959 324.068Z" fill="#407BFF"/>
<path d="M217.761 302.921C251.195 276.937 278.17 255.707 278.011 255.503C277.853 255.299 250.62 276.197 217.186 302.181C183.751 328.165 156.776 349.395 156.935 349.599C157.094 349.803 184.326 328.905 217.761 302.921Z" fill="#407BFF"/>
<path d="M270.721 360.447C264.631 357.169 257.917 359.198 252.139 361.072C248.236 362.321 244.332 364.351 240.428 363.258C237.617 362.477 235.431 360.135 233.401 358.105C224.657 349.986 212.633 345.614 200.766 346.395C197.331 346.551 194.052 347.956 191.866 350.455C185.932 356.856 190.46 365.288 195.769 370.752C205.138 380.277 217.943 386.522 231.215 387.927C242.302 389.02 257.448 387.615 268.691 382.775C275.562 379.808 279.153 371.689 275.562 364.975C274.313 363.102 272.751 361.54 270.721 360.447Z" fill="#407BFF"/>
<g opacity="0.4">
<path opacity="0.4" d="M270.721 365.6C264.631 362.321 257.917 364.351 252.139 366.224C248.236 367.474 244.332 369.503 240.428 368.41C237.617 367.63 235.431 365.288 233.401 363.258C224.657 355.139 212.633 350.767 200.766 351.548C197.331 351.704 194.052 353.109 191.866 355.607C190.616 357.012 189.836 358.574 189.367 360.135C190.304 364.039 192.802 367.786 195.769 370.752C205.138 380.277 217.943 386.522 231.215 387.927C242.302 389.02 257.448 387.615 268.691 382.775C272.907 381.057 275.718 377.31 276.655 373.251C276.342 372.158 276.03 371.221 275.562 370.128C274.313 368.254 272.751 366.693 270.721 365.6Z" fill="black"/>
</g>
<path d="M276.498 373.251C276.342 373.251 276.342 371.845 274.937 369.659C274.156 368.567 273.219 367.474 271.658 366.537C270.252 365.6 268.222 364.663 266.036 364.351C261.508 363.882 256.355 365.756 250.577 367.317C247.767 368.098 244.644 369.191 241.208 368.879C239.491 368.723 237.929 368.098 236.368 367.161C234.806 366.224 233.557 365.132 232.152 364.039C227.155 359.198 221.221 356.076 215.6 354.202C212.789 353.265 209.979 352.641 207.324 352.328C204.669 352.016 202.171 352.016 199.985 352.328C197.799 352.641 195.925 353.421 194.364 354.358C192.802 355.295 191.709 356.388 190.928 357.325C189.367 359.198 188.742 360.604 188.742 360.604C188.742 360.604 189.211 359.198 190.772 357.169C191.553 356.232 192.646 354.983 194.207 354.046C195.769 353.109 197.799 352.328 199.985 351.86C202.327 351.391 204.826 351.548 207.48 351.86C210.135 352.172 212.945 352.797 215.912 353.734C218.723 354.67 221.69 355.919 224.657 357.637C226.062 358.418 227.467 359.354 228.873 360.447C230.278 361.54 231.527 362.633 232.776 363.726C234.026 364.819 235.431 365.912 236.836 366.849C238.242 367.63 239.803 368.254 241.365 368.41C244.488 368.879 247.611 367.786 250.421 367.005C256.199 365.444 261.508 363.57 266.192 364.195C270.877 364.975 273.844 367.786 275.249 369.816C275.874 370.909 276.186 371.845 276.342 372.626C276.498 372.938 276.498 373.251 276.498 373.251Z" fill="#251A51"/>
<path d="M276.498 373.251C276.342 373.251 276.342 371.845 274.937 369.659C274.156 368.567 273.219 367.474 271.658 366.537C270.252 365.6 268.222 364.663 266.036 364.351C261.508 363.882 256.355 365.756 250.577 367.317C247.767 368.098 244.644 369.191 241.208 368.879C239.491 368.723 237.929 368.098 236.368 367.161C234.806 366.224 233.557 365.132 232.152 364.039C227.155 359.198 221.221 356.076 215.6 354.202C212.789 353.265 209.979 352.641 207.324 352.328C204.669 352.016 202.171 352.016 199.985 352.328C197.799 352.641 195.925 353.421 194.364 354.358C192.802 355.295 191.709 356.388 190.928 357.325C189.367 359.198 188.742 360.604 188.742 360.604C188.742 360.604 189.211 359.198 190.772 357.169C191.553 356.232 192.646 354.983 194.207 354.046C195.769 353.109 197.799 352.328 199.985 351.86C202.327 351.391 204.826 351.548 207.48 351.86C210.135 352.172 212.945 352.797 215.912 353.734C218.723 354.67 221.69 355.919 224.657 357.637C226.062 358.418 227.467 359.354 228.873 360.447C230.278 361.54 231.527 362.633 232.776 363.726C234.026 364.819 235.431 365.912 236.836 366.849C238.242 367.63 239.803 368.254 241.365 368.41C244.488 368.879 247.611 367.786 250.421 367.005C256.199 365.444 261.508 363.57 266.192 364.195C270.877 364.975 273.844 367.786 275.249 369.816C275.874 370.909 276.186 371.845 276.342 372.626C276.498 372.938 276.498 373.251 276.498 373.251Z" fill="#251A51"/>
<path d="M201.391 371.689C201.391 371.533 202.484 370.753 204.514 369.503C206.544 368.254 209.354 366.693 212.477 365.288C215.756 363.726 218.723 362.633 220.909 361.853C223.095 361.072 224.501 360.76 224.501 360.76C224.501 360.916 223.252 361.384 221.065 362.321C218.879 363.258 215.913 364.507 212.79 365.912C209.667 367.474 206.7 368.879 204.67 369.972C202.796 371.221 201.547 371.845 201.391 371.689Z" fill="#251A51"/>
<path d="M215.661 372.445C222.26 369.254 227.519 366.479 227.406 366.246C227.294 366.013 221.853 368.411 215.253 371.601C208.654 374.792 203.395 377.567 203.508 377.8C203.62 378.033 209.061 375.635 215.661 372.445Z" fill="#251A51"/>
<path d="M228.548 380.476C228.686 380.257 222.469 376.092 214.661 371.173C206.854 366.254 200.413 362.444 200.275 362.663C200.137 362.882 206.355 367.047 214.162 371.966C221.969 376.884 228.41 380.694 228.548 380.476Z" fill="#251A51"/>
<path d="M232.151 374.187C232.151 374.344 230.902 373.407 229.028 372.002C227.155 370.596 224.5 368.723 221.533 366.693C218.566 364.663 215.912 362.946 214.038 361.54C212.164 360.291 210.915 359.354 210.915 359.354C210.915 359.198 212.32 359.979 214.35 361.072C216.38 362.321 219.191 364.039 222.002 366.068C224.968 368.098 227.467 370.128 229.341 371.533C231.214 373.095 232.308 374.031 232.151 374.187Z" fill="#251A51"/>
</svg>
