<svg width="517" height="397" viewBox="0 0 517 397" fill="none" xmlns="http://www.w3.org/2000/svg">
<path d="M323.237 382.86C281.43 355.797 270.596 303.635 270.823 256.468C270.855 248.583 269.745 240.323 273.323 233.312C276.918 226.301 285.621 221.332 292.856 224.444C298.859 227.024 301.634 233.751 305.121 239.278C309.752 246.636 316.495 252.632 324.343 256.358C329.491 258.807 335.815 260.211 340.747 257.336C347.51 253.388 348.054 244.004 347.767 236.177C347.243 221.606 346.719 207.016 346.196 192.445C345.909 184.618 345.655 176.63 347.894 169.141C350.133 161.651 355.379 154.581 362.858 152.293C370.338 149.986 379.788 154.009 381.617 161.619C382.371 164.787 381.814 168.116 382.126 171.361C382.438 174.606 384.085 178.152 387.24 178.96C390.43 179.786 393.541 177.469 395.834 175.111C403.782 166.973 409.036 156.636 413.917 146.357C418.816 136.078 423.535 125.588 430.71 116.751C437.884 107.914 447.942 100.795 459.276 99.837C470.626 98.8435 482.918 105.419 486.125 116.331C489.332 127.278 483.135 138.658 476.301 147.793C466.174 161.341 454.055 173.426 440.487 183.525C438.045 185.352 435.391 187.325 434.509 190.25C432.948 195.51 438.098 200.552 443.376 202.112C449.349 203.875 455.731 203.093 461.936 203.628C468.141 204.163 474.923 206.66 477.418 212.361C480.903 220.268 474.364 228.847 467.873 234.532C454.839 245.919 439.855 255.043 423.767 261.395C417.992 263.677 411.912 265.698 407.335 269.882C402.759 274.066 400.124 281.17 403.13 286.597C406.136 292.042 413.474 293.591 419.564 292.298C425.637 291.006 431.005 287.574 436.761 285.239C447.532 280.862 461.636 281.197 468.884 290.294C473.656 296.265 474.308 304.761 472.209 312.107C470.109 319.452 465.582 325.855 460.764 331.782C443.9 352.511 422.029 369.438 397.016 378.809C371.967 388.18 348.622 391.206 323.237 382.86Z" fill="#FFF000"/>
<path d="M361.981 383.628C368.304 359.656 385.768 303.191 396.264 276.603C398.906 269.978 401.531 263.407 404.122 256.942C406.713 250.496 409.269 244.103 412.185 238.007C417.927 225.78 424.41 214.467 430.886 203.917C437.362 193.349 443.901 183.562 450.096 174.455C456.307 165.347 462.246 156.971 467.984 149.575C479.425 134.729 490.07 123.837 497.693 116.645C501.496 113.04 504.53 110.334 506.618 108.529C507.636 107.662 508.426 106.977 508.987 106.489C509.531 106.038 509.83 105.82 509.83 105.82C509.83 105.82 509.585 106.09 509.077 106.577C508.516 107.1 507.762 107.803 506.781 108.704C504.747 110.58 501.767 113.32 498.018 116.978C490.502 124.257 479.982 135.201 468.648 150.08C462.963 157.494 457.061 165.887 450.902 175.012C444.744 184.154 438.24 193.941 431.8 204.508C425.359 215.057 418.929 226.352 413.204 238.525C410.324 244.603 407.785 250.942 405.194 257.407C402.62 263.871 399.995 270.425 397.353 277.05C386.858 303.62 369.392 360.014 363.014 383.916" fill="#96800E"/>
<path d="M412.467 237.896C412.379 237.915 412.096 236.729 411.64 234.569C411.183 232.409 410.607 229.274 409.949 225.395C408.615 217.635 407.15 206.859 405.545 194.967C403.94 183.074 402.281 172.354 400.788 164.632C400.059 160.771 399.429 157.655 398.955 155.513C398.499 153.371 398.287 152.166 398.358 152.147C398.428 152.129 398.8 153.295 399.398 155.418C400.014 157.54 400.767 160.637 401.602 164.479C403.308 172.179 405.11 182.915 406.715 194.826C408.283 206.613 409.711 217.283 410.781 225.276C411.313 228.998 411.765 232.099 412.118 234.492C412.415 236.672 412.538 237.877 412.467 237.896Z" fill="#96800E"/>
<path d="M513.842 216.145C513.843 216.18 513.489 216.256 512.797 216.337C511.964 216.438 510.971 216.54 509.784 216.681C507.177 216.966 503.401 217.374 498.739 218.025C489.434 219.257 476.626 221.443 462.622 224.462C448.619 227.517 436.057 230.818 427.038 233.501C422.528 234.808 418.904 235.959 416.393 236.74C415.244 237.094 414.289 237.391 413.494 237.633C412.822 237.82 412.468 237.914 412.449 237.861C412.431 237.826 412.766 237.661 413.402 237.404C414.179 237.109 415.115 236.74 416.227 236.299C418.683 235.376 422.288 234.101 426.778 232.688C435.741 229.81 448.301 226.367 462.357 223.294C476.396 220.256 489.26 218.211 498.621 217.175C503.301 216.63 507.097 216.346 509.723 216.185C510.93 216.132 511.924 216.101 512.758 216.054C513.469 216.097 513.824 216.11 513.842 216.145Z" fill="#96800E"/>
<path d="M371.361 350.965C371.326 350.983 371.089 350.561 370.651 349.75C370.177 348.815 369.574 347.616 368.825 346.153C367.255 343.032 365.077 338.445 362.458 332.746C357.22 321.348 350.48 305.408 343.253 287.698C336.027 269.988 329.41 254.01 324.384 242.538C321.891 236.926 319.855 232.32 318.37 228.985C317.71 227.485 317.16 226.249 316.738 225.296C316.371 224.449 316.205 223.99 316.24 223.972C316.275 223.953 316.512 224.376 316.95 225.187C317.424 226.121 318.027 227.32 318.776 228.784C320.347 231.905 322.524 236.491 325.143 242.19C330.381 253.588 337.121 269.529 344.348 287.239C351.574 304.931 358.191 320.926 363.217 332.381C365.71 337.993 367.746 342.599 369.231 345.934C369.891 347.452 370.441 348.67 370.863 349.623C371.23 350.488 371.396 350.947 371.361 350.965Z" fill="#96800E"/>
<path d="M505.536 303.965C505.554 304.001 505.095 304.202 504.194 304.535C503.187 304.886 501.897 305.348 500.289 305.921C496.755 307.16 491.878 308.862 485.905 310.935C473.765 315.189 457.069 321.265 438.643 328.022C420.216 334.779 403.466 340.749 391.234 344.792C385.118 346.813 380.168 348.409 376.72 349.452C375.093 349.936 373.767 350.328 372.741 350.626C371.822 350.888 371.344 351.001 371.325 350.966C371.307 350.93 371.766 350.729 372.667 350.396C373.674 350.045 374.964 349.583 376.572 349.01C380.106 347.771 384.984 346.069 390.957 343.996C403.096 339.742 419.792 333.666 438.219 326.909C456.645 320.152 473.396 314.2 485.61 310.14C491.725 308.119 496.675 306.522 500.123 305.48C501.75 304.995 503.077 304.604 504.102 304.305C505.04 304.043 505.518 303.93 505.536 303.965Z" fill="#96800E"/>
<path d="M196.031 387.707C232.976 368.044 245.786 325.146 248.976 285.637C249.515 279.033 251.036 272.197 248.543 266.07C246.036 259.942 239.105 255.157 232.824 257.245C227.613 258.975 224.807 264.408 221.491 268.786C217.086 274.614 211.011 279.152 204.173 281.709C199.686 283.391 194.291 284.112 190.368 281.352C184.988 277.561 185.205 269.665 186.007 263.133C187.49 250.969 188.974 238.792 190.457 226.628C191.258 220.096 192.044 213.426 190.706 206.995C189.368 200.563 185.482 194.268 179.384 191.815C173.287 189.348 165.086 192.039 163.009 198.279C162.15 200.878 162.378 203.705 161.884 206.4C161.391 209.095 159.757 211.946 157.058 212.396C154.327 212.859 151.889 210.696 150.138 208.557C144.066 201.174 140.409 192.142 137.058 183.186C133.693 174.228 130.494 165.107 125.12 157.193C119.746 149.28 111.836 142.598 102.415 140.983C92.9819 139.338 82.219 143.963 78.7517 152.869C75.2814 161.805 79.655 171.778 84.7216 179.916C92.23 191.986 101.511 202.973 112.147 212.401C114.061 214.106 116.142 215.948 116.671 218.46C117.6 222.976 112.927 226.829 108.396 227.757C103.268 228.805 97.981 227.693 92.7474 227.696C87.5138 227.699 81.6556 229.304 79.1581 233.898C75.6738 240.268 80.5338 247.921 85.5609 253.145C95.6582 263.614 107.55 272.328 120.565 278.799C125.237 281.124 130.183 283.252 133.715 287.083C137.246 290.914 138.943 297.051 136.038 301.38C133.13 305.724 126.875 306.495 121.869 304.976C116.877 303.458 112.628 300.2 107.976 297.832C99.2712 293.395 87.4379 292.665 80.7171 299.762C76.2939 304.419 75.1392 311.487 76.3703 317.787C77.6013 324.088 80.933 329.774 84.5423 335.082C97.1762 353.646 114.275 369.387 134.547 379.026C154.849 388.668 174.178 392.875 196.031 387.707Z" fill="#ECF1FE"/>
<path d="M193.239 388.209C189.663 367.684 179.087 319.154 172.205 296.14C170.468 290.404 168.742 284.714 167.036 279.115C165.328 273.532 163.646 267.996 161.642 262.683C157.71 252.034 153.093 242.096 148.427 232.799C143.763 223.487 138.988 214.823 134.455 206.754C129.907 198.683 125.535 191.244 121.26 184.64C112.745 171.389 104.614 161.506 98.7457 154.938C95.8199 151.647 93.4734 149.164 91.8547 147.503C91.0646 146.705 90.4527 146.074 90.0176 145.626C89.5943 145.208 89.3597 145.005 89.3597 145.005C89.3597 145.005 89.5453 145.249 89.9359 145.692C90.3681 146.17 90.9488 146.813 91.7062 147.638C93.2745 149.354 95.5735 151.863 98.4503 155.194C104.222 161.827 112.245 171.744 120.668 185.015C124.897 191.63 129.237 199.081 133.739 207.162C138.24 215.258 142.985 223.919 147.62 233.228C152.256 242.523 156.83 252.441 160.751 263.044C162.727 268.339 164.399 273.829 166.105 279.427C167.796 285.024 169.524 290.7 171.261 296.436C178.145 319.435 188.726 367.905 192.353 388.375" fill="#D6DFF5"/>
<path d="M161.413 262.57C161.486 262.592 161.808 261.619 162.345 259.844C162.882 258.068 163.589 255.484 164.418 252.283C166.091 245.882 168.09 236.964 170.286 227.122C172.483 217.279 174.64 208.422 176.444 202.064C177.331 198.884 178.082 196.319 178.632 194.56C179.167 192.799 179.432 191.805 179.374 191.785C179.316 191.764 178.921 192.714 178.268 194.448C177.601 196.181 176.748 198.72 175.773 201.877C173.793 208.202 171.514 217.062 169.317 226.92C167.159 236.676 165.199 245.508 163.729 252.124C163.017 255.202 162.417 257.766 161.95 259.744C161.545 261.548 161.355 262.549 161.413 262.57Z" fill="#D6DFF5"/>
<path d="M78.0919 237.091C78.089 237.121 78.38 237.21 78.9531 237.327C79.6436 237.471 80.4676 237.628 81.452 237.831C83.6139 238.256 86.7468 238.869 90.6028 239.748C98.3059 241.446 108.873 244.194 120.382 247.726C131.888 251.288 142.169 254.952 149.528 257.846C153.211 259.263 156.162 260.487 158.209 261.32C159.146 261.699 159.924 262.016 160.573 262.276C161.122 262.481 161.411 262.585 161.431 262.542C161.449 262.513 161.18 262.352 160.666 262.09C160.036 261.788 159.279 261.412 158.379 260.963C156.39 260.014 153.463 258.688 149.804 257.183C142.506 254.131 132.237 250.348 120.688 246.767C109.151 243.217 98.5269 240.583 90.7629 239.044C86.8832 238.253 83.7251 237.743 81.538 237.42C80.5314 237.289 79.7014 237.192 79.0065 237.092C78.4082 237.078 78.1097 237.063 78.0919 237.091Z" fill="#D6DFF5"/>
<path d="M187.726 360.188C187.754 360.206 187.983 359.869 188.407 359.221C188.872 358.473 189.462 357.512 190.194 356.34C191.733 353.84 193.885 350.156 196.486 345.572C201.689 336.404 208.475 323.54 215.795 309.23C223.116 294.92 229.801 282.016 234.831 272.771C237.321 268.25 239.356 264.54 240.838 261.853C241.499 260.645 242.048 259.65 242.469 258.882C242.837 258.199 243.01 257.826 242.981 257.809C242.953 257.791 242.725 258.128 242.3 258.775C241.836 259.524 241.245 260.484 240.513 261.656C238.974 264.157 236.823 267.841 234.221 272.425C229.018 281.593 222.232 294.457 214.912 308.767C207.593 323.062 200.907 335.981 195.877 345.211C193.387 349.731 191.353 353.442 189.87 356.128C189.209 357.352 188.661 358.332 188.239 359.099C187.87 359.797 187.698 360.17 187.726 360.188Z" fill="#D6DFF5"/>
<path d="M78.7519 311.218C78.7341 311.246 79.1038 311.448 79.8344 311.79C80.6526 312.157 81.6994 312.636 83.0046 313.231C85.8749 314.522 89.8366 316.297 94.6892 318.46C104.549 322.892 118.092 329.176 133.036 336.155C147.98 343.133 161.577 349.333 171.529 353.594C176.505 355.725 180.535 357.416 183.347 358.537C184.675 359.059 185.757 359.482 186.595 359.805C187.346 360.09 187.738 360.219 187.756 360.191C187.774 360.163 187.404 359.961 186.673 359.618C185.855 359.252 184.808 358.772 183.503 358.177C180.633 356.886 176.671 355.112 171.818 352.948C161.959 348.516 148.415 342.232 133.471 335.254C118.527 328.275 104.929 322.09 94.9934 317.816C90.0175 315.685 85.9876 313.994 83.1753 312.873C81.8478 312.351 80.7653 311.928 79.9279 311.605C79.1617 311.318 78.7697 311.189 78.7519 311.218Z" fill="#D6DFF5"/>
<path d="M474.53 386.761C474.53 386.839 382.07 386.996 268.088 386.996C154.044 386.917 61.584 386.839 61.584 386.761C61.584 386.605 154.044 386.527 268.088 386.527C382.07 386.527 474.53 386.605 474.53 386.761Z" fill="#263238"/>
<path d="M379.103 181.603C379.103 181.603 392.88 173.214 395.978 175.681C400.46 179.239 401.947 185.252 401.947 185.252C401.947 185.252 409.221 157.459 416.165 158.516C420.148 159.119 418.197 162.234 416.404 166.133C414.747 169.759 411.921 183.047 411.921 183.047C411.921 183.047 425.085 167.406 428.954 167.69C431.95 167.906 432.381 170.543 428.069 174.772C423.768 179 416.619 192.323 416.619 192.323C416.619 192.323 425.845 183.718 429.647 183.661C432.688 183.627 434.651 185.741 430.713 189.151C426.787 192.573 420.829 195.13 417.663 201.326C413.748 208.953 405.408 227.948 405.408 227.948L376.21 217.592C376.21 217.592 371.455 198.188 371.273 193.482C371.273 193.482 371.671 183.525 371.614 181.751C371.557 179.978 376.255 179.523 377.674 182.933C379.103 186.332 378.457 189.913 379.035 192.175C379.614 194.437 380.647 196.54 382.292 197.552C383.949 198.563 388.148 198.632 389.226 197.381C390.304 196.131 391.597 192.482 391.881 190.243C392.165 188.003 391.802 184.457 391.802 184.457C391.802 184.457 379.694 189.39 379.103 181.603Z" fill="#F6AEA6"/>
<path d="M51.0951 272.11L30.8052 264.494C30.8052 264.494 10.1522 252.376 6.32803 256.684C6.32803 256.684 2.24283 254.729 0.42718 259.094C-0.628164 261.618 2.84426 265.29 2.84426 265.29C2.84426 265.29 1.76622 266.381 3.47974 270.098C5.19325 273.815 24.7909 285.523 24.7909 285.523C24.7909 285.523 50.278 299.448 60.5818 306.109L78.3638 281.886L75.89 280.965C75.89 280.965 74.4261 268.893 69.4898 265.676C64.1223 262.175 57.6427 252.695 56.2243 248.977C54.8058 245.26 47.9517 246.977 49.0979 254.684C50.2326 262.391 56.2243 264.392 55.6569 269.53C55.0895 274.69 51.0951 272.11 51.0951 272.11Z" fill="#F6AEA6"/>
<path d="M20.002 274.929C19.9226 275.077 15.9735 273.008 11.1734 270.314C6.37331 267.62 2.56046 265.324 2.63989 265.187C2.71933 265.04 6.66836 267.108 11.4685 269.802C16.2572 272.497 20.0814 274.793 20.002 274.929Z" fill="#251A51"/>
<path d="M29.8968 269.223C29.8628 269.291 28.4783 268.734 26.2542 267.768C24.0413 266.802 20.9888 265.415 17.6979 263.732C14.4071 262.05 11.5134 260.356 9.48212 259.026C8.47217 258.356 7.66647 257.799 7.13313 257.378C6.58843 256.969 6.30474 256.719 6.32744 256.685C6.38417 256.605 7.63243 257.435 9.70908 258.663C11.7857 259.89 14.7021 261.516 17.9703 263.198C21.2498 264.881 24.2569 266.324 26.4244 267.381C28.6145 268.45 29.9422 269.143 29.8968 269.223Z" fill="#251A51"/>
<path d="M34.1759 280.408C34.1532 280.442 33.5177 280.09 32.3829 279.431C31.1687 278.703 29.5573 277.737 27.6055 276.578L27.5488 276.543L27.5147 276.475C26.6182 274.531 25.5062 272.258 24.0763 269.871C23.3501 268.7 22.5557 267.438 21.5004 266.449C20.4451 265.472 18.7656 265.301 17.506 266.154C17.2336 266.302 16.9045 266.631 16.8705 266.734C16.9045 266.779 16.8932 266.79 16.9159 266.87L16.9953 267.12C17.0407 267.29 17.1088 267.461 17.1769 267.632C17.4265 268.314 17.6875 268.973 17.9485 269.632C18.4819 270.939 19.0039 272.213 19.5032 273.429C20.5131 275.839 21.4323 278.055 22.2493 279.988L22.2153 279.931C23.8834 281.886 25.2565 283.5 26.2892 284.717C26.7204 285.239 27.0835 285.683 27.3785 286.047C27.6168 286.353 27.7417 286.524 27.7303 286.535C27.719 286.547 27.5601 286.41 27.2878 286.126C26.97 285.785 26.5729 285.376 26.1076 284.876C25.0409 283.693 23.6111 282.125 21.8749 280.215L21.8522 280.192L21.8408 280.158C21.0011 278.26 20.0365 276.066 19.0039 273.633C18.4932 272.417 17.9712 271.144 17.4265 269.837C17.1655 269.177 16.8932 268.507 16.6435 267.813C16.5755 267.643 16.5187 267.472 16.462 267.291L16.3712 267.018C16.3372 266.915 16.3145 266.745 16.3145 266.608C16.4166 266.245 16.5868 266.177 16.723 266.006C16.8818 265.87 17.0407 265.745 17.2109 265.642C17.9372 265.176 18.7996 264.937 19.6507 265.017C20.5131 265.074 21.2848 265.483 21.8976 266.006C23.0664 267.109 23.838 268.37 24.5756 269.575C26.0055 272.008 27.0835 274.315 27.9459 276.293L27.8665 276.191C29.7729 277.43 31.3503 278.442 32.5418 279.215C33.5971 279.954 34.1986 280.374 34.1759 280.408Z" fill="#251A51"/>
<path d="M54.511 280.612C54.4883 280.692 53.5351 280.431 52.0145 279.999C50.4939 279.589 48.3832 278.998 46.0229 278.941C43.6625 278.885 41.5518 279.555 40.2355 280.362C38.9078 281.158 38.3177 281.976 38.2383 281.897C38.1929 281.874 38.6695 280.942 40.0085 280.01C41.3249 279.066 43.549 278.294 46.0229 278.35C48.4967 278.419 50.6414 279.089 52.128 279.601C53.6372 280.135 54.5337 280.533 54.511 280.612Z" fill="#251A51"/>
<path d="M52.9781 275.236C53.1142 275.338 52.6036 276.213 52.1156 277.35C51.6163 278.476 51.3099 279.442 51.1511 279.408C50.9922 279.385 51.0489 278.305 51.5823 277.111C52.1043 275.907 52.8646 275.145 52.9781 275.236Z" fill="#251A51"/>
<path d="M169.895 178.636C171.291 169.065 182.423 155.322 192.285 155.311C186.633 147.115 186.554 135.577 192.069 127.29C195.871 121.595 201.998 117.401 204.597 111.081C207.536 103.931 205.278 95.8599 205.562 88.1529C205.97 76.8765 211.826 66.5778 217.533 56.7792C222.753 47.8104 229.131 37.9777 239.401 35.7724C245.903 34.3742 252.644 36.4317 258.749 39.0348C287.969 51.5048 310.687 77.7746 318.483 108.102C320.344 115.366 321.604 123.221 326.654 128.825C331.999 134.77 341.372 137.987 342.983 145.762C344.129 151.332 340.566 156.936 341.1 162.609C341.553 167.349 350.416 181.183 352.47 185.502C355.988 192.948 354.717 200.985 351.131 208.407C347.545 215.819 338.41 223.048 330.308 225.06L239.752 194.835C231.23 199.689 222.742 218.49 212.96 219.638C203.179 220.798 191.241 225.06 181.833 214.739C171.972 203.963 168.5 188.219 169.895 178.636Z" fill="#251A51"/>
<path d="M314.386 88.4147C313.376 96.008 315.453 108.558 319.595 115.037C322.375 119.391 327.016 122.221 331.589 124.71C336.162 127.2 340.962 129.587 344.424 133.429C347.896 137.271 349.757 143.046 347.431 147.65C355.59 150.696 359.244 161.108 356.259 169.157C353.263 177.205 345.059 182.627 336.491 184.23L299.146 172.976L290.941 125.233L312.502 88.4033" fill="#251A51"/>
<path d="M324.645 137.089C324.656 137.078 324.906 137.18 325.371 137.407C325.836 137.657 326.563 137.93 327.414 138.464C329.15 139.465 331.533 141.204 333.961 143.932C335.198 145.273 336.333 146.933 337.445 148.786C338.467 150.684 339.511 152.776 340.169 155.152C341.621 159.824 341.939 165.507 340.271 171.089L340.135 170.748C342.279 171.952 344.356 173.51 346.217 175.374C350.983 180.114 353.707 186.275 354.365 192.027C355 197.836 353.616 203.099 351.687 206.998C349.746 210.942 347.34 213.614 345.548 215.262C344.64 216.069 343.902 216.671 343.369 217.035C342.847 217.41 342.563 217.592 342.552 217.581C342.54 217.569 342.79 217.342 343.289 216.944C343.8 216.558 344.504 215.932 345.377 215.103C347.102 213.42 349.428 210.726 351.29 206.816C353.139 202.94 354.456 197.768 353.797 192.084C353.128 186.446 350.45 180.421 345.774 175.783C343.959 173.964 341.928 172.43 339.828 171.248L339.624 171.134L339.692 170.907C341.338 165.462 341.054 159.903 339.658 155.299C339.023 152.969 338.024 150.889 337.037 149.013C335.959 147.183 334.858 145.535 333.655 144.194C331.306 141.465 328.98 139.703 327.289 138.646C326.472 138.089 325.757 137.782 325.314 137.498C324.872 137.248 324.634 137.1 324.645 137.089Z" fill="white"/>
<path d="M214.153 186.537C214.153 186.537 197.46 191.618 191.616 200.143C187.474 206.168 145.102 298.095 145.102 298.095L80.7823 278.725L57.7803 309.156L129.351 348.896C142.616 356.262 158.753 356.193 171.962 348.702C179.281 344.553 185.25 338.369 189.142 330.901L207.344 295.981L214.153 186.537Z" fill="#00B4FF"/>
<path d="M197.074 386.737L207.117 343.371L199.502 311.884C194.611 295.674 190.401 269.256 195.735 247.988L213.528 186.821L233.092 177.806L277.847 170.099C279.572 170.679 324.646 183.433 324.646 183.433C330.887 184.888 333.395 185.877 333.395 185.877L338.569 219.365L323.023 274.553L316.26 329.548L331.125 386.748H197.074V386.737Z" fill="#00B4FF"/>
<path d="M222.937 182.479L235.918 176.658L294.416 177.477L308.249 185.525C308.249 185.525 259.919 238.951 247.788 240.724C217.285 245.169 222.937 182.479 222.937 182.479Z" fill="#F6AEA6"/>
<path d="M332.112 185.411C332.112 185.411 340.873 187.389 348.385 203.44C355.897 219.49 368.04 264.164 368.04 264.164L373.226 216.819L415.519 221.48L407.337 334.618C407.337 334.618 392.369 356.364 367.336 354.352C342.303 352.34 310.518 273.076 310.518 273.076L332.112 185.411Z" fill="#00B4FF"/>
<path d="M361.447 321.967C361.436 321.967 361.436 321.876 361.436 321.694C361.447 321.478 361.458 321.216 361.47 320.887C361.515 320.136 361.572 319.102 361.651 317.806C361.81 315.135 362.128 311.27 362.57 306.496C363.455 296.959 365.067 283.818 367.041 269.347C369.016 254.865 370.695 241.748 371.683 232.233C372.182 227.47 372.556 223.617 372.795 220.957C372.92 219.661 373.022 218.638 373.09 217.888C373.124 217.569 373.158 217.308 373.181 217.092C373.203 216.91 373.226 216.819 373.237 216.819C373.249 216.819 373.249 216.91 373.249 217.092C373.237 217.308 373.226 217.569 373.215 217.899C373.169 218.649 373.112 219.684 373.033 220.98C372.874 223.651 372.556 227.516 372.114 232.29C371.229 241.827 369.617 254.968 367.643 269.45C365.668 283.92 363.989 297.038 363.002 306.564C362.502 311.327 362.128 315.18 361.889 317.852C361.765 319.147 361.663 320.171 361.594 320.921C361.56 321.239 361.526 321.501 361.504 321.716C361.47 321.876 361.458 321.967 361.447 321.967Z" fill="#251A51"/>
<path d="M145.828 322.501C145.794 322.512 145.624 322.216 145.363 321.659C145.091 321.102 144.75 320.273 144.376 319.215C143.627 317.124 142.855 314.123 142.526 310.735C142.197 307.348 142.39 304.256 142.719 302.062C142.878 300.96 143.059 300.084 143.218 299.482C143.377 298.879 143.479 298.55 143.513 298.561C143.604 298.584 143.354 299.925 143.139 302.119C142.923 304.302 142.798 307.348 143.116 310.69C143.445 314.021 144.137 316.987 144.773 319.09C145.408 321.193 145.919 322.466 145.828 322.501Z" fill="#251A51"/>
<path d="M152.943 323.557C152.909 323.58 152.648 323.284 152.194 322.716C151.74 322.148 151.127 321.295 150.424 320.204C149.017 318.033 147.326 314.839 146.021 311.099C144.727 307.347 144.069 303.79 143.831 301.209C143.706 299.913 143.649 298.868 143.661 298.14C143.661 297.412 143.683 297.015 143.717 297.015C143.819 297.015 143.888 298.606 144.239 301.152C144.591 303.699 145.295 307.188 146.577 310.894C147.871 314.588 149.482 317.771 150.787 319.977C152.092 322.193 153.023 323.5 152.943 323.557Z" fill="#251A51"/>
<path d="M203.009 222.468C203.032 222.48 202.953 222.787 202.794 223.389C202.612 224.037 202.374 224.901 202.068 225.992C201.409 228.3 200.502 231.551 199.367 235.529C197.165 243.589 194.113 254.785 192.649 267.46C191.923 273.792 191.775 279.884 192.399 285.363C192.978 290.854 194.192 295.696 195.384 299.698C196.575 303.699 197.71 306.893 198.493 309.098C198.867 310.167 199.162 311.008 199.389 311.645C199.594 312.224 199.684 312.543 199.662 312.543C199.639 312.554 199.514 312.258 199.276 311.679C199.026 311.054 198.697 310.224 198.277 309.178C197.438 306.995 196.246 303.824 194.986 299.811C193.738 295.81 192.479 290.945 191.866 285.42C191.196 279.896 191.332 273.746 192.07 267.392C193.545 254.66 196.677 243.452 198.981 235.416C200.15 231.392 201.16 228.163 201.863 225.924C202.215 224.855 202.487 223.991 202.692 223.355C202.885 222.764 202.998 222.468 203.009 222.468Z" fill="#251A51"/>
<path d="M321.288 297.015C321.276 297.015 321.231 296.924 321.129 296.742C321.027 296.526 320.891 296.242 320.732 295.901C320.38 295.117 319.881 294.025 319.256 292.65C318.632 291.229 317.827 289.501 316.976 287.478C316.159 285.42 315.228 283.09 314.195 280.521C313.197 277.929 312.232 275.042 311.131 271.973C310.643 270.416 310.156 268.801 309.634 267.142C309.384 266.312 309.123 265.471 308.862 264.607C308.624 263.743 308.408 262.868 308.17 261.981C306.263 254.888 304.652 246.931 304.175 238.439C303.653 229.971 304.459 221.775 306.615 214.727C308.635 207.623 312.187 201.791 315.988 197.722C319.778 193.607 323.716 191.231 326.542 189.969C327.972 189.344 329.106 188.935 329.889 188.73C330.252 188.628 330.548 188.548 330.786 188.48C330.99 188.423 331.092 188.401 331.092 188.412C331.092 188.423 330.99 188.469 330.797 188.537C330.57 188.617 330.275 188.719 329.923 188.844C329.152 189.083 328.028 189.537 326.633 190.185C323.864 191.504 319.994 193.914 316.283 198.017C312.573 202.087 309.1 207.85 307.126 214.898C305.015 221.9 304.232 230.005 304.754 238.428C305.231 246.863 306.819 254.797 308.692 261.867C308.919 262.754 309.146 263.629 309.373 264.493C309.634 265.346 309.883 266.187 310.133 267.017C310.632 268.676 311.12 270.291 311.597 271.848C312.675 274.917 313.605 277.816 314.581 280.407C315.58 282.988 316.476 285.33 317.271 287.387C318.088 289.433 318.859 291.161 319.449 292.593C320.028 293.991 320.493 295.094 320.822 295.89C320.959 296.242 321.072 296.526 321.163 296.754C321.265 296.913 321.288 297.015 321.288 297.015Z" fill="#251A51"/>
<g opacity="0.3">
<g opacity="0.3">
<path opacity="0.3" d="M305.162 245.771C299.635 271.973 299.556 298.925 309.077 323.944C309.633 325.399 311.812 330.56 313.366 330.628C315.329 330.73 316.26 328.275 316.6 326.331C317.304 322.341 317.724 315.782 318.427 311.792C319.301 306.802 320.493 295.242 320.493 295.242C320.493 295.242 315.92 284.761 313.911 279.134C310.178 268.699 307.023 258.741 305.287 246.59" fill="#FF725E"/>
</g>
</g>
<path d="M300.646 347.27C300.657 347.281 300.51 347.52 300.203 347.952C299.863 348.429 299.409 349.066 298.842 349.85C298.535 350.271 298.206 350.726 297.843 351.214C297.457 351.703 297.003 352.192 296.538 352.738C295.585 353.818 294.564 355.113 293.225 356.341C292.578 356.978 291.897 357.648 291.193 358.33C290.478 359.012 289.661 359.649 288.856 360.342C287.267 361.775 285.383 363.059 283.431 364.469C279.437 367.117 274.796 369.675 269.644 371.721C264.469 373.699 259.317 374.972 254.585 375.722C252.202 376.006 249.944 376.336 247.811 376.359C246.744 376.393 245.723 376.484 244.724 376.461C243.737 376.427 242.784 376.404 241.876 376.37C240.06 376.37 238.437 376.109 237.008 375.961C236.293 375.87 235.623 375.813 235.022 375.722C234.42 375.597 233.876 375.495 233.365 375.393C232.423 375.199 231.663 375.04 231.084 374.915C230.562 374.802 230.29 374.733 230.301 374.711C230.301 374.688 230.585 374.722 231.107 374.801C231.686 374.892 232.457 375.017 233.399 375.165C233.898 375.245 234.454 375.347 235.056 375.438C235.669 375.518 236.327 375.563 237.042 375.631C238.472 375.745 240.083 375.984 241.887 375.95C242.784 375.961 243.737 375.984 244.713 376.006C245.7 376.018 246.71 375.915 247.777 375.87C249.899 375.825 252.134 375.472 254.495 375.177C259.193 374.392 264.288 373.119 269.417 371.153C274.523 369.118 279.131 366.606 283.114 363.991C285.054 362.604 286.938 361.343 288.527 359.944C289.332 359.262 290.161 358.649 290.876 357.967C291.591 357.285 292.271 356.637 292.918 356.011C294.269 354.806 295.301 353.533 296.266 352.488C296.742 351.953 297.208 351.476 297.594 350.998C297.968 350.521 298.308 350.078 298.626 349.668C299.228 348.907 299.704 348.304 300.067 347.838C300.453 347.475 300.635 347.259 300.646 347.27Z" fill="#251A51"/>
<path d="M291.42 329.935C291.465 329.946 291.408 330.378 291.272 331.174C291.147 331.97 290.886 333.107 290.478 334.493C289.684 337.256 288.174 340.984 285.78 344.69C283.374 348.396 280.594 351.294 278.404 353.158C277.303 354.091 276.384 354.795 275.703 355.239C275.034 355.682 274.659 355.921 274.636 355.887C274.58 355.796 276.021 354.773 278.12 352.851C280.22 350.93 282.909 348.02 285.281 344.383C287.641 340.734 289.184 337.085 290.081 334.38C290.977 331.663 291.318 329.912 291.42 329.935Z" fill="#251A51"/>
<path d="M270.823 28.5542C286.653 28.6679 302.143 37.6139 310.166 51.3001C318.189 64.9864 318.427 82.8898 310.801 96.792C308.202 101.532 304.458 106.022 299.317 107.671C301.065 80.4913 290.25 52.7438 270.573 33.9423" fill="#FFF000"/>
<path d="M289.355 32.6575C287.006 27.7582 289.525 21.6312 293.712 18.187C297.899 14.7427 303.369 13.3445 308.646 12.0827C313.922 10.821 319.392 9.51372 323.67 6.18311C323.057 14.6972 320.935 23.4614 315.443 29.9748C309.939 36.4997 300.407 40.1258 292.555 36.8179" fill="#FFF000"/>
<path d="M294.802 38.2732C291.193 39.7964 286.881 38.8415 283.658 36.6249C280.424 34.4083 278.109 31.0891 276.214 27.6561C273.888 23.4389 272.049 18.8806 271.437 14.095C270.824 9.30934 271.459 4.285 273.831 0.0791016C280.038 6.70623 286.881 12.2762 290.433 20.6425C292.521 25.5532 292.271 33.4421 290.024 38.2845" fill="#FFF000"/>
<path d="M312.39 65.8276C312.435 65.8162 312.538 66.3846 312.696 67.4076C312.787 67.9191 312.878 68.5443 312.935 69.2832C313.003 70.0221 313.105 70.8519 313.116 71.784C313.218 73.6369 313.184 75.8535 313.003 78.3088C312.787 80.7528 312.39 83.4355 311.755 86.1977C311.085 88.96 310.234 91.529 309.326 93.8025C308.384 96.0759 307.42 98.0652 306.501 99.6793C306.069 100.498 305.604 101.203 305.218 101.828C304.832 102.453 304.469 102.976 304.163 103.396C303.561 104.238 303.21 104.692 303.176 104.67C303.142 104.647 303.425 104.147 303.97 103.271C304.242 102.839 304.583 102.305 304.935 101.657C305.286 101.021 305.729 100.305 306.137 99.4861C307.011 97.8606 307.93 95.8713 308.827 93.6092C309.701 91.3358 310.529 88.7895 311.187 86.0613C311.823 83.3332 312.22 80.6846 312.469 78.2634C312.685 75.8421 312.753 73.6483 312.708 71.8068C312.719 70.886 312.64 70.0562 312.617 69.3173C312.594 68.5898 312.538 67.9532 312.481 67.4417C312.39 66.4073 312.356 65.8389 312.39 65.8276Z" fill="#251A51"/>
<path d="M308.849 35.3515C308.872 35.3856 308.43 35.738 307.59 36.3518C306.682 36.852 305.332 37.5795 303.493 37.9432C299.839 38.773 294.574 38.6025 289.002 37.1134L288.832 37.0679L288.798 36.8974C288.718 36.5564 288.639 36.1927 288.56 35.8289C287.958 32.8734 287.822 29.9747 288.185 27.3716C288.514 24.7685 289.411 22.5064 290.568 20.8923C291.68 19.2213 293.042 18.3005 293.938 17.6753C294.914 17.1525 295.448 16.8796 295.47 16.9137C295.493 16.9478 294.982 17.2889 294.075 17.8686C293.235 18.5393 291.953 19.4941 290.931 21.131C289.865 22.7224 289.036 24.9163 288.741 27.4512C288.412 29.9747 288.571 32.8279 289.15 35.7152C289.229 36.079 289.309 36.4314 289.388 36.7724L289.184 36.5564C294.642 38.0228 299.851 38.2615 303.425 37.5567C305.241 37.2498 306.569 36.6019 307.499 36.1699C308.339 35.6129 308.827 35.3174 308.849 35.3515Z" fill="#251A51"/>
<path d="M313.502 20.6196C313.513 20.7333 311.845 20.9606 309.235 21.7336C307.93 22.1087 306.421 22.6657 304.775 23.3932C303.153 24.1435 301.405 25.0642 299.669 26.1896C297.944 27.3377 296.412 28.5653 295.073 29.7589C293.757 30.9752 292.644 32.146 291.782 33.1918C290.034 35.272 289.149 36.7157 289.059 36.6589C289.024 36.6361 289.217 36.261 289.615 35.6017C289.989 34.931 290.625 34.0103 291.464 32.9304C292.304 31.8391 293.405 30.6228 294.71 29.3611C296.037 28.122 297.592 26.8489 299.351 25.6894C301.11 24.5413 302.892 23.6206 304.56 22.8931C306.239 22.1883 307.794 21.6654 309.121 21.3358C310.449 20.9947 311.539 20.7901 312.31 20.7106C313.071 20.6082 313.49 20.5741 313.502 20.6196Z" fill="#251A51"/>
<path d="M294.563 38.1368C294.586 38.1368 294.563 38.2618 294.518 38.4778C294.484 38.7052 294.381 39.0121 294.211 39.4213C293.882 40.217 293.19 41.2969 291.964 42.2631C290.75 43.1952 288.957 44.0137 286.869 43.9114C284.77 43.8432 282.602 42.57 281.252 40.6035C279.902 38.6256 279.504 36.1475 280.197 34.1583C280.855 32.169 282.262 30.7822 283.578 29.9865C284.917 29.1907 286.177 28.9407 287.039 28.9179C287.471 28.9066 287.8 28.9293 288.027 28.9748C288.254 29.0089 288.367 29.0316 288.356 29.0543C288.356 29.1112 287.879 29.0543 287.051 29.1453C286.234 29.2362 285.042 29.5431 283.794 30.3388C282.58 31.1346 281.286 32.4759 280.719 34.3174C280.117 36.1475 280.492 38.421 281.74 40.2625C283 42.0926 284.985 43.2748 286.903 43.3658C288.832 43.4908 290.535 42.7747 291.715 41.9221C292.906 41.0468 293.621 40.0465 294.007 39.319C294.393 38.5801 294.495 38.1141 294.563 38.1368Z" fill="#251A51"/>
<path d="M280.798 38.4209C280.741 38.4778 280.401 37.8071 280.945 36.9204C281.195 36.4998 281.671 36.0793 282.296 35.8633C282.908 35.6359 283.623 35.6018 284.327 35.6473C287.164 35.8519 289.218 36.9545 289.138 37.0796C289.07 37.2387 286.982 36.4203 284.281 36.227C282.942 36.0906 281.785 36.443 281.286 37.1478C280.764 37.8071 280.888 38.4096 280.798 38.4209Z" fill="#251A51"/>
<path d="M273.83 0.0790993C273.944 0.124568 272.582 1.73872 272.094 4.9443C271.833 6.52435 271.799 8.44542 271.821 10.5825C271.844 12.7195 271.946 15.0726 272.423 17.4597C273.501 22.2339 275.453 26.3375 277.268 28.9634C278.188 30.282 279.005 31.3164 279.583 32.0098C280.162 32.7032 280.514 33.0556 280.491 33.0897C280.423 33.1693 278.88 31.8393 276.939 29.2135C274.987 26.5876 272.956 22.4727 271.855 17.5734C271.356 15.118 271.277 12.7195 271.288 10.5711C271.288 8.42269 271.368 6.46751 271.685 4.85336C271.992 3.23921 272.514 1.9888 272.979 1.20446C273.444 0.431485 273.807 0.0563648 273.83 0.0790993Z" fill="#251A51"/>
<path d="M279.708 13.5604C279.765 13.5149 280.412 14.2311 281.308 15.5042C282.205 16.7773 283.328 18.6075 284.327 20.7673C285.314 22.927 285.961 24.9959 286.324 26.5077C286.687 28.0196 286.789 28.9744 286.71 28.9972C286.528 29.0426 285.756 25.2801 283.793 21.0173C281.83 16.7546 279.549 13.6741 279.708 13.5604Z" fill="#251A51"/>
<path d="M277.791 20.6423C277.915 20.54 279.822 22.4724 282.33 24.7232C284.826 26.9853 286.823 28.8609 286.71 28.9859C286.608 29.0996 284.44 27.4286 281.933 25.1551C279.402 22.9044 277.654 20.756 277.791 20.6423Z" fill="#251A51"/>
<path d="M307.488 47.3213C307.488 47.3327 307.431 47.3781 307.329 47.4804C307.17 47.6169 307 47.7533 306.83 47.901C306.398 48.2762 305.74 48.765 304.889 49.3447C303.21 50.4928 300.713 51.8569 297.74 52.8344C294.778 53.8007 291.953 54.1871 289.921 54.2667C288.9 54.3122 288.072 54.3008 287.504 54.2553C287.277 54.244 287.062 54.2212 286.846 54.2099C286.699 54.1985 286.619 54.1871 286.619 54.1758C286.619 54.1644 286.699 54.1644 286.846 54.1644C287.05 54.1644 287.266 54.1644 287.504 54.1644C288.072 54.1758 288.889 54.1644 289.91 54.0962C291.93 53.9825 294.721 53.5733 297.661 52.6071C300.6 51.6295 303.085 50.3109 304.787 49.1969C305.638 48.6399 306.308 48.1739 306.761 47.8215C306.943 47.6851 307.125 47.56 307.283 47.435C307.408 47.3554 307.476 47.3099 307.488 47.3213Z" fill="#FAFAFA"/>
<path d="M314.172 61.0759C314.172 61.0873 314.116 61.1328 314.002 61.2351C313.843 61.3715 313.673 61.5079 313.503 61.6557C313.06 62.0194 312.402 62.5196 311.562 63.0879C309.872 64.236 307.398 65.6229 304.459 66.6914C301.52 67.7485 298.728 68.2714 296.697 68.4647C295.687 68.567 294.858 68.6124 294.28 68.6011C294.053 68.6011 293.837 68.6011 293.622 68.6011C293.474 68.6011 293.395 68.5897 293.395 68.5897C293.395 68.5783 293.474 68.567 293.622 68.5556C293.826 68.5442 294.041 68.5329 294.28 68.5101C294.847 68.4874 295.664 68.4192 296.674 68.2942C298.694 68.0555 301.463 67.5212 304.379 66.4754C307.296 65.4182 309.769 64.0655 311.472 62.9515C312.323 62.3945 313.003 61.9285 313.457 61.5875C313.639 61.4511 313.821 61.326 313.991 61.201C314.093 61.11 314.161 61.0646 314.172 61.0759Z" fill="#FAFAFA"/>
<path d="M312.311 81.1388C312.322 81.1502 312.152 81.2752 311.834 81.4912C311.516 81.7072 311.04 82.0027 310.438 82.3324C309.235 82.9917 307.476 83.7647 305.445 84.3103C303.402 84.8445 301.496 85.0264 300.123 85.0378C299.431 85.0492 298.875 85.0264 298.5 84.9923C298.114 84.9582 297.91 84.9355 297.91 84.9241C297.91 84.9128 298.126 84.9014 298.512 84.9014C298.897 84.9128 299.453 84.9014 300.134 84.8673C301.496 84.8104 303.38 84.6058 305.4 84.0716C307.42 83.5373 309.156 82.7984 310.37 82.1846C310.983 81.8777 311.471 81.6049 311.8 81.4116C312.118 81.2297 312.299 81.1274 312.311 81.1388Z" fill="#FAFAFA"/>
<path d="M316.158 78.0698C316.17 78.138 315.489 78.3199 314.626 78.4904C313.764 78.6609 313.06 78.7405 313.049 78.6723C313.038 78.604 313.718 78.4222 314.581 78.2517C315.443 78.0925 316.147 78.0016 316.158 78.0698Z" fill="#FAFAFA"/>
<path d="M304.901 101.658C304.912 101.714 303.744 101.896 302.314 101.783C300.873 101.68 299.749 101.339 299.772 101.271C299.783 101.203 300.918 101.442 302.336 101.544C303.744 101.669 304.901 101.589 304.901 101.658Z" fill="#FAFAFA"/>
<path d="M283.363 42.2176C283.397 42.2745 282.716 42.7064 281.854 43.1838C280.991 43.6613 280.254 44.0023 280.231 43.9454C280.208 43.8886 280.878 43.4566 281.74 42.9792C282.603 42.5018 283.34 42.1608 283.363 42.2176Z" fill="#FAFAFA"/>
<path d="M277.734 30.293C277.768 30.3612 276.1 30.8614 274.387 32.1004C272.662 33.3167 271.652 34.7262 271.584 34.6694C271.561 34.658 271.788 34.2829 272.23 33.7487C272.684 33.2144 273.377 32.5324 274.239 31.9072C275.113 31.2933 275.987 30.8614 276.633 30.6113C277.303 30.3498 277.723 30.2589 277.734 30.293Z" fill="#FAFAFA"/>
<path d="M287.958 43.5019C287.878 43.4905 288.275 41.9559 288.014 40.0576C287.776 38.1592 287.004 36.7724 287.084 36.7383C287.107 36.727 287.334 37.0452 287.595 37.6363C287.856 38.2161 288.128 39.0573 288.253 40.0348C288.378 41.0011 288.321 41.8877 288.219 42.5129C288.117 43.1381 287.98 43.5132 287.958 43.5019Z" fill="#FAFAFA"/>
<path d="M323.068 6.43335C323.068 6.43335 322.671 6.94488 321.82 7.76332C320.98 8.58177 319.664 9.66166 317.894 10.787C316.124 11.9124 313.899 13.0491 311.369 14.1631C308.838 15.2885 306.013 16.3911 303.142 17.7665C300.282 19.1533 297.661 20.7334 295.618 22.5749C293.576 24.4164 292.1 26.4625 291.204 28.3381C290.307 30.2137 289.956 31.8961 289.853 33.0555C289.751 34.215 289.831 34.8629 289.797 34.8629C289.797 34.8629 289.774 34.7038 289.763 34.3969C289.729 34.09 289.74 33.6353 289.763 33.0442C289.831 31.8733 290.16 30.1796 291.056 28.2585C291.953 26.3602 293.417 24.2686 295.482 22.4044C297.536 20.5288 300.18 18.9374 303.051 17.5392C305.933 16.1524 308.77 15.0498 311.289 13.9471C313.82 12.8445 316.044 11.7305 317.814 10.6279C319.585 9.52525 320.912 8.46809 321.763 7.67238C322.195 7.27453 322.524 6.95624 322.728 6.74027C322.944 6.53566 323.068 6.43335 323.068 6.43335Z" fill="#FAFAFA"/>
<path d="M319.993 19.9148C320.005 19.9148 319.948 20.0057 319.846 20.1762C319.698 20.3922 319.551 20.6309 319.369 20.8924C318.961 21.5176 318.325 22.3815 317.497 23.4159C315.84 25.4961 313.31 28.1902 310.098 30.6796C306.887 33.1691 303.653 34.9651 301.236 36.0563C300.021 36.602 299.034 37.0112 298.331 37.2499C298.036 37.3522 297.775 37.4432 297.525 37.5341C297.343 37.5909 297.241 37.625 297.241 37.6137C297.241 37.6023 297.332 37.5568 297.514 37.4886C297.752 37.3863 298.013 37.284 298.308 37.1703C299 36.8975 299.987 36.4769 301.179 35.9086C303.573 34.7832 306.773 32.9758 309.962 30.4977C313.151 28.0083 315.693 25.3597 317.372 23.3136C318.212 22.2906 318.87 21.4494 319.301 20.8355C319.483 20.5855 319.653 20.3581 319.812 20.1535C319.925 19.9944 319.993 19.9148 319.993 19.9148Z" fill="#FAFAFA"/>
<path d="M272.627 3.94409C272.627 3.94409 274.023 4.47835 276.065 5.76286C278.108 7.04736 280.729 9.17304 283.022 12.0603C285.314 14.959 286.778 18.0054 287.561 20.2902C288.344 22.5751 288.548 24.0642 288.548 24.0642C288.537 24.0642 288.514 23.9732 288.457 23.8027C288.389 23.564 288.332 23.3253 288.253 23.0525C288.094 22.4046 287.81 21.4724 287.39 20.3471C286.573 18.0964 285.098 15.0954 282.829 12.2081C280.548 9.34355 277.972 7.2065 275.963 5.89926C274.965 5.23996 274.125 4.75117 273.523 4.44425C273.274 4.30784 273.058 4.19417 272.843 4.0805C272.706 4.00093 272.627 3.95546 272.627 3.94409Z" fill="#FAFAFA"/>
<path d="M215.719 46.6968C216.161 52.7214 212.19 58.0982 208.184 62.6223C204.178 67.1465 199.73 71.8526 198.867 77.8318C197.335 88.4261 207.696 98.2702 205.551 108.762C204.405 114.389 199.809 118.902 198.992 124.585C198.198 130.076 201.137 135.453 204.779 139.636C208.422 143.819 212.643 143.205 215.866 147.718C219.259 152.469 224.729 157.357 229.847 160.165C241.455 166.531 255.379 157.323 260.985 155.664" fill="#251A51"/>
<path d="M303.494 71.3863C308.839 69.0561 309.259 49.8453 295.846 47.6287C290.467 46.7421 285.973 44.1049 281.446 41.0584C277.44 38.353 276.248 31.4985 272.855 28.0543C264.537 19.597 251.533 16.0959 240.106 19.2219C228.667 22.3479 219.248 31.976 216.366 43.491C214.414 51.2776 215.742 60.4738 221.87 65.6459C228.973 71.6478 239.516 70.3178 248.616 68.4422C257.729 66.578 268.033 64.7365 275.636 70.0905C280.22 73.3188 282.853 78.5818 285.656 83.4357C288.459 88.3009 291.976 93.2684 297.276 95.0871C297.276 95.0871 301.316 104.59 298.013 111.206C294.723 117.822 301.883 106.545 301.883 106.545C301.883 106.545 314.956 83.2652 303.494 71.3863Z" fill="#251A51"/>
<path d="M235.498 206.179C235.419 193.641 235.498 158.437 235.498 158.494C235.498 158.494 215.617 155.14 211.554 129.132C209.534 116.196 210.227 95.0073 211.361 77.6836C212.383 62.0877 222.732 42.9793 238.244 44.6616L286.654 57.0292C291.363 57.5408 294.904 61.5762 294.802 66.3163L291.851 186.753L235.498 206.179Z" fill="#F6AEA6"/>
<path d="M220.656 92.5408C220.588 94.3028 221.337 95.7805 222.335 95.8373C223.334 95.9056 224.207 94.5301 224.287 92.7682C224.355 91.0063 223.606 89.5285 222.607 89.4717C221.609 89.4035 220.735 90.7789 220.656 92.5408Z" fill="#251A51"/>
<path d="M215.923 88.7211C216.332 89.153 218.862 87.2888 222.437 87.3115C226.012 87.2774 228.644 89.1303 229.03 88.687C229.223 88.4937 228.803 87.7094 227.657 86.8682C226.534 86.0384 224.616 85.22 222.38 85.2313C220.145 85.2427 218.272 86.0611 217.194 86.9023C216.094 87.7435 215.719 88.5278 215.923 88.7211Z" fill="#251A51"/>
<path d="M251.123 94.4388C251.531 94.8708 254.062 93.0066 257.648 93.0293C261.222 92.9952 263.855 94.8481 264.241 94.4047C264.434 94.2115 264.014 93.4272 262.868 92.586C261.744 91.7562 259.826 90.9377 257.591 90.9491C255.355 90.9605 253.483 91.7789 252.405 92.6201C251.304 93.4613 250.918 94.2456 251.123 94.4388Z" fill="#251A51"/>
<path d="M250.988 86.1754C251.351 86.6528 254.075 85.0955 257.627 85.5161C261.19 85.8912 263.584 88.0283 264.015 87.6418C264.231 87.4713 263.902 86.6415 262.858 85.6752C261.837 84.7204 260.021 83.6973 257.808 83.4473C255.595 83.1972 253.632 83.7996 252.463 84.5158C251.283 85.2205 250.818 85.9594 250.988 86.1754Z" fill="#251A51"/>
<path d="M238.072 116.048C238.095 115.843 235.86 115.457 232.262 114.979C231.343 114.877 230.481 114.695 230.333 114.07C230.118 113.411 230.503 112.422 230.946 111.353C231.808 109.137 232.716 106.818 233.669 104.385C237.448 94.4614 240.183 86.2997 239.786 86.1519C239.389 86.0042 235.996 93.9272 232.217 103.851C231.309 106.295 230.435 108.625 229.607 110.864C229.255 111.91 228.665 113.081 229.119 114.456C229.369 115.139 230.038 115.639 230.617 115.798C231.207 115.98 231.718 115.991 232.172 116.014C235.803 116.23 238.05 116.253 238.072 116.048Z" fill="#251A51"/>
<path d="M235.496 158.494C235.496 158.494 252.949 159.665 270.277 149.287C269.982 149.343 257.17 161.734 235.496 160.381V158.494Z" fill="#251A51"/>
<path d="M239.106 126.404C238.675 124.199 241.273 123.482 243.18 122.289C245.086 121.107 246.187 119.527 247.969 120.891C248.99 121.664 249.716 122.789 250.17 123.983C250.477 124.79 250.669 125.665 250.522 126.517C250.34 127.552 249.682 128.45 248.922 129.177C247.844 130.2 246.493 130.973 245.03 131.212C243.566 131.462 241.988 131.144 240.82 130.223C239.651 129.302 238.97 127.757 239.22 126.29" fill="#EA785E"/>
<path d="M248.605 118.549C248.026 118.515 248.004 122.403 244.667 125.165C241.342 127.927 237.2 127.484 237.166 128.03C237.11 128.268 238.086 128.791 239.833 128.837C241.547 128.905 244.055 128.348 246.097 126.665C248.128 124.972 249.014 122.721 249.15 121.118C249.297 119.493 248.866 118.526 248.605 118.549Z" fill="#251A51"/>
<path d="M297.639 144C290.501 145.444 289.865 141.807 284.532 136.839C279.198 131.872 276.441 124.267 277.36 117.037C278.166 110.649 281.604 104.158 279.391 98.1107C276.475 90.1195 265.286 87.6642 262.324 79.6844C260.599 75.0465 262.143 69.6357 260.191 65.0888C258.352 60.8147 253.87 58.3593 249.501 56.7793C245.132 55.1992 240.457 54.108 236.792 51.2548C233.126 48.4016 230.845 43.0135 233.206 39.0122C252.565 41.3311 271.652 45.9804 289.911 52.8121C294.143 54.3921 298.592 56.3018 301.1 60.0758C303.744 64.0657 303.619 69.2265 303.403 74.0121C302.314 97.3491 301.224 120.698 300.146 144.035" fill="#251A51"/>
<path d="M314.172 135.271C314.184 135.282 314.286 135.168 314.456 134.952C314.615 134.714 314.91 134.395 315.171 133.918C315.761 132.974 316.465 131.463 316.885 129.371C317.304 127.302 317.338 124.608 316.465 121.698C315.659 118.788 313.628 115.673 310.428 113.559C307.352 111.388 303.335 109.865 300.793 106.409C299.522 104.715 298.989 102.521 299.386 100.305C299.738 98.0769 300.748 95.883 301.644 93.564C303.63 88.9035 303.653 83.0834 301.315 78.0477C300.135 75.5355 298.388 73.2052 296.05 71.5001C293.724 69.7382 290.887 68.8288 288.095 68.1923C285.281 67.5443 282.478 67.1806 279.879 66.3962C277.281 65.6233 274.807 64.4524 273.003 62.6223C271.153 60.8149 270.37 58.3141 270.018 55.8019C269.666 53.2897 269.473 50.6753 268.793 48.2427C267.522 43.3661 265.048 39.0465 261.791 35.9433C258.534 32.8173 254.54 31.0326 250.761 30.4642C246.971 29.8731 243.408 30.5779 240.73 31.9875C238.017 33.3743 236.134 35.284 234.931 37.0232C233.728 38.7851 233.161 40.3538 232.9 41.4337C232.627 42.5136 232.65 43.1047 232.65 43.1047C232.82 43.1729 232.854 40.6607 235.294 37.2846C236.519 35.6364 238.392 33.8403 241.025 32.5672C243.623 31.2713 247.028 30.6575 250.647 31.2713C254.245 31.8624 258.058 33.6243 261.144 36.6367C264.242 39.6376 266.591 43.7981 267.783 48.5155C268.429 50.8685 268.588 53.358 268.94 55.9724C269.281 58.5414 270.143 61.3946 272.208 63.418C274.206 65.4527 276.861 66.6804 279.562 67.4875C282.285 68.3173 285.099 68.6811 287.857 69.3176C290.592 69.9428 293.258 70.8067 295.403 72.4209C297.571 74.0009 299.216 76.1721 300.328 78.5251C302.541 83.288 302.564 88.7216 300.691 93.2003C299.829 95.4851 298.796 97.7358 298.422 100.168C297.99 102.59 298.637 105.159 300.056 106.977C302.893 110.706 307.012 112.161 309.996 114.241C313.106 116.23 315.024 119.118 315.886 121.903C316.782 124.676 316.816 127.279 316.476 129.314C315.738 133.406 314.002 135.202 314.172 135.271Z" fill="white"/>
<path d="M280.413 109.444C274.535 122.993 273.446 138.567 277.383 152.798C278.564 157.05 280.175 161.46 279.176 165.757C278.087 170.406 274.206 173.771 271.38 177.613C266.501 184.229 264.606 192.959 266.285 201.007C267.976 209.055 273.219 216.285 280.334 220.377C281.083 216.103 285.054 213.193 288.969 211.329C292.884 209.464 297.208 208.089 300.204 204.952C303.188 201.803 304.039 196.04 300.567 193.448C310.553 190.833 316.216 178.943 314.116 168.815C312.017 158.687 303.79 150.684 294.439 146.296" fill="#251A51"/>
<path d="M291.057 210.385C289.275 211.363 287.539 212.238 287.312 214.273C287.051 216.648 289.332 220.832 290.149 223.082C291.749 227.481 290.546 232.779 287.187 236.041C283.84 239.315 278.517 240.372 274.171 238.656C277.371 238.906 280.083 235.78 280.367 232.574C280.651 229.38 279.108 226.288 277.201 223.708C275.295 221.127 272.991 218.831 271.368 216.057C268.078 210.408 263.198 195.051 266.954 186.446" fill="#251A51"/>
<path d="M300.147 193.846C300.135 193.834 300.351 193.652 300.759 193.323C301.179 193.005 301.781 192.516 302.541 191.879C304.05 190.595 306.195 188.651 308.374 185.832C310.53 183.035 312.743 179.33 313.9 174.783C315.035 170.27 315.114 164.893 313.163 159.858C312.187 157.345 310.745 155.117 309.055 153.219C307.387 151.298 305.56 149.616 303.857 147.99C302.144 146.365 300.532 144.785 299.205 143.136C297.866 141.488 296.856 139.772 296.152 138.112C294.7 134.781 294.643 131.701 295.154 129.757C295.415 128.779 295.732 128.063 296.005 127.609C296.277 127.154 296.425 126.927 296.447 126.938C296.527 126.972 295.834 127.893 295.381 129.814C294.949 131.735 295.074 134.713 296.538 137.953C297.242 139.567 298.263 141.238 299.591 142.841C300.918 144.444 302.53 146.001 304.243 147.615C305.957 149.229 307.795 150.912 309.497 152.867C311.222 154.799 312.72 157.095 313.719 159.676C315.727 164.859 315.614 170.361 314.422 174.953C313.208 179.591 310.927 183.331 308.692 186.127C306.445 188.935 304.243 190.856 302.677 192.095C301.894 192.709 301.259 193.164 300.816 193.459C300.385 193.721 300.158 193.857 300.147 193.846Z" fill="white"/>
</svg>
