<svg width="343" height="260" viewBox="0 0 343 260" fill="none" xmlns="http://www.w3.org/2000/svg">
<path d="M211.119 240.573C178.201 219.264 169.67 178.192 169.849 141.053C169.874 134.844 169 128.341 171.817 122.82C174.648 117.3 181.501 113.387 187.198 115.838C191.924 117.869 194.11 123.165 196.855 127.517C200.502 133.311 205.811 138.032 211.99 140.966C216.044 142.895 221.023 144 224.907 141.736C230.232 138.627 230.66 131.239 230.434 125.076C230.022 113.602 229.609 102.115 229.197 90.6413C228.971 84.4783 228.771 78.1892 230.534 72.292C232.297 66.3948 236.428 60.828 242.317 59.0258C248.206 57.2096 255.647 60.3773 257.087 66.3694C257.681 68.8639 257.243 71.4847 257.488 74.04C257.734 76.5953 259.031 79.3876 261.515 80.0239C264.027 80.6739 266.476 78.8499 268.282 76.993C274.54 70.5855 278.677 62.4459 282.52 54.3523C286.378 46.2586 290.093 37.9991 295.743 31.0408C301.392 24.0825 309.311 18.4767 318.235 17.7226C327.173 16.9404 336.851 22.1181 339.376 30.7098C341.902 39.3293 337.022 48.2903 331.641 55.4825C323.667 66.1506 314.125 75.6662 303.442 83.6178C301.518 85.0569 299.429 86.6102 298.734 88.913C297.506 93.0549 301.56 97.025 305.716 98.2532C310.419 99.6415 315.444 99.0259 320.33 99.4469C325.216 99.8679 330.556 101.835 332.521 106.323C335.265 112.549 330.116 119.304 325.005 123.78C314.742 132.747 302.944 139.931 290.276 144.932C285.729 146.729 280.941 148.32 277.338 151.615C273.735 154.909 271.66 160.503 274.027 164.776C276.394 169.064 282.171 170.283 286.967 169.265C291.749 168.248 295.975 165.546 300.508 163.707C308.989 160.26 320.094 160.524 325.801 167.687C329.558 172.388 330.072 179.079 328.419 184.862C326.766 190.646 323.201 195.688 319.407 200.355C306.129 216.676 288.908 230.004 269.212 237.383C249.489 244.762 231.108 247.145 211.119 240.573Z" fill="#FFF000"/>
<path d="M213.484 241.178C218.463 222.303 232.214 177.843 240.478 156.908C242.559 151.691 244.625 146.517 246.666 141.427C248.706 136.351 250.719 131.317 253.015 126.517C257.536 116.89 262.64 107.982 267.74 99.6747C272.838 91.3538 277.988 83.6475 282.865 76.4763C287.756 69.3049 292.432 62.7098 296.951 56.8859C305.959 45.1966 314.34 36.6201 320.343 30.9572C323.338 28.1189 325.727 25.9881 327.371 24.5669C328.172 23.8845 328.794 23.3445 329.236 22.9608C329.664 22.6053 329.9 22.4342 329.9 22.4342C329.9 22.4342 329.707 22.6466 329.307 23.0297C328.865 23.4414 328.272 23.995 327.499 24.7049C325.897 26.1815 323.551 28.3396 320.599 31.2193C314.681 36.9509 306.398 45.568 297.473 57.2841C292.997 63.1214 288.35 69.7301 283.5 76.9148C278.651 84.1136 273.53 91.8195 268.459 100.14C263.388 108.446 258.325 117.34 253.817 126.925C251.549 131.711 249.55 136.702 247.51 141.792C245.484 146.882 243.416 152.043 241.336 157.259C233.072 178.18 219.32 222.584 214.298 241.405" fill="#96800E"/>
<path d="M253.237 126.43C253.167 126.445 252.944 125.511 252.585 123.81C252.226 122.109 251.772 119.641 251.254 116.586C250.203 110.477 249.05 101.992 247.786 92.6273C246.523 83.263 245.216 74.822 244.04 68.7423C243.466 65.7022 242.971 63.2483 242.598 61.5617C242.238 59.8749 242.071 58.9264 242.127 58.9117C242.183 58.8969 242.475 59.8156 242.946 61.4869C243.431 63.158 244.024 65.5965 244.682 68.6215C246.025 74.6849 247.444 83.1382 248.708 92.5165C249.942 101.797 251.066 110.199 251.909 116.493C252.328 119.423 252.684 121.865 252.962 123.749C253.196 125.466 253.293 126.415 253.237 126.43Z" fill="#96800E"/>
<path d="M333.059 109.303C333.059 109.331 332.781 109.391 332.236 109.454C331.58 109.533 330.798 109.614 329.863 109.725C327.811 109.95 324.837 110.271 321.167 110.784C313.84 111.753 303.755 113.474 292.728 115.852C281.702 118.257 271.811 120.857 264.71 122.969C261.159 123.998 258.305 124.905 256.328 125.52C255.423 125.798 254.672 126.032 254.045 126.223C253.516 126.37 253.237 126.444 253.223 126.402C253.208 126.374 253.472 126.245 253.973 126.042C254.585 125.81 255.322 125.52 256.198 125.172C258.131 124.446 260.969 123.441 264.505 122.329C271.562 120.063 281.452 117.352 292.52 114.932C303.574 112.54 313.703 110.93 321.074 110.114C324.759 109.685 327.748 109.461 329.816 109.334C330.766 109.293 331.548 109.268 332.205 109.231C332.765 109.265 333.045 109.275 333.059 109.303Z" fill="#96800E"/>
<path d="M220.87 215.46C220.842 215.474 220.656 215.141 220.311 214.503C219.937 213.767 219.463 212.823 218.873 211.67C217.637 209.213 215.922 205.602 213.86 201.114C209.735 192.139 204.428 179.588 198.738 165.643C193.048 151.699 187.838 139.118 183.881 130.085C181.917 125.666 180.315 122.039 179.145 119.413C178.625 118.232 178.192 117.259 177.86 116.509C177.571 115.842 177.44 115.48 177.468 115.466C177.496 115.451 177.682 115.784 178.027 116.423C178.401 117.158 178.875 118.102 179.465 119.255C180.702 121.712 182.416 125.324 184.478 129.811C188.603 138.786 193.91 151.337 199.6 165.282C205.29 179.212 210.5 191.807 214.457 200.826C216.421 205.245 218.023 208.872 219.193 211.498C219.713 212.693 220.146 213.652 220.478 214.402C220.767 215.084 220.898 215.445 220.87 215.46Z" fill="#96800E"/>
<path d="M326.518 178.452C326.533 178.48 326.171 178.639 325.462 178.901C324.669 179.177 323.653 179.541 322.387 179.992C319.605 180.968 315.764 182.308 311.061 183.94C301.502 187.29 288.356 192.074 273.847 197.394C259.338 202.715 246.149 207.416 236.518 210.599C231.702 212.19 227.805 213.447 225.09 214.268C223.809 214.649 222.765 214.958 221.957 215.193C221.233 215.399 220.856 215.488 220.842 215.46C220.828 215.432 221.189 215.273 221.898 215.012C222.692 214.735 223.707 214.371 224.973 213.92C227.756 212.944 231.596 211.604 236.299 209.972C245.858 206.623 259.004 201.839 273.513 196.518C288.022 191.197 301.212 186.511 310.829 183.314C315.644 181.723 319.542 180.465 322.257 179.644C323.538 179.263 324.582 178.955 325.39 178.72C326.128 178.514 326.504 178.425 326.518 178.452Z" fill="#96800E"/>
<path d="M110.958 244.39C140.048 228.907 150.135 195.13 152.647 164.021C153.071 158.82 154.269 153.438 152.306 148.614C150.332 143.788 144.875 140.021 139.929 141.665C135.826 143.027 133.616 147.305 131.006 150.752C127.537 155.341 122.753 158.914 117.369 160.927C113.837 162.252 109.588 162.82 106.499 160.646C102.263 157.662 102.434 151.445 103.065 146.301C104.233 136.724 105.402 127.135 106.569 117.558C107.2 112.414 107.819 107.162 106.765 102.098C105.712 97.034 102.652 92.0769 97.8503 90.1458C93.0497 88.2029 86.5924 90.3218 84.9571 95.2358C84.2808 97.2818 84.4602 99.5076 84.0715 101.63C83.6828 103.751 82.3963 105.996 80.271 106.351C78.1213 106.715 76.2012 105.013 74.8225 103.328C70.0418 97.5148 67.1617 90.4031 64.5236 83.3509C61.8738 76.2976 59.3549 69.1157 55.1236 62.8846C50.8923 56.6536 44.6634 51.3922 37.2455 50.1211C29.8182 48.8255 21.3436 52.467 18.6134 59.4797C15.8809 66.5158 19.3247 74.3685 23.314 80.7761C29.2261 90.28 36.5339 98.9314 44.9086 106.355C46.4158 107.698 48.0541 109.148 48.4708 111.126C49.2024 114.682 45.5231 117.715 41.9553 118.446C37.9177 119.271 33.7544 118.396 29.6336 118.398C25.5127 118.4 20.9 119.664 18.9334 123.282C16.1899 128.297 20.0166 134.323 23.975 138.437C31.9255 146.68 41.2891 153.541 51.5372 158.636C55.2155 160.467 59.11 162.143 61.8908 165.159C64.6716 168.176 66.008 173.008 63.7199 176.417C61.4307 179.837 56.5057 180.444 52.5633 179.248C48.6327 178.053 45.2873 175.487 41.6242 173.623C34.7703 170.129 25.4529 169.554 20.1609 175.142C16.6782 178.809 15.769 184.374 16.7383 189.336C17.7076 194.297 20.331 198.773 23.1729 202.953C33.1208 217.571 46.5845 229.965 62.5464 237.555C78.5316 245.147 93.7512 248.459 110.958 244.39Z" fill="#ECF1FE"/>
<path d="M108.761 244.785C105.945 228.623 97.6178 190.412 92.199 172.291C90.8312 167.774 89.4716 163.293 88.1283 158.885C86.7839 154.489 85.4593 150.13 83.8812 145.946C80.7856 137.561 77.1501 129.737 73.4761 122.416C69.8033 115.084 66.0442 108.262 62.4745 101.908C58.8932 95.553 55.4511 89.6959 52.0852 84.4957C45.3802 74.0626 38.9776 66.2808 34.3573 61.109C32.0536 58.5179 30.206 56.5626 28.9313 55.2548C28.3092 54.626 27.8275 54.1293 27.4848 53.7763C27.1516 53.4479 26.9668 53.2878 26.9668 53.2878C26.9668 53.2878 27.113 53.4795 27.4206 53.8289C27.7608 54.2053 28.2181 54.7114 28.8145 55.3612C30.0493 56.7123 31.8596 58.6875 34.1247 61.3102C38.669 66.5334 44.9863 74.3421 51.6188 84.7916C54.9485 90 58.366 95.8665 61.9111 102.23C65.4551 108.605 69.1909 115.424 72.8403 122.754C76.4908 130.073 80.0924 137.882 83.1798 146.23C84.7358 150.4 86.0521 154.723 87.3954 159.131C88.7269 163.538 90.0877 168.007 91.4556 172.524C96.8755 190.633 105.207 228.798 108.063 244.916" fill="#D6DFF5"/>
<path d="M83.7011 145.857C83.7584 145.875 84.0119 145.109 84.4347 143.711C84.8575 142.313 85.4146 140.278 86.0674 137.758C87.3847 132.717 88.9587 125.696 90.688 117.946C92.4172 110.196 94.1163 103.222 95.5365 98.2156C96.2349 95.7113 96.8259 93.6922 97.2593 92.3067C97.6809 90.9201 97.8888 90.138 97.8432 90.1216C97.7976 90.1053 97.4868 90.8536 96.9728 92.2191C96.4471 93.5836 95.7754 95.5828 95.0081 98.0684C93.4487 103.049 91.655 110.025 89.9245 117.787C88.2256 125.469 86.682 132.423 85.5249 137.633C84.9644 140.056 84.4915 142.075 84.1237 143.633C83.8049 145.053 83.6555 145.841 83.7011 145.857Z" fill="#D6DFF5"/>
<path d="M18.0947 125.796C18.0923 125.819 18.3215 125.889 18.7728 125.981C19.3164 126.095 19.9652 126.218 20.7404 126.378C22.4426 126.713 24.9094 127.195 27.9456 127.888C34.011 129.225 42.3317 131.389 51.3937 134.17C60.4534 136.974 68.5486 139.86 74.3431 142.138C77.2426 143.253 79.5669 144.217 81.178 144.874C81.9158 145.172 82.5284 145.422 83.0394 145.626C83.4719 145.787 83.6999 145.869 83.7151 145.835C83.7291 145.813 83.5175 145.686 83.113 145.48C82.6172 145.242 82.0209 144.946 81.3124 144.592C79.7457 143.845 77.4412 142.801 74.5604 141.616C68.8138 139.213 60.7279 136.234 51.6343 133.415C42.5501 130.619 34.185 128.546 28.0717 127.334C25.0168 126.71 22.5302 126.309 20.8081 126.054C20.0154 125.952 19.3619 125.875 18.8148 125.797C18.3437 125.785 18.1087 125.773 18.0947 125.796Z" fill="#D6DFF5"/>
<path d="M104.42 222.721C104.442 222.735 104.622 222.47 104.956 221.96C105.322 221.371 105.787 220.614 106.363 219.692C107.575 217.723 109.269 214.822 111.318 211.212C115.414 203.994 120.758 193.865 126.522 182.597C132.285 171.329 137.549 161.169 141.51 153.889C143.471 150.33 145.073 147.408 146.24 145.293C146.76 144.342 147.193 143.558 147.524 142.954C147.814 142.416 147.95 142.122 147.927 142.108C147.905 142.094 147.725 142.36 147.391 142.87C147.025 143.459 146.56 144.215 145.984 145.138C144.772 147.107 143.078 150.008 141.03 153.617C136.933 160.836 131.59 170.965 125.826 182.233C120.063 193.489 114.798 203.661 110.838 210.929C108.878 214.488 107.276 217.41 106.108 219.525C105.587 220.488 105.156 221.26 104.824 221.864C104.533 222.414 104.398 222.707 104.42 222.721Z" fill="#D6DFF5"/>
<path d="M18.6143 184.162C18.6003 184.185 18.8914 184.344 19.4667 184.613C20.1109 184.902 20.9352 185.279 21.9629 185.748C24.2229 186.764 27.3423 188.162 31.1632 189.865C38.9266 193.355 49.5908 198.303 61.3576 203.798C73.1244 209.293 83.8306 214.174 91.6665 217.529C95.5844 219.207 98.7576 220.539 100.972 221.421C102.017 221.832 102.87 222.165 103.529 222.42C104.121 222.644 104.429 222.746 104.443 222.724C104.457 222.701 104.166 222.542 103.591 222.273C102.947 221.984 102.122 221.607 101.095 221.138C98.8346 220.122 95.7152 218.724 91.8943 217.021C84.1309 213.531 73.4667 208.583 61.6999 203.088C49.9332 197.593 39.2257 192.724 31.4027 189.358C27.4848 187.68 24.3116 186.348 22.0972 185.466C21.052 185.055 20.1997 184.722 19.5403 184.467C18.937 184.242 18.6283 184.14 18.6143 184.162Z" fill="#D6DFF5"/>
<path d="M330.247 243.645C330.247 243.706 257.444 243.829 167.696 243.829C77.898 243.768 5.0957 243.706 5.0957 243.645C5.0957 243.522 77.898 243.46 167.696 243.46C257.444 243.46 330.247 243.522 330.247 243.645Z" fill="#263238"/>
<path d="M175.466 6.79504C174.162 3.92744 170.773 1.97226 167.645 2.49364C164.126 -0.634653 158.26 -0.764999 154.61 2.1026C151.873 0.277765 148.224 0.0170742 145.356 1.45087C142.488 2.88468 140.403 5.88262 140.012 9.14126C136.753 8.48953 133.234 10.0537 131.539 12.9213C129.845 15.7889 130.236 19.6992 132.452 22.0455C128.932 22.9579 126.325 26.8682 126.977 30.6483C127.629 34.2979 131.279 37.1655 134.928 37.0352L173.641 15.7889C175.987 13.4427 176.769 9.66264 175.466 6.79504Z" fill="#C8CFE1"/>
<path d="M133.754 37.8172C135.97 21.2633 150.438 9.14117 167.253 9.92324L168.947 10.0536C186.805 12.0088 195.147 28.302 192.67 46.0289L187.065 105.597L186.805 108.464L145.094 114.721L145.876 99.4706C145.876 99.4706 128.801 95.9513 129.453 78.7457C129.713 70.4036 131.799 53.3283 133.754 37.8172Z" fill="#FFBE9D"/>
<path d="M145.746 99.4706C145.746 99.4706 156.695 100.644 168.686 93.9961C168.686 93.9961 162.821 106.118 145.615 103.772L145.746 99.4706Z" fill="#EB996E"/>
<path d="M137.533 54.6319C137.403 55.9353 138.446 57.1084 139.749 57.2388C141.053 57.3691 142.226 56.4567 142.356 55.1532C142.487 53.8498 141.444 52.6767 140.14 52.5463C138.837 52.416 137.664 53.3284 137.533 54.6319Z" fill="#263238"/>
<path d="M137.013 46.42C137.274 46.811 139.229 45.5076 141.836 45.6379C144.443 45.7682 146.398 47.202 146.658 46.9414C146.789 46.811 146.528 46.1593 145.746 45.5076C144.964 44.8558 143.53 44.2041 141.966 44.0737C140.272 43.9434 138.838 44.5951 138.056 45.1165C137.143 45.7682 136.883 46.2896 137.013 46.42Z" fill="#263238"/>
<path d="M160.866 56.1958C160.736 57.4993 161.779 58.6724 163.082 58.8027C164.386 58.9331 165.559 58.0206 165.689 56.7172C165.82 55.4137 164.777 54.2406 163.473 54.1103C162.17 53.9799 160.997 54.8924 160.866 56.1958Z" fill="#263238"/>
<path d="M163.082 48.2447C163.343 48.6357 165.298 47.3323 167.905 47.4626C170.512 47.5929 172.467 49.0267 172.728 48.7661C172.858 48.6357 172.597 47.984 171.815 47.3323C171.033 46.6805 169.6 46.0288 168.035 45.8985C166.341 45.7681 164.907 46.4198 164.125 46.9412C163.213 47.5929 162.952 48.1143 163.082 48.2447Z" fill="#263238"/>
<path d="M152.393 67.4058C152.393 67.2754 150.829 66.8844 148.092 66.363C147.44 66.2327 146.788 66.1023 146.658 65.5809C146.527 65.0596 146.788 64.4078 147.179 63.6258C147.831 62.0616 148.613 60.3671 149.395 58.5423C152.523 51.3733 154.87 45.3774 154.609 45.2471C154.348 45.1167 151.481 50.8519 148.352 58.0209C147.57 59.8457 146.918 61.5402 146.136 63.1044C145.876 63.8865 145.354 64.6685 145.615 65.7113C145.745 66.2327 146.267 66.6237 146.658 66.7541C147.049 66.8844 147.44 66.8844 147.831 67.0148C150.829 67.5361 152.393 67.5361 152.393 67.4058Z" fill="#263238"/>
<path d="M160.215 69.6218C159.824 69.6218 159.693 72.4894 157.086 74.3143C154.479 76.2694 151.481 75.7481 151.481 76.1391C151.481 76.2694 152.133 76.7908 153.437 76.7908C154.74 76.9212 156.565 76.5301 158.129 75.357C159.693 74.1839 160.475 72.4894 160.606 71.3163C160.606 70.4039 160.345 69.6218 160.215 69.6218Z" fill="#263238"/>
<path d="M162.821 37.8174C163.082 38.5995 165.689 38.3388 168.817 38.8602C171.945 39.3816 174.422 40.4244 174.813 39.7726C175.074 39.5119 174.552 38.7299 173.64 38.0781C172.728 37.2961 171.163 36.6443 169.208 36.2533C167.383 35.9926 165.689 36.123 164.516 36.514C163.343 37.0354 162.821 37.5568 162.821 37.8174Z" fill="#C8CFE1"/>
<path d="M138.446 38.8598C138.837 39.5116 140.793 38.9902 142.878 38.9902C145.094 38.9902 146.919 39.6419 147.31 38.9902C147.571 38.7295 147.31 38.0778 146.528 37.426C145.746 36.7743 144.442 36.2529 142.878 36.2529C141.314 36.2529 140.011 36.644 139.228 37.2957C138.446 37.9474 138.186 38.5991 138.446 38.8598Z" fill="#C8CFE1"/>
<path d="M135.84 29.9965C135.84 29.9965 140.923 19.4385 146.267 17.2226C152.654 14.4853 155.131 21.524 161.127 20.2205C167.253 18.7867 173.379 16.1798 179.245 21.133C185.762 26.6075 182.373 29.9965 182.373 37.5565C182.503 68.5787 187.717 77.7029 190.063 63.1042C190.324 61.5401 194.756 60.4973 195.799 53.7193C197.102 44.9862 198.014 34.4282 196.32 28.0413C194.886 22.6971 192.149 18.9171 186.935 14.746C178.854 7.96807 167.123 7.31634 159.302 7.70738C151.481 8.22876 135.709 16.4405 135.84 29.9965Z" fill="#C8CFE1"/>
<path d="M189.02 62.7132C189.28 60.1063 191.627 58.0208 194.234 58.4118C197.492 58.9332 200.881 60.8884 200.36 67.536C199.447 79.2671 187.847 75.8781 187.847 75.6174C187.977 75.3567 188.629 67.536 189.02 62.7132Z" fill="#FFBE9D"/>
<path d="M190.846 71.3161C190.846 71.3161 190.976 71.4465 191.367 71.7071C191.628 71.8375 192.279 72.0982 192.931 71.8375C194.235 71.4465 195.408 69.6216 195.668 67.5361C195.799 66.4933 195.668 65.4506 195.277 64.5381C195.017 63.6257 194.495 62.974 193.844 62.8436C193.192 62.7133 192.801 62.974 192.54 63.365C192.41 63.6257 192.41 63.8864 192.41 63.8864C192.41 63.8864 192.149 63.6257 192.279 63.2347C192.41 62.974 192.54 62.7133 192.801 62.583C193.062 62.3223 193.583 62.3223 193.974 62.3223C194.886 62.4526 195.668 63.365 195.929 64.2774C196.32 65.1899 196.451 66.363 196.32 67.6664C196.06 70.0127 194.626 72.0982 192.931 72.4892C192.149 72.6196 191.367 72.3589 191.106 71.9678C190.846 71.5768 190.846 71.3161 190.846 71.3161Z" fill="#EB996E"/>
<path d="M189.935 39.7724C188.37 40.6848 186.676 41.7276 184.851 41.858C183.026 41.9883 180.941 40.8152 180.68 38.9904C180.55 38.2083 180.81 37.1655 180.289 36.5138C179.637 35.7317 178.464 35.8621 177.552 35.9924C174.163 36.1227 170.774 33.6462 169.992 30.2572C169.079 31.5607 166.994 31.3 165.69 30.3875C164.387 29.4751 163.605 28.0413 162.692 26.7379C161.78 25.5648 160.346 24.3917 158.782 24.522C157.87 24.6523 157.088 25.0434 156.175 24.913C154.611 24.6523 153.959 22.8275 153.829 21.2634C153.699 19.6992 153.568 17.8744 152.265 16.962C151.092 16.1799 149.528 16.4406 148.094 16.7013C146.66 16.8316 144.835 16.4406 144.574 15.0068C144.444 14.2247 144.835 13.573 145.226 12.9212C147.181 10.184 151.222 9.01088 154.35 10.4447C155.654 6.66466 159.434 3.79706 163.605 3.53637C167.646 3.27568 171.686 5.75224 173.511 9.40192C176.118 7.31639 179.768 6.53432 183.026 7.44674C186.285 8.35916 189.022 10.9661 190.065 14.0944C192.933 13.4426 196.191 14.7461 197.886 17.2226C199.58 19.6992 199.711 23.0882 198.146 25.5648C200.232 26.8682 201.926 29.0841 201.796 31.5607C201.666 34.0372 199.189 36.2531 196.843 35.6014C197.755 37.5565 196.843 40.0331 194.888 41.0759C192.933 41.9883 190.456 41.3366 189.283 39.5117" fill="#C8CFE1"/>
<path d="M197.755 35.6016C197.755 35.6016 197.885 36.6443 196.973 37.8174C196.452 38.3388 195.67 38.9905 194.496 39.1209C193.454 39.2512 192.15 38.8602 191.238 37.9478H191.759C191.107 38.9905 190.325 39.903 189.283 40.8154C188.631 41.3368 187.849 41.8581 187.067 41.9885C186.285 42.2492 185.372 42.2492 184.721 42.1188C183.287 41.8581 181.983 41.0761 181.462 40.0333C180.94 38.9905 180.68 38.0781 180.68 37.5567C180.549 36.905 180.549 36.6443 180.68 36.6443C180.68 36.6443 180.81 36.905 180.94 37.5567C181.071 38.0781 181.332 38.9905 181.853 39.903C182.896 41.5975 186.415 42.6402 188.892 40.4243C189.804 39.6423 190.716 38.7299 191.238 37.8174L191.498 37.4264L191.759 37.6871C192.541 38.4692 193.584 38.8602 194.496 38.7299C195.409 38.7299 196.191 38.2085 196.712 37.6871C197.625 36.514 197.625 35.6016 197.755 35.6016Z" fill="white"/>
<path d="M176.769 7.57718C176.769 7.57718 176.508 7.70752 175.857 7.83787C175.335 8.09856 174.553 8.4896 173.901 9.27167L173.771 9.53236L173.641 9.27167C172.598 7.70752 170.904 5.75234 168.166 4.31854C166.863 3.66681 165.299 3.14543 163.604 3.01509C161.91 2.88474 160.085 3.27578 158.521 4.1882C157.217 4.83992 156.175 5.75234 155.392 6.7951C154.61 7.83787 154.089 9.14132 153.959 10.3144V10.7055L153.568 10.5751C151.873 10.0537 150.048 10.3144 148.614 10.9662C147.181 11.6179 146.268 12.6607 145.747 13.7034C144.704 15.7889 144.965 17.2227 144.834 17.0924C144.834 17.0924 144.704 16.7014 144.704 16.18C144.704 15.5283 144.834 14.6158 145.356 13.5731C145.877 12.5303 146.79 11.3572 148.223 10.5751C149.657 9.79305 151.612 9.53236 153.568 10.0537L153.437 10.4448C153.568 9.14132 154.219 7.83787 155.001 6.66476C155.914 5.49165 156.957 4.57923 158.26 3.79716C159.955 2.88474 161.91 2.4937 163.735 2.62405C165.559 2.75439 167.124 3.27578 168.557 4.05785C171.295 5.49165 173.119 7.70752 174.032 9.27167H173.771C174.423 8.35925 175.335 7.96822 175.857 7.83787C176.508 7.57718 176.769 7.57718 176.769 7.57718Z" fill="white"/>
<path d="M164.126 71.5767C163.995 71.5767 163.865 70.2733 162.953 69.2305C162.04 68.0574 160.867 67.9271 160.867 67.6664C160.867 67.536 161.258 67.536 161.78 67.6664C162.301 67.7967 162.953 68.1877 163.604 68.8395C164.126 69.4912 164.387 70.2733 164.387 70.7947C164.387 71.1857 164.256 71.5767 164.126 71.5767Z" fill="#EB996E"/>
<path d="M165.298 68.3178C165.168 68.4482 164.777 67.9268 164.125 67.6661C163.474 67.2751 162.952 67.2751 162.952 67.0144C162.952 66.884 163.734 66.6234 164.516 67.0144C165.298 67.5358 165.559 68.3178 165.298 68.3178Z" fill="#EB996E"/>
<path d="M178.072 96.603C178.072 96.603 178.202 96.4727 178.463 96.3423C178.593 96.0816 178.724 95.6906 178.593 95.2996C178.463 94.9085 177.941 94.3871 177.55 93.6051C177.42 93.214 177.42 92.6926 177.681 92.1713C177.941 91.7802 178.333 91.5195 178.463 91.2589C179.375 90.0857 176.768 89.1733 177.159 87.7395C177.29 87.0878 177.55 86.6968 177.811 86.5664C178.072 86.4361 178.333 86.3057 178.333 86.4361C178.463 86.5664 177.681 86.8271 177.681 87.8699C177.681 88.3913 177.942 88.7823 178.463 89.3037C178.724 89.5644 178.984 89.8251 179.245 90.3464C179.506 90.7375 179.375 91.5195 178.984 91.7802C178.724 92.1713 178.333 92.432 178.202 92.6927C178.072 92.9533 178.072 93.214 178.202 93.4747C178.333 93.9961 178.854 94.5175 179.115 95.1692C179.375 95.8209 179.115 96.3423 178.724 96.603C178.202 96.7334 178.072 96.603 178.072 96.603Z" fill="#EB996E"/>
<path d="M181.722 96.2121C181.722 96.2121 181.722 96.0818 181.592 95.8211C181.461 95.5604 181.331 95.1693 180.94 94.7783C180.81 94.5176 180.549 94.2569 180.419 93.9962C180.288 93.7355 180.158 93.2142 180.288 92.8231C180.549 92.0411 181.201 91.5197 181.592 90.8679C181.983 90.3466 181.722 89.6948 181.201 89.1735C180.94 88.9128 180.81 88.6521 180.549 88.261C180.419 87.87 180.419 87.6093 180.419 87.3486C180.549 86.1755 181.461 85.7845 181.461 85.9148C181.592 86.0452 180.94 86.4362 180.94 87.3486C180.94 87.87 181.201 88.261 181.722 88.7824C181.983 89.0431 182.244 89.3038 182.374 89.8252C182.504 90.2162 182.374 90.8679 182.244 91.259C181.722 92.0411 181.07 92.4321 180.94 92.9535C180.81 93.4749 181.07 93.9962 181.331 94.5176C181.592 94.9087 181.722 95.43 181.853 95.6907C181.853 96.0818 181.722 96.2121 181.722 96.2121Z" fill="#EB996E"/>
<path d="M210.66 191.364L226.301 206.485L221.217 177.678L252.891 167.642C252.891 167.642 261.364 207.136 262.798 216.521C265.405 233.336 262.146 257.189 246.505 258.883C229.56 260.708 216.786 244.024 208.704 233.075C202.578 224.603 192.411 209.874 192.411 209.874L210.66 191.364Z" fill="#C8CFE1"/>
<path d="M89.8296 165.686C84.7461 181.719 77.5771 184.195 74.8398 230.077C74.3185 239.071 76.2737 250.932 84.7461 253.93C94.131 257.189 108.599 251.323 113.161 243.503V211.829L89.8296 165.686Z" fill="#C8CFE1"/>
<path d="M110.816 232.814C110.685 232.814 109.773 229.555 107.687 226.036C105.602 222.517 103.256 220.04 103.386 220.04C103.386 220.04 104.038 220.562 105.081 221.474C105.993 222.517 107.166 223.951 108.209 225.775C109.252 227.6 110.034 229.295 110.425 230.598C110.685 231.902 110.816 232.814 110.816 232.814Z" fill="#263238"/>
<path d="M82.1396 184.196C82.4003 183.283 98.0418 140.66 103.125 131.275C108.991 120.066 121.634 115.243 129.325 114.722C137.145 114.2 220.567 120.848 220.567 120.848C220.567 120.848 243.898 126.713 248.721 147.829C254.717 174.42 259.41 200.489 259.41 200.489L217.569 209.483L212.615 197.1L134.017 214.697L114.856 186.412L82.1396 184.196Z" fill="#C8CFE1"/>
<path d="M226.172 123.324L193.586 108.986L189.936 94.9087L151.875 112.896L143.924 104.033L140.535 113.939L132.193 116.676L115.769 149.132L112.771 224.081L113.032 243.503L225.52 244.285L224.608 212.35L226.172 123.324Z" fill="#C8CFE1"/>
<path d="M189.934 94.9089C189.934 94.9089 185.633 96.082 174.814 101.948C164.126 107.683 152.004 112.897 152.004 112.897L152.916 130.102L193.454 109.768" fill="#C8CFE1"/>
<path d="M143.924 104.033L151.875 112.896L147.574 131.275L140.535 114.591" fill="#C8CFE1"/>
<g opacity="0.3">
<g opacity="0.3">
<g opacity="0.3">
<path opacity="0.3" d="M151.746 114.721C151.355 114.982 149.139 135.968 149.139 135.968L189.676 111.463L152.658 129.972L151.746 114.721Z" fill="black"/>
</g>
</g>
</g>
<path d="M152.135 243.763C152.135 243.763 151.353 212.611 152.005 193.059C152.657 177.026 150.05 135.968 150.05 135.968L144.706 135.055C144.706 135.055 134.799 174.941 131.15 223.69C129.716 243.503 129.716 243.503 129.716 243.503" fill="#FF725E"/>
<path d="M216.524 161.124C216.524 161.124 216.655 161.646 216.915 162.819C217.176 163.992 217.437 165.556 217.698 167.381C218.349 171.291 219.262 176.635 220.304 182.501C221.347 188.366 222.26 193.711 222.781 197.621C223.042 199.576 223.302 201.14 223.433 202.183C223.563 203.226 223.693 203.878 223.563 203.878C223.563 203.878 223.433 203.356 223.172 202.183C222.911 201.01 222.651 199.446 222.39 197.621C221.738 193.711 220.826 188.366 219.783 182.631C218.74 176.766 217.958 171.422 217.306 167.511C217.046 165.686 216.785 164.122 216.655 162.949C216.524 161.776 216.524 161.124 216.524 161.124Z" fill="#263238"/>
<path d="M228.647 125.801C228.647 125.931 227.604 126.844 225.909 128.538C224.215 130.233 222.26 132.839 220.435 135.968C218.74 139.096 217.698 142.224 217.306 144.571C216.785 146.917 216.655 148.351 216.524 148.351C216.524 148.351 216.524 147.96 216.524 147.308C216.524 146.656 216.655 145.613 216.915 144.44C217.306 142.094 218.219 138.835 220.044 135.707C221.738 132.448 223.954 129.972 225.649 128.277C226.561 127.495 227.213 126.844 227.864 126.453C228.256 125.931 228.516 125.801 228.647 125.801Z" fill="#263238"/>
<path d="M152.005 121.108L148.355 119.675L144.966 125.54L144.314 135.186L149.137 135.968L152.787 130.102L152.005 121.108Z" fill="#FF725E"/>
<path d="M112.77 243.503C112.914 243.503 113.031 222.552 113.031 196.709C113.031 170.865 112.914 149.915 112.77 149.915C112.626 149.915 112.51 170.865 112.51 196.709C112.51 222.552 112.626 243.503 112.77 243.503Z" fill="#263238"/>
<path d="M152.266 112.766C152.397 112.766 151.484 114.069 150.181 116.285C148.877 118.501 147.183 121.499 145.619 124.888C145.488 125.149 145.358 125.41 145.228 125.67L144.967 126.192L144.706 125.67C143.142 122.412 141.969 119.283 141.317 117.067C140.926 115.894 140.665 114.982 140.535 114.46C140.405 113.809 140.274 113.418 140.274 113.418C140.405 113.418 140.796 114.721 141.578 116.937C142.36 119.153 143.533 122.151 145.097 125.409H144.576C144.706 125.149 144.837 124.888 144.967 124.627C146.661 121.108 148.356 118.11 149.79 116.025C150.441 114.982 151.093 114.2 151.484 113.548C152.006 113.027 152.136 112.636 152.266 112.766Z" fill="#263238"/>
<path d="M193.585 108.986C193.585 108.986 193.455 109.116 193.064 109.377C192.673 109.638 192.151 109.898 191.369 110.289C189.935 111.071 187.85 112.114 185.373 113.418C180.29 116.025 173.251 119.805 165.561 123.976C160.868 126.452 156.437 128.798 152.526 130.754L152.135 130.884V130.493C152.135 125.409 152.005 121.238 152.005 118.11C152.005 116.676 152.005 115.503 152.005 114.591C152.005 113.809 152.005 113.418 152.005 113.418C152.005 113.418 152.005 113.809 152.135 114.591C152.135 115.503 152.266 116.676 152.266 118.11C152.396 121.238 152.396 125.409 152.526 130.493L152.135 130.232C156.046 128.277 160.477 125.931 165.17 123.454C172.86 119.283 179.899 115.634 185.113 113.027C187.72 111.723 189.805 110.68 191.239 110.029C191.891 109.768 192.542 109.507 192.933 109.247C193.324 108.986 193.585 108.856 193.585 108.986Z" fill="#263238"/>
<path d="M117.725 122.151C117.856 122.151 117.204 123.324 116.292 125.149C115.51 126.973 114.467 129.58 113.945 132.578C113.424 135.576 113.294 138.444 113.424 140.399C113.554 142.354 113.685 143.658 113.685 143.658C113.685 143.658 113.554 143.397 113.424 142.745C113.294 142.224 113.163 141.442 113.033 140.399C112.772 138.313 112.772 135.576 113.424 132.448C113.945 129.32 114.988 126.713 115.901 124.888C116.422 123.975 116.813 123.324 117.074 122.802C117.465 122.411 117.595 122.151 117.725 122.151Z" fill="#263238"/>
<path d="M148.251 136.582C148.328 136.46 147.551 135.832 146.516 135.179C145.482 134.525 144.58 134.094 144.503 134.216C144.427 134.338 145.203 134.966 146.238 135.62C147.273 136.273 148.174 136.704 148.251 136.582Z" fill="#263238"/>
<path d="M150.056 134.316C150.188 134.258 149.309 131.967 148.093 129.198C146.877 126.43 145.785 124.233 145.653 124.291C145.521 124.349 146.4 126.64 147.616 129.408C148.832 132.176 149.925 134.373 150.056 134.316Z" fill="#263238"/>
<g opacity="0.3">
<g opacity="0.3">
<g opacity="0.3">
<g opacity="0.3">
<path opacity="0.3" d="M172.859 220.04C172.598 219.128 172.337 218.215 171.555 217.694C170.252 216.782 168.557 217.955 167.123 218.737C163.474 220.953 159.042 220.822 154.741 220.692C141.967 220.171 129.323 219.128 116.81 217.042C110.684 216 104.427 214.696 98.9526 211.698C93.4781 208.7 88.6553 204.008 86.9608 198.012L83.9629 196.448C86.1788 201.271 86.0484 215.087 86.8305 220.301C87.6126 225.645 89.9588 229.425 95.0423 230.989C97.1278 231.641 99.3437 231.511 101.429 231.38C122.415 230.338 143.531 231.25 164.386 230.207C167.384 230.077 170.773 229.686 172.467 227.079C174.032 225.254 173.51 222.517 172.859 220.04Z" fill="black"/>
</g>
</g>
</g>
</g>
<path d="M251.587 232.032C251.587 232.032 251.587 231.902 251.457 231.772C251.327 231.641 251.196 231.381 251.066 230.99C250.936 230.599 250.675 230.208 250.414 229.817C250.154 229.426 249.762 228.904 249.371 228.252C247.807 225.906 245.07 222.908 241.29 219.389C237.51 215.87 232.687 211.959 227.343 207.527C224.606 205.312 221.738 202.965 218.871 200.228C216.003 197.621 213.135 194.754 210.398 191.495H210.789C205.706 196.839 200.231 202.574 194.496 208.57C193.714 209.352 193.062 210.134 192.28 210.786V210.395C198.406 219.389 204.011 228.122 209.877 235.421C212.744 239.071 215.742 242.33 218.74 245.328C221.608 248.326 224.475 250.933 227.343 253.018C232.948 257.319 238.683 259.144 242.593 259.014C243.115 259.014 243.506 259.014 244.027 259.014C244.418 259.014 244.809 258.884 245.2 258.884C245.591 258.884 245.982 258.753 246.243 258.753C246.504 258.623 246.895 258.623 247.025 258.623C247.547 258.493 247.938 258.493 248.198 258.362C248.459 258.362 248.589 258.232 248.589 258.232C248.589 258.232 248.459 258.232 248.198 258.362C247.938 258.493 247.547 258.493 247.025 258.623C246.765 258.753 246.504 258.753 246.243 258.884C245.982 258.884 245.591 259.014 245.2 259.014C244.809 259.014 244.418 259.144 244.027 259.144C243.636 259.144 243.115 259.144 242.593 259.144C238.553 259.275 232.818 257.45 227.082 253.279C224.215 251.193 221.347 248.586 218.349 245.588C215.351 242.59 212.353 239.332 209.355 235.682C203.359 228.383 197.755 219.65 191.628 210.656L191.498 210.525L191.628 210.395C192.28 209.613 193.062 208.961 193.844 208.179C199.579 202.183 205.054 196.448 210.137 191.104L210.398 190.843L210.528 191.104C213.135 194.363 216.003 197.23 218.871 199.837C221.738 202.444 224.606 204.79 227.213 207.136C232.557 211.699 237.38 215.609 241.16 219.128C244.94 222.648 247.677 225.776 249.241 228.122C249.632 228.774 249.893 229.295 250.284 229.686C250.545 230.208 250.675 230.599 250.805 230.859C250.936 231.12 251.066 231.381 251.196 231.641C251.587 231.902 251.587 232.032 251.587 232.032Z" fill="#263238"/>
<g opacity="0.3">
<g opacity="0.3">
<path opacity="0.3" d="M196.191 215.739L194.366 215.218C195.93 224.081 200.753 236.464 205.055 244.285H217.828C213.006 238.289 196.191 215.739 196.191 215.739Z" fill="black"/>
</g>
</g>
<path d="M208.183 193.841L182.505 165.686L167.124 162.819L149.658 165.034C149.658 165.034 148.876 167.772 151.874 169.336L145.357 169.727C145.357 169.727 144.053 173.116 147.703 174.55L143.141 175.332C143.141 175.332 145.226 180.024 150.31 179.112C155.523 178.199 163.996 178.199 163.996 178.199L173.12 183.153L159.564 182.631L149.788 184.456C149.788 184.456 148.485 186.933 150.701 187.584C152.917 188.236 161.389 187.584 161.389 187.584L173.641 191.495C173.641 191.495 178.464 198.273 180.028 200.097C181.723 201.922 189.674 205.311 189.674 205.311L193.584 208.831L208.183 193.841Z" fill="#FFBE9D"/>
<path d="M145.228 169.596C145.228 169.727 147.183 169.596 150.311 169.466C153.439 169.205 157.61 168.814 162.433 168.293C163.997 168.163 165.561 167.902 166.995 167.772H166.865C170.384 168.814 173.382 169.596 175.598 170.118C177.814 170.639 179.117 170.9 179.117 170.769C179.117 170.639 177.944 170.248 175.728 169.466C173.643 168.814 170.645 167.772 167.126 166.729H166.995H166.865C165.431 166.859 163.867 166.989 162.303 167.25C157.61 167.772 153.309 168.293 150.311 168.684C147.052 169.205 145.228 169.466 145.228 169.596Z" fill="#EB996E"/>
<path d="M144.054 175.071C144.054 175.201 145.879 175.071 148.616 174.81C151.353 174.55 155.263 174.028 159.565 173.376C160.999 173.116 162.432 172.985 163.736 172.725H163.475C169.601 175.071 174.033 176.635 174.164 176.505C174.294 176.244 169.862 174.289 163.866 171.812H163.736H163.606C162.302 171.943 160.868 172.203 159.434 172.464C155.133 173.116 151.353 173.767 148.616 174.158C145.748 174.55 144.054 174.941 144.054 175.071Z" fill="#EB996E"/>
<path d="M78.6197 170.639L91.6543 219.91C92.4364 222.647 94.9129 224.472 97.6502 224.472L165.169 223.169C168.949 223.038 171.817 219.519 171.035 215.739L161.128 168.554C160.477 165.686 158 163.731 155.133 163.731H83.9639C80.3142 163.731 77.7073 167.12 78.6197 170.639Z" fill="#263238"/>
<path d="M124.543 188.213C125.337 186.597 124.514 184.567 122.705 183.678C120.896 182.789 118.786 183.378 117.992 184.993C117.198 186.608 118.021 188.638 119.83 189.527C121.639 190.416 123.749 189.828 124.543 188.213Z" fill="white"/>
<path d="M73.6667 181.458C72.3633 180.024 72.4936 177.547 73.6667 175.983C74.8399 174.419 76.795 173.637 78.7502 173.507C80.7054 173.376 82.6606 174.028 84.4854 174.68C86.7013 175.592 88.9172 176.635 91.0027 177.939C92.4365 178.851 94.0006 180.024 94.2613 181.719C94.522 183.413 92.6972 185.368 91.2634 184.456C93.2186 185.238 95.1738 187.323 95.4344 189.409C95.6951 191.494 94.6524 192.668 92.5668 193.319C94.131 193.971 95.1738 195.926 94.3917 197.49C93.6096 199.054 91.3937 199.576 89.6992 198.924C88.0048 198.272 86.8316 196.839 85.6585 195.535C86.8316 197.621 87.2227 199.967 86.8316 202.313C82.2695 200.749 78.7502 196.448 78.0985 191.625C75.8826 189.93 75.1005 186.541 76.404 184.065C74.5792 183.543 72.4936 180.676 72.624 178.721" fill="#FFBE9D"/>
<path d="M92.4372 193.45C92.4372 193.45 91.6551 192.928 90.482 191.885C89.3089 190.973 87.484 189.669 85.2681 189.278C84.095 189.018 83.0523 189.018 82.1399 189.278C81.2274 189.539 80.4454 189.93 79.7936 190.452C78.6205 191.364 78.3598 192.407 78.2295 192.407C78.2295 192.407 78.2295 192.146 78.3598 191.755C78.4902 191.364 78.8812 190.843 79.4026 190.191C79.924 189.669 80.8364 189.148 81.8792 188.887C82.9219 188.627 84.095 188.627 85.2681 188.887C87.6144 189.409 89.4392 190.712 90.6123 191.755C91.9158 192.798 92.5675 193.45 92.4372 193.45Z" fill="#EB996E"/>
<path d="M91.9159 184.847C91.9159 184.977 91.0035 184.586 89.5697 183.804C88.7876 183.413 88.0055 183.022 86.9627 182.631C86.0503 182.24 84.8772 181.98 83.7041 181.719C82.531 181.458 81.3579 181.458 80.3151 181.719C79.2724 181.849 78.4903 182.371 77.8386 182.762C76.5351 183.674 76.2744 184.717 76.2744 184.717C76.2744 184.717 76.2744 184.456 76.4048 184.065C76.5351 183.674 76.9261 183.022 77.5779 182.501C78.2296 181.98 79.142 181.458 80.1848 181.197C81.2275 180.937 82.531 180.937 83.7041 181.197C84.8772 181.458 86.0503 181.719 87.0931 182.11C88.1359 182.501 88.9179 183.022 89.7 183.283C91.1338 184.326 92.0462 184.717 91.9159 184.847Z" fill="#EB996E"/>
</svg>
