<svg width="25" height="25" viewBox="0 0 25 25" fill="none" xmlns="http://www.w3.org/2000/svg">
<path fill-rule="evenodd" clip-rule="evenodd" d="M14.157 9.22821C14.6243 9.32777 14.9824 9.50534 15.2884 9.79184C15.6822 10.1636 15.898 10.6136 15.9928 11.2601C16.057 11.6816 16.0307 11.8474 15.8813 11.9848C15.7414 12.1127 15.4828 12.1174 15.3263 11.9966C15.2125 11.9113 15.1768 11.8213 15.1508 11.5774C15.12 11.2528 15.063 11.0256 14.9657 10.8148C14.757 10.3673 14.3893 10.1351 13.768 10.0594C13.4762 10.0238 13.3885 9.99077 13.2936 9.8794C13.1203 9.67334 13.1869 9.3394 13.4263 9.21621C13.5165 9.17121 13.5544 9.16652 13.7537 9.17834C13.8773 9.18546 14.0599 9.20684 14.157 9.22821ZM13.6519 7.44002C15.0917 7.65077 16.2064 8.31865 16.9371 9.40334C17.3475 10.0144 17.6037 10.732 17.6914 11.5016C17.7222 11.7835 17.7222 12.2974 17.689 12.3827C17.658 12.4631 17.5585 12.5721 17.4732 12.6171C17.3807 12.6645 17.1838 12.6596 17.0747 12.6028C16.8921 12.5104 16.8375 12.3636 16.8375 11.9657C16.8375 11.3524 16.6785 10.7057 16.4035 10.2036C16.0903 9.6304 15.6349 9.15677 15.0799 8.82752C14.6031 8.54327 13.8987 8.33252 13.2559 8.2804C13.0234 8.26146 12.8953 8.21402 12.8076 8.11221C12.6724 7.95827 12.6582 7.74977 12.772 7.5769C12.8952 7.38565 13.0849 7.35471 13.6519 7.44002ZM8.06591 5.97884C8.14897 6.00734 8.27703 6.07352 8.35053 6.12096C8.80109 6.41946 10.0558 8.02277 10.4663 8.82321C10.701 9.28034 10.7794 9.61896 10.7059 9.87002C10.63 10.14 10.5043 10.2821 9.94203 10.7344C9.71666 10.9166 9.50553 11.1038 9.47234 11.1536C9.38703 11.2768 9.31822 11.5183 9.31822 11.689C9.32066 12.0844 9.57678 12.8021 9.91353 13.354C10.1743 13.7826 10.6416 14.332 11.1042 14.7536C11.6473 15.2511 12.1264 15.5897 12.6673 15.8573C13.3624 16.203 13.7869 16.2906 14.0976 16.1462C14.1758 16.1106 14.2588 16.0633 14.2849 16.042C14.3085 16.0206 14.4913 15.798 14.6905 15.5516C15.0747 15.0685 15.1624 14.9903 15.4258 14.9003C15.7603 14.7866 16.1018 14.8174 16.4458 14.9927C16.7068 15.1277 17.2761 15.4806 17.6436 15.7363C18.1275 16.075 19.1616 16.9181 19.3017 17.0863C19.5482 17.3895 19.591 17.7778 19.425 18.2066C19.2495 18.6589 18.5665 19.5068 18.0897 19.8692C17.658 20.196 17.352 20.3215 16.9487 20.3404C16.6167 20.3569 16.479 20.3286 16.0545 20.1533C12.7245 18.7821 10.0656 16.7359 7.95453 13.9245C6.85166 12.4562 6.01184 10.9333 5.43791 9.35365C5.10341 8.43246 5.08691 8.03215 5.36197 7.56077C5.48066 7.36184 5.98578 6.86927 6.35347 6.59459C6.96547 6.1399 7.24766 5.97171 7.47303 5.92427C7.62716 5.89109 7.89528 5.91715 8.06591 5.97884ZM13.4882 5.72309C14.3042 5.8249 14.9635 6.0214 15.687 6.37446C16.3986 6.72265 16.854 7.0519 17.4565 7.65096C18.021 8.21702 18.3342 8.64565 18.6662 9.31109C19.1288 10.2394 19.392 11.3432 19.437 12.558C19.4537 12.9724 19.4417 13.0648 19.3468 13.1833C19.1667 13.413 18.7705 13.3751 18.6353 13.117C18.5925 13.0316 18.5807 12.9583 18.5665 12.6266C18.5427 12.1174 18.5072 11.7883 18.436 11.3951C18.156 9.85334 17.416 8.62184 16.2347 7.73834C15.2503 6.9994 14.2328 6.6394 12.8998 6.56121C12.4491 6.53515 12.3709 6.51865 12.2689 6.44046C12.0792 6.29121 12.0696 5.94077 12.2522 5.77727C12.3638 5.67546 12.442 5.66121 12.8286 5.67302C13.0305 5.68034 13.327 5.70415 13.4882 5.72309ZM12.7695 0.834961C19.3969 0.834961 24.7695 6.20759 24.7695 12.835C24.7695 19.4623 19.3969 24.835 12.7695 24.835C6.14216 24.835 0.769531 19.4623 0.769531 12.835C0.769531 6.20759 6.14216 0.834961 12.7695 0.834961Z" fill="#7F4DA0"/>
</svg>
