<svg width="54" height="39" viewBox="0 0 54 39" fill="none" xmlns="http://www.w3.org/2000/svg">
<path d="M51.6292 7.18799C51.35 6.07251 50.7813 5.05046 49.9807 4.22508C49.1801 3.3997 48.1758 2.80021 47.0694 2.48717C43.0267 1.5 26.8558 1.5 26.8558 1.5C26.8558 1.5 10.685 1.5 6.64233 2.58119C5.53586 2.89423 4.53161 3.49371 3.73098 4.3191C2.93036 5.14448 2.36173 6.16653 2.08253 7.28201C1.34266 11.3848 0.980744 15.5468 1.00134 19.7157C0.97497 23.916 1.33691 28.1097 2.08253 32.2434C2.39034 33.3242 2.97171 34.3074 3.77046 35.0979C4.56922 35.8884 5.55837 36.4595 6.64233 36.7561C10.685 37.8373 26.8558 37.8373 26.8558 37.8373C26.8558 37.8373 43.0267 37.8373 47.0694 36.7561C48.1758 36.4431 49.1801 35.8436 49.9807 35.0182C50.7813 34.1928 51.35 33.1708 51.6292 32.0553C52.3633 27.9834 52.7252 23.8532 52.7104 19.7157C52.7367 15.5154 52.3748 11.3217 51.6292 7.18799Z" stroke="#00B4FF" stroke-width="2" stroke-linecap="round" stroke-linejoin="round"/>
<path d="M21.5674 27.4015L35.0823 19.7157L21.5674 12.0298V27.4015Z" stroke="#00B4FF" stroke-width="2" stroke-linecap="round" stroke-linejoin="round"/>
</svg>
