<svg width="638" height="822" viewBox="0 0 638 822" fill="none" xmlns="http://www.w3.org/2000/svg">
<path d="M20.6262 593.636C10.8714 560.551 6.49852 526.735 10.1597 493.155C14.9465 451.629 28.5824 413.021 53.6679 380.066C79.6718 346.252 113.555 317.987 131.654 279.509C149.727 241.917 133.594 213.077 134.811 171.447C123.671 78.1711 204.982 -28.6278 335.779 20.4049C356.996 28.1168 369.662 53.3091 390.853 61.9067C429.691 78.1119 469.538 59.7727 508.104 54.6937C552.052 48.8853 597.501 52.8724 638.072 70.9012C690.119 93.6978 723.718 136.345 740.937 189.152C761.391 253.579 741.571 320.374 762.051 383.915C780.875 442.974 810.54 497.918 778.352 559.92C759.412 596.6 722.851 624.787 682.396 633.357C650.027 640.39 615.549 627.858 583.995 637.575C555.171 645.598 538.378 669.93 519.878 691.552C440.365 783.199 332.584 833.242 211.348 793.353C122.831 765.059 48.3639 683.984 20.6262 593.636Z" fill="#FFF001"/>
</svg>
