<svg width="156" height="223" viewBox="0 0 156 223" fill="none" xmlns="http://www.w3.org/2000/svg">
<path d="M35.8461 154.127H117.608V165.309H35.8461V154.127Z" fill="#251A51"/>
<path d="M35.6057 165.429H117.729V153.886H35.6057V165.429ZM117.488 165.189H35.9665V154.247H117.488V165.189Z" fill="#251A51"/>
<path d="M110.033 161.582L98.25 219.657H54.7237L43.301 165.309L110.033 161.582Z" fill="#251A51"/>
<path d="M110.033 214.126L103.781 222.783H50.7558L43.301 214.126H110.033Z" fill="#455A64"/>
<path d="M79.7334 163.265C79.8536 163.265 80.0941 136.332 80.2144 103.146C80.3346 69.9601 80.2143 43.0266 80.0941 43.0266C79.9739 43.0266 79.7334 69.9601 79.6132 103.146C79.6132 136.332 79.6132 163.265 79.7334 163.265Z" fill="#251A51"/>
<path d="M61.5775 95.9314C61.5775 95.9314 61.5775 96.1719 61.818 96.5326C62.0585 97.0135 62.299 97.6147 62.5395 98.2159C62.6597 98.5766 62.9002 99.0576 63.0204 99.4183C63.1406 99.8993 63.3811 100.38 63.6216 100.981C63.8621 101.583 63.9823 102.064 64.2228 102.785C64.4633 103.386 64.5835 104.108 64.824 104.829C65.6656 107.595 66.3871 111.081 67.1085 114.809C67.7097 118.657 68.1907 122.865 68.4311 127.314C68.7919 136.211 68.3109 144.388 67.8299 150.159C67.5895 153.045 67.349 155.45 67.1085 157.013C66.9883 157.734 66.9883 158.455 66.868 158.936C66.868 159.417 66.868 159.538 66.868 159.658C66.868 159.658 66.9883 159.417 66.9883 159.057C67.1085 158.576 67.2288 157.975 67.349 157.133C67.5895 155.57 67.9502 153.165 68.3109 150.279C68.9121 144.388 69.5133 136.332 69.1526 127.314C68.9121 122.865 68.4311 118.536 67.8299 114.689C67.1085 110.841 66.3871 107.474 65.4252 104.589C65.1847 103.867 65.0645 103.266 64.824 102.545C64.5835 101.943 64.343 101.342 64.1025 100.741C63.8621 100.26 63.7418 99.6588 63.5013 99.1779C63.2609 98.6969 63.1406 98.3362 62.9002 97.9755C62.5394 97.254 62.2989 96.7731 62.0585 96.2921C61.6978 96.0516 61.5775 95.9314 61.5775 95.9314Z" fill="#251A51"/>
<path d="M63.6214 74.1682C63.6214 74.1682 63.7416 74.5289 63.8619 75.0099C64.1023 75.6111 64.3428 76.4528 64.7035 77.5349C64.944 78.1361 65.0643 78.7373 65.3047 79.3385C65.5452 80.0599 65.7857 80.7813 65.9059 81.5028C66.3869 83.0659 66.9881 84.8695 67.469 86.7933C67.7095 87.7552 67.95 88.8373 68.3107 89.9195C68.5512 91.0016 68.7917 92.204 69.0321 93.2861C69.6333 95.5707 69.994 98.216 70.5952 100.861C71.4369 106.152 72.2786 112.164 72.8798 118.296C73.3607 124.548 73.6012 130.44 73.7214 135.971C73.7214 141.382 73.7214 146.311 73.481 150.4C73.3607 152.444 73.2405 154.247 73.1203 155.93C73 157.614 72.8798 158.936 72.8798 160.139C72.7595 161.221 72.7595 162.063 72.6393 162.784C72.6393 163.385 72.6393 163.746 72.6393 163.746C72.6393 163.746 72.7596 163.385 72.7596 162.784C72.8798 162.183 72.8798 161.221 73.1203 160.139C73.2405 159.057 73.3607 157.614 73.481 155.93C73.6012 154.247 73.7215 152.444 73.8417 150.4C74.0822 146.311 74.2024 141.382 74.2024 135.971C74.2024 130.56 73.9619 124.548 73.481 118.296C72.8798 112.043 72.1583 106.152 71.1964 100.741C70.5952 98.0957 70.2345 95.5707 69.6333 93.1659C69.3929 91.9636 69.0321 90.8814 68.7917 89.7992C68.5512 88.7171 68.1905 87.6349 67.95 86.673C67.4691 84.629 66.8678 82.9456 66.3869 81.3825C66.1464 80.6611 65.9059 79.9397 65.6654 79.2183C65.425 78.6171 65.1845 78.0159 64.944 77.4147C64.5833 76.3325 64.2226 75.6111 63.9821 74.8897C63.7416 74.4087 63.6214 74.1682 63.6214 74.1682Z" fill="#251A51"/>
<path d="M84.9034 168.075C84.9034 168.075 84.9034 167.954 84.9034 167.714C84.9034 167.473 84.9034 167.113 85.0237 166.752C85.0237 165.91 85.1439 164.708 85.2642 163.145C85.5046 160.019 85.7451 155.57 86.1058 150.039C86.8272 138.977 87.7892 123.707 89.713 106.873C90.6749 98.4564 91.757 90.5207 92.9594 83.1861C93.5606 79.5789 94.1618 76.092 94.763 72.9658C95.3642 69.7194 95.9654 66.8337 96.5666 64.0682C97.0475 61.3027 97.6487 58.8979 98.1297 56.7336C98.6106 54.5693 99.0916 52.7657 99.4523 51.2026C99.813 49.7597 100.054 48.5574 100.294 47.7157C100.414 47.355 100.414 46.9943 100.534 46.7538C100.534 46.5133 100.655 46.3931 100.534 46.3931C100.534 46.3931 100.534 46.5133 100.414 46.6336C100.294 46.874 100.294 47.1145 100.174 47.4752C99.9333 48.3169 99.5726 49.3991 99.2119 50.9622C98.8511 52.405 98.2499 54.3288 97.769 56.4931C97.288 58.6574 96.6868 61.0622 96.0856 63.8277C95.4844 66.5932 94.8833 69.4789 94.2821 72.7254C93.6809 75.9718 93.0797 79.3385 92.4785 82.9456C91.2761 90.16 90.1939 98.2159 89.232 106.633C87.3082 123.466 86.3463 138.736 85.7451 149.798C85.3844 155.329 85.2642 159.778 85.1439 162.904C85.1439 164.467 85.0237 165.67 85.0237 166.512C85.0237 166.872 85.0237 167.233 85.0237 167.473C84.9034 167.954 84.9034 168.075 84.9034 168.075Z" fill="#251A51"/>
<path d="M80.4546 56.0121C80.8153 52.1645 84.6629 49.2788 88.5106 49.2788C92.3582 49.2788 95.9654 51.5633 98.2499 54.5693C100.534 57.5753 101.857 61.3026 102.939 65.03C105.464 74.0479 106.907 83.4266 105.825 92.6849C104.743 101.943 101.015 111.081 94.282 117.695C93.1999 118.777 91.757 119.859 90.3141 119.498C89.4725 119.378 88.8713 118.777 88.2701 118.176C75.1641 106.392 67.589 88.5968 68.1902 71.042C68.3105 67.5551 68.7914 63.8277 70.7153 60.9419C72.5188 57.936 77.0879 54.8098 80.4546 56.0121Z" fill="#00B4FF"/>
<path d="M109.072 25.4711C110.875 28.7176 112.679 31.964 114.482 35.2105C114.603 35.4509 114.723 35.6914 115.084 35.6914C115.324 35.6914 115.565 35.4509 115.685 35.2105C120.494 27.8759 125.184 20.6616 129.993 13.327L126.747 11.5234L109.072 25.4711Z" fill="#00B4FF"/>
<g opacity="0.2">
<g opacity="0.2">
<g opacity="0.2">
<g opacity="0.2">
<g opacity="0.2">
<path opacity="0.2" d="M109.072 25.4711C110.875 28.7176 112.679 31.964 114.482 35.2105C114.603 35.4509 114.723 35.6914 115.084 35.6914C115.324 35.6914 115.565 35.4509 115.685 35.2105C120.494 27.8759 125.184 20.6616 129.993 13.327L126.747 11.5234L109.072 25.4711Z" fill="#251A51"/>
</g>
</g>
</g>
</g>
</g>
<path d="M80.0943 43.0264C96.3265 33.4073 112.559 23.9085 128.791 14.2894C129.272 14.0489 129.873 13.6882 129.993 13.087C130.234 12.3656 129.633 11.6441 129.152 11.1632C122.418 4.30957 112.799 0.221453 103.18 0.942885C93.561 1.66432 84.4229 7.19531 79.7336 15.612C74.9241 24.0287 74.6836 35.0907 80.0943 43.0264Z" fill="#00B4FF"/>
<path d="M121.697 5.15112C121.697 5.15112 121.456 5.15111 121.096 5.03087C120.735 5.03087 120.013 4.91064 119.292 4.91064C117.729 4.91064 115.324 5.03088 112.559 5.39159C109.673 5.87255 106.426 6.71423 102.94 8.27733C99.4526 9.84043 95.8455 12.0047 92.599 15.0107C89.3526 18.0167 86.8276 21.2631 84.9037 24.6298C82.9799 27.8762 81.7776 31.1227 81.0561 33.8881C80.3347 36.6536 79.974 38.9382 79.8537 40.5013C79.7335 41.3429 79.8537 41.4632 79.7335 41.9442C79.7335 42.3049 80.0942 43.0263 80.0942 43.0263C80.0942 43.0263 79.8537 42.1846 79.974 40.6215C80.2145 39.0584 80.5751 36.7739 81.2966 34.0084C82.8597 28.5977 86.3466 21.2631 92.8395 15.4916C99.3324 9.72019 106.907 6.83447 112.438 5.87256C115.204 5.3916 117.488 5.15112 119.172 5.15112C120.855 5.15112 121.697 5.27136 121.697 5.15112Z" fill="#251A51"/>
<path d="M86.707 23.187C86.707 23.3073 87.6689 23.668 89.1118 24.2692C90.6749 24.8703 92.8392 25.712 95.2439 26.4335C97.6487 27.1549 99.9333 27.7561 101.496 28.2371C103.059 28.5978 104.142 28.8382 104.142 28.718C104.142 28.5978 103.18 28.3573 101.617 27.7561C99.813 27.1549 97.769 26.5537 95.3642 25.8323C93.0797 25.1108 91.0356 24.3894 89.232 23.7882C87.6689 23.4275 86.707 23.187 86.707 23.187Z" fill="#251A51"/>
<path d="M94.4026 2.62622C94.2824 2.62622 93.9216 5.03099 93.8014 8.03696C93.6812 11.0429 93.9216 13.4477 94.0419 13.4477C94.1621 13.4477 94.2823 11.0429 94.2823 8.03696C94.4026 5.15123 94.5228 2.62622 94.4026 2.62622Z" fill="#251A51"/>
<path d="M129.152 13.8082C129.152 13.688 127.829 13.207 125.665 12.6059C123.5 11.8844 120.374 11.0427 116.887 10.2011C113.4 9.35939 110.274 8.7582 107.99 8.39748C105.705 8.03676 104.262 7.79629 104.262 7.91653C104.262 8.03677 105.585 8.27725 107.869 8.87845C110.154 9.3594 113.28 10.0808 116.647 10.9225C120.013 11.7642 123.14 12.4856 125.424 13.0868C127.709 13.5678 129.152 13.9285 129.152 13.8082Z" fill="#251A51"/>
<path d="M100.655 47.7157C104.863 44.5895 109.312 43.868 114.482 44.1085C119.773 44.349 124.823 45.9121 129.633 48.0764C137.809 51.6836 145.504 56.9741 150.434 64.4288C155.364 71.8836 157.047 81.8635 153.32 90.0397C152.959 90.8814 152.478 91.723 151.636 92.0837C150.795 92.4445 149.833 92.204 148.871 91.8433C139.492 88.8373 130.113 85.7111 121.577 81.0218C113.04 76.2123 105.224 69.5991 100.535 60.9419C99.4526 58.8979 98.4907 56.6133 98.3705 54.3288C98.2503 51.924 98.9717 49.399 100.655 47.7157Z" fill="#00B4FF"/>
<path d="M100.535 46.7534C100.535 46.7534 100.775 46.8736 101.256 46.9939C101.737 47.1141 102.459 47.3546 103.18 47.7153C103.661 47.8356 104.142 48.076 104.623 48.1963C105.104 48.4367 105.705 48.557 106.306 48.7975C107.509 49.2784 108.831 49.7594 110.274 50.4808C110.996 50.8415 111.717 51.2022 112.559 51.563C113.4 51.9237 114.122 52.4046 114.963 52.7654C116.647 53.607 118.33 54.6892 120.134 55.7713C123.741 58.0559 127.468 60.7011 131.196 63.9475C134.803 67.194 138.049 70.5607 140.695 73.8071C142.017 75.4905 143.22 77.0536 144.302 78.6167C144.783 79.3381 145.384 80.1798 145.865 80.9012C146.346 81.6226 146.827 82.344 147.187 83.0655C148.029 84.3881 148.75 85.7107 149.352 86.7929C149.712 87.3941 149.953 87.875 150.193 88.356C150.434 88.837 150.674 89.3179 150.795 89.6786C151.155 90.4 151.516 91.0012 151.756 91.4822C151.997 91.9631 152.117 92.0834 152.117 92.0834C152.117 92.0834 151.997 91.8429 151.877 91.362C151.636 90.881 151.396 90.2798 151.035 89.4381C150.795 89.0774 150.674 88.5965 150.434 88.1155C150.193 87.6346 149.953 87.1536 149.592 86.5524C148.991 85.4703 148.39 84.1476 147.548 82.7048C147.187 81.9833 146.706 81.2619 146.225 80.5405C145.745 79.8191 145.264 79.0976 144.662 78.2559C143.58 76.6928 142.378 75.1297 141.055 73.4464C138.41 70.1999 135.164 66.713 131.436 63.4666C127.709 60.2201 123.861 57.4547 120.254 55.2904C118.45 54.2082 116.647 53.126 114.963 52.4046C114.122 52.0439 113.28 51.5629 112.559 51.2022C111.717 50.8415 110.996 50.4808 110.274 50.2403C108.831 49.5189 107.388 49.1582 106.186 48.6772C105.585 48.4368 104.984 48.1963 104.503 48.0761C104.022 47.9558 103.541 47.8355 103.06 47.5951C102.218 47.3546 101.617 47.1141 101.016 46.9939C100.775 46.7534 100.535 46.7534 100.535 46.7534Z" fill="#251A51"/>
<path d="M143.406 67.6573C137.733 65.9989 133.165 64.5512 133.202 64.4237C133.239 64.2963 137.868 65.5373 143.54 67.1957C149.213 68.8541 153.781 70.3018 153.744 70.4293C153.707 70.5567 149.078 69.3157 143.406 67.6573Z" fill="#251A51"/>
<path d="M133.601 86.9135C133.721 86.9135 133.721 85.7111 133.841 83.7873C133.841 81.8634 133.961 79.098 133.841 76.092C133.721 73.086 133.601 70.4408 133.48 68.3967C133.36 66.4729 133.12 65.2705 133.12 65.2705C132.999 65.2705 132.999 66.4729 133.12 68.3967C133.24 70.561 133.24 73.2063 133.36 76.092C133.48 78.9777 133.48 81.623 133.601 83.7873C133.48 85.7111 133.601 86.9135 133.601 86.9135Z" fill="#251A51"/>
<path d="M114.355 77.1348C114.223 77.1256 114.498 71.5868 114.97 64.7634C115.442 57.94 115.932 52.4159 116.064 52.4251C116.197 52.4342 115.921 57.9731 115.45 64.7965C114.978 71.6199 114.488 77.1439 114.355 77.1348Z" fill="#251A51"/>
<path d="M138.41 51.9237C138.41 51.8035 137.208 51.8035 135.163 51.8035C133.119 51.8035 130.354 51.9237 127.348 51.9237C124.342 52.044 121.456 52.1642 119.532 52.2845C117.488 52.4047 116.286 52.5249 116.286 52.6452C116.286 52.7654 117.488 52.7654 119.532 52.7654C121.577 52.7654 124.342 52.6452 127.348 52.6452C130.474 52.5249 133.24 52.4047 135.163 52.2845C137.087 52.1642 138.41 52.044 138.41 51.9237Z" fill="#251A51"/>
<path d="M92.2384 118.897C92.2384 118.897 92.2384 118.656 92.3587 118.296C92.3587 117.815 92.3587 117.214 92.4789 116.372C92.5992 114.689 92.5992 112.404 92.4789 109.518C92.4789 106.633 92.2384 103.146 91.8777 99.298C91.517 95.4504 90.9158 91.242 90.1944 86.9134C89.3527 82.5848 88.3908 78.3765 87.4289 74.6491C86.3467 70.9217 85.3848 67.6753 84.4229 64.9098C83.461 62.1443 82.6193 59.98 82.0181 58.4169C81.6574 57.6954 81.4169 57.0942 81.2967 56.7335C81.1765 56.3728 81.0562 56.1323 81.0562 56.1323C81.0562 56.1323 81.0562 56.3728 81.2967 56.7335C81.4169 57.2145 81.6574 57.8157 81.8979 58.5371C82.4991 60.1002 83.2205 62.2645 84.1825 65.03C85.1444 67.7955 86.1063 71.1622 87.0682 74.7693C88.0301 78.4967 88.992 82.5848 89.8336 86.9134C90.6753 91.242 91.1563 95.4504 91.6372 99.298C91.9979 103.146 92.2384 106.512 92.3587 109.518C92.4789 112.404 92.4789 114.809 92.4789 116.372C92.4789 117.093 92.4789 117.695 92.4789 118.296C92.1182 118.656 92.1182 118.897 92.2384 118.897Z" fill="#251A51"/>
<path d="M89.5932 87.0337C89.5932 87.0337 90.3146 87.8753 91.517 89.198C92.7194 90.4004 94.523 92.0837 96.5671 93.8873C98.6111 95.6909 100.535 97.254 101.978 98.3361C103.421 99.4183 104.262 100.019 104.383 100.019C104.383 99.8992 103.661 99.1778 102.338 98.0956C100.896 96.773 99.0921 95.2099 97.1682 93.5266C95.2444 91.8432 93.4409 90.2801 91.998 88.9575C90.5551 87.7551 89.7135 87.0337 89.5932 87.0337Z" fill="#251A51"/>
<path d="M74.2025 99.4184C74.3228 99.4184 75.0442 98.3362 76.2466 96.5326C77.5692 94.6088 79.2526 92.2041 81.0561 89.5588C82.98 86.9136 84.6633 84.5088 85.9859 82.5849C87.1883 80.7814 88.03 79.6992 87.9097 79.6992C87.7895 79.6992 86.9478 80.6611 85.6252 82.3445C84.3026 84.0278 82.499 86.4326 80.5752 89.1981C78.6514 91.9636 77.0882 94.4886 75.8859 96.2921C74.8037 98.216 74.2025 99.4184 74.2025 99.4184Z" fill="#251A51"/>
<path d="M93.7563 68.1526C87.3881 64.0586 82.284 60.6492 82.3558 60.5375C82.4276 60.4257 87.6482 63.654 94.0163 67.748C100.384 71.842 105.489 75.2515 105.417 75.3632C105.345 75.4749 100.124 72.2466 93.7563 68.1526Z" fill="#251A51"/>
<path d="M67.8665 76.033C67.7737 75.938 71.0876 72.5511 75.2682 68.4681C79.4488 64.385 82.913 61.1521 83.0058 61.2471C83.0986 61.3422 79.7848 64.7291 75.6042 68.8121C71.4236 72.8951 67.9593 76.1281 67.8665 76.033Z" fill="#251A51"/>
<path d="M64.2227 75.7312L59.7738 75.3704C56.6476 75.1299 53.6416 74.168 50.8762 72.6049C49.5535 71.8835 48.2309 71.1621 46.788 70.5609C41.3773 68.3966 35.2451 68.7573 29.4737 68.5168C19.9748 68.0359 10.476 65.6311 1.93901 61.4227C1.45805 61.1822 0.977097 60.8215 0.736622 60.3406C-0.225288 58.6572 1.45808 57.2144 2.90094 56.3727C10.3557 51.8037 17.8105 47.2346 26.2272 44.9501C34.6439 42.6655 44.1428 43.0262 51.2369 47.956C59.7738 53.7275 62.7798 65.6311 64.2227 75.7312Z" fill="#00B4FF"/>
<path d="M0.616425 59.8593C0.616425 59.8593 0.856873 59.7391 1.33783 59.4986C1.81878 59.2581 2.54023 58.8974 3.3819 58.4164C5.18548 57.4545 7.83072 56.0116 11.0772 54.4485C14.3236 52.8854 18.2915 51.0819 22.9808 49.8795C27.5499 48.5569 32.9606 47.9557 38.3714 48.6771C43.7821 49.3985 48.8321 51.5628 52.4393 54.689C56.0464 57.8152 58.2107 61.6629 59.7738 65.0295C61.3369 68.276 62.2988 71.1617 62.9 73.0855C63.2608 74.0474 63.5012 74.7689 63.6215 75.2498C63.862 75.7308 63.8619 75.9713 63.9822 75.9713C63.9822 75.9713 63.9822 75.7308 63.7417 75.1296C63.6215 74.5284 63.381 73.807 63.0203 72.845C62.4191 70.9212 61.4572 68.0355 60.0143 64.7891C58.4512 61.4224 56.2869 57.5747 52.6798 54.3283C49.0726 51.0819 43.9023 48.7973 38.3714 48.0759C32.8404 47.3545 27.4296 48.0759 22.7403 49.3985C18.051 50.7211 14.0832 52.5247 10.8367 54.0878C7.59027 55.7712 4.945 57.214 3.26165 58.176C2.41998 58.6569 1.69857 59.0176 1.21762 59.3783C0.856903 59.6188 0.616425 59.739 0.616425 59.8593Z" fill="#251A51"/>
<path d="M11.1386 65.4799C11.0643 65.3698 16.6724 61.4581 23.6647 56.7429C30.657 52.0277 36.3855 48.2945 36.4598 48.4046C36.534 48.5147 30.9259 52.4264 23.9336 57.1416C16.9413 61.8568 11.2128 65.59 11.1386 65.4799Z" fill="#251A51"/>
<path d="M17.3296 48.0765C17.3296 48.1967 19.1332 48.6776 21.538 48.7979C23.9428 49.0384 25.7463 48.9181 25.7463 48.7979C25.7463 48.6776 23.8225 48.5574 21.538 48.3169C19.2535 48.1967 17.3296 47.9562 17.3296 48.0765Z" fill="#251A51"/>
<path d="M42.4593 44.8298C42.3391 44.9501 43.1807 46.1524 44.3831 47.7155C45.5855 49.2786 46.6677 50.481 46.7879 50.481C46.9081 50.3608 46.0665 49.1584 44.8641 47.5953C43.6617 45.9119 42.5795 44.7096 42.4593 44.8298Z" fill="#251A51"/>
<path d="M37.2893 68.8773C37.2893 68.9975 38.3714 68.3963 40.0547 67.4344C41.7381 66.4725 43.9024 64.9094 46.3072 63.226C48.7119 61.5427 50.756 59.8594 52.3191 58.657C53.8822 57.4546 54.7239 56.7332 54.7239 56.6129C54.7239 56.4927 53.6417 57.2141 52.0786 58.2963C50.3953 59.4987 48.231 61.0618 45.9464 62.7451C43.5417 64.4284 41.3774 65.9915 39.8143 67.0737C38.2512 68.1558 37.2893 68.757 37.2893 68.8773Z" fill="#251A51"/>
<path d="M57.7296 94.3682C61.938 93.286 66.8677 97.3741 67.8297 101.582C68.6713 105.791 67.1082 110.119 65.1844 114.087C61.0963 122.744 55.3248 130.8 47.87 136.692C40.4152 142.704 31.0366 146.431 21.4175 146.431C23.2211 138.255 20.9366 129.598 21.8985 121.302C22.7401 113.967 26.1068 106.993 31.3973 101.823C36.5676 96.6527 43.6617 93.286 50.876 92.5646C53.6415 92.3241 56.6475 91.8431 57.7296 94.3682Z" fill="#00B4FF"/>
<path d="M21.4177 146.431C21.4177 146.431 21.6581 146.311 22.0189 146.191C22.3796 145.95 22.9808 145.71 23.582 145.109C24.9046 144.147 26.3475 142.223 27.6701 139.578C28.3915 138.255 29.1129 136.933 29.8344 135.369C30.5558 133.806 31.2772 132.123 32.1189 130.44C32.9606 128.636 33.8023 126.832 34.8844 125.149C35.9666 123.346 37.2892 121.662 38.732 119.979C41.6178 116.612 44.6237 113.726 47.3892 110.961C50.0345 108.196 52.319 105.55 54.0024 103.025C55.6857 100.62 56.6476 98.4562 57.2488 96.8931C57.4893 96.1716 57.7297 95.5704 57.85 95.0895C57.9702 94.7288 57.9702 94.4883 57.9702 94.4883C57.9702 94.4883 57.7298 95.33 57.0083 96.8931C56.4071 98.3359 55.325 100.5 53.6416 102.905C51.9583 105.31 49.6737 107.955 47.0285 110.6C44.3832 113.366 41.2571 116.252 38.3713 119.618C36.9285 121.302 35.6058 123.105 34.5237 124.909C33.4415 126.712 32.5999 128.516 31.7582 130.319C31.0368 132.123 30.1951 133.806 29.5939 135.369C28.8725 136.933 28.151 138.375 27.5499 139.698C26.3475 142.343 24.9046 144.267 23.582 145.229C22.2593 146.071 21.4177 146.431 21.4177 146.431Z" fill="#251A51"/>
<path d="M43.0604 139.698C43.1806 139.698 43.0604 138.616 42.6997 136.932C42.339 135.249 41.858 132.844 41.1366 130.319C40.4151 127.794 39.5735 125.39 38.9723 123.826C38.3711 122.143 37.8901 121.181 37.7699 121.181C37.6496 121.181 38.0104 122.263 38.4913 123.947C38.9723 125.63 39.6937 127.915 40.4151 130.44C41.1365 132.965 41.7377 135.369 42.2187 137.053C42.6996 138.616 42.9401 139.698 43.0604 139.698Z" fill="#251A51"/>
<path d="M22.2594 119.498C22.2594 119.618 23.4618 119.257 25.2654 118.777C27.0689 118.296 29.5939 117.694 32.3594 117.093C35.1249 116.492 37.6499 116.011 39.4535 115.65C41.2571 115.29 42.4595 115.049 42.4595 115.049C42.4595 114.929 41.2571 115.049 39.4535 115.29C37.6499 115.53 35.0047 116.011 32.2392 116.612C29.4737 117.213 26.9487 117.935 25.1451 118.536C23.2213 119.017 22.1392 119.378 22.2594 119.498Z" fill="#251A51"/>
<path d="M58.5713 125.39C58.6915 125.39 58.451 124.067 58.0903 122.143C57.7296 120.099 57.1284 117.454 56.407 114.448C55.5653 111.442 54.8439 108.797 54.1225 106.873C53.5213 104.949 53.0403 103.747 52.9201 103.747C52.7998 103.747 53.1605 104.949 53.7617 106.993C54.3629 108.917 55.0844 111.682 55.8058 114.688C56.5272 117.694 57.2487 120.46 57.7296 122.384C58.2106 124.067 58.5713 125.39 58.5713 125.39Z" fill="#251A51"/>
<path d="M31.9155 101.817C31.9015 101.685 37.0827 101.028 43.488 100.349C49.8933 99.67 55.0971 99.2267 55.1111 99.3588C55.1251 99.4908 49.944 100.148 43.5387 100.827C37.1334 101.506 31.9295 101.949 31.9155 101.817Z" fill="#251A51"/>
<path d="M76.7274 165.55C54.0829 165.55 35.726 165.442 35.726 165.309C35.726 165.176 54.0829 165.069 76.7274 165.069C99.3718 165.069 117.729 165.176 117.729 165.309C117.729 165.442 99.3718 165.55 76.7274 165.55Z" fill="#455A64"/>
<path d="M76.1264 189.116C60.853 189.116 48.4715 189.009 48.4715 188.876C48.4715 188.743 60.853 188.635 76.1264 188.635C91.3997 188.635 103.781 188.743 103.781 188.876C103.781 189.009 91.3997 189.116 76.1264 189.116Z" fill="#455A64"/>
<path d="M76.1261 192.483C61.1184 192.483 48.9522 192.376 48.9522 192.243C48.9522 192.11 61.1184 192.002 76.1261 192.002C91.1339 192.002 103.3 192.11 103.3 192.243C103.3 192.376 91.1339 192.483 76.1261 192.483Z" fill="#455A64"/>
<path d="M76.6073 186.351C60.8027 186.351 47.9905 186.243 47.9905 186.11C47.9905 185.978 60.8027 185.87 76.6073 185.87C92.4119 185.87 105.224 185.978 105.224 186.11C105.224 186.243 92.4119 186.351 76.6073 186.351Z" fill="#455A64"/>
</svg>
