<svg width="156" height="86" viewBox="0 0 156 86" fill="none" xmlns="http://www.w3.org/2000/svg">
<path d="M44.6508 16.5614L53.1877 16.6072L52.9595 59.1717L44.4226 59.1259L44.6508 16.5614Z" fill="#E1E7F5"/>
<path d="M105.081 16.6438L127.204 16.7622L127.079 40.2087L104.955 40.0903L105.081 16.6438Z" fill="#E1E8F9"/>
<path d="M83.0764 16.5237L105.2 16.6421L105.075 40.0886L82.9509 39.9702L83.0764 16.5237Z" fill="#ECF1FE"/>
<path d="M127.142 23.1954C112.473 23.3156 97.6839 23.1954 83.0148 22.9549C82.6541 22.9549 82.6541 22.4739 83.0148 22.4739C97.6839 22.3537 112.473 22.4739 127.142 22.7144C127.383 22.8346 127.383 23.1954 127.142 23.1954Z" fill="#E1E7F5"/>
<path d="M100.861 39.6819L141.021 39.897L140.919 59.0149L100.759 58.7998L100.861 39.6819Z" fill="#E1E8F9"/>
<path d="M60.8211 39.4414L100.981 39.6565L100.878 58.7744L60.7187 58.5593L60.8211 39.4414Z" fill="#ECF1FE"/>
<path d="M140.97 45.1989C114.277 45.5596 87.4641 45.1989 60.7711 44.8382C60.4104 44.8382 60.4104 44.3573 60.7711 44.3573C87.4641 44.237 114.277 44.237 140.97 44.8382C141.211 44.8382 141.211 45.1989 140.97 45.1989Z" fill="#E1E7F5"/>
<path d="M0.290939 59.0266H156V65.8802H0.290939V59.0266Z" fill="#E1E7F5"/>
<path d="M124.137 62.3931H130.509V85.7194H124.137V62.3931Z" fill="#E1E7F5"/>
<path d="M29.7494 62.3931H36.1221V85.7194H29.7494V62.3931Z" fill="#E1E7F5"/>
<path d="M36.2769 0.689828L44.8138 0.735596L44.5006 59.1716L35.9636 59.1258L36.2769 0.689828Z" fill="#E1E8F9"/>
<path d="M23.0213 11.4976L36.2476 11.5686L35.9932 58.9426L22.7669 58.8716L23.0213 11.4976Z" fill="#ECF1FE"/>
<path d="M29.6293 20.9097C25.977 20.9097 23.0162 20.802 23.0162 20.6692C23.0162 20.5364 25.977 20.4287 29.6293 20.4287C33.2816 20.4287 36.2424 20.5364 36.2424 20.6692C36.2424 20.802 33.2816 20.9097 29.6293 20.9097Z" fill="#E1E7F5"/>
<path d="M29.6293 18.8657C25.977 18.8657 23.0162 18.7581 23.0162 18.6252C23.0162 18.4924 25.977 18.3848 29.6293 18.3848C33.2816 18.3848 36.2424 18.4924 36.2424 18.6252C36.2424 18.7581 33.2816 18.8657 29.6293 18.8657Z" fill="#E1E7F5"/>
<path d="M29.6293 52.0518C25.977 52.0518 23.0162 51.9441 23.0162 51.8113C23.0162 51.6785 25.977 51.5708 29.6293 51.5708C33.2816 51.5708 36.2424 51.6785 36.2424 51.8113C36.2424 51.9441 33.2816 52.0518 29.6293 52.0518Z" fill="#E1E7F5"/>
<path d="M29.6293 50.0078C25.977 50.0078 23.0162 49.9001 23.0162 49.7673C23.0162 49.6345 25.977 49.5269 29.6293 49.5269C33.2816 49.5269 36.2424 49.6345 36.2424 49.7673C36.2424 49.9001 33.2816 50.0078 29.6293 50.0078Z" fill="#E1E7F5"/>
<path d="M29.5088 45.4386C29.376 45.4386 29.2683 40.6475 29.2683 34.7374C29.2683 28.8272 29.376 24.0361 29.5088 24.0361C29.6416 24.0361 29.7493 28.8272 29.7493 34.7374C29.7493 40.6475 29.6416 45.4386 29.5088 45.4386Z" fill="#E1E7F5"/>
<path d="M8.46724 23.1953H22.8959V58.9062H8.46724V23.1953Z" fill="#E1E8F9"/>
<path d="M40.6913 13.0957C39.3632 13.0957 38.2865 12.019 38.2865 10.6909C38.2865 9.36279 39.3632 8.28613 40.6913 8.28613C42.0194 8.28613 43.0961 9.36279 43.0961 10.6909C43.0961 12.019 42.0194 13.0957 40.6913 13.0957Z" fill="#E1E7F5"/>
<path d="M39.8494 17.4241H41.4125V52.173H39.8494V17.4241Z" fill="#E1E7F5"/>
</svg>
