<svg width="113" height="157" viewBox="0 0 113 157" fill="none" xmlns="http://www.w3.org/2000/svg">
<path d="M0.264458 1.1106H107.036V155.978H0.264458V1.1106Z" fill="#E1E7F5"/>
<path d="M5.6751 1.1106H112.447V155.978H5.6751V1.1106Z" fill="#ECF1FE"/>
<path d="M18.7807 17.8237H99.1001V139.145H18.7807V17.8237Z" fill="white"/>
<path d="M18.901 139.145C18.901 139.145 18.901 138.904 18.901 138.543C18.901 138.183 18.901 137.582 18.901 136.86C18.901 135.297 18.901 133.133 18.901 130.247C18.901 124.476 18.901 115.939 19.0213 105.237C19.0213 83.8349 19.1415 53.5347 19.1415 17.9441L18.901 18.1846C43.4297 18.1846 70.6036 18.1846 99.2204 18.1846L98.98 17.9441C98.98 63.755 98.98 105.839 98.98 139.265L99.2204 139.024C74.812 139.024 54.7321 139.145 40.7844 139.145C33.8106 139.145 28.3999 139.145 24.6725 139.145C22.8689 139.145 21.426 139.145 20.4641 139.145C19.382 139.145 18.901 139.145 18.901 139.145C18.901 139.145 19.382 139.145 20.3439 139.145C21.3058 139.145 22.7486 139.145 24.5522 139.145C28.2796 139.145 33.6904 139.145 40.6642 139.145C54.6119 139.145 74.6918 139.265 99.2204 139.265H99.4609V139.024C99.4609 105.718 99.4609 63.5145 99.4609 17.7036V17.4631H99.2204C70.6036 17.4631 43.4297 17.4631 18.901 17.4631H18.6605V17.7036C18.6605 53.4145 18.7808 83.8349 18.7808 105.237C18.7808 115.939 18.7808 124.355 18.901 130.127C18.901 133.012 18.901 135.177 18.901 136.74C18.901 137.461 18.901 138.063 18.901 138.423C18.901 139.024 18.901 139.145 18.901 139.145Z" fill="#E1E7F5"/>
<path d="M5.31435 1.1106C5.19411 1.1106 6.03579 2.19274 7.23818 3.87608C8.44056 5.55943 10.2442 7.84396 12.2882 10.2487C14.3323 12.6535 16.1358 14.8178 17.5787 16.3809C19.0216 17.944 19.8632 18.7857 19.9835 18.7857C20.1037 18.7857 19.262 17.7035 17.9394 16.1404C16.4965 14.4571 14.693 12.2928 12.7692 9.88802C10.8453 7.48324 9.04178 5.43919 7.59891 3.63561C6.27629 2.0725 5.43459 1.1106 5.31435 1.1106Z" fill="#E1E7F5"/>
<path d="M18.4204 138.784C14.4525 145.157 9.76322 151.048 4.47272 156.339L18.4204 138.784Z" fill="white"/>
<path d="M4.47263 156.339C4.47263 156.339 5.43454 155.618 6.8774 154.175C8.32026 152.732 10.2441 150.688 12.1679 148.163C14.0917 145.758 15.775 143.473 16.8572 141.67C17.9393 139.987 18.5405 138.784 18.5405 138.784C18.4203 138.784 17.6989 139.746 16.6167 141.429C15.4144 143.113 13.731 145.397 11.8072 147.802C9.88337 150.207 8.07977 152.371 6.63691 153.814C5.31428 155.257 4.47263 156.219 4.47263 156.339Z" fill="#E1E7F5"/>
<path d="M112.447 155.858C107.757 150.086 103.068 144.315 98.4991 138.543L112.447 155.858Z" fill="white"/>
<path d="M105.244 147.36C101.397 142.614 98.3623 138.698 98.4655 138.614C98.5687 138.531 101.771 142.311 105.618 147.057C109.465 151.803 112.5 155.719 112.397 155.803C112.294 155.886 109.091 152.106 105.244 147.36Z" fill="#E1E7F5"/>
<path d="M99.2918 17.695C99.1876 17.6126 102.042 13.8304 105.667 9.24716C109.291 4.66393 112.314 1.01527 112.419 1.09765C112.523 1.18003 109.669 4.96227 106.044 9.54551C102.419 14.1287 99.3959 17.7774 99.2918 17.695Z" fill="#E1E7F5"/>
<path d="M43.7906 42.4727H70.7241V118.824H43.7906V42.4727Z" fill="#E1E7F5"/>
</svg>
