<svg width="350" height="487" viewBox="0 0 350 487" fill="none" xmlns="http://www.w3.org/2000/svg">
<path d="M0.72879 197.812H349.661V208.994H0.72879V197.812Z" fill="#E1E7F5"/>
<path d="M318.039 486.384H329.341V207.551H318.039V486.384Z" fill="#E1E7F5"/>
<path d="M17.322 486.384H28.7446L28.6244 207.551H17.322V486.384Z" fill="#E1E7F5"/>
<path d="M214.393 95.1277C214.393 95.1277 152.109 160.417 153.191 174.846C154.274 189.275 168.221 192.521 172.79 191.92C177.359 191.319 211.627 153.203 211.627 153.203L214.393 95.1277Z" fill="#E3707F"/>
<g opacity="0.4">
<g opacity="0.4">
<path opacity="0.4" d="M214.393 95.1277C214.393 95.1277 152.109 160.417 153.191 174.846C154.274 189.275 168.221 192.521 172.79 191.92C177.359 191.319 211.627 153.203 211.627 153.203L214.393 95.1277Z" fill="#251A51"/>
</g>
</g>
<path d="M181.207 417.488L164.374 474L145.376 463.659L156.198 411.957L181.207 417.488Z" fill="#FFBE9D"/>
<path d="M147.661 438.77L141.889 465.463C141.889 465.463 112.791 468.589 111.228 473.399L162.69 486.625L173.512 445.383L147.661 438.77Z" fill="#E3707F"/>
<path d="M158.362 467.387C159.324 467.868 159.684 469.19 159.203 470.152C158.722 471.114 157.4 471.475 156.438 470.994C155.476 470.513 154.995 468.95 155.596 468.108C156.197 467.267 157.76 466.786 158.602 467.507" fill="#E1E7F5"/>
<g opacity="0.4">
<g opacity="0.4">
<path opacity="0.4" d="M162.69 486.625L163.652 482.417L113.994 471.355C113.994 471.355 111.469 471.715 111.349 473.399L162.69 486.625Z" fill="#251A51"/>
</g>
</g>
<path d="M141.168 465.102C141.168 465.343 142.37 465.824 143.332 466.906C144.414 467.988 144.775 469.31 145.015 469.19C145.256 469.19 145.256 467.627 144.053 466.304C142.731 464.982 141.168 464.862 141.168 465.102Z" fill="#251A51"/>
<path d="M135.156 465.944C135.035 466.184 135.997 466.906 136.599 468.108C137.2 469.431 137.2 470.633 137.44 470.633C137.681 470.753 138.162 469.31 137.44 467.747C136.719 466.184 135.276 465.703 135.156 465.944Z" fill="#251A51"/>
<path d="M130.466 471.595C130.707 471.715 131.308 470.513 131.068 468.95C130.827 467.387 129.745 466.545 129.625 466.786C129.384 466.906 129.985 467.868 130.226 469.19C130.346 470.393 130.226 471.475 130.466 471.595Z" fill="#251A51"/>
<path d="M143.091 459.09C143.091 459.331 144.414 459.331 145.737 459.812C147.18 460.293 148.141 461.014 148.262 460.774C148.502 460.653 147.661 459.451 145.977 458.85C144.414 458.369 143.091 458.85 143.091 459.09Z" fill="#251A51"/>
<path d="M144.414 453.8C144.414 453.92 145.376 454.281 146.939 454.401C147.781 454.521 148.743 454.401 149.825 454.281C150.426 454.16 150.907 454.04 151.508 453.92C151.749 453.8 152.109 453.8 152.47 453.559C152.831 453.319 153.191 452.718 152.951 452.237C152.831 451.756 152.35 451.515 151.989 451.395C151.628 451.275 151.268 451.275 151.027 451.275C150.426 451.275 149.825 451.275 149.344 451.395C148.262 451.635 147.3 451.996 146.578 452.357C145.135 453.199 144.414 454.04 144.534 454.04C144.654 454.16 145.376 453.559 146.819 452.958C147.54 452.718 148.382 452.357 149.464 452.237C149.945 452.116 150.546 452.116 151.027 452.116C151.628 452.116 152.109 452.237 152.109 452.477C152.109 452.597 152.109 452.597 151.989 452.718C151.869 452.838 151.628 452.958 151.268 452.958C150.787 453.199 150.185 453.319 149.705 453.439C148.743 453.679 147.781 453.8 146.939 453.8C145.376 453.8 144.414 453.679 144.414 453.8Z" fill="#251A51"/>
<path d="M144.654 454.161C144.775 454.281 145.496 453.439 145.977 451.876C146.217 451.034 146.338 450.072 146.338 448.99C146.338 448.389 146.217 447.908 146.097 447.307C145.977 446.706 145.736 445.984 144.775 445.624C144.294 445.503 143.692 445.744 143.572 446.105C143.332 446.465 143.211 446.706 143.091 446.946C142.851 447.547 142.73 448.149 142.61 448.63C142.49 449.712 142.731 450.794 142.971 451.515C143.692 453.078 144.654 453.68 144.654 453.559C144.775 453.439 144.053 452.718 143.572 451.275C143.332 450.553 143.211 449.591 143.332 448.63C143.452 448.149 143.572 447.668 143.813 447.187C144.053 446.706 144.294 446.225 144.534 446.345C144.775 446.465 145.135 446.946 145.256 447.427C145.376 447.908 145.496 448.509 145.496 448.99C145.616 449.952 145.496 450.914 145.376 451.635C145.015 453.199 144.534 454.161 144.654 454.161Z" fill="#251A51"/>
<path d="M227.138 256.367C226.537 258.892 182.41 438.89 182.41 438.89L142.37 426.746L180.245 244.464L227.138 256.367Z" fill="#251A51"/>
<path d="M233.03 26.4714L240.004 80.218C241.206 89.3562 234.473 97.6526 225.335 98.3741C216.798 99.0955 209.103 92.8431 208.021 84.3062C207.54 80.218 207.059 76.8514 206.938 76.4906C206.938 76.4906 193.111 76.9716 190.345 63.6251C189.023 57.1322 187.34 43.5452 186.017 31.2809C184.574 18.0547 193.472 5.91054 206.578 3.50577L207.9 3.2653C221.968 1.22124 231.467 12.2832 233.03 26.4714Z" fill="#FFBE9D"/>
<path d="M206.938 76.2498C206.938 76.2498 215.595 75.2879 223.531 67.9534C223.531 67.9534 221.247 78.4141 207.54 79.857L206.938 76.2498Z" fill="#EB996E"/>
<path d="M189.865 38.8556C189.985 39.8175 191.067 40.539 192.149 40.4187C193.231 40.2985 193.953 39.3366 193.832 38.2544C193.712 37.2925 192.63 36.5711 191.668 36.6913C190.466 36.8116 189.744 37.7735 189.865 38.8556Z" fill="#251A51"/>
<path d="M189.744 36.4509C189.985 36.6914 191.307 35.2485 193.351 34.8878C195.395 34.4069 197.079 35.2485 197.319 34.8878C197.439 34.7676 197.079 34.4069 196.357 34.0461C195.636 33.6854 194.434 33.4449 193.111 33.6854C191.788 33.9259 190.826 34.6473 190.345 35.2485C189.744 35.8497 189.624 36.4509 189.744 36.4509Z" fill="#251A51"/>
<path d="M210.666 35.8498C210.786 36.8117 211.868 37.5331 212.95 37.4129C214.032 37.2926 214.754 36.3307 214.633 35.2486C214.513 34.2867 213.431 33.5652 212.469 33.6855C211.267 33.926 210.545 34.8879 210.666 35.8498Z" fill="#251A51"/>
<path d="M210.425 33.2046C210.665 33.4451 211.988 32.0022 214.032 31.6415C216.076 31.1605 217.76 32.0022 218 31.6415C218.12 31.5212 217.76 31.1605 217.038 30.7998C216.317 30.4391 215.114 30.1986 213.792 30.4391C212.469 30.6796 211.507 31.401 211.026 32.0022C210.425 32.6034 210.305 33.2046 210.425 33.2046Z" fill="#251A51"/>
<path d="M205.976 50.519C205.976 50.3987 204.654 50.3987 202.489 50.519C202.008 50.519 201.407 50.5189 201.287 50.1582C201.046 49.7975 201.167 49.1963 201.287 48.4749C201.527 47.1523 201.768 45.7094 202.129 44.1463C203.211 38.0141 203.812 32.9641 203.571 32.9641C203.331 32.9641 202.249 37.8939 201.167 44.0261C200.926 45.5892 200.686 47.032 200.445 48.3547C200.325 48.9558 200.205 49.7975 200.565 50.519C200.806 50.8797 201.167 51.1201 201.527 51.1201C201.888 51.1201 202.129 51.1201 202.489 51.1201C204.774 50.8797 205.976 50.6392 205.976 50.519Z" fill="#251A51"/>
<path d="M208.982 28.9963C209.343 29.4773 211.267 28.8761 213.792 28.6356C216.317 28.3952 218.361 28.7559 218.601 28.1547C218.722 27.9142 218.241 27.4332 217.399 27.0725C216.557 26.7118 215.114 26.3511 213.672 26.4713C212.229 26.5916 210.906 27.0725 210.064 27.5535C209.223 28.2749 208.862 28.7559 208.982 28.9963Z" fill="#251A51"/>
<path d="M188.782 28.9963C189.263 29.357 190.586 28.6356 192.269 28.2749C193.952 27.9142 195.516 28.0344 195.756 27.4332C195.876 27.1927 195.516 26.7118 194.794 26.4713C194.073 26.1106 192.991 25.9903 191.788 26.2308C190.586 26.4713 189.624 27.0725 189.143 27.6737C188.662 28.2749 188.542 28.7558 188.782 28.9963Z" fill="#251A51"/>
<path d="M233.751 36.5713C233.992 36.4511 242.409 32.0023 243.972 41.2607C245.415 50.519 235.796 50.0381 235.796 49.7976C235.796 49.6774 233.751 36.5713 233.751 36.5713Z" fill="#FFBE9D"/>
<path d="M238.08 45.9498C238.08 45.9498 238.2 46.07 238.561 46.07C238.802 46.1903 239.283 46.1903 239.764 45.9498C240.725 45.4688 241.206 43.7855 241.086 42.1022C240.966 41.2605 240.725 40.5391 240.244 39.8176C239.884 39.2164 239.283 38.7355 238.802 38.7355C238.321 38.7355 237.96 39.0962 237.96 39.3367C237.84 39.5772 237.96 39.8176 237.96 39.8176C237.96 39.8176 237.719 39.6974 237.719 39.3367C237.719 39.0962 237.84 38.8557 237.96 38.7355C238.2 38.495 238.441 38.3748 238.802 38.3748C239.523 38.2545 240.244 38.8557 240.725 39.5772C241.206 40.2986 241.567 41.1403 241.687 42.1022C241.928 44.026 241.206 45.8296 240.004 46.4308C239.403 46.6712 238.802 46.551 238.441 46.4308C238.2 46.1903 238.08 45.9498 238.08 45.9498Z" fill="#EB996E"/>
<path d="M238.922 35.2489C237.479 35.1287 235.315 36.9322 234.954 38.3751C234.593 39.818 234.713 41.2608 234.473 42.7037C234.112 44.1466 233.03 45.5894 231.587 45.4692C230.625 45.4692 229.663 44.6275 229.303 43.7859C228.822 42.8239 228.822 41.862 228.702 40.7799C228.461 36.3311 228.461 32.0025 227.86 27.5536C227.259 23.225 225.696 18.7762 222.69 15.5298C219.684 12.2833 214.994 10.3595 210.786 11.5619C208.02 12.2833 205.616 14.3274 202.85 15.2893C199.604 16.3714 195.756 15.8905 192.87 13.9667C192.75 13.8464 192.63 13.8464 192.389 13.7262C191.428 13.2452 190.706 12.1631 190.947 11.0809C191.067 10.7202 191.187 10.3595 191.307 10.119C195.997 3.86661 205.856 0.37969 213.551 0.860645C221.367 1.3416 229.303 5.18923 233.872 11.5619C238.321 18.0548 239.283 27.9143 238.922 35.2489Z" fill="#251A51"/>
<path d="M201.89 56.7499C201.822 56.5629 203.029 55.9462 204.586 55.3723C206.144 54.7983 207.463 54.4846 207.531 54.6715C207.6 54.8585 206.393 55.4753 204.836 56.0492C203.278 56.6231 201.959 56.9368 201.89 56.7499Z" fill="#251A51"/>
<path d="M191.788 67.1118C191.668 67.1118 191.908 68.194 192.99 69.6368C193.952 71.0797 195.636 72.763 198.04 73.9654C200.325 75.1678 202.61 75.769 204.293 76.1297C205.976 76.4904 206.938 76.6107 207.058 76.4904C207.058 76.3702 206.096 76.1297 204.413 75.6488C202.85 75.1678 200.565 74.5666 198.281 73.3642C195.996 72.1618 194.313 70.5987 193.351 69.2761C192.269 68.0737 191.908 67.1118 191.788 67.1118Z" fill="#EB996E"/>
<path d="M198.281 73.9656C201.527 75.6489 203.932 79.9775 205.976 82.8632C206.577 83.7049 207.299 84.6668 207.419 85.749C207.659 86.8311 207.178 88.0335 206.818 89.1156C206.217 90.6787 205.495 92.2419 204.894 93.805C204.653 94.2859 204.413 94.7669 203.932 94.8871C203.331 95.0073 202.85 94.4061 202.609 93.9252C202.008 92.4823 202.008 90.9192 201.888 89.3561C201.647 87.793 201.046 86.2299 199.603 85.5085" fill="#EB996E"/>
<path d="M193.11 85.9895L196.237 83.5848C196.597 83.224 197.199 83.3443 197.559 83.705L199.243 85.6288L198.401 90.5586C197.319 96.811 202.008 95.8491 202.008 95.8491L202.369 94.6467L204.413 86.9515C204.774 83.2241 204.533 82.8633 202.73 80.2181L198.762 74.5669C197.92 73.3645 196.357 72.8835 195.034 73.3645C189.383 75.4085 177.239 79.2562 175.916 83.9455C173.391 92.6027 171.467 114.847 171.347 115.208L188.421 116.771L188.301 101.981C188.301 101.981 190.826 100.538 191.547 97.8932C192.509 95.4884 193.11 85.9895 193.11 85.9895Z" fill="#FFBE9D"/>
<path d="M181.327 88.8751C181.327 88.8751 181.567 89.1156 181.928 89.5965C182.409 89.9572 183.131 90.5584 184.213 90.7989C184.814 90.9191 185.415 90.9191 186.016 90.7989C186.617 90.6787 187.339 90.318 187.82 89.7168C188.782 88.5144 189.022 86.831 189.864 85.5084C190.345 84.9072 190.946 84.4263 191.668 84.0655C192.269 83.7048 192.99 83.3441 193.591 82.9834C194.193 82.7429 194.914 82.3822 195.395 82.5024C195.876 82.6227 196.357 82.9834 196.838 83.3441C198.401 84.787 199.243 85.8691 199.363 85.7489C199.363 85.7489 199.243 85.3882 198.882 84.9072C198.521 84.4263 198.04 83.7048 197.198 82.9834C196.838 82.6227 196.357 82.1417 195.635 82.0215C195.395 82.0215 195.275 82.0215 195.034 82.0215C194.794 82.0215 194.673 82.1417 194.553 82.1417C194.193 82.262 193.832 82.3822 193.591 82.5024C192.87 82.7429 192.269 83.1036 191.547 83.5846C190.826 84.0655 190.225 84.4263 189.623 85.1477C188.662 86.5906 188.541 88.2739 187.579 89.356C186.738 90.4382 185.415 90.5584 184.453 90.4382C183.491 90.318 182.65 89.837 182.169 89.4763C181.567 89.1156 181.327 88.8751 181.327 88.8751Z" fill="#EB996E"/>
<path d="M183.251 94.1658C183.251 94.2861 185.415 94.0456 188.061 93.3241C190.706 92.6027 192.63 91.6408 192.63 91.4003C192.51 91.2801 190.465 91.8813 187.94 92.723C185.295 93.4444 183.131 93.9253 183.251 94.1658Z" fill="#EB996E"/>
<path d="M189.263 86.1098C193.712 86.1098 194.313 85.8693 199.363 86.23C200.084 86.23 200.926 86.3503 201.648 86.5907C202.369 86.8312 202.97 87.4324 203.211 88.1538C203.571 89.5967 202.128 90.7991 200.806 91.1598C199.363 91.5205 197.92 91.28 196.477 91.5205C194.313 92.0015 192.149 93.0836 190.826 94.8872C187.94 99.0956 184.814 97.0515 182.77 98.4944L177.48 95.1277L179.283 87.4324L189.263 86.1098Z" fill="#FFBE9D"/>
<path d="M182.289 98.3743C182.289 98.4946 182.77 98.0136 183.732 97.8934C184.694 97.6529 186.137 97.8934 187.94 97.1719C188.782 96.8112 189.624 96.0898 190.225 95.2481C190.826 94.4064 191.547 93.685 192.509 93.0838C193.471 92.4826 194.553 92.0017 195.756 91.7612C196.958 91.4005 198.281 91.641 199.603 91.4005C201.046 91.2802 202.489 90.4386 202.85 88.9957C203.09 88.2743 202.85 87.4326 202.369 86.9517C201.888 86.4707 201.287 86.11 200.686 85.9897C199.483 85.7493 198.401 85.7493 197.319 85.7493C196.237 85.7493 195.275 85.7493 194.433 85.7493C192.63 85.7493 191.187 85.8695 190.225 85.8695C189.263 85.8695 188.662 85.9897 188.662 85.9897C188.662 85.9897 189.263 86.11 190.225 86.11C191.187 86.11 192.63 86.11 194.433 86.11C195.275 86.11 196.237 86.11 197.319 86.2302C198.401 86.3505 199.483 86.2302 200.565 86.5909C201.647 86.8314 202.609 87.7933 202.249 88.8755C201.888 89.9576 200.686 90.679 199.483 90.7993C198.161 90.9195 196.838 90.7993 195.515 91.16C194.313 91.5207 193.111 92.0017 192.028 92.6029C190.946 93.2041 190.225 94.166 189.624 95.0076C189.022 95.8493 188.301 96.4505 187.58 96.8112C186.016 97.5327 184.574 97.4124 183.612 97.6529C183.131 97.7731 182.77 97.8934 182.53 98.0136C182.409 98.2541 182.289 98.3743 182.289 98.3743Z" fill="#EB996E"/>
<path d="M189.744 82.6227C189.744 82.5024 189.383 82.5024 188.902 82.7429C188.421 82.9834 187.941 83.4644 187.7 84.306C187.58 85.1477 187.941 85.7489 188.421 86.1096C188.782 86.4703 189.143 86.4703 189.143 86.3501C189.143 86.2298 188.902 86.1096 188.782 85.7489C188.542 85.3882 188.301 84.9072 188.421 84.306C188.542 83.7048 188.902 83.3441 189.143 82.9834C189.504 82.7429 189.864 82.6227 189.744 82.6227Z" fill="#EB996E"/>
<path d="M179.764 284.143L201.648 338.851L180.365 342.579L156.678 295.445L179.764 284.143Z" fill="#FFBE9D"/>
<path d="M166.778 321.657L178.802 346.186C178.802 346.186 157.88 366.747 159.684 371.436L208.14 349.673L190.826 310.595L166.778 321.657Z" fill="#E3707F"/>
<path d="M192.87 337.408C193.952 337.288 195.034 338.01 195.275 339.092C195.515 340.174 194.673 341.256 193.712 341.496C192.629 341.737 191.307 340.775 191.187 339.693C191.066 338.611 192.028 337.288 193.11 337.408" fill="#E1E7F5"/>
<g opacity="0.4">
<g opacity="0.4">
<path opacity="0.4" d="M208.14 349.793L206.457 345.825L160.526 368.19C160.526 368.19 158.842 370.113 159.684 371.556L208.14 349.793Z" fill="#251A51"/>
</g>
</g>
<path d="M177.961 346.306C178.081 346.547 179.283 346.066 180.846 346.306C182.409 346.547 183.371 347.268 183.612 347.028C183.852 346.907 182.77 345.585 180.967 345.344C179.043 345.224 177.72 346.186 177.961 346.306Z" fill="#251A51"/>
<path d="M173.752 350.755C173.752 350.995 174.954 350.995 176.277 351.596C177.6 352.198 178.201 353.16 178.441 353.039C178.682 352.919 178.201 351.476 176.638 350.755C175.075 350.033 173.752 350.514 173.752 350.755Z" fill="#251A51"/>
<path d="M173.632 358.089C173.872 358.089 173.632 356.767 172.43 355.685C171.227 354.603 169.904 354.603 169.904 354.843C169.904 355.084 170.866 355.444 171.828 356.286C172.91 357.248 173.391 358.21 173.632 358.089Z" fill="#251A51"/>
<path d="M175.796 340.415C176.036 340.535 176.878 339.813 178.321 339.212C179.644 338.731 180.966 338.611 180.966 338.371C181.086 338.13 179.644 337.769 177.96 338.371C176.397 339.092 175.556 340.294 175.796 340.415Z" fill="#251A51"/>
<path d="M173.391 335.485C173.391 335.605 174.473 335.364 175.796 334.402C176.518 333.921 177.239 333.32 177.96 332.479C178.321 332.118 178.682 331.637 179.043 331.156C179.163 330.916 179.403 330.675 179.524 330.314C179.644 329.954 179.524 329.232 179.043 328.992C178.682 328.751 178.081 328.751 177.72 328.871C177.359 328.992 177.119 329.232 176.878 329.352C176.397 329.713 175.916 330.074 175.556 330.555C174.834 331.396 174.353 332.238 173.993 333.08C173.391 334.643 173.391 335.725 173.391 335.725C173.512 335.725 173.752 334.763 174.474 333.441C174.834 332.719 175.435 331.998 176.037 331.276C176.397 330.916 176.758 330.555 177.239 330.194C177.72 329.833 178.081 329.593 178.321 329.833C178.441 329.954 178.441 329.954 178.441 330.074C178.441 330.314 178.201 330.435 178.081 330.675C177.72 331.156 177.479 331.637 177.119 331.998C176.518 332.839 175.796 333.441 175.195 333.921C174.233 334.883 173.391 335.364 173.391 335.485Z" fill="#251A51"/>
<path d="M173.872 335.605C173.992 335.605 174.113 334.523 173.511 332.96C173.271 332.238 172.67 331.276 171.948 330.435C171.588 330.074 171.107 329.593 170.626 329.232C170.145 328.872 169.544 328.391 168.582 328.751C168.101 328.992 167.86 329.473 167.86 329.833C167.86 330.194 167.98 330.555 167.98 330.795C168.101 331.397 168.461 331.998 168.702 332.479C169.303 333.441 170.145 334.162 170.866 334.523C172.429 335.364 173.511 335.244 173.511 335.124C173.511 335.004 172.55 334.883 171.227 334.042C170.626 333.561 169.904 332.96 169.423 332.118C169.183 331.637 168.942 331.156 168.822 330.675C168.702 330.074 168.702 329.593 168.942 329.593C169.183 329.473 169.784 329.713 170.145 329.954C170.626 330.314 170.986 330.675 171.347 331.036C172.069 331.757 172.55 332.599 172.91 333.2C173.632 334.643 173.752 335.725 173.872 335.605Z" fill="#251A51"/>
<path d="M221.727 218.492L154.153 185.427C142.249 179.655 127.941 182.301 119.043 192.04C110.627 201.058 108.703 214.404 114.114 225.466L158.963 317.569L196.477 305.786L163.532 235.566L200.565 263.822C210.545 271.397 222.809 275.606 235.434 275.726L245.174 275.846C261.406 275.125 276.195 266.107 284.011 251.799L221.727 218.492Z" fill="#251A51"/>
<path d="M158.963 317.569C158.963 317.569 159.203 317.569 159.684 317.449C160.165 317.329 160.766 317.088 161.728 316.848C163.532 316.246 166.057 315.525 169.303 314.563C175.917 312.519 185.175 309.633 196.598 306.026L196.838 305.906L196.718 305.665C190.105 291.477 181.808 273.922 172.911 254.804C169.784 248.071 166.658 241.578 163.772 235.326L163.291 235.687C180.245 248.312 195.515 258.893 206.698 265.866C212.349 269.353 216.918 271.878 220.285 273.321C221.968 274.043 223.291 274.524 224.252 274.644C224.733 274.764 225.094 274.764 225.335 274.764C225.575 274.764 225.695 274.764 225.695 274.764C225.695 274.764 225.214 274.764 224.252 274.524C223.291 274.283 221.968 273.802 220.405 273.081C217.158 271.638 212.469 268.993 206.938 265.506C195.756 258.532 180.606 247.951 163.652 235.206L162.69 234.484L163.171 235.566C166.057 241.819 169.183 248.312 172.309 255.045C181.327 274.043 189.503 291.718 196.237 305.786L196.357 305.425C185.055 309.032 175.676 312.038 169.063 314.082C165.816 315.164 163.291 316.006 161.488 316.487C160.646 316.727 160.045 316.968 159.564 317.088C159.083 317.449 158.963 317.569 158.963 317.569Z" fill="#455A64"/>
<path d="M150.787 220.176C150.666 220.296 154.875 222.46 158.602 226.909C162.33 231.238 163.652 235.807 163.772 235.687C163.893 235.687 163.652 234.484 162.931 232.801C162.209 230.997 160.887 228.713 159.083 226.548C157.159 224.384 155.115 222.701 153.552 221.619C151.869 220.536 150.787 220.176 150.787 220.176Z" fill="#455A64"/>
<path d="M293.871 350.635H196.718C195.395 350.635 194.313 351.717 194.193 353.04C194.193 354.482 195.275 355.565 196.718 355.565H293.871C295.193 355.565 296.396 354.482 296.396 353.04C296.396 351.717 295.313 350.635 293.871 350.635Z" fill="#E1E7F5"/>
<path d="M209.583 288.712H285.574C285.574 280.536 278.961 274.043 270.905 274.043H224.373C216.076 274.043 209.583 280.656 209.583 288.712Z" fill="#455A64"/>
<path d="M207.058 288.712H287.258V293.16H207.058V288.712Z" fill="#E1E7F5"/>
<path d="M280.164 293.161L299.762 486.384H295.193L271.266 293.161H280.164Z" fill="#E1E7F5"/>
<path d="M214.874 293.161L195.275 486.264H199.844L223.772 293.281L214.874 293.161Z" fill="#E1E7F5"/>
<path d="M242.168 291.478L245.415 486.384H250.224L252.268 290.997L242.168 291.478Z" fill="#E1E7F5"/>
<path d="M243.731 79.737L238.922 65.3083L207.539 79.8572L208.982 95.1275L224.613 99.5764L240.004 90.0775L243.731 79.737Z" fill="#E3707F"/>
<path d="M283.891 251.678C283.891 251.678 288.219 249.033 288.34 242.901C288.34 237.129 283.169 236.648 283.049 233.402C281.366 200.216 277.518 131.68 275.113 110.037C271.987 82.7429 240.004 76.9714 240.004 76.9714L213.551 83.4643V85.5084C204.413 97.2918 200.445 114.967 200.445 129.876L201.648 208.753L283.891 251.678Z" fill="#E3707F"/>
<path d="M254.192 207.551C254.192 207.551 254.553 208.032 255.154 208.873C255.755 209.715 256.837 210.917 258.039 212.36C260.564 215.246 264.172 219.094 268.38 223.182C272.588 227.27 276.676 230.637 279.682 233.041C281.246 234.244 282.448 235.206 283.29 235.807C284.131 236.408 284.612 236.769 284.732 236.769C284.732 236.769 284.372 236.288 283.53 235.687C282.568 234.965 281.486 234.003 280.043 232.801C277.157 230.396 273.069 226.909 268.861 222.821C264.653 218.853 261.045 215.006 258.4 212.12C257.198 210.797 256.116 209.595 255.394 208.753C254.673 207.911 254.312 207.551 254.192 207.551Z" fill="#251A51"/>
<g opacity="0.2">
<g opacity="0.2">
<g opacity="0.2">
<path opacity="0.2" d="M280.284 233.282C280.164 228.232 276.436 224.143 272.709 220.777C268.38 216.809 263.811 213.202 258.881 209.955C258.641 212.36 260.324 214.524 261.887 216.448C267.298 222.58 273.31 228.352 279.803 233.402" fill="#251A51"/>
</g>
</g>
</g>
<path d="M232.405 73.3526C231.698 71.0691 231.278 69.1701 231.468 69.1112C231.659 69.0522 232.387 70.8555 233.095 73.139C233.802 75.4225 234.222 77.3215 234.032 77.3805C233.841 77.4395 233.113 75.6362 232.405 73.3526Z" fill="#251A51"/>
<path d="M222.35 77.3855C221.829 75.1203 221.565 73.2479 221.759 73.2033C221.953 73.1587 222.532 74.9588 223.053 77.224C223.573 79.4892 223.837 81.3616 223.643 81.4062C223.449 81.4508 222.87 79.6507 222.35 77.3855Z" fill="#251A51"/>
<path d="M212.709 77.8132C212.589 77.8132 212.83 79.4965 213.07 81.6608C213.311 83.7049 213.431 85.3882 213.671 85.3882C213.792 85.3882 214.032 83.7049 213.792 81.5406C213.311 79.3763 212.83 77.693 212.709 77.8132Z" fill="#251A51"/>
<path d="M244.332 155.006C244.332 155.006 244.813 155.127 245.655 155.127C246.497 155.127 247.699 155.127 249.262 155.127C252.388 155.127 256.597 155.127 261.286 155.006C265.975 154.886 270.184 154.766 273.31 154.646C274.873 154.646 276.075 154.525 276.917 154.525C277.759 154.525 278.24 154.405 278.24 154.405C278.24 154.405 277.759 154.285 276.917 154.285C276.075 154.285 274.873 154.285 273.31 154.285C270.184 154.285 265.975 154.285 261.286 154.405C256.597 154.525 252.388 154.646 249.262 154.766C247.819 154.886 246.617 154.886 245.655 154.886C244.813 154.886 244.332 154.886 244.332 155.006Z" fill="#FAFAFA"/>
<path d="M251.089 144.865C251.085 144.666 257.109 144.376 264.545 144.217C271.981 144.058 278.013 144.091 278.017 144.29C278.021 144.489 271.997 144.78 264.561 144.938C257.125 145.097 251.093 145.064 251.089 144.865Z" fill="#FAFAFA"/>
<g opacity="0.2">
<g opacity="0.2">
<g opacity="0.2">
<path opacity="0.2" d="M262.488 129.275C252.869 150.197 241.086 169.074 227.499 187.591C224.012 192.401 220.164 197.21 215.114 200.216C210.064 203.222 206.698 202.381 201.527 199.375C207.179 197.571 208.742 196.97 213.551 193.483C218.361 189.996 222.208 185.307 225.695 180.497C237.719 163.904 249.503 146.95 261.526 130.358" fill="#251A51"/>
</g>
</g>
</g>
<path d="M162.45 159.095C162.209 157.772 161.969 156.329 161.367 155.127C160.646 153.925 159.444 152.963 158.001 152.963C156.558 152.963 155.235 154.285 155.596 155.728C155.836 156.57 156.438 157.171 156.919 157.772C158.482 159.816 158.361 162.702 158.241 165.227C158.241 167.872 158.602 170.758 160.646 172.321" fill="#FFBE9D"/>
<path d="M257.919 98.7349C268.139 105.829 270.304 120.017 262.849 129.877L218.962 187.712C209.463 200.096 192.389 204.064 178.441 197.21C166.538 191.439 159.323 179.054 160.045 165.828L169.664 104.987L193.351 106.43L191.066 155.969L227.619 104.025C234.472 94.2861 248.059 91.8813 257.919 98.7349Z" fill="#E3707F"/>
<path d="M163.171 183.142C168.942 181.82 170.024 180.737 175.796 179.415C177.479 179.054 179.764 177.852 178.922 176.048C178.561 175.086 177.479 174.485 176.397 174.605C174.112 174.846 170.505 176.168 168.341 176.289C167.74 176.289 167.86 175.808 168.1 175.447C171.708 174.365 175.315 173.643 178.922 173.162C181.206 172.802 182.168 169.796 180.245 168.473C180.004 168.353 178.922 167.992 178.681 167.992C176.397 168.353 176.397 168.353 173.872 168.714C166.898 169.916 167.86 168.593 167.86 168.593C167.86 168.112 175.796 167.271 179.884 166.79C180.726 166.67 181.687 166.549 182.289 165.828C183.01 164.986 182.77 163.664 182.048 162.942C181.327 162.101 180.365 161.62 179.283 161.499C174.714 161.379 159.924 163.062 159.924 163.062C159.924 163.062 158 165.708 158.602 171.118C159.083 177.13 163.171 183.142 163.171 183.142Z" fill="#FFBE9D"/>
<path d="M184.213 199.375C184.213 199.375 184.453 199.375 184.814 199.495C185.295 199.495 185.896 199.615 186.618 199.735C188.301 199.856 190.706 200.096 193.712 200.096C196.838 200.096 200.686 199.976 204.894 198.533C209.102 197.09 213.431 194.204 217.278 190.116C221.126 186.148 224.853 181.339 228.942 176.169C232.909 170.998 236.998 165.347 241.326 159.455C245.655 153.444 250.104 147.191 254.673 140.698C256.957 137.452 259.242 134.085 261.647 130.718C262.248 129.877 262.849 129.035 263.45 128.193L264.292 126.871C264.532 126.39 264.773 125.909 265.013 125.428C265.975 123.504 266.576 121.46 266.937 119.416C267.298 117.252 267.298 115.087 267.057 113.043C266.937 111.961 266.697 110.999 266.456 109.917C266.095 108.955 265.855 107.873 265.374 106.911C265.013 105.949 264.412 104.987 263.931 104.146C263.33 103.304 262.849 102.462 262.127 101.621C260.805 100.058 259.242 98.7349 257.558 97.5325C255.875 96.3301 254.071 95.4885 252.148 94.8873C250.224 94.2861 248.3 93.9254 246.376 93.8051C242.529 93.5646 238.681 94.5266 235.314 96.2099C232.068 97.8932 229.182 100.418 227.258 103.304C225.334 106.19 223.411 108.955 221.487 111.6C217.759 117.011 214.272 121.941 211.146 126.51C204.894 135.648 199.724 142.983 196.237 148.153C194.553 150.678 193.11 152.722 192.149 154.045C191.668 154.766 191.307 155.247 191.066 155.608C190.826 155.969 190.706 156.089 190.706 156.089C190.706 156.089 190.826 155.969 191.066 155.608C191.307 155.247 191.668 154.766 192.149 154.045C193.11 152.722 194.553 150.678 196.237 148.153C199.844 143.103 205.014 135.648 211.387 126.63C214.513 122.061 218 117.131 221.848 111.721C223.771 109.075 225.695 106.31 227.619 103.424C229.543 100.659 232.308 98.1337 235.555 96.4504C238.801 94.8873 242.529 93.9254 246.256 94.1658C248.18 94.1658 249.983 94.6468 251.907 95.248C253.711 95.8492 255.514 96.6909 257.077 97.8932C258.641 98.9754 260.204 100.298 261.526 101.861C262.248 102.583 262.729 103.424 263.33 104.266C263.811 105.108 264.412 106.069 264.773 106.911C265.254 107.873 265.494 108.835 265.855 109.797C266.095 110.759 266.336 111.841 266.456 112.803C266.697 114.847 266.697 116.891 266.336 119.055C265.975 121.099 265.374 123.143 264.412 124.947C263.57 126.751 262.248 128.434 261.166 130.117C258.761 133.484 256.476 136.851 254.192 140.097C249.623 146.59 245.174 152.963 240.845 158.854C236.517 164.866 232.429 170.397 228.461 175.688C224.493 180.858 220.765 185.667 216.918 189.635C213.07 193.603 208.862 196.609 204.774 197.932C200.565 199.375 196.718 199.495 193.712 199.615C190.585 199.615 188.181 199.375 186.618 199.375C185.776 199.375 185.175 199.254 184.814 199.254C184.453 199.375 184.213 199.375 184.213 199.375Z" fill="#251A51"/>
<path d="M188.421 174.245C188.661 174.245 187.218 169.796 188.06 164.385C188.902 158.975 191.667 155.247 191.427 155.127C191.427 155.127 190.585 155.969 189.743 157.532C188.902 159.095 187.94 161.5 187.459 164.265C186.978 167.031 187.218 169.556 187.579 171.359C187.94 173.163 188.421 174.245 188.421 174.245Z" fill="#251A51"/>
<path d="M187.82 112.923C187.94 112.923 188.541 111.48 188.662 109.677C188.782 107.753 188.541 106.31 188.421 106.31C188.301 106.31 188.301 107.753 188.06 109.556C187.94 111.48 187.7 112.923 187.82 112.923Z" fill="#251A51"/>
<path d="M181.327 112.322C181.447 112.322 182.048 110.999 182.289 109.196C182.529 107.392 182.289 105.829 182.168 105.949C182.048 105.949 181.928 107.392 181.688 109.196C181.447 110.879 181.207 112.322 181.327 112.322Z" fill="#251A51"/>
<path d="M174.942 110.877C174.743 110.866 174.644 109.675 174.721 108.216C174.798 106.758 175.021 105.583 175.22 105.594C175.419 105.604 175.518 106.795 175.441 108.254C175.364 109.713 175.141 110.887 174.942 110.877Z" fill="#251A51"/>
<path d="M231.261 136.28C221.983 129.849 214.553 124.503 214.667 124.339C214.78 124.175 222.394 129.256 231.672 135.688C240.951 142.119 248.38 147.465 248.267 147.629C248.153 147.793 240.54 142.712 231.261 136.28Z" fill="#FAFAFA"/>
<path d="M220.525 115.568C220.525 115.568 221.006 115.929 221.847 116.53C222.809 117.251 224.011 118.093 225.575 119.055C228.701 121.219 232.909 124.225 237.598 127.712C242.288 131.199 246.376 134.325 249.382 136.73C250.825 137.812 252.027 138.774 252.869 139.496C253.71 140.097 254.191 140.458 254.191 140.458C254.191 140.458 253.831 139.977 252.989 139.255C252.147 138.534 251.065 137.572 249.622 136.369C246.737 133.965 242.648 130.718 237.959 127.231C233.27 123.744 228.941 120.859 225.815 118.694C224.252 117.612 222.929 116.891 222.088 116.29C221.006 115.929 220.525 115.568 220.525 115.568Z" fill="#FAFAFA"/>
</svg>
