<svg width="527" height="282" viewBox="0 0 527 282" fill="none" xmlns="http://www.w3.org/2000/svg">
<path d="M58.5289 54.1924C58.5289 54.1924 44.3416 58.1077 56.6177 88.6925C68.8937 119.277 77.9109 134.69 77.9109 134.69C77.9109 134.69 79.9481 141.723 74.1357 142.26C68.3232 142.797 55.9384 139.661 52.7605 146.417C49.467 153.429 54.1182 160.754 64.2434 167.71C74.3793 174.681 96.0206 190.755 97.9722 192.209C99.8889 193.647 101.633 196.99 97.7407 197.984C93.8475 198.99 65.2858 199.378 66.282 212.924C67.2782 226.471 98.6966 241.232 102.105 242.917C105.513 244.602 106.213 246.167 105.758 248.077C105.29 249.985 95.6815 249.221 87.5633 249.661C79.4451 250.101 70.1097 252.043 71.3374 259.815C72.5664 267.574 90.365 285.274 136.688 294.069L158.419 296.748L171.94 279.399C198.612 240.51 198.803 215.413 194.202 209.027C189.613 202.642 181.614 207.842 175.54 213.255C169.467 218.655 163.183 225.981 161.512 224.953C159.842 223.924 159.234 222.308 160.474 218.711C161.703 215.114 173.618 182.503 164.793 172.177C155.966 161.864 135.412 181.706 131.951 183.731C128.477 185.767 127.364 182.167 127.715 179.791C128.069 177.38 132.12 150.721 134.412 138.625C136.702 126.54 134.845 118.07 127.577 115.42C120.556 112.86 113.971 123.818 109.48 127.539C104.977 131.246 101.471 124.827 101.471 124.827C101.471 124.827 97.0256 107.53 84.2078 77.1767C71.3778 46.8218 58.2729 54.2852 58.2729 54.2852" fill="#ECF1FE"/>
<path d="M412.84 290.94C422.167 268.61 438.082 228.635 451.929 194.384C465.765 160.147 478.326 129.161 487.537 106.783C492.144 95.6121 495.885 86.5783 498.475 80.2911C499.756 77.1859 500.761 74.7629 501.449 73.0883C501.771 72.2781 502.03 71.6592 502.21 71.2089C502.382 70.7842 502.441 70.5565 502.441 70.5565C502.441 70.5565 502.33 70.7656 502.146 71.1796C501.952 71.6192 501.681 72.2395 501.331 73.0284C500.618 74.6937 499.574 77.0967 498.242 80.1833C495.571 86.4064 491.755 95.4244 487.097 106.589C477.77 128.919 465.133 159.877 451.297 194.115C437.449 228.366 421.611 268.356 412.387 290.735" fill="#D6DFF5"/>
<path d="M502.003 140.458C501.986 140.411 501.458 140.619 500.524 141.023C499.589 141.414 498.252 142.036 496.6 142.804C493.313 144.365 488.82 146.63 483.923 149.212C479.098 151.786 474.722 154.111 471.386 155.886C469.872 156.675 468.602 157.351 467.573 157.888C466.672 158.361 466.178 158.639 466.206 158.672C466.224 158.719 466.753 158.523 467.686 158.12C468.62 157.717 469.959 157.107 471.595 156.315C474.868 154.732 479.33 152.409 484.226 149.815C489.067 147.276 493.447 144.987 496.81 143.234C498.324 142.444 499.609 141.792 500.637 141.255C501.538 140.782 502.021 140.505 502.003 140.458Z" fill="#D6DFF5"/>
<path d="M464.59 157.414C464.764 157.332 460.499 147.87 455.079 136.285C449.657 124.688 445.114 115.369 444.95 115.437C444.776 115.519 449.041 124.981 454.462 136.565C459.883 148.162 464.414 157.483 464.59 157.414Z" fill="#D6DFF5"/>
<path d="M445.707 210.956C445.74 210.927 445.381 210.479 444.701 209.687C443.923 208.797 442.949 207.696 441.802 206.382C439.356 203.589 436 199.724 432.446 195.317C428.882 190.925 425.793 186.832 423.595 183.851C422.549 182.452 421.675 181.265 420.978 180.329C420.353 179.494 419.996 179.057 419.949 179.075C419.915 179.103 420.194 179.598 420.762 180.477C421.318 181.356 422.151 182.608 423.21 184.128C425.319 187.182 428.353 191.33 431.932 195.745C435.499 200.162 438.924 203.982 441.46 206.704C442.733 208.052 443.778 209.132 444.526 209.867C445.248 210.592 445.673 210.984 445.707 210.956Z" fill="#D6DFF5"/>
<path d="M482.917 203.076C482.911 203.027 482.379 203.089 481.428 203.237C480.334 203.426 479 203.655 477.425 203.924C474.05 204.526 469.397 205.411 464.269 206.438C459.14 207.453 454.495 208.411 451.148 209.145C449.583 209.499 448.269 209.799 447.181 210.036C446.252 210.267 445.742 210.412 445.747 210.461C445.753 210.509 446.285 210.447 447.236 210.299C448.33 210.111 449.664 209.882 451.239 209.612C454.614 209.011 459.267 208.125 464.395 207.098C469.524 206.083 474.169 205.125 477.516 204.392C479.081 204.038 480.395 203.737 481.483 203.5C482.424 203.268 482.933 203.111 482.917 203.076Z" fill="#D6DFF5"/>
<path d="M472.255 252.459C472.249 252.41 471.572 252.489 470.356 252.68C469.022 252.909 467.29 253.197 465.22 253.536C460.894 254.285 454.916 255.374 448.33 256.62C441.745 257.866 435.775 259.027 431.475 259.896C429.417 260.332 427.705 260.691 426.377 260.969C425.181 261.231 424.515 261.406 424.521 261.455C424.527 261.503 425.204 261.424 426.42 261.233C427.754 261.004 429.486 260.717 431.555 260.378C435.882 259.628 441.86 258.539 448.446 257.293C455.031 256.048 460.989 254.887 465.301 254.017C467.359 253.581 469.07 253.222 470.399 252.945C471.605 252.669 472.26 252.507 472.255 252.459Z" fill="#D6DFF5"/>
<path d="M425.61 260.923C425.644 260.895 425.208 260.308 424.378 259.288C423.464 258.18 422.277 256.724 420.846 254.965C417.87 251.314 413.787 246.258 409.433 240.559C405.067 234.861 401.253 229.59 398.514 225.764C397.197 223.93 396.112 222.401 395.276 221.223C394.502 220.16 394.066 219.573 394.02 219.603C393.987 219.631 394.355 220.263 395.06 221.37C395.767 222.49 396.811 224.086 398.128 226.029C400.765 229.929 404.524 235.256 408.892 240.965C413.249 246.688 417.412 251.698 420.476 255.266C422.02 257.048 423.279 258.484 424.175 259.447C425.062 260.423 425.565 260.953 425.61 260.923Z" fill="#D6DFF5"/>
</svg>
