<svg width="203" height="77" viewBox="0 0 203 77" fill="none" xmlns="http://www.w3.org/2000/svg">
<path d="M193.651 76.7846H40.99H0.133301L31.6513 54.0864V9.33868C31.6513 4.15053 35.8018 0 40.99 0H193.651C198.839 0 202.99 4.15053 202.99 9.33868V67.4459C202.99 72.634 198.839 76.7846 193.651 76.7846Z" fill="#ECF1FE"/>
<path d="M185.48 45.2666C185.48 45.1369 156.297 44.8775 120.369 44.8775C84.3113 44.8775 55.1279 45.0072 55.1279 45.2666C55.1279 45.3963 84.3113 45.6557 120.369 45.6557C156.297 45.526 185.48 45.3963 185.48 45.2666Z" fill="#B8CBF7"/>
<path d="M185.48 28.016C185.48 27.8863 156.297 27.6269 120.369 27.6269C84.3113 27.6269 55.1279 27.7566 55.1279 28.016C55.1279 28.1457 84.3113 28.4051 120.369 28.4051C156.297 28.4051 185.48 28.2754 185.48 28.016Z" fill="#B8CBF7"/>
</svg>
