<svg width="176" height="66" viewBox="0 0 176 66" fill="none" xmlns="http://www.w3.org/2000/svg">
<path d="M36.7483 65.8402H139.936H175.027L147.941 46.6501V30.64C147.941 14.301 134.454 0.922707 117.786 0.922707H31.0461C14.3781 0.922707 0.890137 14.1913 0.890137 30.64C0.999795 50.0495 17.0099 65.8402 36.7483 65.8402Z" fill="#E4EAFB"/>
<path d="M124.694 44.3473C124.694 44.2376 101.666 44.0183 73.155 44.0183C44.6439 44.0183 21.6157 44.1279 21.6157 44.3473C21.6157 44.4569 44.6439 44.6762 73.155 44.6762C101.556 44.6762 124.694 44.5666 124.694 44.3473Z" fill="#84A5F1"/>
<path d="M124.694 33.7104C124.694 33.6008 101.666 33.3815 73.155 33.3815C44.6439 33.3815 21.6157 33.4911 21.6157 33.7104C21.6157 33.8201 44.6439 34.0394 73.155 34.0394C101.556 33.9298 124.694 33.8201 124.694 33.7104Z" fill="#84A5F1"/>
</svg>
