<svg width="333" height="335" viewBox="0 0 333 335" fill="none" xmlns="http://www.w3.org/2000/svg">
<path d="M106.984 347.202C56.6921 319.345 39.706 259.655 35.8249 204.822C35.1794 195.671 33.18 186.151 36.6686 177.707C40.179 169.257 49.7217 162.722 58.283 165.71C65.3926 168.19 69.1578 175.76 73.6354 181.879C79.5735 190.029 87.8384 196.404 97.1601 200.071C103.274 202.469 110.656 203.57 116.062 199.813C123.464 194.649 123.268 183.671 122.257 174.622C120.379 157.722 118.502 140.822 116.624 123.922C115.609 114.851 114.621 105.592 116.532 96.6894C118.443 87.7866 123.844 79.1359 132.211 75.8133C140.578 72.4908 151.783 76.345 154.517 85.0469C155.66 88.6719 155.314 92.5711 155.961 96.3254C156.603 100.058 158.803 104.048 162.474 104.716C166.193 105.397 169.564 102.442 172.005 99.5045C180.41 89.3663 185.517 76.9083 190.232 64.5344C194.953 52.1823 199.455 39.5582 206.902 28.6695C214.349 17.7808 225.268 8.65063 238.178 6.56067C251.088 4.47072 265.766 11.0395 270.391 23.4563C275.02 35.8948 268.919 49.6591 261.882 60.8695C251.458 77.4976 238.629 92.5705 223.944 105.469C221.302 107.79 218.432 110.319 217.696 113.778C216.354 120.032 222.728 125.447 228.892 126.81C235.893 128.357 243.155 126.888 250.301 126.992C257.468 127.092 265.453 129.407 268.83 135.808C273.513 144.683 266.785 155.212 259.814 162.379C245.874 176.734 229.491 188.609 211.601 197.392C205.174 200.525 198.398 203.415 193.494 208.658C188.616 213.918 186.205 222.404 190.124 228.461C194.042 234.518 202.599 235.685 209.448 233.668C216.297 231.65 222.164 227.18 228.556 223.985C240.532 217.975 256.72 217.161 265.817 227.092C271.798 233.64 273.29 243.45 271.521 252.163C269.751 260.876 265.132 268.721 260.122 276.013C242.598 301.543 219.007 323.094 191.132 336.139C163.327 349.193 136.816 354.705 106.984 347.202Z" fill="#407BFF"/>
<path d="M117.517 311.472C122.675 283.043 130.9 252.361 140.614 220.563C143.071 212.613 145.508 204.781 147.899 197.051C150.315 189.337 152.698 181.676 155.496 174.359C161.029 159.646 167.462 145.947 173.969 133.12C180.477 120.293 187.127 108.346 193.432 97.2248C199.763 86.1205 205.844 75.8666 211.789 66.7803C223.639 48.5255 234.906 34.9721 243.029 25.9643C247.089 21.4495 250.344 18.0637 252.586 15.7837C253.674 14.7074 254.513 13.8442 255.15 13.2066C255.731 12.6264 256.037 12.3558 256.063 12.3729C256.09 12.39 255.819 12.7213 255.265 13.3185C254.659 13.995 253.847 14.8752 252.816 16.0074C250.659 18.3605 247.487 21.8193 243.507 26.3854C235.541 35.4958 224.45 49.1253 212.789 67.4081C206.918 76.5238 200.907 86.7854 194.646 97.8975C188.416 109.048 181.809 120.986 175.345 133.804C168.882 146.621 162.509 160.285 157.027 174.918C154.251 182.231 151.893 189.795 149.481 197.53C147.091 205.261 144.675 213.088 142.218 221.038C132.521 252.81 124.256 283.409 119.03 311.738" fill="white"/>
<path d="M155.948 174.239C155.839 174.262 155.392 172.924 154.659 170.463C153.925 168.002 152.971 164.405 151.855 159.955C149.625 151.053 146.965 138.67 144.094 124.989C141.224 111.307 138.395 98.983 136.038 90.1317C134.863 85.717 133.891 82.1463 133.179 79.6809C132.489 77.2108 132.147 75.8273 132.255 75.8039C132.359 75.7588 132.915 77.0738 133.796 79.4801C134.699 81.8817 135.844 85.415 137.177 89.8188C139.838 98.6047 142.851 110.935 145.748 124.634C148.559 138.146 151.09 150.352 153.025 159.68C153.928 163.881 154.694 167.45 155.302 170.279C155.818 172.787 156.052 174.194 155.948 174.239Z" fill="white"/>
<path d="M270.26 140.236C270.284 140.345 268.635 140.722 265.662 141.292C262.69 141.862 258.407 142.691 253.131 143.87C242.58 146.136 228.095 149.794 212.29 154.509C196.495 159.268 182.39 164.165 172.294 168.018C167.237 169.901 163.176 171.548 160.363 172.653C157.556 173.78 155.971 174.348 155.926 174.243C155.881 174.139 157.375 173.363 160.097 172.05C162.846 170.754 166.826 168.942 171.872 166.902C181.886 162.771 195.987 157.647 211.826 152.879C227.675 148.154 242.24 144.661 252.9 142.69C258.209 141.664 262.556 141.026 265.57 140.652C268.585 140.277 270.237 140.127 270.26 140.236Z" fill="white"/>
<path d="M118.704 309.167C118.665 309.198 118.34 308.744 117.755 307.822C117.09 306.736 116.281 305.407 115.324 303.814C113.232 300.324 110.309 295.192 106.818 288.793C99.7972 276.026 90.6382 258.072 80.8222 238.118C70.9845 218.17 62.0165 200.152 55.2863 187.254C51.9803 180.974 49.2578 175.822 47.2524 171.995C46.3952 170.335 45.6686 168.966 45.0852 167.839C44.6045 166.872 44.3788 166.351 44.4177 166.32C44.4565 166.289 44.7863 166.765 45.3664 167.664C46.0322 168.751 46.8364 170.058 47.7977 171.673C49.8899 175.162 52.8129 180.295 56.3039 186.694C63.3246 199.461 72.4837 217.415 82.2997 237.368C92.1374 257.317 101.105 275.335 107.836 288.233C111.137 294.491 113.864 299.665 115.87 303.492C116.727 305.152 117.453 306.521 118.037 307.648C118.539 308.61 118.765 309.131 118.704 309.167Z" fill="white"/>
<path d="M268.441 243.012C268.455 243.077 267.966 243.342 266.973 243.805C265.811 244.328 264.363 245.004 262.642 245.783C258.63 247.556 253.21 249.972 246.622 252.89C233.096 258.891 214.491 267.418 193.967 276.859C173.42 286.304 154.73 294.644 141.078 300.377C134.254 303.254 128.709 305.516 124.837 306.985C123.049 307.665 121.573 308.209 120.375 308.672C119.337 309.031 118.807 309.213 118.771 309.153C118.757 309.087 119.247 308.823 120.239 308.359C121.402 307.836 122.832 307.188 124.571 306.382C128.582 304.609 134.003 302.193 140.59 299.275C154.116 293.273 172.721 284.746 193.268 275.301C213.793 265.861 232.505 257.516 246.157 251.783C252.98 248.906 258.526 246.645 262.397 245.175C264.186 244.495 265.662 243.951 266.86 243.488C267.849 243.116 268.406 242.951 268.441 243.012Z" fill="white"/>
</svg>
