<svg width="150" height="149" viewBox="0 0 150 149" fill="none" xmlns="http://www.w3.org/2000/svg">
<path d="M128.058 35.5465C130.625 40.0233 132.433 44.7929 133.064 49.8068C133.807 56.016 133.161 62.1073 130.653 67.7728C128.041 73.5952 124.089 78.8831 122.789 85.1102C121.462 91.2075 124.809 94.8453 126.076 100.946C130.93 114.134 122.799 132.495 102.064 129.893C98.7092 129.507 95.9927 126.279 92.6107 125.763C86.3969 124.751 81.2336 128.801 75.7971 130.877C69.6027 133.246 62.8503 134.241 56.321 133.023C47.9564 131.51 41.5885 126.468 37.252 119.38C32.042 110.713 32.6111 100.305 27.4281 91.768C22.6414 83.8255 16.4196 76.8579 18.9547 66.7189C20.4396 60.7243 24.7833 55.3549 30.3736 52.7054C34.8405 50.5599 40.2925 51.1885 44.5478 48.6807C48.4645 46.5139 50.0649 42.3908 52.0078 38.6028C60.4024 22.5091 74.3531 11.4903 93.3793 13.0928C107.242 14.1421 120.89 23.3596 128.058 35.5465Z" fill="#FFF001"/>
<path d="M64.3527 11.8351C69.5128 11.791 74.5568 12.5511 79.237 14.4573C85.0139 16.8518 90.0075 20.3994 93.7176 25.3618C97.5135 30.4916 100.188 36.5268 104.979 40.7111C109.644 44.8552 114.456 43.7193 120.394 45.6044C134.27 47.8338 146.292 63.9179 133.866 80.7188C131.885 83.4541 127.741 84.2411 125.633 86.9363C121.707 91.8574 122.708 98.3428 121.854 104.099C120.884 110.66 118.444 117.034 114.183 122.129C108.766 128.68 101.251 131.761 92.9472 132.069C82.8391 132.365 74.0447 126.769 64.0631 127.105C54.794 127.387 45.6716 129.397 38.0749 122.22C33.5765 117.988 31.0238 111.571 31.4529 105.399C31.7709 100.454 34.99 96.0094 34.8886 91.0711C34.9185 86.5951 32.1083 83.1799 29.7579 79.6304C19.8408 64.4275 17.0698 46.8673 27.7883 31.0661C35.4948 19.4952 50.2166 12.1136 64.3527 11.8351Z" fill="#00B4FF"/>
<path d="M83.6305 52.1635C83.0607 52.0263 82.4893 52.3764 82.3522 52.9452C82.2151 53.5141 82.565 54.0864 83.1339 54.2235C91.7216 56.2938 97.7194 63.9175 97.7194 72.7632C97.7194 83.2793 89.1639 91.8348 78.6477 91.8348C68.1315 91.8348 59.5761 83.2793 59.5761 72.7632C59.5761 63.9178 65.5735 56.2941 74.1608 54.2236C74.7297 54.0864 75.0796 53.5141 74.9425 52.9453C74.8053 52.3764 74.2327 52.0267 73.6642 52.1636C69.1209 53.259 65.0047 55.8853 62.0739 59.5586C59.0535 63.3442 57.457 67.9103 57.457 72.7632C57.457 84.4477 66.9632 93.9539 78.6477 93.9539C90.3323 93.9539 99.8384 84.4478 99.8384 72.7632C99.8384 67.9102 98.2419 63.344 95.2213 59.5583C92.2904 55.8851 88.174 53.2588 83.6305 52.1635Z" fill="white"/>
<path d="M105.133 70.2147L103.894 67.9021L104.101 65.043C104.299 63.2105 103.568 61.422 102.143 60.2556L100.085 58.5708L99.2757 56.1326C98.8224 54.2683 97.4066 52.7699 95.5695 52.215L93.0297 51.4477L91.0846 49.1994C89.9338 47.8456 88.1918 47.1415 86.4246 47.3151L83.7885 47.5778L81.1972 46.2778C79.6002 45.4265 77.6962 45.4258 76.0991 46.2777L73.7866 47.5172L70.9276 47.3103C69.0943 47.1116 67.3064 47.8427 66.1402 49.2683L64.4552 51.3259L62.0171 52.1353C60.1528 52.5885 58.6544 54.0044 58.0995 55.8413L57.3323 58.3811L55.084 60.3263C53.7303 61.4772 53.0257 63.2188 53.1996 64.9864L53.4622 67.6225L52.1623 70.2138C51.3108 71.8108 51.3102 73.7147 52.1621 75.312L53.4016 77.6245L53.1948 80.4836C52.9961 82.3161 53.7271 84.1045 55.1527 85.271L57.2103 86.9558L58.0197 89.394C58.4729 91.2583 59.8887 92.7567 61.7259 93.3116L64.2656 94.0788L66.2108 96.3272C67.3617 97.6809 69.103 98.3855 70.8708 98.2115L73.5068 97.9488L76.0979 99.2486C76.8967 99.6745 77.7723 99.8876 78.6479 99.8876C79.5229 99.8876 80.3978 99.6748 81.1962 99.249L83.5088 98.0095L86.3678 98.2164C88.2003 98.4147 89.9888 97.684 91.1553 96.2584L92.8402 94.2008L95.2785 93.3916C97.1426 92.9383 98.6409 91.5224 99.1958 89.6854L99.9631 87.1457L102.212 85.2005C103.565 84.0496 104.27 82.308 104.096 80.5403L103.833 77.9044L105.133 75.3131C105.984 73.716 105.985 71.812 105.133 70.2147ZM103.259 74.3243C103.254 74.333 103.249 74.3416 103.245 74.3503L101.801 77.2286C101.711 77.4078 101.674 77.609 101.694 77.8088L101.987 80.749C102.093 81.8241 101.664 82.8847 100.832 83.5918L98.3445 85.7439C98.1927 85.8752 98.0815 86.0467 98.0235 86.2387L97.1673 89.0725C96.826 90.2024 95.8988 91.0711 94.7477 91.3394C94.7162 91.3468 94.685 91.3555 94.6544 91.3657L91.8812 92.2861C91.6908 92.3494 91.5222 92.4653 91.3952 92.6205L89.5156 94.9161C88.8017 95.7887 87.7049 96.2344 86.5827 96.1081C86.5687 96.1065 86.5546 96.1052 86.5407 96.1042L83.3555 95.8738C83.155 95.8594 82.9553 95.902 82.7786 95.9967L80.1972 97.3803C79.2237 97.8994 78.0609 97.8973 77.0867 97.3742C77.078 97.3697 77.0693 97.3651 77.0606 97.3608L74.1825 95.9171C74.0346 95.8429 73.8718 95.8045 73.7074 95.8045C73.6724 95.8045 73.6374 95.8062 73.6023 95.8097L70.6621 96.1027C69.5871 96.2089 68.5264 95.7792 67.8192 94.9477L65.6671 92.4601C65.536 92.3084 65.3643 92.197 65.1722 92.1391L62.3385 91.2831C61.2085 90.9418 60.3399 90.0146 60.0715 88.8633C60.0642 88.8318 60.0554 88.8008 60.0452 88.7701L59.1248 85.9967C59.0617 85.8063 58.9457 85.6379 58.7905 85.5108L56.495 83.6311C55.6224 82.9172 55.1768 81.8208 55.3031 80.6983C55.3047 80.6843 55.3059 80.6703 55.307 80.6563L55.5373 77.471C55.5518 77.2709 55.5091 77.0709 55.4144 76.8941L54.0308 74.3128C53.5116 73.3393 53.5138 72.1766 54.0367 71.2023C54.0414 71.1938 54.0458 71.1851 54.0502 71.1764L55.4939 68.2982C55.5838 68.1189 55.621 67.9177 55.6011 67.7181L55.3082 64.7776C55.2024 63.7025 55.6316 62.6419 56.4633 61.9348L58.9508 59.7827C59.1026 59.6514 59.2138 59.4799 59.2719 59.2879L60.128 56.454C60.4693 55.3241 61.3965 54.4555 62.5477 54.1871C62.5792 54.1797 62.6103 54.1709 62.641 54.1608L65.4141 53.2403C65.6045 53.1771 65.773 53.0612 65.9 52.906L67.7798 50.6104C68.4937 49.7379 69.5905 49.2924 70.7126 49.4185C70.7266 49.4201 70.7406 49.4214 70.7546 49.4224L73.9398 49.6528C74.1393 49.667 74.3398 49.6246 74.5167 49.5299L77.098 48.1463C78.0714 47.6272 79.2343 47.6293 80.2084 48.1523C80.217 48.1568 80.2257 48.1614 80.2345 48.1657L83.1127 49.6094C83.292 49.6994 83.4932 49.7367 83.6928 49.7167L86.6331 49.4237C87.7081 49.3177 88.7688 49.7472 89.4759 50.5788L91.6281 53.0664C91.7592 53.2181 91.9309 53.3294 92.123 53.3874L94.9567 54.2435C96.0866 54.5848 96.9552 55.5121 97.2237 56.6633C97.231 56.6948 97.2398 56.7258 97.25 56.7565L98.1705 59.5297C98.2337 59.72 98.3495 59.8885 98.5048 60.0156L100.8 61.8953C101.673 62.6092 102.119 63.7055 101.992 64.8281C101.991 64.8421 101.989 64.856 101.988 64.8701L101.758 68.0554C101.744 68.2555 101.786 68.4555 101.881 68.6323L103.265 71.2137C103.784 72.1874 103.782 73.3501 103.259 74.3243Z" fill="white"/>
<path d="M74.0495 66.9904C73.8795 66.6323 73.5156 66.384 73.0928 66.384H67.4946C66.9094 66.384 66.435 66.8584 66.435 67.4436V83.4813C66.435 84.0665 66.9094 84.5409 67.4946 84.5409H73.0928C73.532 84.5409 73.9087 84.2738 74.0693 83.8931C74.877 84.0064 75.709 84.2361 76.5753 84.476C77.8777 84.8366 79.2243 85.2094 80.6234 85.2094H86.74C88.6308 85.2094 90.163 84.207 90.8387 82.5278C91.1678 81.7096 91.2254 80.8605 91.0331 80.1496C91.3849 79.8334 91.6822 79.4396 91.907 78.9799C92.3627 78.0484 92.4537 77.0008 92.1954 76.1185C92.6769 75.6534 93.036 75.0392 93.2238 74.315C93.3993 73.6379 93.3963 72.9699 93.2401 72.3911C94.1958 71.8289 94.8395 70.8075 94.8395 69.6566C94.8395 68.754 94.488 67.9223 93.8498 67.3147C93.2369 66.7314 92.4207 66.41 91.5514 66.41L82.9299 66.4102C82.2749 65.5885 82.071 64.4735 82.444 63.576C83.2094 61.7338 83.1619 60.1745 82.2904 58.5202C81.6435 57.2923 79.9039 56.0698 78.4419 56.2785C77.5581 56.4048 76.9187 57.0294 76.7312 57.9495C76.676 58.2202 76.6608 58.5126 76.6433 58.8513C76.6001 59.6866 76.5408 60.8307 75.8196 62.2122C75.3309 63.1488 75.1678 64.112 75.0239 64.9618C74.8179 66.1792 74.7179 66.7657 74.0495 66.9904ZM68.5541 68.5031H72.0333V82.4218H68.5541V68.5031ZM77.1133 65.3155C77.2368 64.5864 77.3643 63.8325 77.6983 63.1928C78.6331 61.4018 78.7123 59.8738 78.7596 58.9609C78.7723 58.7178 78.7841 58.4881 78.8076 58.3726C78.8077 58.3718 78.808 58.371 78.8082 58.3702C79.1757 58.3753 80.0802 58.8715 80.4156 59.5081C80.996 60.6096 81.0153 61.4918 80.4872 62.7631C80.011 63.9093 80.0468 65.2393 80.5178 66.4219C80.0024 66.4936 79.6053 66.9349 79.6053 67.4701C79.6053 68.0551 80.0797 68.5296 80.6648 68.5296L91.5514 68.5293C91.8743 68.5293 92.1717 68.6431 92.3887 68.8497C92.5401 68.9937 92.7204 69.2507 92.7204 69.6567C92.7204 70.2251 92.1994 70.7165 91.5827 70.7299L88.8555 70.7893C88.2706 70.802 87.8066 71.2865 87.8193 71.8716C87.8319 72.4488 88.3036 72.9081 88.8782 72.9081C88.8859 72.9081 88.8938 72.9081 88.9017 72.9079L91.1729 72.8585C91.247 73.0684 91.2856 73.4688 91.1296 73.9275C90.9969 74.3176 90.6405 74.972 89.7442 74.972C89.1591 74.972 88.6846 75.4464 88.6846 76.0315C88.6846 76.6167 89.1591 77.0911 89.7442 77.0911C89.9048 77.0911 90.0625 77.0811 90.2167 77.0615C90.2299 77.3614 90.1682 77.7126 90.0036 78.0489C89.8091 78.4464 89.4246 78.9205 88.6976 78.9205C88.1125 78.9205 87.638 79.3948 87.638 79.98C87.638 80.5652 88.1125 81.0395 88.6976 81.0395C88.8072 81.0395 88.9157 81.0347 89.0228 81.025C89.0201 81.2283 88.9788 81.4825 88.8632 81.7605C88.697 82.1604 88.1574 83.0904 86.7402 83.0904H80.6236C79.5124 83.0904 78.3605 82.7714 77.141 82.4338C76.1706 82.1651 75.1756 81.8898 74.1526 81.7669V69.1348C76.538 68.7025 76.8669 66.7714 77.1133 65.3155Z" fill="white"/>
<path d="M78.6479 53.6916C79.2331 53.6916 79.7075 53.2173 79.7075 52.6321C79.7075 52.0469 79.2331 51.5726 78.6479 51.5726H78.6472C78.062 51.5726 77.5881 52.0469 77.5881 52.6321C77.5881 53.2173 78.0627 53.6916 78.6479 53.6916Z" fill="white"/>
</svg>
