<svg width="160" height="161" viewBox="0 0 160 161" fill="none" xmlns="http://www.w3.org/2000/svg">
<path d="M50.4158 21.6712C55.2473 19.8585 60.2457 18.841 65.2958 19.0248C71.5437 19.2908 77.4517 20.9087 82.6397 24.296C87.9659 27.8111 92.5491 32.5618 98.4858 34.847C104.29 37.138 108.419 34.4195 114.644 34.1516C128.442 31.4826 145.255 42.4624 139.351 62.508C138.429 65.7571 134.807 67.9189 133.752 71.1738C131.754 77.1437 134.92 82.8914 136.094 88.5911C137.435 95.086 137.331 101.911 135.079 108.159C132.239 116.171 126.238 121.645 118.545 124.784C109.152 128.531 98.9718 126.295 89.7119 130.037C81.1027 133.483 73.2246 138.502 63.6258 134.369C57.9482 131.939 53.3478 126.788 51.6324 120.844C50.2335 116.09 51.7313 110.81 49.9409 106.207C48.4326 101.992 44.6207 99.7494 41.1947 97.2223C26.6616 86.3473 18.0313 70.8053 22.6744 52.285C25.9408 38.7717 37.2343 26.7852 50.4158 21.6712Z" fill="#FFF001"/>
<path d="M16.7624 80.7309C17.5493 75.6309 19.1111 70.775 21.7456 66.4626C25.0385 61.1462 29.3434 56.7885 34.8381 53.9254C40.5118 51.0043 46.8987 49.3363 51.7995 45.2805C56.6403 41.343 56.2934 36.4116 59.1096 30.8537C63.5427 17.5179 81.3518 8.23992 95.9341 23.2081C98.315 25.6034 98.4249 29.8203 100.746 32.3338C104.971 37.0011 111.533 37.0566 117.077 38.8255C123.396 40.8384 129.294 44.2729 133.638 49.2975C139.231 55.6984 141.063 63.6114 140.031 71.8564C138.696 81.8803 131.759 89.6597 130.484 99.5654C129.27 108.759 129.786 118.086 121.48 124.429C116.58 128.188 109.836 129.674 103.814 128.258C98.9839 127.148 95.1149 123.256 90.2247 122.561C85.8119 121.811 81.989 124.036 78.1075 125.784C61.5069 133.126 43.7297 133.035 29.8591 119.913C19.6791 110.445 14.7627 94.7276 16.7624 80.7309Z" fill="#00B4FF"/>
<path d="M104.561 102.921L86.564 71.6151C85.8843 70.4338 84.8856 69.4405 83.676 68.7425C83.4642 68.6202 83.2481 68.5097 83.0289 68.4085V62.3076C84.431 61.6952 85.4684 62.113 86.8488 62.6703C87.8105 63.0586 88.9076 63.5015 90.1874 63.5015C91.13 63.5015 92.1717 63.2612 93.3313 62.5818C93.6632 62.3874 93.8672 62.0314 93.8672 61.6467V52.3038C93.8672 51.9154 93.6593 51.5566 93.3224 51.3635C92.9853 51.1703 92.5705 51.1723 92.2356 51.3687C90.4207 52.4319 89.2027 51.9401 87.6603 51.3174C86.303 50.7694 84.6689 50.1111 82.6536 50.7899C82.108 49.7577 81.0238 49.0523 79.7773 49.0523C77.9845 49.0523 76.5258 50.5109 76.5258 52.3038V68.4013C75.0391 69.0759 73.8027 70.1954 72.9749 71.6422L72.2467 72.9087C71.9485 73.4277 72.1272 74.0902 72.6462 74.3885C73.1654 74.6869 73.8277 74.5079 74.1261 73.989L74.8553 72.7206C75.6112 71.3996 76.834 70.4542 78.2985 70.0586C79.7576 69.6645 81.2825 69.8639 82.5925 70.6199C83.4719 71.1274 84.1956 71.8454 84.6851 72.6958L91.5794 84.6882C91.3251 84.919 91.1025 85.1627 90.8951 85.3911C90.2975 86.0491 89.9557 86.3925 89.3134 86.3925C88.6711 86.3925 88.3294 86.0492 87.7317 85.3911C87.0757 84.6686 86.1772 83.6793 84.5455 83.6793C82.9137 83.6793 82.0153 84.6687 81.3592 85.3911C80.7616 86.0492 80.4198 86.3925 79.7775 86.3925C79.1352 86.3925 78.7934 86.0492 78.1958 85.3911C77.5398 84.6686 76.6413 83.6793 75.0095 83.6793C73.3778 83.6793 72.4792 84.6687 71.8232 85.3911C71.2255 86.0492 70.8838 86.3925 70.2415 86.3925C69.5992 86.3925 69.2575 86.0492 68.6598 85.3911C68.4523 85.1627 68.2298 84.919 67.9756 84.6882L69.264 82.4471C69.5623 81.9281 69.3836 81.2656 68.8645 80.9673C68.3452 80.6688 67.6829 80.8477 67.3846 81.3668L54.9932 102.921C54.8005 103.256 54.8011 103.669 54.9949 104.004C55.1886 104.339 55.5461 104.545 55.9329 104.545H103.622C104.009 104.545 104.366 104.339 104.56 104.004C104.754 103.669 104.754 103.256 104.561 102.921ZM86.8487 53.3274C88.1697 53.8605 89.7457 54.4967 91.6996 53.9475V60.9888C90.1698 61.6729 89.0458 61.2194 87.6603 60.66C86.3889 60.1467 84.8732 59.5355 83.0289 60.0194V52.9647C84.4311 52.3524 85.4699 52.7707 86.8487 53.3274ZM78.6935 67.7713V52.3038C78.6935 51.7062 79.1797 51.22 79.7773 51.22C80.375 51.22 80.8612 51.7062 80.8612 52.3038V67.7696C80.1464 67.6686 79.4182 67.6689 78.6935 67.7713ZM57.8061 102.377L66.8574 86.6327C66.9227 86.703 66.9884 86.775 67.0551 86.8483C67.7111 87.5708 68.6097 88.5601 70.2413 88.5601C71.8731 88.5601 72.7716 87.5707 73.4277 86.8483C74.0253 86.1902 74.367 85.8468 75.0093 85.8468C75.6516 85.8468 75.9933 86.1902 76.591 86.8483C77.247 87.5708 78.1455 88.5601 79.7772 88.5601C81.409 88.5601 82.3076 87.5707 82.9636 86.8482C83.5612 86.1902 83.903 85.8467 84.5452 85.8467C85.1875 85.8467 85.5293 86.1901 86.1269 86.8482C86.7829 87.5707 87.6814 88.56 89.3132 88.56C90.9449 88.56 91.8435 87.5707 92.4995 86.8482C92.5661 86.7749 92.6318 86.703 92.6971 86.6327L101.748 102.377H57.8061V102.377Z" fill="white"/>
<path d="M70.7554 78.7615C71.3539 78.7615 71.8392 78.2763 71.8392 77.6777C71.8392 77.0791 71.3539 76.5938 70.7554 76.5938H70.7547C70.1562 76.5938 69.6712 77.0791 69.6712 77.6777C69.6712 78.2763 70.1568 78.7615 70.7554 78.7615Z" fill="white"/>
</svg>
