<svg width="150" height="148" viewBox="0 0 150 148" fill="none" xmlns="http://www.w3.org/2000/svg">
<path d="M27.5453 117.278C24.642 113.012 22.4718 108.396 21.4567 103.445C20.2383 97.3118 20.4138 91.1888 22.4788 85.3471C24.6353 79.341 28.168 73.7647 28.9852 67.4561C29.8392 61.2748 26.2218 57.9053 24.49 51.9202C18.6352 39.1445 25.3296 20.2122 46.2028 21.211C49.5777 21.3385 52.5345 24.3471 55.9462 24.602C62.2195 25.133 67.0558 20.6975 72.3164 18.2094C78.3102 15.3711 84.966 13.8593 91.5697 14.5707C100.026 15.436 106.763 19.973 111.632 26.7064C117.493 34.9468 117.727 45.3676 123.551 53.4806C128.935 61.0312 135.674 67.4995 133.927 77.8035C132.908 83.8946 128.99 89.5822 123.62 92.654C119.331 95.1369 113.847 94.9297 109.798 97.7575C106.059 100.219 104.781 104.453 103.135 108.379C96.0036 125.071 82.9421 137.131 63.849 136.997C49.9467 137.018 35.6303 128.877 27.5453 117.278Z" fill="#FFF001"/>
<path d="M92.8863 136.018C87.7449 136.459 82.6574 136.089 77.8444 134.548C71.9004 132.606 66.6486 129.453 62.5677 124.791C58.3883 119.968 55.2579 114.156 50.1586 110.353C45.1884 106.58 40.4787 108.083 34.4126 106.66C20.4068 105.505 7.18215 90.394 18.2792 72.6867C20.0438 69.8071 24.1152 68.7035 26.0089 65.8542C29.5453 60.6455 28.048 54.2564 28.4563 48.4513C28.9185 41.8356 30.8615 35.2926 34.7169 29.8843C39.6143 22.9364 46.87 19.2862 55.1255 18.3405C65.1808 17.2679 74.3796 22.1698 84.3059 21.067C93.5258 20.0731 102.466 17.3668 110.593 23.9384C115.404 27.8111 118.442 34.0129 118.489 40.1992C118.553 45.1543 115.685 49.8336 116.166 54.7494C116.481 59.2145 119.546 62.4033 122.162 65.7615C133.22 80.1563 137.334 97.4512 127.863 114.03C121.069 126.16 106.959 134.652 92.8863 136.018Z" fill="#00B4FF"/>
<path d="M105.045 48.0821H48.4442C47.2993 48.0821 46.3677 49.0137 46.3677 50.1586V57.4675C46.3677 58.6181 48.1476 58.6181 48.1476 57.4675V50.1586C48.1476 49.9951 48.2806 49.862 48.4442 49.862H105.045C105.209 49.862 105.342 49.9951 105.342 50.1586V93.5572C105.342 93.7207 105.209 93.8539 105.045 93.8539H93.6404V92.0021H102.591C103.083 92.0021 103.481 91.6036 103.481 91.1121V81.7927C103.481 80.642 101.701 80.642 101.701 81.7927V90.2222H93.6404V86.2735C93.6693 86.276 93.6985 86.2785 93.7259 86.281C94.4647 86.3459 95.3836 86.4267 96.0202 85.7889C96.6561 85.1518 96.5757 84.232 96.511 83.4928C96.4414 82.6996 96.5163 82.4824 97.126 81.9757C98.6958 80.6704 98.725 79.2728 97.126 77.9436C96.5163 77.4364 96.4417 77.2195 96.511 76.4262C96.6852 74.4354 95.7554 73.4598 93.7259 73.6381C92.9339 73.7077 92.719 73.6324 92.214 73.0226C90.9107 71.4492 89.5122 71.4201 88.1848 73.0226C87.6797 73.6323 87.465 73.7079 86.6729 73.6381C84.6807 73.4631 83.71 74.3981 83.8877 76.4262C83.957 77.2196 83.8824 77.4364 83.2727 77.9436C81.703 79.2487 81.6739 80.6465 83.2727 81.9757C83.8824 82.4828 83.957 82.6997 83.8877 83.4931C83.7008 85.6253 84.7192 86.4497 86.7581 86.2736V90.2224H51.7879V53.4936H101.701V77.0463C101.701 78.1969 103.481 78.1969 103.481 77.0463V52.6036C103.481 52.1121 103.083 51.7137 102.591 51.7137H50.898C50.4064 51.7137 50.008 52.1121 50.008 52.6036V91.1121C50.008 91.6036 50.4064 92.0021 50.898 92.0021H86.7581V93.8539H48.4442C48.2806 93.8539 48.1476 93.7207 48.1476 93.5572V61.9765C48.1476 60.8258 46.3677 60.8258 46.3677 61.9765V93.5572C46.3677 94.7022 47.2993 95.6338 48.4442 95.6338H86.7581V99.6623C86.8848 100.394 87.3067 100.663 88.0234 100.469L90.1992 99.4571L92.3751 100.469C92.9135 100.72 93.6404 100.324 93.6404 99.6623V95.6338H105.045C106.19 95.6338 107.122 94.7022 107.122 93.5572V50.1586C107.122 49.0136 106.19 48.0821 105.045 48.0821ZM86.5169 84.5077C85.626 84.5862 85.5828 84.5385 85.6606 83.648C85.7802 82.2814 85.4659 81.484 84.4104 80.6067C83.6883 80.0061 83.6884 79.9125 84.4104 79.312C85.4659 78.4346 85.7803 77.6372 85.6606 76.2707C85.5828 75.3802 85.626 75.3329 86.5169 75.4109C87.8836 75.5313 88.6799 75.2146 89.5553 74.1577C90.1534 73.4358 90.2449 73.4358 90.8431 74.1577C91.7187 75.2146 92.5148 75.5309 93.8815 75.4109C94.7725 75.3325 94.8156 75.3802 94.7378 76.2706C94.6181 77.6372 94.9325 78.4345 95.988 79.3119C96.71 79.9124 96.7104 80.0063 95.9878 80.6067C94.9324 81.4842 94.6179 82.2812 94.7376 83.6478C94.8158 84.5382 94.7724 84.5861 93.8816 84.5077C93.3226 84.4586 92.6885 84.4028 92.1303 84.6347C91.5901 84.8591 91.2102 85.3175 90.843 85.7609C90.67 85.9697 90.3542 86.351 90.199 86.4192C90.0439 86.351 89.7282 85.9697 89.5552 85.7609C89.1879 85.3176 88.8082 84.8591 88.2678 84.6347C87.6918 84.4591 87.1082 84.4167 86.5169 84.5077ZM90.5746 97.6688C90.3365 97.5581 90.062 97.5581 89.8239 97.6688L88.538 98.267V87.3088C88.9603 87.7731 89.4814 88.2042 90.1992 88.2042C90.9171 88.2042 91.4382 87.7733 91.8605 87.3089V98.267L90.5746 97.6688Z" fill="white"/>
<path d="M57.9089 60.9431H88.5881C89.7387 60.9431 89.7387 59.1632 88.5881 59.1632H57.9089C56.7581 59.1632 56.7581 60.9431 57.9089 60.9431Z" fill="white"/>
<path d="M96.4703 65.4661C96.4703 64.9746 96.072 64.5762 95.5804 64.5762H57.9089C56.7583 64.5762 56.7583 66.3561 57.9089 66.3561H95.5805C96.072 66.3561 96.4703 65.9576 96.4703 65.4661Z" fill="white"/>
<path d="M80.202 70.879C80.202 70.3876 79.8037 69.9891 79.3121 69.9891H57.9089C56.7583 69.9891 56.7583 71.769 57.9089 71.769H79.3121C79.8036 71.769 80.202 71.3705 80.202 70.879Z" fill="white"/>
<path d="M68.5157 83.284C68.0305 83.2848 67.5452 83.2854 67.06 83.2858C66.1265 83.2865 65.6125 83.0377 65.4219 82.0478C65.2478 81.1442 63.9444 81.2593 63.7056 82.0478C63.5998 82.397 63.0659 83.3967 62.5994 83.315C62.3522 83.2717 62.2443 82.8904 62.1529 82.693C61.975 82.3086 61.8454 81.9013 61.7345 81.4931C61.266 79.7685 61.1725 77.9678 60.8794 76.2107C60.7095 75.1917 59.1564 75.4798 59.1313 76.4473C59.0516 79.529 58.5478 82.5685 57.4506 85.457C57.0435 86.5289 58.7635 86.9924 59.1669 85.9302C59.59 84.8165 59.9258 83.6761 60.1863 82.5186C60.3261 82.9404 60.4928 83.354 60.6963 83.7564C61.2161 84.7835 62.2761 85.3912 63.4102 84.9343C63.815 84.7713 64.1842 84.4863 64.4986 84.1394C65.3406 85.1104 66.5933 85.0664 67.7619 85.065C69.5237 85.0627 71.2854 85.0586 73.0473 85.0537C74.1925 85.0505 74.1946 83.2706 73.0473 83.2738C71.5368 83.2781 70.0262 83.2815 68.5157 83.284Z" fill="white"/>
<path d="M90.1992 83.4354C92.116 83.4354 93.6754 81.8761 93.6754 79.9594C93.6754 78.0427 92.116 76.4834 90.1992 76.4834C88.2826 76.4834 86.7232 78.0428 86.7232 79.9594C86.7232 81.876 88.2825 83.4354 90.1992 83.4354ZM90.1992 78.2633C91.1345 78.2633 91.8955 79.0242 91.8955 79.9594C91.8955 80.8945 91.1345 81.6555 90.1992 81.6555C89.264 81.6555 88.5031 80.8947 88.5031 79.9594C88.5031 79.0241 89.264 78.2633 90.1992 78.2633Z" fill="white"/>
</svg>
