<svg width="164" height="164" viewBox="0 0 164 164" fill="none" xmlns="http://www.w3.org/2000/svg">
<path d="M136.753 114.52C133.466 118.499 129.639 121.871 125.168 124.227C119.618 127.108 113.689 128.648 107.503 128.295C101.134 127.899 94.7934 126.063 88.5072 127.038C82.3331 127.943 80.1067 132.357 74.8424 135.689C64.2075 144.876 44.1593 143.73 39.2947 123.407C38.4756 120.13 40.5398 116.452 39.8327 113.104C38.5923 106.932 32.9837 103.525 29.1266 99.1676C24.7287 94.2036 21.42 88.2339 20.2607 81.694C18.7324 73.3321 21.2095 65.5969 26.3171 59.0426C32.595 51.1149 42.5368 47.9832 48.7026 40.1264C54.4513 32.85 58.7825 24.5735 69.1648 23.3768C75.2984 22.6561 81.8532 24.8313 86.3013 29.131C89.8821 32.5565 91.2132 37.8807 95.0585 40.9807C98.4655 43.8838 102.888 43.9301 107.118 44.415C125.136 46.6062 140.361 55.7844 145.56 74.1566C149.458 87.5013 145.636 103.52 136.753 114.52Z" fill="#FFF001"/>
<path d="M136.518 46.5461C138.376 51.3603 139.44 56.349 139.304 61.4006C139.097 67.6507 137.534 73.5736 134.196 78.7931C130.731 84.1521 126.023 88.7797 123.794 94.7376C121.558 100.563 124.315 104.666 124.641 110.889C127.439 124.66 116.618 141.576 96.5176 135.86C93.26 134.969 91.0643 131.367 87.7998 130.344C81.8113 128.401 76.0936 131.621 70.4051 132.849C63.9231 134.251 57.0979 134.21 50.8287 132.017C42.7903 129.253 37.2607 123.303 34.0492 115.64C30.2138 106.283 32.3546 96.0817 28.5261 86.8573C24.9992 78.2808 19.906 70.4502 23.9493 60.813C26.3261 55.1129 31.4338 50.4643 37.3613 48.6932C42.1019 47.2498 47.3955 48.6979 51.9818 46.8644C56.1818 45.3166 58.389 41.4839 60.8838 38.0344C71.6219 23.3998 87.0822 14.624 105.645 19.0932C119.189 22.2326 131.281 33.4131 136.518 46.5461Z" fill="#00B4FF"/>
<path d="M106.211 82.4494H93.9309V76.8673C93.9309 75.0205 92.4284 73.518 90.5816 73.518H79.4175C77.5707 73.518 76.0683 75.0205 76.0683 76.8673V77.9838H63.7877C61.9409 77.9838 60.4385 79.4863 60.4385 81.333V101.429C60.4385 102.045 60.9383 102.545 61.5549 102.545H108.444C109.061 102.545 109.561 102.045 109.561 101.429V85.7987C109.561 83.9519 108.058 82.4494 106.211 82.4494ZM91.698 100.312H78.3011V97.5207C78.3011 96.9041 77.8013 96.4043 77.1847 96.4043C76.5681 96.4043 76.0683 96.9041 76.0683 97.5207V100.312H62.6713V81.3329C62.6713 80.7173 63.1721 80.2165 63.7877 80.2165H76.0683V87.473C76.0683 88.0896 76.5681 88.5894 77.1847 88.5894C77.8013 88.5894 78.3011 88.0896 78.3011 87.473V76.8672C78.3011 76.2516 78.8019 75.7507 79.4175 75.7507H90.5816C91.1972 75.7507 91.698 76.2516 91.698 76.8672V100.312ZM107.328 100.312H93.9309V84.6823H106.211C106.827 84.6823 107.328 85.1831 107.328 85.7987V100.312Z" fill="white"/>
<path d="M103.423 90.2644C103.423 88.4176 101.925 86.9151 100.084 86.9151C99.1076 86.9151 98.1831 87.3421 97.5474 88.0866C97.147 88.5555 97.2026 89.2601 97.6714 89.6606C98.1404 90.0609 98.845 90.0055 99.2454 89.5366C99.4562 89.2897 99.7619 89.1481 100.084 89.1481C100.694 89.1481 101.19 89.6489 101.19 90.2645C101.19 90.5678 101.071 90.8516 100.856 91.0636C100.618 91.2981 100.498 91.6268 100.528 91.9596C100.558 92.2924 100.735 92.5943 101.012 92.7822C101.471 93.0949 101.746 93.6144 101.746 94.1719C101.746 95.0953 101 95.8466 100.084 95.8466C99.7166 95.8466 99.3685 95.7281 99.0773 95.5042C98.5886 95.1283 97.8878 95.2197 97.5116 95.7083C97.1356 96.1969 97.2271 96.8979 97.7157 97.2739C98.4008 97.801 99.2197 98.0795 100.084 98.0795C102.232 98.0795 103.979 96.3266 103.979 94.1721C103.979 93.2598 103.662 92.3908 103.102 91.702C103.312 91.2588 103.423 90.7705 103.423 90.2644Z" fill="white"/>
<path d="M71.6024 91.3809H68.9122C69.1581 91.1549 69.4663 90.9128 69.8259 90.6353C71.1027 89.6501 72.6916 88.4241 72.7187 86.1147C72.7386 84.4185 71.6538 82.9537 70.0806 82.5525C68.5767 82.1691 67.1103 82.8536 66.3449 84.2966C66.0559 84.8413 66.2634 85.517 66.8081 85.806C67.3529 86.0949 68.0285 85.8875 68.3175 85.3428C68.6977 84.6258 69.2397 84.6425 69.5289 84.7161C70.012 84.8394 70.4953 85.3115 70.4861 86.0885C70.4727 87.2342 69.7124 87.9027 68.462 88.8675C67.3177 89.7505 66.0207 90.7513 66.0207 92.4973C66.0207 93.1139 66.5205 93.6138 67.1371 93.6138H71.6024C72.219 93.6138 72.7188 93.1139 72.7188 92.4973C72.7188 91.8807 72.219 91.3809 71.6024 91.3809Z" fill="white"/>
<path d="M86.2373 86.9151H86.116V79.1002C86.116 78.7013 85.9032 78.3328 85.5578 78.1334C85.2125 77.9339 84.7869 77.934 84.4414 78.1334L83.2036 78.848C82.6696 79.1563 82.4866 79.8391 82.795 80.373C83.0232 80.7683 83.4568 80.9709 83.8831 80.9249V86.9151H83.7618C83.1452 86.9151 82.6454 87.4149 82.6454 88.0315C82.6454 88.6481 83.1452 89.1479 83.7618 89.1479H86.2373C86.8539 89.1479 87.3538 88.6481 87.3538 88.0315C87.3538 87.4149 86.8539 86.9151 86.2373 86.9151Z" fill="white"/>
<path d="M77.4812 61.8076L76.9215 66.0748C76.8044 66.6907 76.8876 67.3137 77.163 67.8793C77.6634 68.9068 78.6957 69.5054 79.7685 69.5054C80.1928 69.5054 80.6238 69.4116 81.0301 69.2137L84.9545 67.3035L88.9866 69.2244C89.4946 69.4669 90.0619 69.5537 90.6273 69.4755C91.392 69.3698 92.0697 68.9726 92.5357 68.357C93.0016 67.7414 93.1998 66.9813 93.0939 66.2151L92.4891 61.8876L95.4683 58.7453C95.9161 58.3166 96.2088 57.7675 96.3156 57.1549C96.4485 56.3937 96.277 55.6264 95.8328 54.9942C95.3885 54.362 94.7246 53.9406 93.9662 53.8082L89.6657 53.0464L87.5337 49.1245C87.5337 49.1243 87.5336 49.1242 87.5335 49.124C87.2631 48.6272 86.856 48.2238 86.3563 47.9572C85.6759 47.5944 84.8948 47.5181 84.157 47.7426C83.4193 47.9671 82.8131 48.4656 82.4499 49.1465L80.3966 53.0009L76.0766 53.8036C75.4907 53.8962 74.9551 54.1626 74.526 54.5752C73.9698 55.1102 73.6554 55.8298 73.6404 56.6015C73.6254 57.3731 73.9119 58.1044 74.4478 58.6615L77.4812 61.8076ZM76.0741 56.1845C76.1988 56.0645 76.3365 56.0225 76.43 56.0084C76.4427 56.0065 76.4553 56.0044 76.4679 56.0021L81.3331 55.098C81.6672 55.0359 81.9548 54.8252 82.1145 54.5253L84.4204 50.1968C84.5025 50.0427 84.64 49.9297 84.8072 49.8788C84.8702 49.8596 84.9346 49.8501 84.9985 49.8501C85.1045 49.8501 85.2096 49.8761 85.3056 49.9273C85.4191 49.9879 85.5113 50.0792 85.5724 50.1914L87.9609 54.585C88.1232 54.8835 88.4125 55.0919 88.7471 55.1511L93.5799 56.0072C93.7535 56.0375 93.9048 56.1336 94.0062 56.2778C94.1076 56.4221 94.1467 56.5971 94.1164 56.771C94.0849 56.951 93.9908 57.0705 93.9175 57.1389C93.9008 57.1544 93.8846 57.1705 93.8689 57.187L90.4991 60.7414C90.2653 60.9879 90.1566 61.3275 90.2036 61.664L90.8825 66.5224C90.9065 66.6963 90.8615 66.8691 90.7554 67.0091C90.6495 67.149 90.4954 67.2394 90.3216 67.2634C90.1904 67.2816 90.0611 67.2628 89.9477 67.2087L85.4295 65.0563C85.1227 64.9102 84.7662 64.9117 84.4608 65.0604L80.053 67.2059C79.7257 67.3655 79.3298 67.2288 79.1705 66.9015C79.0893 66.7346 79.0967 66.5805 79.1173 66.4806C79.1228 66.454 79.1272 66.4274 79.1308 66.4005L79.765 61.5647C79.8092 61.2279 79.6976 60.8893 79.4618 60.6447L76.0562 57.1125C75.9347 56.9861 75.8696 56.82 75.873 56.6446C75.8763 56.4695 75.9477 56.306 76.0741 56.1845Z" fill="white"/>
<path d="M67.5278 47.4677L71.9347 50.012C72.1106 50.1136 72.3025 50.1618 72.492 50.1618C72.8778 50.1618 73.253 49.9615 73.4598 49.6034C73.7681 49.0694 73.5851 48.3866 73.0512 48.0784L68.6442 45.534C68.1103 45.2257 67.4274 45.4087 67.1192 45.9426C66.8108 46.4766 66.9938 47.1594 67.5278 47.4677Z" fill="white"/>
<path d="M64.3061 60.852C64.3596 60.852 64.4137 60.8481 64.4683 60.8403L69.504 60.1076C70.1141 60.0188 70.5368 59.4521 70.448 58.842C70.3591 58.2319 69.7929 57.8093 69.1824 57.898L64.1468 58.6307C63.5367 58.7194 63.114 59.2861 63.2028 59.8962C63.2837 60.4519 63.7608 60.852 64.3061 60.852Z" fill="white"/>
<path d="M71.9769 67.6451L68.3786 71.2434C67.9427 71.6793 67.9427 72.3863 68.3786 72.8223C68.5967 73.0404 68.8824 73.1493 69.168 73.1493C69.4537 73.1493 69.7395 73.0404 69.9575 72.8223L73.5557 69.2241C73.9917 68.7881 73.9917 68.0812 73.5557 67.6451C73.1197 67.2091 72.4128 67.2092 71.9769 67.6451Z" fill="white"/>
<path d="M97.5074 50.1618C97.6967 50.1618 97.8888 50.1135 98.0646 50.012L102.472 47.4677C103.006 47.1594 103.189 46.4766 102.88 45.9426C102.572 45.4086 101.889 45.2257 101.355 45.534L96.9482 48.0784C96.4142 48.3866 96.2312 49.0694 96.5396 49.6034C96.7462 49.9615 97.1216 50.1618 97.5074 50.1618Z" fill="white"/>
<path d="M99.5512 58.8419C99.4625 59.452 99.8851 60.0187 100.495 60.1075L105.531 60.8402C105.585 60.8481 105.639 60.8519 105.693 60.8519C106.238 60.8519 106.716 60.4518 106.796 59.896C106.885 59.2859 106.463 58.7192 105.852 58.6305L100.817 57.8977C100.207 57.8093 99.64 58.2318 99.5512 58.8419Z" fill="white"/>
<path d="M96.4433 67.6451C96.0074 68.0811 96.0074 68.788 96.4433 69.2241L100.042 72.8223C100.26 73.0404 100.545 73.1493 100.831 73.1493C101.117 73.1493 101.402 73.0404 101.62 72.8223C102.056 72.3864 102.056 71.6794 101.62 71.2434L98.0222 67.6451C97.5863 67.2092 96.8794 67.2092 96.4433 67.6451Z" fill="white"/>
<path d="M77.1847 91.3804C76.5681 91.3804 76.0683 91.8806 76.0683 92.4972C76.0683 93.1138 76.5681 93.6136 77.1847 93.6136C77.8013 93.6136 78.3011 93.1138 78.3011 92.4972V92.4964C78.3011 91.8799 77.8013 91.3804 77.1847 91.3804Z" fill="white"/>
</svg>
