<svg width="58" height="40" viewBox="0 0 58 40" fill="none" xmlns="http://www.w3.org/2000/svg">
<path d="M13.1969 15.8072V16.7321C16.28 17.0404 18.9778 18.2737 21.2902 20.4319C23.6025 22.436 24.7587 24.9796 24.7587 28.0628C24.7587 30.9918 23.6796 33.6124 21.5214 35.9248C19.3632 38.2372 16.4342 39.3934 12.7344 39.3934C9.18874 39.3934 6.18265 37.7747 3.71612 34.5374C1.40375 31.3001 0.247559 27.292 0.247559 22.513C0.247559 17.7341 2.3287 12.8011 6.49097 7.71386C10.8074 2.62663 15.1238 0.0830078 19.4403 0.0830078C20.8277 0.0830078 21.5214 0.314247 21.5214 0.776725C21.5214 1.2392 21.2131 1.47044 20.5965 1.47044C19.9798 1.47044 18.8236 2.62663 17.1279 4.939C14.5072 8.33049 13.1969 11.9532 13.1969 15.8072ZM46.2638 15.8072V16.7321C49.347 17.0404 52.0448 18.2737 54.3571 20.4319C56.6695 22.436 57.8257 24.9796 57.8257 28.0628C57.8257 30.9918 56.7466 33.6124 54.5884 35.9248C52.5843 38.2372 49.7324 39.3934 46.0326 39.3934C42.4869 39.3934 39.4809 37.7747 37.0143 34.5374C34.5478 31.3001 33.3145 27.292 33.3145 22.513C33.3145 17.7341 35.4727 12.8011 39.7892 7.71386C44.1056 2.62663 48.422 0.0830078 52.7385 0.0830078C53.9717 0.0830078 54.5884 0.314247 54.5884 0.776725C54.5884 1.2392 54.4342 1.47044 54.1259 1.47044C53.2009 1.47044 51.8906 2.62663 50.1949 4.939C47.5742 8.48465 46.2638 12.1074 46.2638 15.8072Z" fill="#EEF3FF"/>
</svg>
