<svg width="958" height="506" viewBox="0 0 958 506" fill="none" xmlns="http://www.w3.org/2000/svg">
<path d="M544.734 680.42C510.957 678.05 478.354 670.479 448.722 655.598C412.167 636.958 381.33 611.179 359.618 576.807C337.431 541.296 323.049 500.439 293.862 470.6C265.481 441.088 233.423 446.039 195.548 430.648C105.933 408.915 35.5755 297.509 125.519 194.012C139.886 177.14 167.401 174.127 182.574 157.583C210.795 127.416 207.588 84.4765 216.138 47.2618C225.863 4.84662 245.112 -35.5906 275.605 -66.7275C314.417 -106.785 365.163 -123.068 419.639 -120.802C485.912 -117.528 540.556 -76.3967 606.022 -73.4499C666.799 -70.5162 727.508 -78.9656 773.502 -28.1019C800.747 1.89495 814.139 45.1876 808.152 85.3365C803.524 117.521 780.176 144.938 778.295 177.293C775.793 206.556 792.416 230.344 805.962 254.774C863 359.331 872.077 475.626 793.823 573.464C737.45 645.182 637.346 685.882 544.734 680.42Z" fill="#FFF001"/>
</svg>
