<svg width="341" height="342" viewBox="0 0 341 342" fill="none" xmlns="http://www.w3.org/2000/svg">
<path d="M29.5161 192.484L7.62112 167.54C1.66238 161.581 -0.277667 158.81 0.830936 157.701C2.35526 156.315 1.80096 156.731 13.9956 166.016C13.9956 166.016 -3.46488 152.712 2.63244 152.574C3.74104 152.574 6.6511 154.237 9.83834 156.315C5.5425 152.574 4.29533 150.218 5.12678 148.971C6.51253 146.892 17.1828 154.375 22.1715 157.84C18.1528 154.791 10.5312 148.971 9.14546 147.169C7.34398 144.675 11.0855 144.814 14.1342 145.922C17.5986 147.031 36.4448 156.731 42.1264 159.225C46.0065 160.888 47.3923 157.424 47.3923 157.424C49.4709 148.694 55.7068 143.151 58.0626 142.319C60.4184 141.626 62.2198 144.675 60.5569 146.892C59.1712 148.694 57.7854 152.297 56.8154 155.068C55.9839 157.424 55.7068 159.78 55.7068 162.136C55.7068 164.907 55.8454 167.263 56.1225 169.341L76.2159 196.918L42.6807 216.319L29.5161 192.484Z" fill="#FFBE9D"/>
<path d="M21.7551 169.896C21.478 170.173 17.5979 167.54 13.0249 163.937C8.45191 160.334 4.98751 157.147 5.12609 156.87C5.40324 156.593 9.28333 159.226 13.8563 162.828C18.4293 166.431 21.8937 169.48 21.7551 169.896Z" fill="#AA9B50"/>
<path d="M25.9899 165.479C26.2087 165.165 22.2626 162.038 17.1762 158.495C12.0898 154.952 7.7891 152.334 7.57036 152.647C7.35163 152.961 11.2977 156.089 16.3841 159.632C21.4705 163.175 25.7712 165.793 25.9899 165.479Z" fill="#AA9B50"/>
<path d="M29.0204 160.834C29.235 160.517 25.4534 157.581 20.5739 154.277C15.6945 150.973 11.565 148.551 11.3504 148.868C11.1358 149.185 14.9175 152.12 19.7969 155.425C24.6764 158.729 28.8059 161.15 29.0204 160.834Z" fill="#AA9B50"/>
<path d="M57.9232 173.499L137.881 274.797L119.589 317.479C119.589 317.479 97.6943 312.628 91.0427 303.344C84.3911 294.059 29.6538 192.484 29.6538 192.484L57.9232 173.499Z" fill="#EB996E"/>
<path d="M260.799 31.5975C266.619 36.5863 266.48 45.3165 265.926 52.9382C265.233 60.5598 264.818 69.1515 269.945 74.6945C274.241 79.2675 282.139 81.2075 283.109 87.4434C283.525 90.3535 282.001 93.4022 279.507 94.7879C276.874 96.1737 273.548 95.7579 271.331 93.8179C272.993 98.668 271.885 104.765 267.589 107.814C263.293 110.724 256.226 108.923 254.979 103.934C255.81 107.26 253.316 111.001 249.99 111.556C246.664 112.11 243.061 109.477 242.646 106.151" fill="#251A51"/>
<path d="M178.485 82.7319C177.099 86.4734 172.249 88.5521 168.507 87.0277C164.766 85.5034 162.826 80.6533 164.489 76.9117C165.875 74.0016 168.923 71.923 169.2 68.7358C169.616 64.8557 165.736 62.2227 162.272 60.5598C158.807 58.8969 154.789 56.6797 154.373 52.9382C153.957 49.1966 157.283 46.4251 160.054 43.9308C162.826 41.4364 165.597 37.6949 163.796 34.3691C162.964 32.7062 161.163 31.7361 159.916 30.2118C157.283 26.886 158.669 21.6201 161.994 19.1258C165.32 16.4929 169.893 16.2157 174.051 16.9086C178.208 17.6015 182.088 19.4029 186.107 20.5115C199.41 24.3917 214.237 22.4516 226.016 15.2457" fill="#251A51"/>
<path d="M203.013 172.113C217.979 175.162 232.53 165.6 235.717 150.772L255.395 60.5598C260.522 38.6649 246.665 16.77 224.492 12.197L222.414 11.9199C201.628 8.87122 181.95 22.313 177.377 42.8222C172.942 61.807 168.369 82.8705 166.984 93.2636C164.074 114.743 184.999 121.117 184.999 121.117L181.257 139.132C178.208 154.375 187.909 169.064 203.013 172.113Z" fill="#FFBE9D"/>
<path d="M181.257 56.9569C180.98 58.6198 182.089 60.1441 183.752 60.4213C185.415 60.6984 187.077 59.7284 187.355 58.0655C187.632 56.4026 186.523 54.8783 184.86 54.6011C183.059 54.324 181.534 55.294 181.257 56.9569Z" fill="#251A51"/>
<path d="M180.426 53.9082C180.703 54.3239 183.336 52.9382 186.662 53.4925C189.988 53.9082 192.066 55.9868 192.482 55.5711C192.621 55.4325 192.343 54.6011 191.512 53.7696C190.542 52.7996 188.879 51.8296 186.939 51.5524C184.86 51.2753 183.059 51.8296 181.95 52.3839C180.703 53.0768 180.287 53.7696 180.426 53.9082Z" fill="#251A51"/>
<path d="M213.269 62.2227C212.992 63.8856 214.1 65.41 215.763 65.6871C217.426 65.9643 219.089 64.9942 219.366 63.3313C219.643 61.6684 218.535 60.1441 216.872 59.867C215.209 59.5898 213.546 60.6984 213.269 62.2227Z" fill="#251A51"/>
<path d="M212.576 59.3127C212.853 59.7284 215.486 58.3426 218.812 58.8969C222.138 59.3127 224.217 61.3913 224.632 60.9756C224.771 60.837 224.494 60.0055 223.662 59.1741C222.692 58.2041 221.029 57.234 219.089 56.9569C217.011 56.6797 215.209 57.234 214.101 57.7883C212.853 58.4812 212.438 59.0355 212.576 59.3127Z" fill="#251A51"/>
<path d="M197.055 81.9004C197.055 81.7618 195.115 81.069 191.79 80.099C190.958 79.8218 190.127 79.5447 190.127 78.9904C189.988 78.2975 190.542 77.466 191.097 76.6346C192.205 74.6945 193.314 72.7545 194.561 70.6758C199.273 62.0842 202.876 55.0168 202.598 54.7397C202.183 54.6011 198.025 61.3913 193.314 69.983C192.205 72.0616 191.097 74.1402 189.988 76.0803C189.572 77.0503 188.879 78.0203 189.018 79.2675C189.157 79.9604 189.711 80.5147 190.265 80.6533C190.819 80.9304 191.235 80.9304 191.651 81.069C194.977 81.7619 197.055 82.1776 197.055 81.9004Z" fill="#251A51"/>
<path d="M213.684 46.2866C213.823 47.2566 217.287 47.2566 221.029 48.3652C224.77 49.3352 227.819 50.8596 228.373 50.1667C228.65 49.751 228.235 48.9195 227.126 47.8109C226.018 46.7023 224.078 45.5937 221.86 45.0394C219.643 44.4851 217.426 44.4851 215.902 44.9008C214.377 45.3165 213.546 45.8708 213.684 46.2866Z" fill="#251A51"/>
<path d="M183.059 44.6236C183.475 45.4551 185.969 45.0394 188.602 45.3165C191.374 45.5937 193.591 46.5637 194.145 45.8708C194.422 45.5937 194.145 44.7622 193.314 43.9308C192.482 43.0993 190.819 42.2679 189.018 41.9907C187.078 41.7136 185.415 42.2679 184.306 42.8222C183.198 43.515 182.782 44.2079 183.059 44.6236Z" fill="#251A51"/>
<path d="M235.578 33.8148C238.627 37.1406 240.428 41.2979 240.29 45.7323C240.29 45.8708 240.29 46.0094 240.29 46.148C240.29 52.3839 239.181 58.6198 239.181 64.7171C239.181 70.953 240.428 77.466 244.308 82.3162C245.971 84.2562 249.02 85.9191 250.821 84.1177C251.514 83.4248 251.791 82.4548 251.93 81.4847C255.256 66.9343 261.215 54.4625 263.432 39.0807C263.986 34.9234 262.6 30.6276 259.552 27.7175C256.642 24.946 253.039 21.8973 249.297 23.1445C245.417 24.2531 239.874 30.3504 236.687 32.8448" fill="#251A51"/>
<path d="M246.665 69.2901C247.08 69.1515 262.047 67.0729 259.414 81.6233C256.781 96.1737 242.785 90.4921 242.785 90.0764C242.923 89.6607 246.665 69.2901 246.665 69.2901Z" fill="#FFBE9D"/>
<path d="M248.189 85.3648C248.328 85.3648 248.466 85.6419 248.743 85.9191C249.159 86.1962 249.852 86.4734 250.683 86.3348C252.346 86.0577 254.009 83.8404 254.563 81.2075C254.841 79.8217 254.841 78.5746 254.563 77.466C254.286 76.3574 253.732 75.3873 253.039 75.1102C252.346 74.833 251.653 75.1102 251.376 75.5259C251.099 75.9416 251.099 76.2188 251.099 76.2188C251.099 76.2188 250.822 75.9416 251.099 75.3873C251.238 75.1102 251.376 74.833 251.792 74.5559C252.208 74.2787 252.762 74.2787 253.316 74.4173C254.425 74.6945 255.256 75.9416 255.533 77.1888C255.949 78.436 255.949 79.9603 255.672 81.3461C255.118 84.2562 253.039 86.7505 250.822 87.0277C249.713 87.1663 249.02 86.6119 248.605 86.1962C248.189 85.7805 248.189 85.5033 248.189 85.3648Z" fill="#AA9B50"/>
<path d="M249.435 25.5002C253.87 20.2344 245.278 10.3955 238.349 6.93115C231.421 3.60534 221.443 5.68397 213.96 7.06972C209.249 7.90118 204.398 9.28693 199.687 8.45548C196.5 7.90118 193.59 6.23826 190.818 4.71394C187.908 3.18961 184.998 1.80386 181.672 1.52671C178.485 1.24956 174.882 2.49673 173.219 5.26824C171.556 8.03975 172.665 12.3356 175.852 13.3056C172.11 10.5341 165.875 12.6127 164.489 17.0471C163.103 21.4816 167.26 26.6089 171.972 26.3317C170.17 24.3916 166.567 26.6089 166.429 29.2418C166.29 31.8747 168.369 34.0919 170.586 35.4777C176.268 39.0806 183.474 39.2192 190.125 37.972C196.777 36.7248 203.151 34.3691 209.664 32.9833C216.316 31.5976 227.402 29.1032 233.361 32.1519C237.795 34.5076 240.151 40.4664 242.922 39.6349C245.555 38.8035 247.634 36.4477 248.465 33.6762C249.435 31.1818 249.435 28.2718 249.435 25.5002Z" fill="#251A51"/>
<path d="M277.981 92.9865C277.981 92.9865 278.259 92.9865 278.813 92.7093C279.229 92.4322 279.921 91.8779 280.337 90.9078C280.753 89.9378 281.03 88.6906 280.753 87.1663C280.476 85.642 279.506 84.1177 278.12 82.8705C276.734 81.6233 274.933 80.6533 272.854 79.8218C270.914 78.9904 268.697 78.1589 266.757 76.9117C264.817 75.526 263.292 73.5859 262.322 71.0916C261.352 68.7358 260.937 65.9643 261.075 63.1928C261.214 57.6498 262.738 52.5225 263.154 47.5338C263.57 42.6836 262.877 38.1106 260.798 34.9234C258.719 31.7362 255.948 30.2118 253.869 29.6575C252.899 29.3804 252.068 29.3804 251.514 29.3804C250.959 29.3804 250.682 29.519 250.682 29.519C250.682 29.6575 251.791 29.3804 253.869 29.9347C255.809 30.489 258.442 32.0133 260.382 35.2005C262.322 38.2492 263.015 42.6836 262.461 47.5338C262.045 52.3839 260.521 57.5112 260.382 63.1928C260.382 65.9643 260.66 68.8744 261.768 71.3687C262.738 73.8631 264.401 76.0803 266.48 77.466C268.558 78.8518 270.776 79.5447 272.716 80.3761C274.656 81.2076 276.457 82.039 277.843 83.2862C279.229 84.3948 280.199 85.9191 280.337 87.3049C280.614 88.6907 280.337 89.9378 280.06 90.9078C279.229 92.7093 277.843 92.9865 277.981 92.9865Z" fill="#455A64"/>
<path d="M175.436 13.0285C175.436 13.0285 175.298 12.8899 174.743 12.7513C174.466 12.6127 174.328 12.4742 173.912 12.4742C173.635 12.3356 173.219 12.197 172.803 12.197C171.002 11.7813 168.092 12.0584 165.459 14.4142C163.657 16.4928 162.549 19.5415 162.826 23.1445C163.103 26.6089 164.905 30.3504 168.23 32.9833C171.418 35.7548 175.714 37.4177 180.286 37.8335C184.859 38.3878 189.848 37.8335 194.698 37.002C202.736 35.4777 209.942 32.429 215.9 28.8261C218.949 27.0246 221.721 25.3617 224.631 24.2531C227.541 23.1445 230.312 22.5902 232.945 22.5902C238.211 22.4516 242.368 24.1145 244.863 25.3617C247.496 26.7474 248.604 27.856 248.743 27.856C248.743 27.856 247.634 26.6089 245.001 25.2231C242.507 23.8373 238.35 22.1744 232.945 22.1744C230.312 22.1744 227.402 22.7287 224.353 23.8373C221.443 24.946 218.533 26.6089 215.485 28.4103C209.526 32.0133 202.32 34.9234 194.421 36.4477C189.571 37.4177 184.721 37.8335 180.286 37.2792C175.714 36.8634 171.556 35.2005 168.508 32.5676C165.459 30.0732 163.519 26.4703 163.242 23.1445C162.965 19.8187 163.935 16.77 165.597 14.8299C168.092 12.6127 170.863 12.197 172.665 12.4742C174.466 12.4742 175.298 13.0285 175.436 13.0285Z" fill="#455A64"/>
<path d="M183.474 0.833847C183.474 0.833847 183.335 2.08103 184.028 4.15966C184.721 6.23829 186.522 9.0098 189.71 11.0884C191.373 12.197 193.313 13.0285 195.53 13.4442C197.747 13.8599 200.241 13.9985 202.736 13.8599C207.863 13.4442 213.129 11.7813 218.672 10.257C224.215 8.87121 229.896 8.03976 234.608 9.28694C239.458 10.5341 243.061 13.4442 245.417 16.3543C247.773 19.2644 249.02 22.1744 249.574 24.1145C250.128 26.1931 250.128 27.3017 250.267 27.3017C250.267 27.3017 250.267 27.0246 250.267 26.4703C250.267 25.916 250.128 25.0845 249.851 23.9759C249.297 21.8973 248.188 18.9872 245.833 15.9386C243.477 12.8899 239.735 9.84124 234.747 8.59407C229.758 7.20831 224.076 8.03976 218.395 9.42552C212.713 10.9498 207.447 12.6127 202.459 13.0285C199.964 13.3056 197.608 13.1671 195.391 12.7513C193.174 12.3356 191.373 11.5042 189.71 10.5341C186.522 8.59407 184.721 5.96113 184.028 4.02107C183.474 2.08102 183.612 0.833847 183.474 0.833847Z" fill="#455A64"/>
<path d="M190.541 92.8479C190.818 94.2336 191.096 95.758 191.65 97.0052C192.343 98.2523 193.313 99.4995 194.698 99.7767C196.223 100.192 197.747 99.6381 198.856 98.5295C199.964 97.4209 200.519 96.0351 200.796 94.5108C201.073 93.125 200.796 91.4621 199.41 90.9078C198.856 90.7693 198.301 90.7693 197.747 90.9078C195.253 91.3236 192.62 91.8779 190.125 92.2936" fill="#EB996E"/>
<path d="M191.926 98.6681C192.065 98.5295 193.312 99.4995 195.806 99.3609C196.915 99.2224 198.301 98.8066 199.409 97.698C200.379 96.5894 201.072 94.9265 200.934 93.2636C200.934 92.8479 200.795 92.4322 200.657 92.0164C200.518 91.6007 200.518 91.7393 200.241 91.6007C199.964 91.6007 199.409 91.6007 198.994 91.7393C198.578 91.7393 198.162 91.7393 197.746 91.8779C196.084 92.0165 194.559 92.155 193.312 92.155C190.818 92.2936 189.155 92.2936 189.155 92.0164C189.155 91.8779 190.679 91.6007 193.174 91.185C194.421 91.0464 195.945 90.7693 197.608 90.6307C198.024 90.6307 198.439 90.4921 198.855 90.4921C199.271 90.4921 199.687 90.3535 200.241 90.3535C200.518 90.3535 200.934 90.4921 201.211 90.7693C201.488 91.0464 201.627 91.3236 201.765 91.6007C201.904 92.155 202.042 92.5708 202.181 93.1251C202.319 95.2037 201.488 97.2823 200.241 98.5295C198.855 99.7767 197.192 100.331 195.806 100.192C194.421 100.192 193.451 99.7767 192.758 99.3609C192.065 99.0838 191.788 98.6681 191.926 98.6681Z" fill="#251A51"/>
<path d="M184.998 121.117C184.998 121.117 198.994 126.383 212.574 122.503C212.574 122.503 202.319 131.095 183.612 127.769L184.998 121.117Z" fill="#EB996E"/>
<path d="M206.338 319.834C206.338 319.834 205.645 319.28 204.398 318.31C203.843 317.756 203.012 317.201 202.181 316.647C201.349 315.954 200.379 315.261 199.132 314.43C198.023 313.598 196.776 312.767 195.252 312.074C193.866 311.243 192.342 310.411 190.679 309.58C187.353 308.055 183.611 306.531 179.593 305.284C175.574 304.037 171.555 303.344 167.952 302.79C166.151 302.651 164.488 302.374 162.825 302.374C161.162 302.235 159.638 302.235 158.252 302.235C156.866 302.235 155.619 302.374 154.511 302.374C153.402 302.374 152.432 302.512 151.739 302.651C150.215 302.79 149.383 302.928 149.383 302.79C149.383 302.79 150.215 302.651 151.739 302.374C152.571 302.235 153.402 302.097 154.511 302.097C155.619 301.958 156.866 301.82 158.252 301.82C159.638 301.82 161.162 301.681 162.825 301.82C164.488 301.82 166.151 302.097 168.091 302.235C171.694 302.651 175.713 303.482 179.87 304.591C183.889 305.838 187.63 307.363 190.956 309.025C192.619 309.857 194.143 310.688 195.529 311.52C196.915 312.351 198.162 313.183 199.27 314.014C200.379 314.846 201.349 315.539 202.319 316.231C203.151 316.924 203.843 317.479 204.536 318.033C205.783 319.141 206.338 319.834 206.338 319.834Z" fill="#FAFAFA"/>
<path d="M124.855 248.607L136.219 199.412C140.514 180.843 145.78 163.106 154.372 161.027V166.709L150.63 307.363C150.63 307.363 127.488 333.692 97.9718 319.141C88.6873 314.568 71.9197 282.28 71.9197 282.28C71.9197 282.28 32.8414 212.438 34.3657 209.251C36.0286 206.064 59.8636 175.3 62.3579 173.637L124.855 248.607Z" fill="#E3707F"/>
<path d="M241.813 147.169C264.401 151.465 289.899 164.63 301.539 198.442C305.835 210.776 336.876 301.681 336.876 301.681L283.802 300.572L275.21 281.865L279.367 312.213L282.97 355.587L149.106 357.804L150.076 292.396L151.324 162.413C151.324 162.413 152.848 160.473 175.852 147.724C190.263 139.825 241.813 147.169 241.813 147.169Z" fill="#E3707F"/>
<g opacity="0.2">
<g opacity="0.2">
<g opacity="0.2">
<path opacity="0.2" d="M255.255 234.056C257.472 261.494 259.966 269.947 262.184 297.385C262.322 300.018 262.599 302.651 263.569 305.007C264.539 307.363 266.618 309.58 269.112 309.995C272.993 310.827 278.12 313.598 279.228 309.718L275.487 283.25C275.487 283.25 274.655 278.262 271.884 272.164C263.569 254.011 260.521 252.902 255.255 234.056Z" fill="#251A51"/>
</g>
</g>
</g>
<path d="M175.99 161.858L176.405 158.948L180.701 131.51C180.978 129.847 182.503 128.739 184.166 128.877L236.963 133.312C240.289 133.589 242.783 136.499 242.506 139.825L241.397 155.761L224.768 177.24L201.072 180.982" fill="#E3707F"/>
<path d="M149.522 309.164C149.752 309.164 149.938 287.697 149.938 261.217C149.938 234.736 149.752 213.27 149.522 213.27C149.293 213.27 149.106 234.736 149.106 261.217C149.106 287.697 149.293 309.164 149.522 309.164Z" fill="#251A51"/>
<path d="M285.049 304.868C285.049 304.868 285.049 304.73 284.91 304.591C284.772 304.314 284.633 304.037 284.494 303.621C284.079 302.79 283.524 301.542 282.832 300.018C281.446 296.831 279.506 292.258 277.011 286.576C272.161 275.075 265.51 259.415 258.165 242.094C254.562 233.363 251.098 225.049 247.911 217.566C246.248 213.824 245.139 210.083 244.446 206.48C243.753 202.877 243.615 199.412 243.476 196.364C243.476 190.128 244.308 185.139 245.555 181.813C245.693 181.398 245.832 180.982 245.97 180.705C246.109 180.428 246.248 180.012 246.386 179.735C246.663 179.18 246.94 178.626 247.218 178.21C247.495 177.795 247.633 177.517 247.772 177.379C247.91 177.24 248.049 177.102 248.049 177.102C248.188 177.102 246.94 178.626 245.693 181.952C244.585 185.139 243.753 190.128 243.892 196.364C244.03 202.461 244.862 209.944 248.326 217.427C251.513 224.91 254.978 233.225 258.719 241.955C265.925 259.277 272.577 275.075 277.427 286.576C279.783 292.258 281.723 296.831 282.97 300.157C283.663 301.681 284.079 302.928 284.494 303.898C284.633 304.314 284.772 304.591 284.91 304.868C285.049 304.73 285.049 304.868 285.049 304.868Z" fill="#251A51"/>
<path d="M258.304 151.881C258.304 151.881 257.749 152.435 256.779 153.267C255.671 154.098 254.008 155.207 251.791 156.177C249.435 157.147 246.386 158.117 242.922 158.671C239.319 159.225 235.3 159.641 230.727 159.918C226.154 160.057 221.166 160.057 215.9 160.196C210.634 160.334 204.952 160.611 199.132 162.274C193.45 163.798 187.492 166.709 183.334 171.559C181.256 174.053 179.731 176.963 178.9 180.15C178.069 183.338 178.069 186.802 179.039 190.128C179.593 191.791 180.424 193.176 181.394 194.562C182.364 195.809 183.75 196.918 185.136 197.749C186.522 198.581 188.185 198.858 189.709 198.719C191.233 198.581 192.758 197.749 193.728 196.641C195.806 194.285 196.222 190.821 195.806 187.911C195.529 186.386 195.113 184.862 194.42 183.615C193.728 182.229 192.896 180.982 191.926 179.873C188.185 175.3 182.78 172.667 177.653 171.42C172.526 170.173 167.398 170.45 163.102 171.559C158.668 172.667 155.065 174.469 152.016 176.27C148.968 178.072 146.473 180.15 144.672 181.813C142.732 183.476 141.485 184.862 140.515 185.832C140.099 186.248 139.683 186.663 139.545 186.941C139.267 187.218 139.129 187.356 139.129 187.356C139.129 187.356 140.792 185.139 144.533 181.675C146.473 180.012 148.829 177.933 151.878 175.993C154.926 174.053 158.668 172.252 163.102 171.143C167.537 169.896 172.664 169.619 177.93 170.866C183.196 172.113 188.6 174.746 192.48 179.457C193.45 180.705 194.282 181.952 194.975 183.338C195.668 184.723 196.083 186.248 196.361 187.911C196.638 189.435 196.638 191.098 196.222 192.761C195.945 194.424 195.252 195.948 194.143 197.195C193.035 198.442 191.372 199.412 189.57 199.551C187.769 199.69 186.106 199.274 184.582 198.442C183.057 197.611 181.672 196.502 180.563 195.117C179.454 193.731 178.623 192.206 178.069 190.405C176.96 187.079 177.099 183.476 177.93 180.15C178.761 176.825 180.286 173.776 182.503 171.282C186.799 166.154 192.896 163.383 198.578 161.858C204.398 160.334 210.218 159.918 215.484 159.918C220.888 159.78 225.739 159.918 230.311 159.78C234.884 159.641 238.903 159.225 242.506 158.671C246.109 158.117 249.019 157.285 251.375 156.315C253.731 155.345 255.394 154.237 256.502 153.544C257.057 153.128 257.472 152.851 257.749 152.574C258.165 152.02 258.304 151.881 258.304 151.881Z" fill="#FAFAFA"/>
<path d="M304.034 209.528C304.034 209.528 303.895 209.528 303.48 209.667C303.064 209.667 302.509 209.805 301.817 209.805C300.292 209.944 298.214 209.805 295.581 209.667C292.948 209.528 289.761 209.113 286.296 208.558C282.832 208.143 279.09 207.588 275.072 207.311C271.053 207.173 267.173 207.45 263.847 208.143C260.521 208.835 257.472 210.083 255.255 211.33C250.682 214.101 249.019 217.15 248.881 216.873C248.881 216.873 249.019 216.734 249.158 216.319C249.435 216.041 249.712 215.487 250.128 214.933C251.098 213.824 252.622 212.3 254.84 210.776C257.057 209.39 260.105 208.143 263.57 207.311C267.034 206.48 270.914 206.203 274.933 206.341C278.952 206.618 282.832 207.173 286.296 207.588C289.761 208.143 292.809 208.558 295.442 208.835C298.075 209.113 300.154 209.251 301.678 209.251C303.202 209.528 304.034 209.528 304.034 209.528Z" fill="#FAFAFA"/>
<path d="M270.775 271.749C270.775 271.887 268.004 270.779 262.876 271.056C260.244 271.194 257.195 271.749 253.592 272.719C249.989 273.689 246.109 275.075 241.674 276.46C237.24 277.846 232.251 279.093 226.708 279.093C221.165 279.093 215.345 277.985 209.664 275.629C203.982 273.273 198.577 269.393 194.143 264.404C191.926 261.91 189.986 259 188.6 255.813C187.214 252.625 186.521 249.022 187.076 245.419C187.63 241.816 189.293 238.491 192.064 236.135C193.45 235.026 194.974 234.056 196.776 233.779C198.439 233.363 200.24 233.502 201.903 233.918C203.566 234.333 205.091 235.165 206.338 236.412C207.585 237.521 208.555 239.045 208.832 240.708C209.248 242.371 208.971 244.034 208.416 245.558C207.862 247.082 206.892 248.468 205.783 249.577C203.566 251.794 200.933 253.318 198.162 254.427C196.776 254.981 195.39 255.397 194.004 255.535C193.312 255.674 192.619 255.813 191.926 255.951C191.233 256.09 190.54 256.09 189.847 256.228C184.443 256.783 179.177 256.228 174.742 255.12C170.169 254.011 166.289 252.348 163.102 250.685C159.915 248.884 157.282 247.082 155.342 245.281C154.788 244.865 154.372 244.449 153.956 244.034C153.54 243.618 153.125 243.202 152.848 242.925C152.155 242.232 151.6 241.539 151.185 241.124C150.769 240.569 150.492 240.292 150.215 239.876C149.938 239.599 149.938 239.461 149.938 239.461C149.938 239.461 150.076 239.599 150.353 239.876C150.63 240.154 150.908 240.569 151.462 240.985C151.878 241.539 152.432 242.094 153.263 242.786C153.679 243.202 153.956 243.479 154.372 243.895C154.788 244.311 155.342 244.727 155.758 245.142C157.698 246.805 160.331 248.607 163.518 250.408C166.705 252.071 170.585 253.734 175.158 254.704C179.593 255.674 184.72 256.228 190.124 255.674C190.817 255.535 191.51 255.535 192.203 255.397C192.896 255.258 193.589 255.12 194.282 254.981C195.667 254.704 197.053 254.288 198.3 253.873C200.933 252.902 203.566 251.378 205.645 249.161C206.615 248.052 207.585 246.805 208.139 245.419C208.693 244.034 208.832 242.509 208.416 240.985C207.723 237.936 205.091 235.581 201.903 234.749C200.379 234.333 198.716 234.195 197.053 234.611C195.529 234.888 194.004 235.719 192.757 236.828C190.263 239.045 188.6 242.232 188.046 245.697C187.491 249.161 188.323 252.625 189.57 255.674C190.956 258.861 192.757 261.633 194.975 264.127C199.27 269.116 204.675 272.857 210.218 275.213C215.761 277.707 221.581 278.678 226.985 278.816C232.39 278.955 237.379 277.707 241.813 276.322C246.247 274.936 250.266 273.689 253.73 272.719C257.333 271.749 260.521 271.194 263.015 271.194C264.262 271.056 265.509 271.194 266.479 271.194C267.449 271.333 268.281 271.472 268.974 271.61C269.667 271.749 270.082 271.887 270.498 272.026C270.637 271.61 270.775 271.749 270.775 271.749Z" fill="#FAFAFA"/>
<path d="M148.968 256.921C148.829 256.921 148.275 255.397 146.889 253.18C145.504 250.962 143.425 247.914 140.515 245.281C137.605 242.509 134.418 240.569 132.2 239.461C129.845 238.213 128.32 237.798 128.32 237.659C128.32 237.659 128.736 237.659 129.429 237.936C130.122 238.075 131.092 238.491 132.339 239.045C134.833 240.153 138.021 242.094 140.931 244.865C143.979 247.637 146.058 250.685 147.305 253.041C147.998 254.15 148.414 255.258 148.691 255.951C148.968 256.505 149.107 256.921 148.968 256.921Z" fill="#FAFAFA"/>
<path d="M95.2004 316.231C95.2004 316.231 95.0618 316.093 94.9232 315.954C94.7846 315.677 94.6461 315.4 94.3689 314.846C93.8146 313.876 93.1217 312.49 92.2903 310.827C90.4888 307.224 87.9944 302.097 85.9158 295.168C84.9458 291.704 84.1143 287.823 83.9757 283.666C83.8372 281.588 83.9758 279.37 84.2529 277.153C84.5301 274.936 85.0843 272.719 85.9158 270.363C87.5787 265.929 90.0731 261.494 94.0918 258.03C97.9719 254.704 103.238 252.348 108.919 252.902C111.691 253.18 114.462 254.288 116.264 256.505C118.065 258.584 118.897 261.494 118.342 264.127C118.065 265.374 117.372 266.621 116.402 267.591C115.432 268.561 114.185 269.116 113.077 269.393C110.582 270.086 107.949 269.67 105.871 268.561C103.653 267.453 101.991 265.79 100.605 263.988C99.219 262.187 98.1104 260.247 97.279 258.307C95.6161 254.427 95.2004 250.408 95.4775 246.805C95.7547 243.202 96.8633 240.153 98.249 237.659C99.6348 235.165 101.159 233.225 102.545 231.839C103.931 230.453 105.178 229.483 106.148 228.929C106.564 228.652 106.979 228.513 107.118 228.375C107.395 228.236 107.534 228.236 107.534 228.236C107.534 228.236 107.118 228.513 106.286 229.206C105.455 229.76 104.208 230.73 102.822 232.116C101.436 233.502 99.9119 235.442 98.6647 237.936C97.4176 240.431 96.309 243.479 96.0318 246.944C95.7547 250.408 96.309 254.427 97.9719 258.168C98.8033 260.108 99.9119 261.91 101.298 263.573C102.683 265.236 104.346 266.899 106.425 267.869C108.504 268.977 110.859 269.254 113.215 268.7C115.432 268.146 117.511 266.344 118.065 263.988C118.62 261.633 117.788 259 116.125 257.06C114.462 255.12 111.968 254.011 109.335 253.734C104.069 253.18 98.8033 255.397 95.0618 258.723C91.1817 262.048 88.6873 266.344 87.163 270.779C86.4701 272.996 85.9158 275.213 85.5001 277.43C85.2229 279.647 85.0843 281.726 85.2229 283.805C85.3615 287.962 86.193 291.842 87.163 295.168C89.1031 301.958 91.5974 307.224 93.2603 310.827C94.0918 312.628 94.7846 314.014 95.2004 314.984C95.4775 315.4 95.6161 315.816 95.7547 316.093C95.2004 316.093 95.2004 316.231 95.2004 316.231Z" fill="#FAFAFA"/>
<path d="M78.1558 193.869C78.1558 193.869 78.1558 194.008 78.2944 194.424C78.2944 194.839 78.433 195.394 78.433 196.087C78.5715 197.611 78.5715 199.689 78.433 202.322C78.0172 207.588 76.2158 214.794 71.6428 221.584C67.0698 228.236 60.8339 232.67 56.1223 234.888C53.7665 235.996 51.6879 236.689 50.3022 237.105C49.6093 237.382 49.055 237.382 48.6393 237.521C48.2235 237.659 48.085 237.659 48.085 237.659C48.085 237.659 48.7778 237.382 50.1636 236.828C51.5493 236.412 53.4894 235.581 55.8452 234.333C60.4182 231.978 66.5155 227.682 70.9499 221.169C75.5229 214.656 77.3244 207.45 77.8787 202.322C78.1558 199.689 78.1558 197.611 78.1558 196.225C78.1558 194.701 78.0173 193.869 78.1558 193.869Z" fill="#FAFAFA"/>
<path d="M316.228 254.011C316.366 254.15 313.595 255.258 310.823 258.861C309.438 260.663 308.052 263.018 306.528 265.513C305.003 268.007 302.925 270.779 300.569 273.412C295.857 278.539 290.453 282.142 286.434 284.082C284.356 285.052 282.693 285.745 281.445 286.161C280.198 286.576 279.505 286.715 279.505 286.715C279.505 286.715 280.198 286.438 281.307 285.883C282.415 285.329 284.217 284.636 286.157 283.528C290.176 281.449 295.442 277.846 300.015 272.857C302.37 270.363 304.31 267.73 305.973 265.097C307.636 262.603 309.022 260.247 310.546 258.445C311.932 256.644 313.456 255.397 314.565 254.704C315.119 254.427 315.535 254.15 315.812 254.011C316.089 254.011 316.228 254.011 316.228 254.011Z" fill="#FAFAFA"/>
<path d="M241.259 148.694C241.259 148.694 240.981 148.832 240.566 148.832C240.011 148.971 239.457 148.971 238.764 149.109C237.101 149.387 234.884 149.664 231.974 150.079C226.154 150.911 218.255 151.742 209.386 152.435C204.952 152.712 200.795 152.99 196.914 152.851C193.034 152.712 189.57 152.02 186.798 151.188C184.027 150.218 181.948 148.971 180.563 148.139C179.87 147.724 179.454 147.308 179.038 146.892C178.761 146.615 178.623 146.477 178.623 146.477C178.623 146.477 179.315 147.031 180.701 147.862C182.087 148.694 184.166 149.802 186.937 150.772C189.709 151.604 193.034 152.158 196.914 152.297C200.795 152.435 204.952 152.158 209.386 151.742C218.255 151.05 226.154 150.218 231.974 149.664C234.746 149.387 237.101 149.109 238.764 148.832C240.427 148.832 241.259 148.694 241.259 148.694Z" fill="#251A51"/>
<path d="M336.184 311.381C340.618 334.246 323.157 355.448 300.015 355.587L195.114 354.478L197.885 320.527L287.821 307.085" fill="#EB996E"/>
<path d="M204.398 322.052C203.982 322.19 197.885 319.557 192.481 316.924C186.661 314.291 180.425 313.044 174.05 313.321L148.968 314.569C148.968 314.569 150.492 318.726 153.125 320.112C155.758 321.636 171.279 321.913 171.279 321.913L170.447 322.744C167.121 326.07 162.687 328.01 157.975 328.149H155.62C153.818 328.01 152.155 327.733 150.354 327.179L144.118 324.685C142.316 323.853 140.238 323.992 139.406 325.793C138.713 327.456 139.268 329.812 144.257 332.445C147.167 333.831 157.698 337.572 157.698 337.572C157.698 337.572 157.837 340.482 158.253 342.006C158.668 343.531 162.826 345.055 162.826 345.055C162.826 345.055 165.459 350.46 166.567 351.707C166.983 352.261 170.863 353.37 174.743 354.617C181.256 356.418 188.046 356.418 194.421 354.478L203.983 351.568V322.467" fill="#FFBE9D"/>
<path d="M170.17 341.036C170.17 341.175 167.26 341.036 163.657 340.066C160.193 339.096 157.421 337.849 157.56 337.711C157.698 337.572 160.331 338.542 163.796 339.512C167.26 340.482 170.17 340.898 170.17 341.036Z" fill="#AA9B50"/>
<path d="M173.773 319.834C173.773 319.834 173.08 320.666 171.833 321.913C170.585 323.16 168.645 324.685 166.428 326.07C164.072 327.456 161.717 328.149 160.054 328.565C158.391 328.98 157.282 328.98 157.282 328.842C157.282 328.565 161.578 328.149 166.151 325.516C168.368 324.13 170.308 322.745 171.556 321.636C172.941 320.389 173.773 319.696 173.773 319.834Z" fill="#AA9B50"/>
<path d="M206.892 317.479L204.398 355.864H303.341C309.992 355.864 316.644 354.062 322.326 350.598C335.629 342.561 342.558 327.04 339.509 311.797C338.539 305.561 336.183 298.217 333.135 290.456L283.386 298.632L284.91 304.868L206.892 317.479Z" fill="#E3707F"/>
<path d="M307.914 301.681C307.914 301.681 307.637 301.82 306.944 301.958C306.251 302.097 305.281 302.235 304.034 302.512C301.401 302.928 297.798 303.482 293.364 304.314C284.356 305.7 271.884 307.778 258.166 309.857C244.447 311.936 232.113 313.876 222.967 315.261C218.533 315.954 214.93 316.37 212.297 316.786C211.05 316.924 210.08 317.063 209.387 317.201C208.694 317.34 208.417 317.34 208.417 317.34C208.417 317.34 208.694 317.201 209.387 317.063C210.08 316.924 211.05 316.786 212.297 316.509C214.93 316.093 218.533 315.538 222.967 314.707C231.975 313.321 244.447 311.243 258.166 309.164C271.884 307.085 284.218 305.145 293.364 303.76C297.798 303.067 301.401 302.651 304.034 302.235C305.281 302.097 306.251 301.958 306.944 301.82C307.498 301.681 307.914 301.681 307.914 301.681Z" fill="#251A51"/>
<path d="M257.333 356.003C257.195 356.003 257.888 353.231 258.026 348.658C258.026 347.549 258.026 346.302 257.888 344.917C257.888 343.531 257.611 342.145 257.333 340.759C256.641 337.849 255.671 334.662 254.146 331.613C252.622 328.565 250.682 325.793 248.742 323.576C248.187 323.022 247.772 322.467 247.356 321.913C246.94 321.359 246.386 320.943 245.832 320.527C244.862 319.557 243.892 318.864 243.06 318.033C239.596 315.261 236.963 313.876 237.101 313.737C237.101 313.737 237.794 314.014 238.903 314.568C239.457 314.846 240.15 315.261 240.843 315.816C241.536 316.37 242.506 316.924 243.337 317.617C244.169 318.31 245.277 319.142 246.247 319.973C246.802 320.389 247.217 320.943 247.772 321.359C248.326 321.913 248.742 322.467 249.296 323.022C251.236 325.377 253.315 328.01 254.839 331.198C256.363 334.385 257.472 337.572 258.026 340.482C258.303 342.006 258.581 343.392 258.581 344.778C258.719 346.164 258.719 347.411 258.581 348.519C258.581 349.628 258.442 350.737 258.303 351.568C258.165 352.538 258.026 353.231 257.888 353.924C257.611 355.31 257.333 356.003 257.333 356.003Z" fill="#FAFAFA"/>
<path d="M317.476 353.092C317.476 353.092 315.813 353.231 312.903 352.538C311.517 352.122 309.716 351.707 307.776 350.737C305.835 349.767 303.895 348.381 301.955 346.441C300.154 344.501 298.491 341.868 297.659 338.819C297.244 337.295 296.967 335.632 296.967 333.969C296.828 332.306 296.967 330.505 297.382 328.842C297.798 327.04 298.352 325.377 299.461 323.714C300.431 322.19 301.817 320.666 303.618 319.696C305.281 318.726 307.36 318.171 309.438 318.31C311.517 318.449 313.596 319.419 314.843 321.082C316.229 322.744 316.921 324.823 316.644 326.902C316.367 328.98 314.981 330.782 313.18 331.752C309.716 333.83 305.697 333.83 302.232 333.276C295.165 332.168 289.622 327.872 286.712 323.437C283.802 318.864 282.97 314.43 282.97 311.52C282.832 308.471 283.386 306.947 283.386 306.947C283.525 306.947 283.109 308.61 283.248 311.52C283.386 314.43 284.218 318.864 287.128 323.16C290.038 327.456 295.442 331.613 302.232 332.722C305.558 333.276 309.438 333.138 312.626 331.336C314.15 330.366 315.397 328.842 315.674 326.902C315.951 325.1 315.259 323.16 314.011 321.636C312.764 320.111 310.963 319.28 309.023 319.141C307.083 319.003 305.281 319.419 303.618 320.389C300.292 322.19 298.491 325.655 297.659 328.98C297.244 330.643 297.105 332.306 297.244 333.969C297.244 335.632 297.521 337.156 297.937 338.681C298.768 341.729 300.292 344.224 301.955 346.164C303.757 348.104 305.697 349.489 307.498 350.46C309.3 351.43 311.101 351.984 312.487 352.4C315.813 352.954 317.476 352.954 317.476 353.092Z" fill="#FAFAFA"/>
</svg>
