<svg width="238" height="224" xmlns="http://www.w3.org/2000/svg">

 <g>
  <title>background</title>
  <rect fill="none" id="canvas_background" height="226" width="240" y="-1" x="-1"/>
 </g>
 <g>
  <title>Layer 1</title>
  <path id="svg_1" fill="#FFF001" d="m3.3493,112.322c2.5013,-9.33 6.395,-18.047 12.1739,-25.536c7.2082,-9.222 16.1045,-16.4547 26.9107,-20.6647c11.1511,-4.2812 23.3743,-6.0859 33.3181,-12.6357c9.808,-6.342 10.165,-15.5884 16.536,-25.3571c10.96,-23.9122 45.984,-37.5536 70.073,-6.737c3.943,4.9411 3.29,12.8098 7.097,17.9587c6.913,9.5437 19.111,10.9815 29.067,15.4003c11.349,5.0305 21.625,12.6206 28.685,22.8535c9.106,13.047 10.905,28.143 7.307,43.275c-4.522,18.38 -19.012,31.444 -23.399,49.616c-4.128,16.859 -5.064,34.319 -21.809,44.431c-9.882,5.998 -22.734,7.393 -33.651,3.532c-8.761,-3.047 -15.168,-11.076 -24.126,-13.363c-8.058,-2.293 -15.624,1.068 -23.202,3.533c-32.381,10.284 -65.4404,6.499 -88.5806,-20.736c-17.0162,-19.688 -22.9676,-49.933 -16.4001,-75.57z"/>
 </g>
</svg>