<svg width="244" height="372" viewBox="0 0 244 372" fill="none" xmlns="http://www.w3.org/2000/svg">
<path d="M123.738 188.178C100.46 164.374 63.9386 154.344 31.8315 162.903C59.7914 181.625 91.2295 191.655 124.942 191.923" fill="#E3707F"/>
<path d="M92.5676 77.8501C96.4472 50.7026 85.8786 20.3457 65.5441 0.553467C64.8752 27.4334 76.2465 57.6567 92.5676 77.8501Z" fill="#E3707F"/>
<path d="M108.755 128.935C94.3067 101.387 70.6278 78.6525 42.2666 65.5469C50.8285 96.7062 77.4505 122.249 109.022 129.203" fill="#E3707F"/>
<path d="M112.099 138.831C95.7783 139.233 79.1897 138.698 63.4037 134.552C47.6178 130.406 32.3669 122.382 21.9321 109.812C53.7716 109.812 85.4773 119.574 111.966 137.227" fill="#E3707F"/>
<path d="M103.805 106.335C112.099 75.1754 125.879 53.6447 150.36 36.2596C152.233 51.3713 148.487 67.1515 140.059 79.856C131.631 92.5605 118.521 102.189 103.805 106.335Z" fill="#E3707F"/>
<path d="M165.611 159.961C166.012 141.907 154.373 124.121 137.651 117.301C138.989 133.349 151.564 151.937 165.611 159.961Z" fill="#E3707F"/>
<path d="M173.37 133.75C175.243 107.806 193.705 83.7343 218.32 75.1755C212.701 101.253 197.718 122.918 173.37 133.75Z" fill="#E3707F"/>
<path d="M161.598 180.288C167.35 171.997 176.848 166.915 186.481 164.374C196.246 161.833 206.414 161.566 216.447 161.432C202.802 176.41 182.467 184.835 162.267 184.033" fill="#E3707F"/>
<path d="M149.959 246.619C168.153 241.002 188.354 242.473 205.477 250.631C222.601 258.788 236.648 273.499 243.738 291.151C209.758 284.598 176.046 269.487 149.959 246.619Z" fill="#E3707F"/>
<path d="M112.501 223.617C118.119 240.333 117.049 260.527 104.474 274.97C99.3903 257.852 102.467 238.461 112.501 223.617Z" fill="#E3707F"/>
<path d="M90.4273 214.39C88.8219 235.92 75.0427 256.114 55.6447 265.475C54.7082 265.876 53.5042 266.411 52.5677 266.01C51.0962 265.341 50.8286 263.335 51.0962 261.597C53.5042 240.066 69.4239 219.338 90.4273 214.39Z" fill="#E3707F"/>
<path d="M75.9789 212.116C66.3467 222.413 52.4337 228.565 38.3869 228.699C24.3401 228.833 10.2932 222.815 0.527344 212.517C24.4738 209.976 52.1661 208.104 75.9789 212.116Z" fill="#E3707F"/>
<path d="M72.3672 20.4794C72.3672 20.4794 72.3672 20.7468 72.6347 21.148C72.7685 21.683 73.0361 22.3516 73.3036 23.154C73.9725 25.0262 74.909 27.5671 76.2468 30.9104C77.5846 34.2537 79.0561 38.3993 80.7953 43.2137C81.598 45.6208 82.5344 48.1617 83.6046 50.9701C84.5411 53.6447 85.6113 56.5868 86.5478 59.6626C90.8287 71.8321 95.511 86.4088 100.595 102.59C105.544 118.905 110.896 136.825 115.979 155.682C121.063 174.671 125.611 192.725 129.491 209.308C133.237 225.89 136.447 240.868 138.722 253.573C139.257 256.782 139.926 259.724 140.461 262.533C140.996 265.341 141.397 268.016 141.799 270.557C142.601 275.638 143.404 279.918 143.939 283.529C144.474 287.006 144.876 289.814 145.143 291.686C145.277 292.622 145.411 293.291 145.544 293.826C145.678 294.361 145.678 294.494 145.678 294.494C145.678 294.494 145.678 294.227 145.678 293.826C145.678 293.291 145.544 292.622 145.411 291.686C145.143 289.814 144.742 287.006 144.34 283.529C143.939 279.918 143.136 275.638 142.334 270.557C141.932 268.016 141.531 265.341 140.996 262.533C140.461 259.724 139.926 256.649 139.391 253.439C137.116 240.735 134.039 225.757 130.294 209.174C126.548 192.591 121.999 174.404 116.916 155.414C111.698 136.424 106.481 118.504 101.397 102.323C96.1799 86.1414 91.4976 71.5647 87.0829 59.5289C86.0127 56.453 84.9424 53.6447 84.006 50.8363C82.9358 48.1617 81.9993 45.6208 81.1966 43.2137C79.4575 38.3993 77.8521 34.2537 76.5143 30.9104C75.1765 27.5671 74.2401 25.0262 73.4374 23.154C73.0361 22.3516 72.7685 21.683 72.6347 21.148C72.501 20.7468 72.3672 20.4794 72.3672 20.4794Z" fill="#251A51"/>
<path d="M204.14 89.0835C204.14 89.0835 204.006 89.2172 203.738 89.4847C203.471 89.7522 203.069 90.1534 202.534 90.6883C201.598 91.7581 200.126 93.3629 198.253 95.5026C194.641 99.6483 189.558 105.934 184.073 114.359C178.722 122.65 173.103 133.348 169.357 145.919C165.344 158.49 162.936 172.799 160.528 187.643C155.712 217.599 149.692 244.345 145.277 263.736C143.136 273.365 141.263 281.121 140.059 286.604C139.524 289.279 138.989 291.419 138.722 292.89C138.588 293.558 138.454 294.093 138.32 294.494C138.187 294.896 138.187 295.029 138.187 295.029C138.187 295.029 138.32 294.896 138.32 294.494C138.454 294.093 138.588 293.558 138.722 292.89C139.123 291.419 139.658 289.279 140.327 286.738C141.665 281.255 143.538 273.499 145.812 263.87C150.36 244.479 156.38 217.733 161.33 187.911C163.738 172.933 166.146 158.757 170.026 146.187C173.772 133.616 179.257 123.051 184.474 114.76C189.825 106.335 194.775 100.049 198.253 95.7701C199.993 93.6304 201.464 92.0256 202.401 90.9557C202.802 90.4208 203.203 90.0196 203.471 89.7522C204.006 89.2172 204.14 89.0835 204.14 89.0835Z" fill="#251A51"/>
<path d="M68.7549 211.18C68.7549 211.18 69.0224 211.314 69.5576 211.314C70.2265 211.447 71.0291 211.447 72.0994 211.581C72.6345 211.581 73.3034 211.715 73.8385 211.715C74.5074 211.849 75.1763 211.982 75.979 211.982C77.4505 212.25 79.1897 212.384 81.0626 212.785C81.999 212.918 83.0693 213.186 84.0057 213.32C85.076 213.587 86.1462 213.855 87.2164 214.122C89.4907 214.657 91.7649 215.459 94.1729 216.128C98.989 217.866 104.206 220.006 109.424 222.815C114.641 225.623 119.19 228.966 123.069 232.309C124.942 234.048 126.815 235.653 128.287 237.258C129.892 238.862 131.23 240.467 132.434 242.072C133.772 243.543 134.574 245.014 135.511 246.351C136.447 247.555 137.116 248.758 137.651 249.695C138.186 250.497 138.588 251.299 138.989 251.834C139.257 252.369 139.524 252.637 139.524 252.503C139.524 252.503 139.39 252.235 139.123 251.7C138.855 251.032 138.454 250.363 138.053 249.427C137.517 248.491 136.982 247.287 136.046 245.95C135.243 244.613 134.307 243.142 133.103 241.671C131.899 240.066 130.561 238.461 128.956 236.723C127.484 234.984 125.611 233.379 123.738 231.641C119.859 228.298 115.176 224.954 109.959 222.012C104.742 219.204 99.5241 216.93 94.5743 215.326C92.1663 214.657 89.7582 213.855 87.484 213.32C86.4137 213.052 85.3435 212.785 84.2733 212.517C83.203 212.384 82.2666 212.116 81.3301 211.982C79.4572 211.581 77.7181 211.447 76.1127 211.18C75.3101 211.046 74.6412 211.046 73.9723 210.912C73.3034 210.912 72.7683 210.779 72.0994 210.779C71.1629 210.779 70.2265 210.645 69.5576 210.645C69.1562 211.046 68.7549 211.046 68.7549 211.18Z" fill="#251A51"/>
<path d="M61.9321 89.6184C61.9321 89.6184 62.4672 90.2871 63.6713 91.2232C65.0091 92.293 66.6144 93.7641 68.6211 95.5026C72.7682 99.1133 78.6545 103.928 85.0759 109.411C91.4973 114.76 97.5174 119.574 101.798 123.051C103.805 124.656 105.544 125.993 106.882 127.063C108.086 127.999 108.755 128.534 108.889 128.4C108.889 128.4 108.354 127.732 107.15 126.796C105.812 125.726 104.206 124.255 102.2 122.516C98.0525 118.906 92.1662 114.091 85.7448 108.608C79.3234 103.259 73.4371 98.4447 69.0224 94.9677C67.0157 93.3629 65.2766 92.0256 63.9388 90.9557C62.7348 90.1533 62.0659 89.6184 61.9321 89.6184Z" fill="#251A51"/>
<path d="M112.553 138.11C112.616 137.898 100.03 133.994 84.4424 129.39C68.8543 124.787 56.1667 121.228 56.1039 121.44C56.0411 121.653 68.6269 125.557 84.215 130.16C99.8031 134.763 112.491 138.323 112.553 138.11Z" fill="#251A51"/>
<path d="M102.601 108.742C102.601 108.742 103.136 108.073 103.939 106.87C104.875 105.532 105.945 103.794 107.283 101.788C110.092 97.5086 114.106 91.7582 118.788 85.4728C123.47 79.3212 128.019 73.9719 131.497 70.0937C133.102 68.2215 134.44 66.7504 135.51 65.5469C136.447 64.477 136.982 63.8083 136.848 63.8083C136.848 63.8083 136.179 64.3433 135.243 65.2794C134.173 66.2155 132.835 67.8203 131.096 69.6925C127.617 73.437 122.935 78.7862 118.253 84.9379C113.571 91.0895 109.557 96.9737 106.882 101.387C105.544 103.526 104.474 105.399 103.805 106.602C102.868 108.073 102.467 108.742 102.601 108.742Z" fill="#251A51"/>
<path d="M146.347 126.394C146.213 126.528 147.417 128.267 149.29 131.209C151.163 134.151 153.705 138.296 156.38 142.977C159.056 147.658 161.197 151.937 162.802 155.013C164.407 158.089 165.344 160.095 165.477 160.095C165.611 160.095 164.809 157.955 163.337 154.745C161.865 151.536 159.725 147.123 157.049 142.442C154.374 137.762 151.698 133.75 149.692 130.808C147.819 127.999 146.347 126.261 146.347 126.394Z" fill="#251A51"/>
<path d="M161.33 181.224C161.33 181.358 163.738 180.154 167.751 178.416C171.631 176.677 177.116 174.27 183.404 172.13C189.557 169.991 195.31 168.386 199.457 167.316C203.604 166.246 206.28 165.711 206.28 165.578C206.28 165.578 205.611 165.578 204.407 165.711C203.203 165.845 201.464 166.246 199.323 166.647C195.042 167.584 189.29 169.055 183.002 171.328C176.715 173.468 171.23 175.875 167.35 177.881C165.477 178.817 163.872 179.619 162.802 180.288C161.865 180.823 161.196 181.09 161.33 181.224Z" fill="#251A51"/>
<path d="M149.424 246.752C149.424 246.752 149.691 246.886 150.227 247.02C150.895 247.154 151.564 247.421 152.501 247.555C154.641 248.09 157.451 248.758 160.929 249.427C168.019 251.032 177.785 253.172 188.22 256.649C198.655 260.259 207.618 264.672 213.772 268.684C216.849 270.69 219.257 272.295 220.862 273.632C222.467 274.836 223.404 275.505 223.404 275.505C223.404 275.505 223.27 275.237 222.869 274.97C222.467 274.569 221.932 274.034 221.13 273.365C219.524 272.028 217.25 270.289 214.173 268.149C208.153 264.137 199.19 259.457 188.621 255.846C178.053 252.235 168.153 250.363 161.063 248.892C157.584 248.223 154.775 247.689 152.635 247.287C150.628 246.886 149.558 246.752 149.424 246.752Z" fill="#251A51"/>
<path d="M110.172 243.174C111.776 232.212 112.898 223.299 112.679 223.267C112.459 223.235 110.981 232.096 109.378 243.058C107.774 254.02 106.652 262.933 106.871 262.965C107.091 262.997 108.568 254.136 110.172 243.174Z" fill="#251A51"/>
<path d="M62.6008 246.886C62.7346 247.02 64.2062 245.148 66.6142 242.206C69.0222 239.263 72.3667 235.118 76.1125 230.705C79.8584 226.292 83.3366 222.28 85.8784 219.338C88.4202 216.529 90.0256 214.657 89.8918 214.523C89.8918 214.523 89.3567 214.924 88.6878 215.593C87.8851 216.395 86.8149 217.465 85.4771 218.803C82.8015 221.611 79.3232 225.489 75.4436 229.902C71.6978 234.315 68.4871 238.595 66.2129 241.671C65.1426 243.275 64.2062 244.479 63.5373 245.415C62.8684 246.351 62.467 246.752 62.6008 246.886Z" fill="#251A51"/>
<path d="M179.925 287.942V309.874H174.44L154.909 371.256H111.698L92.8349 310.542L85.6108 309.874V287.942H179.925Z" fill="#FFF001"/>
<path d="M131.765 310.944C155.26 310.944 174.307 310.764 174.307 310.542C174.307 310.321 155.26 310.141 131.765 310.141C108.27 310.141 89.2231 310.321 89.2231 310.542C89.2231 310.764 108.27 310.944 131.765 310.944Z" fill="#251A51"/>
<path d="M58.186 169.59C58.186 169.59 59.1225 169.857 60.9954 170.392C63.0021 170.927 65.5439 171.462 68.6208 172.264C75.0422 173.869 83.7379 176.276 93.2362 179.486C102.735 182.695 111.163 186.039 117.183 188.713C120.126 189.917 122.534 190.987 124.273 191.789C126.012 192.591 126.949 192.859 126.949 192.859C126.949 192.859 126.146 192.324 124.407 191.521C122.801 190.719 120.393 189.516 117.316 188.178C111.296 185.37 102.868 181.893 93.37 178.683C83.8717 175.474 75.0422 173.2 68.487 171.729C65.2763 171.061 62.6008 170.526 60.8616 170.125C59.2563 169.723 58.186 169.59 58.186 169.59Z" fill="#251A51"/>
<path d="M133.504 345.045C149.98 345.045 163.337 344.865 163.337 344.644C163.337 344.422 149.98 344.242 133.504 344.242C117.028 344.242 103.671 344.422 103.671 344.644C103.671 344.865 117.028 345.045 133.504 345.045Z" fill="#FAFAFA"/>
<path d="M133.504 339.963C151.015 339.963 165.21 339.783 165.21 339.562C165.21 339.34 151.015 339.161 133.504 339.161C115.993 339.161 101.798 339.34 101.798 339.562C101.798 339.783 115.993 339.963 133.504 339.963Z" fill="#FAFAFA"/>
</svg>
