<svg width="203" height="210" viewBox="0 0 203 210" fill="none" xmlns="http://www.w3.org/2000/svg">
<path d="M88.0948 202.548C58.1203 186.456 47.8326 151.546 45.355 119.42C44.9365 114.05 43.7198 108.489 45.7643 103.516C47.8209 98.5416 53.4686 94.6724 58.5685 96.3879C62.7993 97.8092 65.0644 102.234 67.7469 105.803C71.3106 110.554 76.2362 114.26 81.7872 116.358C85.4292 117.739 89.8128 118.341 93.0102 116.109C97.3948 113.043 97.2411 106.624 96.6087 101.311C95.4389 91.4195 94.268 81.5157 93.0982 71.624C92.4659 66.3111 91.8472 60.8872 92.9537 55.663C94.0602 50.4389 97.2373 45.3326 102.202 43.3568C107.165 41.3689 113.824 43.5805 115.494 48.6597C116.184 50.7745 115.991 53.0718 116.384 55.2639C116.778 57.456 118.097 59.7784 120.29 60.1526C122.508 60.5365 124.497 58.7858 125.926 57.0521C130.884 51.0681 133.883 43.7367 136.633 36.466C139.395 29.1941 142.022 21.7889 146.414 15.3718C150.806 8.95466 157.256 3.54607 164.919 2.26143C172.591 0.951492 181.327 4.74254 184.12 11.9925C186.914 19.2667 183.33 27.3609 179.187 33.9613C173.048 43.751 165.472 52.6553 156.798 60.2881C155.237 61.6688 153.54 63.16 153.103 65.2005C152.334 68.869 156.121 72.0144 159.802 72.7818C163.967 73.6489 168.269 72.7603 172.523 72.778C176.777 72.7957 181.535 74.1177 183.552 77.8597C186.365 83.0484 182.392 89.2547 178.29 93.4872C170.051 101.968 160.359 109.016 149.76 114.238C145.956 116.115 141.929 117.83 139.047 120.934C136.165 124.038 134.767 129.022 137.116 132.549C139.467 136.089 144.549 136.733 148.624 135.513C152.686 134.294 156.15 131.659 159.938 129.747C167.027 126.166 176.649 125.607 182.091 131.396C185.673 135.195 186.591 140.943 185.572 146.062C184.553 151.18 181.828 155.792 178.878 160.096C168.554 175.15 154.608 187.896 138.1 195.672C121.569 203.45 105.844 206.813 88.0948 202.548Z" fill="#ECF1FE"/>
<path d="M90.3637 202.964C93.331 186.29 102.07 146.872 107.732 128.184C109.161 123.526 110.581 118.905 111.984 114.359C113.389 109.825 114.772 105.33 116.417 101.017C119.644 92.372 123.427 84.3074 127.247 76.7633C131.066 69.207 134.972 62.1785 138.681 55.632C142.402 49.0844 145.977 43.0503 149.472 37.6942C156.433 26.9481 163.072 18.9381 167.861 13.616C170.249 10.9495 172.164 8.93777 173.484 7.59234C174.129 6.94551 174.628 6.4345 174.983 6.07139C175.329 5.73358 175.52 5.56897 175.52 5.56897C175.52 5.56897 175.368 5.76632 175.05 6.12596C174.697 6.51322 174.223 7.03398 173.605 7.70264C172.325 9.09289 170.449 11.1253 168.1 13.8246C163.389 19.2001 156.838 27.2382 149.952 38.0014C146.495 43.3661 142.945 49.4099 139.262 55.9662C135.579 62.5345 131.697 69.5607 127.902 77.1146C124.106 84.6565 120.359 92.7054 117.14 101.313C115.518 105.612 114.143 110.07 112.74 114.615C111.349 119.16 109.927 123.769 108.498 128.427C102.835 147.103 94.0918 186.473 91.0837 203.102" fill="#D6DFF5"/>
<path d="M116.603 100.926C116.544 100.944 116.285 100.152 115.854 98.7069C115.423 97.2618 114.855 95.1595 114.191 92.5548C112.849 87.3465 111.25 80.0915 109.494 72.0839C107.738 64.0764 106.01 56.8704 104.562 51.6967C103.85 49.1087 103.248 47.022 102.805 45.59C102.375 44.157 102.164 43.3487 102.211 43.332C102.258 43.3153 102.576 44.0889 103.101 45.5007C103.639 46.9112 104.325 48.9778 105.108 51.5467C106.699 56.6944 108.525 63.9032 110.283 71.9229C112.008 79.8603 113.576 87.0452 114.751 92.4278C115.321 94.932 115.801 97.0182 116.175 98.6273C116.499 100.095 116.65 100.909 116.603 100.926Z" fill="#D6DFF5"/>
<path d="M184.41 80.4584C184.412 80.4826 184.175 80.5541 183.709 80.6476C183.147 80.7625 182.477 80.8878 181.676 81.0501C179.917 81.3897 177.369 81.8782 174.232 82.5818C167.965 83.9394 159.367 86.1425 150.001 88.9799C140.637 91.8415 132.269 94.7901 126.278 97.1204C123.281 98.2614 120.878 99.2478 119.212 99.9196C118.449 100.224 117.816 100.48 117.287 100.689C116.84 100.854 116.604 100.938 116.589 100.903C116.575 100.88 116.793 100.749 117.212 100.538C117.725 100.294 118.341 99.9911 119.074 99.6282C120.694 98.8633 123.077 97.7935 126.056 96.5813C131.998 94.1216 140.356 91.0764 149.755 88.1993C159.144 85.3475 167.788 83.2375 174.104 82.0092C177.26 81.377 179.828 80.9717 181.607 80.7155C182.426 80.6125 183.101 80.5354 183.666 80.4568C184.152 80.4466 184.395 80.4354 184.41 80.4584Z" fill="#D6DFF5"/>
<path d="M94.9272 180.202C94.9042 180.217 94.7194 179.942 94.3763 179.414C94.0009 178.805 93.5236 178.022 92.9322 177.067C91.6886 175.03 89.9502 172.029 87.8489 168.295C83.6463 160.827 78.1677 150.35 72.2591 138.696C66.3505 127.042 60.954 116.533 56.8917 109.003C54.8808 105.321 53.2378 102.299 52.0405 100.111C51.5073 99.1261 51.0639 98.3157 50.7235 97.6904C50.4263 97.1341 50.2875 96.8306 50.3105 96.8162C50.3335 96.8018 50.5183 97.0765 50.8614 97.604C51.2368 98.2138 51.7141 98.9965 52.3055 99.9511C53.5492 101.988 55.2876 104.99 57.3888 108.723C61.5914 116.191 67.07 126.668 72.9786 138.322C78.8861 149.964 84.2837 160.486 88.3449 168.004C90.3558 171.685 91.9988 174.708 93.196 176.896C93.7305 177.892 94.1727 178.691 94.5131 179.316C94.8114 179.884 94.9502 180.188 94.9272 180.202Z" fill="#D6DFF5"/>
<path d="M183.656 140.714C183.67 140.737 183.369 140.9 182.774 141.176C182.108 141.472 181.256 141.858 180.193 142.338C177.856 143.379 174.63 144.81 170.679 146.555C162.651 150.129 151.623 155.197 139.455 160.826C127.286 166.455 116.215 171.455 108.113 174.89C104.062 176.607 100.781 177.97 98.4916 178.873C97.411 179.293 96.5298 179.634 95.8481 179.894C95.2365 180.124 94.9175 180.227 94.9031 180.204C94.8887 180.182 95.1898 180.019 95.7847 179.742C96.4509 179.447 97.3033 179.06 98.366 178.58C100.703 177.539 103.929 176.108 107.88 174.364C115.908 170.79 126.936 165.721 139.104 160.092C151.272 154.463 162.345 149.476 170.434 146.03C174.485 144.312 177.766 142.949 180.055 142.047C181.136 141.626 182.017 141.286 182.699 141.025C183.322 140.795 183.641 140.691 183.656 140.714Z" fill="#D6DFF5"/>
<path d="M56.2118 204.686C71.6645 198.124 78.2874 181.43 80.9473 165.754C81.394 163.134 82.2416 160.455 81.4602 157.92C80.6728 155.383 78.0711 153.228 75.4879 153.842C73.345 154.35 72.0331 156.423 70.5547 158.056C68.5901 160.231 66.0031 161.831 63.181 162.614C61.3293 163.128 59.148 163.228 57.677 161.987C55.6599 160.284 56.0236 157.136 56.5729 154.554C57.5919 149.745 58.6119 144.931 59.6309 140.122C60.1802 137.54 60.7277 134.902 60.4185 132.285C60.1092 129.668 58.7772 127.016 56.4262 125.822C54.0763 124.622 50.7049 125.41 49.6561 127.831C49.2218 128.84 49.2138 129.977 48.9221 131.037C48.6303 132.096 47.8775 133.179 46.7831 133.264C45.6758 133.353 44.7772 132.403 44.1524 131.487C41.985 128.324 40.84 124.587 39.8151 120.89C38.7843 117.192 37.8256 113.435 35.9556 110.085C34.0856 106.734 31.1586 103.786 27.4505 102.811C23.7387 101.823 19.2757 103.294 17.5779 106.731C15.8779 110.18 17.276 114.319 19.0154 117.749C21.5927 122.835 24.9163 127.551 28.8361 131.692C29.5413 132.44 30.3081 133.249 30.4315 134.271C30.6445 136.109 28.6422 137.485 26.799 137.696C24.7131 137.935 22.6392 137.306 20.5477 137.123C18.4562 136.941 16.059 137.377 14.8999 139.126C13.2842 141.549 14.958 144.777 16.7838 147.041C20.4518 151.579 24.8985 155.478 29.8726 158.52C31.6579 159.613 33.5598 160.637 34.8368 162.291C36.1138 163.946 36.5769 166.458 35.2639 168.086C33.9499 169.72 31.4234 169.809 29.4758 169.026C27.5342 168.245 25.9506 166.794 24.1745 165.684C20.8516 163.606 16.1485 162.9 13.214 165.5C11.2832 167.206 10.5741 169.99 10.8451 172.551C11.1162 175.112 12.2483 177.501 13.5045 179.749C17.9024 187.61 24.1836 194.499 31.9465 199.062C39.7212 203.627 47.2978 205.985 56.2118 204.686Z" fill="#FFF000"/>
<path d="M55.0783 204.789C54.3687 196.461 51.8438 176.698 49.9005 167.26C49.4074 164.907 48.9168 162.572 48.4314 160.275C47.9448 157.984 47.4666 155.713 46.8519 153.52C45.6542 149.127 44.1575 144.994 42.6188 141.115C41.0813 137.23 39.4772 133.601 37.9484 130.217C36.4138 126.832 34.9276 123.706 33.4509 120.917C30.5125 115.324 27.6096 111.09 25.495 108.259C24.4411 106.842 23.5905 105.767 23.0019 105.046C22.7141 104.7 22.4917 104.426 22.3336 104.232C22.179 104.05 22.0924 103.961 22.0924 103.961C22.0924 103.961 22.1581 104.065 22.2986 104.256C22.4545 104.462 22.6641 104.739 22.9378 105.095C23.5044 105.836 24.3351 106.919 25.368 108.351C27.4417 111.204 30.3002 115.448 33.201 121.047C34.659 123.838 36.1323 126.968 37.6481 130.355C39.1629 133.748 40.7553 137.375 42.2811 141.258C43.8079 145.135 45.2881 149.258 46.4833 153.633C47.0874 155.818 47.563 158.071 48.0485 160.367C48.528 162.663 49.0197 164.992 49.5128 167.345C51.4573 176.777 53.9866 196.517 54.7183 204.824" fill="#96800E"/>
<path d="M46.7645 153.467C46.7928 153.478 46.9555 153.101 47.2324 152.41C47.5092 151.719 47.8825 150.711 48.326 149.461C49.219 146.962 50.3304 143.468 51.553 139.612C52.7757 135.756 53.9484 132.292 54.8921 129.815C55.358 128.575 55.7478 127.576 56.0295 126.893C56.3052 126.208 56.4455 125.82 56.4231 125.81C56.4007 125.799 56.2096 126.165 55.888 126.835C55.5604 127.504 55.1306 128.489 54.6304 129.717C53.6173 132.175 52.3964 135.635 51.1726 139.498C49.9684 143.321 48.8755 146.781 48.0563 149.374C47.6639 150.579 47.334 151.582 47.078 152.356C46.853 153.063 46.7421 153.456 46.7645 153.467Z" fill="#96800E"/>
<path d="M14.3617 140.364C14.3595 140.376 14.4726 140.422 14.6976 140.489C14.9684 140.57 15.2922 140.662 15.6785 140.778C16.5274 141.024 17.7579 141.378 19.268 141.865C22.2867 142.813 26.4132 144.282 30.8885 146.097C35.3615 147.923 39.3415 149.748 42.1808 151.162C43.6027 151.857 44.7394 152.45 45.5278 152.855C45.889 153.039 46.1888 153.193 46.439 153.32C46.6513 153.421 46.7634 153.472 46.7726 153.456C46.7807 153.445 46.679 153.371 46.4828 153.249C46.2418 153.106 45.9524 152.929 45.6085 152.718C44.8467 152.269 43.7236 151.637 42.3143 150.907C39.5049 149.432 35.5338 147.56 31.0442 145.724C26.5583 143.901 22.4053 142.476 19.3567 141.589C17.834 141.137 16.5899 140.822 15.7273 140.616C15.3295 140.529 15.0013 140.461 14.7271 140.397C14.4885 140.37 14.3698 140.354 14.3617 140.364Z" fill="#96800E"/>
<path d="M53.8576 193.398C53.8682 193.406 53.9714 193.28 54.1637 193.036C54.3755 192.753 54.6452 192.39 54.9787 191.947C55.6813 191.002 56.6703 189.605 57.8706 187.864C60.2711 184.383 63.4338 179.481 66.8607 174.019C70.2875 168.557 73.4113 163.635 75.7457 160.117C76.8992 158.398 77.8423 156.986 78.5289 155.965C78.8351 155.505 79.0894 155.126 79.2848 154.834C79.4558 154.574 79.5376 154.431 79.527 154.423C79.5163 154.415 79.4132 154.542 79.2209 154.786C79.009 155.068 78.7393 155.432 78.4058 155.874C77.7032 156.82 76.7142 158.216 75.5139 159.957C73.1134 163.438 69.9507 168.341 66.5238 173.803C63.0981 179.259 59.9732 184.187 57.6399 187.699C56.4864 189.418 55.5433 190.83 54.8567 191.851C54.5494 192.317 54.2962 192.689 54.1009 192.981C53.9287 193.247 53.8469 193.39 53.8576 193.398Z" fill="#96800E"/>
<path d="M12.0269 170.009C12.0188 170.02 12.1595 170.113 12.4394 170.276C12.7536 170.451 13.1551 170.679 13.6558 170.963C14.7575 171.579 16.2785 172.427 18.1418 173.462C21.9264 175.579 27.1183 178.565 32.8455 181.877C38.5726 185.19 43.7888 188.144 47.6162 190.196C49.5299 191.221 51.081 192.039 52.1656 192.585C52.6778 192.84 53.0955 193.047 53.4188 193.206C53.7091 193.346 53.8612 193.411 53.8693 193.4C53.8774 193.39 53.7367 193.296 53.4568 193.134C53.1427 192.958 52.7412 192.73 52.2405 192.447C51.1387 191.83 49.6178 190.982 47.7545 189.948C43.9698 187.831 38.7779 184.845 33.0508 181.532C27.3237 178.22 22.1063 175.272 18.2859 173.215C16.3722 172.189 14.8211 171.372 13.7365 170.826C13.2244 170.571 12.8066 170.364 12.4833 170.205C12.1872 170.064 12.0351 169.999 12.0269 170.009Z" fill="#96800E"/>
</svg>
