<svg width="357" height="373" viewBox="0 0 357 373" fill="none" xmlns="http://www.w3.org/2000/svg">
<path d="M119.872 338.586C119.872 338.586 63.952 354.099 61.8115 354.767C58.467 355.971 59.0022 368.274 64.2196 368.14C66.7614 368.007 107.163 369.611 112.246 369.344C117.33 369.076 131.109 363.593 131.109 363.593L119.872 338.586Z" fill="#FFF001"/>
<path d="M96.5942 359.983C96.3267 359.983 95.9253 357.041 94.1862 353.965C92.4471 350.889 90.039 349.017 90.1728 348.883C90.3066 348.615 92.9822 350.22 94.9889 353.564C96.8618 356.773 96.8618 359.983 96.5942 359.983Z" fill="#251A51"/>
<path d="M102.481 357.308C102.213 357.308 101.678 354.767 100.206 351.825C98.7347 348.883 96.9956 346.877 97.1293 346.609C97.2631 346.476 99.4036 348.214 101.009 351.29C102.481 354.366 102.614 357.308 102.481 357.308Z" fill="#251A51"/>
<path d="M107.966 355.837C107.698 355.837 107.832 353.029 106.628 349.953C105.424 346.877 103.417 344.871 103.551 344.737C103.685 344.47 106.226 346.208 107.43 349.685C108.768 352.895 108.099 355.837 107.966 355.837Z" fill="#251A51"/>
<path d="M106.895 348.615C106.761 348.615 106.36 347.144 106.36 344.47C106.36 343.132 106.494 341.661 106.895 339.923C107.163 339.121 107.43 338.184 107.698 337.382C107.831 336.981 108.099 336.446 108.634 336.045C109.169 335.644 110.106 335.644 110.507 336.179C111.042 336.58 111.176 337.248 111.31 337.783C111.31 338.318 111.443 338.719 111.443 339.254C111.443 340.19 111.31 341.127 111.042 341.929C110.641 343.667 109.972 345.005 109.303 346.208C107.965 348.482 106.895 349.685 106.761 349.552C106.627 349.418 107.564 348.214 108.634 345.941C109.169 344.737 109.704 343.4 110.106 341.795C110.239 340.993 110.373 340.19 110.373 339.254C110.373 338.452 110.373 337.382 109.838 336.847C109.571 336.58 109.303 336.58 109.035 336.847C108.768 336.981 108.634 337.382 108.367 337.783C107.965 338.586 107.698 339.388 107.564 340.19C107.163 341.795 106.895 343.266 106.761 344.604C106.761 347.011 107.029 348.615 106.895 348.615Z" fill="#251A51"/>
<path d="M107.029 348.081C107.029 347.947 108.367 347.546 110.641 347.546C111.711 347.546 113.183 347.679 114.654 348.081C115.323 348.214 116.126 348.482 116.928 348.883C117.731 349.284 118.534 350.354 118.132 351.424C117.865 352.494 117.062 353.162 116.126 353.43C115.189 353.697 114.387 353.564 113.584 353.43C112.112 353.029 110.908 352.36 109.972 351.691C108.233 350.354 107.296 349.15 107.43 349.15C107.564 349.017 108.634 349.953 110.373 351.156C111.31 351.691 112.38 352.36 113.852 352.627C114.52 352.761 115.323 352.761 115.858 352.627C116.527 352.494 117.062 351.959 117.196 351.29C117.33 350.621 116.928 350.087 116.393 349.685C115.858 349.284 115.056 349.15 114.387 348.883C113.049 348.482 111.711 348.348 110.641 348.214C108.367 347.947 107.029 348.214 107.029 348.081Z" fill="#251A51"/>
<path d="M88.0324 360.518C87.7649 360.518 88.0324 358.11 86.9622 355.436C85.8919 352.761 84.019 351.29 84.2866 351.023C84.4204 350.755 86.6946 352.093 87.8986 355.035C88.9689 357.977 88.3 360.651 88.0324 360.518Z" fill="#251A51"/>
<path d="M126.962 363.058C126.962 363.058 126.159 363.46 124.821 364.128C123.35 364.663 121.343 365.466 118.668 366C113.316 367.338 105.691 368.14 97.3967 368.006C88.9686 367.873 81.477 367.472 75.992 367.338C73.4502 367.204 71.176 367.07 69.5706 366.937C68.0991 366.803 67.1626 366.803 67.1626 366.669C67.1626 366.669 67.9653 366.535 69.5706 366.535C71.3098 366.535 73.4502 366.535 75.992 366.535C81.6108 366.669 89.1024 366.803 97.3967 366.937C105.691 367.07 113.316 366.402 118.534 365.198C123.885 364.262 126.962 362.925 126.962 363.058Z" fill="#251A51"/>
<path d="M128.701 364.396C128.567 364.529 127.096 363.593 124.554 362.523C122.012 361.454 118.132 360.116 113.985 360.785C109.838 361.454 106.761 364.262 104.888 366.268C102.882 368.274 101.811 369.611 101.678 369.611C101.544 369.478 102.48 368.006 104.353 365.867C105.29 364.797 106.494 363.593 108.099 362.39C109.704 361.186 111.577 360.25 113.852 359.983C118.4 359.314 122.28 360.785 124.821 362.122C127.363 363.192 128.701 364.262 128.701 364.396Z" fill="#251A51"/>
<path d="M72.6477 366.803C72.514 366.669 73.0491 366.001 73.4504 364.663C73.8517 363.326 74.2531 361.454 73.8517 359.448C73.4504 357.442 72.514 355.703 71.5775 354.633C70.641 353.564 69.9721 353.029 70.1059 352.895C70.1059 352.761 71.0424 353.162 71.9788 354.232C73.0491 355.302 74.1193 357.041 74.5206 359.18C74.922 361.454 74.5206 363.46 73.8517 364.797C73.3166 366.134 72.6477 366.803 72.6477 366.803Z" fill="#251A51"/>
<path d="M178.199 340.324C178.199 340.324 235.457 349.017 237.865 349.552C241.343 350.354 242.28 362.657 237.062 363.059C234.654 363.326 194.654 369.611 189.571 369.879C184.487 370.146 168.434 366.001 168.434 366.001L178.199 340.324Z" fill="#FFF001"/>
<path d="M203.885 358.645C204.153 358.645 204.153 355.703 205.624 352.36C206.962 349.017 209.102 347.011 208.969 346.743C208.835 346.476 206.293 348.482 204.822 351.959C203.216 355.569 203.618 358.645 203.885 358.645Z" fill="#251A51"/>
<path d="M197.731 356.773C197.999 356.773 198.267 354.099 199.337 351.023C200.407 347.947 202.012 345.673 201.745 345.54C201.611 345.406 199.604 347.412 198.4 350.755C197.33 353.965 197.464 356.773 197.731 356.773Z" fill="#251A51"/>
<path d="M192.113 355.971C192.38 355.971 191.845 353.162 192.648 349.953C193.45 346.743 195.323 344.604 195.056 344.47C194.922 344.336 192.648 346.342 191.711 349.819C190.909 353.162 191.845 355.971 192.113 355.971Z" fill="#251A51"/>
<path d="M192.246 348.616C192.38 348.616 192.648 347.011 192.38 344.47C192.246 343.133 191.845 341.661 191.31 340.057C191.042 339.254 190.641 338.452 190.239 337.516C189.972 337.115 189.704 336.58 189.169 336.312C188.634 335.911 187.698 336.179 187.296 336.58C186.895 337.115 186.761 337.783 186.761 338.184C186.761 338.719 186.761 339.121 186.895 339.656C187.029 340.592 187.296 341.528 187.564 342.33C188.233 343.935 189.035 345.272 189.838 346.342C191.443 348.482 192.648 349.418 192.781 349.418C192.915 349.284 191.845 348.081 190.373 345.941C189.704 344.871 188.902 343.534 188.367 341.929C188.099 341.127 187.965 340.324 187.831 339.388C187.698 338.586 187.564 337.516 188.099 336.981C188.367 336.713 188.634 336.713 188.768 336.847C189.035 336.981 189.303 337.382 189.437 337.783C189.838 338.586 190.239 339.388 190.507 340.19C191.176 341.795 191.577 343.133 191.711 344.47C192.112 347.011 192.112 348.616 192.246 348.616Z" fill="#251A51"/>
<path d="M192.113 348.081C192.113 347.947 190.775 347.679 188.501 347.947C187.43 348.081 186.093 348.348 184.621 348.883C183.952 349.151 183.149 349.418 182.48 349.953C181.812 350.488 181.143 351.558 181.544 352.628C181.945 353.564 182.882 354.232 183.818 354.366C184.755 354.5 185.557 354.366 186.36 354.099C187.832 353.564 188.902 352.628 189.705 351.959C191.31 350.354 192.113 349.151 191.979 349.151C191.845 349.017 190.909 350.087 189.303 351.558C188.501 352.226 187.43 353.029 186.092 353.43C185.424 353.697 184.755 353.831 184.086 353.697C183.417 353.564 182.748 353.162 182.614 352.494C182.347 351.959 182.748 351.29 183.283 350.889C183.818 350.488 184.487 350.087 185.156 349.819C186.494 349.284 187.698 348.883 188.768 348.749C190.775 348.214 192.113 348.214 192.113 348.081Z" fill="#251A51"/>
<path d="M212.447 358.244C212.715 358.244 212.18 355.837 212.982 353.162C213.651 350.354 215.39 348.749 215.123 348.482C214.989 348.214 212.849 349.819 212.046 352.895C211.109 355.837 212.18 358.378 212.447 358.244Z" fill="#251A51"/>
<path d="M174.052 365.466C174.052 365.466 174.855 365.733 176.327 366.268C177.798 366.669 179.939 367.204 182.748 367.472C188.233 368.14 195.858 368.006 204.153 366.937C212.447 365.867 219.939 364.529 225.29 363.727C227.832 363.326 229.972 362.925 231.711 362.657C233.183 362.39 233.985 362.122 233.985 362.122C233.985 362.122 233.183 362.122 231.577 362.256C229.838 362.524 227.698 362.791 225.156 363.058C219.537 363.861 212.179 364.931 204.019 366C195.724 367.07 188.233 367.338 182.748 366.803C177.263 366.268 174.052 365.198 174.052 365.466Z" fill="#251A51"/>
<path d="M172.581 366.937C172.715 367.07 174.053 366 176.461 364.529C178.869 363.192 182.481 361.32 186.762 361.587C191.042 361.721 194.253 364.128 196.527 365.867C198.668 367.605 200.006 368.809 200.139 368.809C200.273 368.675 199.069 367.338 196.929 365.466C195.859 364.529 194.521 363.46 192.782 362.523C191.176 361.587 189.036 360.919 186.762 360.785C182.213 360.651 178.467 362.657 176.059 364.128C173.785 365.599 172.447 366.803 172.581 366.937Z" fill="#251A51"/>
<path d="M356.394 104.824C355.992 103.754 354.655 103.219 354.655 103.219L355.992 100.544C355.992 100.544 355.859 98.9395 355.19 97.7359C354.521 96.5323 352.247 96.6661 352.247 96.6661L352.648 95.8637C353.183 94.7938 353.049 93.4565 352.38 92.5204C352.247 92.3867 352.113 92.2529 351.979 92.1192C351.043 90.9156 349.036 90.6482 349.036 90.6482C349.036 90.6482 350.374 88.1073 349.839 87.0374C349.036 85.5664 346.227 84.0953 344.086 84.764C341.812 85.5664 336.996 87.8398 333.651 89.712C332.313 90.3807 330.708 89.8458 330.173 88.3747C329.237 85.7001 327.364 81.6882 325.089 78.8798C322.548 75.804 320.273 76.0715 318.802 76.6064C318.133 76.8739 317.865 77.6762 318.267 78.2112C319.337 79.9497 321.344 83.4267 321.879 84.8977C322.548 86.6362 323.216 99.8756 323.216 99.8756L319.604 106.696L283.083 164.334C283.083 164.334 228.099 127.29 228.233 126.354L225.691 168.881L267.163 196.429C274.387 201.244 283.35 202.581 291.645 200.04C299.939 197.633 306.628 191.615 310.106 183.725L338.066 123.145L341.41 118.197L354.521 109.772C354.788 109.772 356.929 106.027 356.394 104.824Z" fill="#FFBE9D"/>
<path d="M350.374 90.6481C350.374 90.6481 350.24 90.7818 350.106 90.9156C349.838 91.0493 349.571 91.3168 349.303 91.5842C348.634 92.1192 347.564 92.9215 346.36 93.8577C345.156 94.7938 343.551 95.9974 341.945 97.2009C341.143 97.8696 340.34 98.5382 339.27 99.0732C338.333 99.6081 336.996 100.009 335.792 99.4744C335.256 99.2069 334.721 98.672 334.454 98.137C334.186 97.6021 334.052 96.9335 334.186 96.3986C334.186 95.195 334.855 94.1251 335.524 93.4565C336.193 92.6541 336.996 91.9854 337.665 91.4505C338.333 90.9156 339.002 90.2469 339.671 89.8457C340.875 88.9096 341.812 88.1072 342.614 87.4386C342.882 87.1711 343.149 87.0374 343.417 86.7699C343.551 86.6362 343.685 86.5024 343.685 86.5024C343.685 86.5024 343.551 86.6362 343.417 86.7699C343.283 86.9036 343.016 87.1711 342.614 87.4386C341.945 88.1072 341.009 88.9096 339.805 89.8457C339.27 90.3806 338.601 90.9156 337.798 91.5842C337.129 92.2529 336.327 92.7878 335.658 93.5902C334.989 94.3926 334.454 95.3287 334.32 96.3986C334.186 97.4684 334.721 98.672 335.792 99.2069C336.327 99.4744 336.862 99.4744 337.397 99.3406C337.932 99.2069 338.467 99.0732 339.002 98.8057C339.939 98.2708 340.741 97.4684 341.678 96.9335C343.283 95.7299 344.889 94.5263 346.093 93.5902C347.297 92.6541 348.367 91.9854 349.036 91.4505C349.303 91.183 349.705 91.0493 349.838 90.9156C350.24 90.7818 350.374 90.6481 350.374 90.6481Z" fill="#EB996E"/>
<path d="M353.317 96.9334C353.317 96.9334 353.049 97.0671 352.648 97.4683C352.247 97.7358 351.712 98.2707 350.909 98.6719C349.437 99.7418 347.297 101.079 344.889 102.55C344.354 102.951 343.685 103.219 343.15 103.486C342.481 103.754 341.812 103.887 341.277 103.887C339.939 103.754 339.136 102.818 338.735 101.881C338.468 100.945 338.735 100.143 338.869 99.7418C339.003 99.4743 339.136 99.3406 339.136 99.2068C339.27 99.0731 339.27 99.0731 339.27 99.0731C339.27 99.0731 339.136 99.3406 338.869 99.7418C338.735 100.143 338.468 100.945 338.869 101.748C339.136 102.55 339.939 103.352 341.143 103.486C341.678 103.486 342.347 103.353 342.882 103.085C343.417 102.818 344.086 102.416 344.621 102.149C347.029 100.678 349.17 99.3406 350.641 98.4045C351.31 98.0033 351.979 97.6021 352.381 97.2009C353.05 97.0671 353.317 96.7997 353.317 96.9334Z" fill="#EB996E"/>
<path d="M355.056 102.951C355.056 102.951 354.789 103.085 354.387 103.353C353.852 103.62 353.317 103.888 352.648 104.289C351.177 105.091 349.036 106.027 346.762 107.097C346.227 107.365 345.558 107.632 345.023 107.899C344.488 108.033 343.819 108.167 343.284 108.033C342.748 107.899 342.213 107.498 341.946 107.097C341.678 106.562 341.678 106.161 341.678 105.626C341.812 104.69 342.347 104.155 342.748 103.888C343.15 103.62 343.417 103.486 343.417 103.486C343.417 103.486 343.284 103.62 342.882 104.021C342.615 104.289 342.08 104.824 341.946 105.626C341.946 106.027 341.946 106.428 342.213 106.83C342.481 107.231 342.882 107.498 343.417 107.632C343.952 107.766 344.488 107.632 345.023 107.498C345.558 107.365 346.093 106.963 346.762 106.696C349.036 105.626 351.177 104.69 352.782 103.888C353.451 103.62 354.12 103.353 354.655 103.085C354.789 102.951 354.922 102.951 355.056 102.951Z" fill="#EB996E"/>
<path d="M355.992 108.568C355.992 108.568 355.19 108.836 353.852 109.103C352.514 109.371 350.775 109.772 348.768 110.173C348.233 110.307 347.832 110.307 347.297 110.44C346.895 110.574 346.36 110.574 345.825 110.574C345.424 110.574 344.889 110.44 344.621 110.173C344.22 109.905 344.086 109.504 344.086 109.103C344.086 108.301 344.621 107.899 344.889 107.766C345.156 107.498 345.424 107.498 345.424 107.498C345.424 107.498 345.29 107.632 345.022 107.899C344.755 108.167 344.354 108.568 344.354 109.237C344.354 109.504 344.487 109.905 344.755 110.039C345.022 110.307 345.424 110.44 345.825 110.44C346.226 110.44 346.628 110.307 347.163 110.307C347.698 110.173 348.099 110.173 348.634 110.039C350.641 109.638 352.38 109.237 353.718 109.103C355.056 108.568 355.992 108.434 355.992 108.568Z" fill="#EB996E"/>
<path d="M341.678 105.893C341.678 106.027 340.073 105.359 337.932 105.492C335.792 105.626 334.32 106.295 334.187 106.161C334.187 106.161 335.658 105.225 337.799 105.091C340.073 105.091 341.678 105.76 341.678 105.893Z" fill="#EB996E"/>
<path d="M145.156 93.1891C145.156 93.1891 126.695 77.5426 130.976 66.8441C135.257 56.1456 147.163 50.7963 153.049 31.2716C157.731 15.625 185.558 -14.4645 218.467 8.1361C218.467 8.1361 229.571 6.39759 235.992 11.4794C242.414 16.5612 243.885 26.7247 246.561 38.3593C250.708 56.413 252.982 70.3211 244.956 79.1473C236.929 87.9736 233.986 90.3808 234.387 100.411C234.922 113.516 240.675 111.778 235.725 121.273L208.032 112.313L207.765 104.69L204.956 111.911L188.902 106.161L145.156 93.1891Z" fill="#251A51"/>
<path d="M237.196 27.3934C235.457 31.5391 236.929 36.2197 238.534 40.4991C240.273 44.6447 242.28 49.0579 241.343 53.471C239.872 61.3611 230.106 65.6405 229.036 73.5307C228.501 77.8101 230.641 82.0895 229.705 86.2351C228.902 90.2471 225.558 93.3229 221.945 95.3288C218.333 97.3348 214.32 98.6721 210.976 101.079C210.976 101.079 203.484 107.231 190.775 97.0674" fill="#251A51"/>
<path d="M184.621 17.2298C181.143 16.4274 177.665 18.4334 176.594 21.7767L149.972 109.906C146.494 120.203 159.471 131.169 170.574 134.779C181.812 138.39 183.952 133.041 187.564 123.412C193.45 107.231 195.591 101.079 195.591 101.213C195.591 101.213 210.44 103.754 219.671 86.5026C224.22 77.9438 229.036 62.8321 232.514 50.3952C235.591 39.1617 233.049 23.2477 221.678 20.5731L184.621 17.2298Z" fill="#FFBE9D"/>
<path d="M223.15 59.4888C222.748 60.6924 221.41 61.4948 220.073 61.0936C218.735 60.6924 218.066 59.3551 218.334 58.1515C218.735 56.9479 220.073 56.1456 221.41 56.5467C222.882 56.9479 223.551 58.2852 223.15 59.4888Z" fill="#251A51"/>
<path d="M226.895 56.2794C226.494 56.5468 225.156 54.5408 222.615 53.7385C220.073 52.8023 217.799 53.471 217.665 53.0698C217.531 52.9361 218.066 52.4011 219.136 52.1337C220.073 51.8662 221.678 51.7325 223.283 52.2674C224.889 52.8023 225.959 53.8722 226.494 54.6746C227.029 55.6107 227.029 56.2794 226.895 56.2794Z" fill="#251A51"/>
<path d="M198.132 51.4649C197.731 52.6685 196.393 53.4709 195.056 53.0697C193.718 52.6685 193.049 51.3312 193.316 50.1276C193.718 48.924 195.056 48.1216 196.393 48.5228C197.865 48.924 198.534 50.2613 198.132 51.4649Z" fill="#251A51"/>
<path d="M201.745 48.7903C201.343 49.0578 200.005 47.0518 197.464 46.2495C194.922 45.3133 192.648 45.982 192.514 45.5808C192.38 45.4471 192.915 44.9121 193.985 44.6447C194.922 44.3772 196.527 44.2435 198.133 44.7784C199.738 45.3133 200.808 46.3832 201.343 47.1856C201.745 47.988 201.878 48.6566 201.745 48.7903Z" fill="#251A51"/>
<path d="M204.287 70.5886C204.287 70.4549 206.026 70.7224 208.701 71.2573C209.37 71.391 210.039 71.5247 210.307 71.1236C210.574 70.7224 210.574 69.92 210.574 69.1176C210.574 67.3791 210.44 65.5068 210.44 63.5009C210.173 55.6107 210.307 49.1917 210.574 49.1917C210.842 49.1917 211.377 55.6107 211.511 63.5009C211.511 65.5068 211.645 67.2454 211.645 69.1176C211.645 69.92 211.778 70.8561 211.109 71.7922C210.708 72.1934 210.173 72.4609 209.772 72.3271C209.37 72.3271 208.969 72.1934 208.568 72.0597C205.892 71.391 204.287 70.8561 204.287 70.5886Z" fill="#251A51"/>
<path d="M195.724 101.079C195.724 101.079 183.149 97.6021 173.517 85.9675C173.517 85.9675 175.39 100.678 194.253 105.359L195.724 101.079Z" fill="#EB996E"/>
<path d="M201.21 76.339C200.674 74.868 199.337 73.6644 197.731 73.2632C196.661 72.9957 195.323 73.1295 194.387 73.7981C193.45 74.4668 192.781 75.6703 193.183 76.7402C193.584 77.9438 194.922 78.6124 196.26 78.7462C197.598 78.8799 198.935 78.345 200.139 77.9438C200.541 77.81 200.808 77.6763 201.076 77.4088C201.21 77.1414 201.343 76.7402 201.21 76.339Z" fill="#EB996E"/>
<path d="M203.618 41.5689C203.216 42.2375 200.675 41.4351 197.464 41.1677C194.253 40.9002 191.711 41.3014 191.31 40.6328C191.176 40.2316 191.711 39.6966 192.915 39.1617C193.986 38.6268 195.725 38.3593 197.598 38.4931C199.471 38.6268 201.076 39.2955 202.146 39.9641C203.35 40.499 203.752 41.1677 203.618 41.5689Z" fill="#251A51"/>
<path d="M230.507 47.988C229.838 48.3892 227.832 47.1857 225.29 46.517C222.748 45.7146 220.474 45.5809 220.072 44.7785C219.939 44.3773 220.474 43.9761 221.544 43.7086C222.614 43.4412 224.353 43.4412 226.093 43.9761C227.832 44.511 229.169 45.4471 229.972 46.3833C230.775 47.0519 230.775 47.7206 230.507 47.988Z" fill="#251A51"/>
<path d="M153.718 75.0017C158.668 58.2853 163.618 41.7026 168.702 24.9862C169.772 21.5092 170.842 17.8985 173.785 15.7588C176.461 13.7528 180.073 13.4853 183.417 13.3516C197.999 13.0841 212.581 14.5552 226.762 17.631C227.431 20.9743 224.488 24.1838 221.277 25.3874C217.932 26.4573 214.454 26.0561 210.976 26.1898C207.498 26.1898 203.752 26.8584 201.344 29.3993C198.802 32.074 198.668 36.3534 196.26 39.1617C192.247 43.976 183.685 43.0399 179.671 47.8542C176.595 51.5987 177.397 56.948 176.461 61.6285C175.391 66.9778 175.391 66.9778 171.11 74.7342C168.568 79.5485 174.989 88.6422 168.568 100.544L156.126 97.0673L161.611 78.7461L154.253 95.8637L153.718 75.0017Z" fill="#251A51"/>
<path d="M196.795 70.321C197.063 70.4547 196.929 71.1234 196.929 72.0595C196.929 72.9956 197.063 74.3329 197.598 75.5365C198.267 76.7401 199.203 77.5425 200.006 78.0774C200.808 78.6123 201.477 78.8798 201.344 79.1472C201.344 79.4147 200.541 79.6821 199.337 79.4147C198.133 79.1472 196.528 78.2111 195.591 76.4726C194.655 74.7341 194.788 72.8619 195.324 71.792C195.992 70.7222 196.661 70.1872 196.795 70.321Z" fill="#251A51"/>
<path d="M193.183 30.2018C193.183 30.2018 192.916 30.3355 192.514 30.6029C191.979 30.8704 191.444 31.1379 190.508 31.6728C188.902 32.7426 186.494 34.3474 184.354 37.1558C182.213 39.8304 180.207 43.7086 179.538 48.2555C179.136 50.5289 179.27 52.936 179.538 55.4769C179.805 58.0178 180.207 60.5587 180.073 63.3671C179.939 64.7044 179.671 66.0417 179.27 67.379C178.735 68.5826 178.2 69.7862 177.531 70.856C176.193 72.9957 174.989 75.1354 174.722 77.4088C174.32 79.6823 174.588 81.822 174.855 83.8279C175.123 85.8339 175.524 87.7061 175.658 89.5784C175.926 93.0554 175.391 95.9975 174.454 97.8697C174.053 98.8058 173.518 99.3408 173.116 99.7419C172.715 100.143 172.581 100.277 172.447 100.277C172.314 100.277 173.25 99.4745 174.187 97.736C174.989 95.9975 175.524 93.1891 175.123 89.7121C174.989 87.9736 174.588 86.1014 174.32 84.0954C174.053 82.0894 173.785 79.816 174.053 77.4088C174.588 72.4608 179.27 68.8501 179.404 63.5008C179.538 60.8262 179.27 58.2853 179.003 55.7444C178.735 53.2035 178.601 50.6626 179.003 48.3892C179.671 43.7086 181.812 39.8304 184.086 37.1558C186.36 34.3474 188.768 32.7426 190.508 31.8065C191.31 31.2716 192.113 31.0041 192.514 30.8704C192.916 30.2018 193.183 30.068 193.183 30.2018Z" fill="#251A51"/>
<path d="M253.116 105.359C253.116 105.359 252.982 105.492 252.849 105.492C252.715 105.626 252.447 105.76 252.18 106.027C251.511 106.428 250.574 106.963 249.103 107.231C247.765 107.632 245.892 107.766 243.885 107.365C241.879 107.097 239.604 106.161 237.732 104.289C235.859 102.55 234.387 99.8756 233.986 96.7998C233.852 95.3287 233.852 93.7239 234.253 92.1192C234.655 90.5144 235.457 89.0434 236.394 87.706C238.4 84.8977 241.21 82.6243 243.752 80.2171C245.089 79.0135 246.293 77.6762 247.364 76.0714C248.434 74.6004 249.237 72.8619 249.905 70.9897C251.11 67.3789 251.377 63.6344 251.377 60.0237C251.243 56.413 250.842 52.936 250.307 49.5927C249.237 43.0398 247.497 37.1557 245.892 32.4751C244.153 27.6608 242.414 24.05 241.21 21.5091C240.541 20.3055 240.14 19.2357 239.738 18.567C239.337 17.8984 239.203 17.4972 239.203 17.4972C239.203 17.4972 239.471 17.7647 239.872 18.4333C240.273 19.102 240.808 20.0381 241.477 21.2417C242.815 23.7826 244.688 27.3933 246.427 32.2076C248.166 37.0219 249.905 42.7724 251.109 49.4589C251.645 52.8022 252.18 56.2792 252.18 60.0237C252.313 63.6344 252.046 67.5126 250.708 71.2571C250.039 73.1293 249.237 74.8679 248.166 76.4726C247.096 78.0774 245.758 79.4147 244.421 80.6183C241.745 83.1592 239.069 85.2989 237.063 88.1072C236.126 89.4445 235.324 90.9156 234.922 92.3866C234.521 93.8577 234.387 95.4624 234.655 96.7998C235.056 99.7418 236.394 102.283 238.133 104.021C239.872 105.76 242.013 106.696 244.019 107.097C246.026 107.498 247.765 107.365 249.103 106.963C251.778 106.295 253.116 105.225 253.116 105.359Z" fill="#251A51"/>
<path d="M139.27 87.1712C139.27 87.0375 141.143 87.0375 143.551 85.0315C145.959 83.1593 148.635 79.1473 149.303 73.5306C149.705 70.7223 149.571 67.6465 149.571 64.4369C149.571 61.0936 149.437 57.4829 150.374 53.8722C150.775 51.9999 151.578 50.2614 152.514 48.5229C153.584 46.7844 154.922 45.3134 156.795 44.2435C160.407 41.9701 164.822 42.1038 168.835 40.7665C170.842 40.0979 172.581 38.8943 173.919 37.4232C175.39 35.9522 176.461 34.2137 177.531 32.4752C179.671 29.1319 181.678 25.5212 185.023 23.5152C186.628 22.4453 188.501 21.9104 190.24 21.643C191.979 21.3755 193.718 21.3755 195.457 21.3755C198.802 21.5092 201.879 21.7767 204.554 21.2418C210.039 20.4394 214.186 18.1659 216.728 16.4274C218.066 15.4913 218.869 14.6889 219.538 14.154C219.805 13.8865 220.073 13.6191 220.206 13.4854C220.34 13.3516 220.474 13.2179 220.474 13.2179C220.474 13.2179 219.404 14.6889 216.862 16.5612C214.32 18.4334 210.307 20.8406 204.688 21.643C201.879 22.0441 198.802 21.9104 195.457 21.7767C192.247 21.7767 188.501 21.7767 185.424 23.7827C182.347 25.7886 180.34 29.2656 178.2 32.6089C177.13 34.3474 175.926 36.0859 174.454 37.557C172.982 39.028 171.109 40.3653 169.103 41.034C164.956 42.505 160.541 42.3713 157.196 44.511C153.852 46.5169 151.979 50.2614 151.043 53.7384C150.106 57.3492 150.106 60.8262 150.24 64.1695C150.24 67.5127 150.24 70.5886 149.972 73.3969C149.303 79.0136 146.494 83.1593 143.952 85.0315C142.615 85.9676 141.544 86.5026 140.742 86.6363C140.34 86.77 140.073 86.77 139.805 86.9038C139.404 87.1712 139.27 87.1712 139.27 87.1712Z" fill="#FFF001"/>
<path d="M152.782 31.8064C152.782 31.6727 153.718 32.2076 155.457 32.4751C157.196 32.7425 159.872 32.6088 162.681 31.2715C165.624 29.9342 168.434 27.527 171.377 24.4512C172.848 22.9802 174.32 21.3754 176.059 19.9043C177.798 18.4333 179.805 16.9623 182.079 16.0261C184.353 15.09 186.762 14.8226 189.17 14.6888C191.444 14.6888 193.718 14.8226 195.725 15.09C197.865 15.2238 199.738 15.4912 201.611 15.4912C203.484 15.4912 205.223 15.3575 206.695 15.09C209.772 14.5551 212.046 13.3515 213.384 12.1479C214.721 10.9444 215.256 10.142 215.256 10.142C215.256 10.142 215.123 10.4094 214.855 10.8106C214.721 11.0781 214.588 11.2118 214.32 11.4793C214.052 11.7467 213.785 12.0142 213.517 12.2817C212.18 13.4852 209.905 14.8226 206.695 15.4912C205.089 15.7587 203.35 16.0261 201.477 16.0261C199.604 16.0261 197.598 15.8924 195.457 15.6249C193.317 15.4912 191.176 15.2238 188.902 15.3575C186.628 15.3575 184.353 15.7587 182.079 16.5611C177.665 18.4333 174.454 21.9103 171.511 24.8524C168.568 27.7945 165.624 30.3354 162.547 31.6727C159.604 33.01 156.795 33.01 155.056 32.7425C154.119 32.6088 153.45 32.3413 153.049 32.0739C152.915 31.9401 152.648 31.8064 152.782 31.8064Z" fill="#FFF001"/>
<path d="M249.504 69.2512C249.37 69.2512 250.039 68.4488 250.173 66.7103C250.44 64.9718 249.905 62.5646 248.3 59.89C246.695 57.2154 243.885 54.942 240.942 52.1336C239.471 50.6626 237.999 49.0578 237.063 47.0518C235.992 45.0459 235.591 42.6387 235.457 40.3653C235.19 35.551 235.992 31.1378 235.859 27.1259C235.859 23.114 234.922 19.5032 232.915 17.0961C231.042 14.6889 228.634 13.619 227.029 13.3516C225.29 13.0841 224.354 13.3516 224.354 13.3516C224.354 13.3516 224.621 13.2179 225.022 13.2179C225.424 13.0841 226.093 13.0841 227.029 13.2179C228.768 13.3516 231.176 14.5552 233.183 16.9623C235.323 19.3695 236.394 23.114 236.394 27.2596C236.527 31.4053 235.725 35.8184 235.992 40.499C236.126 42.7724 236.661 45.0459 237.598 46.9181C238.534 48.9241 239.872 50.5288 241.344 51.8661C244.153 54.6745 247.096 57.0817 248.701 59.89C250.307 62.5646 250.708 65.2393 250.441 66.9778C250.307 67.7802 250.039 68.4488 249.905 68.85C249.638 69.1175 249.504 69.3849 249.504 69.2512Z" fill="#FFF001"/>
<path d="M131.109 77.275C131.109 77.275 130.842 77.1413 130.307 76.7401C129.772 76.3389 128.969 75.804 128.166 74.8679C126.561 72.9956 124.956 69.5186 125.624 65.1055C125.892 64.0356 126.16 62.9658 126.828 61.8959C127.497 60.8261 128.3 59.89 129.237 58.9539C131.109 57.2154 133.651 55.878 136.193 54.6745C138.735 53.4709 141.41 52.1336 143.685 49.9939C145.825 47.8542 147.029 44.7784 147.832 41.7025C148.635 38.493 149.17 35.2834 150.24 32.3414C151.31 29.3993 152.648 26.5909 154.119 24.1838C157.196 19.2357 160.808 15.4912 164.287 12.9503C167.765 10.2757 170.842 8.67095 173.116 7.73483C174.186 7.19991 175.123 6.93244 175.792 6.79871C176.461 6.66498 176.728 6.53125 176.728 6.53125C176.728 6.66498 175.524 7.06618 173.25 8.00229C171.109 8.93841 167.899 10.6769 164.554 13.3515C161.21 16.0262 157.598 19.7706 154.655 24.585C153.183 26.9921 151.845 29.6667 150.909 32.6088C149.839 35.5509 149.303 38.6267 148.501 41.97C147.698 45.1796 146.36 48.3891 144.086 50.6625C141.812 52.936 139.002 54.2733 136.461 55.4768C133.919 56.6804 131.511 58.0177 129.638 59.6225C128.701 60.4249 127.899 61.361 127.364 62.4309C126.828 63.5007 126.427 64.4368 126.293 65.5067C125.892 67.6464 126.16 69.5186 126.561 71.1234C127.096 72.7282 127.765 74.0655 128.568 75.0016C129.905 76.7401 131.243 77.275 131.109 77.275Z" fill="#251A51"/>
<path d="M253.25 70.5885C253.25 70.5885 253.785 69.9198 254.721 68.7163C255.524 67.5127 256.594 65.5067 257.129 62.8321C257.665 60.1575 257.665 56.8142 256.862 53.3372C256.059 49.8602 254.32 46.2494 252.046 42.7724C249.905 39.1617 247.497 35.9521 245.491 33.01C243.484 29.9342 241.879 27.1259 240.808 24.585C239.738 22.0441 239.069 19.9044 238.936 18.2996C238.802 17.4972 238.668 16.9623 238.668 16.5611C238.668 16.1599 238.668 15.8925 238.668 15.8925C238.668 15.8925 238.802 16.6948 239.203 18.1659C239.471 19.6369 240.14 21.7766 241.344 24.3175C242.548 26.8584 244.153 29.6668 246.16 32.6089C248.166 35.5509 250.574 38.7605 252.849 42.3712C255.123 45.982 256.862 49.5927 257.665 53.2034C258.467 56.8142 258.467 60.1575 257.798 62.8321C257.129 65.5067 256.059 67.6464 255.123 68.85C254.588 69.5186 254.186 69.9198 253.919 70.1873C253.517 70.4548 253.25 70.5885 253.25 70.5885Z" fill="#251A51"/>
<path d="M114.387 257.01L103.417 276.133C103.417 276.133 48.835 256.207 16.8618 261.958C4.68784 264.231 -8.28874 291.78 9.37012 309.432C26.6276 326.684 57.5307 351.157 115.457 359.047C116.929 359.18 140.608 364.396 139.136 364.128C137.664 363.995 172.447 369.478 172.447 369.478L180.608 338.586L245.357 348.749C283.484 346.209 302.213 305.421 279.203 292.181C257.798 279.878 217.531 278.942 217.531 278.942L202.949 256.074L114.387 257.01Z" fill="#251A51"/>
<path d="M173.785 370.547C173.919 369.478 174.454 366.669 175.39 360.919C175.925 357.843 176.594 354.099 177.397 349.819C177.798 347.679 178.199 345.406 178.868 342.999C179.136 341.795 179.403 340.592 179.805 339.254C179.939 338.586 180.206 338.051 180.34 337.382C180.607 336.713 180.741 336.045 181.276 335.51L181.41 335.911C167.631 330.963 150.373 324.544 132.046 316.788C120.808 311.973 110.106 307.159 100.741 302.077C96.059 299.536 91.6443 296.995 87.8984 294.053C84.1526 291.245 80.6743 288.437 77.4636 286.029C71.176 281.081 65.4235 277.872 61.1426 276.534C60.0723 276.133 59.1359 275.866 58.3332 275.732C57.5305 275.465 56.7279 275.331 56.1927 275.331C55.6576 275.197 55.2563 275.197 54.855 275.063C54.5874 275.063 54.4536 274.93 54.4536 274.93C54.4536 274.93 54.5874 274.93 54.855 274.93C55.2563 274.93 55.6576 275.063 56.1927 275.063C56.7279 275.197 57.5305 275.197 58.3332 275.465C59.1359 275.598 60.2061 275.866 61.2764 276.267C63.4168 276.936 65.9586 278.006 68.768 279.61C71.5774 281.215 74.5205 283.221 77.7312 285.628C80.9419 288.035 84.2864 290.844 88.166 293.652C91.9118 296.46 96.3265 299.001 101.009 301.542C110.373 306.49 121.076 311.305 132.313 316.119C150.641 323.875 167.898 330.294 181.544 335.376L181.945 335.51L181.678 335.777C181.276 336.179 181.009 336.847 180.875 337.516C180.607 338.185 180.474 338.719 180.34 339.388C179.939 340.592 179.671 341.929 179.403 342.999C178.868 345.406 178.333 347.679 177.932 349.819C177.129 354.099 176.46 357.843 175.791 360.919C175.256 363.995 174.721 366.402 174.454 368.007C174.32 368.809 174.186 369.478 174.052 369.879C173.785 370.414 173.785 370.547 173.785 370.547Z" fill="#FFF001"/>
<path d="M266.628 295.925C266.628 295.925 266.494 295.925 266.226 295.925C265.959 295.925 265.691 295.792 265.156 295.792C264.22 295.658 263.016 295.391 261.276 295.123C257.932 294.588 252.982 294.321 246.962 294.588C240.942 294.856 233.718 296.059 225.959 298.065C222.079 299.135 218.066 300.339 213.919 301.81C209.771 303.281 205.624 304.885 201.21 306.624C196.929 308.362 192.514 309.7 188.233 310.903C183.952 312.107 179.805 313.043 175.925 313.712C168.032 315.316 160.808 316.253 154.788 316.921C148.768 317.59 143.818 318.125 140.474 318.526C138.868 318.66 137.531 318.793 136.594 318.927C136.193 318.927 135.791 318.927 135.524 319.061C135.256 319.061 135.123 319.061 135.123 319.061C135.123 319.061 135.256 319.061 135.524 318.927C135.791 318.927 136.059 318.793 136.594 318.793C137.531 318.66 138.868 318.526 140.474 318.259C143.952 317.857 148.768 317.189 154.788 316.52C160.808 315.718 168.032 314.782 175.925 313.177C179.805 312.374 183.952 311.438 188.233 310.235C192.38 309.031 196.795 307.694 201.076 305.955C205.357 304.217 209.638 302.612 213.785 301.141C217.932 299.67 221.945 298.466 225.959 297.53C233.718 295.524 240.942 294.454 247.096 294.187C253.25 293.919 258.199 294.321 261.544 294.856C263.283 295.123 264.487 295.391 265.424 295.658C265.825 295.792 266.092 295.792 266.36 295.925C266.494 295.925 266.628 295.925 266.628 295.925Z" fill="#FFF001"/>
<path d="M166.962 284.826C166.962 285.227 164.019 286.029 159.203 286.431C154.387 286.832 147.564 286.966 140.206 286.163C132.848 285.361 126.159 283.89 121.611 282.419C116.928 280.948 114.253 279.61 114.387 279.209C114.654 278.273 126.159 281.349 140.607 282.82C154.922 284.425 166.828 283.89 166.962 284.826Z" fill="#251A51"/>
<path d="M218.066 279.477C218.066 279.477 217.263 279.744 215.925 280.011C215.256 280.145 214.454 280.413 213.384 280.68C212.447 280.948 211.243 281.215 210.173 281.616C207.765 282.419 204.955 283.488 201.878 284.96C198.802 286.431 195.591 288.169 192.246 290.041C185.557 294.053 179.939 298.333 176.059 301.409C174.052 303.013 172.447 304.351 171.377 305.153C170.307 306.089 169.638 306.49 169.638 306.49C169.638 306.49 170.173 305.955 171.243 304.886C172.313 303.949 173.785 302.478 175.792 300.874C179.671 297.664 185.29 293.251 191.979 289.239C195.323 287.233 198.668 285.494 201.745 284.157C204.822 282.82 207.631 281.75 210.173 280.948C211.377 280.546 212.447 280.279 213.517 280.011C214.454 279.744 215.39 279.61 216.059 279.477C217.263 279.477 218.066 279.477 218.066 279.477Z" fill="#FFF001"/>
<path d="M157.464 306.624C157.464 306.758 155.992 306.356 153.584 305.554C151.31 304.752 148.1 303.281 144.889 301.542C141.678 299.804 138.735 298.333 136.461 297.129C134.32 296.059 132.982 295.39 132.982 295.257C132.982 295.123 134.454 295.658 136.728 296.728C139.002 297.798 141.946 299.269 145.29 301.007C148.635 302.746 151.712 304.217 153.852 305.153C155.992 306.089 157.464 306.49 157.464 306.624Z" fill="#FFF001"/>
<path d="M163.35 259.283C163.484 259.283 163.216 261.289 163.083 264.499C162.815 267.708 162.681 272.121 162.815 277.069C162.949 282.017 163.216 286.431 163.618 289.64C163.885 292.85 164.153 294.856 164.153 294.856C164.153 294.856 164.019 294.321 163.751 293.518C163.618 292.582 163.35 291.379 163.083 289.774C162.681 286.564 162.146 282.151 162.146 277.203C162.012 272.255 162.28 267.708 162.681 264.499C162.815 262.894 162.949 261.557 163.216 260.754C163.216 259.684 163.216 259.283 163.35 259.283Z" fill="#FFF001"/>
<path d="M169.37 261.289C169.37 261.289 169.103 261.557 168.835 261.958C168.434 262.359 168.166 263.028 168.032 263.964C167.899 264.9 168.032 265.97 168.835 266.906C169.638 267.842 171.109 268.109 172.313 267.574C173.651 267.04 174.588 265.97 174.588 264.766C174.588 263.563 173.919 262.626 173.25 261.958C172.581 261.289 171.778 261.155 171.377 261.022C170.842 260.888 170.574 261.022 170.574 260.888C170.574 260.888 170.842 260.754 171.377 260.754C171.912 260.754 172.848 261.022 173.651 261.557C174.454 262.225 175.256 263.295 175.256 264.766C175.256 266.237 174.186 267.708 172.581 268.243C171.109 268.778 169.236 268.511 168.434 267.307C167.497 266.237 167.363 264.9 167.631 263.83C167.899 262.76 168.3 262.091 168.835 261.69C169.103 261.289 169.37 261.155 169.37 261.289Z" fill="#FFF001"/>
<path d="M185.959 239.224C185.959 239.224 185.557 239.758 184.888 240.561C184.22 241.363 183.149 242.567 181.678 243.904C180.206 245.241 178.467 246.846 176.327 248.317C174.186 249.788 171.778 251.393 169.102 252.73C166.427 254.068 163.751 255.138 161.209 255.94C158.668 256.742 156.393 257.277 154.387 257.545C152.38 257.812 150.908 258.08 149.704 258.08C148.634 258.08 147.965 258.08 147.965 258.08C147.965 257.946 150.373 257.812 154.253 257.01C156.126 256.609 158.4 256.074 160.942 255.271C163.35 254.469 166.026 253.399 168.701 252.062C171.377 250.724 173.785 249.253 175.925 247.782C178.066 246.311 179.805 244.84 181.276 243.503C184.353 240.962 185.959 239.09 185.959 239.224Z" fill="#251A51"/>
<path d="M210.44 254.068C210.44 254.335 208.032 254.335 205.223 255.004C202.413 255.672 200.273 256.742 200.139 256.609C200.005 256.475 202.146 255.004 205.089 254.335C207.898 253.533 210.44 253.934 210.44 254.068Z" fill="#251A51"/>
<g opacity="0.3">
<g opacity="0.3">
<path opacity="0.3" d="M154.253 257.411C165.758 255.405 176.461 249.12 184.086 240.16C185.558 244.305 184.354 249.387 181.143 252.463C184.487 254.068 188.501 252.998 192.247 252.463C195.992 251.928 200.541 252.463 202.28 255.806C185.691 257.411 168.969 257.812 152.247 257.277" fill="black"/>
</g>
</g>
<path d="M121.076 231.2C120.942 231.333 119.337 229.06 115.323 227.455C113.317 226.653 110.775 226.118 107.966 226.252C105.156 226.385 102.079 227.054 99.2699 228.659C93.3836 231.735 90.0391 236.816 87.3635 240.16C86.1595 241.898 85.3568 243.503 84.6879 244.573C84.1528 245.643 83.7515 246.178 83.7515 246.178C83.7515 246.178 83.8852 245.509 84.4204 244.439C84.9555 243.369 85.6244 241.764 86.8284 239.892C88.0324 238.154 89.6378 236.148 91.5107 233.874C93.3836 231.735 95.9254 229.595 98.8685 227.99C101.812 226.385 105.022 225.717 107.966 225.583C110.909 225.583 113.45 226.118 115.457 227.054C117.464 227.856 118.935 229.06 119.738 229.862C120.139 230.264 120.541 230.665 120.675 230.932C120.942 231.066 121.076 231.2 121.076 231.2Z" fill="#251A51"/>
<path d="M156.126 102.951L137.397 106.83L146.762 141.867L179.805 148.955L202.547 132.773L205.624 113.516L186.093 106.161L156.126 102.951Z" fill="#FFBE9D"/>
<path d="M142.882 105.492C142.882 105.492 155.457 142.135 178.868 138.791C202.28 135.448 200.273 111.644 200.273 111.644C200.273 111.644 224.621 119.133 232.246 127.023C239.738 134.913 235.323 152.164 235.323 152.164L229.036 183.19L215.256 242.7C215.256 242.7 220.474 258.882 207.096 262.894L202.815 256.207L122.146 258.481C122.146 258.481 104.888 278.407 99.5373 271.453C94.1861 264.632 88.9688 251.259 88.9688 251.259L126.026 109.905L142.882 105.492Z" fill="#00B4FF"/>
<path d="M225.825 122.209C226.494 122.61 283.083 163.665 283.083 163.665C283.083 163.665 278.668 197.499 305.825 192.15C305.825 192.15 294.855 220.367 280.006 214.483C275.725 212.745 223.685 179.847 223.685 179.847L212.581 156.176L225.825 122.209Z" fill="#00B4FF"/>
<path d="M142.882 107.231C142.882 107.231 141.544 107.231 139.404 107.498C128.3 108.568 87.4974 116.993 83.6178 145.879C81.6111 160.991 81.076 205.122 78.9355 223.577C78.9355 223.577 82.4138 249.253 83.6178 254.068C85.8921 262.493 126.829 248.986 126.829 248.986L126.962 167.41L141.544 107.364" fill="#00B4FF"/>
<path d="M117.062 181.318C117.062 181.318 117.062 181.585 117.062 181.987C117.062 182.388 117.062 183.056 117.196 183.859C117.33 185.464 117.865 187.871 118.935 190.545C120.006 193.354 121.611 196.429 123.216 200.04C124.019 201.779 124.822 203.785 125.357 205.791C125.892 207.93 126.293 210.07 126.427 212.344C126.828 216.89 126.427 221.17 126.16 225.048C125.758 228.926 125.491 232.403 124.955 235.345C124.42 238.287 123.885 240.561 123.35 242.166C123.083 242.968 122.815 243.503 122.681 243.904C122.547 244.305 122.414 244.573 122.414 244.439C122.414 244.439 122.681 243.503 123.083 242.032C123.484 240.427 124.019 238.154 124.42 235.212C124.822 232.269 125.089 228.792 125.357 224.914C125.624 221.036 126.026 216.757 125.624 212.21C125.491 209.936 125.089 207.797 124.554 205.791C124.019 203.785 123.216 201.912 122.547 200.04C120.942 196.429 119.471 193.354 118.4 190.545C117.33 187.737 116.929 185.33 116.929 183.725C116.929 182.923 116.929 182.254 116.929 181.853C117.062 181.585 117.062 181.318 117.062 181.318Z" fill="#251A51"/>
<path d="M118.936 171.021C119.069 171.021 119.203 173.16 119.604 176.37C120.006 179.713 120.942 184.26 122.548 189.074C122.949 190.278 123.35 191.481 123.885 192.551C124.019 192.819 124.153 193.22 124.153 193.354C124.287 193.621 124.42 193.889 124.688 194.156C124.956 194.691 125.357 195.092 125.491 195.627C126.561 197.633 126.962 199.639 126.962 201.377C126.962 203.116 126.561 204.453 126.16 205.389C125.758 206.192 125.491 206.727 125.357 206.727C125.223 206.727 126.427 204.854 126.427 201.511C126.427 199.906 125.892 197.9 124.822 196.028C124.554 195.493 124.287 195.092 124.019 194.557C123.885 194.29 123.752 194.022 123.484 193.889C123.216 193.487 123.216 193.354 123.083 192.952C122.681 191.883 122.146 190.679 121.745 189.475C120.14 184.527 119.203 179.98 118.936 176.637C118.802 174.899 118.668 173.561 118.668 172.625C118.802 171.555 118.802 171.021 118.936 171.021Z" fill="#251A51"/>
<path d="M120.541 158.851C120.407 158.851 119.872 157.246 118.668 154.572C117.464 151.897 115.591 148.42 113.049 144.809C110.507 141.199 107.698 138.257 105.691 136.251C103.551 134.245 102.213 133.175 102.213 133.041C102.213 133.041 102.614 133.308 103.283 133.71C103.952 134.245 104.888 134.913 105.959 135.849C108.233 137.722 111.042 140.664 113.584 144.408C116.126 148.019 117.999 151.763 119.069 154.438C119.604 155.775 120.006 156.979 120.273 157.648C120.541 158.316 120.674 158.851 120.541 158.851Z" fill="#251A51"/>
<path d="M236.528 134.913C236.661 134.913 236.528 136.117 236.26 138.123C235.993 140.129 235.725 142.803 235.324 145.879C235.056 148.955 234.789 151.63 234.655 153.636C234.521 155.641 234.387 156.845 234.253 156.845C234.12 156.845 234.12 155.641 234.12 153.636C234.12 151.63 234.387 148.821 234.655 145.745C234.922 142.67 235.324 139.995 235.725 137.989C236.126 135.983 236.394 134.779 236.528 134.913Z" fill="#251A51"/>
<path d="M248.166 169.148C248.166 169.282 246.427 169.416 243.618 170.218C240.942 171.021 237.197 172.625 234.253 175.701C232.782 177.306 231.578 178.911 230.641 180.649C229.705 182.254 229.036 183.859 228.635 185.196C228.367 185.865 228.233 186.4 227.966 187.068C227.832 187.603 227.698 188.005 227.564 188.406C227.297 189.208 227.163 189.609 227.163 189.609C227.163 189.609 227.163 189.208 227.297 188.406C227.431 188.005 227.431 187.47 227.564 186.935C227.698 186.4 227.966 185.731 228.1 185.062C228.501 183.725 229.17 182.12 230.106 180.382C231.043 178.643 232.247 176.905 233.718 175.3C236.795 172.091 240.675 170.486 243.484 169.817C244.153 169.683 244.822 169.55 245.357 169.416C245.892 169.282 246.427 169.282 246.829 169.282C247.765 169.148 248.166 169.148 248.166 169.148Z" fill="#251A51"/>
<path d="M285.624 206.459C285.624 206.459 285.223 205.924 284.688 204.988C284.42 204.453 284.019 203.918 283.752 203.116C283.484 202.447 282.949 201.511 282.681 200.575C281.879 198.703 281.21 196.429 280.541 193.755C279.872 191.214 279.471 188.272 279.203 185.196C279.069 182.12 279.069 179.178 279.337 176.504C279.604 173.829 280.006 171.422 280.541 169.55C280.808 168.613 281.076 167.677 281.344 166.875C281.611 166.073 281.745 165.404 282.012 164.869C282.414 163.799 282.681 163.264 282.681 163.264C282.815 163.264 281.879 165.671 281.076 169.55C280.675 171.556 280.273 173.829 280.006 176.504C279.738 179.178 279.738 181.987 279.872 185.062C280.14 188.138 280.541 190.947 281.076 193.487C281.745 196.028 282.414 198.302 283.083 200.174C284.554 204.186 285.758 206.326 285.624 206.459Z" fill="#251A51"/>
<path d="M270.909 196.43C270.909 196.43 270.641 195.895 270.374 194.959C270.106 194.022 269.705 192.685 269.571 190.947C269.036 187.47 269.17 182.522 270.775 177.306C272.38 172.091 275.19 168.079 277.598 165.538C278.802 164.334 280.273 163.532 281.21 163.532C281.745 163.532 282.146 163.665 282.414 163.799C282.681 163.933 282.815 164.067 282.681 164.067C282.681 164.2 282.146 163.799 281.21 163.933C280.273 164.067 279.069 164.735 277.865 165.939C275.591 168.48 272.915 172.625 271.31 177.573C269.705 182.655 269.571 187.47 269.839 190.947C270.374 194.29 271.043 196.296 270.909 196.43Z" fill="#251A51"/>
<path d="M178.869 189.743C178.869 189.743 178.735 190.278 178.601 191.348C178.467 191.883 178.333 192.418 178.066 193.22C177.798 193.889 177.531 194.691 177.129 195.627C176.461 197.366 175.39 199.372 174.053 201.378C172.715 203.383 170.976 205.657 169.103 207.663C167.096 209.669 164.956 211.407 162.949 212.878C160.942 214.216 158.935 215.286 157.196 216.088C156.394 216.489 155.591 216.757 154.922 217.024C154.253 217.292 153.584 217.425 153.049 217.559C151.979 217.826 151.444 217.96 151.444 217.96C151.444 217.826 153.584 217.158 156.929 215.553C158.534 214.751 160.541 213.681 162.548 212.343C164.554 210.872 166.561 209.268 168.568 207.262C170.574 205.256 172.18 203.116 173.517 201.11C174.855 199.104 175.925 197.098 176.594 195.493C178.2 191.883 178.735 189.609 178.869 189.743Z" fill="#251A51"/>
<g opacity="0.3">
<g opacity="0.3">
<path opacity="0.3" d="M132.581 202.982C130.039 193.621 127.497 184.26 124.822 174.899C124.42 173.561 123.885 171.957 122.414 171.689C121.076 171.422 119.872 172.625 119.738 173.963C119.47 175.3 119.604 176.771 119.604 178.108C120.273 184.26 120.674 188.406 123.484 193.086C128.969 202.314 125.357 206.727 125.357 206.727C125.758 217.96 124.822 233.339 121.343 244.84L124.688 258.748C127.765 248.451 134.989 239.758 136.193 229.06C137.263 220.234 134.989 211.407 132.581 202.982Z" fill="black"/>
</g>
</g>
<g opacity="0.3">
<g opacity="0.3">
<path opacity="0.3" d="M229.036 183.19C238.133 188.004 246.294 194.557 255.257 199.639C251.779 192.417 245.892 185.196 238.802 181.318C236.929 180.248 234.789 179.312 232.648 179.713C230.508 179.98 228.902 181.184 229.304 183.324" fill="black"/>
</g>
</g>
<g opacity="0.3">
<g opacity="0.3">
<path opacity="0.3" d="M281.611 163.13C278.534 162.997 276.126 165.939 274.521 168.613C270.24 176.37 268.367 185.33 269.437 194.156C269.571 195.761 270.24 197.633 271.711 197.9C272.782 198.168 273.986 197.232 274.521 196.296C275.056 195.226 275.056 194.022 275.056 192.952C275.056 187.603 274.655 182.254 275.457 176.905C276.26 171.555 278.267 166.206 282.146 162.595" fill="black"/>
</g>
</g>
<path d="M140.073 173.16C140.073 173.16 140.207 173.16 140.34 173.16C140.608 173.16 140.875 173.16 141.277 173.16C142.079 173.16 143.283 173.026 144.889 173.026C148.1 172.893 152.782 172.625 158.534 172.358C170.307 171.823 187.163 171.154 207.096 170.352H207.364V170.619C207.765 186.934 208.166 205.657 208.702 225.583C208.702 226.251 208.702 226.92 208.702 227.589V227.99H208.3C186.36 228.257 165.758 229.996 148.501 232.403H148.233L148.1 232.136C143.283 214.617 141.544 199.639 141.009 189.074C140.742 183.859 140.608 179.713 140.608 176.905C140.608 175.434 140.608 174.364 140.608 173.695C140.608 173.294 140.608 173.026 140.608 172.893C140.608 172.759 140.608 172.625 140.608 172.625C140.608 172.625 140.608 172.759 140.608 172.893C140.608 173.16 140.608 173.428 140.608 173.695C140.608 174.497 140.608 175.567 140.608 176.905C140.608 179.713 140.742 183.859 141.143 189.074C141.812 199.505 143.685 214.617 148.501 232.002L148.233 231.734C165.491 229.327 186.093 227.455 208.033 227.188L207.631 227.589C207.631 226.92 207.631 226.251 207.631 225.583C207.23 205.657 206.695 186.934 206.427 170.619L206.695 170.887C186.762 171.689 170.039 172.224 158.133 172.759C152.247 172.893 147.564 173.16 144.487 173.16C142.882 173.16 141.678 173.294 140.875 173.294C140.474 173.294 140.207 173.294 139.939 173.294C140.207 173.16 140.073 173.16 140.073 173.16Z" fill="white"/>
<path d="M157.65 213.692C157.869 213.655 156.532 204.591 154.665 193.445C152.797 182.3 151.106 173.294 150.888 173.331C150.669 173.368 152.006 182.432 153.873 193.578C155.741 204.723 157.432 213.729 157.65 213.692Z" fill="white"/>
<path d="M159.695 230.967C159.914 230.933 159.574 227.592 158.935 223.506C158.296 219.42 157.601 216.135 157.382 216.169C157.163 216.203 157.503 219.543 158.142 223.63C158.781 227.716 159.476 231.001 159.695 230.967Z" fill="white"/>
<path d="M171.243 204.721C171.243 204.721 171.11 204.32 170.842 203.517C170.708 202.715 170.441 201.511 170.173 200.04C169.638 197.098 168.969 193.086 168.568 188.539C168.166 183.992 167.899 179.847 167.899 176.905C167.899 175.434 167.899 174.23 167.899 173.428C167.899 172.625 168.033 172.09 168.033 172.09C168.166 172.09 168.166 173.963 168.434 176.905C168.568 179.847 168.835 183.992 169.237 188.406C169.638 192.952 170.307 196.964 170.708 199.906C170.976 202.848 171.377 204.721 171.243 204.721Z" fill="white"/>
<path d="M169.746 229.097C169.966 229.07 169.614 224.77 168.96 219.492C168.307 214.215 167.598 209.959 167.378 209.986C167.158 210.014 167.51 214.314 168.164 219.591C168.818 224.868 169.526 229.124 169.746 229.097Z" fill="white"/>
<path d="M184.755 227.99C184.755 227.99 184.621 227.188 184.487 225.85C184.354 224.245 184.22 222.239 183.952 219.832C183.551 214.751 182.882 207.797 181.946 200.04C181.009 192.284 180.073 185.33 179.404 180.248C179.002 177.841 178.735 175.835 178.601 174.23C178.467 172.759 178.333 172.09 178.333 172.09C178.333 172.09 178.601 172.893 178.869 174.23C179.136 175.567 179.538 177.707 179.939 180.114C180.742 185.196 181.812 192.15 182.748 199.906C183.685 207.663 184.22 214.617 184.487 219.699C184.621 222.24 184.755 224.245 184.755 225.717C184.889 227.188 184.889 227.99 184.755 227.99Z" fill="white"/>
<path d="M197.732 228.792C197.732 228.792 197.598 227.99 197.598 226.519C197.598 224.914 197.598 222.908 197.598 220.367C197.598 215.152 197.464 208.064 197.063 200.174C196.661 192.284 196.126 185.196 195.725 179.98C195.457 177.44 195.324 175.434 195.19 173.829C195.056 172.358 195.056 171.555 195.056 171.555C195.056 171.555 195.19 172.358 195.457 173.829C195.725 175.3 195.859 177.306 196.26 179.847C196.795 184.929 197.464 192.15 197.865 200.04C198.267 207.93 198.267 215.018 198.267 220.234C198.267 222.774 198.133 224.914 198.133 226.385C197.732 227.99 197.732 228.792 197.732 228.792Z" fill="white"/>
<g opacity="0.3">
<g opacity="0.3">
<path opacity="0.3" d="M152.514 217.96C154.521 219.297 157.063 219.832 159.604 219.699C162.012 219.565 164.42 218.763 166.695 217.826C169.772 216.623 172.581 214.884 174.855 212.477C177.13 209.803 178.334 206.459 179.002 202.982C179.538 199.505 179.404 196.028 179.404 192.551C179.404 192.418 179.404 192.284 179.27 192.15C179.136 191.883 178.735 191.883 178.467 192.15C178.2 192.418 178.2 192.551 178.066 192.952C174.053 204.587 164.153 214.082 152.247 217.292" fill="black"/>
</g>
</g>
<path d="M144.219 329.893L136.059 314.514L117.731 228.525C117.731 228.525 100.875 218.762 86.962 240.159C86.4268 240.962 105.959 302.612 111.444 319.729L112.246 336.178C112.246 336.178 111.31 355.569 112.246 357.308C113.183 359.046 115.591 359.983 115.591 359.983C115.591 359.983 114.922 364.797 120.407 365.332C120.407 365.332 120.942 370.681 124.955 369.879C129.102 369.21 130.574 366.535 130.574 366.535C130.574 366.535 130.574 373.356 134.186 372.553C137.798 371.751 138.467 368.943 139.136 368.006C139.805 367.07 140.607 357.04 140.607 357.04V340.592L150.106 348.214C152.781 349.552 156.795 351.29 159.069 349.284L144.219 329.893Z" fill="#FFBE9D"/>
<path d="M140.607 339.789C140.741 339.789 141.41 343.801 141.142 348.615C141.009 350.889 140.875 352.895 140.875 354.901C140.741 356.505 140.741 357.442 140.607 357.442C140.34 357.442 140.206 353.43 140.473 348.615C140.607 343.667 140.34 339.789 140.607 339.789Z" fill="#EB996E"/>
<path d="M130.28 367.468C130.502 367.465 130.632 363.811 130.571 359.306C130.511 354.801 130.282 351.151 130.06 351.154C129.838 351.157 129.708 354.812 129.769 359.316C129.829 363.821 130.058 367.471 130.28 367.468Z" fill="#EB996E"/>
<path d="M121.343 354.232C121.477 354.232 121.879 356.773 121.477 359.983C121.21 363.192 120.407 365.599 120.273 365.599C120.139 365.599 120.541 363.058 120.808 359.983C121.21 356.773 121.21 354.232 121.343 354.232Z" fill="#EB996E"/>
<path d="M115.788 356.048C115.984 354.064 115.965 352.437 115.745 352.415C115.524 352.393 115.186 353.984 114.989 355.969C114.792 357.953 114.811 359.579 115.032 359.601C115.252 359.623 115.591 358.032 115.788 356.048Z" fill="#EB996E"/>
</svg>
