<svg width="222" height="40" viewBox="0 0 222 40" fill="none" xmlns="http://www.w3.org/2000/svg">
<path fill-rule="evenodd" clip-rule="evenodd" d="M221.123 38.6438V5.85734H214.768V38.6438H221.123ZM188.254 14.5354H181.446L176.268 32.7981L171.22 14.5354H164.064L172.315 38.6438H180.005L188.254 14.5354ZM138.246 38.6438V32.8521H125.029V5.75049H118.22V38.6438H138.246ZM210.39 38.6438V21.5843C210.39 16.43 207.454 13.7874 200.323 13.7874C191.727 13.7874 190.018 18.273 189.696 21.7175H195.864C196.264 19.6885 197.572 18.5935 200.269 18.5935C202.754 18.5935 204.063 19.3679 204.063 21.2122C204.063 21.8533 203.849 22.5724 202.886 22.9722C201.286 23.6397 199.522 23.6938 197.572 24.0672C194.396 24.6542 192.822 25.3218 191.591 26.2307C189.644 27.5658 188.84 29.5672 188.84 32.1305C188.84 35.9221 191.004 39.339 196.504 39.339C199.868 39.339 202.326 38.0567 204.248 35.8668V38.6438H210.39ZM204.063 29.7809C204.063 31.3574 203.074 34.7479 198.401 34.7479C196.265 34.7479 195.196 33.6529 195.196 31.7571C195.196 29.8614 196.505 28.8204 198.749 28.3389C200.563 27.9392 202.673 27.6174 204.063 26.9498V29.7809ZM162.223 38.6438V21.5843C162.223 16.43 159.286 13.7874 152.155 13.7874C143.559 13.7874 141.851 18.273 141.529 21.7175H147.696C148.099 19.6885 149.405 18.5935 152.128 18.5935C154.585 18.5935 155.894 19.3679 155.894 21.2122C155.894 21.8533 155.68 22.5724 154.745 22.9722C153.117 23.6397 151.355 23.6938 149.405 24.0672C146.2 24.6542 144.626 25.3218 143.426 26.2307C141.476 27.5658 140.675 29.5672 140.675 32.1305C140.675 35.9221 142.836 39.339 148.336 39.339C151.7 39.339 154.158 38.0567 156.08 35.8668V38.6438H162.223ZM155.895 29.7809C155.895 31.3574 154.906 34.7479 150.233 34.7479C148.1 34.7479 147.029 33.6529 147.029 31.7571C147.029 29.8614 148.337 28.8204 150.581 28.3389C152.395 27.9392 154.505 27.6174 155.895 26.9498V29.7809ZM113.816 28.2849V26.3087C113.816 20.0895 111.065 13.7874 102.602 13.7874C92.0561 13.7874 90.4809 22.1978 90.4809 26.9762C90.4809 34.6398 94.5389 39.471 102.336 39.471C108.61 39.471 112.803 35.7876 113.524 31.5422H107.009C106.474 32.7164 105.567 34.2928 102.203 34.2928C98.7315 34.2928 97.184 31.7295 97.0231 28.2849H113.816ZM107.247 24.0672H97.0218C97.2883 21.6119 98.6775 18.9141 102.389 18.9141C106.019 18.9141 107.007 21.6119 107.247 24.0672ZM87.9439 21.3982C87.9439 12.9338 83.9387 5.75174 74.246 5.75174H60.1496V38.6451H74.2473C82.5772 38.6438 87.9439 32.5843 87.9439 21.3982ZM80.8146 21.9036C80.8146 27.6978 78.9729 33.0382 72.4848 33.0382H66.9307V11.3838H72.4835C78.9729 11.3838 80.8146 15.3627 80.8146 21.9036ZM28.9371 25.3482C29.6311 26.2031 31.3672 28.4445 31.3672 28.4445C31.3672 28.4445 29.6323 30.6886 28.9371 31.5434C28.2997 32.3134 27.4402 32.8681 26.4759 33.1316C25.5116 33.3951 24.4895 33.3548 23.549 33.016C22.6086 32.6772 21.7955 32.0565 21.2208 31.2386C20.646 30.4207 20.3376 29.4454 20.3376 28.4458C20.3376 27.4462 20.646 26.4709 21.2208 25.653C21.7955 24.8351 22.6086 24.2144 23.549 23.8756C24.4895 23.5369 25.5116 23.4965 26.4759 23.76C27.4402 24.0236 28.2997 24.5782 28.9371 25.3482ZM43.6759 38.5659C41.0585 38.2717 38.8158 36.9894 36.573 34.6662C36.2537 34.3205 35.7986 33.839 35.3448 33.3034C34.73 34.0791 34.143 34.7743 33.7432 35.2797C32.515 36.7744 31.2327 37.8971 29.1508 38.5646V38.6425H43.6759V38.5659Z" fill="#28539C"/>
<path fill-rule="evenodd" clip-rule="evenodd" d="M46.8243 18.8599H39.0815L35.344 23.505L39.2952 28.2835L46.8243 18.8599Z" fill="#D35D35"/>
<path fill-rule="evenodd" clip-rule="evenodd" d="M33.7682 21.4756L21.9397 0.996582L0.178467 38.6432H21.4331V38.5652C17.7748 37.5507 14.2246 33.5442 14.2246 28.4439C14.2246 22.3845 19.1375 17.4979 25.1983 17.4979C28.5624 17.4979 31.4199 18.9122 33.6626 21.5573L33.7682 21.4756Z" fill="#28539C"/>
</svg>
