<svg width="146" height="187" viewBox="0 0 146 187" fill="none" xmlns="http://www.w3.org/2000/svg">
<path d="M30.4866 133.717H19.2224V186.805H30.4866V133.717Z" fill="#251A51"/>
<path d="M126.023 133.717H114.759V186.805H126.023V133.717Z" fill="#251A51"/>
<path d="M142.503 66.9658H0.657227V80.1074H142.503V66.9658Z" fill="#251A51"/>
<path d="M136.871 134.447L9.20972 134.656V80.1077H136.871V134.447Z" fill="#251A51"/>
<path d="M142.503 80.1073C142.503 80.2116 110.692 80.3159 71.58 80.3159C32.3639 80.3159 0.657227 80.2116 0.657227 80.1073C0.657227 80.003 32.3639 79.8987 71.58 79.8987C110.796 79.8987 142.503 80.003 142.503 80.1073Z" fill="#ECF1FE"/>
<path d="M136.349 134.655C136.349 134.76 107.98 134.864 73.0402 134.864C38.1003 134.864 9.7312 134.76 9.7312 134.655C9.7312 134.551 38.1003 134.447 73.0402 134.447C107.98 134.447 136.349 134.551 136.349 134.655Z" fill="#ECF1FE"/>
<path d="M126.337 123.6C126.337 123.6 126.337 123.391 126.337 122.974C126.337 122.557 126.337 121.931 126.337 121.201C126.337 119.636 126.337 117.237 126.337 114.213C126.337 108.163 126.232 99.2981 126.232 88.2425L126.441 88.4511C100.888 88.4511 62.6105 88.5554 19.8483 88.5554L20.0569 88.3468C20.0569 100.654 20.0569 112.544 20.0569 123.704L19.8483 123.495C50.5119 123.495 77.108 123.6 96.0902 123.6C105.581 123.6 113.195 123.704 118.41 123.704C121.018 123.704 122.999 123.704 124.355 123.704C124.981 123.704 125.502 123.704 125.92 123.704C126.128 123.6 126.337 123.6 126.337 123.6C126.337 123.6 126.128 123.6 125.815 123.6C125.502 123.6 124.981 123.6 124.251 123.6C122.895 123.6 120.913 123.6 118.306 123.6C113.091 123.6 105.581 123.6 96.0902 123.704C77.108 123.704 50.4076 123.808 19.744 123.808H19.5354V123.6C19.5354 112.44 19.5354 100.55 19.5354 88.2425V88.0339H19.744C62.4019 88.0339 100.679 88.1382 126.337 88.1382H126.545V88.3468C126.545 99.5067 126.441 108.372 126.441 114.421C126.441 117.446 126.441 119.741 126.441 121.409C126.441 122.139 126.441 122.765 126.441 123.182C126.337 123.391 126.337 123.6 126.337 123.6Z" fill="#ECF1FE"/>
<path d="M22.1154 121.341C23.2542 120.118 24.109 119.064 24.0247 118.986C23.9404 118.907 22.9489 119.834 21.8102 121.056C20.6714 122.278 19.8166 123.333 19.9009 123.411C19.9852 123.49 20.9766 122.563 22.1154 121.341Z" fill="#ECF1FE"/>
<path d="M24.0284 92.8175C24.1136 92.74 23.2393 91.6414 22.0756 90.3638C20.9119 89.0863 19.8995 88.1135 19.8144 88.1911C19.7292 88.2687 20.6035 89.3672 21.7672 90.6448C22.9309 91.9223 23.9433 92.8951 24.0284 92.8175Z" fill="#ECF1FE"/>
<path d="M126.545 88.347C126.65 88.4513 125.607 89.5986 124.251 90.8502C122.79 92.1018 121.643 93.0405 121.643 92.9362C121.539 92.8319 122.582 91.6846 123.938 90.433C125.294 89.1814 126.441 88.2427 126.545 88.347Z" fill="#ECF1FE"/>
<path d="M126.36 123.644C126.441 123.561 125.433 122.454 124.11 121.171C122.786 119.888 121.649 118.914 121.568 118.997C121.488 119.08 122.496 120.187 123.819 121.47C125.142 122.754 126.28 123.727 126.36 123.644Z" fill="#ECF1FE"/>
<path d="M121.539 119.011C121.539 119.011 121.539 118.802 121.539 118.594C121.539 118.281 121.539 117.863 121.539 117.238C121.539 116.09 121.539 114.317 121.539 112.127C121.539 107.642 121.539 101.176 121.435 92.9362L121.539 93.0405C99.3233 93.0405 63.862 93.1448 24.0201 93.1448L24.2287 92.9362C24.2287 101.906 24.2287 110.667 24.2287 119.011L24.0201 118.802C51.8677 118.802 76.1692 118.906 93.587 118.906C102.244 118.906 109.232 119.011 114.029 119.011C116.428 119.011 118.306 119.011 119.557 119.011C120.183 119.011 120.704 119.011 121.017 119.011C121.33 119.011 121.539 119.011 121.539 119.011C121.539 119.011 121.435 119.011 121.122 119.011C120.809 119.011 120.287 119.011 119.766 119.011C118.514 119.011 116.637 119.011 114.342 119.011C109.545 119.011 102.557 119.011 93.8998 119.115C76.4821 119.115 52.0763 119.219 24.1244 119.219H23.9158V119.011C23.9158 110.667 23.9158 101.906 23.9158 92.9362V92.6233H24.1244C63.9663 92.6233 99.4277 92.7276 121.643 92.7276H121.852V92.8319C121.852 101.071 121.747 107.642 121.747 112.127C121.747 114.317 121.747 116.09 121.747 117.238C121.747 117.759 121.747 118.176 121.747 118.489C121.539 118.802 121.539 119.011 121.539 119.011Z" fill="#ECF1FE"/>
<path d="M82.4269 103.47C81.5926 102.949 80.7582 102.532 79.8195 102.323C78.9851 102.01 78.1507 101.906 77.212 101.906H70.0155C67.9295 101.906 65.8435 102.636 64.2791 104.096C63.8619 104.409 63.549 104.826 63.4447 105.139C62.8189 106.286 62.8189 107.746 63.7576 108.685C64.6963 109.52 66.5736 109.102 66.6779 107.851C66.6779 109.52 68.3467 110.875 70.0155 110.771C71.6842 110.667 73.0401 109.311 73.5616 107.746C73.5616 109.207 74.7089 110.458 76.169 110.563C77.5249 110.667 78.9851 109.52 79.1937 108.164C80.0281 109.311 81.384 110.354 82.9484 109.937C83.7828 109.624 84.4086 108.894 84.6172 108.059C85.0344 106.182 83.8871 104.513 82.4269 103.47Z" fill="#ECF1FE"/>
<path d="M71.3714 101.906C71.4757 102.01 69.7027 102.844 68.4511 104.618C67.0952 106.391 66.9909 108.268 66.7823 108.268C66.678 108.268 66.678 107.746 66.7823 107.016C66.8866 106.286 67.3038 105.243 68.0339 104.305C68.764 103.366 69.5984 102.636 70.2242 102.323C70.85 101.906 71.2671 101.801 71.3714 101.906Z" fill="#251A51"/>
<path d="M74.0251 105.039C74.1874 103.492 74.2262 102.229 74.1116 102.217C73.997 102.205 73.7725 103.449 73.6102 104.995C73.4478 106.542 73.409 107.806 73.5236 107.818C73.6382 107.83 73.8627 106.586 74.0251 105.039Z" fill="#251A51"/>
<path d="M77.5251 102.114C77.5251 102.114 77.9423 102.219 78.3595 102.636C78.7767 103.053 79.1939 103.887 79.4025 104.826C79.6111 105.765 79.5068 106.599 79.4025 107.225C79.2982 107.851 79.1939 108.164 79.1939 108.164C79.0896 108.164 79.0896 107.746 79.0896 107.225C79.0896 106.599 79.0896 105.765 78.9853 104.93C78.881 104.096 78.4638 103.366 78.1509 102.844C77.7337 102.427 77.5251 102.114 77.5251 102.114Z" fill="#251A51"/>
<path d="M116.637 151.552H29.2349V161.773H116.637V151.552Z" fill="#251A51"/>
<path d="M94.7343 53.72V66.8615H37.9961C34.3456 66.8615 31.4253 63.9412 31.4253 60.2908C31.4253 56.6403 34.3456 53.72 37.9961 53.72" fill="#ECF1FE"/>
<path d="M94.7345 64.1499H75.6479C73.7705 64.1499 72.2061 62.5855 72.2061 60.7081V59.8737C72.2061 57.9964 73.7705 56.4319 75.6479 56.4319H94.7345V64.1499Z" fill="#E1E7F5"/>
<path d="M94.7343 40.4741V53.6157H37.9961C34.3456 53.6157 31.4253 50.6953 31.4253 47.0449C31.4253 43.3945 34.3456 40.4741 37.9961 40.4741H94.7343Z" fill="#E1E7F5"/>
<path d="M94.7345 50.9038H75.6479C73.7705 50.9038 72.2061 49.3393 72.2061 47.462V46.7319C72.2061 44.8545 73.7705 43.29 75.6479 43.29H94.7345V50.9038Z" fill="#ECF1FE"/>
<path d="M53.745 19.4058L44.7754 40.474H50.5118L54.4751 29.2098L53.745 19.4058Z" fill="#ECF1FE"/>
<path d="M81.3842 0.215088L84.826 40.4742H55.4139L52.1807 0.215088H81.3842Z" fill="#ECF1FE"/>
<path d="M78.4637 3.4481L81.5927 37.1364L59.4814 37.4493L56.4568 3.2395L78.4637 3.4481Z" fill="#FAFAFA"/>
<path d="M73.7705 8.14185L75.5435 31.296H63.7578L61.6719 8.14185H73.7705Z" fill="#ECF1FE"/>
<path d="M119.974 68.0089C111.839 55.4931 112.986 37.6581 122.79 26.2896C125.815 22.7435 130.091 19.7188 134.68 20.136C139.374 20.5532 143.233 24.6208 144.693 29.1057C146.153 33.5905 145.632 38.4925 144.797 43.1859C143.65 49.7567 141.668 56.4318 137.079 61.3338C132.49 66.2358 125.815 71.2421 119.974 68.0089Z" fill="#F4D532"/>
<path d="M124.459 128.293C121.33 121.097 123.625 112.023 129.674 107.016C131.552 105.452 134.055 104.305 136.349 104.93C138.748 105.556 140.313 107.955 140.73 110.458C141.043 112.961 140.313 115.36 139.478 117.759C138.227 120.992 136.662 124.33 133.846 126.416C131.134 128.502 127.275 130.379 124.459 128.293Z" fill="#F4D532"/>
<path d="M104.747 123.913C107.042 112.857 101.201 100.55 91.0841 95.3351C87.9551 93.6663 84.0961 92.7276 80.9672 94.2921C77.7339 95.8565 76.1695 99.8199 76.4823 103.366C76.6909 106.912 78.464 110.25 80.3414 113.274C83.0531 117.551 86.2864 121.722 90.8755 123.808C95.4646 126.207 101.618 127.876 104.747 123.913Z" fill="#F4D532"/>
<path d="M106.207 93.9791C110.171 81.359 103.495 66.0271 92.4398 58.7263C88.998 56.4317 84.6175 54.8672 80.8627 56.3274C76.8994 57.7876 74.7091 62.1681 74.5005 66.4443C74.3962 70.6163 75.9607 74.6839 77.8381 78.4386C80.4455 83.7578 83.7831 88.9727 88.7894 91.9974C93.7957 95.1263 102.035 98.151 106.207 93.9791Z" fill="#F4D532"/>
<path d="M114.03 155.723C114.03 155.723 113.925 155.515 113.925 155.098C113.821 154.68 113.821 154.055 113.613 153.325C113.508 152.907 113.508 152.49 113.404 152.073C113.3 151.656 113.195 151.134 113.091 150.613C112.882 149.57 112.674 148.318 112.361 146.962C112.152 146.337 112.048 145.606 111.839 144.876C111.631 144.146 111.422 143.416 111.214 142.582C110.797 141.017 110.171 139.349 109.545 137.68C108.293 134.238 106.625 130.588 104.643 126.833C102.661 123.078 100.471 119.741 98.2807 116.82C97.1335 115.36 96.1948 114.004 95.0475 112.753C94.526 112.127 94.0045 111.501 93.483 110.98C92.9615 110.458 92.44 109.937 92.0228 109.415C91.0842 108.372 90.1455 107.538 89.4154 106.808C88.9982 106.39 88.6853 106.077 88.3724 105.765C88.0595 105.452 87.7466 105.139 87.4337 104.93C86.9122 104.409 86.495 104.096 86.0778 103.783C85.7649 103.47 85.6606 103.366 85.6606 103.366C85.6606 103.366 85.8692 103.47 86.1821 103.679C86.495 103.992 87.0165 104.304 87.538 104.826C87.8509 105.035 88.1638 105.347 88.581 105.66C88.8939 105.973 89.3111 106.286 89.7283 106.703C90.5627 107.433 91.5013 108.268 92.44 109.311C92.9615 109.832 93.3787 110.354 93.9002 110.875C94.4217 111.501 94.9432 112.022 95.4647 112.648C96.6119 113.9 97.5506 115.256 98.6979 116.716C100.888 119.636 103.078 123.078 105.06 126.833C107.042 130.588 108.606 134.342 109.962 137.784C110.588 139.557 111.109 141.122 111.527 142.79C111.735 143.625 111.944 144.355 112.152 145.085C112.361 145.815 112.465 146.545 112.674 147.171C112.987 148.527 113.195 149.778 113.404 150.821C113.508 151.343 113.613 151.864 113.613 152.386C113.613 152.803 113.717 153.325 113.717 153.637C113.821 154.368 113.821 154.993 113.925 155.411C114.03 155.515 114.134 155.723 114.03 155.723Z" fill="#251A51"/>
<path d="M113.821 158.018C113.821 158.018 113.821 157.914 113.821 157.81C113.821 157.601 113.821 157.392 113.925 157.08C114.03 156.349 114.03 155.411 114.134 154.263C114.238 153.638 114.238 153.012 114.342 152.282C114.447 151.552 114.447 150.717 114.447 149.883C114.551 148.11 114.655 146.128 114.655 143.938C114.655 142.895 114.655 141.748 114.655 140.496C114.655 139.349 114.551 138.097 114.447 136.741C114.342 134.134 114.03 131.422 113.717 128.606C112.882 122.87 111.735 116.612 109.858 110.25C107.98 103.887 105.581 97.9425 103.078 92.7276C101.722 90.1201 100.575 87.7213 99.2192 85.4267C98.5934 84.2794 97.9676 83.2364 97.3418 82.1934C96.7161 81.1505 96.0902 80.2118 95.4645 79.2731C94.3172 77.3957 93.0656 75.8313 92.1269 74.3711C91.6054 73.641 91.1882 73.0152 90.6667 72.3894C90.2495 71.7636 89.7281 71.2421 89.4152 70.8249C88.6851 69.8863 88.0593 69.1562 87.6421 68.6347C87.4335 68.4261 87.3292 68.2175 87.2249 68.0089C87.1206 67.9046 87.1206 67.8003 87.1206 67.8003C87.1206 67.8003 87.2249 67.9046 87.3292 68.0089C87.4335 68.1132 87.6421 68.3218 87.8507 68.5304C88.2679 69.0519 88.8937 69.782 89.7281 70.7206C90.1453 71.2421 90.5625 71.7636 91.084 72.2851C91.5011 72.9109 92.0226 73.5367 92.5441 74.2668C93.5871 75.6227 94.8387 77.1871 95.9859 79.0645C96.6117 80.0032 97.2375 80.9419 97.8633 81.9849C98.4891 83.0278 99.1149 84.0708 99.7407 85.2181C101.097 87.4083 102.348 89.9115 103.6 92.519C106.103 97.7339 108.502 103.679 110.483 110.145C112.361 116.612 113.612 122.87 114.342 128.606C114.655 131.526 114.968 134.238 115.073 136.846C115.073 138.097 115.177 139.349 115.177 140.6C115.177 141.748 115.177 142.895 115.177 144.042C115.177 146.233 115.073 148.214 114.968 149.987C114.864 150.822 114.864 151.656 114.76 152.386C114.655 153.116 114.551 153.846 114.551 154.368C114.447 155.515 114.238 156.454 114.238 157.184C114.238 157.497 114.134 157.705 114.134 157.914C113.821 157.914 113.821 158.018 113.821 158.018Z" fill="#251A51"/>
<path d="M135.098 35.2593C135.098 35.2593 135.098 35.3636 134.994 35.4679C134.889 35.6765 134.785 35.8851 134.681 36.0937C134.368 36.7195 133.846 37.5538 133.325 38.5968C133.012 39.1183 132.699 39.7441 132.282 40.3699C131.969 41.1 131.552 41.8301 131.239 42.5601C130.822 43.3945 130.405 44.2289 129.987 45.0633C129.57 46.002 129.153 46.9407 128.736 47.9837C128.319 49.0266 127.797 50.0696 127.38 51.2169C126.963 52.3642 126.441 53.5115 126.024 54.763C125.815 55.3888 125.503 56.0146 125.294 56.6404C125.085 57.2662 124.877 57.892 124.668 58.6221C124.251 59.9779 123.73 61.3338 123.312 62.6897C121.539 68.3218 119.975 74.5797 118.515 81.1505C117.159 87.8256 116.22 94.1878 115.49 100.028C114.864 105.869 114.447 111.188 114.343 115.569C114.238 117.759 114.238 119.845 114.238 121.514C114.238 123.287 114.238 124.747 114.238 125.999C114.238 127.25 114.238 128.189 114.238 128.815C114.238 129.128 114.238 129.336 114.238 129.545C114.238 129.753 114.238 129.753 114.238 129.753C114.238 129.753 114.238 129.649 114.238 129.545C114.238 129.336 114.238 129.128 114.238 128.815C114.238 128.085 114.134 127.146 114.134 125.999C114.03 124.747 114.03 123.287 114.03 121.514C114.03 119.741 114.03 117.759 114.134 115.465C114.238 110.98 114.656 105.765 115.177 99.8198C115.803 93.9791 116.742 87.617 118.097 80.9419C119.453 74.2668 121.122 68.0089 122.895 62.3768C123.417 61.0209 123.834 59.6651 124.251 58.3092C124.46 57.6834 124.668 56.9533 124.877 56.3275C125.085 55.7017 125.398 55.0759 125.607 54.4501C126.128 53.1986 126.546 52.0513 126.963 50.904C127.38 49.7567 127.901 48.7137 128.423 47.6708C128.84 46.6278 129.257 45.6891 129.779 44.7504C130.196 43.8117 130.717 42.9773 131.03 42.2473C131.448 41.5172 131.865 40.7871 132.178 40.057C132.491 39.4312 132.908 38.8054 133.221 38.2839C133.846 37.2409 134.368 36.4066 134.681 35.8851C134.889 35.6765 134.994 35.4679 135.098 35.2593C135.098 35.2593 134.994 35.3636 135.098 35.2593Z" fill="#251A51"/>
<path d="M132.282 112.023C132.282 112.023 131.969 112.544 131.447 113.587C130.822 114.526 129.987 115.986 129.048 117.759C128.11 119.532 127.067 121.722 125.92 124.121C124.877 126.52 123.834 129.336 122.895 132.257C121.956 135.177 121.33 137.993 120.809 140.705C120.287 143.312 119.975 145.711 119.766 147.693C119.557 149.674 119.453 151.343 119.349 152.49C119.244 153.638 119.244 154.263 119.244 154.263C119.244 154.263 119.14 153.638 119.14 152.49C119.14 151.343 119.14 149.674 119.349 147.693C119.453 145.711 119.766 143.312 120.287 140.6C120.809 137.993 121.435 135.073 122.373 132.152C123.312 129.232 124.355 126.416 125.398 124.017C126.545 121.618 127.588 119.428 128.631 117.655C129.674 115.882 130.509 114.526 131.134 113.587C131.865 112.544 132.282 112.023 132.282 112.023Z" fill="#251A51"/>
<path d="M97.9673 150.092H133.95L129.57 186.805H102.452L97.9673 150.092Z" fill="#E3707F"/>
</svg>
