<svg width="180" height="98" viewBox="0 0 180 98" fill="none" xmlns="http://www.w3.org/2000/svg">
<path d="M128.413 18.3237L118.597 18.3762L118.859 67.2278L128.675 67.1753L128.413 18.3237Z" fill="#E1E8F9"/>
<path d="M58.9957 18.4508L33.5898 18.5867L33.734 45.5511L59.1398 45.4152L58.9957 18.4508Z" fill="#E1E7F5"/>
<path d="M84.2814 18.3198L58.8755 18.4558L59.0197 45.4203L84.4256 45.2843L84.2814 18.3198Z" fill="#ECF1FE"/>
<path d="M33.6315 26.0346C50.5149 26.1762 67.4487 26.075 84.3321 25.8019C84.6758 25.7918 84.6758 25.2659 84.3321 25.2659C67.4487 25.1749 50.5149 25.2558 33.6315 25.5794C33.3282 25.5794 33.3282 26.0346 33.6315 26.0346Z" fill="#E1E8F9"/>
<path d="M63.9218 44.966L17.7505 45.2134L17.8682 67.1915L64.0395 66.9441L63.9218 44.966Z" fill="#E1E7F5"/>
<path d="M109.862 44.724L63.6909 44.9714L63.8086 66.9496L109.98 66.7022L109.862 44.724Z" fill="#ECF1FE"/>
<path d="M17.779 51.3304C48.452 51.6743 79.2262 51.3709 109.889 50.8753C110.233 50.8652 110.233 50.3392 109.889 50.3392C79.2161 50.1774 48.4419 50.1976 17.779 50.8753C17.4757 50.8753 17.4757 51.3304 17.779 51.3304Z" fill="#E1E8F9"/>
<path d="M179.374 67.189H0.511719V75.0578H179.374V67.189Z" fill="#E1E8F9"/>
<path d="M37.0584 70.9814H29.7996V97.8448H37.0584V70.9814Z" fill="#E1E8F9"/>
<path d="M145.445 70.9814H138.187V97.8448H145.445V70.9814Z" fill="#E1E8F9"/>
<path d="M137.989 0.118346L128.172 0.170898L128.533 67.3495L138.349 67.2969L137.989 0.118346Z" fill="#E1E7F5"/>
<path d="M153.319 12.6141L138.074 12.6958L138.366 67.1406L153.612 67.0589L153.319 12.6141Z" fill="#ECF1FE"/>
<path d="M153.21 23.1013C153.21 23.2429 149.793 23.3643 145.587 23.3643C141.371 23.3643 137.964 23.2429 137.964 23.1013C137.964 22.9597 141.381 22.8384 145.587 22.8384C149.803 22.8384 153.21 22.9597 153.21 23.1013Z" fill="#E1E8F9"/>
<path d="M153.21 20.8155C153.21 20.9571 149.793 21.0784 145.587 21.0784C141.371 21.0784 137.964 20.9571 137.964 20.8155C137.964 20.6739 141.381 20.5525 145.587 20.5525C149.803 20.5525 153.21 20.6739 153.21 20.8155Z" fill="#E1E8F9"/>
<path d="M153.21 58.865C153.21 59.0066 149.793 59.128 145.587 59.128C141.371 59.128 137.964 59.0066 137.964 58.865C137.964 58.7234 141.381 58.6021 145.587 58.6021C149.803 58.6021 153.21 58.7234 153.21 58.865Z" fill="#E1E8F9"/>
<path d="M153.21 56.5794C153.21 56.721 149.793 56.8424 145.587 56.8424C141.371 56.8424 137.964 56.721 137.964 56.5794C137.964 56.4378 141.381 56.3164 145.587 56.3164C149.803 56.3164 153.21 56.4378 153.21 56.5794Z" fill="#E1E8F9"/>
<path d="M145.84 51.5927C145.698 51.5927 145.577 46.1007 145.577 39.3242C145.577 32.5477 145.698 27.0557 145.84 27.0557C145.981 27.0557 146.103 32.5477 146.103 39.3242C146.103 46.1007 145.981 51.5927 145.84 51.5927Z" fill="#E1E8F9"/>
<path d="M169.982 25.9841H153.382V67.0782H169.982V25.9841Z" fill="#E1E7F5"/>
<path d="M135.75 11.5814C135.75 13.139 134.487 14.4033 132.93 14.4033C131.373 14.4033 130.109 13.139 130.109 11.5814C130.109 10.0238 131.373 8.75952 132.93 8.75952C134.487 8.75952 135.75 10.0238 135.75 11.5814Z" fill="#E1E8F9"/>
<path d="M133.799 19.3384H132.06V59.2996H133.799V19.3384Z" fill="#E1E8F9"/>
</svg>
