<svg width="124" height="124" viewBox="0 0 124 124" fill="none" xmlns="http://www.w3.org/2000/svg">
<path d="M83.4971 102.275C105.711 90.3378 114.047 62.6451 102.115 40.4213C90.1836 18.1975 62.5031 9.85818 40.2891 21.795C18.075 33.7318 9.73933 61.4244 21.6709 83.6482C33.6025 105.872 61.283 114.211 83.4971 102.275Z" fill="#ECF1FE"/>
<path d="M16.3254 59.0322C16.3254 59.0322 16.3339 59.2868 16.3339 59.7707C16.3339 60.2715 16.3254 60.993 16.3254 61.9436C16.3254 62.419 16.3169 62.9538 16.3085 63.5394C16.3339 64.1251 16.4103 64.7702 16.4697 65.4663C16.5291 66.1623 16.597 66.9093 16.6733 67.7072C16.6903 68.1061 16.7666 68.5135 16.8515 68.938C16.9363 69.3539 17.0127 69.7868 17.0975 70.2366C17.666 73.8102 19.032 78.0883 21.3398 82.6719C23.6645 87.2386 27.1432 92.0853 32.0387 96.321C32.6496 96.8472 33.2775 97.3735 33.9053 97.9168C34.5671 98.4176 35.2629 98.8759 35.9501 99.3682C36.6543 99.8351 37.3161 100.387 38.0797 100.794C38.8348 101.219 39.5899 101.652 40.362 102.084C40.7438 102.297 41.1256 102.526 41.5244 102.73C41.9317 102.908 42.3389 103.086 42.7547 103.273C43.5777 103.638 44.4092 104.003 45.2491 104.376C46.0976 104.724 46.9969 104.962 47.8793 105.268C48.7702 105.531 49.6441 105.913 50.5859 106.074C52.444 106.464 54.3106 106.974 56.279 107.118C57.2547 107.22 58.2304 107.373 59.2316 107.424C60.2243 107.441 61.2339 107.449 62.2436 107.466C62.7527 107.466 63.2617 107.5 63.7623 107.466C64.2714 107.424 64.7804 107.381 65.2895 107.33C66.3077 107.228 67.3428 107.177 68.3694 107.033C70.4057 106.617 72.5098 106.354 74.5376 105.658C75.0467 105.505 75.5643 105.352 76.0818 105.208C76.3363 105.132 76.5994 105.064 76.8539 104.979L77.6005 104.673C78.6017 104.266 79.6114 103.859 80.621 103.451C81.6137 102.993 82.5725 102.449 83.5567 101.949C84.0403 101.686 84.5493 101.465 85.016 101.159L86.4159 100.251C88.3419 99.1051 90.0558 97.6282 91.846 96.2191C92.669 95.4297 93.492 94.6318 94.315 93.8339L94.9344 93.2312L95.5028 92.5777L96.6313 91.2535L97.7682 89.9293L98.7779 88.4948L99.7875 87.0518L100.297 86.3303C100.449 86.0757 100.585 85.821 100.738 85.5664C101.315 84.5393 101.9 83.5037 102.486 82.4682C102.969 81.3817 103.453 80.2867 103.936 79.1917C105.71 74.7354 106.83 69.9565 107.211 65.0334C107.466 60.1102 106.991 55.221 105.812 50.5694C105.472 49.415 105.141 48.2691 104.802 47.1317C104.361 46.0282 103.911 44.9248 103.47 43.8298L103.139 43.0064L102.732 42.2255L101.917 40.6637L101.103 39.1103L100.152 37.6419L99.2021 36.1819L98.727 35.4604L98.1924 34.7813C97.4797 33.8816 96.767 32.9818 96.0543 32.0906C94.4677 30.4523 92.9575 28.7632 91.1927 27.3796L89.92 26.2931C89.5043 25.9281 89.0207 25.6395 88.5795 25.317C87.6717 24.6888 86.7893 24.0268 85.8644 23.4411C84.9142 22.9063 83.9639 22.3631 83.0306 21.8368L82.3264 21.4378C82.0888 21.319 81.8343 21.2171 81.5882 21.1068C81.0961 20.8861 80.6041 20.6739 80.1204 20.4532C78.2029 19.5025 76.1582 18.9593 74.1898 18.2802C73.1886 18.0001 72.1704 17.8219 71.1693 17.5842C70.6687 17.4738 70.1681 17.3635 69.6675 17.2531C69.1669 17.1513 68.6579 17.1258 68.1573 17.0579C67.1561 16.9391 66.1549 16.8202 65.1623 16.7099C64.1696 16.6335 63.1769 16.659 62.2011 16.6335C60.2327 16.5147 58.3152 16.7778 56.4232 16.9221C55.4729 16.9561 54.5566 17.2192 53.6403 17.3635C52.724 17.5502 51.8076 17.6776 50.9168 17.9067C50.0344 18.1614 49.169 18.416 48.3035 18.6707C47.8708 18.798 47.4381 18.9253 47.0139 19.0442C46.5981 19.2054 46.1909 19.3752 45.7752 19.5365C44.9606 19.8675 44.1461 20.1901 43.3486 20.5126C42.5426 20.8182 41.8129 21.2766 41.0493 21.65C40.3026 22.049 39.5475 22.414 38.8263 22.8214C38.1306 23.2713 37.4434 23.7127 36.7646 24.1541C31.36 27.7191 27.2789 32.0651 24.3772 36.2922C21.4925 40.5363 19.575 44.5937 18.5484 48.0654C18.4041 48.4983 18.2684 48.9142 18.1326 49.3217C17.9884 49.7206 17.8696 50.1196 17.7932 50.5185C17.6151 51.2994 17.4539 52.0379 17.3012 52.717C17.1569 53.396 16.9872 54.0241 16.8939 54.6013C16.826 55.187 16.7582 55.7133 16.6988 56.1886C16.58 57.1308 16.4866 57.8438 16.4273 58.3446C16.3763 58.786 16.3254 59.0322 16.3254 59.0322C16.3254 59.0322 16.3424 58.786 16.3848 58.2937C16.4357 57.7929 16.5121 57.0714 16.6139 56.1292C16.6648 55.6539 16.7242 55.1191 16.7921 54.5334C16.8854 53.9477 17.0381 53.3281 17.1824 52.6406C17.3266 51.953 17.4878 51.223 17.6575 50.4336C17.7254 50.0347 17.8442 49.6357 17.9884 49.2283C18.1242 48.8209 18.2599 48.3964 18.3957 47.9635C19.4053 44.4749 21.3058 40.3836 24.1821 36.1055C27.0838 31.8444 31.1733 27.456 36.6034 23.8485C37.2822 23.4071 37.9779 22.9572 38.6736 22.4989C39.3948 22.0829 40.1499 21.718 40.9051 21.3105C41.6687 20.937 42.3983 20.4702 43.2128 20.1561C44.0189 19.8336 44.8334 19.5025 45.6564 19.163C46.0721 19.0017 46.4794 18.832 46.9036 18.6622C47.3363 18.5349 47.769 18.4075 48.2017 18.2802C49.0671 18.0256 49.9495 17.7624 50.8319 17.5078C51.7228 17.2701 52.6476 17.1428 53.5724 16.9561C54.4972 16.8033 55.422 16.5401 56.3808 16.5062C58.2898 16.3534 60.2243 16.0903 62.2096 16.2006C63.2023 16.2261 64.195 16.2006 65.1962 16.277C66.1974 16.3958 67.1985 16.5062 68.2167 16.625C68.7258 16.6929 69.2348 16.7269 69.7354 16.8202C70.236 16.9306 70.745 17.0409 71.2456 17.1513C72.2553 17.389 73.2819 17.5672 74.2916 17.8473C76.2769 18.5264 78.3387 19.0696 80.2817 20.0288C80.7738 20.2495 81.2659 20.4617 81.7664 20.6824C82.0125 20.7927 82.267 20.8946 82.5046 21.0134L83.2173 21.4124C84.1675 21.9471 85.1178 22.4904 86.0851 23.0336C87.0183 23.6193 87.9092 24.2899 88.8255 24.918C89.2752 25.2491 89.7588 25.5377 90.1831 25.9026L91.4642 26.9976C93.246 28.3982 94.7647 30.0958 96.3683 31.751C97.0895 32.6508 97.8021 33.559 98.5318 34.4673L99.0748 35.1463L99.5584 35.8763L100.517 37.3448L101.476 38.8217L102.299 40.392L103.122 41.9709L103.538 42.7603L103.877 43.5836C104.327 44.6871 104.768 45.799 105.218 46.9195C105.557 48.0739 105.896 49.2283 106.236 50.3912C107.432 55.0852 107.907 60.0253 107.653 64.9994C107.262 69.965 106.134 74.7948 104.344 79.2936C103.852 80.3971 103.368 81.5005 102.876 82.604C102.282 83.648 101.697 84.6921 101.111 85.7277C100.958 85.9823 100.823 86.2454 100.67 86.5001L100.161 87.2301L99.1427 88.6816L98.1246 90.1246L96.9792 91.4657L95.8422 92.7983L95.2738 93.4604L94.6459 94.0631C93.8059 94.8695 92.9745 95.6759 92.1515 96.4737C90.3443 97.8998 88.6134 99.3852 86.6705 100.54L85.2536 101.456C84.7869 101.762 84.2694 101.991 83.7773 102.254C82.7846 102.755 81.8173 103.307 80.8162 103.765C79.7895 104.181 78.7799 104.589 77.7618 104.996L77.0066 105.302C76.7521 105.386 76.4891 105.454 76.2261 105.539C75.7085 105.692 75.1909 105.845 74.6734 105.998C72.6286 106.694 70.5075 106.965 68.4543 107.381C67.4191 107.525 66.3755 107.576 65.3404 107.678C64.8229 107.721 64.3138 107.763 63.7962 107.806C63.2872 107.839 62.7696 107.797 62.2605 107.806C61.2424 107.789 60.2243 107.772 59.2231 107.755C58.2219 107.704 57.2292 107.542 56.2535 107.441C54.2766 107.296 52.3931 106.778 50.518 106.38C49.5677 106.218 48.6938 105.836 47.7945 105.565C46.9036 105.259 46.0042 105.004 45.1473 104.656C44.2989 104.283 43.4674 103.909 42.6359 103.544C42.2201 103.358 41.8129 103.179 41.3971 102.993C40.9984 102.781 40.6166 102.551 40.2263 102.339C39.4542 101.898 38.6906 101.465 37.927 101.04C37.1634 100.624 36.4931 100.064 35.7889 99.5974C35.0932 99.1051 34.3974 98.6383 33.7271 98.129C33.0993 97.5857 32.4714 97.0509 31.8521 96.5162C26.9395 92.2296 23.4609 87.3489 21.1446 82.7398C18.8453 78.1222 17.4963 73.8187 16.9533 70.2282C16.8684 69.7783 16.7921 69.3454 16.7157 68.921C16.6309 68.4966 16.563 68.0891 16.546 67.6902C16.4781 66.8838 16.4188 66.1368 16.3594 65.4408C16.3085 64.7448 16.2321 64.0997 16.2236 63.514C16.2406 62.9283 16.2491 62.3935 16.2576 61.9097C16.283 60.959 16.3 60.2375 16.3085 59.7367C16.3085 59.2868 16.3254 59.0322 16.3254 59.0322Z" fill="#407BFF"/>
<path d="M82.6151 63.4288C82.6151 63.4627 82.0466 63.5052 81.003 63.5391C79.8576 63.5646 78.3728 63.5901 76.5656 63.6325C72.7985 63.6834 67.5551 63.7174 61.6329 63.7259H61.3359V63.4288C61.3359 62.4781 61.3359 61.485 61.3359 60.4664C61.3359 53.8541 61.3699 47.8614 61.4208 43.5239C61.4632 41.4358 61.4887 39.7042 61.5141 38.3885C61.548 37.1747 61.5905 36.5042 61.6329 36.5042C61.6753 36.5042 61.7092 37.1747 61.7517 38.3885C61.7771 39.7042 61.8111 41.4358 61.845 43.5239C61.8959 47.8614 61.9299 53.8456 61.9299 60.4664C61.9299 61.4765 61.9299 62.4781 61.9299 63.4288L61.6329 63.1317C67.5551 63.1402 72.7985 63.1742 76.5656 63.2251C78.3728 63.259 79.8576 63.293 81.003 63.3185C82.0381 63.3609 82.6151 63.3948 82.6151 63.4288Z" fill="#407BFF"/>
<path d="M61.7686 23.8567C61.9298 23.8567 62.0656 25.5713 62.0656 27.6934C62.0656 29.8154 61.9298 31.53 61.7686 31.53C61.6074 31.53 61.4717 29.8154 61.4717 27.6934C61.4717 25.5713 61.6074 23.8567 61.7686 23.8567Z" fill="#407BFF"/>
<path d="M82.5725 30.0193C82.6913 30.1381 81.5883 31.4283 80.112 32.9053C78.6357 34.3822 77.346 35.4857 77.2273 35.3668C77.1085 35.248 78.2115 33.9578 79.6878 32.4808C81.1641 31.0039 82.4537 29.9004 82.5725 30.0193Z" fill="#407BFF"/>
<path d="M94.731 43.3118C94.8073 43.4646 93.3565 44.3304 91.5832 45.4084C89.8099 46.4864 88.3676 47.3692 88.2743 47.2334C88.1809 47.106 89.4791 45.9941 91.2778 44.8991C93.0765 43.8126 94.6631 43.1675 94.731 43.3118Z" fill="#407BFF"/>
<path d="M101.858 63.0383C101.858 63.1996 99.5162 63.3354 96.6315 63.3354C93.7468 63.3354 91.405 63.1996 91.405 63.0383C91.405 62.877 93.7468 62.7412 96.6315 62.7412C99.5162 62.7412 101.858 62.8685 101.858 63.0383Z" fill="#407BFF"/>
<path d="M29.3494 62.3425C29.3494 62.5038 27.1349 62.6396 24.4114 62.6396C21.6794 62.6396 19.4734 62.5038 19.4734 62.3425C19.4734 62.1812 21.6879 62.0454 24.4114 62.0454C27.1349 62.0454 29.3494 62.1727 29.3494 62.3425Z" fill="#407BFF"/>
<path d="M34.474 77.0269C34.5843 77.1457 32.9129 78.6651 30.7409 80.4137C28.5688 82.1623 26.7362 83.4694 26.6344 83.3421C26.541 83.2148 28.204 81.6954 30.3675 79.9553C32.5311 78.2067 34.3722 76.8996 34.474 77.0269Z" fill="#407BFF"/>
<path d="M47.1244 88.3843C47.2602 88.4862 46.0214 90.3875 44.5876 92.7897C43.1452 95.1834 42.0422 97.1781 41.8895 97.1017C41.7453 97.0338 42.6192 94.9117 44.0785 92.4841C45.5378 90.0565 46.9972 88.2824 47.1244 88.3843Z" fill="#407BFF"/>
<path d="M61.7686 103.026C61.6074 103.026 61.4717 100.684 61.4717 97.7976C61.4717 94.9116 61.6074 92.5688 61.7686 92.5688C61.9298 92.5688 62.0656 94.9116 62.0656 97.7976C62.0656 100.684 61.9298 103.026 61.7686 103.026Z" fill="#407BFF"/>
<path d="M84.3122 96.0573C84.2274 96.1846 82.1826 95.0132 80.0021 93.1034C77.8131 91.202 76.3707 89.3346 76.4895 89.2327C76.6168 89.1224 78.2373 90.7861 80.3923 92.6535C82.5304 94.5379 84.4055 95.913 84.3122 96.0573Z" fill="#407BFF"/>
<path d="M94.884 84.6576C94.7652 84.7764 93.221 83.4098 91.4223 81.6103C89.6236 79.8108 88.2576 78.2574 88.3763 78.1471C88.4951 78.0283 90.0393 79.3949 91.838 81.1944C93.6367 82.9939 95.0027 84.5472 94.884 84.6576Z" fill="#407BFF"/>
<path d="M33.9986 48.269C33.8798 48.3878 32.5138 47.1995 30.9442 45.6291C29.3746 44.0588 28.1868 42.6837 28.3056 42.5734C28.4243 42.4545 29.7903 43.6429 31.36 45.2132C32.9296 46.7835 34.1089 48.1586 33.9986 48.269Z" fill="#407BFF"/>
<path d="M47.048 34.5095C46.9293 34.6284 45.5887 33.474 44.0445 31.9376C42.5003 30.4012 41.3465 29.0601 41.4568 28.9413C41.5755 28.8224 42.9161 29.9768 44.4603 31.5132C46.0045 33.0581 47.1668 34.3992 47.048 34.5095Z" fill="#407BFF"/>
</svg>
