<svg width="155" height="222" viewBox="0 0 155 222" fill="none" xmlns="http://www.w3.org/2000/svg">
<path d="M35.5016 153.325H117.264V164.507H35.5016V153.325Z" fill="#251A51"/>
<path d="M35.2612 164.627H117.384V153.084H35.2612V164.627ZM117.144 164.387H35.6219V153.445H117.144V164.387Z" fill="#251A51"/>
<path d="M109.689 160.78L97.9057 218.855H54.3793L42.9566 164.507L109.689 160.78Z" fill="#251A51"/>
<path d="M109.689 213.324L103.437 221.981H50.4114L42.9566 213.324H109.689Z" fill="#455A64"/>
<path d="M79.389 162.463C79.5092 162.463 79.7497 135.53 79.8699 102.344C79.9902 69.1581 79.8699 42.2246 79.7497 42.2246C79.6295 42.2246 79.389 69.1581 79.2687 102.344C79.2687 135.53 79.2687 162.463 79.389 162.463Z" fill="#251A51"/>
<path d="M61.2329 95.1299C61.2329 95.1299 61.2329 95.3704 61.4734 95.7311C61.7139 96.212 61.9544 96.8132 62.1948 97.4144C62.3151 97.7751 62.5556 98.2561 62.6758 98.6168C62.796 99.0978 63.0365 99.5787 63.277 100.18C63.5175 100.781 63.6377 101.262 63.8782 101.984C64.1187 102.585 64.2389 103.306 64.4794 104.028C65.321 106.793 66.0425 110.28 66.7639 114.007C67.3651 117.855 67.8461 122.063 68.0865 126.512C68.4472 135.41 67.9663 143.586 67.4853 149.358C67.2449 152.243 67.0044 154.648 66.7639 156.211C66.6437 156.933 66.6436 157.654 66.5234 158.135C66.5234 158.616 66.5234 158.736 66.5234 158.856C66.5234 158.856 66.6437 158.616 66.6437 158.255C66.7639 157.774 66.8842 157.173 67.0044 156.331C67.2449 154.768 67.6056 152.364 67.9663 149.478C68.5675 143.586 69.1687 135.53 68.808 126.512C68.5675 122.063 68.0865 117.735 67.4853 113.887C66.7639 110.039 66.0425 106.673 65.0806 103.787C64.8401 103.066 64.7199 102.464 64.4794 101.743C64.2389 101.142 63.9984 100.541 63.7579 99.9394C63.5175 99.4585 63.3972 98.8573 63.1567 98.3763C62.9163 97.8954 62.796 97.5347 62.5555 97.174C62.1948 96.4525 61.9543 95.9715 61.7139 95.4906C61.3531 95.2501 61.2329 95.1299 61.2329 95.1299Z" fill="#251A51"/>
<path d="M63.2769 73.3662C63.2769 73.3662 63.3971 73.7269 63.5173 74.2079C63.7578 74.8091 63.9983 75.6508 64.359 76.7329C64.5995 77.3341 64.7197 77.9353 64.9602 78.5365C65.2007 79.2579 65.4412 79.9793 65.5614 80.7008C66.0423 82.2639 66.6435 84.0675 67.1245 85.9913C67.365 86.9532 67.6054 88.0353 67.9662 89.1175C68.2066 90.1996 68.4471 91.402 68.6876 92.4841C69.2888 94.7687 69.6495 97.414 70.2507 100.059C71.0924 105.35 71.934 111.362 72.5352 117.494C73.0162 123.746 73.2567 129.638 73.3769 135.169C73.3769 140.58 73.3769 145.509 73.1364 149.598C73.0162 151.642 72.8959 153.445 72.7757 155.128C72.6555 156.812 72.5352 158.134 72.5352 159.337C72.415 160.419 72.415 161.261 72.2948 161.982C72.2948 162.583 72.2948 162.944 72.2948 162.944C72.2948 162.944 72.415 162.583 72.415 161.982C72.5352 161.381 72.5352 160.419 72.7757 159.337C72.8959 158.255 73.0162 156.812 73.1364 155.128C73.2566 153.445 73.3769 151.642 73.4971 149.598C73.7376 145.509 73.8578 140.58 73.8578 135.169C73.8578 129.758 73.6174 123.746 73.1364 117.494C72.5352 111.241 71.8138 105.35 70.8519 99.939C70.2507 97.2937 69.89 94.7687 69.2888 92.3639C69.0483 91.1616 68.6876 90.0794 68.4471 88.9972C68.2066 87.9151 67.8459 86.8329 67.6055 85.871C67.1245 83.827 66.5233 82.1436 66.0423 80.5805C65.8019 79.8591 65.5614 79.1377 65.3209 78.4162C65.0804 77.8151 64.84 77.2139 64.5995 76.6127C64.2388 75.5305 63.878 74.8091 63.6376 74.0877C63.3971 73.6067 63.2769 73.3662 63.2769 73.3662Z" fill="#251A51"/>
<path d="M84.559 167.273C84.559 167.273 84.559 167.153 84.559 166.912C84.559 166.672 84.559 166.311 84.6793 165.95C84.6793 165.109 84.7995 163.906 84.9197 162.343C85.1602 159.217 85.4007 154.768 85.7614 149.237C86.4828 138.175 87.4447 122.905 89.3686 106.071C90.3305 97.6547 91.4126 89.7189 92.615 82.3843C93.2162 78.7772 93.8174 75.2903 94.4186 72.1641C95.0198 68.9176 95.621 66.0319 96.2222 63.2664C96.7031 60.5009 97.3043 58.0961 97.7853 55.9318C98.2662 53.7675 98.7472 51.964 99.1079 50.4009C99.4686 48.958 99.7091 47.7556 99.9496 46.9139C100.07 46.5532 100.07 46.1925 100.19 45.952C100.19 45.7116 100.31 45.5913 100.19 45.5913C100.19 45.5913 100.19 45.7116 100.07 45.8318C99.9496 46.0723 99.9496 46.3128 99.8293 46.6735C99.5889 47.5152 99.2282 48.5973 98.8674 50.1604C98.5067 51.6033 97.9055 53.5271 97.4246 55.6914C96.9436 57.8557 96.3424 60.2604 95.7412 63.0259C95.14 65.7914 94.5388 68.6772 93.9376 71.9236C93.3364 75.17 92.7353 78.5367 92.1341 82.1439C90.9317 89.3582 89.8495 97.4142 88.8876 105.831C86.9638 122.664 86.0019 137.935 85.4007 148.997C85.04 154.528 84.9197 158.976 84.7995 162.103C84.7995 163.666 84.6793 164.868 84.6793 165.71C84.6793 166.07 84.6793 166.431 84.6793 166.672C84.559 167.153 84.559 167.273 84.559 167.273Z" fill="#251A51"/>
<path d="M80.1102 55.2104C80.471 51.3627 84.3186 48.4771 88.1662 48.4771C92.0138 48.4771 95.621 50.7616 97.9055 53.7675C100.19 56.7735 101.513 60.5009 102.595 64.2283C105.12 73.2462 106.563 82.6248 105.481 91.8832C104.398 101.142 100.671 110.28 93.9377 116.893C92.8555 117.975 91.4126 119.057 89.9698 118.696C89.1281 118.576 88.5269 117.975 87.9257 117.374C74.8197 105.59 67.2447 87.7951 67.8459 70.2402C67.9661 66.7533 68.4471 63.0259 70.3709 60.1402C72.1745 57.1342 76.7436 54.008 80.1102 55.2104Z" fill="#E3707F"/>
<path d="M108.727 24.6694C110.531 27.9158 112.334 31.1623 114.138 34.4087C114.258 34.6492 114.378 34.8897 114.739 34.8897C114.98 34.8897 115.22 34.6492 115.34 34.4087C120.15 27.0742 124.839 19.8598 129.649 12.5253L126.402 10.7217L108.727 24.6694Z" fill="#E3707F"/>
<g opacity="0.2">
<g opacity="0.2">
<g opacity="0.2">
<g opacity="0.2">
<g opacity="0.2">
<path opacity="0.2" d="M108.727 24.6694C110.531 27.9158 112.334 31.1623 114.138 34.4087C114.258 34.6492 114.378 34.8897 114.739 34.8897C114.98 34.8897 115.22 34.6492 115.34 34.4087C120.15 27.0742 124.839 19.8598 129.649 12.5253L126.402 10.7217L108.727 24.6694Z" fill="#251A51"/>
</g>
</g>
</g>
</g>
</g>
<path d="M79.7498 42.2247C95.982 32.6056 112.214 23.1067 128.446 13.4876C128.927 13.2471 129.529 12.8864 129.649 12.2852C129.889 11.5638 129.288 10.8424 128.807 10.3614C122.074 3.50781 112.455 -0.580305 102.836 0.141127C93.2165 0.862559 84.0784 6.39355 79.3891 14.8103C74.5795 23.227 74.339 34.2889 79.7498 42.2247Z" fill="#E3707F"/>
<path d="M121.352 4.34936C121.352 4.34936 121.112 4.34935 120.751 4.22911C120.39 4.22911 119.669 4.10889 118.947 4.10889C117.384 4.10889 114.98 4.22912 112.214 4.58983C109.328 5.07079 106.082 5.91247 102.595 7.47557C99.1081 9.03867 95.5009 11.203 92.2545 14.2089C89.0081 17.2149 86.483 20.4614 84.5592 23.828C82.6354 27.0745 81.433 30.3209 80.7116 33.0864C79.9902 35.8519 79.6294 38.1364 79.5092 39.6995C79.389 40.5412 79.5092 40.6614 79.3889 41.1424C79.3889 41.5031 79.7496 42.2245 79.7496 42.2245C79.7496 42.2245 79.5092 41.3829 79.6294 39.8198C79.8699 38.2567 80.2306 35.9721 80.952 33.2066C82.5151 27.7959 86.0021 20.4613 92.495 14.6899C98.9878 8.91844 106.563 6.03271 112.094 5.0708C114.859 4.58984 117.144 4.34936 118.827 4.34936C120.511 4.34936 121.352 4.4696 121.352 4.34936Z" fill="#251A51"/>
<path d="M86.3625 22.3853C86.3625 22.5055 87.3244 22.8662 88.7673 23.4674C90.3304 24.0686 92.4947 24.9103 94.8995 25.6317C97.3042 26.3531 99.5888 26.9543 101.152 27.4353C102.715 27.796 103.797 28.0365 103.797 27.9162C103.797 27.796 102.835 27.5555 101.272 26.9543C99.4686 26.3531 97.4245 25.752 95.0197 25.0305C92.7352 24.3091 90.6911 23.5876 88.8875 22.9864C87.3244 22.6257 86.3625 22.3853 86.3625 22.3853Z" fill="#251A51"/>
<path d="M94.0581 1.82422C93.9379 1.82422 93.5772 4.22899 93.4569 7.23496C93.3367 10.2409 93.5771 12.6457 93.6974 12.6457C93.8176 12.6457 93.9379 10.2409 93.9379 7.23496C94.0581 4.34923 94.1783 1.82422 94.0581 1.82422Z" fill="#251A51"/>
<path d="M128.807 13.0065C128.807 12.8862 127.484 12.4053 125.32 11.8041C123.156 11.0827 120.03 10.241 116.543 9.3993C113.056 8.55763 109.93 7.95644 107.645 7.59572C105.36 7.23501 103.918 6.99454 103.918 7.11477C103.918 7.23501 105.24 7.47549 107.525 8.07669C109.809 8.55764 112.936 9.27907 116.302 10.1207C119.669 10.9624 122.795 11.6838 125.08 12.285C127.364 12.766 128.807 13.1267 128.807 13.0065Z" fill="#251A51"/>
<path d="M100.311 46.9139C104.519 43.7877 108.968 43.0663 114.138 43.3068C119.428 43.5472 124.479 45.1104 129.288 47.2747C137.464 50.8818 145.16 56.1723 150.089 63.6271C155.019 71.0819 156.702 81.0617 152.975 89.2379C152.614 90.0796 152.133 90.9213 151.292 91.282C150.45 91.6427 149.488 91.4022 148.526 91.0415C139.148 88.0356 129.769 84.9094 121.232 80.22C112.695 75.4105 104.88 68.7974 100.19 60.1402C99.1081 58.0961 98.1463 55.8116 98.026 53.5271C97.9058 51.1223 98.6272 48.5973 100.311 46.9139Z" fill="#E3707F"/>
<path d="M100.19 45.9517C100.19 45.9517 100.431 46.0719 100.912 46.1921C101.393 46.3124 102.114 46.5528 102.835 46.9136C103.316 47.0338 103.797 47.2743 104.278 47.3945C104.759 47.635 105.36 47.7552 105.962 47.9957C107.164 48.4766 108.487 48.9576 109.93 49.6791C110.651 50.0398 111.372 50.4005 112.214 50.7612C113.056 51.1219 113.777 51.6029 114.619 51.9636C116.302 52.8053 117.986 53.8874 119.789 54.9696C123.396 57.2541 127.124 59.8993 130.851 63.1458C134.458 66.3922 137.705 69.7589 140.35 73.0054C141.673 74.6887 142.875 76.2518 143.957 77.8149C144.438 78.5363 145.039 79.378 145.52 80.0994C146.001 80.8209 146.482 81.5423 146.843 82.2637C147.684 83.5863 148.406 84.909 149.007 85.9911C149.368 86.5923 149.608 87.0733 149.849 87.5542C150.089 88.0352 150.33 88.5161 150.45 88.8768C150.811 89.5983 151.171 90.1995 151.412 90.6804C151.652 91.1614 151.773 91.2816 151.773 91.2816C151.773 91.2816 151.652 91.0412 151.532 90.5602C151.292 90.0793 151.051 89.4781 150.69 88.6364C150.45 88.2757 150.33 87.7947 150.089 87.3138C149.849 86.8328 149.608 86.3519 149.248 85.7507C148.646 84.6685 148.045 83.3459 147.203 81.903C146.843 81.1816 146.362 80.4602 145.881 79.7387C145.4 79.0173 144.919 78.2958 144.318 77.4542C143.236 75.8911 142.033 74.328 140.711 72.6446C138.065 69.3982 134.819 65.9113 131.092 62.6648C127.364 59.4184 123.516 56.6529 119.909 54.4886C118.106 53.4065 116.302 52.3243 114.619 51.6029C113.777 51.2421 112.935 50.7612 112.214 50.4005C111.372 50.0398 110.651 49.6791 109.93 49.4386C108.487 48.7171 107.044 48.3564 105.841 47.8755C105.24 47.635 104.639 47.3945 104.158 47.2743C103.677 47.1541 103.196 47.0338 102.715 46.7933C101.874 46.5528 101.272 46.3124 100.671 46.1921C100.431 45.9516 100.19 45.9517 100.19 45.9517Z" fill="#251A51"/>
<path d="M143.061 66.8558C137.388 65.1974 132.82 63.7497 132.857 63.6222C132.895 63.4948 137.523 64.7358 143.196 66.3942C148.868 68.0526 153.437 69.5003 153.399 69.6278C153.362 69.7552 148.733 68.5142 143.061 66.8558Z" fill="#251A51"/>
<path d="M133.256 86.1117C133.376 86.1117 133.376 84.9093 133.496 82.9855C133.496 81.0617 133.617 78.2962 133.496 75.2902C133.376 72.2843 133.256 69.639 133.136 67.595C133.016 65.6711 132.775 64.4688 132.775 64.4688C132.655 64.4688 132.655 65.6711 132.775 67.595C132.895 69.7593 132.895 72.4045 133.016 75.2902C133.136 78.176 133.136 80.8212 133.256 82.9855C133.136 84.9093 133.256 86.1117 133.256 86.1117Z" fill="#251A51"/>
<path d="M114.011 76.3333C113.879 76.3241 114.154 70.7852 114.625 63.9618C115.097 57.1384 115.587 51.6144 115.72 51.6235C115.852 51.6327 115.577 57.1716 115.105 63.995C114.633 70.8184 114.144 76.3424 114.011 76.3333Z" fill="#251A51"/>
<path d="M138.065 51.1222C138.065 51.002 136.863 51.002 134.819 51.002C132.775 51.002 130.009 51.1222 127.003 51.1222C123.997 51.2424 121.112 51.3627 119.188 51.4829C117.144 51.6032 115.941 51.7234 115.941 51.8436C115.941 51.9639 117.144 51.9639 119.188 51.9639C121.232 51.9639 123.997 51.8436 127.003 51.8436C130.13 51.7234 132.895 51.6032 134.819 51.4829C136.743 51.3627 138.065 51.2424 138.065 51.1222Z" fill="#251A51"/>
<path d="M91.8939 118.095C91.8939 118.095 91.8939 117.855 92.0142 117.494C92.0142 117.013 92.0142 116.412 92.1344 115.57C92.2547 113.887 92.2547 111.602 92.1344 108.717C92.1344 105.831 91.894 102.344 91.5332 98.4962C91.1725 94.6486 90.5713 90.4403 89.8499 86.1117C89.0082 81.7831 88.0463 77.5747 87.0844 73.8473C86.0022 70.1199 85.0403 66.8735 84.0784 64.108C83.1165 61.3425 82.2748 59.1782 81.6737 57.6151C81.3129 56.8937 81.0725 56.2925 80.9522 55.9318C80.832 55.571 80.7118 55.3306 80.7118 55.3306C80.7118 55.3306 80.7117 55.571 80.9522 55.9318C81.0725 56.4127 81.3129 57.0139 81.5534 57.7353C82.1546 59.2984 82.8761 61.4627 83.838 64.2282C84.7999 66.9937 85.7618 70.3604 86.7237 73.9676C87.6856 77.695 88.6475 81.7831 89.4892 86.1117C90.3308 90.4403 90.8118 94.6486 91.2927 98.4962C91.6535 102.344 91.8939 105.711 92.0142 108.717C92.1344 111.602 92.1344 114.007 92.1344 115.57C92.1344 116.292 92.1344 116.893 92.1344 117.494C91.7737 117.855 91.7737 118.095 91.8939 118.095Z" fill="#251A51"/>
<path d="M89.2487 86.2319C89.2487 86.2319 89.9701 87.0736 91.1725 88.3962C92.3749 89.5986 94.1785 91.2819 96.2225 93.0855C98.2666 94.8891 100.19 96.4522 101.633 97.5344C103.076 98.6165 103.918 99.2177 104.038 99.2177C104.038 99.0975 103.317 98.376 101.994 97.2939C100.551 95.9712 98.7475 94.4082 96.8237 92.7248C94.8999 91.0415 93.0963 89.4784 91.6535 88.1558C90.2106 86.9534 89.3689 86.2319 89.2487 86.2319Z" fill="#251A51"/>
<path d="M73.858 98.6166C73.9782 98.6166 74.6997 97.5345 75.902 95.7309C77.2247 93.8071 78.908 91.4023 80.7116 88.757C82.6354 86.1118 84.3188 83.707 85.6414 81.7832C86.8438 79.9796 87.6854 78.8975 87.5652 78.8975C87.4449 78.8975 86.6033 79.8594 85.2806 81.5427C83.958 83.2261 82.1545 85.6308 80.2306 88.3963C78.3068 91.1618 76.7437 93.6868 75.5413 95.4904C74.4592 97.4142 73.858 98.6166 73.858 98.6166Z" fill="#251A51"/>
<path d="M93.4119 67.3506C87.0438 63.2566 81.9396 59.8472 82.0114 59.7355C82.0833 59.6237 87.3039 62.852 93.672 66.946C100.04 71.04 105.144 74.4495 105.072 74.5612C105.001 74.6729 99.78 71.4446 93.4119 67.3506Z" fill="#251A51"/>
<path d="M67.5219 75.231C67.4291 75.136 70.7429 71.7491 74.9235 67.6661C79.1041 63.583 82.5684 60.3501 82.6612 60.4451C82.754 60.5402 79.4402 63.9271 75.2596 68.0101C71.079 72.0931 67.6147 75.326 67.5219 75.231Z" fill="#251A51"/>
<path d="M63.8781 74.9294L59.4292 74.5687C56.303 74.3282 53.297 73.3663 50.5316 71.8032C49.2089 71.0818 47.8863 70.3603 46.4434 69.7591C41.0327 67.5948 34.9005 67.9556 29.1291 67.7151C19.6302 67.2341 10.1313 64.8293 1.5944 60.621C1.11345 60.3805 0.632492 60.0198 0.392017 59.5388C-0.569893 57.8555 1.11347 56.4126 2.55634 55.571C10.0111 51.0019 17.4659 46.4328 25.8826 44.1483C34.2993 41.8638 43.7982 42.2245 50.8923 47.1543C59.4292 52.9257 62.4352 64.8294 63.8781 74.9294Z" fill="#E3707F"/>
<path d="M0.27182 59.0575C0.27182 59.0575 0.512268 58.9373 0.993221 58.6968C1.47418 58.4563 2.19563 58.0956 3.0373 57.6146C4.84087 56.6527 7.48612 55.2099 10.7326 53.6468C13.979 52.0837 17.9469 50.2801 22.6362 49.0777C27.2052 47.7551 32.616 47.1539 38.0268 47.8753C43.4375 48.5968 48.4875 50.7611 52.0947 53.8873C55.7018 57.0135 57.8661 60.8611 59.4292 64.2278C60.9923 67.4742 61.9542 70.36 62.5554 72.2838C62.9161 73.2457 63.1566 73.9671 63.2769 74.4481C63.5173 74.929 63.5173 75.1695 63.6376 75.1695C63.6376 75.1695 63.6376 74.929 63.3971 74.3279C63.2769 73.7267 63.0364 73.0052 62.6757 72.0433C62.0745 70.1195 61.1126 67.2338 59.6697 63.9873C58.1066 60.6206 55.9423 56.773 52.3351 53.5265C48.728 50.2801 43.5577 47.9956 38.0268 47.2742C32.4958 46.5527 27.085 47.2741 22.3957 48.5968C17.7064 49.9194 13.7386 51.723 10.4921 53.2861C7.24566 54.9694 4.60039 56.4123 2.91705 57.3742C2.07538 57.8551 1.35397 58.2159 0.873013 58.5766C0.512299 58.8171 0.27182 58.9373 0.27182 59.0575Z" fill="#251A51"/>
<path d="M10.794 64.6781C10.7197 64.568 16.3278 60.6563 23.3201 55.9411C30.3124 51.2259 36.0409 47.4927 36.1152 47.6029C36.1894 47.713 30.5813 51.6247 23.589 56.3399C16.5967 61.0551 10.8682 64.7882 10.794 64.6781Z" fill="#251A51"/>
<path d="M16.9849 47.2745C16.9849 47.3947 18.7885 47.8756 21.1933 47.9959C23.598 48.2364 25.4016 48.1161 25.4016 47.9959C25.4016 47.8756 23.4778 47.7554 21.1933 47.5149C18.9087 47.3947 16.9849 47.1542 16.9849 47.2745Z" fill="#251A51"/>
<path d="M42.1148 44.0283C41.9946 44.1485 42.8363 45.3509 44.0386 46.914C45.241 48.4771 46.3232 49.6795 46.4434 49.6795C46.5636 49.5593 45.722 48.3569 44.5196 46.7938C43.3172 45.1104 42.235 43.9081 42.1148 44.0283Z" fill="#251A51"/>
<path d="M36.9447 68.0758C36.9447 68.196 38.0269 67.5948 39.7102 66.6329C41.3935 65.671 43.5579 64.1079 45.9626 62.4245C48.3674 60.7412 50.4115 59.0579 51.9746 57.8555C53.5377 56.6531 54.3793 55.9316 54.3793 55.8114C54.3793 55.6912 53.2972 56.4126 51.7341 57.4948C50.0507 58.6972 47.8864 60.2602 45.6019 61.9436C43.1971 63.6269 41.0328 65.19 39.4697 66.2722C37.9066 67.3543 36.9447 67.9555 36.9447 68.0758Z" fill="#251A51"/>
<path d="M57.3853 93.5664C61.5936 92.4843 66.5234 96.5724 67.4853 100.781C68.327 104.989 66.7638 109.318 64.84 113.286C60.7519 121.943 54.9805 129.999 47.5257 135.89C40.0709 141.902 30.6923 145.63 21.0732 145.63C22.8767 137.453 20.5922 128.796 21.5541 120.5C22.3958 113.165 25.7625 106.191 31.053 101.021C36.2232 95.8509 43.3173 92.4843 50.5316 91.7628C53.2971 91.5223 56.3031 91.0414 57.3853 93.5664Z" fill="#E3707F"/>
<path d="M21.0734 145.63C21.0734 145.63 21.3139 145.509 21.6746 145.389C22.0353 145.149 22.6365 144.908 23.2377 144.307C24.5603 143.345 26.0032 141.421 27.3258 138.776C28.0472 137.453 28.7686 136.131 29.4901 134.568C30.2115 133.005 30.9329 131.321 31.7746 129.638C32.6163 127.834 33.458 126.031 34.5401 124.347C35.6223 122.544 36.9449 120.86 38.3877 119.177C41.2735 115.81 44.2794 112.925 47.0449 110.159C49.6902 107.394 51.9747 104.748 53.6581 102.223C55.3414 99.8187 56.3033 97.6544 56.9045 96.0913C57.145 95.3699 57.3854 94.7687 57.5057 94.2877C57.6259 93.927 57.6259 93.6865 57.6259 93.6865C57.6259 93.6865 57.3855 94.5282 56.664 96.0913C56.0628 97.5342 54.9807 99.6985 53.2973 102.103C51.614 104.508 49.3294 107.153 46.6842 109.799C44.0389 112.564 40.9128 115.45 38.027 118.816C36.5842 120.5 35.2615 122.303 34.1794 124.107C33.0972 125.911 32.2556 127.714 31.4139 129.518C30.6925 131.321 29.8508 133.005 29.2496 134.568C28.5282 136.131 27.8067 137.574 27.2056 138.896C26.0032 141.542 24.5603 143.465 23.2377 144.427C21.915 145.269 21.0734 145.63 21.0734 145.63Z" fill="#251A51"/>
<path d="M42.7161 138.896C42.8364 138.896 42.7162 137.814 42.3554 136.131C41.9947 134.447 41.5137 132.043 40.7923 129.518C40.0709 126.993 39.2292 124.588 38.628 123.025C38.0268 121.341 37.5459 120.379 37.4256 120.379C37.3054 120.379 37.6661 121.462 38.1471 123.145C38.628 124.828 39.3494 127.113 40.0709 129.638C40.7923 132.163 41.3935 134.568 41.8745 136.251C42.3554 137.814 42.5959 138.896 42.7161 138.896Z" fill="#251A51"/>
<path d="M21.915 118.696C21.915 118.816 23.1174 118.456 24.921 117.975C26.7246 117.494 29.2496 116.893 32.0151 116.291C34.7806 115.69 37.3056 115.209 39.1091 114.849C40.9127 114.488 42.1151 114.247 42.1151 114.247C42.1151 114.127 40.9127 114.247 39.1091 114.488C37.3056 114.728 34.6603 115.209 31.8948 115.81C29.1293 116.412 26.6043 117.133 24.8008 117.734C22.8769 118.215 21.7948 118.576 21.915 118.696Z" fill="#251A51"/>
<path d="M58.2269 124.588C58.3471 124.588 58.1067 123.265 57.746 121.341C57.3852 119.297 56.7841 116.652 56.0626 113.646C55.2209 110.64 54.4995 107.995 53.7781 106.071C53.1769 104.147 52.6959 102.945 52.5757 102.945C52.4555 102.945 52.8162 104.147 53.4174 106.191C54.0185 108.115 54.74 110.881 55.4614 113.887C56.1829 116.893 56.9043 119.658 57.3853 121.582C57.8662 123.265 58.2269 124.588 58.2269 124.588Z" fill="#251A51"/>
<path d="M31.571 101.015C31.557 100.883 36.7382 100.226 43.1435 99.5469C49.5489 98.868 54.7527 98.4247 54.7667 98.5568C54.7807 98.6888 49.5995 99.3463 43.1942 100.025C36.7889 100.704 31.585 101.147 31.571 101.015Z" fill="#251A51"/>
<path d="M76.3828 164.748C53.7384 164.748 35.3814 164.64 35.3814 164.508C35.3814 164.375 53.7384 164.267 76.3828 164.267C99.0273 164.267 117.384 164.375 117.384 164.508C117.384 164.64 99.0273 164.748 76.3828 164.748Z" fill="#455A64"/>
<path d="M75.7819 188.314C60.5085 188.314 48.127 188.207 48.127 188.074C48.127 187.941 60.5085 187.833 75.7819 187.833C91.0553 187.833 103.437 187.941 103.437 188.074C103.437 188.207 91.0553 188.314 75.7819 188.314Z" fill="#455A64"/>
<path d="M75.7817 191.681C60.7739 191.681 48.6077 191.573 48.6077 191.441C48.6077 191.308 60.7739 191.2 75.7817 191.2C90.7894 191.2 102.956 191.308 102.956 191.441C102.956 191.573 90.7894 191.681 75.7817 191.681Z" fill="#455A64"/>
<path d="M76.2628 185.549C60.4582 185.549 47.646 185.442 47.646 185.309C47.646 185.176 60.4582 185.068 76.2628 185.068C92.0674 185.068 104.88 185.176 104.88 185.309C104.88 185.442 92.0674 185.549 76.2628 185.549Z" fill="#455A64"/>
</svg>
