<svg width="422" height="356" viewBox="0 0 422 356" fill="none" xmlns="http://www.w3.org/2000/svg">
<path d="M405.198 329.806C414.415 329.806 421.886 329.666 421.886 329.494C421.886 329.321 414.415 329.181 405.198 329.181C395.982 329.181 388.511 329.321 388.511 329.494C388.511 329.666 395.982 329.806 405.198 329.806Z" fill="#FAFAFA"/>
<path d="M405.198 332.206C414.415 332.206 421.886 332.066 421.886 331.893C421.886 331.72 414.415 331.58 405.198 331.58C395.982 331.58 388.511 331.72 388.511 331.893C388.511 332.066 395.982 332.206 405.198 332.206Z" fill="#FAFAFA"/>
<path d="M405.303 334.605C414.174 334.605 421.365 334.465 421.365 334.292C421.365 334.119 414.174 333.979 405.303 333.979C396.432 333.979 389.241 334.119 389.241 334.292C389.241 334.465 396.432 334.605 405.303 334.605Z" fill="#FAFAFA"/>
<path d="M47.4557 316.039L30.8723 355.464L19.1909 355.359L24.3015 316.039H47.4557Z" fill="#251A51"/>
<path d="M111.182 316.143L94.8071 355.359L83.1257 355.255L88.2363 316.039L111.182 316.143Z" fill="#251A51"/>
<path d="M20.1298 79.5953C26.5962 69.9998 153.423 68.5397 158.846 78.5523L205.259 166.684L275.034 163.451C275.034 163.451 284.421 163.034 293.6 171.795C298.084 176.071 297.876 203.397 296.624 213.931C295.79 220.919 285.047 316.456 285.047 316.456L22.32 315.935C22.32 316.039 13.6633 89.1907 20.1298 79.5953Z" fill="#F4D532"/>
<path d="M96.7888 318.438C96.7888 318.438 96.7888 318.125 96.7888 317.604C96.7888 316.978 96.7888 316.248 96.8931 315.1C96.9974 312.91 96.9974 309.781 97.1017 305.714C97.3103 297.474 97.5189 285.688 97.8318 271.295L97.6232 271.504C119.109 271.608 147.061 271.817 177.411 272.025C209.118 272.234 238.217 272.338 260.12 272.442L259.911 272.234C262.206 285.688 261.893 296.848 261.371 304.462C261.058 308.321 260.746 311.241 260.433 313.223C260.328 314.162 260.224 314.996 260.12 315.518C260.015 316.039 260.015 316.248 260.015 316.248C260.015 316.248 260.954 312.076 261.58 304.462C262.206 296.848 262.519 285.688 260.328 272.13V271.921H260.12C238.217 271.712 209.222 271.504 177.411 271.295C147.061 271.087 119.109 270.982 97.6232 270.878H97.4146V271.087C97.206 285.584 96.9974 297.37 96.8931 305.505C96.8931 309.573 96.7888 312.806 96.7888 314.892C96.7888 315.935 96.7888 316.769 96.7888 317.395C96.7888 318.229 96.7888 318.438 96.7888 318.438Z" fill="#251A51"/>
<path d="M104.82 170.647C104.82 170.647 104.611 170.647 104.298 170.647C103.985 170.647 103.464 170.647 102.734 170.752C101.378 170.856 99.292 171.377 96.8931 172.525C94.4943 173.776 91.8868 175.862 89.5923 178.991C87.2977 182.12 85.5246 186.292 84.586 191.194C83.6473 196.096 83.543 201.52 83.543 207.465C83.543 213.41 83.7516 219.772 84.1688 226.447C84.8988 240.006 86.6719 255.025 88.445 271.295V271.504H88.6536C109.096 271.608 131.52 271.817 155.092 271.921C201.713 272.234 244.162 272.442 275.556 272.651H275.764V272.442C276.286 263.577 275.764 255.442 274.617 248.454C273.366 241.466 271.28 235.625 268.359 231.558C266.899 229.472 265.335 227.907 263.666 226.864C263.457 226.76 263.249 226.551 263.04 226.447C262.832 226.343 262.623 226.238 262.414 226.134C261.997 225.925 261.684 225.717 261.267 225.508C260.537 225.195 259.807 224.987 259.181 224.778C258.555 224.674 257.929 224.57 257.512 224.465C256.991 224.361 256.574 224.361 256.261 224.361C255.635 224.361 255.218 224.257 255.218 224.257C255.218 224.257 255.531 224.257 256.261 224.361C256.574 224.361 256.991 224.465 257.512 224.465C258.034 224.57 258.555 224.674 259.181 224.882C259.807 225.091 260.433 225.3 261.267 225.613C261.58 225.821 261.997 226.03 262.414 226.238C262.623 226.343 262.832 226.447 263.04 226.551C263.249 226.656 263.457 226.864 263.562 226.968C265.126 228.011 266.691 229.576 268.151 231.662C270.967 235.729 273.053 241.57 274.2 248.558C275.347 255.546 275.869 263.577 275.243 272.442L275.452 272.234C244.058 272.025 201.608 271.712 154.987 271.399C131.416 271.295 108.992 271.087 88.5493 270.982L88.7579 271.191C86.8805 254.92 85.2117 239.901 84.3774 226.343C83.9602 219.563 83.7516 213.201 83.7516 207.36C83.7516 201.52 83.8559 195.992 84.7946 191.194C85.6289 186.396 87.402 182.225 89.6966 179.096C91.9911 175.967 94.5986 173.881 96.8931 172.629C99.292 171.378 101.274 170.856 102.63 170.752C104.09 170.543 104.82 170.647 104.82 170.647Z" fill="#251A51"/>
<path d="M281.188 316.561L284.943 355.36L273.261 355.255L258.555 316.457L281.188 316.561Z" fill="#251A51"/>
<path d="M259.286 224.883C259.286 224.883 258.868 224.883 258.138 224.778C257.304 224.674 256.261 224.466 255.009 224.257C252.402 223.84 248.751 223.214 244.684 222.692C240.616 222.275 236.966 222.171 234.254 222.171C233.002 222.171 231.959 222.171 231.125 222.171C230.395 222.171 229.978 222.171 229.978 222.171C229.978 222.171 230.395 222.067 231.125 221.962C231.855 221.858 233.002 221.858 234.254 221.754C236.966 221.649 240.72 221.649 244.788 222.067C248.856 222.484 252.506 223.214 255.114 223.735C256.47 224.048 257.513 224.257 258.243 224.466C258.868 224.778 259.286 224.883 259.286 224.883Z" fill="#251A51"/>
<path d="M277.851 163.66C277.851 163.66 277.016 164.077 275.556 164.911C274.096 165.746 272.01 167.102 269.82 169.187C267.525 171.273 265.231 174.089 263.249 177.531C261.163 180.973 259.494 185.041 258.347 189.526C256.157 198.6 256.261 207.048 256.365 213.097C256.47 216.122 256.574 218.625 256.678 220.294C256.678 221.128 256.782 221.754 256.782 222.275C256.782 222.692 256.782 223.005 256.782 223.005C256.782 223.005 256.782 222.797 256.678 222.275C256.678 221.754 256.574 221.128 256.47 220.294C256.365 218.625 256.157 216.122 256.052 213.097C255.948 210.072 255.844 206.422 256.052 202.354C256.261 198.287 256.782 193.906 257.825 189.317C258.973 184.728 260.746 180.66 262.832 177.114C264.918 173.672 267.317 170.856 269.611 168.77C271.906 166.684 273.992 165.433 275.556 164.598C276.286 164.181 276.912 163.973 277.329 163.764C277.538 163.764 277.746 163.66 277.851 163.66Z" fill="#251A51"/>
<g opacity="0.3">
<g opacity="0.3">
<path opacity="0.3" d="M140.49 236.668C148.416 238.546 156.552 239.38 164.687 239.067C165.313 264.412 167.503 289.756 171.258 314.892C173.239 315.831 175.43 316.665 177.62 316.769C179.81 316.874 182.209 315.831 183.148 313.745C183.669 312.493 183.669 311.137 183.565 309.886C182.522 284.646 179.914 259.405 175.742 234.478C175.43 232.601 175.012 230.619 173.448 229.576C171.988 228.533 170.006 228.846 168.233 229.159C158.429 231.036 148.729 233.227 139.134 235.938" fill="black"/>
</g>
</g>
<g opacity="0.3">
<path opacity="0.3" d="M128.913 234.583L131.312 269.314C131.312 269.314 139.551 250.54 137.465 243.344C135.379 236.147 128.913 234.583 128.913 234.583Z" fill="black"/>
</g>
<path d="M126.827 96.4916C125.992 69.1655 125.158 41.7351 124.428 14.4089L121.82 9.71552C119.526 7.62955 115.667 8.04675 113.164 9.81981C110.66 11.5929 109.2 14.6175 108.157 17.5379C103.255 31.6181 107.114 47.1586 106.071 62.0732C105.863 65.3064 105.341 68.644 103.464 71.3557C100.961 74.9019 96.163 76.6749 94.1813 80.6383C92.4083 84.1844 93.7641 88.9821 97.1017 91.1724C94.7028 92.5283 92.1997 93.9884 90.6352 96.283C89.0707 98.5776 88.6535 101.915 90.3223 104.001C92.1997 106.296 95.7458 106.296 98.6661 106.087C107.114 105.357 115.458 103.688 123.593 101.185C124.636 100.872 125.679 100.455 126.305 99.6205C126.827 98.6819 126.827 97.5346 126.827 96.4916Z" fill="#251A51"/>
<path d="M109.409 82.4114C109.409 82.3071 110.452 82.2028 111.703 80.847C112.955 79.4911 113.894 76.9879 114.102 73.7547C114.519 67.2882 114.728 58.3185 113.998 48.5145C113.581 43.6125 113.059 38.9191 112.329 34.6429C111.599 30.4709 111.286 26.4033 112.225 23.2744C113.059 20.0411 114.936 17.9552 116.501 16.9122C117.231 16.3907 117.961 16.1821 118.378 15.9735C118.796 15.8692 119.108 15.7649 119.108 15.7649C119.108 15.8692 118.065 15.9735 116.605 17.0165C115.145 18.0595 113.372 20.1454 112.642 23.2744C111.808 26.4033 112.225 30.2623 112.851 34.4343C113.581 38.7105 114.102 43.4039 114.519 48.3059C115.249 58.2142 115.041 67.1839 114.519 73.6504C114.206 76.8836 113.163 79.4911 111.912 80.847C111.286 81.4727 110.66 81.8899 110.139 82.0985C109.617 82.3071 109.409 82.4114 109.409 82.4114Z" fill="#F4D532"/>
<path d="M128.078 14.0961C127.765 15.2434 128.6 13.0531 128.078 14.0961V14.0961Z" fill="#E3707F"/>
<path d="M127.139 9.50689C126.201 8.46391 124.741 8.8811 123.593 9.71549C121.716 11.0714 120.36 13.2616 119.421 15.6605C118.483 18.0593 118.065 20.7711 117.753 23.3785C117.544 24.943 117.544 26.7161 118.587 27.6548C119.317 28.2806 120.256 28.1763 121.09 27.6548C121.82 27.1333 122.446 26.1946 122.967 25.3602C125.053 21.9184 126.722 18.1636 128.078 14.096C128.287 12.9487 127.869 10.237 127.139 9.50689Z" fill="#E3707F"/>
<path d="M119.421 29.9495C121.507 21.0842 125.261 11.9059 132.666 6.58673C139.237 1.78901 148.833 -0.0883576 156.968 0.537432C160.931 0.850326 165.416 2.83199 168.858 4.91795C173.551 7.73401 175.429 13.3661 177.515 18.3724C181.791 28.4893 180.748 42.0481 177.515 45.6985L135.065 66.3496C127.764 62.282 119.942 56.7541 118.273 48.6189C117.022 43.0911 118.065 35.4773 119.421 29.9495Z" fill="#251A51"/>
<path d="M135.483 14.2006L161.975 7.31691C170.528 6.37823 176.264 16.808 176.785 25.3605C177.411 34.8516 177.933 46.4287 176.785 53.521C174.7 67.8099 163.748 71.1474 163.748 71.1474C163.748 71.1474 163.748 83.5589 163.644 87.7308L151.232 125.487L133.606 87.7308L130.894 19.3112C130.999 16.7037 132.876 14.5135 135.483 14.2006Z" fill="#FFBE9D"/>
<path d="M172.092 36.8331C172.092 37.7718 171.362 38.6061 170.319 38.7104C169.276 38.8147 168.442 38.0847 168.442 37.0417C168.442 36.103 169.172 35.2686 170.215 35.1643C171.258 35.1643 172.092 35.8944 172.092 36.8331Z" fill="#251A51"/>
<path d="M174.386 31.4096C174.178 31.6182 172.822 30.6796 170.84 30.6796C168.859 30.6796 167.399 31.7225 167.19 31.4096C167.086 31.3053 167.294 30.8882 167.92 30.3667C168.546 29.9495 169.589 29.428 170.84 29.428C172.092 29.428 173.135 29.8452 173.656 30.3667C174.282 30.8882 174.491 31.3053 174.386 31.4096Z" fill="#251A51"/>
<path d="M154.257 36.8331C154.257 37.7718 153.527 38.6061 152.484 38.7104C151.441 38.8147 150.607 38.0847 150.607 37.0417C150.607 36.103 151.337 35.2686 152.38 35.1643C153.423 35.1643 154.257 35.8944 154.257 36.8331Z" fill="#251A51"/>
<path d="M155.091 31.9311C154.883 32.1397 153.423 31.201 151.545 31.201C149.564 31.201 148.103 32.244 147.895 31.9311C147.79 31.8268 147.999 31.4096 148.625 30.8881C149.251 30.471 150.294 29.9495 151.545 29.9495C152.797 29.9495 153.84 30.3667 154.361 30.8881C154.987 31.3053 155.196 31.8268 155.091 31.9311Z" fill="#251A51"/>
<path d="M162.288 46.4287C162.288 46.3244 163.539 46.1158 165.521 45.8029C166.043 45.6986 166.46 45.5943 166.564 45.2814C166.668 44.9685 166.46 44.3427 166.251 43.8212C165.73 42.5697 165.313 41.3181 164.791 39.9622C162.705 34.5387 161.141 30.0539 161.349 29.9496C161.558 29.8453 163.435 34.2258 165.521 39.6493C166.043 41.0052 166.46 42.2568 166.981 43.5083C167.19 44.0298 167.503 44.7599 167.294 45.49C167.19 45.9072 166.773 46.1158 166.46 46.2201C166.147 46.3244 165.834 46.3244 165.625 46.3244C163.54 46.533 162.288 46.533 162.288 46.4287Z" fill="#251A51"/>
<path d="M163.852 71.2517L163.748 74.7978C149.459 76.258 144.766 66.2454 144.766 66.2454C154.257 71.9818 163.852 71.2517 163.852 71.2517Z" fill="#EB996E"/>
<path d="M155.822 50.079C156.343 49.1403 157.386 48.7231 158.429 48.6188C159.889 48.5145 161.245 49.036 162.184 50.4962C162.497 50.9134 162.497 52.0607 162.392 52.3736C162.288 52.6864 162.392 52.5821 162.079 52.7907C161.245 53.6251 160.306 54.3552 159.159 54.6681C158.012 54.981 156.656 54.5638 155.926 53.5208C155.3 52.3736 155.3 51.0177 155.822 50.079Z" fill="#EB996E"/>
<path d="M156.552 47.7847C156.864 47.7847 156.864 49.8706 158.742 51.4351C160.619 52.8953 162.809 52.6867 162.914 52.9996C162.914 53.1039 162.392 53.4168 161.454 53.4168C160.515 53.4168 159.159 53.2082 158.012 52.2695C156.864 51.3308 156.447 50.0792 156.343 49.2448C156.134 48.3062 156.343 47.7847 156.552 47.7847Z" fill="#251A51"/>
<path d="M155.926 25.5691C155.717 26.0905 153.736 25.882 151.441 26.1948C149.147 26.4034 147.269 27.1335 146.956 26.612C146.852 26.4034 147.165 25.882 147.895 25.3605C148.625 24.839 149.772 24.3175 151.233 24.2132C152.588 24.0046 153.84 24.2132 154.779 24.6304C155.613 24.9433 156.03 25.3605 155.926 25.5691Z" fill="#251A51"/>
<path d="M173.656 24.6303C173.344 25.0475 171.988 24.6303 170.319 24.6303C168.65 24.5261 167.294 24.9432 166.981 24.526C166.877 24.3175 167.086 23.9003 167.607 23.3788C168.233 22.9616 169.172 22.6487 170.319 22.6487C171.466 22.6487 172.405 23.0659 173.031 23.4831C173.552 23.9003 173.761 24.4218 173.656 24.6303Z" fill="#251A51"/>
<path d="M134.858 36.6247C134.649 36.5204 126.931 34.1216 127.035 42.0482C127.14 49.9749 135.066 48.3061 135.066 48.0975C135.066 47.8889 134.858 36.6247 134.858 36.6247Z" fill="#FFBE9D"/>
<path d="M132.563 45.0728C132.563 45.0728 132.459 45.1771 132.146 45.2814C131.937 45.3857 131.52 45.49 131.103 45.2814C130.268 44.9685 129.538 43.6126 129.538 42.2567C129.538 41.5266 129.643 40.7966 129.956 40.2751C130.164 39.6493 130.581 39.2321 130.998 39.2321C131.416 39.1278 131.729 39.3364 131.833 39.6493C131.937 39.8579 131.937 40.0665 131.937 40.0665C131.937 40.0665 132.146 39.9622 132.041 39.6493C132.041 39.4407 131.937 39.3364 131.729 39.1278C131.52 39.0235 131.207 38.9192 130.998 38.9192C130.373 38.9192 129.851 39.545 129.538 40.1708C129.225 40.7966 129.017 41.5266 129.121 42.361C129.225 43.9255 130.06 45.49 131.207 45.8029C131.729 45.9072 132.25 45.8029 132.459 45.5943C132.563 45.2814 132.667 45.0728 132.563 45.0728Z" fill="#EB996E"/>
<path d="M129.955 47.6803C129.955 47.6803 129.643 47.9932 129.643 48.7233C129.643 49.0362 129.747 49.5577 130.164 49.8705C130.581 50.1834 131.207 50.1834 131.729 49.9748C132.25 49.7662 132.667 49.3491 132.772 48.8276C132.876 48.3061 132.772 47.8889 132.563 47.576C132.146 46.9502 131.624 46.9502 131.624 46.9502C131.624 47.0545 132.041 47.1588 132.25 47.6803C132.354 47.9932 132.459 48.3061 132.354 48.7233C132.25 49.0362 131.937 49.3491 131.52 49.5576C131.103 49.7662 130.686 49.6619 130.373 49.5576C130.06 49.3491 129.955 49.0362 129.851 48.7233C129.851 48.0975 130.06 47.7846 129.955 47.6803Z" fill="#ECF1FE"/>
<path d="M177.515 27.5507C176.472 25.2561 174.386 23.5874 172.196 22.3358C170.006 21.0842 167.607 20.1455 165.417 18.8939C160.41 15.9736 156.447 11.0716 154.778 5.54378C158.742 3.56211 163.539 3.77071 167.503 5.75237C171.466 7.73404 174.491 11.2802 176.264 15.2435C178.037 19.2068 178.767 23.6917 178.663 28.0722" fill="#251A51"/>
<path d="M133.085 12.1146C138.925 6.48249 150.085 3.45784 157.699 6.0653C156.552 12.7404 151.545 20.2499 147.06 25.3605C142.576 30.5754 139.864 39.545 130.164 36.5204C129.538 36.3118 128.704 36.9376 128.078 36.5204C127.557 36.2075 127.348 35.5817 127.14 35.0602C124.636 27.1335 127.035 17.851 133.085 12.1146Z" fill="#251A51"/>
<path d="M129.643 10.7588C129.643 10.7588 129.643 10.8631 129.851 11.0717C129.955 11.2803 130.164 11.4889 130.373 11.8017C130.894 12.4275 131.624 13.2619 132.772 14.0963C133.919 14.9307 135.379 15.7651 137.152 16.3909C138.925 17.0167 141.011 17.3295 143.097 17.2253C145.287 17.121 147.269 16.4952 148.938 15.6608C150.607 14.8264 151.962 13.8877 153.005 12.8447C154.048 11.906 154.778 10.9674 155.196 10.3416C155.404 10.0287 155.509 9.71578 155.613 9.61148C155.717 9.40289 155.717 9.29859 155.717 9.29859C155.613 9.19429 154.883 10.8631 152.797 12.6361C151.754 13.5748 150.398 14.5135 148.729 15.3479C147.06 16.078 145.079 16.7038 142.993 16.8081C140.907 16.9124 138.925 16.5995 137.152 15.9737C135.379 15.3479 133.919 14.6178 132.876 13.7834C130.686 12.2189 129.747 10.7588 129.643 10.7588Z" fill="white"/>
<path d="M125.888 21.6057C125.888 21.6057 125.992 21.71 126.201 21.9186C126.409 22.1272 126.618 22.3357 127.035 22.6486C127.765 23.2744 129.017 23.9002 130.581 24.526C132.146 25.0475 134.232 25.4647 136.422 25.3604C138.717 25.2561 141.115 24.7346 143.41 23.5873C145.705 22.44 147.686 20.8756 149.251 19.3111C150.815 17.7466 152.067 16.1822 153.005 14.722C153.944 13.3661 154.674 12.1145 155.091 11.2801C155.3 10.8629 155.509 10.5501 155.613 10.3415C155.717 10.1329 155.822 10.0286 155.717 10.0286C155.717 10.0286 155.613 10.1329 155.509 10.3415C155.404 10.5501 155.196 10.8629 154.987 11.2801C154.466 12.1145 153.84 13.2618 152.797 14.6177C151.858 15.9736 150.607 17.538 149.042 19.1025C147.478 20.667 145.496 22.1272 143.201 23.2744C140.907 24.4217 138.508 24.9432 136.318 25.0475C134.127 25.1518 132.146 24.8389 130.581 24.3174C129.017 23.7959 127.765 23.1701 127.035 22.5443C126.305 21.9186 125.888 21.6057 125.888 21.6057Z" fill="#F4D532"/>
<path d="M132.876 65.098C132.876 65.098 132.772 65.098 132.459 64.8894C132.146 64.7851 131.833 64.5765 131.311 64.2636C130.373 63.6378 128.913 62.6991 127.348 61.4476C125.784 60.0917 124.011 58.3186 122.446 56.1284C120.882 53.8338 119.526 51.122 118.691 48.0974C116.918 41.9438 117.335 36.1031 118.274 32.1398C118.796 30.1581 119.317 28.5936 119.839 27.4464C120.047 26.9249 120.256 26.5077 120.36 26.1948C120.464 25.8819 120.569 25.7776 120.569 25.7776C120.569 25.7776 120.36 26.4034 119.943 27.4464C119.526 28.4893 119.004 30.0538 118.587 32.1398C117.753 36.1031 117.335 41.9438 119.109 47.8888C119.943 50.9134 121.299 53.5209 122.759 55.8155C124.323 58.0057 125.992 59.7788 127.452 61.1347C129.017 62.4905 130.373 63.4292 131.311 64.1593C132.354 64.6808 132.876 65.098 132.876 65.098Z" fill="#F4D532"/>
<path d="M248.647 265.559L261.893 289.652C261.893 289.652 289.845 282.56 292.765 286.732L247.917 315.831L225.701 279.118L248.647 265.559Z" fill="#E3707F"/>
<g opacity="0.6">
<g opacity="0.6">
<g opacity="0.6">
<g opacity="0.6">
<g opacity="0.6">
<path opacity="0.6" d="M246.561 296.223C245.831 296.953 245.831 298.413 246.561 299.143C247.291 299.873 248.647 299.978 249.481 299.143C250.211 298.413 250.315 296.744 249.481 296.014C248.647 295.284 246.978 295.388 246.456 296.327" fill="white"/>
</g>
</g>
</g>
</g>
</g>
<g opacity="0.6">
<g opacity="0.6">
<g opacity="0.6">
<g opacity="0.6">
<path opacity="0.6" d="M247.917 315.935L245.727 312.181L289.949 285.585C289.949 285.585 291.826 285.272 293.182 286.94L247.917 315.935Z" fill="white"/>
</g>
</g>
</g>
</g>
<path d="M262.518 289.026C262.623 289.235 261.58 290.069 260.954 291.425C260.224 292.781 260.224 294.137 260.015 294.137C259.807 294.241 259.285 292.677 260.119 291.008C260.954 289.339 262.518 288.714 262.518 289.026Z" fill="#251A51"/>
<path d="M268.568 288.088C268.776 288.296 268.046 289.235 267.838 290.591C267.629 291.947 268.046 293.094 267.838 293.303C267.629 293.511 266.69 292.26 267.003 290.487C267.108 288.818 268.463 287.879 268.568 288.088Z" fill="#251A51"/>
<path d="M274.721 292.26C274.512 292.468 273.574 291.53 273.365 289.965C273.157 288.401 273.991 287.253 274.2 287.358C274.408 287.462 274.2 288.505 274.304 289.861C274.408 291.112 274.93 292.051 274.721 292.26Z" fill="#251A51"/>
<path d="M258.868 283.812C258.868 284.02 257.721 284.333 256.469 285.272C255.218 286.106 254.487 287.149 254.279 286.941C254.07 286.836 254.487 285.48 255.948 284.437C257.408 283.499 258.868 283.603 258.868 283.812Z" fill="#251A51"/>
<g opacity="0.3">
<g opacity="0.3">
<g opacity="0.3">
<g opacity="0.3">
<path opacity="0.3" d="M251.254 270.357L253.653 274.633L231.02 287.879L228.726 284.124L251.254 270.357Z" fill="black"/>
</g>
</g>
</g>
</g>
<path d="M256.156 279.014C256.261 279.118 255.426 279.744 253.862 280.369C253.132 280.682 252.089 280.891 251.046 281.1C250.524 281.204 249.898 281.204 249.273 281.204C248.96 281.204 248.647 281.204 248.23 281.1C247.812 280.995 247.395 280.474 247.395 279.952C247.395 279.431 247.708 279.014 248.021 278.805C248.334 278.596 248.647 278.492 248.96 278.388C249.586 278.179 250.107 278.075 250.733 278.075C251.88 277.971 252.819 278.075 253.653 278.179C255.322 278.492 256.156 279.118 256.156 279.222C256.052 279.326 255.113 279.014 253.549 278.805C252.819 278.701 251.776 278.701 250.837 278.909C250.316 279.014 249.794 279.118 249.273 279.327C248.751 279.535 248.334 279.744 248.334 280.057C248.334 280.161 248.334 280.161 248.543 280.265C248.751 280.369 248.96 280.369 249.273 280.369C249.794 280.369 250.42 280.369 250.941 280.369C251.984 280.265 252.923 280.057 253.653 279.848C255.218 279.327 256.052 278.909 256.156 279.014Z" fill="#251A51"/>
<path d="M256.052 279.535C255.948 279.64 255.113 279.118 254.07 277.658C253.653 276.928 253.132 276.093 252.923 274.946C252.819 274.425 252.714 273.799 252.714 273.173C252.714 272.547 252.714 271.713 253.444 271.087C253.862 270.774 254.487 270.879 254.8 271.191C255.113 271.4 255.322 271.609 255.53 271.921C255.948 272.443 256.26 272.964 256.469 273.486C256.886 274.529 256.991 275.572 256.886 276.406C256.678 278.179 255.948 278.909 255.843 278.909C255.739 278.805 256.26 277.971 256.26 276.406C256.26 275.676 256.156 274.738 255.739 273.799C255.53 273.382 255.218 272.86 254.905 272.547C254.592 272.13 254.175 271.817 253.966 272.026C253.757 272.13 253.549 272.756 253.653 273.277C253.653 273.799 253.757 274.32 253.862 274.842C254.07 275.885 254.383 276.719 254.8 277.449C255.426 278.701 256.156 279.431 256.052 279.535Z" fill="#251A51"/>
<path d="M208.074 312.389L206.718 339.924C206.718 339.924 235.191 348.476 234.774 355.151L181.165 355.047L181.478 311.867L208.074 312.389Z" fill="#E3707F"/>
<g opacity="0.6">
<g opacity="0.6">
<g opacity="0.6">
<g opacity="0.6">
<g opacity="0.6">
<path opacity="0.6" d="M190.24 337.316C189.197 337.629 188.467 338.776 188.675 339.819C188.884 340.862 190.031 341.592 191.074 341.384C192.117 341.175 193.056 339.819 192.743 338.776C192.43 337.733 190.97 336.899 190.031 337.421" fill="white"/>
</g>
</g>
</g>
</g>
</g>
<g opacity="0.6">
<g opacity="0.6">
<g opacity="0.6">
<g opacity="0.6">
<path opacity="0.6" d="M181.062 355.047L180.957 350.562L232.168 351.084C232.168 351.084 234.671 352.857 234.671 355.047H181.062Z" fill="white"/>
</g>
</g>
</g>
</g>
<path d="M207.553 339.611C207.553 339.924 206.197 339.924 204.946 340.758C203.59 341.593 202.964 342.636 202.756 342.531C202.547 342.427 202.964 340.967 204.529 339.924C206.093 339.089 207.658 339.402 207.553 339.611Z" fill="#251A51"/>
<path d="M213.186 342.01C213.29 342.218 212.143 342.74 211.204 343.783C210.265 344.826 210.057 346.077 209.744 345.973C209.535 345.973 209.327 344.513 210.474 343.157C211.621 341.905 213.186 341.801 213.186 342.01Z" fill="#251A51"/>
<path d="M216.21 348.789C216.001 348.893 215.584 347.537 216.314 346.077C217.044 344.617 218.192 344.096 218.296 344.304C218.4 344.513 217.67 345.243 217.044 346.494C216.627 347.642 216.523 348.789 216.21 348.789Z" fill="#251A51"/>
<path d="M207.136 333.353C207.032 333.562 205.78 333.249 204.32 333.249C202.86 333.249 201.713 333.77 201.504 333.562C201.4 333.353 202.443 332.414 204.216 332.31C206.093 332.31 207.345 333.144 207.136 333.353Z" fill="#251A51"/>
<g opacity="0.3">
<g opacity="0.3">
<g opacity="0.3">
<g opacity="0.3">
<path opacity="0.3" d="M207.136 331.893L206.823 337.316L181.166 336.691V332.206L207.136 331.893Z" fill="black"/>
</g>
</g>
</g>
</g>
<path d="M207.345 327.825C207.345 327.93 206.302 328.034 204.633 327.825C203.798 327.721 202.86 327.408 201.817 326.887C201.295 326.678 200.774 326.365 200.252 326.052C200.044 325.844 199.731 325.739 199.418 325.426C199.105 325.114 199.001 324.488 199.314 324.071C199.627 323.653 200.044 323.445 200.461 323.445C200.878 323.445 201.191 323.549 201.504 323.549C202.13 323.653 202.651 323.862 203.173 324.175C204.216 324.696 205.05 325.218 205.572 325.844C206.823 326.991 207.24 328.034 207.136 328.034C207.032 328.138 206.406 327.304 205.154 326.365C204.529 325.844 203.694 325.426 202.756 325.009C202.234 324.801 201.817 324.592 201.191 324.488C200.67 324.384 200.148 324.279 200.044 324.592C199.939 324.696 199.939 324.696 200.148 324.905C200.252 325.009 200.461 325.218 200.774 325.322C201.191 325.635 201.713 325.948 202.13 326.157C203.068 326.678 203.903 326.991 204.737 327.2C206.406 327.512 207.345 327.617 207.345 327.825Z" fill="#251A51"/>
<path d="M207.032 328.138C206.928 328.138 206.406 327.199 206.406 325.531C206.406 324.696 206.51 323.653 206.823 322.61C207.032 322.089 207.24 321.567 207.553 321.046C207.866 320.524 208.283 319.794 209.326 319.69C209.848 319.69 210.265 320.107 210.474 320.42C210.682 320.733 210.682 321.046 210.787 321.359C210.891 321.985 210.891 322.61 210.787 323.132C210.578 324.279 210.161 325.218 209.639 325.844C208.596 327.199 207.449 327.512 207.449 327.408C207.345 327.304 208.283 326.782 209.118 325.426C209.535 324.801 209.848 323.966 209.952 322.923C210.056 322.402 210.056 321.88 209.952 321.359C209.848 320.837 209.639 320.316 209.431 320.42C209.118 320.42 208.701 320.837 208.492 321.254C208.179 321.776 207.97 322.193 207.762 322.715C207.449 323.653 207.24 324.592 207.24 325.426C206.927 327.095 207.136 328.138 207.032 328.138Z" fill="#251A51"/>
<path d="M130.268 77.4052L133.293 76.1536C132.354 74.6934 139.551 88.6694 149.251 88.7736C162.601 88.8779 163.957 75.6321 163.957 75.6321L164.687 75.7364L186.589 98.4734L189.51 162.095L187.111 170.231L140.072 187.335L123.697 154.69L122.237 134.561L130.268 77.4052Z" fill="#F5F5F5"/>
<path d="M131.728 76.7795C131.728 76.7795 105.028 82.8288 100.648 94.3016C98.7702 99.308 98.1444 180.556 98.1444 180.556C98.1444 180.556 94.8069 187.961 95.0155 203.293C95.2241 217.999 104.924 227.49 117.127 230.306C117.127 230.306 120.36 207.152 133.084 195.575C145.183 184.624 146.33 185.98 146.33 185.98L143.41 159.488L140.385 136.438C137.361 119.959 140.802 102.124 135.17 86.2707L131.728 76.7795Z" fill="#E3707F"/>
<path d="M188.154 92.9458L206.406 173.151L186.798 168.666L180.54 120.585L164.478 75.7366C164.478 75.7366 167.19 76.0495 170.632 76.6753C179.288 77.9268 186.172 84.3933 188.154 92.9458Z" fill="#E3707F"/>
<g opacity="0.3">
<g opacity="0.3">
<path opacity="0.3" d="M98.2487 194.324C98.1444 195.262 98.7702 196.201 99.5003 196.827C100.335 197.348 101.273 197.661 102.212 197.765C106.697 198.6 111.39 197.661 115.771 196.305C120.777 194.636 125.471 192.342 130.268 190.047C137.152 186.605 139.342 185.041 145.913 180.973C139.134 183.789 136.839 184.102 129.747 185.771C119.108 188.17 107.948 189.422 98.2487 194.532" fill="black"/>
</g>
</g>
<path d="M137.465 163.973L149.355 161.365C149.355 161.365 163.018 153.751 166.147 153.751C168.963 153.751 179.81 158.758 182 159.696C182.209 159.801 182.417 160.009 182.522 160.218C183.043 161.261 182.73 162.513 181.792 163.138L181.583 163.243L181.687 163.555C181.896 163.868 182 164.286 182 164.703C182.104 166.059 180.331 166.789 179.497 165.746L180.018 166.372C180.227 166.58 180.331 166.893 180.331 167.206L180.436 167.832C180.54 168.458 180.123 169.188 179.601 169.5C179.08 169.813 178.35 169.709 177.828 169.292C176.368 168.145 173.239 165.85 171.362 165.746C169.693 165.746 166.981 166.163 165.312 166.372C164.478 166.476 163.852 167.102 163.644 167.936C164.791 167.832 172.926 170.543 175.847 171.482C176.785 171.795 177.515 172.421 177.724 173.36C177.933 174.194 177.724 175.133 175.951 175.028C172.3 174.82 165.417 172.838 165.417 172.838C165.417 172.838 161.975 172.421 160.098 174.298C157.386 176.906 156.134 177.949 153.422 177.531C150.711 177.114 148.625 176.176 148.625 176.176L144.349 177.01L137.465 163.973Z" fill="#FFBE9D"/>
<path d="M162.601 161.782C162.601 161.887 163.539 161.365 165.312 160.948C166.981 160.531 169.38 160.322 171.987 160.948C174.595 161.574 176.577 162.93 177.932 163.973C179.288 165.12 179.914 165.954 179.914 165.954C179.914 165.954 179.81 165.746 179.497 165.329C179.184 164.911 178.767 164.39 178.037 163.868C176.785 162.721 174.699 161.365 172.092 160.739C169.484 160.114 166.981 160.322 165.312 160.739C164.478 160.948 163.852 161.157 163.331 161.365C162.809 161.678 162.601 161.782 162.601 161.782Z" fill="#EB996E"/>
<path d="M163.539 158.028C163.539 158.132 164.478 157.402 166.355 157.089C168.128 156.672 170.736 156.88 173.239 157.923C175.846 158.966 177.828 160.426 179.288 161.574C180.018 162.095 180.54 162.512 180.957 162.93C181.374 163.243 181.583 163.451 181.583 163.347C181.583 163.347 181.374 163.138 180.957 162.825C180.54 162.512 180.018 161.991 179.288 161.469C177.828 160.322 175.846 158.758 173.239 157.715C170.632 156.672 167.92 156.567 166.147 156.985C165.208 157.193 164.582 157.506 164.061 157.715C163.852 157.819 163.644 157.923 163.539 158.028C163.539 158.028 163.644 157.923 163.539 158.028Z" fill="#EB996E"/>
<path d="M116.71 96.7003L110.765 160.739H109.096L136.109 161.261L145.913 180.869C145.913 180.869 110.556 198.078 95.4328 193.385C77.4935 187.753 82.6041 167.727 82.7084 160.635C82.7084 159.383 92.8253 99.9335 102.525 90.9639C102.525 90.9639 115.354 91.9026 116.71 96.7003Z" fill="#E3707F"/>
<path d="M117.544 114.535C117.544 114.535 117.544 115.161 117.44 116.308C117.231 117.56 117.023 119.124 116.814 121.002C116.188 125.069 115.354 130.388 114.519 136.438C113.581 142.487 112.851 147.911 112.225 151.874C111.912 153.751 111.703 155.316 111.599 156.567C111.39 157.715 111.286 158.236 111.286 158.236C111.286 158.236 111.286 157.61 111.39 156.463C111.495 155.316 111.703 153.751 111.912 151.77C112.329 147.806 113.059 142.383 113.998 136.333C114.937 130.284 115.771 124.861 116.501 120.897C116.814 119.02 117.127 117.456 117.335 116.204C117.44 115.161 117.544 114.535 117.544 114.535Z" fill="#251A51"/>
<path d="M115.562 87.0005C115.562 87.0005 115.771 87.2091 116.084 87.6263C116.397 88.0435 116.814 88.7736 117.231 89.6079C117.648 90.4423 118.066 91.5896 118.483 92.8412C118.796 94.0928 119.108 95.4486 119.317 97.0131C119.63 100.038 119.526 102.75 119.317 104.627C119.108 106.609 118.9 107.756 118.9 107.756C118.796 107.756 118.9 106.504 119.004 104.627C119.108 102.645 119.108 100.038 118.796 97.1174C118.587 95.6572 118.378 94.3014 118.066 93.0498C117.753 91.7982 117.335 90.7552 117.023 89.8165C116.084 88.0435 115.458 87.0005 115.562 87.0005Z" fill="#251A51"/>
<path d="M95.3284 193.385C95.3284 193.385 95.4327 193.385 95.6413 193.385C95.8499 193.385 96.0585 193.489 96.3714 193.593C96.9971 193.802 98.0401 193.906 99.396 194.01C102.003 194.219 105.862 193.906 110.452 192.967C112.746 192.446 115.249 191.924 117.961 191.299C120.569 190.569 123.385 189.526 126.305 188.483C132.146 186.292 138.404 183.685 145.079 180.973C145.391 180.869 145.6 180.765 145.913 180.66L145.809 181.077C142.263 173.985 139.029 167.31 136.109 161.469L136.318 161.574C131.937 161.574 127.974 161.261 124.428 161.156C120.881 161.052 117.752 160.948 115.249 160.948C112.642 160.948 110.66 161.052 109.304 161.261C107.948 161.365 107.218 161.574 107.218 161.469C107.218 161.469 107.427 161.365 107.74 161.365C108.053 161.261 108.574 161.156 109.304 161.052C110.66 160.844 112.746 160.739 115.249 160.635C117.857 160.531 120.881 160.635 124.428 160.739C127.974 160.844 131.937 161.052 136.318 161.052H136.422L136.526 161.156C139.446 166.997 142.784 173.672 146.33 180.765L146.434 181.077L146.122 181.182C145.809 181.286 145.6 181.39 145.287 181.495C138.716 184.311 132.354 186.814 126.514 189.004C123.593 190.047 120.777 191.09 118.065 191.82C115.354 192.446 112.85 192.967 110.556 193.385C105.967 194.323 102.108 194.532 99.5003 194.323C96.6842 194.01 95.3284 193.385 95.3284 193.385Z" fill="#251A51"/>
<path d="M113.998 160.948C113.893 161.052 113.372 160.322 112.12 159.592C110.869 158.862 109.096 158.028 106.905 157.715C104.715 157.402 102.734 157.506 101.273 157.506C99.8132 157.61 98.8745 157.61 98.8745 157.506C98.8745 157.402 99.7089 157.297 101.169 157.089C102.629 156.985 104.715 156.776 106.905 157.089C109.2 157.402 111.077 158.236 112.329 159.175C113.476 160.113 113.998 160.844 113.998 160.948Z" fill="#251A51"/>
<g opacity="0.3">
<g opacity="0.3">
<path opacity="0.3" d="M113.476 160.843C109.617 160.218 105.654 160.531 102.004 161.678C99.7091 162.408 97.4145 163.451 96.1629 165.433C95.7457 166.058 95.5371 166.997 96.0586 167.519C96.5801 167.936 97.3102 167.831 97.936 167.519C99.2919 166.997 100.335 165.954 101.482 165.12C103.255 163.764 105.237 162.512 107.427 161.678C109.617 160.843 111.912 160.426 114.207 160.843" fill="black"/>
</g>
</g>
<g opacity="0.3">
<g opacity="0.3">
<path opacity="0.3" d="M112.329 159.488C111.495 157.193 108.574 155.107 106.697 154.482C102.316 153.021 97.3101 152.396 93.4511 154.899C93.0339 155.212 92.6167 155.525 92.6167 156.046C92.6167 156.776 93.3468 157.193 93.9726 157.298C96.6843 158.028 99.6047 157.61 102.421 157.298C105.237 156.985 108.261 156.985 110.765 158.445" fill="black"/>
</g>
</g>
<g opacity="0.3">
<g opacity="0.3">
<path opacity="0.3" d="M111.39 156.672C117.022 145.199 119.526 130.18 117.231 116.83L111.39 156.672Z" fill="black"/>
</g>
</g>
<path d="M117.022 230.306C117.022 230.306 126.722 236.668 145.913 236.668C165.104 236.668 169.484 235.313 169.484 235.313L187.424 219.042L226.848 288.087C226.848 288.087 258.138 268.688 258.346 269.314C258.764 269.731 229.143 203.919 222.676 192.55C220.59 188.9 218.609 186.188 215.376 181.912C208.805 173.359 197.853 169.5 187.424 171.691C182.104 172.838 176.264 174.402 171.049 176.28C156.76 181.495 144.557 185.041 134.232 194.219C122.237 204.858 114.936 225.404 117.022 230.306Z" fill="#251A51"/>
<path d="M182.939 211.115C182.939 211.115 168.754 220.92 169.171 228.846C169.484 235.417 178.245 332.414 178.245 332.414L213.185 331.788L215.584 268.271L182.939 211.115Z" fill="#251A51"/>
<path d="M218.296 273.173C218.296 273.173 218.192 273.069 218.087 272.964C217.983 272.756 217.879 272.547 217.67 272.234C217.253 271.608 216.731 270.67 216.106 269.418C214.75 266.915 212.872 263.473 210.473 259.197C205.78 250.54 199.209 238.546 192.013 225.3C189.405 220.607 187.006 216.017 184.712 211.741L185.025 211.846C179.393 212.576 174.908 215.913 172.405 219.876C171.153 221.858 170.423 223.944 170.006 225.926C169.589 227.907 169.589 229.889 169.589 231.558C169.693 235 170.006 237.816 170.11 239.693C170.11 240.632 170.214 241.362 170.214 241.883C170.214 242.405 170.214 242.613 170.214 242.613C170.214 242.613 170.214 242.405 170.11 241.883C170.11 241.362 170.006 240.632 169.901 239.693C169.797 237.816 169.38 235.104 169.276 231.558C169.171 229.785 169.276 227.907 169.589 225.821C169.901 223.736 170.736 221.545 171.987 219.564C174.491 215.496 179.184 211.95 184.92 211.22H185.129L185.233 211.428C187.528 215.705 190.031 220.189 192.638 224.987C199.835 238.233 206.302 250.227 210.995 258.884C213.29 263.16 215.167 266.706 216.523 269.21C217.149 270.357 217.67 271.295 217.983 272.026C218.087 272.338 218.296 272.547 218.4 272.756C218.296 273.069 218.4 273.173 218.296 273.173Z" fill="#F4D532"/>
<path d="M189.197 197.87C189.301 197.974 186.694 200.477 185.442 204.649C184.191 208.821 184.921 212.367 184.712 212.367C184.608 212.367 184.399 211.533 184.191 210.073C184.086 208.612 184.191 206.631 184.816 204.545C185.442 202.459 186.485 200.686 187.424 199.538C188.362 198.391 189.093 197.87 189.197 197.87Z" fill="#F4D532"/>
<path d="M181.791 195.158C181.896 195.158 181.583 196.201 181.374 197.765C181.166 199.33 181.061 201.624 181.583 204.023C182 206.422 182.939 208.508 183.669 209.968C184.399 211.428 185.025 212.158 185.025 212.263C185.025 212.263 184.295 211.533 183.356 210.177C182.521 208.821 181.478 206.631 181.061 204.232C180.644 201.728 180.748 199.434 181.061 197.765C181.374 196.096 181.791 195.158 181.791 195.158Z" fill="#F4D532"/>
<path d="M154.57 150.623C154.465 150.518 155.508 149.371 156.864 147.181C157.594 146.033 158.22 144.678 158.95 143.113C159.576 141.549 160.202 139.776 160.723 137.794C161.14 135.917 161.349 134.039 161.453 132.266C161.558 130.597 161.453 129.033 161.349 127.781C161.14 125.174 160.723 123.609 160.828 123.609C160.828 123.609 161.036 124.027 161.14 124.652C161.245 124.965 161.349 125.487 161.453 125.904C161.558 126.425 161.662 126.947 161.766 127.677C161.975 128.929 162.079 130.493 161.975 132.266C161.871 134.039 161.662 135.917 161.245 137.898C160.828 139.88 160.097 141.653 159.472 143.217C158.742 144.782 158.012 146.138 157.281 147.285C156.969 147.807 156.551 148.328 156.238 148.745C155.926 149.162 155.613 149.475 155.404 149.788C154.883 150.414 154.674 150.727 154.57 150.623Z" fill="#251A51"/>
<path d="M186.694 88.6694C186.694 88.6694 224.554 153.647 225.388 158.653C226.014 162.408 224.867 172.942 221.425 174.298C211.934 178.157 200.983 173.672 190.97 166.789L189.51 165.746L186.694 88.6694Z" fill="#E3707F"/>
<path d="M20.1296 79.5957C20.1296 79.5957 26.0746 76.1538 27.4305 85.7493C28.8906 95.3447 38.5904 165.746 38.5904 165.746L99.0833 165.224C99.0833 165.224 111.912 164.703 120.569 190.778C126.618 209.03 132.876 271.087 132.876 271.087L131.729 316.04H22.2156C22.2156 316.04 18.878 221.858 18.2522 180.035C17.6264 138.211 16.5835 92.4244 20.1296 79.5957Z" fill="#F4D532"/>
<path d="M25.5532 78.97C25.5532 78.97 25.6575 79.0743 25.8661 79.2829C26.0747 79.4915 26.3876 79.8044 26.8048 80.2215C27.5349 81.0559 28.4736 82.6204 28.6822 84.8107C29.2037 89.1912 29.9337 95.5534 30.8724 103.376C32.8541 119.125 35.5658 141.132 38.5905 165.85V166.059H38.7991C42.8667 165.955 47.1429 165.85 51.4192 165.746C65.0822 165.537 78.1195 165.433 89.9052 165.746C92.8255 165.85 95.7459 165.955 98.5619 166.163C99.292 166.268 99.9178 166.268 100.648 166.372C101.378 166.476 102.004 166.58 102.63 166.685C103.985 166.789 105.133 167.311 106.28 168.041C108.366 169.605 110.035 171.587 111.391 173.673C112.851 175.654 113.998 177.74 115.041 179.722C119.317 187.753 121.82 194.741 123.281 199.643C124.011 202.042 124.428 204.023 124.636 205.379C124.741 206.005 124.741 206.527 124.845 206.944C124.845 207.257 124.845 207.465 124.845 207.465C124.845 207.465 124.845 207.257 124.845 206.944C124.845 206.631 124.845 206.109 124.741 205.379C124.532 204.023 124.115 202.042 123.489 199.643C122.759 197.14 121.82 194.219 120.465 190.778C119.109 187.44 117.544 183.581 115.354 179.513C114.311 177.532 113.059 175.446 111.704 173.36C110.243 171.274 108.679 169.292 106.489 167.623L105.654 167.102C105.341 166.893 105.028 166.789 104.716 166.685C104.403 166.58 104.09 166.476 103.673 166.372C103.36 166.268 103.047 166.268 102.63 166.163C102.004 166.059 101.274 165.955 100.544 165.85C99.8135 165.746 99.1877 165.746 98.4576 165.642C95.6416 165.433 92.7212 165.329 89.8009 165.225C78.0152 164.807 64.9779 164.912 51.3149 165.12C47.0386 165.225 42.7624 165.329 38.6948 165.433L39.0077 165.642C35.8787 140.819 33.0627 118.916 31.081 103.167C30.2466 95.3448 29.4123 89.0869 28.8908 84.7064C28.6822 82.5161 27.6392 80.9516 26.9091 80.1172C26.179 79.2829 25.5532 78.97 25.5532 78.97Z" fill="#251A51"/>
<path d="M104.82 170.648C104.82 170.648 104.715 170.648 104.403 170.752C104.09 170.752 103.777 170.857 103.255 170.961C102.212 171.169 100.752 171.587 98.979 172.317C97.2059 173.047 95.0157 174.298 92.9297 176.071C91.7824 176.906 90.8437 178.053 89.8008 179.305C89.3836 179.931 88.8621 180.661 88.4449 181.286C88.3406 181.495 88.2363 181.599 88.132 181.808L87.8191 182.329C87.6105 182.747 87.4019 183.059 87.1933 183.477C86.9847 183.894 86.7761 184.311 86.5675 184.624C86.3589 185.041 86.2546 185.458 86.046 185.876C85.7331 186.71 85.4202 187.649 85.1073 188.483C84.6901 190.36 84.1687 192.238 83.9601 194.324C83.8558 195.367 83.7515 196.41 83.6472 197.453C83.6472 198.496 83.6472 199.643 83.6472 200.686C83.5429 202.876 83.7515 205.171 83.8558 207.465C84.273 216.748 84.8987 226.969 85.7331 237.712C86.6718 249.81 87.7148 261.283 88.7578 271.296L88.5492 271.087C101.691 271.191 112.746 271.296 120.464 271.4C124.323 271.4 127.348 271.504 129.538 271.504C130.581 271.504 131.311 271.504 131.937 271.504C132.146 271.504 132.354 271.504 132.563 271.504C132.667 271.504 132.772 271.504 132.772 271.504C132.772 271.504 132.667 271.504 132.563 271.504C132.354 271.504 132.25 271.504 131.937 271.504C131.416 271.504 130.581 271.504 129.538 271.504C127.452 271.504 124.323 271.504 120.464 271.504C112.642 271.504 101.586 271.504 88.5492 271.4H88.3406V271.191C87.2976 261.179 86.2546 249.706 85.3159 237.607C84.4816 226.865 83.8558 216.643 83.4386 207.361C83.3343 205.066 83.23 202.772 83.23 200.582C83.23 199.434 83.23 198.391 83.23 197.348C83.3343 196.305 83.4386 195.262 83.5429 194.219C83.6472 192.133 84.273 190.152 84.6901 188.274C85.003 187.336 85.3159 186.501 85.6288 185.563C85.8374 185.145 85.9417 184.728 86.1503 184.311C86.3589 183.894 86.5675 183.477 86.7761 183.164C86.9847 182.747 87.1933 182.329 87.4019 182.017L87.7148 181.495C87.8191 181.286 87.9234 181.182 88.0277 180.974C88.5492 180.243 88.9664 179.618 89.4879 178.992C90.5309 177.845 91.5738 176.593 92.6168 175.759C94.8071 173.881 96.893 172.734 98.7704 172.004C100.648 171.274 102.108 170.857 103.151 170.752C103.672 170.648 104.09 170.648 104.298 170.544C104.715 170.544 104.82 170.648 104.82 170.648Z" fill="#251A51"/>
<path d="M104.194 316.561C104.367 316.561 104.507 306.802 104.507 294.763C104.507 282.724 104.367 272.965 104.194 272.965C104.021 272.965 103.881 282.724 103.881 294.763C103.881 306.802 104.021 316.561 104.194 316.561Z" fill="#251A51"/>
<path d="M240.302 126.634L178.662 132.161C178.14 132.161 177.619 132.579 177.41 133.204L163.747 177.218C163.643 177.635 163.33 177.948 162.913 178.157L139.237 184.623C138.716 184.832 138.299 185.353 138.299 185.875C138.299 186.814 139.133 187.544 140.072 187.335L165.52 181.912L222.78 174.819C223.302 174.715 223.719 174.402 223.927 173.985L241.762 128.72C242.075 127.572 241.345 126.634 240.302 126.634Z" fill="#ECF1FE"/>
<path d="M240.303 126.634C240.303 126.634 240.511 126.53 240.824 126.634C241.137 126.738 241.763 127.051 241.867 127.781C241.972 128.198 241.763 128.511 241.659 128.928C241.45 129.346 241.346 129.763 241.137 130.284C240.72 131.223 240.303 132.37 239.781 133.622C237.8 138.732 234.879 146.138 231.333 155.316C229.56 159.905 227.578 165.016 225.388 170.439C225.075 171.169 224.867 171.795 224.554 172.525L224.137 173.568C224.032 173.881 223.719 174.402 223.406 174.611C223.198 174.715 222.989 174.82 222.781 174.82L222.155 174.924L221.008 175.028C220.278 175.132 219.443 175.237 218.713 175.341C215.584 175.758 212.351 176.175 209.118 176.593C195.872 178.261 181.166 180.139 165.521 182.016C161.14 182.955 156.76 183.894 152.275 184.832C149.981 185.354 147.79 185.771 145.496 186.292C144.348 186.501 143.201 186.814 142.054 187.022L140.385 187.335C140.072 187.44 139.759 187.44 139.446 187.44C139.134 187.335 138.821 187.231 138.508 186.918C138.091 186.501 137.986 185.875 138.091 185.354C138.195 184.832 138.612 184.311 139.134 184.206C147.269 182.016 155.091 179.826 162.809 177.74C163.226 177.636 163.435 177.323 163.539 176.801L163.957 175.445C164.269 174.507 164.582 173.568 164.791 172.629C165.417 170.752 165.938 168.979 166.564 167.102C167.711 163.451 168.859 159.905 169.902 156.359C172.092 149.371 174.178 142.591 176.159 136.229C176.368 135.395 176.681 134.665 176.89 133.83C176.994 133.413 177.098 133.1 177.307 132.579C177.515 132.162 178.037 131.849 178.454 131.849C180.123 131.744 181.687 131.536 183.252 131.432C186.381 131.119 189.405 130.91 192.326 130.597C198.166 130.076 203.59 129.554 208.596 129.137C218.504 128.303 226.327 127.573 231.855 127.155C234.566 126.947 236.652 126.738 238.113 126.634C238.843 126.53 239.364 126.53 239.677 126.53C240.094 126.634 240.303 126.634 240.303 126.634C240.303 126.634 240.094 126.634 239.781 126.738C239.364 126.738 238.843 126.842 238.217 126.947C236.757 127.051 234.671 127.26 231.959 127.573C226.535 128.094 218.609 128.824 208.805 129.763C203.903 130.18 198.479 130.701 192.639 131.223C189.718 131.536 186.694 131.744 183.565 132.057C182 132.162 180.436 132.37 178.767 132.475C178.454 132.475 178.141 132.683 177.933 132.996C177.724 133.309 177.724 133.726 177.515 134.143C177.307 134.978 176.994 135.708 176.785 136.542C174.804 142.904 172.718 149.684 170.527 156.672C169.484 160.218 168.337 163.764 167.19 167.414C166.668 169.292 166.043 171.065 165.521 172.942C165.208 173.881 164.895 174.82 164.687 175.758L164.269 177.114C164.165 177.636 163.748 178.157 163.122 178.366C155.508 180.452 147.582 182.642 139.446 184.832C139.134 184.937 138.821 185.249 138.716 185.667C138.612 186.084 138.716 186.397 139.029 186.71C139.238 186.918 139.446 187.022 139.655 187.022C139.864 187.127 140.072 187.022 140.385 186.918L142.054 186.605C143.201 186.397 144.348 186.084 145.496 185.875C147.79 185.354 149.981 184.937 152.275 184.415C156.76 183.476 161.14 182.538 165.521 181.599C181.166 179.617 195.872 177.844 209.118 176.175C212.455 175.758 215.688 175.341 218.817 175.028C219.547 174.924 220.382 174.82 221.112 174.715L222.259 174.611C222.676 174.507 222.989 174.507 223.302 174.402C223.615 174.194 223.719 173.985 223.928 173.568L224.345 172.525C224.658 171.795 224.867 171.169 225.18 170.439C227.37 165.016 229.351 159.905 231.125 155.316C234.775 146.138 237.695 138.732 239.781 133.726C240.303 132.475 240.72 131.327 241.137 130.389C241.346 129.867 241.554 129.45 241.659 129.033C241.867 128.616 241.972 128.303 241.972 127.885C241.867 127.155 241.346 126.842 241.033 126.738C240.511 126.634 240.303 126.738 240.303 126.634Z" fill="#251A51"/>
<path d="M180.957 132.057C180.957 132.057 180.957 132.266 180.853 132.579C180.749 132.996 180.644 133.413 180.436 134.039C180.123 135.291 179.601 137.168 178.871 139.463C177.515 143.947 175.638 150.205 173.448 157.089C171.257 163.868 169.276 170.126 167.816 174.715C167.086 176.906 166.564 178.679 166.147 180.035C165.938 180.66 165.834 181.078 165.625 181.495C165.521 181.808 165.417 182.016 165.417 182.016C165.417 182.016 165.417 181.808 165.521 181.495C165.625 181.078 165.73 180.66 165.938 180.035C166.251 178.783 166.773 176.906 167.503 174.611C168.859 170.126 170.736 163.868 172.926 156.985C175.116 150.205 177.098 143.947 178.558 139.358C179.288 137.168 179.81 135.395 180.227 134.039C180.436 133.413 180.54 132.996 180.749 132.579C180.853 132.162 180.957 132.057 180.957 132.057Z" fill="#251A51"/>
<path d="M204.633 149.997C203.694 149.997 203.068 150.205 202.234 151.144C201.608 151.77 201.191 152.708 201.608 153.543C201.921 154.169 202.547 154.481 203.173 154.586C203.798 154.69 204.424 154.377 205.05 154.064C205.78 153.647 206.51 152.813 206.51 151.978C206.51 151.04 205.676 149.997 204.633 149.997Z" fill="white"/>
<path d="M197.019 130.284C197.019 130.284 196.811 129.867 196.498 129.033C196.185 128.094 195.768 126.842 195.35 125.487C194.307 122.462 192.952 118.29 191.179 113.805C189.405 109.216 187.737 105.253 186.485 102.228C185.859 100.872 185.338 99.7249 185.025 98.7863C184.712 97.9519 184.503 97.5347 184.503 97.5347C184.503 97.5347 184.816 97.9519 185.234 98.7863C185.651 99.6206 186.172 100.768 186.902 102.228C188.258 105.148 190.031 109.216 191.804 113.701C193.577 118.29 194.933 122.462 195.872 125.487C196.289 127.051 196.706 128.303 196.915 129.137C197.019 129.763 197.123 130.284 197.019 130.284Z" fill="#251A51"/>
<path d="M310.809 355.36C310.809 355.431 241.199 355.575 155.404 355.575C69.538 355.575 0 355.503 0 355.36C0 355.288 69.538 355.145 155.404 355.145C241.199 355.145 310.809 355.288 310.809 355.36Z" fill="#251A51"/>
</svg>
